<?xml version="1.0" encoding="UTF-8"?> <svg xmlns="http://www.w3.org/2000/svg" width="589" height="587" viewBox="0 0 589 587" fill="none"><g style="mix-blend-mode:multiply" opacity="0.634603"><path fill-rule="evenodd" clip-rule="evenodd" d="M294.5 587C457.148 587 589 455.596 589 293.5C589 131.404 457.148 0 294.5 0C131.852 0 0 131.404 0 293.5C0 455.596 131.852 587 294.5 587Z" fill="url(#paint0_radial)"></path></g><path d="M287.559 205.691L60.8795 336.044V354.419L287.779 488.393L514.695 355.993V337.617L287.559 205.691Z" fill="black"></path><path d="M514.695 337.685L287.559 205.742L60.8795 336.112L287.779 470.068L514.695 337.685Z" fill="#4D4D4E"></path><path d="M287.779 469.967L60.8795 336.01V354.368L287.779 488.342L514.695 355.942V337.567L287.779 469.967Z" fill="#353535"></path><path opacity="0.46" d="M289.149 219.278L495.372 337.364L397.015 393.843L190.826 275.741L289.149 219.278Z" fill="#2B2B2B"></path><g opacity="0.34"><path d="M181.436 281.155L387.658 399.241L289.302 455.72L83.1125 337.618L181.436 281.155Z" fill="#EAEAEA"></path></g><path d="M427.556 316.619C427.235 317.364 363.259 330.866 361.957 330.866C360.654 330.866 348.945 326.179 349.233 325.621C349.52 325.063 389.503 316.619 391.195 316.619C392.887 316.619 427.861 315.875 427.556 316.619Z" fill="white"></path><path d="M344.241 284.201C344.41 283.879 342.752 282.052 341.991 281.476C340.667 280.421 339.225 279.524 337.693 278.803C336.018 278.175 334.237 277.877 332.448 277.923C330.53 277.832 328.613 278.131 326.813 278.803C325.323 279.317 323.932 280.084 322.702 281.07C321.568 282.136 321.01 282.61 321.01 283.355C321.089 284.547 321.586 285.674 322.414 286.536C323.345 287.669 325.138 288.786 325.325 289.818C325.54 290.85 325.137 291.912 324.292 292.542C322.517 293.155 320.63 293.38 318.76 293.202C316.398 292.545 314.216 291.359 312.381 289.733C310.976 288.228 310.689 287.483 310.147 287.483C308.768 287.837 307.507 288.549 306.492 289.547C306.205 290.19 308.354 291.882 309.115 292.542C310.641 293.611 312.274 294.519 313.988 295.249C315.35 295.829 316.807 296.15 318.286 296.197C319.656 296.379 321.044 296.379 322.414 296.197C324.068 296.031 325.682 295.585 327.186 294.877C328.519 294.445 329.716 293.668 330.654 292.627C331.687 291.51 331.5 291.51 331.5 290.579C331.5 289.649 331.23 289.361 330.384 288.143C329.538 286.925 328.506 285.977 328.133 285.419C327.761 284.86 327.101 283.913 327.389 283.168C327.73 282.291 328.452 281.618 329.352 281.341C330.858 280.977 332.43 280.977 333.937 281.341C335.635 281.723 337.215 282.513 338.539 283.642C339.69 284.64 340.4 285.723 340.773 285.977C342.08 285.745 343.288 285.126 344.241 284.201Z" fill="white"></path><path d="M328.692 275.165C328.692 274.641 326.238 273.761 325.308 273.473C324.377 273.186 300.57 281.849 300.57 281.849L316.12 269.159L311.991 266.908L288.811 275.487C288.811 275.487 303.599 263.643 303.599 262.898C303.599 262.154 300.35 260.208 299.657 260.208C298.963 260.208 280.926 276.485 280.926 277.128C280.926 277.771 284.225 279.446 285.359 279.514C286.493 279.581 308.59 271.054 308.59 271.054L293.802 283.27C293.802 283.27 296.408 285.453 297.288 285.453C298.168 285.453 328.692 275.673 328.692 275.165Z" fill="white"></path><path fill-rule="evenodd" clip-rule="evenodd" d="M289.048 254.15C290.516 254.97 291.899 255.934 293.176 257.027C293.895 257.666 294.144 258.683 293.802 259.582C292.615 261.078 291.164 262.346 289.521 263.321C288.639 263.903 285.957 265.357 283.556 266.658C281.768 267.628 280.136 268.512 279.522 268.888C278.428 269.395 277.449 270.121 276.645 271.02C276.372 271.402 276.246 271.702 276.147 271.939C276.031 272.215 275.952 272.406 275.715 272.543C273.804 272.78 271.872 272.78 269.962 272.543C269.738 272.426 270.309 271.595 270.852 270.806C271.336 270.102 271.797 269.431 271.654 269.328C271.54 269.246 270.935 269.295 270.103 269.364C268.706 269.479 266.669 269.646 265.258 269.328C263.008 268.82 259.759 267.703 258.761 266.384C258.066 265.602 257.87 264.497 258.253 263.524C259.013 262.399 259.991 261.439 261.129 260.698C262.535 259.713 264.132 259.033 265.816 258.702C267.653 258.382 269.522 258.279 271.383 258.397C272.969 258.41 274.536 258.75 275.985 259.396C277.61 260.14 280.165 261.697 280.858 262.137C281.192 262.348 281.377 262.521 281.528 262.662C281.691 262.814 281.814 262.929 282.043 263.017C283.85 262.629 285.545 261.837 287 260.698C287.745 259.836 288.219 258.786 287.643 257.957C286.591 256.677 285.194 255.725 283.616 255.216C282.742 254.807 281.274 254.584 279.948 254.383C278.424 254.152 277.088 253.949 277.051 253.524C276.984 252.729 278.49 252.374 279.133 252.272C280.372 252.088 281.632 252.088 282.872 252.272C285.028 252.515 287.121 253.152 289.048 254.15ZM270.182 267.805C271.932 267.807 273.676 267.597 275.376 267.179V267.145C276.307 266.84 278.879 265.555 278.879 264.844C278.879 264.133 276.493 263 274.412 262.204C272.906 261.483 271.239 261.163 269.573 261.274C267.991 261.265 266.468 261.872 265.326 262.966C264.664 263.51 264.369 264.382 264.564 265.216C264.632 265.808 265.478 266.468 266.07 266.739C267.284 267.542 268.731 267.918 270.182 267.805Z" fill="white"></path><path d="M423.546 321.865C422.988 321.053 396.372 327.516 395.442 328.751C394.511 329.986 390.755 346.331 389.875 346.72C388.995 347.11 360.654 334.487 359.706 335.198C358.759 335.909 399.063 357.194 400.687 356.856C402.311 356.517 424.087 322.677 423.546 321.865Z" fill="white"></path><path d="M307.423 298.583C309.695 299.141 311.897 299.953 313.988 301.002C315.934 302.153 316.577 302.559 316.323 303.32C316.069 304.082 314.986 304.572 313.667 305.249C310.47 306.688 307.145 307.821 303.734 308.633C301.654 309.019 299.537 309.166 297.423 309.073C296.746 308.955 296.679 308.329 297.931 307.956C299.183 307.584 301.315 307.077 302.55 306.823C304.396 306.376 306.192 305.747 307.914 304.945C309.233 304.268 310.079 303.71 310.249 303.253C310.418 302.796 310.35 302.559 309.673 302.068C308.159 301.127 306.548 300.35 304.868 299.75C303.294 299.26 300.841 298.684 301.23 298.227C301.924 297.449 305.646 298.143 307.423 298.583Z" fill="white"></path><path d="M245.394 268.837C245.394 268.837 244.531 267.28 243.786 267.534C243.042 267.788 242.433 270.918 243.059 273.676C243.685 276.434 246.883 283.625 251.011 286.823C256.069 291.022 261.606 294.606 267.508 297.5C272.857 299.905 278.51 301.568 284.31 302.44C288.338 303.18 292.406 303.683 296.493 303.946C299.063 304.265 301.655 304.366 304.242 304.251C304.8 303.946 305.173 302.813 303.294 302.44C301.416 302.068 298.54 301.408 291.924 300.004C284.868 298.498 275.122 296.197 268.625 292.136C263.869 289.31 259.343 286.114 255.089 282.576C252.914 280.678 250.982 278.518 249.336 276.147C247.893 273.782 246.577 271.342 245.394 268.837Z" fill="white"></path><path fill-rule="evenodd" clip-rule="evenodd" d="M307.541 388.683C305.849 388.683 292.313 395.789 292.313 397.143C292.313 398.496 302.584 403.911 304.293 403.911C306.002 403.911 319.639 396.754 319.639 395.349C319.639 393.945 309.25 388.683 307.541 388.683ZM307.643 390.222C308.337 390.222 311.788 391.728 311.788 392.287C311.788 392.845 306.712 395.485 306.069 395.485C304.382 395.096 302.803 394.333 301.45 393.251C301.264 392.727 306.966 390.222 307.643 390.222ZM299.809 394.199C297.96 394.904 296.244 395.916 294.733 397.193C294.581 397.701 298.32 399.495 298.658 399.545C300.574 398.879 302.365 397.895 303.954 396.635C302.735 395.573 301.33 394.747 299.809 394.199ZM304.885 402.269C303.192 401.944 301.595 401.238 300.215 400.205C301.87 398.929 303.714 397.919 305.68 397.21C307.324 397.697 308.875 398.458 310.266 399.461C308.602 400.597 306.821 401.55 304.953 402.303L304.885 402.269ZM307.694 396.364C308.941 397.341 310.35 398.091 311.856 398.581L311.924 398.615C312.55 398.446 317.575 395.975 317.575 395.383C317.575 394.791 314.056 393.099 313.362 393.099C312.668 393.099 307.423 395.874 307.694 396.364Z" fill="white"></path><path fill-rule="evenodd" clip-rule="evenodd" d="M325.477 397.244C323.785 397.244 310.333 404.334 310.333 405.704C310.333 407.075 320.587 412.472 322.296 412.472C324.005 412.472 337.642 405.315 337.642 403.928C337.642 402.54 327.186 397.244 325.477 397.244ZM325.595 398.767C326.272 398.767 329.724 400.273 329.724 400.831C329.724 401.39 324.648 404.046 324.022 404.046C322.334 403.658 320.755 402.894 319.402 401.813C319.183 401.271 324.902 398.767 325.595 398.767ZM317.744 402.743C315.896 403.448 314.179 404.461 312.668 405.738C312.533 406.263 316.255 408.039 316.695 408.039C318.612 407.376 320.403 406.392 321.991 405.129C320.739 404.072 319.298 403.263 317.744 402.743ZM322.82 410.814C321.123 410.485 319.522 409.779 318.133 408.75C319.786 407.466 321.63 406.449 323.599 405.738C325.244 406.222 326.795 406.983 328.184 407.988C326.536 409.139 324.765 410.103 322.905 410.865L322.82 410.814ZM325.612 404.892C326.868 405.869 328.281 406.625 329.791 407.126L329.876 407.176C330.485 406.99 335.51 404.486 335.51 403.911C335.51 403.335 331.873 401.643 331.28 401.643C330.688 401.643 325.358 404.401 325.612 404.892Z" fill="white"></path><path fill-rule="evenodd" clip-rule="evenodd" d="M286.324 400.171C284.632 400.171 271.095 407.278 271.095 408.631C271.095 409.985 281.349 415.4 283.058 415.4C284.767 415.4 298.405 408.242 298.405 406.838C298.405 405.434 288.033 400.171 286.324 400.171ZM286.425 401.711C287.119 401.711 290.571 403.217 290.571 403.775C290.571 404.334 285.494 406.973 284.852 406.973C283.165 406.582 281.587 405.819 280.232 404.74C280.063 404.215 285.748 401.711 286.425 401.711ZM278.574 405.687C276.725 406.392 275.009 407.405 273.498 408.682C273.363 409.19 277.102 410.983 277.508 410.983C279.424 410.317 281.214 409.333 282.804 408.073C281.556 407.02 280.121 406.211 278.574 405.687ZM283.65 413.758C281.958 413.42 280.363 412.709 278.98 411.677C280.636 410.401 282.479 409.391 284.445 408.682C286.09 409.169 287.64 409.93 289.031 410.933C287.371 412.073 285.596 413.038 283.735 413.809L283.65 413.758ZM286.459 407.836C287.707 408.811 289.116 409.561 290.621 410.053L290.706 410.171C291.332 409.934 296.34 407.447 296.34 406.855C296.34 406.263 292.821 404.571 292.127 404.571C291.433 404.571 286.188 407.346 286.459 407.836Z" fill="white"></path><path fill-rule="evenodd" clip-rule="evenodd" d="M304.259 408.733C302.567 408.733 289.031 415.822 289.031 417.193C289.031 418.564 299.284 423.961 301.01 423.961C302.736 423.961 316.357 416.821 316.357 415.416C316.357 414.012 305.985 408.733 304.259 408.733ZM304.377 410.256C305.071 410.256 308.523 411.762 308.523 412.32C308.523 412.878 303.447 415.535 302.804 415.535C301.116 415.146 299.537 414.383 298.185 413.301C297.998 412.76 303.684 410.256 304.377 410.256ZM296.543 414.232C294.696 414.939 292.98 415.952 291.467 417.227C291.315 417.751 295.037 419.528 295.494 419.528C297.413 418.868 299.204 417.884 300.79 416.618C299.538 415.561 298.097 414.752 296.543 414.232ZM301.619 422.303C299.958 421.99 298.387 421.314 297.017 420.323C298.663 419.039 300.502 418.023 302.465 417.311C304.116 417.796 305.672 418.557 307.068 419.562C305.383 420.688 303.578 421.624 301.687 422.354L301.619 422.303ZM304.411 416.381C305.669 417.355 307.082 418.11 308.59 418.614L308.658 418.631C309.267 418.479 314.309 415.975 314.309 415.399C314.309 414.824 310.756 413.132 310.079 413.132C309.403 413.132 304.157 415.89 304.411 416.381Z" fill="white"></path><path fill-rule="evenodd" clip-rule="evenodd" d="M244.734 380.155L257.153 373.234C257.373 373.168 257.611 373.192 257.813 373.302L267.559 378.378C267.83 378.522 268.004 378.799 268.016 379.106C268.02 379.412 267.858 379.697 267.593 379.85L255.749 386.974C255.617 387.054 255.464 387.095 255.309 387.092C255.173 387.093 255.038 387.058 254.92 386.99L244.768 381.644C244.486 381.511 244.308 381.227 244.311 380.916C244.3 380.604 244.463 380.311 244.734 380.155ZM247.001 380.882L255.461 385.282L265.613 379.173L257.593 374.926L247.001 380.882Z" fill="white"></path><path fill-rule="evenodd" clip-rule="evenodd" d="M284.056 372.71C284.464 372.491 284.971 372.633 285.207 373.031C285.394 373.439 285.23 373.921 284.835 374.131L280.385 376.601L281.721 377.278C281.995 377.428 282.168 377.711 282.178 378.023C282.189 378.335 282.026 378.628 281.755 378.784L279.183 380.222L283.143 382.253C283.557 382.464 283.724 382.97 283.515 383.386C283.376 383.68 283.078 383.865 282.753 383.86C282.623 383.858 282.495 383.823 282.381 383.759L277.407 381.221L272.601 383.911L276.459 385.891C276.874 386.102 277.04 386.608 276.831 387.024C276.681 387.305 276.389 387.481 276.07 387.481C275.936 387.477 275.804 387.449 275.681 387.396L270.825 384.909L266.29 387.464L270.097 389.41C270.453 389.582 270.642 389.977 270.553 390.362C270.463 390.747 270.12 391.019 269.725 391.017C269.589 391.018 269.454 390.983 269.336 390.916L264.513 388.462L259.776 391.119L263.532 393.031C263.999 393.138 264.291 393.604 264.184 394.071C264.076 394.539 263.61 394.83 263.143 394.723C263.007 394.722 262.873 394.687 262.754 394.621L257.999 392.202L254.954 393.894C254.823 393.961 254.678 393.996 254.531 393.995C254.401 394 254.273 393.971 254.158 393.911L251.637 392.625L245.106 396.246C244.708 396.41 244.251 396.249 244.043 395.872C243.835 395.496 243.943 395.023 244.294 394.774L249.827 391.694L245.952 389.698L239.861 392.997C239.735 393.062 239.596 393.097 239.455 393.099C239.144 393.103 238.856 392.933 238.71 392.659C238.495 392.247 238.644 391.738 239.049 391.508L244.125 388.767L240.571 386.94L233.939 390.476C233.82 390.543 233.686 390.578 233.55 390.577C233.161 390.579 232.822 390.317 232.726 389.941C232.63 389.565 232.802 389.171 233.144 388.987L238.744 386.009L234.92 384.046L228.609 387.43C228.341 387.598 228.002 387.602 227.73 387.441C227.458 387.281 227.298 386.982 227.315 386.666C227.333 386.35 227.525 386.071 227.814 385.941L233.127 383.116L231.604 382.32C231.328 382.182 231.152 381.902 231.147 381.593C231.144 381.278 231.312 380.986 231.587 380.831L233.634 379.715L229.979 377.837C229.572 377.619 229.408 377.12 229.607 376.703C229.709 376.499 229.888 376.345 230.104 376.275C230.321 376.205 230.556 376.225 230.758 376.331L235.326 378.615L240.115 375.992L236.443 374.114C236.24 374.016 236.086 373.84 236.016 373.626C235.946 373.413 235.966 373.179 236.071 372.981C236.282 372.566 236.788 372.399 237.204 372.608L241.925 375.011L246.527 372.49L242.788 370.578C242.373 370.367 242.207 369.86 242.416 369.444C242.634 369.027 243.145 368.862 243.566 369.072L248.321 371.508L253.194 368.852L249.471 366.957C249.063 366.74 248.905 366.235 249.116 365.823C249.214 365.621 249.39 365.467 249.604 365.396C249.818 365.326 250.051 365.346 250.25 365.451L254.987 367.871L258.541 365.925C258.791 365.798 259.086 365.798 259.336 365.925L262.094 367.329L267.644 364.351C268.056 364.136 268.565 364.285 268.794 364.69C268.901 364.889 268.924 365.123 268.857 365.339C268.79 365.555 268.64 365.736 268.439 365.84L263.938 368.277L267.948 370.307L273.024 367.617C273.44 367.397 273.955 367.556 274.175 367.972C274.395 368.388 274.235 368.903 273.82 369.123L269.826 371.255L273.21 372.947L278.709 370.003C278.975 369.857 279.299 369.865 279.557 370.023C279.816 370.181 279.971 370.465 279.963 370.768C279.956 371.071 279.788 371.346 279.522 371.492L275.089 373.894L278.659 375.705L284.056 372.71ZM246.646 388.124L254.548 392.185L279.572 378.124L259.082 367.701L233.803 381.542L246.138 387.87C246.334 387.885 246.517 387.976 246.646 388.124Z" fill="white"></path><path fill-rule="evenodd" clip-rule="evenodd" d="M225.631 340.358L235.783 345.739L235.698 345.807C235.983 345.946 236.163 346.235 236.163 346.551C236.163 346.868 235.983 347.157 235.698 347.296L223.33 353.793C223.211 353.86 223.077 353.895 222.941 353.895C222.787 353.89 222.636 353.849 222.501 353.776L217.425 350.697L212.349 353.472L221.198 358.175C221.457 358.321 221.623 358.589 221.638 358.886C221.656 359.187 221.507 359.474 221.249 359.631L216.613 362.575L220.318 364.537C220.591 364.69 220.759 364.978 220.759 365.29C220.759 365.603 220.591 365.891 220.318 366.043L207.949 372.541C207.816 372.572 207.677 372.572 207.543 372.541C207.394 372.542 207.247 372.501 207.12 372.422L197.493 366.686C197.234 366.521 197.08 366.232 197.087 365.925C197.095 365.617 197.27 365.339 197.544 365.197L209.388 359.089C209.635 358.954 209.935 358.954 210.183 359.089L214.87 361.576L219.1 358.903L200.911 349.258L196.325 351.577L199.557 353.269C199.841 353.407 200.019 353.697 200.014 354.013C200.011 354.327 199.836 354.613 199.557 354.758L187.188 361.255C187.07 361.322 186.936 361.357 186.799 361.356C186.645 361.351 186.495 361.311 186.359 361.238L176.749 355.485C176.479 355.33 176.321 355.034 176.343 354.724C176.342 354.418 176.521 354.139 176.799 354.013L188.644 347.888C188.891 347.753 189.191 347.753 189.439 347.888L194.515 350.561L200.555 347.566C200.793 347.44 201.079 347.44 201.317 347.566L210.521 352.49L215.733 349.648L212.958 347.956C212.692 347.802 212.531 347.518 212.535 347.211C212.543 346.899 212.726 346.617 213.009 346.484L224.853 340.358C225.097 340.232 225.387 340.232 225.631 340.358ZM178.948 354.808L186.867 359.529L197.408 354.013L189.1 349.597L178.948 354.808ZM207.51 370.747L199.608 366.026L209.76 360.798L214.498 363.319L218.068 365.214L207.51 370.747ZM215.09 347.279L223.008 352.016L233.55 346.484L225.242 342.067L215.09 347.279Z" fill="white"></path><path fill-rule="evenodd" clip-rule="evenodd" d="M169.693 312.643C171.673 312.643 178.745 315.452 183.821 317.973C183.974 318.041 195.953 324.132 195.242 326.23C195.141 326.586 194.972 327.093 177.629 336.078C166.14 342.034 159.812 345.062 158.83 345.062C156.681 345.062 149.964 342.355 144.702 339.732C140.066 337.397 133.839 332.88 133.839 331.425C133.839 330.799 133.975 330.477 151.182 321.56C168.39 312.643 169.371 312.643 169.693 312.643ZM145.463 338.193C151.504 341.221 157.29 343.353 158.796 343.353L158.83 343.37C162.28 342.011 165.647 340.452 168.915 338.7C166.072 337.533 160.336 335.13 156.529 333.1C152.778 331.069 149.156 328.809 145.683 326.332C141.149 328.717 137.375 330.765 135.87 331.628C138.751 334.246 141.979 336.455 145.463 338.193ZM170.928 337.617C169.236 336.941 161.859 333.963 157.392 331.526C153.96 329.689 150.632 327.661 147.426 325.452C151.013 323.557 154.922 321.526 158.475 319.733C158.763 319.919 165.243 324.047 168.153 325.604C170.522 326.822 178.424 330.426 181.842 331.983C178.305 333.844 174.481 335.841 170.962 337.634L170.928 337.617ZM168.864 324.098C171.503 325.469 181.571 330.037 183.669 330.985L183.703 331.002C188.153 328.65 191.841 326.636 193.212 325.689C190.047 323.257 186.646 321.148 183.06 319.394C177.51 316.687 171.08 314.318 169.693 314.318C166.436 315.657 163.25 317.165 160.15 318.836C162.011 320.037 166.563 322.914 168.864 324.098Z" fill="white"></path><g opacity="0.4"><path d="M288.219 270.681L178.238 205.759V214.659L288.219 279.581L398.2 215.42V206.52L288.219 270.681Z" fill="#185580"></path><path d="M398.2 206.52L288.117 142.562L178.238 205.759L288.219 270.681L398.2 206.52Z" fill="url(#paint1_linear)"></path><path fill-rule="evenodd" clip-rule="evenodd" d="M330.637 172.595L323.294 177.164L370.62 206.114L339.859 224.168L332.533 219.684L335.257 217.992L328.59 214.1L325.308 215.792L311.365 206.757L313.683 205.065L309.91 202.95L307.186 204.76L292.787 196.131L286.679 199.904C286.607 199.927 286.531 199.927 286.459 199.904C286.313 199.902 286.179 199.826 286.104 199.701C286.047 199.609 286.03 199.499 286.056 199.394C286.081 199.289 286.147 199.199 286.239 199.143L329.098 172.612L324.022 169.499C323.898 169.423 323.824 169.287 323.827 169.142C323.831 168.997 323.911 168.865 324.039 168.795C324.166 168.726 324.321 168.73 324.445 168.805L330.637 172.595ZM336.847 217.975L334.106 219.667L339.859 223.17L369.029 206.097L322.567 177.671V177.57L293.599 195.59L307.135 203.745L309.86 201.935L315.172 204.913L312.77 206.706L325.341 214.845L328.607 213.153L336.847 217.975Z" fill="white"></path><path d="M351.906 203.373L354.173 204.794L353.378 208.5L335.95 209.633L338.116 198.788H344.174L350.84 202.916L349.876 206.266L340.502 206.622L340.79 204.913L347.575 204.727L348.099 203.559L343.395 200.361H340.4L338.911 207.755L351.263 207.095L351.906 203.373Z" fill="white"></path><path fill-rule="evenodd" clip-rule="evenodd" d="M253.566 187.908L246.206 192.476L293.599 221.444L262.821 239.464L255.495 234.98L258.202 233.288L251.553 229.396L248.27 231.088L234.311 222.07L236.646 220.378L232.873 218.263L230.132 220.073L215.733 211.444L209.625 215.217C209.559 215.239 209.487 215.239 209.421 215.217C209.232 215.229 209.059 215.107 209.007 214.924C208.954 214.742 209.035 214.547 209.202 214.456L252.01 187.925L246.933 184.812C246.841 184.756 246.775 184.665 246.75 184.56C246.725 184.456 246.742 184.345 246.798 184.253C246.851 184.157 246.941 184.088 247.047 184.062C247.154 184.037 247.266 184.057 247.356 184.118L253.566 187.908ZM259.759 233.271L257.018 234.963L262.906 238.415L292.093 221.342L245.614 192.916V192.798L216.528 210.818L230.064 218.973L232.788 217.281L238.067 220.259L235.682 222.053L248.253 230.191L251.502 228.499L259.759 233.271Z" fill="white"></path><path fill-rule="evenodd" clip-rule="evenodd" d="M254.226 206.215C253.096 205.03 251.767 204.051 250.301 203.322C247.221 201.732 243.533 200.886 242.619 202.358L233.397 208.584C233.369 208.578 233.341 208.578 233.313 208.584C232.856 209.278 233.076 210.276 233.922 211.495C234.888 212.757 236.075 213.835 237.424 214.676C239.024 215.744 240.884 216.358 242.805 216.452C243.442 216.503 244.076 216.329 244.598 215.961L253.905 209.836C254.428 209.771 254.892 209.464 255.157 209.007C255.529 208.347 255.207 207.332 254.226 206.215ZM247.323 213.508C245.268 213.522 243.241 213.034 241.417 212.087C238.389 210.496 236.544 208.026 236.934 206.926L239.218 205.386C239.218 206.977 241.333 209.244 244.175 210.665C245.852 211.458 247.657 211.939 249.505 212.087L247.323 213.508ZM244.446 210.107C246.298 211.032 248.351 211.479 250.419 211.41L250.47 211.545L252.686 210.09H252.314C250.69 209.875 249.119 209.365 247.678 208.584C245.005 207.214 242.602 205.031 242.467 203.339L239.912 205.031C239.37 206.012 241.333 208.55 244.446 210.107ZM244.209 215.589C243.583 216.165 240.825 216.232 237.763 214.269C236.461 213.479 235.315 212.459 234.379 211.258C233.736 210.344 233.516 209.566 233.77 209.075L236.24 207.383C236.341 208.957 238.338 211.19 241.096 212.628C242.731 213.45 244.503 213.966 246.324 214.151L244.209 215.589ZM252.331 209.396C253.532 209.515 254.361 209.312 254.598 208.821C254.886 208.314 254.548 207.518 253.752 206.672C252.684 205.534 251.417 204.599 250.013 203.914C248.338 202.954 246.472 202.377 244.548 202.222C243.803 202.222 243.279 202.408 243.11 202.747C242.602 203.728 244.649 206.266 247.915 207.958C249.29 208.696 250.785 209.183 252.331 209.396Z" fill="white"></path><path d="M274.835 218.686L277.085 220.09L276.307 223.796L258.862 224.946L261.045 214.1H267.102L273.769 218.229L272.787 221.579L263.414 221.934L263.718 220.225L270.486 220.039L271.028 218.872L266.307 215.674H263.312L261.823 223.068L274.192 222.408L274.835 218.686Z" fill="white"></path><path fill-rule="evenodd" clip-rule="evenodd" d="M327.778 187.57L332.414 190.48C332.516 190.545 332.569 190.665 332.549 190.784C332.547 190.89 332.497 190.99 332.414 191.055L327.778 194.016C327.723 194.033 327.664 194.033 327.609 194.016C327.553 194.031 327.495 194.031 327.44 194.016L325.341 192.629L323.243 193.915L327.287 196.537C327.384 196.584 327.444 196.684 327.44 196.791C327.437 196.892 327.387 196.986 327.304 197.045L325.511 198.314L327.203 199.431C327.297 199.489 327.354 199.591 327.355 199.701C327.359 199.809 327.299 199.908 327.203 199.955L322.567 202.916C322.517 202.931 322.464 202.931 322.414 202.916C322.359 202.933 322.3 202.933 322.245 202.916L317.795 199.989C317.712 199.93 317.662 199.836 317.66 199.735C317.662 199.629 317.712 199.53 317.795 199.464L322.245 196.537C322.342 196.472 322.469 196.472 322.567 196.537L324.868 197.975L326.56 196.808L318.1 191.275L316.272 192.476L317.964 193.559C318.056 193.619 318.113 193.72 318.117 193.83C318.11 193.934 318.053 194.029 317.964 194.084L313.328 197.045C313.273 197.062 313.214 197.062 313.159 197.045C313.104 197.06 313.045 197.06 312.99 197.045L308.557 194.118C308.46 194.062 308.402 193.958 308.404 193.847C308.408 193.742 308.465 193.646 308.557 193.593L312.99 190.598C313.094 190.538 313.223 190.538 313.328 190.598L315.646 192.053L317.88 190.615C317.982 190.547 318.116 190.547 318.218 190.615L322.668 193.492L324.783 192.206L322.99 191.021C322.904 190.965 322.853 190.87 322.853 190.767C322.853 190.665 322.904 190.57 322.99 190.514L327.44 187.57C327.542 187.501 327.676 187.501 327.778 187.57ZM309.284 193.796L313.176 196.368L317.22 193.779L313.176 191.224L309.284 193.796ZM322.499 202.256L318.607 199.684L322.499 197.112L326.56 199.651L322.499 202.256ZM323.683 190.767L327.575 193.339L331.636 190.734L327.575 188.196L323.683 190.767Z" fill="white"></path></g><g opacity="0.4"><path d="M289.088 194.191L179.545 129.999V138.798L288.265 202.989L397.826 139.553V130.738L289.088 194.191Z" fill="#3BAB24"></path><path d="M397.826 130.721L288.971 67.5038L179.545 129.966L289.088 194.174L397.826 130.721Z" fill="url(#paint2_linear)"></path><path d="M264.339 96.4512L345.841 142.29" stroke="white" stroke-width="0.48" stroke-linecap="round" stroke-dasharray="0"></path><path d="M233.359 114.568L314.862 160.407" stroke="white" stroke-width="0.48" stroke-linecap="round" stroke-dasharray="0"></path><path fill-rule="evenodd" clip-rule="evenodd" d="M356.621 125.768L358.132 124.811C361.49 122.712 360.953 119.22 357.091 117.02C353.073 114.805 348.219 114.723 344.129 116.802L342.617 117.759C341.554 117.643 340.48 117.86 339.545 118.38L337.664 119.572C333.853 121.99 334.306 126.037 338.856 128.589C343.407 131.141 350.073 131.259 353.884 128.841L355.765 127.649C356.448 127.292 356.801 126.517 356.621 125.768ZM355.597 123.35L354.623 123.971L345.707 118.934L346.664 118.33C349.268 116.995 352.366 117.046 354.925 118.464C357.393 119.858 357.662 122.091 355.597 123.417V123.35ZM339.444 128.152C343.541 130.486 349.703 130.587 353.196 128.387L355.076 127.111C356.134 126.44 355.983 125.331 354.74 124.626L344.397 118.699C343.1 118.012 341.547 118.012 340.25 118.699L338.353 119.908C334.86 122.108 335.347 125.818 339.444 128.152Z" fill="white"></path><path d="M346.731 123.35C346.022 123.082 345.24 123.082 344.532 123.35C343.977 123.602 343.742 124.038 343.91 124.458L341.946 125.482C341.779 125.539 341.665 125.693 341.66 125.869C341.687 126.063 341.815 126.23 341.996 126.305L342.651 126.691C342.879 126.81 343.133 126.868 343.39 126.859C343.622 126.865 343.85 126.8 344.045 126.675L345.606 125.432C346.182 125.529 346.774 125.429 347.285 125.147C347.625 124.984 347.806 124.607 347.722 124.24C347.547 123.806 347.181 123.477 346.731 123.35Z" fill="white"></path><path fill-rule="evenodd" clip-rule="evenodd" d="M336.942 106.677L319.496 96.4008C319.396 96.35 319.278 96.35 319.177 96.4008L305.09 104.36C304.989 104.412 304.926 104.515 304.926 104.628C304.926 104.741 304.989 104.845 305.09 104.897L311.672 108.776L309.338 110.203L306.232 108.356C306.161 108.314 306.076 108.303 305.997 108.325C305.918 108.347 305.851 108.401 305.812 108.473C305.764 108.541 305.747 108.626 305.766 108.706C305.786 108.787 305.839 108.855 305.913 108.893L316.088 114.904C316.137 114.92 316.19 114.92 316.239 114.904C316.35 114.911 316.455 114.852 316.508 114.753C316.588 114.608 316.544 114.426 316.407 114.333L313.502 112.654L315.836 111.227L322.838 115.358H323.006H323.157L336.942 107.214C337.034 107.155 337.089 107.054 337.089 106.945C337.089 106.837 337.034 106.735 336.942 106.677ZM312.898 112.335L309.959 110.656L312.276 109.246L315.215 110.925L312.898 112.335ZM305.829 104.695L322.972 114.77L336.052 106.996L319.261 97.0892L305.829 104.695Z" fill="white"></path><path d="M324.366 112.688L308.969 103.705C308.901 103.657 308.816 103.64 308.736 103.659C308.655 103.679 308.587 103.732 308.549 103.806C308.457 103.954 308.502 104.149 308.65 104.242L324.013 113.225C324.062 113.24 324.115 113.24 324.164 113.225C324.278 113.224 324.382 113.159 324.433 113.057C324.493 112.933 324.466 112.783 324.366 112.688Z" fill="white"></path><path d="M324.601 107.651C323.439 108.192 322.317 108.815 321.243 109.514C321.817 109.97 322.457 110.338 323.14 110.606C324.303 110.067 325.425 109.444 326.498 108.742C325.913 108.301 325.276 107.934 324.601 107.651V107.651Z" fill="white"></path><path d="M312.948 104.561C313.528 105.005 314.166 105.367 314.845 105.636C316.451 104.856 318.014 103.993 319.53 103.05C318.979 102.608 318.376 102.236 317.733 101.942C316.092 102.727 314.494 103.602 312.948 104.561H312.948Z" fill="white"></path><path d="M318.422 107.886C318.997 108.342 319.636 108.709 320.319 108.977C320.504 108.977 327.791 104.83 327.791 104.729C327.237 104.296 326.634 103.93 325.994 103.638C325.759 103.638 318.422 107.768 318.422 107.886Z" fill="white"></path><path d="M315.685 106.291C316.26 106.747 316.899 107.114 317.582 107.382C317.767 107.382 323.761 103.873 323.761 103.772C323.21 103.335 322.606 102.969 321.965 102.681C321.847 102.681 315.685 106.173 315.685 106.291Z" fill="white"></path><path d="M269.359 109.296L271.794 110.471L271.172 114.082L252.585 115.24L255.07 104.662L261.585 104.511L268.049 108.457L267.646 111.865L258.159 111.932V110.807L265.128 110.673L265.363 109.027L260.577 106.106H257.605L255.909 113.158L268.872 112.705L269.359 109.296Z" fill="white"></path><path d="M276.159 120.714L275.454 121.251L273.154 119.673L270.669 121.251L269.796 120.664L272.281 119.22L270.064 117.927L270.904 117.507L272.986 118.8L275.488 117.322L276.21 117.843L273.926 119.287L276.159 120.714Z" fill="white"></path><path d="M288.4 128.253C288.769 128.253 289.071 128.068 289.071 127.85C289.071 127.632 288.769 127.447 288.4 127.447C288.03 127.447 287.728 127.632 287.728 127.85C287.728 128.068 288.03 128.253 288.4 128.253Z" fill="white"></path><path d="M287.14 125.298C286.271 125.402 285.431 125.682 284.672 126.121L287.157 126.926L287.14 125.298Z" fill="white"></path><path d="M283.967 126.759C283.712 127.047 283.564 127.415 283.547 127.8C283.552 128.008 283.597 128.213 283.682 128.404L286.251 127.8L283.967 126.759Z" fill="white"></path><path d="M286.183 130.1L286.905 128.522L284.118 129.025C284.708 129.548 285.417 129.917 286.183 130.1Z" fill="white"></path><path d="M290.986 125.768C290.157 125.463 289.282 125.304 288.4 125.298C288.601 126.07 288.82 126.859 288.82 126.859L290.986 125.768Z" fill="white"></path><path d="M291.943 126.137L290.062 127.413L293.084 127.699C292.965 127.03 292.544 126.454 291.943 126.137Z" fill="white"></path><path d="M288.316 128.841L287.006 130.285C287.439 130.353 287.877 130.387 288.316 130.385C288.989 130.387 289.66 130.309 290.314 130.15L288.786 128.841H288.316Z" fill="white"></path><path fill-rule="evenodd" clip-rule="evenodd" d="M287.208 121.453C287.208 121.453 295.402 123.316 296.09 123.434L298.995 128.522L293.79 133.307L284.32 133.794L277.805 129.898L278.812 124.509L287.208 121.453ZM295.2 128.387C295.2 128.387 295.502 128.606 295.67 128.606C295.855 128.572 296.375 128.203 296.224 128.018C296.073 127.833 295.62 127.481 295.385 127.615C294.865 127.649 294.343 127.649 293.823 127.615C293.765 126.758 293.312 125.976 292.597 125.499L293.42 124.945H293.974C294.145 124.89 294.264 124.737 294.277 124.559C294.31 124.341 293.739 124.106 293.42 124.106C293.241 124.123 293.108 124.279 293.118 124.458L291.859 125.096C290.726 124.56 289.485 124.29 288.232 124.307H288.114C288.051 124.105 288.011 123.897 287.997 123.686C288.082 123.476 288.082 123.241 287.997 123.031C287.846 122.762 287.006 122.813 286.821 123.232C286.637 123.652 287.09 123.652 287.09 123.652V124.374C285.865 124.492 284.7 124.958 283.732 125.718L282.741 125.382C282.343 125.162 281.902 125.031 281.448 124.996C281.096 125.096 281.331 125.449 281.331 125.449L283.178 126.305C282.872 126.707 282.702 127.194 282.691 127.699C282.697 127.963 282.748 128.224 282.842 128.471L281.163 128.857C281.045 128.857 280.458 128.891 280.508 129.16C280.558 129.428 280.693 129.428 281.196 129.428L283.228 129.076C283.9 129.908 284.826 130.498 285.864 130.755L285.562 131.41C285.562 131.41 285.226 131.41 285.243 131.678C285.26 131.947 285.461 132.199 285.646 132.148C285.686 132.137 285.741 132.13 285.802 132.123C286.02 132.095 286.309 132.059 286.217 131.796C286.153 131.621 286.102 131.441 286.066 131.258L286.402 130.889C287.041 131.033 287.694 131.106 288.349 131.107C289.279 131.11 290.203 130.962 291.086 130.671L291.758 131.258C291.793 131.449 291.902 131.618 292.06 131.729C292.295 131.947 292.749 131.997 292.749 131.729C292.731 131.488 292.608 131.267 292.413 131.124C292.379 131.107 292.127 130.839 291.792 130.469C292.75 130.108 293.503 129.348 293.857 128.387H295.2Z" fill="white"></path><path d="M291.187 129.848C291.932 129.6 292.56 129.086 292.95 128.404H289.961L291.187 129.848Z" fill="white"></path><path d="M319.664 136.38C320.324 136.627 320.946 136.966 321.511 137.387C320.96 137.848 320.357 138.242 319.715 138.563C319.105 138.268 318.54 137.889 318.036 137.438C318.523 137.007 319.072 136.65 319.664 136.38Z" fill="white"></path><path d="M317.062 137.908C317.722 138.155 318.344 138.494 318.909 138.915C318.358 139.376 317.755 139.77 317.112 140.091C316.503 139.796 315.938 139.417 315.433 138.966C315.921 138.535 316.47 138.178 317.062 137.908V137.908Z" fill="white"></path><path d="M314.459 136.38C315.119 136.627 315.741 136.966 316.306 137.387C315.755 137.848 315.152 138.242 314.51 138.563C313.871 138.273 313.278 137.894 312.746 137.438C313.261 137.001 313.838 136.644 314.459 136.38V136.38Z" fill="white"></path><path d="M311.941 134.986C312.598 135.24 313.219 135.578 313.788 135.994C313.241 136.46 312.637 136.854 311.991 137.169C311.378 136.881 310.812 136.501 310.312 136.044C310.8 135.613 311.348 135.256 311.941 134.986V134.986Z" fill="white"></path><path d="M309.372 136.497C310.032 136.744 310.653 137.084 311.219 137.505C310.667 137.965 310.065 138.36 309.422 138.68C308.784 138.391 308.19 138.012 307.659 137.555C308.171 137.115 308.749 136.758 309.372 136.497Z" fill="white"></path><path d="M306.886 134.986C307.544 135.24 308.164 135.578 308.733 135.994C308.187 136.46 307.583 136.854 306.937 137.169C306.325 136.879 305.759 136.499 305.258 136.044C305.744 135.611 306.293 135.254 306.886 134.986Z" fill="white"></path><path d="M311.941 138.042C312.598 138.296 313.219 138.634 313.788 139.049C313.241 139.521 312.638 139.921 311.991 140.242C311.382 139.947 310.816 139.568 310.312 139.117C310.8 138.681 311.348 138.319 311.941 138.042V138.042Z" fill="white"></path><path d="M314.459 139.486C315.116 139.74 315.737 140.078 316.306 140.494C315.759 140.96 315.156 141.354 314.51 141.669C313.868 141.386 313.273 141.007 312.746 140.544C313.265 140.113 313.842 139.757 314.459 139.486Z" fill="white"></path><path d="M316.911 140.88C317.568 141.133 318.189 141.472 318.758 141.887C318.211 142.359 317.608 142.759 316.961 143.079C316.348 142.784 315.782 142.4 315.282 141.937C315.774 141.512 316.322 141.156 316.911 140.88V140.88Z" fill="white"></path><path d="M318.405 144.842C317.252 144.429 316.13 143.935 315.047 143.365L302.118 135.859C301.523 136.173 300.961 136.544 300.439 136.967C299.859 137.352 299.362 137.849 298.978 138.428C298.706 138.943 298.606 139.532 298.693 140.107C298.806 141.045 299.282 141.901 300.019 142.492C301.28 143.461 302.629 144.309 304.049 145.027C305.568 145.654 307.142 146.137 308.75 146.471C309.762 146.63 310.783 146.72 311.806 146.74C313.066 146.74 313.485 146.74 314.526 146.74C315.401 146.69 316.271 146.578 317.129 146.404L318.909 145.9C319.482 146.343 320.13 146.678 320.823 146.891C321.707 147.065 322.611 147.116 323.509 147.042C323.845 146.891 324.08 146.824 323.929 146.622C323.521 146.106 323.012 145.678 322.435 145.363C322.137 145.234 321.828 145.133 321.511 145.061C321.815 145.005 322.072 144.805 322.2 144.523C322.352 143.977 322.392 143.406 322.317 142.844C322.317 142.844 322.317 142.76 322.015 142.844C321.559 142.794 321.099 142.876 320.689 143.079C320.119 143.33 319.597 143.677 319.144 144.104C318.791 144.355 318.405 144.842 318.405 144.842Z" fill="white"></path><path d="M225.132 141.316C225.242 141.481 225.457 141.541 225.637 141.457C225.817 141.374 225.909 141.171 225.854 140.98C225.131 139.717 223.815 138.907 222.361 138.831C220.482 138.487 218.551 139.054 217.156 140.359C216.748 140.739 216.508 141.267 216.489 141.824C216.47 142.382 216.674 142.924 217.055 143.331C217.974 144.069 219.089 144.518 220.263 144.624H220.498C220.693 144.626 220.858 144.482 220.884 144.288C220.909 144.185 220.888 144.076 220.827 143.989C220.766 143.903 220.67 143.846 220.565 143.835H220.33C219.327 143.765 218.368 143.397 217.576 142.777C217.322 142.522 217.189 142.17 217.212 141.81C217.234 141.451 217.41 141.118 217.694 140.896C218.915 139.797 220.577 139.326 222.193 139.62C223.399 139.643 224.509 140.284 225.132 141.316Z" fill="white"></path><path d="M234.921 145.783C234.868 145.688 234.78 145.619 234.676 145.591C234.571 145.563 234.46 145.577 234.367 145.632L229.33 148.57L230.085 143.398C230.099 143.245 230.036 143.094 229.917 142.995C229.79 142.913 229.625 142.913 229.498 142.995L223.621 146.354C223.529 146.409 223.464 146.499 223.439 146.603C223.414 146.707 223.431 146.816 223.486 146.908C223.539 146.998 223.625 147.063 223.727 147.088C223.828 147.114 223.935 147.097 224.024 147.042L229.178 144.036L228.373 149.275C228.337 149.427 228.405 149.584 228.54 149.661C228.612 149.683 228.688 149.683 228.759 149.661H228.96L234.753 146.303C234.936 146.2 235.009 145.973 234.921 145.783Z" fill="white"></path><path d="M239.32 148.452L233.208 152.079C233.117 152.135 233.051 152.225 233.026 152.328C233.001 152.432 233.018 152.542 233.074 152.633C233.145 152.75 233.273 152.82 233.41 152.818C233.476 152.835 233.545 152.835 233.611 152.818L239.723 149.174C239.909 149.063 239.969 148.823 239.857 148.637C239.746 148.452 239.506 148.391 239.32 148.503V148.452Z" fill="white"></path><path fill-rule="evenodd" clip-rule="evenodd" d="M250.637 132.081C250.607 131.966 250.505 131.884 250.385 131.88L238.296 130.738H238.178H238.094L232.906 133.995C232.85 134.03 232.808 134.083 232.789 134.147V134.247L235.156 141.367C235.186 141.482 235.288 141.564 235.408 141.568L247.464 142.592C247.554 142.585 247.638 142.543 247.699 142.475C247.741 142.39 247.741 142.291 247.699 142.206L246.809 138.848L252.585 139.251C252.681 139.265 252.777 139.227 252.837 139.15C252.889 139.135 252.935 139.106 252.971 139.066L250.637 132.081ZM250.201 132.484L251.393 136.044H249.563L249.411 135.574C249.428 135.531 249.428 135.483 249.411 135.439L248.656 133.173L248.404 132.417L250.201 132.484ZM244.828 137.035L249.344 137.253L249.126 136.548L244.66 136.397L244.828 137.035ZM248.925 135.943L244.273 135.775C244.179 135.767 244.088 135.813 244.038 135.893C243.999 135.972 243.999 136.065 244.038 136.145L244.257 137.018L242.745 136.934L241.57 133.055L248.203 133.441L248.925 135.943ZM240.663 138.042L244.525 138.311L244.357 137.622L240.496 137.438L240.663 138.042ZM247.732 132.249L247.934 132.837L241.318 132.451L241.066 131.611L247.732 132.249ZM240.361 136.833L242.04 136.917L240.898 133.022L239.219 132.921L240.361 136.833ZM240.361 131.561L240.613 132.417L238.934 132.316L238.665 131.393L240.361 131.561ZM238.867 134.281L238.078 131.561L234.031 134.096L238.867 134.281ZM247.094 142.156L235.66 141.199L233.477 134.667L239.051 134.869L240.076 138.428C240.106 138.553 240.216 138.643 240.344 138.647L246.272 139.066L247.094 142.156ZM244.911 137.673L245.079 138.395L252.199 138.831L251.46 136.615H249.63L249.915 137.522C249.963 137.605 249.963 137.707 249.915 137.79C249.857 137.861 249.772 137.904 249.68 137.908L244.911 137.673Z" fill="white"></path><path d="M260.628 161.381C260.679 161.477 260.777 161.539 260.886 161.543C260.994 161.546 261.097 161.492 261.154 161.4C261.212 161.308 261.216 161.192 261.165 161.096C260.435 159.926 259.183 159.182 257.807 159.098C255.921 158.741 253.976 159.274 252.535 160.542C252.132 160.878 251.89 161.369 251.867 161.893C251.845 162.417 252.045 162.926 252.417 163.296C253.622 164.162 255.081 164.605 256.564 164.555C256.731 164.555 256.867 164.42 256.867 164.253C256.867 164.086 256.731 163.95 256.564 163.95C255.24 164.013 253.933 163.629 252.854 162.859C252.593 162.6 252.457 162.242 252.479 161.875C252.502 161.509 252.681 161.17 252.971 160.945C254.288 159.838 256.033 159.382 257.723 159.702C258.905 159.762 259.986 160.387 260.628 161.381Z" fill="white"></path><path d="M273.708 167.913L267.495 171.624C267.423 171.663 267.369 171.729 267.347 171.809C267.325 171.888 267.336 171.973 267.378 172.043C267.443 172.126 267.541 172.175 267.646 172.178C267.695 172.193 267.748 172.193 267.797 172.178L274.027 168.467C274.096 168.425 274.146 168.357 274.165 168.278C274.184 168.199 274.171 168.116 274.128 168.047C274.096 167.968 274.031 167.907 273.949 167.881C273.868 167.855 273.78 167.867 273.708 167.913Z" fill="white"></path><path d="M266.404 167.56C266.219 167.183 265.975 166.837 265.682 166.536C264.372 165.478 264.003 164.756 264.103 164.437C264.204 164.118 264.49 164.085 264.96 164.068C266.618 164.06 268.143 164.972 268.922 166.435C268.997 166.583 269.168 166.654 269.325 166.603C269.479 166.534 269.552 166.358 269.493 166.2C268.617 164.492 266.846 163.431 264.926 163.463C264.187 163.463 263.684 163.766 263.533 164.236C263.381 164.706 263.902 165.915 265.312 167.006C265.518 167.25 265.698 167.515 265.85 167.795C265.948 168.178 265.817 168.583 265.514 168.836C264.502 169.183 263.386 169.027 262.508 168.417C261.299 167.795 260.477 166.905 260.477 166.234C260.477 166.067 260.341 165.932 260.174 165.932C260.007 165.932 259.872 166.067 259.872 166.234C259.872 167.342 261.098 168.366 262.223 168.954C262.99 169.365 263.839 169.6 264.708 169.642C265.118 169.663 265.525 169.551 265.866 169.323C266.367 168.922 266.595 168.27 266.454 167.644L266.404 167.56Z" fill="white"></path><path d="M286.183 154.531C287.084 155.293 288.42 155.231 289.245 154.388C290.07 153.545 290.104 152.208 289.323 151.324C288.289 150.203 287.006 149.341 285.579 148.805C281.952 147.327 274.598 148.268 274.715 153.053C274.715 153.053 274.363 153.389 274.245 153.154C271.038 149.88 262.626 150.316 260.527 154.833C259.738 158.426 264.926 160.81 267.781 159.534C269.208 157.738 265.346 158.006 264.691 156.898C262.592 153.439 268.049 152.398 270.316 153.624C272.969 155.639 270.115 157.973 269.846 158.661C266.924 165.781 279.551 167.611 283.883 165.697C283.547 165.932 281.348 164.337 281.331 164.018C278.426 164.79 270.803 162.792 273.993 158.745C274.95 157.536 276.008 156.596 275.891 155.269C278.006 157.906 284.286 156.227 284.89 160.391C286.182 160.268 287.484 160.482 288.668 161.012C289.877 154.799 280.542 156.529 278.392 153.171C278.527 149.812 284.303 150.131 285.797 152.214C286.301 152.818 285.126 154.161 286.183 154.531Z" fill="white"></path><path d="M285.461 161.633C284.118 161.633 283.043 162.254 283.043 163.01C283.043 163.766 284.118 164.37 285.461 164.37C286.805 164.37 287.879 163.766 287.879 163.01C287.879 162.254 286.805 161.633 285.461 161.633Z" fill="white"></path><path d="M280.961 93.9997L287.376 98.0966C287.976 98.3526 288.62 98.4895 289.273 98.4996C290.064 98.4264 290.828 98.1737 291.506 97.7608C292.151 97.4538 292.723 97.0131 293.185 96.4679C293.337 96.1137 293.389 95.7247 293.336 95.3429C293.281 95.1807 293.202 95.0278 293.101 94.8896C293.425 94.7466 293.735 94.5723 294.025 94.3691C294.376 94.0767 294.619 93.6745 294.713 93.2273C294.745 92.831 294.645 92.4354 294.428 92.1023C294.12 91.7522 293.75 91.4619 293.336 91.246C292.873 90.991 292.366 90.8258 291.842 90.759C291.33 90.6796 290.809 90.6796 290.297 90.759C289.711 90.8109 289.141 90.9763 288.618 91.246C288.173 91.4791 287.775 91.7922 287.443 92.1695C287.303 92.3159 287.108 92.3954 286.905 92.3877C286.748 92.4057 286.589 92.357 286.469 92.2534C286.075 91.9032 285.62 91.6298 285.126 91.4475C284.628 91.2374 284.085 91.1565 283.547 91.2124C282.979 91.2364 282.415 91.3266 281.868 91.481C281.44 91.5671 281.054 91.7984 280.777 92.1359C280.544 92.3579 280.421 92.6712 280.441 92.9922C280.435 93.2685 280.53 93.5375 280.71 93.7478C280.779 93.8448 280.864 93.9298 280.961 93.9997Z" fill="white"></path><path d="M304.234 89.4998C304.234 87.317 301.715 85.2517 298.088 85.5371C294.847 85.789 293.051 86.1584 291.892 86.9812C291.022 86.7119 290.116 86.5761 289.206 86.5782C286.805 86.5782 283.648 87.5185 283.06 89.7684C283.034 89.9915 283.034 90.217 283.06 90.4401C283.06 90.4401 285.73 90.0875 286.771 91.1621C287.426 91.8673 288.45 89.6677 292.278 89.9867C293.268 90.0011 294.218 90.3774 294.948 91.0445C295.13 91.1914 295.304 91.3484 295.469 91.5147C295.678 91.7759 295.811 92.0895 295.855 92.4214C295.913 92.9837 295.757 93.5471 295.418 93.9997C295.032 94.5034 294.512 94.6042 294.478 94.7217C294.444 94.8393 294.478 94.7217 294.68 94.9568C294.983 95.3903 294.983 95.9673 294.68 96.4008C294.243 97.1396 293.135 97.5594 293.135 97.7105C293.683 98.2521 294.368 98.6351 295.116 98.8187C296.218 99.0643 297.351 99.1323 298.474 99.0202C299.401 98.9033 300.303 98.6368 301.144 98.231C301.967 97.7273 302.269 97.4586 302.504 96.871C302.787 96.3322 302.734 95.6789 302.37 95.1919C302.057 94.7753 301.648 94.441 301.178 94.218C300.64 93.9326 300.103 93.58 300.103 93.58C302.252 92.7068 304.234 91.1117 304.234 89.4998Z" fill="white"></path></g><defs><radialGradient id="paint0_radial" cx="0" cy="0" r="1" gradientUnits="userSpaceOnUse" gradientTransform="translate(294.5 293.5) rotate(90) scale(293.5 341.981)"><stop offset="0.1" stop-color="#62D3FF" stop-opacity="1"></stop><stop offset="0.99" stop-color="white" stop-opacity="0.1"></stop></radialGradient><linearGradient id="paint1_linear" x1="235.189" y1="169.296" x2="235.189" y2="231.071" gradientUnits="userSpaceOnUse"><stop stop-color="#005A7F"></stop><stop offset="1" stop-color="#009ECE"></stop></linearGradient><linearGradient id="paint2_linear" x1="221.629" y1="72.1101" x2="221.149" y2="151.15" gradientUnits="userSpaceOnUse"><stop stop-color="#00814B"></stop><stop offset="1" stop-color="#8FDF00"></stop></linearGradient></defs></svg> 