<?xml version="1.0" encoding="UTF-8"?> <svg xmlns="http://www.w3.org/2000/svg" width="668" height="666" viewBox="0 0 668 666" fill="none"><g style="mix-blend-mode:multiply" opacity="0.779041"><path fill-rule="evenodd" clip-rule="evenodd" d="M334 666C518.463 666 668 516.911 668 333C668 149.089 518.463 0 334 0C149.537 0 0 149.089 0 333C0 516.911 149.537 666 334 666Z" fill="url(#paint0_radial)"></path></g><g opacity="0.4"><path d="M443.215 502.049L333.393 438.259L223.775 501.289L333.495 566.075L443.215 502.049Z" fill="#4D4D4E"></path><path d="M333.495 566.024L223.775 501.238V510.134L333.495 574.903L443.215 510.894V501.998L333.495 566.024Z" fill="#353535"></path><path opacity="0.46" d="M334.153 444.809L433.88 501.897L386.312 529.209L286.619 472.104L334.153 444.809Z" fill="#2B2B2B"></path><g opacity="0.34"><path d="M282.078 474.72L381.788 531.825L334.237 559.137L234.527 502.032L282.078 474.72Z" fill="#EAEAEA"></path></g><path d="M401.082 491.87C400.93 492.241 369.972 498.757 369.365 498.757C367.221 498.167 365.157 497.316 363.22 496.225C363.355 495.955 382.683 491.87 383.476 491.87C384.27 491.87 401.234 491.6 401.082 491.87Z" fill="white"></path><path d="M360.806 476.189C360.806 476.037 360.081 475.159 359.709 474.889C359.077 474.367 358.379 473.93 357.633 473.589C355.185 472.687 352.446 473.101 350.375 474.686C349.834 475.193 349.615 475.429 349.564 475.783C349.599 476.365 349.838 476.915 350.24 477.336C350.695 477.877 351.556 478.417 351.641 478.906C351.754 479.403 351.561 479.92 351.151 480.223C350.289 480.518 349.374 480.627 348.467 480.544C347.326 480.228 346.274 479.65 345.395 478.856C344.72 478.13 344.602 477.758 344.315 477.758C343.649 477.934 343.038 478.276 342.542 478.754C342.407 479.075 343.454 479.902 343.808 480.206C344.55 480.723 345.342 481.164 346.171 481.523C346.829 481.802 347.533 481.957 348.248 481.978C349.714 482.159 351.202 481.938 352.552 481.337C353.202 481.135 353.785 480.762 354.24 480.257C354.746 479.716 354.662 479.716 354.662 479.261C354.662 478.805 354.51 478.67 354.105 478.079C353.7 477.488 353.21 477.033 353.025 476.762C352.839 476.492 352.518 476.037 352.653 475.682C352.815 475.252 353.173 474.926 353.616 474.804C354.341 474.619 355.101 474.619 355.827 474.804C356.647 474.985 357.412 475.361 358.055 475.902C358.612 476.391 358.966 476.914 359.135 477.033C359.304 477.151 360.671 476.408 360.806 476.189Z" fill="white"></path><path d="M353.278 471.817C353.278 471.58 352.096 471.158 351.59 471.023C351.084 470.888 339.622 475.058 339.622 475.058L347.134 468.93L345.142 467.833L333.933 471.985C333.933 471.985 341.091 466.28 341.091 465.892C341.091 465.504 339.504 464.592 339.183 464.592C336 467.148 332.973 469.894 330.119 472.813C330.119 473.167 331.807 473.927 332.262 473.96C332.718 473.994 343.504 469.825 343.504 469.825L336.314 475.767C336.314 475.767 337.58 476.83 338.002 476.83C338.424 476.83 353.278 472.07 353.278 471.817Z" fill="white"></path><path fill-rule="evenodd" clip-rule="evenodd" d="M334.119 461.672C334.827 462.067 335.494 462.531 336.111 463.056C336.436 463.371 336.542 463.849 336.381 464.271C335.801 465.011 335.092 465.64 334.288 466.128C333.879 466.389 332.665 467.049 331.541 467.66C330.626 468.157 329.771 468.623 329.46 468.812C328.931 469.054 328.46 469.405 328.076 469.842C327.942 470.023 327.878 470.167 327.827 470.282C327.769 470.413 327.728 470.504 327.62 470.568C326.696 470.686 325.76 470.686 324.835 470.568C324.745 470.505 325.033 470.088 325.302 469.699C325.538 469.357 325.759 469.037 325.696 468.998C324.668 469.089 323.635 469.089 322.607 468.998C321.45 468.822 320.364 468.331 319.467 467.58C319.13 467.202 319.032 466.668 319.214 466.196C319.588 465.653 320.064 465.189 320.615 464.828C321.292 464.35 322.063 464.022 322.877 463.866C323.762 463.706 324.663 463.655 325.561 463.714C326.33 463.716 327.09 463.883 327.789 464.204C328.603 464.601 329.392 465.046 330.152 465.537C330.303 465.632 330.39 465.713 330.463 465.78C330.546 465.856 330.61 465.915 330.726 465.959C331.593 465.762 332.406 465.376 333.106 464.828C333.427 464.406 333.714 463.9 333.427 463.512C332.922 462.89 332.248 462.427 331.486 462.178C331.062 461.982 330.345 461.87 329.699 461.768C328.956 461.652 328.305 461.55 328.296 461.351C328.279 460.98 329.004 460.76 329.308 460.76C329.907 460.664 330.516 460.664 331.114 460.76C332.164 460.873 333.183 461.183 334.119 461.672ZM324.987 468.255C325.835 468.258 326.68 468.156 327.502 467.951V467.968C327.958 467.799 329.19 467.141 329.19 466.786C329.19 466.432 328.042 465.892 327.03 465.504C326.298 465.158 325.491 465.001 324.683 465.048C323.916 465.055 323.182 465.364 322.641 465.909C322.315 466.171 322.17 466.599 322.269 467.006C322.303 467.293 322.708 467.597 322.995 467.732C323.58 468.128 324.283 468.312 324.987 468.255Z" fill="white"></path><path d="M399.141 494.402C398.871 494.014 386.008 497.137 385.637 497.778C385.266 498.42 383.375 506.218 382.953 506.454C382.531 506.691 368.808 500.546 368.352 500.884C367.896 501.222 387.392 511.535 388.169 511.366C388.945 511.198 399.411 494.807 399.141 494.402Z" fill="white"></path><path d="M342.998 483.16C344.095 483.438 345.159 483.834 346.171 484.342C347.117 484.899 347.421 485.101 347.302 485.456C347.184 485.81 346.644 486.063 346.02 486.384C344.471 487.094 342.861 487.659 341.209 488.072C340.202 488.257 339.176 488.325 338.153 488.275C337.833 488.275 337.799 487.92 338.407 487.734C339.014 487.549 340.095 487.312 340.635 487.194C341.53 486.979 342.401 486.673 343.234 486.283C343.876 485.962 344.281 485.692 344.365 485.439C344.45 485.186 344.365 485.118 344.078 484.865C343.344 484.411 342.563 484.038 341.749 483.751C341.006 483.514 339.808 483.228 340.061 483.008C340.314 482.789 342.154 482.941 342.998 483.16Z" fill="white"></path><path d="M313.002 468.761C313.002 468.761 312.58 468.019 312.226 468.137C311.871 468.255 311.567 469.74 311.871 471.108C312.55 473.54 313.881 475.74 315.72 477.471C318.166 479.496 320.84 481.23 323.687 482.637C326.279 483.794 329.016 484.595 331.823 485.017C333.771 485.376 335.738 485.618 337.715 485.743C338.952 485.892 340.199 485.943 341.445 485.895C341.732 485.743 341.901 485.202 341.006 485.017L335.503 483.835C331.569 483.169 327.764 481.887 324.227 480.037C321.94 478.665 319.762 477.118 317.712 475.412C316.661 474.493 315.726 473.45 314.927 472.306C314.032 470.905 313.002 468.761 313.002 468.761Z" fill="white"></path><path fill-rule="evenodd" clip-rule="evenodd" d="M343.049 526.727C342.222 526.727 335.723 530.103 335.723 530.829C335.723 531.555 340.685 534.087 341.513 534.087C342.34 534.087 348.923 530.711 348.923 529.951C348.923 529.192 343.876 526.727 343.049 526.727ZM343.049 527.453C343.057 527.453 343.067 527.454 343.077 527.455C342.656 527.502 340.011 528.74 340.061 528.922C340.712 529.446 341.474 529.816 342.289 530.002C343.3 529.669 344.24 529.148 345.057 528.466C345.057 528.203 343.47 527.491 343.077 527.455C343.085 527.454 343.093 527.453 343.099 527.453H343.049ZM339.234 529.377C338.349 529.724 337.528 530.214 336.803 530.829H336.854C336.786 531.082 338.592 531.943 338.727 531.943C339.655 531.622 340.522 531.149 341.293 530.542C340.689 530.024 339.989 529.628 339.234 529.377ZM341.749 533.31C340.93 533.152 340.157 532.812 339.487 532.315C340.285 531.685 341.18 531.189 342.137 530.846C342.931 531.084 343.679 531.455 344.348 531.943C343.551 532.49 342.696 532.949 341.8 533.31H341.749ZM343.099 530.441C343.708 530.914 344.393 531.279 345.125 531.521H345.176C346.145 531.134 347.054 530.611 347.876 529.968C347.876 529.698 346.188 528.871 345.851 528.871C345.513 528.871 342.981 530.205 343.099 530.441Z" fill="white"></path><path fill-rule="evenodd" clip-rule="evenodd" d="M351.725 530.846C350.898 530.846 344.399 534.222 344.399 534.965C344.399 535.707 349.362 538.223 350.189 538.223C351.016 538.223 357.616 534.847 357.616 534.087C357.616 533.327 352.552 530.846 351.725 530.846ZM351.725 531.589C351.734 531.589 351.743 531.589 351.753 531.59C351.332 531.636 348.688 532.809 348.737 533.057C349.388 533.582 350.15 533.951 350.965 534.138C351.977 533.805 352.916 533.284 353.734 532.602C353.734 532.322 352.146 531.625 351.753 531.59C351.761 531.589 351.769 531.589 351.776 531.589H351.725ZM347.91 533.513C347.027 533.863 346.206 534.353 345.479 534.965H345.53C345.462 535.218 347.269 536.079 347.404 536.079C348.331 535.758 349.198 535.284 349.969 534.678C349.365 534.159 348.666 533.764 347.91 533.513ZM350.425 537.446C349.603 537.29 348.828 536.943 348.163 536.433C348.967 535.816 349.861 535.326 350.813 534.982C351.607 535.219 352.355 535.59 353.025 536.079C352.227 536.626 351.373 537.084 350.476 537.446H350.425ZM351.776 534.576C352.384 535.05 353.069 535.415 353.801 535.657H353.852C354.821 535.269 355.73 534.747 356.553 534.104C356.553 533.834 354.865 533.007 354.527 533.007C354.189 533.007 351.657 534.34 351.776 534.576Z" fill="white"></path><path fill-rule="evenodd" clip-rule="evenodd" d="M332.786 532.281C331.958 532.281 325.46 535.657 325.46 536.383C325.46 537.108 330.422 539.657 331.25 539.657C332.077 539.657 338.677 536.197 338.677 535.522C338.677 534.847 333.613 532.281 332.786 532.281ZM332.786 533.024C332.794 533.024 332.803 533.024 332.812 533.025C332.349 533.068 329.765 534.227 329.798 534.492C330.456 535.002 331.216 535.365 332.026 535.556C333.037 535.223 333.977 534.702 334.794 534.019C334.794 533.756 333.202 533.058 332.812 533.025C332.821 533.024 332.829 533.024 332.836 533.024H332.786ZM328.988 534.948C328.098 535.294 327.271 535.784 326.54 536.4L326.591 536.383C326.523 536.636 328.329 537.497 328.481 537.514C329.402 537.189 330.263 536.716 331.03 536.113C330.43 535.598 329.736 535.203 328.988 534.948ZM331.486 538.881C330.668 538.719 329.896 538.379 329.224 537.885C330.023 537.261 330.918 536.771 331.874 536.433C332.668 536.662 333.417 537.028 334.085 537.514C333.287 538.055 332.433 538.508 331.536 538.864L331.486 538.881ZM332.853 536.028C333.454 536.499 334.134 536.859 334.862 537.092L334.912 537.075C335.891 536.703 336.807 536.185 337.63 535.539C337.63 535.269 335.925 534.441 335.588 534.441C335.25 534.441 332.718 535.775 332.853 536.028Z" fill="white"></path><path fill-rule="evenodd" clip-rule="evenodd" d="M341.462 536.416C340.635 536.416 334.136 539.792 334.136 540.518C334.136 541.244 339.099 543.776 339.926 543.776C340.753 543.776 347.353 540.4 347.353 539.657C347.353 538.915 342.289 536.416 341.462 536.416ZM341.462 537.159C341.8 537.159 343.471 537.885 343.471 538.155C342.653 538.837 341.714 539.358 340.702 539.691C339.888 539.502 339.127 539.133 338.474 538.611C339.389 537.949 340.42 537.462 341.513 537.176L341.462 537.159ZM337.664 539.083C336.774 539.43 335.947 539.92 335.216 540.535L335.267 540.552C335.199 540.771 337.006 541.632 337.158 541.649C338.078 541.325 338.939 540.851 339.706 540.248C339.106 539.733 338.413 539.338 337.664 539.083ZM340.162 543.016C339.344 542.855 338.572 542.515 337.9 542.021C338.7 541.397 339.595 540.907 340.55 540.569C341.345 540.798 342.093 541.163 342.762 541.649C341.964 542.19 341.109 542.643 340.213 543L340.162 543.016ZM341.529 540.147C342.13 540.623 342.81 540.988 343.538 541.227L343.589 541.21C344.564 540.832 345.479 540.315 346.306 539.674C346.306 539.404 344.602 538.577 344.264 538.577C343.926 538.577 341.394 539.911 341.529 540.147Z" fill="white"></path><path fill-rule="evenodd" clip-rule="evenodd" d="M312.715 522.625L318.691 519.249C318.829 519.221 318.972 519.259 319.079 519.351L323.789 521.849C323.924 521.914 324.01 522.053 324.008 522.203C324.017 522.351 323.938 522.491 323.805 522.558L318.049 525.934C317.984 525.959 317.912 525.959 317.847 525.934C317.786 525.951 317.722 525.951 317.661 525.934L312.715 523.351C312.58 523.286 312.494 523.148 312.496 522.997C312.499 522.843 312.582 522.702 312.715 522.625ZM313.762 522.946L317.83 525.073L322.691 522.119L318.826 520.06L313.762 522.946Z" fill="white"></path><path fill-rule="evenodd" clip-rule="evenodd" d="M332.001 518.948C332.107 518.977 332.196 519.05 332.245 519.148C332.365 519.319 332.336 519.552 332.178 519.688L330.017 520.887L330.659 521.208C330.793 521.277 330.883 521.411 330.895 521.562C330.895 521.717 330.811 521.859 330.676 521.933L329.443 522.642L331.351 523.621C331.551 523.72 331.634 523.961 331.536 524.162C331.467 524.304 331.323 524.395 331.165 524.398C331.104 524.413 331.04 524.413 330.979 524.398L328.582 523.166L326.253 524.465L328.127 525.428C328.223 525.474 328.296 525.559 328.328 525.661C328.36 525.763 328.348 525.874 328.296 525.968C328.232 526.107 328.094 526.199 327.941 526.204C327.88 526.221 327.816 526.221 327.755 526.204L325.392 525.006L323.198 526.238L325.055 527.183C325.207 527.28 325.281 527.462 325.239 527.638C325.197 527.813 325.048 527.942 324.869 527.96C324.808 527.977 324.744 527.977 324.683 527.96L322.337 526.761L320.058 528.061L321.864 528.972C322.066 529.077 322.149 529.324 322.05 529.529C321.976 529.665 321.833 529.749 321.679 529.749H321.493L319.197 528.567L317.729 529.394H317.526H317.34L316.125 528.77L312.968 530.458H312.766C312.584 530.447 312.429 530.32 312.383 530.143C312.337 529.966 312.41 529.78 312.563 529.681L315.247 528.196L313.374 527.234L310.42 528.922C310.359 528.939 310.295 528.939 310.234 528.922C310.08 528.919 309.939 528.835 309.863 528.702C309.809 528.606 309.797 528.493 309.829 528.388C309.861 528.283 309.934 528.195 310.031 528.145L312.479 526.812L310.791 525.934L307.584 527.622H307.381C307.185 527.634 307.007 527.504 306.962 527.312C306.916 527.12 307.014 526.923 307.196 526.845L309.896 525.411L308.056 524.465L305.001 526.153H304.815C304.662 526.15 304.521 526.067 304.444 525.934C304.391 525.838 304.379 525.725 304.41 525.62C304.442 525.515 304.515 525.427 304.613 525.377L307.162 523.993L306.436 523.621C306.3 523.556 306.215 523.418 306.216 523.267C306.209 523.115 306.287 522.971 306.419 522.896L307.415 522.355L305.643 521.444C305.546 521.397 305.473 521.313 305.441 521.21C305.409 521.108 305.421 520.997 305.474 520.904C305.572 520.704 305.813 520.621 306.014 520.718L308.293 521.883L310.605 520.6L308.833 519.705C308.631 519.6 308.549 519.354 308.647 519.148C308.752 518.946 308.999 518.864 309.204 518.962L311.483 520.127L313.711 518.912L311.905 517.983C311.705 517.885 311.622 517.644 311.719 517.443C311.824 517.241 312.071 517.159 312.276 517.258L314.572 518.439L316.935 517.156L315.129 516.228C315.033 516.181 314.96 516.097 314.928 515.994C314.896 515.892 314.908 515.781 314.96 515.688C315.059 515.488 315.3 515.405 315.5 515.502L317.796 516.684L319.484 515.738C319.605 515.672 319.751 515.672 319.872 515.738L321.206 516.414L323.873 514.962C323.969 514.909 324.082 514.897 324.187 514.928C324.292 514.96 324.38 515.033 324.43 515.131C324.483 515.227 324.495 515.34 324.464 515.445C324.432 515.55 324.359 515.638 324.261 515.688L322.084 516.869L324.025 517.848L326.472 516.549C326.673 516.447 326.919 516.522 327.03 516.717C327.131 516.918 327.057 517.164 326.861 517.274L324.92 518.304L326.523 519.114L329.156 517.68C329.357 517.578 329.602 517.653 329.713 517.848C329.767 517.944 329.779 518.058 329.747 518.163C329.715 518.268 329.642 518.355 329.545 518.405L327.401 519.57L329.089 520.448L331.688 518.996C331.781 518.937 331.895 518.919 332.001 518.948ZM313.61 526.44L317.425 528.415L329.528 521.579L319.619 516.515L307.398 523.267L313.357 526.322C313.452 526.333 313.541 526.374 313.61 526.44Z" fill="white"></path><path fill-rule="evenodd" clip-rule="evenodd" d="M303.465 503.348L308.36 505.948C308.484 506.023 308.561 506.157 308.563 506.302C308.565 506.453 308.479 506.591 308.343 506.657L302.351 509.797C302.29 509.814 302.226 509.814 302.165 509.797C302.1 509.821 302.028 509.821 301.963 509.797L299.464 508.311L297 509.662L301.338 511.907C301.467 511.978 301.547 512.114 301.547 512.261C301.547 512.409 301.467 512.544 301.338 512.616L299.093 514.05L300.882 514.996C301.018 515.061 301.104 515.199 301.102 515.35C301.102 515.505 301.018 515.647 300.882 515.722L294.907 518.861H294.704C294.639 518.883 294.568 518.883 294.502 518.861L289.843 516.093C289.719 516.01 289.643 515.871 289.64 515.722C289.653 515.57 289.742 515.436 289.877 515.367L295.616 512.413C295.731 512.347 295.872 512.347 295.987 512.413L298.266 513.628L300.308 512.329L291.514 507.653L289.303 508.75L290.873 509.594C291.008 509.66 291.094 509.798 291.092 509.949C291.089 510.102 291.006 510.243 290.873 510.32L284.897 513.46C284.83 513.475 284.761 513.475 284.694 513.46C284.628 513.474 284.559 513.474 284.492 513.46L279.833 510.674C279.707 510.603 279.635 510.464 279.647 510.32C279.645 510.169 279.731 510.031 279.867 509.965L285.606 507.011C285.721 506.945 285.862 506.945 285.977 507.011L288.408 508.294L291.328 506.843C291.445 506.783 291.583 506.783 291.7 506.843L296.156 509.206L298.688 507.822L297.338 507.028C297.209 506.952 297.131 506.814 297.131 506.665C297.131 506.516 297.209 506.379 297.338 506.302L303.077 503.348C303.198 503.282 303.344 503.282 303.465 503.348ZM280.913 510.337L284.728 512.616L289.826 509.949L285.809 507.822L280.913 510.337ZM294.738 518.051L290.923 515.755L295.818 513.24L298.097 514.456L299.785 515.367L294.738 518.051ZM298.367 506.792L302.233 508.986L307.28 506.387L303.262 504.26L298.367 506.792Z" fill="white"></path><path fill-rule="evenodd" clip-rule="evenodd" d="M276.491 489.946C278.843 490.513 281.113 491.381 283.243 492.528C283.31 492.562 289.083 495.499 288.644 496.512C288.644 496.681 288.644 496.934 280.204 501.289C277.281 502.954 274.24 504.403 271.106 505.627C268.747 505.084 266.474 504.214 264.354 503.045C262.092 501.914 259.088 499.736 259.088 499.027C259.088 498.723 259.206 498.588 267.528 494.267C275.849 489.946 276.322 489.946 276.491 489.946ZM264.692 502.319C266.725 503.421 268.892 504.255 271.14 504.8C272.818 504.144 274.453 503.383 276.035 502.521C274.668 501.964 271.883 500.8 270.043 499.821C268.235 498.836 266.483 497.754 264.793 496.58C262.615 497.727 260.776 498.723 260.067 499.145C261.459 500.406 263.014 501.474 264.692 502.319ZM277.014 502.032C276.204 501.711 272.625 500.259 270.431 499.095C268.77 498.207 267.163 497.221 265.62 496.141C267.308 495.229 269.232 494.25 270.954 493.389C270.968 493.398 271.012 493.426 271.083 493.472L271.083 493.472L271.083 493.472C271.702 493.87 274.326 495.558 275.63 496.225C276.486 496.666 278.833 497.744 280.651 498.579L280.651 498.579C281.271 498.864 281.83 499.121 282.247 499.314C280.559 500.209 278.702 501.171 277.014 502.032ZM276.001 495.449C277.284 496.158 282.146 498.369 283.175 498.825C285.319 497.694 287.108 496.664 287.8 496.242C286.264 495.066 284.613 494.048 282.871 493.204C280.829 492.118 278.664 491.28 276.423 490.705C274.845 491.358 273.302 492.09 271.798 492.9C272.625 493.474 274.718 494.74 276.001 495.449Z" fill="white"></path></g><g opacity="0.4"><path d="M333.495 485.253L223.775 420.468V429.347L333.495 494.132L443.215 430.106V421.227L333.495 485.253Z" fill="#185580"></path><path d="M443.215 421.227L333.393 357.438L223.775 420.468L333.495 485.253L443.215 421.227Z" fill="url(#paint1_linear)"></path><path fill-rule="evenodd" clip-rule="evenodd" d="M375.813 387.467L368.47 392.008L415.7 420.907L384.995 438.884L377.686 434.427L380.387 432.739L373.753 428.84L370.479 430.528L356.553 421.531L358.882 419.843L355.118 417.733L352.4 419.556L338.018 410.93L331.942 414.712C331.869 414.727 331.794 414.727 331.722 414.712C331.581 414.71 331.449 414.641 331.368 414.526C331.258 414.328 331.317 414.08 331.503 413.952L374.209 387.366L369.145 384.277C368.987 384.142 368.952 383.911 369.061 383.735C369.171 383.558 369.392 383.487 369.584 383.568L375.813 387.467ZM382.008 432.723L379.273 434.411L385.147 437.854L414.248 420.805L367.896 392.464V392.346L338.862 410.407L352.366 418.543L355.084 416.72L360.384 419.691L357.987 421.497L370.529 429.6L373.787 427.912L382.008 432.723Z" fill="white"></path><path d="M397.031 418.104L399.293 419.506L398.499 423.202L381.096 424.35L383.274 413.53H389.317L395.967 417.632L395.005 420.991L385.637 421.345L385.941 419.624L392.693 419.455L393.233 418.273L388.523 415.1H385.536L384.067 422.46L396.389 421.801L397.031 418.104Z" fill="white"></path><path fill-rule="evenodd" clip-rule="evenodd" d="M298.924 402.659L291.582 407.2L338.812 436.082L308.107 454.059L300.798 449.603L303.499 447.915L296.848 444.032L293.573 445.72L279.664 436.723L281.994 435.035L278.229 432.925L275.495 434.748L261.13 426.122L255.036 429.904C254.964 429.921 254.889 429.921 254.817 429.904C254.679 429.906 254.551 429.835 254.479 429.718C254.418 429.625 254.397 429.51 254.423 429.402C254.449 429.293 254.518 429.2 254.614 429.144L297.371 402.659L292.307 399.57C292.114 399.447 292.054 399.193 292.172 398.996C292.228 398.905 292.318 398.839 292.423 398.813C292.527 398.788 292.638 398.805 292.729 398.861L298.924 402.659ZM305.102 447.915L302.368 449.603L308.259 453.13L337.36 436.082L291.008 407.74V407.622L261.991 425.582L275.495 433.735L278.196 431.912L283.496 434.883L281.099 436.689L293.641 444.792L296.882 443.104L305.102 447.915Z" fill="white"></path><path fill-rule="evenodd" clip-rule="evenodd" d="M299.566 420.94C298.452 419.745 297.131 418.761 295.666 418.037C292.594 416.467 288.914 415.623 288.003 417.092L278.803 423.287C278.767 423.306 278.738 423.335 278.719 423.371C278.263 424.08 278.483 425.059 279.31 426.274C280.276 427.538 281.466 428.614 282.821 429.448C284.422 430.491 286.279 431.075 288.189 431.136C288.819 431.189 289.448 431.016 289.961 430.646L299.262 424.553C299.791 424.492 300.26 424.185 300.528 423.726C300.882 423.067 300.545 422.038 299.566 420.94ZM292.696 428.216C290.641 428.228 288.613 427.741 286.788 426.798C283.783 425.211 281.943 422.73 282.331 421.649L284.61 420.113C284.61 421.683 286.72 423.945 289.556 425.363C291.222 426.169 293.027 426.65 294.873 426.781L292.696 428.216ZM289.826 424.823C291.673 425.745 293.721 426.192 295.785 426.122L295.818 426.274L298.03 424.823H297.641C296.023 424.589 294.458 424.075 293.016 423.304C290.366 421.936 287.969 419.759 287.834 418.071L285.285 419.759C284.762 420.738 286.703 423.253 289.826 424.823ZM289.59 430.258C288.965 430.832 286.214 430.883 283.158 428.941C281.856 428.152 280.711 427.128 279.782 425.92C279.141 425.008 278.922 424.232 279.158 423.759L281.639 422.071C281.74 423.641 283.732 425.869 286.467 427.321C288.102 428.131 289.868 428.645 291.683 428.84L289.59 430.258ZM297.692 424.08C298.891 424.198 299.701 423.996 299.954 423.506V423.523C300.207 423.033 299.903 422.24 299.11 421.329C296.657 418.833 293.409 417.275 289.927 416.923C289.185 416.923 288.661 417.109 288.492 417.429C287.986 418.408 290.012 420.94 293.286 422.628C294.66 423.363 296.151 423.854 297.692 424.08Z" fill="white"></path><path d="M320.126 433.381L322.388 434.782L321.611 438.479L304.208 439.61L306.385 428.806H312.411L319.062 432.908L318.1 436.267L308.748 436.622L309.035 434.9L315.804 434.731L316.344 433.55L311.635 430.376H308.647L307.162 437.736L319.484 437.078L320.126 433.381Z" fill="white"></path><path fill-rule="evenodd" clip-rule="evenodd" d="M372.96 402.339L377.585 405.225C377.644 405.302 377.668 405.4 377.653 405.495C377.653 405.597 377.602 405.692 377.518 405.748L372.892 408.702C372.79 408.771 372.657 408.771 372.555 408.702L370.462 407.318L368.369 408.601L372.403 411.217C372.484 411.28 372.538 411.37 372.555 411.471C372.555 411.572 372.504 411.667 372.42 411.724L370.631 413.007L372.403 414.121C372.492 414.175 372.548 414.27 372.555 414.374C372.551 414.483 372.494 414.584 372.403 414.644L367.778 417.598C367.723 417.615 367.664 417.615 367.609 417.598C367.554 417.613 367.495 417.613 367.44 417.598L363.001 414.661C362.916 414.605 362.865 414.51 362.865 414.408C362.865 414.306 362.916 414.211 363.001 414.155L367.44 411.217C367.542 411.149 367.676 411.149 367.778 411.217L370.057 412.652L371.745 411.488L363.305 405.985L361.482 407.166L363.17 408.263C363.254 408.32 363.305 408.415 363.305 408.517C363.302 408.622 363.253 408.721 363.17 408.787L358.544 411.741C358.489 411.758 358.431 411.758 358.376 411.741C358.32 411.756 358.262 411.756 358.207 411.741L353.767 408.804C353.683 408.747 353.632 408.652 353.632 408.55C353.632 408.449 353.683 408.353 353.767 408.297L358.207 405.36C358.309 405.292 358.442 405.292 358.544 405.36L360.857 406.812L363.085 405.36C363.182 405.295 363.309 405.295 363.406 405.36L367.862 408.23L369.955 406.947L368.183 405.782C368.101 405.724 368.051 405.63 368.048 405.529C368.05 405.423 368.1 405.324 368.183 405.259L372.622 402.339C372.725 402.27 372.858 402.27 372.96 402.339ZM354.493 408.55L358.376 411.116L362.427 408.517L358.376 405.985L354.493 408.55ZM367.693 416.974L363.811 414.408L367.693 411.842L371.728 414.374L367.693 416.974ZM368.909 405.512L372.757 408.095L376.842 405.478L372.791 402.946L368.909 405.512Z" fill="white"></path></g><path d="M335.064 438.529L107.016 304.89V323.222L333.376 456.861L561.442 324.792V306.46L335.064 438.529Z" fill="#3BAB24"></path><path d="M561.442 306.41L334.845 174.796L107.016 304.84L335.064 438.496L561.442 306.41Z" fill="url(#paint2_linear)"></path><path d="M283.016 236.103L452.198 331.247" stroke="white" stroke-linecap="round" stroke-dasharray="0"></path><path d="M218.706 273.702L387.905 368.863" stroke="white" stroke-linecap="round" stroke-dasharray="0"></path><path fill-rule="evenodd" clip-rule="evenodd" d="M474.583 297.08L477.714 295.094C484.547 290.752 483.588 283.498 475.576 278.92C467.565 274.342 455.48 274.14 448.647 278.482L445.517 280.468C443.316 280.217 441.092 280.658 439.155 281.731L435.216 284.222C427.306 289.271 428.484 297.686 437.707 302.954C446.93 308.222 460.984 308.492 468.895 303.476L472.833 300.985C474.275 300.27 475.009 298.633 474.583 297.08ZM472.446 292.031L470.443 293.293L451.929 282.724L453.932 281.445C458.274 278.684 465.966 278.819 471.083 281.731C476.199 284.642 476.788 289.321 472.446 292.082V292.031ZM438.784 302.13C447.351 306.977 460.159 307.196 467.397 302.601L471.386 300.144C473.574 298.747 473.271 296.424 470.695 294.96L449.051 282.656C446.381 281.181 443.154 281.125 440.434 282.505L436.512 284.996C429.275 289.591 430.218 297.282 438.784 302.13Z" fill="white"></path><path d="M454.05 291.93C452.589 291.358 450.966 291.358 449.506 291.93C448.327 292.452 447.823 293.327 448.21 294.219L444.153 296.272C443.811 296.406 443.579 296.73 443.564 297.097C443.628 297.492 443.888 297.828 444.254 297.989L445.635 298.78C446.098 299.036 446.62 299.164 447.149 299.151C447.63 299.166 448.103 299.025 448.496 298.747L451.761 296.171C452.917 296.349 454.1 296.143 455.127 295.582C455.831 295.242 456.208 294.461 456.036 293.697C455.669 292.842 454.942 292.195 454.05 291.93Z" fill="white"></path><path fill-rule="evenodd" clip-rule="evenodd" d="M433.735 257.309L397.532 236.052C397.329 235.935 397.079 235.935 396.876 236.052L367.607 252.563C367.406 252.675 367.283 252.888 367.287 253.118C367.284 253.353 367.406 253.571 367.607 253.691L381.274 261.736L376.443 264.664L369.997 260.844C369.684 260.674 369.293 260.777 369.105 261.079C368.923 261.387 369.02 261.783 369.324 261.971L390.43 274.426C390.532 274.486 390.648 274.515 390.766 274.51C390.996 274.514 391.21 274.392 391.322 274.191C391.504 273.883 391.406 273.487 391.103 273.299L385.077 269.714L389.925 266.751L404.467 275.318C404.572 275.341 404.681 275.341 404.786 275.318C404.897 275.343 405.012 275.343 405.123 275.318L433.735 258.487C433.934 258.369 434.055 258.155 434.055 257.924C434.055 257.692 433.934 257.478 433.735 257.36V257.309ZM383.815 268.973L377.706 265.371L382.536 262.426L388.646 266.028L383.815 268.973ZM369.24 253.085L404.786 274.022L432.119 257.932L397.196 237.314L369.24 253.085Z" fill="white"></path><path d="M407.614 269.798L375.753 251.2C375.551 251.05 375.281 251.029 375.058 251.146C374.834 251.263 374.698 251.497 374.706 251.749C374.715 252.001 374.867 252.225 375.097 252.327L406.957 270.976C407.057 271.042 407.174 271.077 407.294 271.077C407.522 271.074 407.733 270.953 407.849 270.757C407.964 270.604 408.004 270.407 407.958 270.222C407.913 270.036 407.786 269.88 407.614 269.798Z" fill="white"></path><path d="M408.102 259.329C405.663 260.454 403.312 261.76 401.067 263.234C402.269 264.164 403.594 264.923 405.005 265.489C407.372 264.364 409.656 263.07 411.838 261.618C410.692 260.703 409.437 259.934 408.102 259.329Z" fill="white"></path><path d="M383.933 252.883C385.131 253.819 386.457 254.579 387.871 255.138C391.206 253.513 394.453 251.716 397.6 249.752C396.449 248.844 395.195 248.076 393.863 247.463C390.46 249.094 387.146 250.903 383.933 252.883H383.933Z" fill="white"></path><path d="M395.344 259.834C396.536 260.77 397.857 261.53 399.266 262.089C399.687 262.089 414.784 253.506 414.784 253.287C413.636 252.38 412.381 251.617 411.047 251.015C410.66 251.015 395.344 259.615 395.344 259.834Z" fill="white"></path><path d="M389.672 256.535C390.874 257.466 392.2 258.225 393.611 258.79C394.015 258.79 406.453 251.503 406.453 251.301C405.313 250.386 404.063 249.617 402.733 249.012C402.396 249.012 389.672 256.249 389.672 256.535Z" fill="white"></path><path d="M293.451 262.762L298.517 265.186L297.204 272.693L258.628 275.099L263.778 253.135L277.327 252.832L290.741 261.029L289.9 268.098L270.191 268.232L270.174 265.876L284.665 265.624L285.153 262.207L275.206 256.131H269.063L265.529 270.791L292.424 269.848L293.451 262.762Z" fill="white"></path><path d="M307.555 286.443L306.108 287.571L301.311 284.306L296.194 287.571L294.36 286.359L299.493 283.363L294.932 280.67L296.649 279.778L300.957 282.488L306.158 279.408L307.673 280.519L302.91 283.481L307.555 286.443Z" fill="white"></path><path d="M332.97 302.113C333.744 302.113 334.366 301.726 334.366 301.271C334.366 300.817 333.744 300.43 332.97 300.43C332.195 300.43 331.573 300.8 331.573 301.271C331.573 301.742 332.195 302.113 332.97 302.113Z" fill="white"></path><path d="M330.462 295.97C328.682 296.185 326.965 296.757 325.413 297.653L330.563 299.336L330.462 295.97Z" fill="white"></path><path d="M323.797 298.999C323.242 299.59 322.92 300.361 322.888 301.17C322.891 301.596 322.988 302.016 323.174 302.399L328.509 301.17L323.797 298.999Z" fill="white"></path><path d="M328.358 305.95L329.873 302.584L324.1 303.628C325.302 304.746 326.767 305.544 328.358 305.95Z" fill="white"></path><path d="M338.355 296.761C336.635 296.135 334.817 295.816 332.986 295.818L333.845 299.033L338.355 296.761Z" fill="white"></path><path d="M340.341 297.737L336.437 300.346C336.437 300.346 339.685 300.682 342.698 300.951C342.456 299.571 341.585 298.382 340.341 297.737Z" fill="white"></path><path d="M332.801 303.375L330.075 306.371C330.976 306.522 331.888 306.595 332.801 306.59C334.197 306.592 335.587 306.422 336.942 306.085L333.794 303.375H332.801Z" fill="white"></path><path fill-rule="evenodd" clip-rule="evenodd" d="M330.428 287.992C330.428 287.992 347.511 291.846 348.942 292.098L354.833 302.651L344.027 312.598L324.386 313.591L310.921 305.513L313.042 294.337L330.428 287.992ZM347.091 302.399C347.091 302.399 347.713 302.836 348.084 302.836C348.454 302.769 349.615 302.365 349.363 301.995C349.11 301.625 348.185 300.867 347.68 301.153C346.596 301.227 345.508 301.193 344.431 301.052C344.308 299.279 343.369 297.663 341.89 296.676L343.573 295.532C343.573 295.532 344.431 295.397 344.751 295.397C345.107 295.285 345.356 294.963 345.374 294.589C345.424 294.169 344.246 293.664 343.573 293.664C343.198 293.699 342.921 294.029 342.95 294.404L340.341 295.734C337.998 294.598 335.422 294.022 332.818 294.051H332.582C332.459 293.621 332.369 293.182 332.313 292.738C332.505 292.304 332.505 291.809 332.313 291.375C332.01 290.819 330.26 291.072 329.89 291.812C329.519 292.553 330.445 292.688 330.445 292.688V294.185C327.865 294.411 325.405 295.375 323.359 296.963L321.306 296.289C321.306 296.289 319.37 295.296 318.63 295.481C317.889 295.667 318.377 296.407 318.377 296.407L322.215 298.174C321.583 299.016 321.23 300.034 321.205 301.086C321.205 301.661 321.308 302.231 321.508 302.769C320.957 302.894 320.447 303.011 319.993 303.116C318.853 303.379 318.07 303.56 317.889 303.56C317.637 303.56 316.374 303.628 316.509 304.183C316.644 304.738 316.896 304.873 317.94 304.738C318.311 304.707 319.831 304.435 321.681 304.104C321.845 304.075 322.012 304.045 322.181 304.015C323.57 305.736 325.486 306.955 327.634 307.482L327.011 308.845C327.011 308.845 326.288 308.845 326.338 309.4C326.389 309.956 326.809 310.511 327.197 310.393C327.285 310.367 327.408 310.349 327.542 310.33C327.994 310.267 328.573 310.185 328.392 309.653C328.252 309.286 328.14 308.909 328.055 308.525L328.745 307.768C330.077 308.064 331.437 308.211 332.801 308.205C334.727 308.219 336.642 307.924 338.473 307.33L339.887 308.525C339.947 308.933 340.172 309.299 340.51 309.535C340.998 309.771 341.923 309.905 341.923 309.333C341.905 308.84 341.656 308.385 341.25 308.104C340.789 307.679 340.356 307.224 339.954 306.741C341.934 305.976 343.486 304.393 344.212 302.399H347.091Z" fill="white"></path><path d="M338.776 305.428C340.315 304.904 341.613 303.84 342.428 302.433H336.218L338.776 305.428Z" fill="white"></path><path d="M397.869 318.96C399.233 319.488 400.522 320.189 401.706 321.047C400.568 322.019 399.313 322.844 397.97 323.505C396.652 322.903 395.428 322.115 394.334 321.165C395.396 320.258 396.587 319.515 397.869 318.96Z" fill="white"></path><path d="M392.466 322.141C393.833 322.662 395.124 323.364 396.304 324.228C395.165 325.195 393.91 326.014 392.567 326.669C391.246 326.073 390.021 325.285 388.932 324.329C389.994 323.428 391.185 322.69 392.466 322.141Z" fill="white"></path><path d="M387.064 318.96C388.422 319.488 389.706 320.189 390.884 321.047C389.749 322.015 388.5 322.84 387.165 323.505C385.845 322.907 384.62 322.118 383.529 321.165C384.591 320.258 385.782 319.515 387.064 318.96V318.96Z" fill="white"></path><path d="M381.88 316.082C383.248 316.599 384.539 317.301 385.717 318.169C384.582 319.137 383.333 319.962 381.997 320.627C380.678 320.029 379.453 319.24 378.362 318.287C379.417 317.38 380.603 316.637 381.88 316.082Z" fill="white"></path><path d="M376.494 319.213C377.861 319.734 379.151 320.436 380.331 321.3C379.193 322.271 377.938 323.097 376.595 323.757C375.273 323.155 374.048 322.361 372.959 321.401C374.026 320.505 375.216 319.768 376.494 319.213Z" fill="white"></path><path d="M371.327 316.082C372.695 316.599 373.986 317.301 375.164 318.169C374.029 319.137 372.78 319.962 371.445 320.627C370.125 320.029 368.9 319.24 367.809 318.287C368.865 317.38 370.05 316.637 371.327 316.082V316.082Z" fill="white"></path><path d="M381.88 322.444C383.248 322.961 384.539 323.664 385.717 324.531C384.543 325.49 383.254 326.298 381.88 326.938C380.56 326.34 379.335 325.552 378.244 324.599C379.339 323.699 380.565 322.973 381.88 322.444Z" fill="white"></path><path d="M387.064 325.423C388.422 325.951 389.706 326.652 390.884 327.51C389.749 328.478 388.5 329.303 387.165 329.968C385.845 329.37 384.62 328.581 383.529 327.628C384.591 326.721 385.782 325.978 387.064 325.423Z" fill="white"></path><path d="M392.146 328.47C393.513 328.99 394.804 329.692 395.984 330.557C394.849 331.524 393.6 332.35 392.264 333.014C390.945 332.416 389.72 331.628 388.629 330.675C389.684 329.767 390.87 329.024 392.146 328.47V328.47Z" fill="white"></path><path d="M395.344 336.532C392.92 335.682 390.558 334.664 388.275 333.485C385.65 331.987 361.43 317.883 361.43 317.883C360.245 318.555 359.119 319.327 358.064 320.189C356.835 320.989 355.777 322.024 354.95 323.235C354.404 324.267 354.198 325.445 354.361 326.601C354.574 328.552 355.563 330.336 357.105 331.55C359.732 333.58 362.55 335.35 365.52 336.835C368.673 338.133 371.941 339.131 375.282 339.814C377.374 340.163 379.49 340.349 381.61 340.369C384.219 340.369 384.977 340.369 387.265 340.369C389.081 340.279 390.886 340.054 392.668 339.696L396.354 338.635C397.542 339.546 398.881 340.241 400.309 340.689C402.155 341.046 404.041 341.148 405.914 340.992C406.587 340.689 407.092 340.554 406.772 340.117C405.913 339.06 404.862 338.175 403.675 337.508C403.052 337.237 402.404 337.029 401.74 336.885C402.375 336.783 402.914 336.364 403.171 335.774C403.514 334.606 403.6 333.377 403.423 332.172C403.423 332.172 403.423 331.987 402.8 332.038C401.851 331.942 400.894 332.117 400.04 332.543C398.855 333.052 397.772 333.77 396.842 334.663C396.068 335.539 395.344 336.532 395.344 336.532Z" fill="white"></path><path d="M201.639 329.21C201.837 329.626 202.332 329.806 202.75 329.614C203.159 329.411 203.331 328.917 203.137 328.503C201.627 325.89 198.897 324.219 195.883 324.06C191.574 323.488 187.232 324.767 185.095 327.258C184.24 328.038 183.736 329.13 183.698 330.287C183.66 331.444 184.091 332.567 184.893 333.401C186.815 334.952 189.162 335.885 191.625 336.077H192.096H192.248C192.646 336.083 192.989 335.797 193.056 335.404C193.138 334.958 192.844 334.53 192.399 334.445L191.911 334.36C189.825 334.197 187.831 333.431 186.172 332.156C185.652 331.622 185.381 330.895 185.426 330.151C185.47 329.408 185.827 328.718 186.407 328.251C188.191 326.181 192.029 325.104 195.748 325.592C198.191 325.745 200.398 327.101 201.639 329.21Z" fill="white"></path><path d="M221.988 338.484C221.882 338.291 221.701 338.149 221.489 338.092C221.276 338.034 221.048 338.067 220.86 338.181L210.206 344.257L211.788 333.536C211.845 333.22 211.706 332.9 211.435 332.728C211.167 332.56 210.827 332.56 210.56 332.728L198.425 339.797C198.03 340.029 197.898 340.538 198.13 340.933C198.362 341.328 198.871 341.46 199.266 341.227L209.954 334.983L208.372 345.704C208.331 346.018 208.467 346.329 208.725 346.512C208.863 346.61 209.027 346.663 209.196 346.664C209.339 346.659 209.477 346.618 209.6 346.546L221.634 339.612C222.04 339.396 222.198 338.893 221.988 338.484Z" fill="white"></path><path d="M231.076 344.021L218.42 351.578C218.229 351.687 218.091 351.869 218.037 352.081C217.983 352.294 218.018 352.519 218.133 352.706C218.276 352.961 218.548 353.116 218.84 353.11C218.989 353.111 219.135 353.07 219.261 352.992L231.918 345.452C232.109 345.34 232.248 345.155 232.302 344.94C232.356 344.724 232.32 344.496 232.204 344.307C231.965 343.926 231.468 343.8 231.076 344.021Z" fill="white"></path><path fill-rule="evenodd" clip-rule="evenodd" d="M259.436 324.548L254.589 310.107C254.508 309.88 254.306 309.717 254.067 309.687L228.956 307.313H228.72L228.552 307.398L217.797 314.13C217.683 314.202 217.594 314.308 217.544 314.433V314.584C217.536 314.651 217.536 314.719 217.544 314.786L222.459 329.564C222.542 329.796 222.752 329.96 222.997 329.984L248.025 332.088C248.219 332.096 248.406 332.01 248.526 331.856C248.646 331.703 248.685 331.501 248.631 331.314L246.779 324.464L258.763 325.322C258.969 325.333 259.169 325.246 259.301 325.087C259.422 324.935 259.471 324.739 259.436 324.548ZM253.545 310.814L256.003 318.203L252.216 318.051L251.913 317.092C251.938 316.998 251.938 316.9 251.913 316.806L250.331 312.093L249.809 310.528L253.545 310.814ZM242.37 320.273L251.778 320.728L251.307 319.263L242.033 318.927L242.37 320.273ZM250.903 318.018L241.242 317.664C241.048 317.653 240.861 317.734 240.738 317.884C240.614 318.034 240.57 318.234 240.619 318.422L241.074 320.223L237.926 320.071L235.452 312.009L249.22 312.817L250.903 318.018ZM233.735 322.343L241.764 322.916L241.393 321.468L233.382 321.098L233.735 322.343ZM248.496 310.326L248.9 311.555L235.183 310.747L234.661 309.064L248.496 310.326ZM233.113 319.836L236.715 320.004L234.274 311.925L230.756 311.723L233.113 319.836ZM233.348 308.896L233.87 310.663L230.369 310.461L229.814 308.559L233.348 308.896ZM230.285 314.534L228.602 308.896L220.187 314.147L230.285 314.534ZM247.234 330.826L223.486 328.84L218.975 315.274L230.521 315.712L232.675 323.101C232.741 323.357 232.966 323.541 233.231 323.555L245.517 324.43L247.234 330.826ZM242.689 321.535L243.06 323.017L257.938 324.077L256.39 319.448L252.586 319.314L253.192 321.199C253.244 321.39 253.206 321.594 253.091 321.754C252.974 321.908 252.795 322 252.603 322.007L242.689 321.535Z" fill="white"></path><path d="M275.324 370.866C275.488 371.176 275.871 371.296 276.183 371.136C276.33 371.06 276.442 370.929 276.492 370.771C276.543 370.613 276.528 370.441 276.452 370.294C274.912 367.839 272.277 366.283 269.383 366.12C264.99 365.531 260.581 366.726 258.409 369.116C257.576 369.818 257.077 370.839 257.035 371.929C256.993 373.018 257.413 374.074 258.191 374.838C260.673 376.659 263.698 377.584 266.774 377.464C267.118 377.464 267.397 377.185 267.397 376.841C267.397 376.494 267.121 376.211 266.774 376.202C264.03 376.33 261.323 375.536 259.083 373.946C258.541 373.409 258.258 372.664 258.307 371.903C258.355 371.142 258.73 370.439 259.335 369.974C261.22 367.904 265.276 366.827 269.198 367.382C271.684 367.482 273.968 368.781 275.324 370.866Z" fill="white"></path><path d="M302.641 384.415L289.715 392.124C289.479 392.274 289.368 392.56 289.441 392.83C289.515 393.1 289.755 393.291 290.034 393.302C290.148 393.3 290.26 393.265 290.354 393.201L303.28 385.509C303.531 385.312 303.599 384.959 303.437 384.683C303.276 384.407 302.936 384.293 302.641 384.415Z" fill="white"></path><path d="M287.325 383.691C286.926 382.914 286.421 382.194 285.827 381.554C283.083 379.366 282.326 377.868 282.46 377.212C282.595 376.555 283.268 376.505 284.228 376.454C287.677 376.431 290.854 378.324 292.475 381.369C292.61 381.689 292.979 381.84 293.299 381.705C293.62 381.571 293.771 381.201 293.636 380.881C291.953 376.808 287.005 375.108 284.177 375.192C282.612 375.192 281.585 375.831 281.265 376.875C280.794 378.322 282.023 380.241 284.951 382.597C285.395 383.11 285.774 383.675 286.079 384.28C286.28 385.066 286.012 385.898 285.389 386.418C284.261 387.226 281.686 386.872 279.145 385.56C276.603 384.247 274.937 382.429 274.92 381.015C274.92 380.671 274.641 380.393 274.298 380.393C273.957 380.401 273.684 380.675 273.675 381.015C273.675 383.338 276.216 385.459 278.573 386.687C280.161 387.544 281.921 388.032 283.723 388.118C284.573 388.148 285.413 387.919 286.13 387.461C287.184 386.647 287.659 385.288 287.341 383.994C287.349 383.893 287.343 383.791 287.325 383.691Z" fill="white"></path><path d="M328.375 356.644C332.549 359.775 338.692 355.433 334.905 349.912C332.751 347.591 330.09 345.8 327.129 344.678C319.589 341.614 304.324 343.567 304.576 353.514C304.576 353.514 303.836 354.187 303.583 353.699C296.935 346.967 279.481 347.825 275.122 357.065C273.439 364.555 284.261 369.469 290.152 366.827C293.131 363.091 285.103 363.663 283.756 361.357C279.397 354.187 290.724 352.016 295.437 354.625C300.957 358.782 294.999 363.646 294.444 365.009C288.385 379.787 314.641 383.523 323.595 379.618C322.905 380.106 318.327 376.791 318.31 376.017C312.285 377.7 296.43 373.458 303.162 365.077C305.148 362.586 307.336 360.6 307.084 357.856C311.46 363.343 324.571 359.842 325.783 368.493C326.237 367.938 333.357 368.964 333.609 369.789C336.117 356.88 316.778 360.465 312.301 353.514C312.554 346.63 324.554 347.202 327.651 351.528C328.61 353.11 326.187 355.904 328.375 356.644Z" fill="white"></path><path d="M326.894 371.405C324.117 371.405 321.844 372.667 321.844 374.232C321.844 375.798 324.083 377.077 326.894 377.077C329.704 377.077 331.943 375.815 331.943 374.232C331.943 372.65 329.704 371.405 326.894 371.405Z" fill="white"></path><path d="M317.553 231.003L330.832 239.519C332.085 240.048 333.427 240.333 334.787 240.361C336.421 240.219 337.999 239.701 339.399 238.846C340.69 238.175 341.834 237.254 342.765 236.136C343.092 235.403 343.203 234.591 343.085 233.797C342.958 233.467 342.788 233.156 342.58 232.871C343.263 232.577 343.912 232.21 344.515 231.777C345.25 231.18 345.755 230.348 345.946 229.421C346.001 228.593 345.795 227.769 345.357 227.064C344.728 226.357 343.989 225.754 343.169 225.28C342.197 224.768 341.143 224.426 340.055 224.271C338.997 224.094 337.916 224.094 336.857 224.271C335.627 224.384 334.428 224.726 333.323 225.28C332.4 225.774 331.574 226.43 330.883 227.216C330.596 227.521 330.189 227.681 329.772 227.654C329.449 227.701 329.122 227.602 328.88 227.384C328.067 226.656 327.125 226.085 326.103 225.701C325.04 225.256 323.883 225.082 322.736 225.196C321.539 225.255 320.353 225.453 319.202 225.785C318.311 225.955 317.507 226.432 316.93 227.132C316.488 227.58 316.246 228.186 316.257 228.815C316.228 229.387 316.421 229.947 316.795 230.38C316.996 230.644 317.255 230.857 317.553 231.003Z" fill="white"></path><path d="M365.857 221.662C365.857 217.118 360.622 212.842 353.082 213.432C346.35 213.953 342.513 214.728 340.224 216.444C338.425 215.888 336.552 215.604 334.669 215.603C329.62 215.603 323.107 217.538 321.895 222.2C321.832 222.664 321.832 223.134 321.895 223.597C321.895 223.597 327.449 222.89 329.587 225.112C330.967 226.56 332.953 222.015 341.015 222.672C343.069 222.71 345.04 223.487 346.569 224.86C346.905 225.146 347.276 225.482 347.646 225.836C348.081 226.388 348.365 227.043 348.471 227.738C348.56 228.894 348.238 230.044 347.562 230.986C346.754 232.063 345.677 232.265 345.593 232.484C345.508 232.703 345.677 232.602 345.997 232.989C346.59 233.919 346.543 235.12 345.879 236.002C344.97 237.516 342.681 238.375 342.681 238.711C343.814 239.831 345.226 240.628 346.771 241.017C349.012 241.517 351.32 241.647 353.604 241.404C355.535 241.149 357.411 240.581 359.158 239.721C360.841 238.678 361.498 238.038 361.969 236.894C362.621 235.748 362.508 234.32 361.683 233.292C361.047 232.43 360.201 231.746 359.225 231.306C358.098 230.683 356.97 229.959 356.97 229.959H357.071C361.851 228.31 365.857 225.028 365.857 221.662Z" fill="white"></path><defs><radialGradient id="paint0_radial" cx="0" cy="0" r="1" gradientUnits="userSpaceOnUse" gradientTransform="translate(334 333) rotate(90) scale(333 387.849)"><stop offset="0.1" stop-color="#62D3FF" stop-opacity="1"></stop><stop offset="0.99" stop-color="white" stop-opacity="0.1"></stop></radialGradient><linearGradient id="paint1_linear" x1="280.605" y1="384.108" x2="280.605" y2="445.72" gradientUnits="userSpaceOnUse"><stop stop-color="#005A7F"></stop><stop offset="1" stop-color="#009ECE"></stop></linearGradient><linearGradient id="paint2_linear" x1="194.636" y1="184.395" x2="193.629" y2="348.953" gradientUnits="userSpaceOnUse"><stop stop-color="#00814B"></stop><stop offset="1" stop-color="#8FDF00"></stop></linearGradient></defs></svg> 