<?xml version="1.0" encoding="UTF-8"?> <svg xmlns="http://www.w3.org/2000/svg" width="668" height="666" viewBox="0 0 668 666" fill="none"><g style="mix-blend-mode:multiply" opacity="0.587333"><path fill-rule="evenodd" clip-rule="evenodd" d="M334 666C518.463 666 668 516.911 668 333C668 149.089 518.463 0 334 0C149.537 0 0 149.089 0 333C0 516.911 149.537 666 334 666Z" fill="url(#paint0_radial)"></path></g><g opacity="0.4"><path d="M452.789 498.43L342.983 434.65L233.38 497.671L343.084 562.447L452.789 498.43Z" fill="#4D4D4E"></path><path opacity="0.1" d="M452.789 442.987L342.983 379.207L233.38 442.228L343.084 507.004L452.789 442.987Z" fill="#024F71"></path><path d="M343.084 562.397L233.38 497.62V506.498L343.084 571.274L452.789 507.257V498.38L343.084 562.397Z" fill="#353535"></path><path opacity="0.46" d="M343.743 441.198L443.456 498.279L395.895 525.587L296.215 468.49L343.743 441.198Z" fill="#2B2B2B"></path><g opacity="0.34"><path d="M291.675 471.106L391.371 528.186L343.827 555.494L244.148 498.397L291.675 471.106Z" fill="#EAEAEA"></path></g><path d="M410.612 488.253C410.46 488.608 379.506 495.139 378.899 495.139C376.755 494.549 374.692 493.699 372.755 492.608C372.89 492.338 392.215 488.253 393.008 488.253C393.802 488.253 410.814 487.882 410.612 488.253Z" fill="white"></path><path d="M370.392 472.574C370.392 472.422 369.667 471.528 369.295 471.257C368.658 470.748 367.961 470.317 367.219 469.975C366.407 469.662 365.541 469.513 364.671 469.536C363.745 469.494 362.82 469.643 361.954 469.975C361.235 470.223 360.562 470.588 359.962 471.055C359.422 471.578 359.203 471.814 359.152 472.169C359.185 472.745 359.424 473.291 359.827 473.705C360.283 474.262 361.143 474.802 361.228 475.291C361.341 475.788 361.149 476.305 360.738 476.608C359.882 476.902 358.973 477.011 358.072 476.928C356.924 476.617 355.866 476.038 354.983 475.241C354.308 474.515 354.19 474.144 353.903 474.144C353.234 474.311 352.622 474.655 352.131 475.139C351.996 475.46 353.042 476.27 353.397 476.591C354.14 477.105 354.931 477.545 355.759 477.907C356.417 478.187 357.121 478.341 357.835 478.363C358.496 478.449 359.166 478.449 359.827 478.363C360.629 478.286 361.412 478.069 362.139 477.722C362.786 477.513 363.367 477.141 363.827 476.641C364.333 476.101 364.249 476.101 364.249 475.646C364.249 475.19 364.114 475.055 363.692 474.464C363.27 473.873 362.797 473.418 362.612 473.148C362.426 472.878 362.105 472.422 362.257 472.068C362.413 471.64 362.765 471.314 363.203 471.19C363.928 471.004 364.688 471.004 365.413 471.19C366.236 471.365 367.001 471.742 367.641 472.287C368.198 472.776 368.553 473.3 368.722 473.418C369.347 473.3 369.926 473.007 370.392 472.574Z" fill="white"></path><path d="M362.865 468.203C362.865 467.949 361.684 467.528 361.177 467.409C360.671 467.291 349.194 471.443 349.194 471.443L356.705 465.3L354.713 464.22L343.506 468.371C343.506 468.371 350.662 462.667 350.662 462.279C350.662 461.89 349.093 460.979 348.755 460.979C345.573 463.535 342.546 466.28 339.692 469.198C339.692 469.536 341.295 470.312 341.835 470.346C342.376 470.38 353.076 466.211 353.076 466.211L345.886 472.152C345.886 472.152 347.152 473.215 347.574 473.215C347.996 473.215 362.865 468.456 362.865 468.203Z" fill="white"></path><path fill-rule="evenodd" clip-rule="evenodd" d="M343.709 458.042C344.414 458.448 345.08 458.917 345.7 459.443C346.005 459.748 346.11 460.2 345.97 460.608C345.399 461.365 344.689 462.006 343.878 462.498C343.447 462.781 342.128 463.501 340.959 464.139C340.111 464.601 339.342 465.021 339.051 465.198C338.529 465.445 338.06 465.789 337.667 466.211C337.534 466.398 337.47 466.545 337.42 466.661C337.361 466.797 337.32 466.89 337.211 466.954C336.286 467.072 335.351 467.072 334.426 466.954C334.339 466.901 334.611 466.512 334.875 466.136C335.122 465.783 335.36 465.442 335.287 465.401C334.259 465.484 333.226 465.484 332.198 465.401C331.042 465.225 329.956 464.735 329.059 463.983C328.722 463.606 328.624 463.072 328.806 462.599C329.179 462.057 329.655 461.592 330.207 461.232C330.887 460.76 331.657 460.433 332.468 460.27C333.353 460.111 334.255 460.06 335.152 460.118C335.921 460.12 336.681 460.287 337.38 460.608C338.189 461.007 338.977 461.446 339.743 461.924C339.9 462.027 339.988 462.107 340.059 462.172C340.14 462.247 340.2 462.301 340.316 462.346C341.189 462.16 342.009 461.78 342.713 461.232C343.017 460.81 343.304 460.304 343.017 459.899C342.506 459.287 341.834 458.831 341.076 458.582C340.652 458.386 339.942 458.274 339.301 458.172C338.566 458.056 337.921 457.954 337.903 457.755C337.869 457.384 338.595 457.148 338.916 457.148C339.515 457.063 340.123 457.063 340.722 457.148C341.764 457.261 342.776 457.564 343.709 458.042ZM334.578 464.641C335.426 464.644 336.27 464.542 337.093 464.338C337.549 464.186 338.781 463.494 338.781 463.156C338.781 462.819 337.633 462.279 336.62 461.89C335.891 461.537 335.083 461.38 334.274 461.435C333.507 461.442 332.773 461.751 332.232 462.295C331.916 462.558 331.773 462.974 331.861 463.376C331.895 463.662 332.3 463.983 332.586 464.118C333.173 464.51 333.874 464.695 334.578 464.641Z" fill="white"></path><path d="M408.722 490.785C408.451 490.397 395.591 493.519 395.219 494.16C394.848 494.802 392.958 502.599 392.536 502.836C392.114 503.072 378.392 496.928 377.954 497.266C377.515 497.603 396.975 507.916 397.751 507.73C398.527 507.544 409.008 491.19 408.722 490.785Z" fill="white"></path><path d="M352.586 479.528C353.684 479.805 354.748 480.202 355.759 480.709C356.705 481.266 357.008 481.452 356.89 481.823C356.772 482.194 356.232 482.43 355.608 482.751C354.06 483.46 352.449 484.025 350.797 484.439C349.79 484.624 348.765 484.692 347.743 484.641C347.422 484.641 347.388 484.287 347.996 484.101C348.603 483.916 349.684 483.679 350.224 483.561C351.119 483.348 351.99 483.043 352.823 482.65C353.464 482.312 353.869 482.042 353.954 481.806C354.038 481.57 353.954 481.468 353.667 481.232C352.934 480.775 352.153 480.402 351.338 480.118C350.595 479.865 349.397 479.595 349.65 479.376C349.903 479.156 351.743 479.325 352.586 479.528Z" fill="white"></path><path d="M322.595 465.148C322.595 465.148 322.173 464.405 321.819 464.523C321.464 464.641 321.16 466.127 321.464 467.494C322.14 469.922 323.472 472.117 325.312 473.84C327.75 475.876 330.425 477.61 333.278 479.004C335.867 480.174 338.604 480.98 341.414 481.401C343.362 481.752 345.328 481.994 347.304 482.127C348.547 482.276 349.8 482.327 351.051 482.279C351.321 482.127 351.489 481.57 350.595 481.401L345.093 480.219C341.161 479.557 337.36 478.27 333.835 476.405C331.539 475.046 329.355 473.505 327.304 471.797C326.25 470.876 325.314 469.827 324.519 468.675C323.819 467.532 323.176 466.355 322.595 465.148Z" fill="white"></path><path fill-rule="evenodd" clip-rule="evenodd" d="M352.637 523.055C351.81 523.055 345.312 526.43 345.312 527.173C345.312 527.916 350.274 530.43 351.101 530.43C351.928 530.43 358.527 526.971 358.527 526.295C358.527 525.62 353.464 523.055 352.637 523.055ZM352.637 523.798C352.975 523.798 354.646 524.523 354.646 524.793C353.829 525.481 352.89 526.008 351.878 526.346C351.063 526.16 350.301 525.791 349.65 525.266C350.565 524.604 351.595 524.118 352.688 523.831L352.637 523.798ZM348.84 525.722C347.95 526.068 347.123 526.558 346.392 527.173L346.477 527.207C346.376 527.46 348.165 528.321 348.316 528.287C349.248 527.968 350.116 527.488 350.882 526.869C350.276 526.366 349.584 525.977 348.84 525.722ZM351.338 529.654C350.515 529.498 349.741 529.151 349.076 528.641C349.879 528.024 350.773 527.534 351.726 527.19C352.52 527.428 353.267 527.799 353.937 528.287C353.141 528.846 352.286 529.315 351.388 529.688L351.338 529.654ZM352.688 526.785C353.296 527.258 353.981 527.623 354.713 527.865L354.764 527.899C355.74 527.501 356.655 526.967 357.481 526.312C357.481 526.042 355.776 525.215 355.439 525.215C355.101 525.215 352.57 526.549 352.688 526.785Z" fill="white"></path><path fill-rule="evenodd" clip-rule="evenodd" d="M361.312 527.224C360.485 527.224 353.987 530.599 353.987 531.342C353.987 532.084 358.949 534.599 359.776 534.599C360.603 534.599 367.203 531.224 367.203 530.464C367.203 529.705 362.139 527.224 361.312 527.224ZM361.312 527.966C361.324 527.966 361.338 527.967 361.353 527.969C360.262 528.266 359.235 528.763 358.325 529.435C358.976 529.959 359.738 530.329 360.553 530.515C361.565 530.177 362.505 529.65 363.321 528.962C363.321 528.702 361.766 528.017 361.353 527.969L361.363 527.966H361.312ZM357.515 529.89C356.625 530.236 355.798 530.727 355.068 531.342H355.118C355.051 531.595 356.857 532.456 356.992 532.456C357.923 532.136 358.791 531.657 359.557 531.038C358.952 530.535 358.26 530.146 357.515 529.89ZM360.013 533.823C359.19 533.666 358.416 533.319 357.751 532.81C358.554 532.193 359.448 531.703 360.401 531.359C361.195 531.596 361.942 531.967 362.612 532.456C361.815 533.003 360.96 533.461 360.063 533.823H360.013ZM361.363 530.954C361.976 531.42 362.659 531.785 363.388 532.034H363.439C364.415 531.65 365.33 531.127 366.156 530.481C366.156 530.211 364.451 529.384 364.114 529.384C363.776 529.384 361.245 530.717 361.363 530.954Z" fill="white"></path><path fill-rule="evenodd" clip-rule="evenodd" d="M342.376 528.641C341.549 528.641 335.051 532.017 335.051 532.76C335.051 533.502 340.013 536.017 340.84 536.017C341.667 536.017 348.266 532.641 348.266 531.882C348.266 531.122 343.203 528.641 342.376 528.641ZM342.376 529.384C342.39 529.384 342.407 529.385 342.427 529.388C341.325 529.68 340.289 530.177 339.371 530.852C340.024 531.374 340.785 531.743 341.599 531.932C342.61 531.6 343.55 531.079 344.367 530.397C344.367 530.123 342.843 529.448 342.427 529.388L342.443 529.384H342.376ZM338.561 531.308C337.675 531.652 336.853 532.142 336.131 532.76H336.198C336.114 533.013 337.92 533.873 338.055 533.873C338.975 533.549 339.836 533.076 340.603 532.473C340.003 531.958 339.31 531.563 338.561 531.308ZM341.059 535.241C340.243 535.081 339.474 534.734 338.814 534.228C339.611 533.61 340.5 533.121 341.447 532.776C342.242 533.011 342.991 533.382 343.658 533.873C342.866 534.419 342.017 534.878 341.127 535.241H341.059ZM342.426 532.371C343.027 532.847 343.707 533.213 344.435 533.451H344.502C345.472 533.066 346.382 532.543 347.203 531.899C347.203 531.629 345.498 530.802 345.16 530.802C344.823 530.802 342.291 532.135 342.426 532.371Z" fill="white"></path><path fill-rule="evenodd" clip-rule="evenodd" d="M351.051 532.776C350.224 532.776 343.726 536.152 343.726 536.895C343.726 537.637 348.688 540.152 349.515 540.152C350.342 540.152 356.941 536.692 356.941 536.017C356.941 535.342 351.878 532.776 351.051 532.776ZM351.051 533.519C351.065 533.519 351.082 533.52 351.102 533.523C350.001 533.815 348.964 534.312 348.046 534.987C348.699 535.509 349.46 535.878 350.274 536.068C351.29 535.736 352.23 535.209 353.042 534.515C353.042 534.257 351.518 533.583 351.102 533.523L351.118 533.519H351.051ZM347.236 535.443C346.35 535.787 345.529 536.277 344.806 536.895H344.873C344.789 537.148 346.595 538.008 346.73 538.008C347.65 537.684 348.511 537.211 349.278 536.608C348.678 536.093 347.985 535.698 347.236 535.443ZM349.734 539.376C348.918 539.216 348.149 538.869 347.489 538.363C348.287 537.745 349.175 537.256 350.122 536.911C350.923 537.146 351.676 537.517 352.35 538.008C351.568 538.551 350.731 539.009 349.852 539.376H349.734ZM351.101 536.506C351.702 536.982 352.382 537.348 353.11 537.586H353.228C354.18 537.197 355.072 536.674 355.878 536.034C355.878 535.764 354.173 534.937 353.835 534.937C353.498 534.937 350.966 536.27 351.101 536.506Z" fill="white"></path><path fill-rule="evenodd" clip-rule="evenodd" d="M322.308 519.004L328.283 515.629C328.426 515.585 328.582 515.624 328.688 515.73L333.397 518.228C333.526 518.299 333.606 518.435 333.606 518.582C333.606 518.73 333.526 518.865 333.397 518.937L327.641 522.312C327.575 522.329 327.505 522.329 327.439 522.312C327.378 522.33 327.314 522.33 327.253 522.312L322.308 519.73C322.172 519.665 322.087 519.526 322.089 519.376C322.088 519.221 322.172 519.079 322.308 519.004ZM323.354 519.325L327.422 521.452L332.3 518.498L328.418 516.439L323.354 519.325Z" fill="white"></path><path fill-rule="evenodd" clip-rule="evenodd" d="M341.591 515.327C341.697 515.356 341.786 515.429 341.835 515.527C341.902 515.624 341.923 515.744 341.894 515.857C341.864 515.97 341.788 516.066 341.684 516.118L339.523 517.316L340.181 517.637C340.317 517.703 340.403 517.841 340.401 517.992C340.401 518.146 340.317 518.289 340.181 518.363L338.949 519.055L340.857 520.034C341.059 520.139 341.141 520.385 341.042 520.591C340.968 520.726 340.826 520.811 340.671 520.81H340.485L338.089 519.578L335.759 520.878L337.633 521.84C337.793 521.928 337.874 522.113 337.831 522.29C337.787 522.468 337.63 522.595 337.447 522.599H337.262L334.916 521.401L332.705 522.633L334.561 523.578C334.658 523.625 334.73 523.709 334.762 523.812C334.794 523.914 334.783 524.025 334.73 524.118C334.668 524.257 334.527 524.344 334.376 524.338C334.315 524.355 334.251 524.355 334.19 524.338L331.861 523.139L329.565 524.422L331.371 525.35C331.552 525.428 331.651 525.625 331.605 525.817C331.559 526.008 331.382 526.139 331.186 526.127H331L328.705 524.962L327.236 525.789H327.034C326.973 525.806 326.909 525.806 326.848 525.789L325.633 525.181L322.477 526.869H322.274C322.128 526.871 321.993 526.793 321.92 526.667C321.865 526.573 321.851 526.461 321.879 526.356C321.908 526.252 321.977 526.163 322.072 526.11L324.755 524.624L322.882 523.662L319.928 525.249C319.868 525.266 319.803 525.266 319.743 525.249C319.592 525.253 319.45 525.176 319.371 525.046C319.318 524.951 319.306 524.837 319.338 524.732C319.37 524.627 319.443 524.54 319.54 524.489L321.987 523.156L320.3 522.279L317.093 523.966C317.032 523.981 316.968 523.981 316.907 523.966C316.754 523.963 316.613 523.88 316.536 523.747C316.435 523.546 316.509 523.301 316.705 523.19L319.405 521.755L317.565 520.81L314.511 522.498C314.45 522.515 314.386 522.515 314.325 522.498C314.174 522.502 314.032 522.425 313.954 522.295C313.9 522.2 313.888 522.086 313.92 521.981C313.952 521.876 314.025 521.789 314.122 521.738L316.688 520.354L315.945 519.983C315.81 519.909 315.725 519.766 315.726 519.612C315.724 519.466 315.802 519.33 315.928 519.257L316.924 518.717L315.236 517.806C315.041 517.695 314.966 517.45 315.068 517.249C315.118 517.151 315.205 517.078 315.31 517.047C315.415 517.015 315.529 517.027 315.624 517.08L317.886 518.228L320.198 516.962L318.426 516.051C318.226 515.952 318.143 515.711 318.241 515.511C318.346 515.308 318.592 515.226 318.797 515.325L321.076 516.489L323.304 515.274L321.498 514.346C321.298 514.248 321.215 514.006 321.312 513.806C321.417 513.604 321.664 513.522 321.869 513.62L324.165 514.802L326.527 513.519L324.722 512.591C324.528 512.486 324.453 512.247 324.553 512.051C324.651 511.851 324.892 511.768 325.093 511.865L327.388 513.03L329.076 512.101C329.199 512.043 329.341 512.043 329.464 512.101L330.797 512.793L333.481 511.342C333.677 511.242 333.917 511.317 334.021 511.511C334.076 511.604 334.09 511.716 334.062 511.821C334.033 511.926 333.964 512.014 333.869 512.068L331.675 513.232L333.616 514.228L336.063 512.928C336.159 512.875 336.273 512.863 336.378 512.895C336.482 512.927 336.57 513 336.62 513.097C336.722 513.298 336.647 513.543 336.451 513.654L334.511 514.684L336.114 515.494L338.747 514.059C338.876 513.99 339.033 513.995 339.158 514.072C339.283 514.15 339.357 514.288 339.352 514.435C339.347 514.582 339.265 514.715 339.135 514.785L336.992 515.933L338.679 516.81L341.278 515.376C341.371 515.316 341.485 515.298 341.591 515.327ZM323.203 522.785L327.017 524.743L339.118 517.992L329.211 512.928L316.992 519.679L322.949 522.667C323.046 522.67 323.138 522.712 323.203 522.785Z" fill="white"></path><path fill-rule="evenodd" clip-rule="evenodd" d="M313.059 499.73L317.954 502.329C318.084 502.392 318.168 502.522 318.173 502.667C318.173 502.821 318.089 502.964 317.954 503.038L311.962 506.177C311.901 506.195 311.837 506.195 311.776 506.177C311.71 506.192 311.641 506.192 311.574 506.177L309.076 504.692L306.612 506.042L310.882 508.304C311.018 508.369 311.103 508.508 311.101 508.658C311.1 508.799 311.031 508.931 310.916 509.013L308.671 510.43L310.46 511.392C310.596 511.458 310.681 511.596 310.679 511.747C310.676 511.901 310.593 512.041 310.46 512.118L304.485 515.257C304.419 515.274 304.349 515.274 304.283 515.257H304.08L299.422 512.473C299.296 512.401 299.224 512.262 299.236 512.118C299.234 511.968 299.32 511.829 299.456 511.764L305.194 508.81C305.309 508.744 305.451 508.744 305.565 508.81L307.844 510.009L309.886 508.726L301.093 504.051L298.882 505.148L300.451 505.992C300.591 506.054 300.681 506.193 300.681 506.346C300.681 506.499 300.591 506.638 300.451 506.701L294.477 509.84H294.291C294.219 509.857 294.144 509.857 294.072 509.84L289.414 507.055C289.291 506.98 289.219 506.844 289.228 506.701C289.226 506.55 289.312 506.412 289.447 506.346L295.186 503.376C295.302 503.316 295.44 503.316 295.557 503.376L298.004 504.658L300.907 503.207C301.032 503.157 301.171 503.157 301.295 503.207L305.734 505.57L308.266 504.203L306.916 503.409C306.791 503.326 306.716 503.188 306.713 503.038C306.725 502.887 306.815 502.753 306.949 502.684L312.688 499.73C312.803 499.664 312.944 499.664 313.059 499.73ZM290.511 506.717L294.325 508.996L299.422 506.329L295.405 504.186L290.511 506.717ZM304.333 514.414L300.519 512.135L305.414 509.62L307.692 510.836L309.38 511.747L304.333 514.414ZM307.996 503.072L311.827 505.367L316.924 502.684L312.907 500.557L307.996 503.072Z" fill="white"></path><path fill-rule="evenodd" clip-rule="evenodd" d="M286.089 486.329C288.443 486.888 290.713 487.757 292.84 488.912C292.907 488.928 298.696 491.882 298.241 492.895C298.241 493.063 298.241 493.317 289.802 497.654C286.883 499.331 283.842 500.787 280.705 502.009C278.345 501.465 276.073 500.596 273.954 499.426C271.709 498.295 268.688 496.101 268.688 495.409C268.688 495.106 268.806 494.937 277.127 490.633C285.447 486.329 285.92 486.329 286.089 486.329ZM274.291 498.616C276.321 499.729 278.489 500.568 280.738 501.114C282.416 500.458 284.051 499.697 285.633 498.836C284.266 498.279 281.481 497.097 279.641 496.118C277.838 495.143 276.091 494.067 274.409 492.895C272.215 494.042 270.376 495.038 269.667 495.443C271.054 496.71 272.61 497.778 274.291 498.616ZM286.612 498.346C286.545 498.32 286.458 498.286 286.356 498.245L286.356 498.245C285.218 497.799 282.042 496.555 280.03 495.409C278.372 494.516 276.766 493.529 275.219 492.456L280.553 489.688C280.688 489.789 283.776 491.781 285.228 492.54C286.174 493.027 288.947 494.296 290.817 495.151L290.817 495.151L290.818 495.151C291.215 495.333 291.571 495.496 291.861 495.629L286.612 498.346ZM285.616 491.764C286.882 492.473 291.743 494.684 292.772 495.139V495.207C294.916 494.059 296.705 493.097 297.38 492.675C295.847 491.502 294.202 490.484 292.468 489.637C290.433 488.507 288.268 487.628 286.021 487.021C284.442 487.669 282.898 488.402 281.397 489.215C282.241 489.789 284.35 491.055 285.616 491.764Z" fill="white"></path></g><path d="M342.646 218.734L116.536 348.776V367.089L342.865 500.726L569.211 368.658V350.329L342.646 218.734Z" fill="url(#paint1_linear)"></path><path d="M343.084 482.397L116.755 348.776V367.089L343.084 500.726L569.43 368.658V350.329L343.084 482.397Z" fill="#185580"></path><path d="M569.43 350.329L342.865 218.734L116.755 348.776L343.084 482.397L569.43 350.329Z" fill="url(#paint2_linear)"></path><path fill-rule="evenodd" clip-rule="evenodd" d="M430.443 280.54L415.253 289.924L512.688 349.468L449.346 386.599L434.274 377.384L439.861 374.008L426.156 365.992L419.405 369.367L390.713 350.802L395.506 347.207L387.743 342.852L382.122 346.599L352.485 328.827L339.911 336.608C339.519 336.844 339.01 336.724 338.764 336.338C338.64 336.149 338.599 335.917 338.65 335.698C338.701 335.478 338.84 335.288 339.034 335.173L427.219 280.557L416.806 274.16C416.614 274.048 416.475 273.863 416.421 273.647C416.367 273.431 416.402 273.202 416.519 273.013C416.635 272.819 416.823 272.68 417.041 272.626C417.26 272.572 417.491 272.608 417.684 272.726L430.443 280.54ZM443.152 374.008L437.515 377.384L449.43 384.658L509.346 349.333L413.7 290.852L413.852 290.616L353.987 327.747L381.97 344.624L387.557 340.895L398.494 347.021L393.565 350.717L419.439 367.46L426.19 364.084L443.152 374.008Z" fill="white"></path><path d="M474.156 343.899L478.797 346.785L477.194 354.414L441.295 356.76L445.785 334.447H458.24L471.945 342.92L469.954 349.84L450.662 350.565L451.27 347.038L465.228 346.667L466.325 344.253L456.62 337.688H450.46L447.405 352.895L472.823 351.527L474.156 343.899Z" fill="white"></path><path fill-rule="evenodd" clip-rule="evenodd" d="M271.81 312.067L256.62 321.435L354.004 380.996L290.662 418.127L275.591 408.911L281.177 405.536L267.473 397.519L260.722 400.894L232.03 382.329L236.823 378.717L229.059 374.363L223.439 378.11L193.802 360.338L181.245 368.118C181.106 368.197 180.949 368.237 180.789 368.236C180.418 368.228 180.097 367.979 179.996 367.622C179.895 367.265 180.039 366.885 180.35 366.684L268.587 312.067L258.173 305.688C257.772 305.445 257.644 304.924 257.886 304.523C258.128 304.122 258.65 303.994 259.051 304.236L271.81 312.067ZM284.603 405.536L278.966 408.911L290.781 416.135L350.831 380.928L255.203 322.447L255.338 322.211L195.422 359.342L223.506 376.152L229.11 372.422L240.03 378.548L235.101 382.245L260.975 398.987L267.726 395.612L284.603 405.536Z" fill="white"></path><path fill-rule="evenodd" clip-rule="evenodd" d="M273.11 349.722C270.794 347.274 268.063 345.257 265.042 343.764C258.713 340.506 251.135 338.7 249.245 341.789L230.257 354.582L230.072 354.768C229.16 356.203 229.599 358.329 231.321 360.76C233.313 363.357 235.76 365.57 238.544 367.291C241.826 369.498 245.649 370.764 249.599 370.954C250.912 371.062 252.221 370.704 253.295 369.941L272.451 357.367C273.527 357.221 274.48 356.602 275.051 355.679C275.81 354.11 275.135 352.017 273.11 349.722ZM258.899 364.743C256.063 365.198 250.072 363.561 246.747 361.823C240.536 358.549 236.722 353.384 237.532 351.207L242.241 348.034C242.342 351.274 246.595 355.949 252.367 358.886C255.816 360.514 259.534 361.498 263.338 361.789L258.899 364.743ZM252.992 357.755C256.384 359.443 262.494 360.979 265.295 360.422L265.363 360.523L269.92 357.536H269.16C265.815 357.077 262.579 356.019 259.608 354.414C254.139 351.595 249.177 346.987 248.89 343.612L243.641 347.156C242.629 349.316 246.578 354.515 252.992 357.755ZM252.519 368.945C251.219 370.127 245.515 370.262 239.236 366.228C236.578 364.599 234.244 362.494 232.35 360.017C231.017 358.143 230.561 356.523 231.084 355.561L236.148 352.186C236.367 355.426 240.468 360.034 246.122 363.004C249.491 364.679 253.132 365.737 256.873 366.127L252.519 368.945ZM269.228 356.236C271.692 356.489 273.38 356.068 273.903 355.055C274.426 354.042 273.785 352.405 272.215 350.565C267.119 345.435 260.404 342.226 253.211 341.485C251.658 341.485 250.612 341.857 250.257 342.549C249.211 344.557 253.397 349.789 260.148 353.266C262.974 354.788 266.049 355.794 269.228 356.236Z" fill="white"></path><path d="M315.523 375.409L320.181 378.295L318.561 385.924L282.662 388.27L287.152 365.958H299.608L313.312 374.43L311.321 381.35L292.03 382.076L292.637 378.548L306.595 378.177L307.692 375.764L297.987 369.198H291.827L288.772 384.405L314.19 383.038L315.523 375.409Z" fill="white"></path><path fill-rule="evenodd" clip-rule="evenodd" d="M424.485 311.359L434.021 317.333C434.199 317.443 434.312 317.632 434.325 317.84C434.321 318.055 434.214 318.256 434.038 318.38L424.485 324.473C424.385 324.539 424.268 324.574 424.148 324.574C424.023 324.572 423.9 324.537 423.793 324.473L419.489 321.62L415.152 324.27L423.489 329.654C423.668 329.771 423.78 329.965 423.793 330.177C423.796 330.386 423.695 330.582 423.523 330.7L419.827 333.333L423.489 335.646C423.674 335.756 423.789 335.954 423.793 336.169C423.791 336.389 423.677 336.593 423.489 336.709L413.954 342.819C413.854 342.885 413.736 342.92 413.616 342.92C413.488 342.922 413.363 342.881 413.262 342.802L404.114 336.76C403.937 336.644 403.83 336.447 403.83 336.236C403.83 336.025 403.937 335.828 404.114 335.713L413.295 329.688C413.503 329.544 413.779 329.544 413.987 329.688L418.646 332.574L422.021 330.177L404.451 318.819L400.705 321.266L404.3 323.511C404.476 323.634 404.582 323.835 404.582 324.051C404.582 324.266 404.476 324.468 404.3 324.591L394.764 330.684C394.664 330.75 394.546 330.785 394.426 330.785C394.301 330.787 394.177 330.752 394.072 330.684L384.924 324.641C384.746 324.527 384.638 324.33 384.637 324.118C384.635 323.906 384.743 323.707 384.924 323.595L394.072 317.536C394.276 317.399 394.543 317.399 394.747 317.536L399.523 320.523L404.131 317.603C404.342 317.468 404.612 317.468 404.823 317.603L413.987 323.527L418.308 320.878L414.646 318.464C414.469 318.345 414.363 318.146 414.363 317.932C414.363 317.719 414.469 317.52 414.646 317.401L423.793 311.359C424.004 311.224 424.274 311.224 424.485 311.359ZM386.409 324.186L394.426 329.468L402.865 324.118L394.426 318.886L386.409 324.186ZM413.616 341.553L405.549 336.27L413.565 330.987L421.92 336.219L413.616 341.553ZM416.114 317.941L424.114 323.224L432.468 317.873L424.131 312.641L416.114 317.941Z" fill="white"></path><g opacity="0.4"><path d="M343.973 299.107L234.703 235.076V243.853L343.169 307.883L452.439 244.606V235.83L343.973 299.107Z" fill="#3BAB24"></path><path d="M452.439 235.796L343.872 172.737L234.703 235.043L343.973 299.09L452.439 235.796Z" fill="url(#paint3_linear)"></path><path d="M319.285 201.612L400.584 247.336" stroke="white" stroke-width="0.48" stroke-linecap="round" stroke-dasharray="0"></path><path d="M288.384 219.684L369.682 265.408" stroke="white" stroke-width="0.48" stroke-linecap="round" stroke-dasharray="0"></path><path fill-rule="evenodd" clip-rule="evenodd" d="M411.337 230.922L412.844 229.968C416.194 227.891 415.675 224.39 411.823 222.196C407.97 220.002 402.159 219.902 398.876 221.979L397.368 222.95C396.314 222.824 395.247 223.035 394.32 223.553L392.427 224.742C388.625 227.154 389.078 231.19 393.617 233.753C398.156 236.316 404.805 236.399 408.607 233.988L410.499 232.798C411.174 232.438 411.519 231.666 411.337 230.922ZM410.315 228.527L409.361 229.13L400.45 224.106L401.422 223.503C404.021 222.181 407.107 222.231 409.662 223.637C412.107 224.977 412.409 227.271 410.315 228.527ZM394.22 233.318C398.29 235.662 404.436 235.763 407.92 233.552L409.813 232.279C410.851 231.609 410.717 230.504 409.478 229.8L399.144 223.888C397.848 223.212 396.303 223.212 395.007 223.888L393.114 225.094C389.647 227.305 390.15 230.973 394.22 233.318Z" fill="white"></path><path d="M401.489 228.444C400.789 228.167 400.011 228.167 399.311 228.444C398.742 228.695 398.507 229.114 398.691 229.549L396.715 230.554C396.552 230.623 396.442 230.779 396.43 230.956C396.47 231.14 396.594 231.295 396.765 231.375L397.435 231.76C397.654 231.884 397.904 231.942 398.156 231.927C398.387 231.937 398.616 231.873 398.809 231.743L400.383 230.504C400.958 230.598 401.547 230.498 402.058 230.219C402.392 230.052 402.571 229.68 402.493 229.315C402.312 228.884 401.94 228.562 401.489 228.444Z" fill="white"></path><path fill-rule="evenodd" clip-rule="evenodd" d="M391.707 211.812L374.322 201.579C374.226 201.514 374.1 201.514 374.004 201.579L359.935 209.501C359.844 209.56 359.788 209.66 359.784 209.769C359.782 209.883 359.839 209.991 359.935 210.053L366.5 213.906L364.189 215.329L361.09 213.504C361.02 213.455 360.933 213.438 360.85 213.457C360.767 213.477 360.696 213.53 360.655 213.604C360.576 213.758 360.627 213.946 360.772 214.04L370.905 220.019C370.96 220.036 371.018 220.036 371.073 220.019C371.184 220.011 371.285 219.949 371.341 219.852C371.382 219.781 371.393 219.696 371.371 219.617C371.349 219.538 371.296 219.472 371.223 219.433L368.326 217.758L370.654 216.334L377.655 220.454C377.704 220.472 377.757 220.472 377.806 220.454C377.86 220.47 377.918 220.47 377.973 220.454L391.707 212.331C391.806 212.279 391.864 212.174 391.858 212.063C391.855 211.959 391.798 211.864 391.707 211.812ZM367.723 217.423L364.792 215.748L367.12 214.341L370.051 216.016L367.723 217.423ZM360.688 209.785L377.772 219.835L390.836 212.08L374.087 202.198L360.688 209.785Z" fill="white"></path><path d="M379.162 217.808L363.854 208.848C363.704 208.765 363.517 208.808 363.418 208.948C363.376 209.021 363.365 209.108 363.387 209.19C363.409 209.272 363.462 209.341 363.536 209.383L378.844 218.344C378.899 218.361 378.957 218.361 379.012 218.344C379.119 218.335 379.216 218.28 379.28 218.193C379.337 218.053 379.288 217.892 379.162 217.808Z" fill="white"></path><path d="M379.397 212.783C378.234 213.322 377.114 213.95 376.047 214.659C376.628 215.099 377.264 215.459 377.94 215.731C379.101 215.197 380.221 214.575 381.289 213.872C380.708 213.429 380.072 213.064 379.397 212.783Z" fill="white"></path><path d="M367.79 209.702C368.367 210.15 369.004 210.517 369.682 210.79C369.867 210.79 374.339 208.295 374.339 208.194C373.792 207.762 373.196 207.397 372.563 207.106C370.926 207.883 369.333 208.75 367.79 209.702Z" fill="white"></path><path d="M373.233 213.035C373.811 213.478 374.448 213.839 375.126 214.107C375.327 214.107 382.579 209.986 382.579 209.886C382.03 209.445 381.428 209.074 380.787 208.781C380.636 208.848 373.233 212.901 373.233 213.035Z" fill="white"></path><path d="M370.537 211.444C371.115 211.887 371.752 212.247 372.429 212.515C372.63 212.515 378.61 209.032 378.61 208.914C378.057 208.483 377.455 208.117 376.817 207.826C376.65 207.826 370.537 211.31 370.537 211.444Z" fill="white"></path><path d="M324.293 214.425L326.738 215.597L326.102 219.198L307.561 220.371L310.04 209.802L316.555 209.651L323.003 213.604L322.601 216.987L313.122 217.071V215.932L320.072 215.815L320.307 214.174L315.533 211.243H312.586L310.877 218.294L323.807 217.842L324.293 214.425Z" fill="white"></path><path d="M331.076 225.814L330.39 226.35L328.078 224.776L325.616 226.35L324.745 225.764L327.207 224.34L325.013 223.034L325.834 222.615L327.911 223.905L330.406 222.431L331.143 222.967L328.849 224.39L331.076 225.814Z" fill="white"></path><path d="M343.286 233.334C343.671 233.334 343.973 233.15 343.973 232.932C343.973 232.715 343.671 232.53 343.286 232.53C342.901 232.53 342.616 232.715 342.616 232.932C342.616 233.15 342.868 233.334 343.286 233.334Z" fill="white"></path><path d="M342.097 230.386C341.23 230.493 340.393 230.772 339.635 231.207L342.097 232.011V230.386Z" fill="white"></path><path d="M338.881 231.844C338.621 232.129 338.467 232.496 338.446 232.882C338.448 233.09 338.494 233.295 338.58 233.485L341.142 232.882L338.881 231.844Z" fill="white"></path><path d="M341.075 235.177L341.812 233.602L339.032 234.105C339.616 234.622 340.318 234.99 341.075 235.177Z" fill="white"></path><path d="M345.882 230.772C345.057 230.467 344.183 230.314 343.303 230.32L343.722 231.86L345.882 230.772Z" fill="white"></path><path d="M346.837 231.241L344.961 232.497C344.961 232.497 346.519 232.664 347.959 232.782C347.857 232.116 347.439 231.542 346.837 231.241Z" fill="white"></path><path d="M343.219 233.971L341.913 235.411C342.344 235.486 342.781 235.525 343.219 235.528C343.886 235.526 344.55 235.441 345.196 235.277L343.688 233.971H343.219Z" fill="white"></path><path fill-rule="evenodd" clip-rule="evenodd" d="M342.097 226.551C342.097 226.551 350.287 228.41 350.957 228.527L353.855 233.602L348.646 238.376L339.216 238.861L332.701 234.976L333.723 229.599L342.097 226.551ZM350.07 233.485C350.07 233.485 350.371 233.686 350.555 233.686C350.74 233.653 351.208 233.368 351.058 233.184C350.907 232.999 350.472 232.648 350.22 232.782C349.702 232.835 349.181 232.835 348.663 232.782C348.602 231.927 348.151 231.149 347.44 230.671L348.261 230.119C348.45 230.129 348.64 230.129 348.83 230.119C349 230.064 349.12 229.911 349.132 229.733C349.148 229.516 348.579 229.281 348.261 229.281C348.082 229.299 347.949 229.454 347.959 229.633L346.703 230.269C345.58 229.732 344.347 229.463 343.102 229.482H342.985C342.928 229.278 342.883 229.071 342.851 228.862C342.945 228.655 342.945 228.417 342.851 228.209C342.7 227.941 341.879 227.991 341.695 228.41C341.511 228.829 341.963 228.829 341.963 228.829V229.549C340.741 229.663 339.577 230.129 338.613 230.889L337.625 230.571C337.625 230.571 336.687 230.068 336.336 230.169C335.984 230.269 336.218 230.621 336.218 230.621L338.061 231.475C337.75 231.873 337.58 232.361 337.575 232.865C337.575 233.135 337.626 233.402 337.726 233.653L336.051 234.021C335.917 234.021 335.314 234.055 335.381 234.322C335.448 234.59 335.565 234.59 336.068 234.59L338.111 234.255C338.779 235.081 339.695 235.668 340.724 235.93L340.439 236.584C340.439 236.584 340.071 236.584 340.104 236.852C340.137 237.12 340.338 237.404 340.523 237.337C340.568 237.321 340.632 237.311 340.702 237.299C340.916 237.265 341.181 237.222 341.092 236.969C341.026 236.793 340.97 236.615 340.925 236.433L341.26 236.064C341.903 236.209 342.56 236.282 343.219 236.282C344.14 236.29 345.057 236.148 345.933 235.863L346.619 236.433C346.646 236.626 346.749 236.801 346.904 236.919C347.155 237.036 347.591 237.086 347.591 236.818C347.59 236.582 347.47 236.361 347.273 236.232C347.051 236.029 346.844 235.81 346.653 235.579C347.602 235.205 348.346 234.443 348.696 233.485H350.07Z" fill="white"></path><path d="M346.083 234.925C346.827 234.678 347.453 234.165 347.842 233.485H344.844C344.844 233.485 345.464 234.239 346.083 234.925Z" fill="white"></path><path d="M374.473 241.441C375.13 241.69 375.75 242.028 376.315 242.446C375.765 242.905 375.164 243.298 374.523 243.618C373.917 243.32 373.354 242.943 372.848 242.496C373.335 242.066 373.882 241.71 374.473 241.441Z" fill="white"></path><path d="M371.877 242.965C372.532 243.218 373.151 243.556 373.719 243.97C373.169 244.429 372.568 244.823 371.927 245.142C371.319 244.848 370.755 244.47 370.252 244.02C370.738 243.59 371.286 243.235 371.877 242.965V242.965Z" fill="white"></path><path d="M369.281 241.441C369.936 241.694 370.555 242.032 371.123 242.446C370.573 242.905 369.972 243.298 369.331 243.618C368.723 243.324 368.159 242.946 367.656 242.496C368.142 242.066 368.69 241.71 369.281 241.441V241.441Z" fill="white"></path><path d="M366.768 240.051C367.425 240.3 368.045 240.638 368.611 241.055C368.066 241.526 367.464 241.925 366.818 242.245C366.209 241.947 365.645 241.563 365.144 241.106C365.634 240.681 366.181 240.326 366.768 240.051Z" fill="white"></path><path d="M364.206 241.558C364.861 241.811 365.48 242.149 366.048 242.563C365.498 243.022 364.897 243.416 364.256 243.735C363.648 243.441 363.084 243.063 362.581 242.613C363.068 242.183 363.615 241.828 364.206 241.558Z" fill="white"></path><path d="M361.727 240.051C362.382 240.304 363.002 240.641 363.569 241.055C363.024 241.526 362.422 241.925 361.777 242.245C361.165 241.951 360.601 241.567 360.102 241.106C360.593 240.681 361.139 240.326 361.727 240.051Z" fill="white"></path><path d="M366.768 243.116C367.428 243.358 368.049 243.697 368.611 244.121C368.061 244.58 367.459 244.973 366.818 245.293C366.213 244.995 365.649 244.618 365.144 244.171C365.63 243.741 366.178 243.385 366.768 243.116Z" fill="white"></path><path d="M369.281 244.539C369.936 244.792 370.555 245.13 371.123 245.544C370.578 246.015 369.976 246.414 369.331 246.733C368.719 246.439 368.154 246.055 367.656 245.594C368.146 245.17 368.693 244.815 369.281 244.539Z" fill="white"></path><path d="M371.726 246.013C372.386 246.256 373.007 246.595 373.568 247.018C373.019 247.477 372.417 247.871 371.776 248.191C371.17 247.893 370.607 247.515 370.101 247.068C370.588 246.638 371.135 246.283 371.726 246.013V246.013Z" fill="white"></path><path d="M373.233 249.882C372.083 249.471 370.964 248.978 369.883 248.408L356.987 240.922C356.397 241.239 355.836 241.609 355.312 242.027C354.737 242.409 354.247 242.905 353.872 243.484C353.593 243.995 353.493 244.585 353.587 245.159C353.679 246.097 354.151 246.956 354.893 247.537C356.151 248.514 357.503 249.361 358.93 250.066C360.443 250.696 362.014 251.178 363.619 251.507C364.627 251.673 365.646 251.763 366.668 251.775C367.907 251.775 368.242 251.775 369.381 251.775C370.253 251.724 371.121 251.612 371.977 251.44L373.736 250.937C374.31 251.375 374.956 251.71 375.645 251.926C376.533 252.099 377.44 252.15 378.342 252.076C378.66 251.926 378.894 251.859 378.76 251.658C378.345 251.144 377.833 250.717 377.253 250.401C376.957 250.27 376.648 250.169 376.332 250.1C376.635 250.045 376.891 249.844 377.018 249.564C377.173 249.02 377.212 248.449 377.136 247.889C377.136 247.889 377.136 247.789 376.834 247.889C376.38 247.839 375.921 247.921 375.511 248.124C374.945 248.378 374.425 248.723 373.97 249.145C373.618 249.396 373.233 249.882 373.233 249.882Z" fill="white"></path><path d="M280.193 246.365C280.286 246.559 280.518 246.642 280.713 246.549C280.907 246.457 280.989 246.224 280.897 246.03C280.173 244.772 278.862 243.965 277.413 243.886C275.541 243.539 273.615 244.112 272.238 245.427C271.827 245.801 271.585 246.325 271.566 246.88C271.547 247.435 271.753 247.974 272.137 248.375C273.045 249.113 274.154 249.562 275.319 249.665H275.554H275.638C275.824 249.626 275.958 249.461 275.958 249.271C275.958 249.08 275.824 248.916 275.638 248.877H275.403C274.397 248.811 273.434 248.443 272.64 247.822C272.391 247.565 272.262 247.215 272.285 246.858C272.307 246.501 272.478 246.17 272.757 245.946C273.975 244.85 275.633 244.38 277.246 244.673C278.453 244.697 279.564 245.335 280.193 246.365Z" fill="white"></path><path d="M289.941 250.82C289.896 250.723 289.81 250.651 289.708 250.622C289.605 250.593 289.494 250.611 289.405 250.669L284.381 253.6L285.151 248.442C285.169 248.289 285.097 248.139 284.967 248.056C284.839 247.974 284.675 247.974 284.548 248.056L278.703 251.406C278.61 251.456 278.541 251.541 278.513 251.642C278.484 251.743 278.498 251.852 278.552 251.942C278.668 252.13 278.91 252.196 279.105 252.093L284.247 249.078L283.476 254.237C283.459 254.386 283.523 254.533 283.644 254.622C283.72 254.646 283.802 254.646 283.878 254.622C283.938 254.639 284.002 254.639 284.062 254.622L289.841 251.272C289.977 251.164 290.018 250.976 289.941 250.82Z" fill="white"></path><path d="M294.296 253.483L288.216 257.118C288.123 257.167 288.055 257.252 288.026 257.354C287.998 257.455 288.012 257.563 288.065 257.654C288.144 257.772 288.275 257.847 288.417 257.855C288.482 257.876 288.553 257.876 288.618 257.855L294.698 254.237C294.789 254.181 294.854 254.092 294.879 253.988C294.905 253.885 294.887 253.775 294.832 253.684C294.792 253.583 294.711 253.503 294.609 253.464C294.506 253.426 294.393 253.433 294.296 253.483Z" fill="white"></path><path fill-rule="evenodd" clip-rule="evenodd" d="M307.946 244.121L305.635 237.153C305.594 237.038 305.489 236.959 305.367 236.952L293.308 235.813H293.19H293.107L287.931 239.062C287.88 239.101 287.839 239.153 287.814 239.213C287.806 239.24 287.806 239.27 287.814 239.297L290.176 246.382C290.221 246.496 290.322 246.579 290.444 246.599L302.469 247.604C302.563 247.612 302.654 247.567 302.704 247.487C302.746 247.403 302.746 247.303 302.704 247.219L301.816 243.869L307.561 244.288C307.664 244.292 307.762 244.249 307.829 244.171C307.871 244.162 307.911 244.145 307.946 244.121ZM305.132 237.521L306.305 241.072H304.496L304.345 240.603C304.352 240.559 304.352 240.514 304.345 240.469L303.591 238.208L303.34 237.454L305.132 237.521ZM299.823 242.144L304.345 242.345L304.111 241.642L299.656 241.491L299.823 242.144ZM303.926 241.056L299.287 240.871C299.193 240.882 299.105 240.923 299.036 240.989C298.994 241.067 298.994 241.161 299.036 241.24L299.254 242.111H297.729L296.574 238.225L303.173 238.627L303.926 241.056ZM295.669 243.132L299.538 243.4L299.354 242.714L295.502 242.529L295.669 243.132ZM302.67 237.321L302.855 237.907L296.272 237.521L296.021 236.701L302.67 237.321ZM295.318 241.893L296.992 241.977L295.87 238.091L294.195 237.99L295.318 241.893ZM295.318 236.634L295.569 237.488L293.894 237.388L293.626 236.466L295.318 236.634ZM293.827 239.347L293.04 236.634L289.003 239.163L293.827 239.347ZM302.034 247.202L290.611 246.248L288.451 239.732L293.994 239.95L295.033 243.501C295.064 243.622 295.175 243.706 295.301 243.702L301.196 244.137L302.034 247.202ZM299.84 242.747L300.024 243.451L307.126 243.886L306.389 241.675H304.563L304.848 242.58C304.896 242.663 304.896 242.765 304.848 242.848C304.793 242.923 304.706 242.966 304.613 242.965L299.84 242.747Z" fill="white"></path><path d="M315.6 266.38C315.675 266.527 315.854 266.587 316.002 266.514C316.143 266.433 316.2 266.26 316.136 266.112C315.414 264.936 314.164 264.187 312.787 264.102C310.9 263.746 308.955 264.277 307.511 265.542C307.111 265.88 306.873 266.371 306.854 266.894C306.835 267.416 307.037 267.923 307.41 268.289C308.598 269.171 310.052 269.62 311.53 269.562C311.7 269.553 311.832 269.413 311.832 269.244C311.832 269.164 311.8 269.087 311.744 269.031C311.687 268.974 311.61 268.942 311.53 268.942C310.21 269.002 308.907 268.619 307.829 267.854C307.572 267.596 307.439 267.24 307.464 266.877C307.49 266.514 307.672 266.18 307.963 265.961C309.268 264.84 311.014 264.377 312.703 264.705C313.88 264.77 314.957 265.392 315.6 266.38Z" fill="white"></path><path d="M328.715 272.895L322.501 276.597C322.375 276.661 322.311 276.805 322.347 276.942C322.383 277.079 322.51 277.172 322.652 277.166C322.706 277.183 322.765 277.183 322.819 277.166L329.033 273.465C329.17 273.372 329.214 273.19 329.133 273.046C329.101 272.968 329.037 272.907 328.957 272.878C328.878 272.85 328.79 272.856 328.715 272.895Z" fill="white"></path><path d="M321.362 272.493C321.17 272.121 320.927 271.778 320.642 271.471C319.319 270.416 318.967 269.696 319.067 269.378C319.168 269.06 319.453 269.043 319.905 269.026C321.563 269.001 323.096 269.907 323.874 271.371C323.909 271.48 324.003 271.56 324.116 271.577C324.229 271.595 324.342 271.547 324.408 271.453C324.474 271.36 324.481 271.237 324.427 271.136C323.556 269.438 321.797 268.38 319.888 268.406C319.134 268.406 318.649 268.725 318.481 269.194C318.314 269.663 318.85 270.868 320.257 271.94C320.465 272.187 320.645 272.457 320.793 272.744C320.892 273.118 320.768 273.515 320.474 273.766C319.46 274.117 318.339 273.962 317.46 273.347C316.254 272.728 315.45 271.857 315.433 271.17C315.433 271.003 315.298 270.868 315.131 270.868C314.965 270.868 314.83 271.003 314.83 271.17C314.83 272.275 316.053 273.297 317.192 273.883C317.948 274.301 318.791 274.536 319.654 274.57C320.066 274.588 320.474 274.483 320.826 274.268C321.319 273.864 321.54 273.215 321.396 272.594C321.392 272.558 321.381 272.524 321.362 272.493Z" fill="white"></path><path d="M341.075 259.546C341.959 260.416 343.38 260.405 344.249 259.521C345.119 258.638 345.108 257.217 344.224 256.347C343.188 255.235 341.91 254.375 340.489 253.835C336.855 252.361 329.535 253.299 329.653 258.072C329.653 258.072 329.284 258.407 329.167 258.173C325.968 254.907 317.594 255.359 315.5 259.848C314.696 263.449 319.888 265.81 322.719 264.537C324.142 262.745 320.307 263.013 319.637 261.908C317.543 258.458 322.987 257.419 325.265 258.659C327.911 260.652 325.047 262.98 324.779 263.683C321.864 270.801 334.46 272.61 338.781 270.701C338.446 270.952 336.252 269.361 336.252 269.026C333.354 269.813 325.733 267.803 328.933 263.767C329.887 262.578 330.926 261.623 330.808 260.3C332.919 262.93 339.183 261.255 339.803 265.325C341.087 265.208 342.38 265.427 343.554 265.961C344.76 259.747 335.448 261.472 333.321 258.139C333.438 254.79 339.216 255.108 340.69 257.185C341.193 257.855 340.037 259.178 341.075 259.546Z" fill="white"></path><path d="M340.372 266.631C339.049 266.631 337.96 267.251 337.96 268.004C337.96 268.758 339.049 269.361 340.372 269.361C341.695 269.361 342.784 268.758 342.784 268.004C342.784 267.251 341.712 266.631 340.372 266.631Z" fill="white"></path><path d="M335.883 199.167L342.265 203.253C342.869 203.511 343.517 203.647 344.174 203.655C344.956 203.586 345.712 203.34 346.385 202.935C347.03 202.624 347.601 202.179 348.06 201.629C348.225 201.279 348.283 200.889 348.227 200.507C348.161 200.347 348.077 200.195 347.976 200.054C348.305 199.913 348.619 199.739 348.914 199.535C349.267 199.246 349.51 198.844 349.601 198.396C349.622 198.002 349.523 197.61 349.316 197.274C349 196.933 348.633 196.645 348.227 196.42C347.754 196.179 347.245 196.015 346.72 195.934C346.215 195.855 345.701 195.855 345.196 195.934C344.612 195.988 344.043 196.153 343.521 196.42C343.075 196.656 342.677 196.974 342.348 197.358C342.21 197.504 342.012 197.578 341.812 197.559C341.654 197.586 341.492 197.536 341.377 197.425C340.991 197.075 340.542 196.802 340.054 196.621C339.557 196.413 339.015 196.333 338.479 196.386C337.911 196.408 337.348 196.503 336.804 196.671C336.376 196.743 335.989 196.969 335.716 197.307C335.494 197.534 335.378 197.845 335.398 198.162C335.383 198.436 335.473 198.705 335.649 198.915C335.712 199.012 335.792 199.096 335.883 199.167Z" fill="white"></path><path d="M359.097 194.678C359.097 192.501 356.585 190.44 352.967 190.725C349.718 190.976 347.942 191.345 346.77 192.166C345.907 191.904 345.009 191.774 344.107 191.78C341.712 191.78 338.546 192.702 337.977 194.946C337.941 195.168 337.941 195.394 337.977 195.616C337.977 195.616 340.64 195.264 341.662 196.336C342.332 197.04 343.337 194.845 347.155 195.164C348.145 195.186 349.095 195.56 349.835 196.219L350.338 196.688C350.544 196.958 350.682 197.274 350.74 197.609C350.781 198.163 350.627 198.714 350.304 199.167C349.919 199.686 349.4 199.77 349.349 199.887C349.299 200.004 349.349 199.887 349.55 200.121C349.848 200.555 349.848 201.128 349.55 201.562C349.115 202.299 348.009 202.717 348.009 202.868C348.552 203.405 349.229 203.787 349.969 203.974C351.067 204.226 352.199 204.294 353.319 204.175C354.243 204.058 355.143 203.792 355.982 203.387C356.786 202.885 357.104 202.617 357.322 202.031C357.612 201.495 357.56 200.838 357.188 200.356C356.884 199.937 356.474 199.607 355.999 199.401C355.463 199.1 354.927 198.748 354.927 198.748C357.171 197.877 359.097 196.303 359.097 194.678Z" fill="white"></path></g><defs><radialGradient id="paint0_radial" cx="0" cy="0" r="1" gradientUnits="userSpaceOnUse" gradientTransform="translate(334 333) rotate(90) scale(333 387.849)"><stop offset="0.1" stop-color="#62D3FF" stop-opacity="1"></stop><stop offset="0.99" stop-color="white" stop-opacity="0.1"></stop></radialGradient><linearGradient id="paint1_linear" x1="203.974" y1="228.942" x2="202.729" y2="404.922" gradientUnits="userSpaceOnUse"><stop stop-color="#005A7F"></stop><stop offset="1" stop-color="#009ECE"></stop></linearGradient><linearGradient id="paint2_linear" x1="233.972" y1="273.755" x2="233.972" y2="400.861" gradientUnits="userSpaceOnUse"><stop stop-color="#005A7F"></stop><stop offset="1" stop-color="#009ECE"></stop></linearGradient><linearGradient id="paint3_linear" x1="276.685" y1="177.327" x2="276.2" y2="256.186" gradientUnits="userSpaceOnUse"><stop stop-color="#00814B"></stop><stop offset="1" stop-color="#8FDF00"></stop></linearGradient></defs></svg> 