<?xml version="1.0" encoding="UTF-8"?> <svg xmlns="http://www.w3.org/2000/svg" xmlns:xlink="http://www.w3.org/1999/xlink" width="243px" height="80px" viewBox="0 0 243 80" version="1.1"><title>Duke Energy</title><g id="Homepage-Update-11.20" stroke="none" stroke-width="1" fill="none" fill-rule="evenodd"><g id="Artboard" transform="translate(-470.000000, -1593.000000)"><g id="Duke-Energy" transform="translate(470.000000, 1593.000000)"><path d="M91.2899878,8.92804898 L92.2624776,8.92804898 C98.9756204,8.92804898 106.984518,10.9929061 106.984518,20.8134367 C106.984518,30.6447429 98.9756204,32.7055592 92.2624776,32.7055592 L91.2899878,32.7055592 L91.2899878,8.92804898 Z M93.4895388,4.44543673 L86.4666,4.44543673 L86.4666,37.1868245 L93.3669673,37.1868245 C104.739171,37.1868245 111.809253,30.8521714 111.809253,20.6477633 C111.807906,10.8056816 104.617947,4.44543673 93.4895388,4.44543673 L93.4895388,4.44543673 Z" id="Fill-1" fill="#005A84"></path><path d="M133.932318,23.6930571 C133.932318,30.1583633 131.554971,33.2967306 126.664237,33.2967306 C121.764073,33.2967306 119.38538,30.1583633 119.38538,23.6930571 L119.38538,4.44530204 L114.559298,4.44530204 L114.559298,25.0467306 C114.559298,32.7148531 119.421747,37.8642 126.664237,37.8642 C133.894604,37.8642 138.759747,32.7148531 138.759747,25.0467306 L138.759747,4.44530204 L133.932318,4.44530204 L133.932318,23.6930571 Z" id="Fill-3" fill="#005A84"></path><polygon id="Fill-5" fill="#005A84" points="152.463233 19.2352286 167.251273 4.44584082 160.84658 4.44584082 147.91058 17.663351 147.91058 4.44584082 143.087192 4.44584082 143.087192 37.1872286 147.91058 37.1872286 147.91058 23.6235551 149.052784 22.5379224 160.905845 37.1872286 167.379233 37.1872286"></polygon><polygon id="Fill-7" fill="#005A84" points="187.169265 32.7059633 174.008327 32.7059633 174.008327 21.4953918 186.785388 21.4953918 186.785388 17.0087388 174.008327 17.0087388 174.008327 8.92710612 187.169265 8.92710612 187.169265 4.44449388 169.187633 4.44449388 169.187633 37.1872286 187.169265 37.1872286"></polygon><polygon id="Fill-9" fill="#005A84" points="86.8052204 78.9603796 104.7882 78.9603796 104.7882 74.4764204 91.6272612 74.4764204 91.6272612 63.265849 104.401629 63.265849 104.401629 58.7818898 91.6272612 58.7818898 91.6272612 50.704298 104.7882 50.704298 104.7882 46.214951 86.8052204 46.214951"></polygon><polygon id="Fill-11" fill="#005A84" points="141.598286 78.9603796 159.581265 78.9603796 159.581265 74.4764204 146.420327 74.4764204 146.420327 63.265849 159.202776 63.265849 159.202776 58.7818898 146.420327 58.7818898 146.420327 50.704298 159.581265 50.704298 159.581265 46.214951 141.598286 46.214951"></polygon><polygon id="Fill-13" fill="#005A84" points="141.598286 78.9603796 159.581265 78.9603796 159.581265 74.4764204 146.420327 74.4764204 146.420327 63.265849 159.202776 63.265849 159.202776 58.7818898 146.420327 58.7818898 146.420327 50.704298 159.581265 50.704298 159.581265 46.214951 141.598286 46.214951"></polygon><polygon id="Fill-15" fill="#005A84" points="132.57878 46.2168367 132.57878 69.1471224 132.573392 69.1444286 111.617718 46.2168367 108.63829 46.2168367 108.630208 46.2168367 108.630208 78.9622653 108.63829 78.9622653 113.457637 78.9622653 113.457637 55.8205102 134.341922 78.9622653 137.392739 78.9622653 137.391392 46.2168367"></polygon><path d="M177.519661,55.9018653 C177.519661,59.6544367 175.039947,61.3179061 169.481131,61.3179061 L168.633906,61.3179061 L168.633906,50.6151306 L169.268314,50.6151306 C174.897171,50.6151306 177.519661,52.2961102 177.519661,55.9018653 M182.088478,55.7375388 C182.088478,52.4065592 180.406151,49.3476612 177.683988,47.7501918 C174.969906,46.2173755 171.695498,46.2173755 169.062233,46.2173755 L163.813212,46.2173755 L163.813212,78.9614571 L168.633906,78.9614571 L168.633906,65.4651306 L169.642763,65.4651306 L179.030927,78.9614571 L184.90762,78.9614571 L174.75709,64.972151 C179.110396,64.1276204 182.088478,60.4289265 182.088478,55.7375388" id="Fill-17" fill="#005A84"></path><path d="M203.207535,66.5208612 L211.423861,66.5208612 C210.983412,71.4210245 205.799045,75.1547388 201.426882,75.1547388 C195.05182,75.1547388 189.45529,69.2618816 189.45529,62.544698 C189.45529,55.5231061 194.865943,50.0222082 201.769004,50.0222082 C205.478473,50.0222082 209.185249,51.9510245 211.452147,55.0543714 L211.735004,55.4422898 L215.160269,52.1773102 L214.91378,51.8782898 C211.757902,47.9048204 206.78231,45.536902 201.596596,45.536902 C192.242106,45.536902 184.631902,53.2279224 184.631902,62.676698 C184.631902,71.870902 192.207086,79.6346571 201.173657,79.6346571 C210.169861,79.6346571 216.697127,72.9444122 216.697127,63.7273102 L216.697127,62.0409429 L203.207535,62.0422898 L203.207535,66.5208612 Z" id="Fill-19" fill="#005A84"></path><polygon id="Fill-21" fill="#005A84" points="236.89811 46.2168367 229.316192 59.411449 221.73562 46.2168367 216.183539 46.2168367 226.906518 64.7763061 226.906518 78.9622653 231.727212 78.9622653 231.727212 64.7763061 242.447498 46.2168367"></polygon><path d="M48.7548735,69.981551 C48.612098,70.1337551 45.6030367,73.3098367 41.9501388,73.5334286 C37.9605061,73.7637551 34.1702204,71.3513878 32.9997306,62.5437551 L17.0937306,57.8537143 C24.0627918,82.5956327 43.4250367,81.7389796 49.9159347,70.839551 C50.3617714,70.1431837 50.2418939,69.7673878 49.9051592,69.585551 C49.5387918,69.387551 49.1549143,69.5437959 48.7548735,69.981551" id="Fill-23" fill="#005A84"></path><path d="M48.7377673,4.97141633 C42.3492367,-7.9618898 19.5967469,4.80170204 15.6946653,37.8744367 C15.4374,40.0591714 16.5055224,41.1811714 17.4362571,41.6674163 C19.5240122,42.7557429 20.6096449,43.1800286 23.9204204,43.8279061 C26.0647469,44.2373755 27.3928286,44.3936204 29.2394816,44.2683551 C30.8342571,44.1592531 32.2741347,43.0264776 32.4330735,41.3697429 C35.8138898,5.84288571 43.9116857,-2.07846122 47.6709918,5.53713061 C48.1127878,6.41398776 49.2172776,6.02202857 48.7377673,4.97141633" id="Fill-25" fill="#005A84"></path><path d="M44.8507714,16.1520857 C43.056649,16.1157184 41.670649,16.4713102 40.7816694,17.9381265 C39.9142408,19.3712694 39.359302,21.1317184 38.9713837,23.3905347 C38.6265673,25.3786163 38.304649,28.3755551 38.611751,29.3507388 C38.9269347,30.3218816 39.6637102,31.0640449 40.9621592,31.1421673 C48.2140776,31.589351 69.4903224,34.625351 72.4064449,40.8078 C74.4039551,45.0614327 68.4585673,46.1484122 64.0917918,47.2744531 C62.4256286,47.7054735 61.4221592,48.7978408 61.2335878,50.135351 C60.7365673,53.6050653 61.6322816,55.350698 62.4175469,56.5131061 C62.9536286,57.3226163 64.0163633,57.8088612 65.3740776,57.0033918 C68.6026898,55.0920857 71.2602,51.6978 71.369302,51.5496367 C85.5808531,31.6944122 55.7326898,16.3689429 44.8507714,16.1520857" id="Fill-27" fill="#54B948"></path><path d="M52.1571061,48.6358041 C16.476698,52.5648245 -11.6904857,36.2668653 9.63559592,32.3149469 C9.73526939,32.3028245 12.3523714,31.6859265 12.8695959,30.1463755 C13.3827796,28.6027837 13.5363306,28.1057633 14.1397592,25.9021714 C14.5209429,24.5053959 14.8361265,23.7093551 15.2011469,22.6358449 C15.7614735,20.9656408 14.714902,19.9648653 12.338902,21.1245796 C-7.13783265,30.6312735 -1.35811837,48.4000898 14.4576367,57.3181714 C31.6082082,66.9891918 47.4401265,63.4763755 48.9621673,63.0238041 C50.4855551,62.5806612 52.0304939,62.2075592 53.6697184,59.7453551 C54.5640857,58.1047837 55.9554735,56.0830286 55.5810245,51.5707837 C55.5810245,51.541151 55.5163714,48.2680898 52.1571061,48.6358041" id="Fill-29" fill="#27BCD7"></path></g></g></g></svg> 