<?xml version="1.0" encoding="UTF-8"?> <svg xmlns="http://www.w3.org/2000/svg" width="88" height="29" viewBox="0 0 88 29"><g fill="none" fill-rule="evenodd" opacity=".776"><g fill="#FFF"><g><g><path d="M32.939 3.221h.35c2.423 0 5.313.745 5.313 4.289 0 3.547-2.89 4.29-5.312 4.29h-.351V3.222zm.794-1.617h-2.535v11.814h2.49c4.104 0 6.655-2.286 6.655-5.968 0-3.551-2.596-5.846-6.61-5.846zM48.325 8.549c0 2.333-.857 3.465-2.622 3.465-1.769 0-2.627-1.132-2.627-3.465V1.604h-1.74v7.434c0 2.766 1.753 4.624 4.367 4.624 2.61 0 4.364-1.858 4.364-4.624V1.604h-1.742v6.945zM55.011 6.941L60.348 1.604 58.037 1.604 53.369 6.373 53.369 1.604 51.628 1.604 51.628 13.418 53.369 13.418 53.369 8.524 53.781 8.132 58.058 13.418 60.394 13.418zM67.534 11.801L62.786 11.801 62.786 7.756 67.395 7.756 67.395 6.137 62.786 6.137 62.786 3.221 67.534 3.221 67.534 1.604 61.046 1.604 61.046 13.418 67.534 13.418zM31.321 28.49L37.81 28.49 37.81 26.873 33.061 26.873 33.061 22.827 37.67 22.827 37.67 21.21 33.061 21.21 33.061 18.295 37.81 18.295 37.81 16.676 31.321 16.676zM51.092 28.49L57.58 28.49 57.58 26.873 52.831 26.873 52.831 22.827 57.444 22.827 57.444 21.21 52.831 21.21 52.831 18.295 57.58 18.295 57.58 16.676 51.092 16.676z" transform="translate(-239 -1319) translate(134 1311) translate(105 8)"></path><path d="M51.092 28.49L57.58 28.49 57.58 26.873 52.831 26.873 52.831 22.827 57.444 22.827 57.444 21.21 52.831 21.21 52.831 18.295 57.58 18.295 57.58 16.676 51.092 16.676zM47.837 16.676L47.837 24.95 47.835 24.949 40.274 16.676 39.199 16.676 39.196 16.676 39.196 28.49 39.199 28.49 40.938 28.49 40.938 20.141 48.473 28.49 49.574 28.49 49.574 16.676zM64.053 20.17c0 1.355-.895 1.955-2.901 1.955h-.305v-3.862h.228c2.031 0 2.978.607 2.978 1.908m1.648-.06c0-1.202-.607-2.306-1.589-2.881-.98-.554-2.161-.554-3.111-.554h-1.894V28.49h1.74v-4.869h.363l3.388 4.87h2.12l-3.662-5.048c1.57-.304 2.645-1.639 2.645-3.332M73.321 24.002h2.964c-.158 1.768-2.03 3.115-3.606 3.115-2.3 0-4.32-2.126-4.32-4.55 0-2.533 1.952-4.518 4.443-4.518 1.338 0 2.676.696 3.494 1.816l.102.14 1.236-1.179-.089-.108c-1.14-1.433-2.934-2.287-4.805-2.287-3.375 0-6.121 2.774-6.121 6.184 0 3.317 2.733 6.119 5.968 6.119 3.246 0 5.601-2.415 5.601-5.74v-.609l-4.867.001v1.616zM85.477 16.676L82.742 21.436 80.006 16.676 78.003 16.676 81.872 23.372 81.872 28.49 83.612 28.49 83.612 23.372 87.48 16.676zM17.591 25.25c-.051.056-1.136 1.201-2.455 1.282-1.439.083-2.807-.788-3.23-3.965l-5.738-1.692c2.514 8.927 9.5 8.618 11.843 4.685.16-.251.117-.387-.004-.452-.133-.071-.27-.015-.416.142M17.586 1.794C15.28-2.872 7.07 1.733 5.663 13.666c-.093.789.293 1.193.629 1.368.752.393 1.144.546 2.339.78.774.147 1.253.204 1.92.16.575-.04 1.094-.45 1.15-1.047 1.221-12.819 4.143-15.677 5.5-12.93.159.317.557.176.385-.203" transform="translate(-239 -1319) translate(134 1311) translate(105 8)"></path><path d="M16.183 5.828c-.647-.013-1.148.115-1.469.644-.312.517-.512 1.153-.653 1.968-.123.717-.24 1.798-.129 2.15.114.35.38.618.848.646 2.616.162 10.293 1.258 11.345 3.489.721 1.534-1.424 1.926-3 2.333-.6.155-.963.549-1.031 1.032-.18 1.251.144 1.882.427 2.302.194.291.578.467 1.067.176 1.165-.69 2.124-1.914 2.164-1.968 5.127-7.164-5.643-12.694-9.57-12.772M18.82 17.549c-12.875 1.417-23.038-4.463-15.343-5.89.036-.004.98-.226 1.167-.782.185-.556.24-.736.458-1.531.138-.504.251-.792.383-1.179.202-.603-.176-.964-1.033-.545-7.028 3.43-4.942 9.842.765 13.06 6.188 3.49 11.9 2.221 12.45 2.058.55-.16 1.107-.295 1.698-1.183.322-.592.825-1.32.69-2.95 0-.01-.024-1.191-1.236-1.058" transform="translate(-239 -1319) translate(134 1311) translate(105 8)"></path></g></g></g></g></svg> 