<?xml version="1.0" encoding="UTF-8"?> <svg xmlns="http://www.w3.org/2000/svg" width="82" height="40" viewBox="0 0 82 40"><g fill="none" fill-rule="evenodd" opacity=".776"><g fill="#FEFEFE"><g><g><path d="M0.147 30.169L0.147 38.405 7.496 38.405 7.496 37.344 1.35 37.344 1.35 34.662 5.331 34.662 5.331 33.581 1.35 33.581 1.35 31.247 7.286 31.247 7.286 30.169z" transform="translate(-793 -1313) translate(134 1311) translate(659 2)"></path><g><path d="M20.76 35.123c0 1.472-.974 2.444-2.421 2.444-1.407 0-2.283-.983-2.283-2.444V30.19h-1.19v4.989c0 2.245 1.621 3.47 3.464 3.47 2.723 0 3.61-1.861 3.61-3.47V30.19h-1.18v4.933zM28.571 38.403L29.754 38.403 29.754 30.166 28.571 30.166zM43.869 30.17L43.869 36.622 38.024 30.17 36.855 30.17 36.855 38.404 38.039 38.404 38.039 31.899 43.892 38.404 45.047 38.404 45.047 30.17zM52.218 38.403L53.398 38.403 53.398 30.166 52.218 30.166zM66.865 30.158L64.143 33.118 61.495 30.158 59.952 30.158 63.26 33.938 59.123 38.402 60.633 38.402 64.027 34.737 67.263 38.402 68.901 38.402 64.894 33.936 68.325 30.158zM7.642 34.28c0 1.165-.377 1.923-1.064 2.57l-.64-.742-1.37-.002 1.122 1.289c-.275.132-.769.24-1.153.242-1.765.011-3.166-1.413-3.166-3.347l-.002-.03c0-1.97 1.315-3.362 3.087-3.37 1.774-.015 3.186 1.4 3.186 3.358v.033zm-3.158-4.445C2.029 29.85.138 31.707.138 34.3v.032c0 2.574 1.937 4.388 4.373 4.372.626-.005 1.366-.168 1.923-.453l.67.773 1.374-.004-1.175-1.346c.962-.734 1.568-1.942 1.568-3.437v-.031c0-2.56-1.943-4.39-4.387-4.371zM29.162-.001L25.807 1.168 25.807 18.77 23.57 17.992 23.57 1.951 16.86 4.294 16.86 15.648 14.624 14.867 14.624 5.074 12.385 5.857 12.385 16.457 19.096 18.798 19.096 5.881 21.334 5.101 21.334 19.58 28.045 21.922 28.045 2.758 29.162 2.367 30.28 2.758 30.28 21.922 36.993 19.58 36.993 5.101 39.227 5.881 39.227 18.798 45.937 16.457 45.937 5.857 43.7 5.074 43.7 14.867 41.465 15.648 41.465 4.294 34.754 1.951 34.754 17.992 32.516 18.77 32.516 1.168zM49.896 13.618v-.58h.441c.22 0 .36.106.36.29 0 .174-.128.29-.36.29h-.44zm-.509 1.076h.51v-.66h.324l.452.66h.614l-.533-.752c.279-.093.463-.312.463-.648 0-.474-.36-.696-.845-.696h-.985v2.096zm.834.8c-1.018 0-1.782-.81-1.782-1.796v-.01c0-.985.774-1.807 1.782-1.807 1.019 0 1.783.81 1.783 1.794v.013c0 .982-.776 1.805-1.783 1.805zm0 .22c1.124 0 2.015-.928 2.015-2.026v-.013c0-1.1-.88-2.016-2.015-2.016-1.123 0-2.014.928-2.014 2.029v.01c0 1.1.879 2.017 2.014 2.017z" transform="translate(-793 -1313) translate(134 1311) translate(659 2) translate(12)"></path></g></g></g></g></g></svg> 