<?xml version="1.0" encoding="UTF-8"?> <svg xmlns="http://www.w3.org/2000/svg" xmlns:xlink="http://www.w3.org/1999/xlink" width="400px" height="46px" viewBox="0 0 400 46" version="1.1"><title>ISP</title><g id="Homepage-Update-11.20" stroke="none" stroke-width="1" fill="none" fill-rule="evenodd"><g id="Artboard" transform="translate(-897.000000, -1610.000000)" fill-rule="nonzero"><g id="ISP" transform="translate(897.000000, 1610.000000)"><path d="M334.562637,5.89450549 C323.010989,5.89450549 318.659341,15.2307692 318.659341,22.4465934 C318.659341,29.9235165 323.12967,39.0065934 334.174945,39.0065934 C343.954286,39.0065934 350.117802,31.3635165 350.117802,21.687033 C350.117802,12.0105495 344.144176,5.86285714 334.562637,5.86285714 L334.562637,5.89450549 Z M335.686154,36.7516484 C328.668132,36.7516484 324.458901,29.8523077 324.458901,21.1569231 C324.458901,10.7446154 329.253626,8.07032161 333.454945,8.07032161 C339.428571,8.06241758 344.175824,13.8778022 344.175824,23.2378022 C344.175824,35.3274725 338.24967,36.7437363 335.686154,36.7437363 L335.686154,36.7516484 Z" id="Shape" fill="#006937"></path><path d="M214.211868,39.0778022 C216.87189,39.1740584 219.511225,38.5769362 221.870769,37.3450549 C224.614076,35.9336495 226.301206,33.070455 226.206593,29.9868132 C226.087912,25.9674725 223.832967,23.1349451 217.930549,19.2026374 L216.553846,18.3164835 C212.447473,15.6501099 211.284396,14.1705495 211.229011,12.2241758 C211.14989,9.6843956 213.278242,7.86461538 216.862418,7.86461538 C220.027253,7.86461538 221.459341,9.13846154 222.210989,9.93758242 C222.951837,10.697039 223.424168,11.6778201 223.556044,12.7305495 C223.556044,13.2369231 223.722198,13.5217582 224.062418,13.5217582 C224.402637,13.5217582 224.584615,13.1894505 224.552967,12.2558242 C224.458022,8.95648352 224.616264,7.73010989 224.60044,7.18417582 C224.60044,6.88351648 224.347253,6.75692308 223.904176,6.66989011 C221.785718,6.17465766 219.61546,5.93558391 217.44,5.9578022 C210.698901,5.9578022 206.363077,9.2967033 206.481758,13.949011 C206.584615,17.3749451 208.515165,20.3340659 213.958681,23.9736264 L216.229451,25.4927473 C220.335824,28.1986813 221.119121,30.1925275 221.182418,32.2575824 C221.253626,34.5046154 219.196484,37.083956 214.852747,37.083956 C211.846154,37.083956 208.95033,35.9367033 207.787253,32.8114286 C207.522981,32.1071363 207.357885,31.3695296 207.296703,30.6197802 C207.296703,30.2874725 207.225495,29.9076923 206.79033,29.9076923 C206.355165,29.9076923 206.276044,30.3665934 206.244396,30.9995604 C206.212747,31.6325275 206.094066,34.2197802 206.165275,36.538022 C206.165275,37.4637363 206.347253,37.6773626 207.130549,37.9701099 C209.413142,38.7842211 211.829581,39.1574267 214.251429,39.0698901 L214.211868,39.0778022 Z" id="Path" fill="#006937"></path><path d="M319.86989,37.3608791 C319.301267,37.3642034 318.733833,37.3085207 318.176703,37.1947253 C317.385495,36.989011 316.594286,36.0632967 316.246154,32.312967 C315.652747,25.9832967 314.545055,8.97230769 314.323516,6.6778022 C314.319695,6.36691691 314.134152,6.08708571 313.849271,5.96255711 C313.564391,5.83802851 313.232983,5.8918874 313.002198,6.10021978 C312.497162,6.60647759 312.048801,7.16626562 311.665055,7.76967033 C304.18022,17.9841758 300.05011,23.5068132 292.438681,33.8004396 C291.109451,35.5885714 290.065055,37.5507692 287.501538,37.4320879 C286.417582,37.3767033 285.998242,36.3402198 285.87956,35.1771429 C285.665934,33.3810989 285.665934,30.0975824 285.665934,26.2681319 L285.665934,9.60527473 C285.665934,9.14637363 285.792527,8.89318681 285.998242,8.81406593 C286.53048,8.67921575 287.079632,8.62323424 287.628132,8.64791209 C288.585495,8.64791209 291.022418,8.76659341 292.525714,10.1353846 C294.851868,12.2241758 294.828132,15.0567033 294.828132,16.4650549 C294.828132,20.7217582 291.457582,23.4276923 289.123516,23.4276923 C288.245275,23.4276923 287.501538,23.5542857 287.501538,23.8865934 C287.501538,24.2189011 287.794286,24.2189011 288,24.2663736 C288.205714,24.3138462 289.985934,24.3692308 290.191648,24.3692308 C296.10989,24.3692308 300.342857,20.8167033 300.477363,14.2892308 C300.454917,12.4287553 299.705176,10.65096 298.388571,9.33626374 C297.193846,8.17318681 294.527473,6.89142857 289.321319,6.89142857 C287.406593,6.89142857 284.993407,7.01802198 283.284396,7.01802198 C282.271648,7.01802198 276.487912,6.77274725 276.218901,6.77274725 C274.810549,6.77274725 273.394286,6.89934066 272.571429,6.89934066 C271.748571,6.89934066 270,6.77274725 268.061538,6.77274725 C267.49978,6.77274725 267.088352,6.82021978 267.088352,7.15252747 C267.088352,7.48483516 267.238681,7.5243956 267.68967,7.5243956 C268.355786,7.48682469 269.02321,7.56991763 269.65978,7.76967033 C270.553846,8.18901099 270.886154,8.97230769 270.925714,11.5120879 L271.004835,27.6923077 C270.371868,27.0197802 251.936703,6.60659341 251.390769,6.18725275 C251.143504,5.95650261 250.782626,5.89505951 250.472931,6.03098135 C250.163235,6.16690318 249.964153,6.4741066 249.966593,6.81230769 L249.278242,27.6923077 C242.734945,19.6061538 232.378022,6.66989011 232.093187,6.25846154 C231.881936,5.96292124 231.505682,5.83510044 231.158122,5.94080176 C230.810562,6.04650308 230.56918,6.36216143 230.558242,6.72527473 C230.463297,7.91208791 228.659341,33.7608791 228.659341,33.7608791 C228.596044,35.818022 228.319121,37.2184615 226.467692,37.4637363 C226.042406,37.5157173 225.614385,37.5421384 225.185934,37.5428571 C224.853626,37.5428571 224.711209,37.6298901 224.806154,37.8751648 C224.901099,38.1204396 225.217582,38.2865934 225.771429,38.2865934 C227.963077,38.2865934 230.241758,38.1679121 230.708571,38.1679121 C232.014066,38.1679121 233.873407,38.2865934 235.234286,38.2865934 C235.693187,38.2865934 235.914725,38.2074725 235.788132,37.8751648 C235.661538,37.5428571 235.542857,37.5428571 235.036484,37.5428571 L234.403516,37.5428571 C233.09011,37.5428571 232.512527,37.0127473 232.227692,36.269011 C231.980656,35.4570831 231.876253,34.6084734 231.919121,33.7608791 L231.974505,27.8742857 C231.974505,27.6210989 232.014066,27.541978 232.227692,27.541978 L241.207912,27.541978 C241.4217,27.5400141 241.621661,27.6474558 241.738022,27.8268132 L248.43956,36.0079121 C248.671017,36.2846633 248.639412,36.6955304 248.368352,36.9336264 C248.238789,37.0442017 248.091724,37.1324404 247.933187,37.1947253 C247.334641,37.315571 246.722578,37.3554881 246.113407,37.3134066 C245.733626,37.3134066 245.725714,37.5586813 245.725714,37.803956 C245.725714,38.1758242 246.065934,38.2628571 246.516923,38.2628571 C248.455385,38.2628571 250.203956,38.2153846 250.536264,38.2153846 L254.53978,38.2153846 C255.821538,38.2153846 257.04,38.2945055 257.791648,38.2945055 C259.429451,38.2945055 259.698462,38.2153846 259.57978,37.8830769 C259.461099,37.5507692 259.57978,37.4479121 259.255385,37.4479121 C258.838963,37.4694451 258.421499,37.437537 258.013187,37.352967 C257.047912,37.1472527 255.900659,35.9525275 252.901978,32.2496703 L252.269011,31.4584615 L252.023736,16.3463736 C252.696264,17.1375824 269.351209,35.2641758 271.701099,37.7564835 C272.112527,38.2153846 272.555604,38.6742857 272.967033,38.6742857 C273.378462,38.6742857 273.44967,38.3024176 273.44967,37.3846154 L273.861099,11.1402198 C273.900659,8.81406593 274.16967,7.86461538 275.237802,7.61142857 C276.002779,7.49783749 276.781589,7.51657174 277.54022,7.66681319 C278.909011,7.95164835 279.249231,8.62417582 279.328352,10.0404396 C279.407473,11.4567033 279.415385,12.5406593 279.415385,18.8703297 L279.415385,26.1969231 C279.415385,30.0342857 279.415385,33.3178022 279.201758,35.0742857 C279.035604,36.2769231 278.82989,37.1947253 277.991209,37.3608791 C277.500253,37.4703632 276.998838,37.526076 276.495824,37.527033 C275.997363,37.527033 275.831209,37.6536264 275.831209,37.8672527 C275.831209,38.0808791 276.123956,38.2786813 276.661978,38.2786813 C278.331429,38.2786813 282.152967,38.0887912 282.342857,38.0967033 C286.164396,38.3024176 289.519121,38.247033 291.362637,38.1837363 C292.88967,38.1283516 295.136703,38.3815385 295.706374,38.3815385 C296.276044,38.3815385 296.552967,38.3103297 296.552967,37.9621978 C296.552967,37.7643956 296.434286,37.621978 296.038681,37.621978 L295.405714,37.621978 C294.123956,37.621978 294.274286,37.0523077 294.725275,36.3956044 L300.659341,27.8426374 C300.825495,27.5894505 300.936264,27.5024176 301.141978,27.5024176 L309.520879,27.5024176 C309.726593,27.5024176 309.821538,27.5894505 309.837363,27.8030769 L310.177582,36.5063736 C310.192353,36.9448418 309.909581,37.3381236 309.489231,37.4637363 C309.054066,37.5032967 308.777143,37.5428571 308.792967,37.9147253 C308.808791,38.2865934 309.156923,38.3182418 309.924396,38.3024176 C311.435604,38.2628571 312.598681,38.2312088 314.29978,38.2549451 C315.818901,38.2549451 317.361758,38.3973626 318.176703,38.3973626 C319.759121,38.3973626 320.257582,38.1916484 320.368352,37.8593407 C320.479121,37.527033 320.194286,37.4083516 319.861978,37.4083516 L319.86989,37.3608791 Z M239.538462,25.4927473 L232.314725,25.4927473 C232.140659,25.4927473 232.053626,25.3740659 232.02989,25.2079121 L232.338462,16.8448352 C232.338462,16.6945055 232.338462,16.4967033 232.449231,16.4808791 C232.56,16.4650549 232.59956,16.5995604 232.726154,16.7578022 L239.657143,25.2474725 C239.744176,25.3740659 239.752088,25.4927473 239.538462,25.4927473 Z M309.418022,25.4927473 L302.629451,25.4927473 C302.558242,25.4927473 302.407912,25.4057143 302.542418,25.2079121 C303.191209,24.2584615 307.226374,18.450989 308.967033,15.9665934 C309.085714,15.8004396 309.236044,15.8558242 309.243956,16.021978 C309.299341,17.2641758 309.710788,25.2791209 309.710788,25.2791209 C309.711686,25.3537222 309.679654,25.4249305 309.623224,25.4737348 C309.566794,25.5225392 309.491712,25.5439707 309.418022,25.5323077 L309.418022,25.4927473 Z" id="Shape" fill="#006937"></path><path d="M383.736264,5.89450549 C372.184615,5.89450549 367.832967,15.2307692 367.832967,22.4465934 C367.811577,26.1697235 368.914641,29.8125914 370.997802,32.8984615 C370.817807,33.6471849 370.474693,34.346922 369.992967,34.9476923 C368.948571,36.0791209 366.337582,36.1107692 364.13011,36.1107692 C360.878242,36.1107692 360.656703,35.8259341 359.952527,35.2008791 C359.074286,34.4096703 359.074286,31.5771429 359.074286,26.2443956 L359.074286,18.9098901 C359.074286,12.5802198 359.074286,11.4171429 359.153407,10.08 C359.24044,8.62417582 359.572747,7.92 360.735824,7.70637363 C361.278139,7.62604303 361.825409,7.58374201 362.373626,7.57978022 C362.872088,7.57978022 363.125275,7.50065934 363.125275,7.20791209 C363.125275,6.91516484 362.832527,6.83604396 362.247033,6.83604396 C360.625055,6.83604396 356.653187,6.96263736 355.648352,6.96263736 C354.524835,6.96263736 351.803077,6.83604396 349.840879,6.83604396 C349.215824,6.83604396 348.930989,6.91516484 348.930989,7.20791209 C348.930989,7.50065934 349.176264,7.57978022 349.635165,7.57978022 C350.09727,7.57270316 350.558803,7.61514303 351.011868,7.70637363 C352.388571,7.99912088 352.720879,8.66373626 352.8,10.08 C352.879121,11.4962637 352.887033,12.5881319 352.887033,18.9098901 L352.887033,26.2443956 C352.887033,30.0817582 352.887033,33.3652747 352.673407,35.1217582 C352.507253,36.3243956 352.301538,37.2421978 351.470769,37.4083516 C350.97699,37.516946 350.473049,37.5726447 349.967473,37.5745055 C349.469011,37.5745055 349.302857,37.7010989 349.302857,37.9068132 C349.302857,38.1125275 349.595604,38.3261538 350.133626,38.3261538 C351.803077,38.3261538 354.524835,38.1995604 355.482198,38.1995604 C358.860659,38.1995604 362.666374,38.4527473 368.663736,38.4527473 C370.831648,38.4527473 371.037363,38.247033 371.290549,37.3213187 C371.536009,36.1943528 371.707801,35.0525951 371.804835,33.9032967 C374.305055,36.9098901 378.094945,39.0065934 383.403956,39.0065934 C393.191209,39.0065934 399.346813,31.3635165 399.346813,21.687033 C399.346813,12.0105495 393.381099,5.86285714 383.791648,5.86285714 L383.736264,5.89450549 Z M384.867692,36.7516484 C377.841758,36.7516484 373.64044,29.8523077 373.64044,21.1569231 C373.64044,10.7446154 378.427253,8.07032967 382.636484,8.07032967 C388.633846,8.07032967 393.349451,13.8857143 393.349451,23.2457143 C393.349451,35.3353846 387.431209,36.7516484 384.867692,36.7516484 Z" id="Shape" fill="#006937"></path><path d="M133.231648,37.9226374 C132.660388,37.9263958 132.090286,37.8707114 131.530549,37.7564835 C130.739341,37.5507692 129.948132,36.632967 129.6,32.8747253 C129.014505,26.5450549 127.906813,9.54197802 127.677363,7.23956044 C127.673541,6.92867515 127.487998,6.64884395 127.203117,6.52431535 C126.918237,6.39978675 126.586829,6.45364565 126.356044,6.66197802 C125.851265,7.17341194 125.400533,7.73550155 125.010989,8.33934066 C119.243077,16.203956 115.461099,21.2914286 110.555604,27.9217582 C109.811868,24.8914286 107.446154,22.3832967 102.556484,19.1551648 L101.171868,18.269011 C97.0734066,15.6026374 95.9103297,14.1230769 95.8549451,12.1767033 C95.7758242,9.63692308 97.9041758,7.81714286 101.488352,7.81714286 C104.653187,7.81714286 106.085275,9.09098901 106.836923,9.89010989 C107.571283,10.6446104 108.042946,11.615681 108.181978,12.6593407 C108.181978,13.1657143 108.356044,13.4505495 108.696264,13.4505495 C109.036484,13.4505495 109.218462,13.1103297 109.186813,12.1846154 C109.091868,8.88527473 109.25011,7.6589011 109.226374,7.10505495 C109.226374,6.81230769 108.973187,6.68571429 108.538022,6.59868132 C106.417676,6.09726647 104.244687,5.85287168 102.065934,5.87076923 C95.3327473,5.87076923 90.989011,9.21758242 91.1156044,13.8698901 C91.2184615,17.2958242 93.149011,20.2549451 98.5846154,23.8945055 L100.863297,25.4136264 C104.961758,28.1195604 105.752967,30.1054945 105.816264,32.1784615 C105.87956,34.4254945 103.83033,37.0048352 99.4865934,37.0048352 C96.48,37.0048352 93.5920879,35.8575824 92.429011,32.7323077 C92.1648693,32.0384879 91.9971521,31.3117134 91.9305495,30.5723077 C91.9305495,30.24 91.8593407,29.8523077 91.4241758,29.8523077 C90.989011,29.8523077 90.9494505,30.327033 90.8703297,30.9520879 C90.8228571,31.3556044 90.6804396,32.3446154 90.632967,32.6215385 C90.3323077,34.3463736 89.8417582,35.2325275 88.7340659,35.7389011 C87.4591654,36.1558734 86.1168442,36.3276905 84.778022,36.2452747 C80.4896703,36.2452747 77.3802198,35.6123077 77.2931868,32.7085714 C77.2931868,31.4901099 77.2931868,27.6210989 77.2931868,26.189011 L77.2931868,22.8659341 C77.2931868,22.6127473 77.2931868,22.4465934 77.5463736,22.4465934 C78.5591209,22.4465934 84.5406593,22.4861538 85.3397802,22.5731868 C86.9221978,22.7393407 87.483956,23.3643956 87.7134066,24.210989 C87.8033659,24.7105318 87.8615049,25.2152842 87.8874725,25.7221978 C87.8874725,25.9358242 87.9665934,26.101978 88.2593407,26.101978 C88.5520879,26.101978 88.6391209,25.6430769 88.6391209,25.3107692 C88.6391209,24.9784615 88.7261538,23.3327473 88.8052747,22.4940659 C88.8666415,21.4656698 88.9801944,20.4410536 89.1454945,19.4241758 C89.1454945,19.170989 89.0189011,19.083956 88.8527473,19.083956 C88.6865934,19.083956 88.472967,19.2975824 88.1802198,19.6298901 C87.8874725,19.9621978 87.1674725,20.1758242 86.1547253,20.2628571 C85.141978,20.3498901 78.5274725,20.3498901 77.6017582,20.3498901 C77.3485714,20.3498901 77.309011,20.1758242 77.309011,19.8830769 L77.309011,9.23340659 C77.309011,8.94065934 77.396044,8.81406593 77.6017582,8.81406593 C78.4483516,8.81406593 84.7226374,8.9010989 85.4030769,8.98021978 C87.4997802,9.23340659 87.927033,9.77142857 88.2197802,10.4914286 C88.3914226,10.9793421 88.4770893,11.4933418 88.472967,12.0105495 C88.472967,12.3903297 88.5520879,12.603956 88.8527473,12.603956 C89.1534066,12.603956 89.2325275,12.3507692 89.2720879,12.1371429 C89.3512088,11.6307692 89.4382418,9.76351648 89.4778022,9.36 C89.5438396,8.44220782 89.6573985,7.52845483 89.818022,6.62241758 C89.818022,6.4167033 89.818022,6.24263736 89.5648352,6.24263736 C89.3362461,6.28202972 89.1113044,6.34024992 88.8923077,6.4167033 C88.5520879,6.49582418 87.8874725,6.58285714 87.0804396,6.66989011 C86.2734066,6.75692308 76.0905495,6.70945055 74.7454945,6.70945055 C74.1520879,6.70945055 73.1630769,6.66989011 72.0949451,6.62241758 C71.2246154,6.62241758 70.2514286,6.62241758 69.2940659,6.62241758 C69.2940659,6.40879121 69.1674725,6.31384615 68.9934066,6.31384615 C67.6788525,6.60333889 66.3358995,6.74400393 64.9898901,6.73318681 L50.7876923,6.73318681 C49.410989,6.73318681 47.8285714,6.64615385 46.6259341,6.51956044 C46.0271557,6.43633314 45.4329854,6.32278059 44.8457143,6.17934066 C44.6162637,6.17934066 44.4738462,6.26637363 44.3551648,6.71736264 L43.9437363,6.71736264 C43.381978,6.71736264 42.8281319,6.71736264 42.3059341,6.76483516 C41.403956,6.76483516 40.6364835,6.83604396 40.1459341,6.84395604 C39.2993407,6.84395604 37.621978,6.71736264 35.818022,6.71736264 C35.2641758,6.71736264 34.8527473,6.75692308 34.8527473,7.09714286 C34.8527473,7.43736264 35.0030769,7.46901099 35.4461538,7.46901099 C36.11227,7.43144007 36.7796939,7.51453302 37.4162637,7.71428571 C38.2074725,8.08615385 38.5635165,8.75868132 38.6505495,10.712967 L38.7692308,27.6131868 C38.1362637,26.9485714 19.7802198,6.53538462 19.2421978,6.11604396 C18.996868,5.88289164 18.6354424,5.8200458 18.3258096,5.95669941 C18.0161767,6.09335302 17.8190247,6.40272192 17.8259341,6.7410989 L17.4857143,17.6914286 L16.9714286,32.1705495 C16.9318681,35.7784615 16.2197802,36.4984615 15.2624176,37.076044 C14.7112356,37.3409409 14.1094479,37.4839667 13.498022,37.4953846 C12.6240677,37.550755 11.7467714,37.5189497 10.8791209,37.4004396 C9.83144274,37.1974048 9.04806318,36.3201492 8.9643956,35.2562637 C8.79824176,33.4602198 8.79824176,30.1687912 8.79824176,26.1257143 L8.79824176,18.7832967 C8.79824176,12.4536264 8.79824176,11.2826374 8.88527473,9.94549451 C8.9643956,8.48175824 9.30461538,7.77758242 10.4202198,7.57186813 C10.830173,7.49716799 11.2457361,7.45746452 11.6624176,7.45318681 C12.0817582,7.45318681 12.327033,7.36615385 12.327033,7.03384615 C12.327033,6.70153846 11.9947253,6.70153846 11.4567033,6.70153846 C9.87428571,6.70153846 7.42945055,6.82021978 6.39296703,6.82021978 C5.19032967,6.82021978 2.57934066,6.70153846 1.00483516,6.70153846 C0.332307692,6.70153846 0,6.78065934 0,7.03384615 C0,7.28703297 0.253186813,7.45318681 0.664615385,7.45318681 C1.17075811,7.44405019 1.67598157,7.49989068 2.16791209,7.61934066 C3.0778022,7.82505495 3.48923077,8.53714286 3.56835165,9.99296703 C3.64747253,11.4487912 3.65538462,12.4931868 3.65538462,18.8307692 L3.65538462,26.1098901 C3.65538462,30.152967 3.65538462,33.4443956 3.44967033,35.2008791 C3.32307692,36.3956044 3.0778022,37.1314286 2.23912088,37.3054945 C1.75038874,37.4113237 1.25170685,37.4643749 0.751648352,37.4637363 C0.253186813,37.4637363 0.087032967,37.5903297 0.087032967,37.803956 C0.087032967,38.0175824 0.371868132,38.2153846 0.878241758,38.2153846 C2.53978022,38.2153846 5.15076923,38.0967033 6.10813187,38.0967033 C7.22373626,38.0967033 13.4742857,38.2153846 13.6720879,38.2153846 C15.8241758,38.2153846 18,38.1520879 18.3718681,38.1520879 C19.1630769,38.1520879 20.8087912,38.2786813 23.4989011,38.2786813 C24.0764835,38.2786813 24.4483516,38.1916484 24.4483516,37.8593407 C24.4483516,37.527033 24.2030769,37.527033 23.7520879,37.527033 C23.0233332,37.551831 22.295651,37.4528448 21.6,37.2342857 C20.7692308,36.9415385 20.2312088,35.8654945 20.1520879,32.6215385 L19.9938462,24.4404396 L19.9068132,16.2989011 C20.5714286,17.0901099 37.1868132,35.2167033 39.4892308,37.709011 C39.9006593,38.1679121 40.3437363,38.6268132 40.7472527,38.6268132 C41.1507692,38.6268132 41.2298901,38.2549451 41.2298901,37.3371429 L41.6413187,11.0769231 C41.6413187,10.7525275 41.6413187,10.4518681 41.6413187,10.1749451 C41.7679121,8.59252747 42.123956,8.00703297 42.8518681,7.66681319 C43.3193588,7.50394247 43.8129154,7.42883603 44.3076923,7.44527473 C44.3076923,8.64791209 44.3076923,11.0769231 44.3076923,11.607033 C44.3076923,12.1371429 44.3868132,12.2716484 44.6795604,12.2716484 C44.9723077,12.2716484 45.0593407,12.1054945 45.1384615,11.7731868 C45.2906976,11.245823 45.5314916,10.7481821 45.8505495,10.3015385 C46.4676923,9.38373626 47.4804396,9.17010989 49.8936264,9.08307692 L54.0632967,8.92483516 L54.0632967,26.1098901 C54.0632967,29.970989 54.0632967,33.2782418 53.8575824,35.0347253 C53.7389011,36.2531868 53.2404396,37.170989 52.4096703,37.3450549 C51.6227129,37.4500054 50.8299482,37.5054989 50.036044,37.5112088 C49.5375824,37.5112088 49.3635165,37.6378022 49.3635165,37.8435165 C49.3635165,38.0492308 49.6562637,38.2628571 50.2021978,38.2628571 C51.8637363,38.2628571 55.5745055,38.1362637 56.5318681,38.1362637 C57.7028571,38.1362637 60.3296703,38.2628571 63.0830769,38.2628571 C63.541978,38.2628571 63.8742857,38.1362637 63.8742857,37.8435165 C63.8742857,37.5507692 63.6606593,37.5112088 63.2017582,37.5112088 C62.4897059,37.4967365 61.7790783,37.44126 61.0734066,37.3450549 C59.8312088,37.170989 59.578022,36.2531868 59.490989,35.0821978 C59.2615385,33.2307692 59.2615385,29.9551648 59.2615385,26.1098901 L59.2615385,8.92483516 L63.3679121,9.04351648 C67.0786813,9.13054945 68.3446154,10.3015385 68.4237363,11.4171429 L68.4237363,11.876044 C68.4712088,12.509011 68.5582418,12.7147253 68.8905495,12.7147253 C69.2228571,12.7147253 69.2228571,12.4694505 69.2624176,12.0421978 C69.2624176,11.0294505 69.2624176,8.45010989 69.2624176,7.38989011 C69.5284786,7.40297926 69.7930622,7.43737513 70.0536264,7.49274725 C71.4382418,7.78549451 71.7784615,8.45802198 71.8654945,9.86637363 C71.9525275,11.2747253 71.9446154,12.3903297 71.9446154,18.7832967 L71.9446154,26.189011 C71.9446154,30.058022 71.9446154,33.3810989 71.730989,35.1454945 C71.5648352,36.363956 71.3591209,37.2896703 70.5125275,37.4637363 C70.0161149,37.5725925 69.5095239,37.628291 69.0013187,37.6298901 C68.4949451,37.6298901 68.3287912,37.7564835 68.3287912,37.9701099 C68.3287912,38.1837363 68.6215385,38.3894505 69.1674725,38.3894505 C70.0140659,38.3894505 71.1059341,38.341978 72.0712088,38.3024176 C73.0364835,38.2628571 74.0096703,38.3024176 74.4448352,38.3024176 C75.7107692,38.3024176 77.0083516,38.3024176 78.8202198,38.429011 C80.6320879,38.5556044 85.3872527,38.5556044 88.5362637,38.5556044 C90.1186813,38.5556044 90.5142857,38.5556044 90.807033,37.4558242 C90.8096454,37.4110271 90.8096454,37.3661158 90.807033,37.3213187 C90.9257143,37.6378022 91.170989,37.7881319 91.6615385,37.9701099 C93.9441313,38.7842211 96.3605703,39.1574267 98.7824176,39.0698901 C99.724143,39.0745041 100.665129,39.0163533 101.599121,38.8958242 C102.841319,38.8958242 103.893626,38.8958242 104.676923,38.8958242 C106.196044,38.8483516 108.450989,38.8958242 109.020659,38.8958242 C109.59033,38.8958242 109.859341,38.9512088 109.867253,38.5951648 C109.867253,38.3973626 109.740659,38.2628571 109.345055,38.2628571 L108.72,38.2628571 C107.43033,38.2628571 107.588571,37.6852747 108.03956,37.0285714 L113.965714,28.4756044 C114.131868,28.2303297 114.234725,28.1432967 114.448352,28.1432967 L122.827253,28.1432967 C123.032967,28.1432967 123.127912,28.2224176 123.143736,28.436044 L123.476044,37.1393407 C123.49657,37.5795364 123.211512,37.9759962 122.787692,38.0967033 C122.36044,38.1441758 122.075604,38.1837363 122.091429,38.5476923 C122.107253,38.9116484 122.463297,38.9512088 123.222857,38.9353846 C124.734066,38.9353846 125.897143,38.8641758 127.606154,38.8879121 C129.117363,38.8879121 130.668132,39.0382418 131.483077,39.0382418 C133.065495,39.0382418 133.556044,38.8325275 133.666813,38.4923077 C133.777582,38.1520879 133.500659,38.0413187 133.168352,38.0413187 L133.231648,37.9226374 Z M122.771868,26.0545055 L115.991209,26.0545055 C115.912088,26.0545055 115.761758,25.9595604 115.904176,25.7617582 C116.552967,24.8123077 120.588132,19.0127473 122.328791,16.5204396 C122.43956,16.3542857 122.597802,16.4096703 122.605714,16.5758242 C122.661099,17.818022 123.064615,25.832967 123.064615,25.832967 C123.064615,25.9595604 122.985495,26.0861538 122.771868,26.0861538 L122.771868,26.0545055 Z" id="Shape" fill="#006937"></path><path d="M187.92,12.6593407 L187.92,12.6593407 L187.92,12.6593407 L187.92,12.6593407 C187.631639,12.4802986 187.281048,12.4314457 186.954725,12.5248352 C185.207098,12.3875862 183.453308,12.3453262 181.701099,12.3982418 L181.574505,12.3982418 C180.68044,12.3982418 179.746813,12.3982418 178.821099,12.3982418 L171.312527,12.24 C169.556044,12.1925275 167.625495,12.24 165.774066,12.24 C164.373626,12.24 163.012747,12.2874725 161.628132,12.327033 C160.243516,12.3665934 156.738462,12.3745055 154.681319,12.3824176 L152.940659,12.3824176 C152.646099,12.4564677 152.428478,12.7056282 152.394725,13.0074725 C152.362627,13.1082885 152.379259,13.2182995 152.439724,13.3051216 C152.500189,13.3919438 152.597606,13.4456938 152.703297,13.4505495 C152.893187,13.4505495 154.143297,13.4505495 156.406154,13.4505495 L159.760879,13.4505495 C161.442492,13.3143369 163.129968,13.2641616 164.816703,13.3002198 L164.943297,13.3002198 C166.011429,13.3002198 167.119121,13.3002198 168.226813,13.3002198 L168.226813,13.3002198 C168.46144,13.351184 168.704274,13.351184 168.938901,13.3002198 L168.938901,13.3002198 L169.255385,13.2527473 C169.536207,13.311261 169.823511,13.3325428 170.10989,13.316044 C170.398216,13.2956751 170.687959,13.3116242 170.972308,13.3635165 L171.01978,13.3635165 C171.247534,13.3000862 171.48829,13.3000862 171.716044,13.3635165 L171.755604,13.3635165 C171.860805,13.3746521 171.966887,13.3746521 172.072088,13.3635165 C174.566935,13.319409 177.062418,13.4012714 179.549011,13.6087912 L180.949451,13.7591209 L180.949451,13.7591209 C182.207096,13.6773512 183.469321,13.6985206 184.723516,13.8224176 L184.723516,13.8224176 C185.657143,13.8857143 186.543297,13.9569231 187.421538,13.9331868 L187.421538,13.9331868 L187.476923,13.9331868 L187.476923,13.9331868 L187.943736,13.5613187 L187.943736,13.5613187 L187.943736,13.5613187 L187.943736,13.5613187 C188.095831,13.3040198 188.049873,12.9757487 187.832967,12.7701099 L187.92,12.6593407 Z" id="Path" fill="#CB9700"></path><path d="M175.498022,28.618022 L175.537582,28.618022 L175.537582,28.4835165 L175.537582,25.563956 L175.537582,25.563956 L175.537582,25.563956 C175.482198,25.1287912 175.474286,24.6461538 175.458462,24.123956 C175.461128,23.5552918 175.426769,22.9870572 175.355604,22.4228571 C175.322337,21.6241488 175.219085,20.829897 175.047033,20.0492308 L174.952088,19.5112088 L174.952088,19.4637363 L174.952088,19.4241758 C174.842865,19.3029836 174.773777,19.1509902 174.754286,18.989011 C174.719933,18.8392834 174.663961,18.6953559 174.588132,18.5617582 C174.358952,18.1985486 174.093886,17.8592649 173.796923,17.549011 L173.796923,17.549011 C173.734775,17.4753669 173.659696,17.4136953 173.575385,17.367033 C173.533935,17.337821 173.494301,17.306114 173.456703,17.2720879 L173.393407,17.2246154 L173.393407,17.2246154 L173.345934,17.1850549 C173.123708,17.0170794 172.871191,16.8935072 172.602198,16.8210989 L172.602198,16.8210989 C172.519592,16.7300497 172.400599,16.6807111 172.277802,16.6865934 L172.277802,16.6153846 L172.135385,16.6153846 L171.486593,16.5125275 L171.391648,16.5125275 L171.336264,16.5916484 C171.336264,16.5916484 171.336264,16.6312088 171.17011,16.5916484 C171.101623,16.5639448 171.029804,16.5453251 170.956484,16.5362637 L170.885275,16.5362637 L170.845714,16.5758242 L170.774505,16.5283516 L170.505495,16.4492308 L170.505495,16.5758242 C170.398947,16.5705836 170.292803,16.5923567 170.196923,16.6391209 L169.405714,16.6391209 L169.453187,16.7894505 L169.453187,16.7894505 C169.313215,16.763063 169.169552,16.8109506 169.073407,16.916044 L169.033846,16.916044 C168.932206,16.9337852 168.836841,16.9773806 168.756923,17.0426374 C168.717363,17.0426374 168.701538,17.0901099 168.661978,17.0901099 L168.598681,17.0901099 L168.551209,17.1375824 C168.446125,17.2232059 168.328771,17.2925517 168.203077,17.3432967 L167.981538,17.4382418 L168.036923,17.4857143 L167.926154,17.549011 L167.712527,17.549011 L167.712527,17.7151648 L167.712527,17.7151648 L167.593846,17.6676923 C167.593846,17.6676923 167.506813,17.7705495 167.506813,17.7705495 C167.357849,17.9578673 167.1994,18.1374426 167.032088,18.3085714 C166.819756,18.5256636 166.62404,18.758407 166.446593,19.0048352 L166.399121,19.076044 L166.399121,19.1551648 C166.31797,19.1962668 166.25979,19.2719 166.240879,19.3608791 C166.171931,19.4400386 166.132757,19.540771 166.13011,19.6457143 C166.13011,19.6457143 166.13011,19.7010989 166.13011,19.7169231 C166.061418,19.796925 166.019866,19.89665 166.011429,20.0017582 C166.011429,20.0650549 166.011429,20.1046154 165.963956,20.1362637 L165.861099,20.2628571 L165.908571,20.3024176 C165.894907,20.3729709 165.894907,20.4454907 165.908571,20.516044 C165.913064,20.5369037 165.913064,20.5584809 165.908571,20.5793407 L165.845275,20.5793407 L165.845275,20.6901099 C165.869136,20.8871925 165.869136,21.0864339 165.845275,21.2835165 C165.817091,21.4882655 165.817091,21.6959104 165.845275,21.9006593 C165.785006,22.0090706 165.768044,22.1362884 165.797802,22.2567033 C165.797802,22.2567033 165.797802,22.3279121 165.797802,22.3437363 L165.694945,22.4307692 L165.766154,22.5494505 C165.821538,22.6443956 165.766154,22.7947253 165.766154,22.9450549 C165.709322,23.0883226 165.695572,23.2450699 165.726593,23.396044 L165.726593,23.4356044 C165.708197,23.4730261 165.708197,23.516864 165.726593,23.5542857 C165.733213,23.6068253 165.733213,23.6599879 165.726593,23.7125275 L165.647473,23.8707692 L165.647473,23.9340659 L165.781978,24.029011 C165.769852,24.1156216 165.769852,24.2034993 165.781978,24.2901099 C165.781978,24.392967 165.781978,24.4404396 165.781978,24.48 L165.694945,24.6382418 L165.781978,24.7410989 L165.781978,24.7410989 C165.762315,24.8443861 165.788279,24.9511303 165.853187,25.0338462 C165.853187,25.0338462 165.853187,25.0338462 165.853187,25.0813187 L165.694945,25.1208791 L165.797802,25.3424176 C165.802492,25.3605813 165.802492,25.3796385 165.797802,25.3978022 C165.763441,25.4977896 165.763441,25.6063862 165.797802,25.7063736 C165.765925,25.8175402 165.765925,25.9354269 165.797802,26.0465934 C165.801483,26.0728386 165.801483,26.0994691 165.797802,26.1257143 C165.703888,26.2700219 165.703888,26.456132 165.797802,26.6004396 C165.743902,26.6938747 165.729655,26.8050006 165.758242,26.909011 L165.552527,26.9802198 L165.766154,27.1938462 C165.743129,27.2440807 165.743129,27.3018533 165.766154,27.3520879 C165.791496,27.3832386 165.824099,27.4076906 165.861099,27.4232967 L165.78989,27.4232967 L165.78989,27.4232967 L165.78989,27.4232967 L165.869011,27.6131868 L165.869011,27.6131868 C165.852098,27.7177882 165.874657,27.8249425 165.932308,27.9138462 C165.926679,27.9452442 165.926679,27.9773932 165.932308,28.0087912 L165.853187,28.0879121 L165.932308,28.1986813 C165.995604,28.2857143 165.932308,28.4043956 165.932308,28.5863736 C165.871351,28.7578199 165.871351,28.9450372 165.932308,29.1164835 L165.821538,29.2272527 L165.963956,29.3301099 C165.963956,29.3301099 165.963956,29.3301099 165.963956,29.3301099 C165.902913,29.4324692 165.902913,29.5600583 165.963956,29.6624176 L165.963956,29.6624176 C165.988075,29.7558309 165.988075,29.8538395 165.963956,29.9472527 C165.929575,30.1353968 165.945961,30.3293049 166.011429,30.509011 L166.011429,30.7068132 L166.011429,30.7068132 C165.985933,30.7675425 165.985933,30.835974 166.011429,30.8967033 L165.948132,30.8967033 L165.987692,31.0312088 C166.028802,31.1966674 166.044805,31.367366 166.035165,31.5375824 C165.990904,31.920746 166.108476,32.3050053 166.35956,32.5978022 L166.430769,32.6610989 L166.517802,32.6610989 C166.755165,32.5898901 166.763077,32.3525275 166.770989,32.2259341 C166.766082,32.2024514 166.766082,32.1782079 166.770989,32.1547253 L166.770989,32.0835165 C166.703982,31.7120082 166.703982,31.3315083 166.770989,30.96 L166.770989,30.6751648 L166.770989,30.6751648 L166.770989,30.6356044 C166.730971,30.5013808 166.730971,30.3583994 166.770989,30.2241758 C166.802195,30.0781318 166.802195,29.9271429 166.770989,29.7810989 C166.814448,29.0459164 166.814448,28.3088089 166.770989,27.5736264 C166.770989,27.272967 166.770989,26.9881319 166.770989,26.7191209 L166.770989,26.7191209 L166.770989,26.7191209 C166.743128,26.3715465 166.743128,26.0222997 166.770989,25.6747253 C166.786878,25.3610802 166.786878,25.0468319 166.770989,24.7331868 C166.83115,24.4098499 166.8524,24.0804749 166.834286,23.7520879 C166.834286,23.6017582 166.834286,23.4435165 166.834286,23.2852747 L166.834286,23.221978 C166.90058,23.1491974 166.921824,23.0460164 166.88967,22.952967 C166.913254,22.8383416 166.926494,22.7218295 166.929231,22.6048352 C166.917095,22.5235272 166.917095,22.4408684 166.929231,22.3595604 L166.929231,22.3912088 L166.929231,22.3516484 C166.910346,22.2709806 166.910346,22.1870414 166.929231,22.1063736 C166.965172,21.9904134 166.965172,21.8662899 166.929231,21.7503297 C167.040556,21.4704091 167.102141,21.173197 167.111209,20.8720879 L167.111209,20.7692308 C167.118252,20.6983101 167.091939,20.6281432 167.04,20.5793407 L167.04,20.5793407 C167.055986,20.4403859 167.110832,20.3087554 167.198242,20.1995604 C167.322192,20.0375581 167.403775,19.8471969 167.435604,19.6457143 L167.435604,19.6061538 L167.435604,19.6061538 L167.435604,19.6061538 C167.521293,19.5498163 167.574373,19.455452 167.578022,19.352967 C167.581864,19.3347054 167.581864,19.3158441 167.578022,19.2975824 C167.674555,19.201459 167.757119,19.0922619 167.823297,18.9731868 C167.918242,18.8149451 167.981538,18.7041758 168.163516,18.6487912 L168.250549,18.6487912 L168.250549,18.5617582 C168.250549,18.4589011 168.369231,18.4035165 168.503736,18.3164835 C168.620597,18.2507666 168.725035,18.1650743 168.812308,18.0632967 C168.894519,18.080314 168.979899,18.056761 169.041758,18 C169.168614,17.9645677 169.285228,17.8994811 169.381978,17.8101099 C169.532308,17.6914286 169.57978,17.6597802 169.682637,17.7072527 L169.785495,17.7547253 L169.848791,17.6914286 L169.848791,17.6914286 C169.920276,17.6818915 169.983942,17.6413773 170.022857,17.5806593 L170.141538,17.5806593 C170.228571,17.5806593 170.244396,17.5806593 170.276044,17.5806593 C170.324359,17.5996244 170.378058,17.5996244 170.426374,17.5806593 L170.426374,17.5806593 L170.545055,17.5806593 L170.703297,17.5806593 C171.112813,17.4766258 171.544701,17.5043109 171.937582,17.6597802 L172.072088,17.730989 L172.151209,17.6123077 L172.198681,17.6676923 C172.311009,17.8304164 172.499682,17.9232555 172.697143,17.912967 C172.743991,17.9576726 172.797344,17.9950198 172.855385,18.0237363 L172.926593,18.0712088 L172.926593,18.0712088 L172.926593,18.0712088 C173.018583,18.1695471 173.148007,18.2241928 173.282637,18.2215385 C173.538663,18.4531577 173.729605,18.7477551 173.836484,19.076044 L173.836484,19.2421978 L173.963077,19.2421978 C173.989982,19.4818434 174.083137,19.7092502 174.232088,19.8989011 C174.194654,19.9928935 174.194654,20.0976559 174.232088,20.1916484 C174.229354,20.2126587 174.229354,20.2339347 174.232088,20.2549451 L174.232088,20.3736264 L174.334945,20.4843956 L174.334945,20.4843956 C174.336223,20.587087 174.363439,20.687789 174.414066,20.7771429 C174.418329,20.7980264 174.418329,20.819556 174.414066,20.8404396 L174.414066,20.8958242 C174.363555,20.9813552 174.350197,21.0838153 174.377091,21.1794378 C174.403984,21.2750603 174.468793,21.355536 174.556484,21.4021978 L174.556484,21.4021978 C174.485275,21.4575824 174.485275,21.512967 174.477363,21.6158242 L174.477363,21.7424176 L174.524835,21.8215385 L174.524835,21.8215385 L174.524835,21.8215385 C174.533918,21.8547448 174.547213,21.8866523 174.564396,21.9164835 L174.501099,21.9718681 L174.501099,22.1142857 L174.58022,22.232967 L174.643516,22.232967 C174.633581,22.287906 174.633581,22.3441819 174.643516,22.3991209 L174.643516,22.4940659 C174.545674,22.7840397 174.559784,23.1001181 174.683077,23.3802198 L174.683077,23.3802198 C174.641309,23.4788367 174.641309,23.5901743 174.683077,23.6887912 C174.683077,23.6887912 174.683077,23.76 174.683077,23.7758242 L174.643516,23.941978 C174.643516,23.941978 174.690989,23.941978 174.738462,23.941978 C174.741892,23.9576162 174.741892,23.9738123 174.738462,23.9894505 L174.738462,24.1872527 L174.801758,24.1872527 C174.798267,24.2478619 174.798267,24.3086217 174.801758,24.3692308 C174.824146,24.4386799 174.824146,24.5134081 174.801758,24.5828571 L174.801758,24.5828571 L174.801758,24.5828571 C174.77497,24.741279 174.797048,24.9041022 174.865055,25.0496703 C174.866969,25.0760092 174.866969,25.1024523 174.865055,25.1287912 C174.829472,25.1644977 174.809547,25.2128875 174.80967,25.2632967 C174.80967,25.2632967 174.80967,25.2632967 174.80967,25.2632967 L174.80967,25.3028571 L174.80967,25.3978022 C174.821123,25.4463487 174.857139,25.4853656 174.904615,25.5006593 L174.904615,25.5006593 C174.900702,25.540123 174.900702,25.579877 174.904615,25.6193407 L174.904615,25.6668132 L174.801758,25.6668132 L174.857143,25.7696703 C174.82803,25.8351518 174.82803,25.9099032 174.857143,25.9753846 L174.785934,26.0940659 C174.789888,26.138504 174.816941,26.1775802 174.857143,26.1969231 C174.820872,26.3828583 174.898618,26.5725585 175.054945,26.6795604 C175.084469,26.7084449 175.110979,26.7402569 175.134066,26.7745055 L175.054945,26.7745055 L175.118242,26.9881319 L175.118242,26.9881319 L175.078681,27.0356044 L174.944176,27.0989011 L174.944176,27.2808791 L174.944176,27.3283516 C174.913107,27.3906257 174.913107,27.4638798 174.944176,27.5261538 C174.944176,27.5261538 174.944176,27.5261538 174.944176,27.5261538 C174.879586,27.5858927 174.840009,27.6678717 174.833407,27.7556044 L174.833407,27.9059341 L174.96,27.9059341 C174.958099,27.9375539 174.958099,27.9692593 174.96,28.0008791 C174.946664,28.0539147 174.92532,28.104607 174.896703,28.1512088 L174.896703,28.1512088 L174.896703,28.1512088 L175.118242,28.2778022 C175.088354,28.3265945 175.066952,28.3800994 175.054945,28.436044 L175.054945,28.4993407 L174.857143,28.4993407 L174.857143,28.712967 C174.861615,28.7497547 174.861615,28.7869486 174.857143,28.8237363 C174.853704,28.8685055 174.853704,28.9134725 174.857143,28.9582418 L174.857143,29.163956 C174.853472,29.2034313 174.853472,29.2431621 174.857143,29.2826374 L174.857143,29.2826374 L174.857143,29.4013187 C174.865059,29.4590706 174.865059,29.5176326 174.857143,29.5753846 L174.857143,29.6861538 L174.706813,29.7573626 L174.888791,29.9630769 L174.888791,29.9630769 C174.864846,30.0236467 174.851465,30.0878742 174.849231,30.152967 L174.714725,30.152967 L174.936264,30.4140659 C174.954688,30.4552426 174.970542,30.4975214 174.983736,30.5406593 C174.911915,30.618696 174.869893,30.7195481 174.865055,30.8254945 C174.869711,30.8569716 174.869711,30.8889625 174.865055,30.9204396 L174.865055,30.9204396 L174.92044,30.9916484 C174.882322,31.0150461 174.854156,31.0516618 174.841319,31.0945055 C174.823105,31.1429603 174.823105,31.1963803 174.841319,31.2448352 L174.627692,31.2448352 L174.801758,31.4189011 L174.643516,31.4742857 L174.778022,31.592967 L174.778022,32.0281319 C174.777824,32.1006173 174.81729,32.167405 174.880879,32.2021978 L174.880879,32.2021978 C174.95799,32.2528002 175.053338,32.2672469 175.141978,32.2417582 L175.141978,32.4237363 L175.347692,32.3604396 C175.477433,32.3269407 175.613556,32.3269407 175.743297,32.3604396 L175.917363,32.3604396 L175.917363,32.1863736 C175.980117,31.558097 175.995985,30.9260187 175.964835,30.2953846 C175.932649,29.7253918 175.948529,29.1537007 176.012308,28.5863736 C176.042747,28.5007149 176.02784,28.4054769 175.972747,28.3331868 L175.498022,28.618022 Z" id="Path" fill="#006937"></path><path d="M163.044396,28.618022 L163.083956,28.618022 L163.083956,28.4835165 L163.083956,25.563956 L163.083956,25.563956 L163.083956,25.563956 C163.028571,25.1287912 163.020659,24.6461538 163.004835,24.123956 C163.003562,23.5554084 162.969219,22.9874161 162.901978,22.4228571 C162.860807,21.6248457 162.757638,20.8312444 162.593407,20.0492308 L162.490549,19.5112088 L162.490549,19.4637363 L162.490549,19.4241758 C162.350157,19.3130298 162.247842,19.1609399 162.197802,18.989011 C162.16345,18.8392834 162.107478,18.6953559 162.031648,18.5617582 C161.805049,18.1967405 161.539782,17.8571988 161.24044,17.549011 L161.24044,17.549011 C161.178291,17.4753669 161.103213,17.4136953 161.018901,17.367033 L160.90022,17.2720879 L160.836923,17.2246154 L160.797363,17.2246154 L160.741978,17.1850549 C160.520724,17.0155039 160.267882,16.891773 159.998242,16.8210989 L159.998242,16.8210989 C159.918769,16.7303599 159.802242,16.6808356 159.681758,16.6865934 L159.681758,16.6153846 L159.539341,16.6153846 L158.890549,16.5125275 L158.795604,16.5125275 L158.732308,16.5916484 C158.732308,16.5916484 158.732308,16.6312088 158.566154,16.5916484 C158.500393,16.5639973 158.431194,16.5453669 158.36044,16.5362637 L158.289231,16.5362637 L158.289231,16.5758242 L158.21011,16.5283516 L157.941099,16.4492308 L157.941099,16.5758242 C157.834551,16.5705836 157.728407,16.5923567 157.632527,16.6391209 L156.841319,16.6391209 L156.888791,16.7894505 L156.888791,16.7894505 C156.746562,16.7647298 156.601332,16.812152 156.501099,16.916044 L156.501099,16.916044 C156.399459,16.9337852 156.304094,16.9773806 156.224176,17.0426374 C156.176703,17.0426374 156.160879,17.0901099 156.129231,17.0901099 L156.058022,17.0901099 L156.018462,17.1375824 C155.912267,17.2215997 155.795152,17.2908037 155.67033,17.3432967 L155.448791,17.4382418 L155.496264,17.4857143 L155.393407,17.549011 L155.076923,17.549011 L155.076923,17.7151648 L155.076923,17.7151648 L154.958242,17.6676923 C154.958242,17.6676923 154.871209,17.7705495 154.871209,17.7705495 C154.726766,17.9616091 154.568071,18.1414633 154.396484,18.3085714 C154.184151,18.5256636 153.988435,18.758407 153.810989,19.0048352 L153.763516,19.076044 L153.763516,19.1551648 C153.684442,19.198729 153.627098,19.2732754 153.605275,19.3608791 C153.542738,19.443763 153.504396,19.542357 153.494505,19.6457143 C153.498996,19.6692382 153.498996,19.6933992 153.494505,19.7169231 C153.429133,19.7989286 153.388021,19.8975963 153.375824,20.0017582 C153.374758,20.049302 153.361108,20.0957135 153.336264,20.1362637 L153.233407,20.2628571 L153.280879,20.3024176 C153.25448,20.3705348 153.241063,20.4429907 153.241319,20.516044 L153.241319,20.5714286 L153.17011,20.5714286 L153.17011,20.6821978 C153.201878,20.8787245 153.201878,21.0790777 153.17011,21.2756044 C153.150005,21.4808275 153.150005,21.6875242 153.17011,21.8927473 C153.113334,22.0022878 153.096546,22.1282017 153.122637,22.2487912 C153.125714,22.2777206 153.125714,22.3068948 153.122637,22.3358242 L153.011868,22.4228571 L153.083077,22.5415385 C153.146374,22.6364835 153.083077,22.7868132 153.083077,22.9371429 C153.035333,23.0836817 153.035333,23.241593 153.083077,23.3881319 C153.083077,23.3881319 153.083077,23.3881319 153.043516,23.4276923 C153.032307,23.4664587 153.032307,23.5076073 153.043516,23.5463736 C153.04688,23.5990673 153.04688,23.6519217 153.043516,23.7046154 L152.964396,23.8628571 L152.964396,23.9261538 L153.106813,24.0210989 C153.090721,24.107388 153.090721,24.1959087 153.106813,24.2821978 C153.106813,24.3850549 153.106813,24.4325275 153.106813,24.4720879 L153.01978,24.6303297 L153.106813,24.7331868 L153.106813,24.7331868 C153.094121,24.8373448 153.122501,24.9423503 153.185934,25.0259341 C153.185934,25.0259341 153.185934,25.0259341 153.185934,25.0734066 L153.027692,25.112967 L153.138462,25.3345055 C153.139472,25.3529532 153.139472,25.3714424 153.138462,25.3898901 C153.100022,25.4891558 153.100022,25.5991958 153.138462,25.6984615 C153.102223,25.8089731 153.102223,25.9281697 153.138462,26.0386813 C153.142142,26.0649265 153.142142,26.091557 153.138462,26.1178022 C153.040268,26.2608111 153.040268,26.4495186 153.138462,26.5925275 C153.097581,26.6913226 153.097581,26.8023038 153.138462,26.9010989 L152.932747,26.9723077 L153.138462,27.1859341 C153.119697,27.2370125 153.119697,27.2930973 153.138462,27.3441758 C153.159227,27.3765052 153.189693,27.4014319 153.225495,27.4153846 L153.162198,27.4153846 L153.162198,27.4153846 L153.162198,27.4153846 L153.233407,27.6052747 L153.233407,27.6052747 C153.216493,27.7098761 153.239052,27.8170305 153.296703,27.9059341 C153.287905,27.936971 153.287905,27.9698422 153.296703,28.0008791 L153.217582,28.08 L153.296703,28.1907692 C153.36,28.2778022 153.296703,28.3964835 153.296703,28.5784615 C153.225041,28.7478991 153.225041,28.9391338 153.296703,29.1085714 L153.178022,29.2193407 L153.32044,29.3221978 L153.32044,29.3221978 C153.255701,29.4235081 153.255701,29.5531952 153.32044,29.6545055 L153.32044,29.6545055 C153.340534,29.7483873 153.340534,29.8454588 153.32044,29.9393407 C153.278,30.1270116 153.29458,30.3232115 153.367912,30.5010989 L153.367912,30.6989011 L153.367912,30.6989011 C153.342416,30.7596304 153.342416,30.8280619 153.367912,30.8887912 L153.304615,30.8887912 L153.352088,31.0232967 C153.393198,31.1887553 153.409201,31.3594539 153.39956,31.5296703 C153.348084,31.9121135 153.463347,32.298245 153.716044,32.5898901 L153.787253,32.6531868 L153.874286,32.6531868 C154.049175,32.583235 154.155963,32.4052547 154.135385,32.218022 L154.135385,32.0756044 C154.071616,31.7038134 154.071616,31.3238789 154.135385,30.9520879 C154.143202,30.8573038 154.143202,30.7620369 154.135385,30.6672527 L154.135385,30.6672527 L154.135385,30.6276923 C154.095367,30.4934687 154.095367,30.3504873 154.135385,30.2162637 C154.170938,30.0707111 154.170938,29.9187395 154.135385,29.7731868 C154.182857,29.0927473 154.135385,28.2857143 154.135385,27.5657143 C154.135385,27.2650549 154.135385,26.9802198 154.135385,26.7112088 L154.135385,26.7112088 L154.135385,26.7112088 C154.107591,26.3636317 154.107591,26.0143903 154.135385,25.6668132 C154.155292,25.3532827 154.155292,25.0388052 154.135385,24.7252747 C154.19812,24.4022463 154.222026,24.0728778 154.206593,23.7441758 C154.206593,23.5938462 154.206593,23.4356044 154.206593,23.2773626 L154.206593,23.2378022 L154.206593,23.2378022 C154.276313,23.166806 154.297983,23.0615541 154.261978,22.9687912 C154.289443,22.8548179 154.302731,22.7378893 154.301538,22.6206593 C154.297311,22.5389557 154.297311,22.4570882 154.301538,22.3753846 L154.301538,22.2962637 C154.278879,22.2160755 154.278879,22.1311772 154.301538,22.050989 C154.336992,21.9349554 154.336992,21.8109787 154.301538,21.6949451 C154.416545,21.4161413 154.47827,21.11825 154.483516,20.8167033 L154.483516,20.7138462 C154.49671,20.6438601 154.472766,20.5720286 154.42022,20.523956 L154.42022,20.523956 C154.436206,20.3850013 154.491052,20.2533707 154.578462,20.1441758 C154.699876,19.9815504 154.778747,19.791173 154.807912,19.5903297 L154.807912,19.5507692 L154.807912,19.5507692 L154.807912,19.5507692 C154.896622,19.4962428 154.952834,19.4015694 154.958242,19.2975824 C154.958242,19.2975824 154.958242,19.2975824 154.958242,19.2421978 C155.054775,19.1460744 155.137339,19.0368773 155.203516,18.9178022 C155.262314,18.7668032 155.383452,18.6485493 155.535824,18.5934066 L155.630769,18.5934066 L155.630769,18.5063736 C155.630769,18.4035165 155.741538,18.3481319 155.883956,18.2610989 C155.998371,18.195163 156.10017,18.1094371 156.184615,18.0079121 C156.266827,18.0249293 156.352207,18.0013764 156.414066,17.9446154 C156.542561,17.9074439 156.661378,17.8426347 156.762198,17.7547253 C156.904615,17.636044 156.96,17.6043956 157.054945,17.6518681 L157.157802,17.6993407 L157.229011,17.636044 L157.229011,17.636044 C157.303009,17.6276799 157.369572,17.5871633 157.410989,17.5252747 L157.52967,17.5252747 C157.608791,17.5252747 157.632527,17.5252747 157.656264,17.5252747 C157.707342,17.5440389 157.763427,17.5440389 157.814505,17.5252747 L157.814505,17.5252747 L157.933187,17.5252747 L158.091429,17.5252747 C158.503585,17.4211526 158.938011,17.448823 159.333626,17.6043956 L159.46022,17.6756044 L159.539341,17.5569231 C159.555756,17.5773232 159.574325,17.5958922 159.594725,17.6123077 C159.702329,17.7762285 159.889576,17.8698521 160.085275,17.8575824 C160.134838,17.9025682 160.19084,17.9399027 160.251429,17.9683516 L160.314725,18.0158242 L160.314725,18.0158242 L160.314725,18.0158242 C160.410793,18.1129853 160.542049,18.1671998 160.678681,18.1661538 C160.931991,18.4000732 161.122441,18.6939104 161.232527,19.0206593 L161.232527,19.1868132 L161.351209,19.1868132 C161.384633,19.426128 161.480103,19.6525292 161.628132,19.8435165 C161.595579,19.9383841 161.595579,20.0413961 161.628132,20.1362637 C161.632624,20.1571235 161.632624,20.1787007 161.628132,20.1995604 L161.628132,20.3182418 L161.738901,20.429011 L161.738901,20.429011 C161.736205,20.532216 161.763704,20.6339622 161.818022,20.7217582 C161.822514,20.742618 161.822514,20.7641952 161.818022,20.7850549 L161.818022,20.8404396 C161.769736,20.9264697 161.757613,21.0281614 161.784324,21.1231315 C161.811034,21.2181015 161.874388,21.2985657 161.96044,21.3468132 L162,21.3468132 C161.920879,21.4021978 161.928791,21.4575824 161.912967,21.5604396 L161.912967,21.687033 L161.96044,21.7661538 L161.96044,21.7661538 C161.96044,21.7661538 161.96044,21.7661538 161.96044,21.7661538 L162,21.8610989 L161.944615,21.9164835 L161.944615,22.0589011 L162.023736,22.1775824 L162.087033,22.1775824 C162.088294,22.2361297 162.104645,22.2933603 162.134505,22.3437363 L162.134505,22.4149451 C162.039155,22.7058991 162.056089,23.0219969 162.181978,23.3010989 L162.181978,23.3010989 C162.125393,23.3934202 162.108287,23.5046099 162.134505,23.6096703 C162.141875,23.6382133 162.141875,23.6681603 162.134505,23.6967033 L162.094945,23.8628571 L162.197802,23.8628571 C162.194371,23.8784954 162.194371,23.8946914 162.197802,23.9103297 L162.158242,24.1081319 L162.229451,24.1081319 C162.221921,24.1685575 162.221921,24.2296842 162.229451,24.2901099 C162.24826,24.3600766 162.24826,24.4337696 162.229451,24.5037363 L162.229451,24.5037363 L162.229451,24.5037363 C162.198751,24.6628986 162.223902,24.8277789 162.300659,24.9705495 L162.300659,25.0496703 C162.270947,25.0883235 162.254319,25.1354358 162.253187,25.1841758 L162.253187,25.2237363 L162.253187,25.3186813 C162.263119,25.36539 162.295799,25.4040122 162.34022,25.4215385 L162.34022,25.4215385 C162.336306,25.4610021 162.336306,25.5007561 162.34022,25.5402198 L162.34022,25.5876923 L162.237363,25.5876923 L162.284835,25.6905495 C162.259209,25.7567266 162.259209,25.8300866 162.284835,25.8962637 L162.213626,26.0149451 C162.213626,26.0149451 162.213626,26.0940659 162.292747,26.1178022 C162.258869,26.3017254 162.332515,26.4889102 162.482637,26.6004396 L162.56967,26.6953846 L162.490549,26.6953846 L162.545934,26.909011 L162.545934,26.909011 L162.506374,26.9564835 L162.371868,27.0197802 L162.419341,27.2017582 L162.419341,27.2492308 C162.384007,27.310431 162.384007,27.3858328 162.419341,27.447033 L162.419341,27.447033 C162.35475,27.5067718 162.315174,27.5887508 162.308571,27.6764835 L162.308571,27.8268132 L162.435165,27.8268132 C162.435165,27.8268132 162.435165,27.898022 162.435165,27.9217582 C162.424196,27.974319 162.405534,28.0249742 162.37978,28.0720879 L162.37978,28.0720879 L162.593407,28.1986813 C162.566672,28.2489957 162.54545,28.3020506 162.53011,28.3569231 C162.534602,28.3777829 162.534602,28.39936 162.53011,28.4202198 L162.332308,28.4202198 L162.332308,28.6338462 C162.332308,28.6338462 162.332308,28.7050549 162.332308,28.7446154 C162.32918,28.789396 162.32918,28.8343403 162.332308,28.8791209 L162.332308,29.0848352 C162.328637,29.1243104 162.328637,29.1640412 162.332308,29.2035165 L162.332308,29.2035165 L162.332308,29.3221978 C162.336252,29.3801527 162.336252,29.4383088 162.332308,29.4962637 C162.332308,29.4962637 162.332308,29.5674725 162.332308,29.607033 L162.181978,29.6782418 L162.363956,29.883956 L162.363956,29.883956 C162.334259,29.9457687 162.318075,30.0132003 162.316484,30.0817582 L162.18989,30.0817582 L162.403516,30.3428571 C162.428746,30.3809036 162.444981,30.4241959 162.450989,30.4694505 L162.450989,30.4694505 C162.384187,30.5498901 162.345314,30.6498485 162.34022,30.7542857 C162.345386,30.7857232 162.345386,30.8177933 162.34022,30.8492308 L162.34022,30.8492308 L162.395604,30.9204396 C162.313123,30.9761482 162.272486,31.0761786 162.292747,31.1736264 L162.079121,31.1736264 L162.253187,31.3476923 L162.087033,31.4030769 L162.221538,31.5217582 L162.221538,31.9569231 C162.221341,32.0294085 162.260806,32.0961962 162.324396,32.130989 L162.324396,32.130989 C162.40467,32.1809925 162.502135,32.1953257 162.593407,32.1705495 L162.593407,32.3525275 L162.799121,32.2892308 C162.928862,32.2557319 163.064985,32.2557319 163.194725,32.2892308 L163.360879,32.2892308 L163.360879,32.1151648 C163.430138,31.4873485 163.44866,30.8549695 163.416264,30.2241758 C163.381525,29.6544036 163.394759,29.0827193 163.455824,28.5151648 C163.498022,28.436044 163.498022,28.3410989 163.455824,28.261978 L163.044396,28.618022 Z" id="Path" fill="#002D74"></path><path d="M187.745934,28.8395604 L187.785495,28.8395604 L187.785495,28.7208791 L187.785495,25.7934066 L187.785495,25.7934066 C187.738022,25.3582418 187.722198,24.8756044 187.714286,24.3534066 C187.713013,23.7848589 187.678669,23.2168666 187.611429,22.6523077 C187.571474,21.853734 187.46562,21.0598256 187.294945,20.2786813 L187.2,19.7406593 L187.2,19.6931868 L187.2,19.6536264 C187.087899,19.5334557 187.016,19.3813605 186.994286,19.2184615 C186.96119,19.0683507 186.905147,18.9242401 186.828132,18.7912088 C186.601532,18.4261911 186.336265,18.0866494 186.036923,17.7784615 L186.036923,17.7784615 C185.980143,17.7005894 185.907289,17.6358304 185.823297,17.5885714 L185.696703,17.5015385 L185.633407,17.4540659 L185.633407,17.4540659 L185.459341,17.4065934 C185.238087,17.2370424 184.985245,17.1133114 184.715604,17.0426374 L184.715604,17.0426374 C184.629912,16.9512512 184.508429,16.9020794 184.383297,16.9081319 L184.383297,16.8369231 L184.248791,16.8369231 L183.6,16.741978 L183.497143,16.741978 L183.441758,16.8210989 C183.441758,16.8210989 183.441758,16.8606593 183.275604,16.8210989 C183.209534,16.7943581 183.140455,16.7757598 183.06989,16.7657143 L182.990769,16.7657143 L182.951209,16.8052747 L182.88,16.7578022 L182.610989,16.6786813 L182.610989,16.8052747 C182.504173,16.7960627 182.39698,16.818051 182.302418,16.8685714 L181.511209,16.8685714 L181.558681,17.0268132 L181.558681,17.0268132 C181.417868,17.0014567 181.273478,17.045658 181.170989,17.1454945 L181.170989,17.1454945 C181.067613,17.1653579 180.97017,17.2086659 180.886154,17.2720879 C180.859927,17.2969962 180.826872,17.3135236 180.791209,17.3195604 L180.727912,17.3195604 L180.68044,17.367033 C180.576578,17.4543952 180.458935,17.5239114 180.332308,17.5727473 L180.118681,17.6676923 L180.166154,17.7151648 C180.127629,17.7284393 180.092508,17.7500521 180.063297,17.7784615 L179.84967,17.7784615 L179.84967,17.9446154 L179.84967,17.9446154 L179.730989,17.8971429 C179.730989,17.8971429 179.643956,17.9920879 179.643956,17.9920879 C179.499831,18.1858764 179.341129,18.3683843 179.169231,18.538022 C178.956898,18.7551141 178.761182,18.9878575 178.583736,19.2342857 L178.536264,19.3054945 L178.536264,19.3846154 C178.455112,19.4257174 178.396933,19.5013505 178.378022,19.5903297 C178.312185,19.6713343 178.273441,19.7709636 178.267253,19.8751648 C178.271743,19.8986887 178.271743,19.9228497 178.267253,19.9463736 C178.20188,20.0283791 178.160769,20.1270469 178.148571,20.2312088 C178.146169,20.278535 178.132613,20.3246232 178.109011,20.3657143 L177.998242,20.4923077 L178.045714,20.5318681 C178.032074,20.5997612 178.032074,20.6696893 178.045714,20.7375824 L178.045714,20.8087912 L177.974505,20.8483516 L177.974505,20.9591209 C178.00232,21.1559453 178.00232,21.3557031 177.974505,21.5525275 C177.9544,21.7577505 177.9544,21.9644473 177.974505,22.1696703 C177.914237,22.2780816 177.897274,22.4052994 177.927033,22.5257143 C177.930592,22.5546161 177.930592,22.5838454 177.927033,22.6127473 L177.824176,22.6918681 L177.895385,22.8184615 C177.958681,22.9134066 177.895385,23.0637363 177.895385,23.2061538 C177.836979,23.3518126 177.823209,23.5115496 177.855824,23.6650549 L177.855824,23.7046154 C177.844615,23.7433818 177.844615,23.7845303 177.855824,23.8232967 C177.855824,23.9340659 177.855824,23.9736264 177.855824,23.9815385 L177.784615,24.1397802 L177.784615,24.2030769 L177.927033,24.298022 C177.910941,24.3843111 177.910941,24.4728318 177.927033,24.5591209 C177.927033,24.661978 177.927033,24.7094505 177.927033,24.749011 L177.84,24.9072527 L177.927033,25.0101099 L177.927033,25.0101099 C177.910613,25.1145017 177.939383,25.2209494 178.006154,25.3028571 C178.006154,25.3028571 178.006154,25.3028571 178.006154,25.3503297 L177.847912,25.3503297 L177.950769,25.5797802 L177.950769,25.6272527 C177.912329,25.7265185 177.912329,25.8365585 177.950769,25.9358242 C177.91453,26.0463357 177.91453,26.1655324 177.950769,26.276044 C177.95445,26.3022892 177.95445,26.3289196 177.950769,26.3551648 C177.84445,26.4914982 177.828922,26.6778395 177.911209,26.8298901 C177.861159,26.9245847 177.847105,27.0342038 177.871648,27.1384615 L177.673846,27.2096703 L177.87956,27.4232967 C177.86146,27.4744912 177.86146,27.5303439 177.87956,27.5815385 C177.900326,27.6138678 177.930792,27.6387946 177.966593,27.6527473 L177.903297,27.6527473 L177.903297,27.6527473 L177.974505,27.8347253 L177.974505,27.8347253 C177.953297,27.9393854 177.976196,28.0481592 178.037802,28.1353846 C178.029004,28.1664215 178.029004,28.1992928 178.037802,28.2303297 L177.958681,28.3094505 L178.037802,28.4202198 C178.101099,28.5072527 178.037802,28.6259341 178.037802,28.8079121 C177.970385,28.978185 177.970385,29.1677491 178.037802,29.338022 L177.919121,29.4487912 L178.061538,29.5595604 L178.061538,29.5595604 C177.998707,29.6614197 177.998707,29.7900089 178.061538,29.8918681 L178.061538,29.8918681 C178.08637,29.9851895 178.08637,30.0833819 178.061538,30.1767033 C178.020464,30.3638667 178.034199,30.5589021 178.101099,30.7384615 L178.101099,30.9362637 L178.101099,30.9362637 C178.075603,30.996993 178.075603,31.0654246 178.101099,31.1261538 L178.037802,31.1261538 L178.085275,31.2606593 C178.122564,31.4267456 178.138517,31.5969099 178.132747,31.767033 C178.081271,32.1494762 178.196534,32.5356077 178.449231,32.8272527 L178.52044,32.8905495 L178.607473,32.8905495 C178.780557,32.8184927 178.886443,32.642015 178.868571,32.4553846 L178.868571,32.4395604 C178.804803,32.0677694 178.804803,31.687835 178.868571,31.316044 C178.868571,31.2210989 178.868571,31.1261538 178.868571,31.0312088 L178.868571,30.9837363 L178.868571,30.9837363 C178.828262,30.8522508 178.828262,30.7117053 178.868571,30.5802198 C178.903817,30.4346303 178.903817,30.2827324 178.868571,30.1371429 C178.90808,29.401849 178.90808,28.6649642 178.868571,27.9296703 C178.868571,27.629011 178.868571,27.3441758 178.868571,27.0751648 L178.868571,27.0751648 C178.844659,26.7274436 178.844659,26.3784905 178.868571,26.0307692 C178.892364,25.717374 178.892364,25.402626 178.868571,25.0892308 C178.928733,24.7658938 178.949983,24.4365189 178.931868,24.1081319 L178.931868,23.578022 C179.001588,23.5070258 179.023257,23.4017739 178.987253,23.309011 C179.015208,23.192439 179.028498,23.0728324 179.026813,22.952967 C179.026813,22.8738462 179.026813,22.7947253 179.026813,22.7156044 L179.026813,22.6364835 C179.007639,22.5558495 179.007639,22.4718428 179.026813,22.3912088 C179.062755,22.2752486 179.062755,22.151125 179.026813,22.0351648 C179.140936,21.7560908 179.202627,21.458367 179.208791,21.1569231 L179.208791,21.0540659 C179.21912,20.9843025 179.195615,20.9137896 179.145495,20.8641758 L179.145495,20.8641758 C179.159725,20.72477 179.21477,20.5926614 179.303736,20.4843956 C179.425151,20.3217701 179.504022,20.1313927 179.533187,19.9305495 L179.533187,19.890989 L179.533187,19.890989 L179.533187,19.890989 C179.617482,19.8322384 179.672287,19.7399357 179.683516,19.6378022 C179.68625,19.6167919 179.68625,19.5955158 179.683516,19.5745055 C179.782061,19.4831602 179.864923,19.376241 179.928791,19.258022 C180.023736,19.0997802 180.087033,18.989011 180.269011,18.9336264 L180.356044,18.9336264 L180.356044,18.8465934 C180.356044,18.7437363 180.466813,18.6883516 180.609231,18.6013187 C180.721872,18.5328831 180.823284,18.4474836 180.90989,18.3481319 C180.991946,18.3615323 181.075761,18.338411 181.139341,18.2848352 C181.266197,18.2494028 181.38281,18.1843163 181.47956,18.0949451 C181.62989,17.9683516 181.685275,17.9446154 181.78022,17.9920879 L181.883077,18.0395604 L181.946374,17.9762637 L181.946374,17.9762637 C182.01866,17.9689808 182.083227,17.9278931 182.12044,17.8654945 L182.239121,17.8654945 C182.326154,17.8654945 182.341978,17.8654945 182.373626,17.8654945 C182.422081,17.8837081 182.475501,17.8837081 182.523956,17.8654945 L182.523956,17.8654945 L182.642637,17.8654945 L182.800879,17.8654945 C183.212671,17.7575063 183.648314,17.7852542 184.043077,17.9446154 L184.16967,18.0158242 L184.248791,17.8971429 L184.296264,17.9525275 C184.408591,18.1152515 184.597264,18.2080907 184.794725,18.1978022 C184.844289,18.242788 184.900291,18.2801225 184.960879,18.3085714 L185.024176,18.3481319 L185.024176,18.3481319 L185.024176,18.3956044 C185.119264,18.4894045 185.24668,18.5432026 185.38022,18.5459341 C185.636245,18.7775534 185.827188,19.0721507 185.934066,19.4004396 L185.934066,19.5665934 L186.060659,19.5665934 C186.094466,19.8044206 186.186913,20.0301001 186.32967,20.2232967 C186.300369,20.3186796 186.300369,20.4206611 186.32967,20.516044 C186.3331,20.5343462 186.3331,20.5531264 186.32967,20.5714286 L186.32967,20.698022 L186.44044,20.8087912 L186.44044,20.8087912 C186.439064,20.9118342 186.466465,21.0132172 186.51956,21.1015385 L186.51956,21.1569231 L186.51956,21.2202198 C186.471274,21.3062499 186.459152,21.4079416 186.485862,21.5029117 C186.512573,21.5978817 186.575926,21.678346 186.661978,21.7265934 L186.701538,21.7265934 C186.622418,21.781978 186.63033,21.8373626 186.614505,21.9402198 L186.614505,22.0589011 L186.66989,22.1459341 L186.66989,22.1459341 L186.66989,22.1459341 C186.678973,22.1791404 186.692268,22.2110479 186.709451,22.2408791 L186.654066,22.2883516 L186.614505,22.4386813 L186.693626,22.5573626 L186.756923,22.5573626 C186.758184,22.6159099 186.774535,22.6731405 186.804396,22.7235165 L186.804396,22.8026374 C186.709813,23.0936925 186.726732,23.4095067 186.851868,23.6887912 L186.851868,23.6887912 C186.792544,23.7800882 186.775256,23.8924559 186.804396,23.9973626 C186.811799,24.028578 186.811799,24.0610923 186.804396,24.0923077 L186.764835,24.2584615 C186.764835,24.2584615 186.82022,24.2584615 186.867692,24.2584615 C186.864262,24.2740998 186.864262,24.2902958 186.867692,24.3059341 L186.828132,24.5037363 L186.899341,24.5037363 C186.891811,24.5641619 186.891811,24.6252886 186.899341,24.6857143 C186.901517,24.7589277 186.888029,24.8317615 186.85978,24.8993407 L186.85978,24.8993407 L186.85978,24.8993407 C186.829781,25.0610934 186.854852,25.2282336 186.930989,25.3740659 L186.930989,25.4452747 C186.896678,25.4812703 186.879401,25.5302223 186.883516,25.5797802 C186.883516,25.5797802 186.883516,25.5797802 186.883516,25.6272527 L186.883516,25.6272527 L186.883516,25.7221978 C186.899377,25.768259 186.933814,25.8055658 186.978462,25.8250549 L186.978462,25.8250549 C186.974528,25.8671611 186.974528,25.9095422 186.978462,25.9516484 L186.978462,25.9991209 L186.875604,25.9991209 L186.923077,26.101978 C186.89745,26.1681552 186.89745,26.2415152 186.923077,26.3076923 L186.851868,26.4263736 C186.862112,26.472506 186.890673,26.5124906 186.930989,26.5371429 C186.898383,26.7186683 186.972078,26.9029055 187.120879,27.0118681 L187.207912,27.1068132 L187.120879,27.1068132 L187.184176,27.3125275 L187.184176,27.3125275 L187.144615,27.36 L187.01011,27.4232967 L186.725275,27.6923077 L186.725275,27.7397802 C186.691496,27.8013879 186.691496,27.8759747 186.725275,27.9375824 L186.725275,27.9375824 C186.662442,27.9953525 186.623022,28.0741926 186.614505,28.1591209 L186.614505,28.3173626 L186.733187,28.3173626 L186.733187,28.4123077 C186.722218,28.4648685 186.703556,28.5155237 186.677802,28.5626374 L186.677802,28.5626374 C186.677802,28.5626374 186.677802,28.5626374 186.677802,28.5626374 L186.891429,28.6892308 C186.864694,28.7395451 186.843472,28.7926001 186.828132,28.8474725 L186.828132,28.9107692 L186.63033,28.9107692 L186.63033,29.1243956 C186.634802,29.1611832 186.634802,29.1983772 186.63033,29.2351648 C186.626891,29.2799341 186.626891,29.3249011 186.63033,29.3696703 L186.63033,29.5753846 C186.627358,29.6148893 186.627358,29.6545613 186.63033,29.6940659 L186.63033,29.6940659 L186.63033,29.8127473 C186.634299,29.8707014 186.634299,29.9288591 186.63033,29.9868132 C186.626079,30.0236139 186.626079,30.0607817 186.63033,30.0975824 L186.48,30.1687912 L186.661978,30.3665934 L186.661978,30.3665934 C186.63335,30.4259833 186.617194,30.4906088 186.614505,30.5564835 L186.487912,30.5564835 L186.701538,30.8254945 C186.727882,30.8629629 186.744222,30.9065368 186.749011,30.9520879 L186.749011,30.9520879 C186.677573,31.0297189 186.63802,31.1314245 186.638242,31.2369231 C186.638242,31.2369231 186.638242,31.316044 186.638242,31.3318681 L186.638242,31.3318681 L186.693626,31.4030769 C186.66008,31.4311944 186.633077,31.4662977 186.614505,31.5059341 C186.603557,31.5554459 186.603557,31.6067519 186.614505,31.6562637 L186.408791,31.6562637 L186.582857,31.8303297 L186.416703,31.8857143 L186.551209,31.9964835 L186.551209,32.4395604 C186.551011,32.5120458 186.590476,32.5788335 186.654066,32.6136264 L186.654066,32.6136264 C186.734098,32.6520089 186.827221,32.6520089 186.907253,32.6136264 L186.907253,32.7956044 L187.120879,32.7323077 C187.247837,32.6980329 187.381613,32.6980329 187.508571,32.7323077 L187.682637,32.7323077 L187.682637,32.5582418 C187.745392,31.9299652 187.76126,31.2978868 187.73011,30.6672527 C187.697924,30.0972599 187.713804,29.5255689 187.777582,28.9582418 C187.81978,28.8791209 187.81978,28.7841758 187.777582,28.7050549 L187.745934,28.8395604 Z" id="Path" fill="#E04403"></path><path d="M147.805714,0 L147.805714,44.8536264 L192.667253,44.8536264 L192.667253,0 L147.805714,0 Z M190.293626,42.4879121 L150.171429,42.4879121 L150.171429,2.37362637 L190.293626,2.37362637 L190.293626,42.4879121 L190.293626,42.4879121 Z" id="Shape" fill="#E04403"></path></g></g></g></svg> 