<?xml version="1.0" encoding="UTF-8"?> <svg xmlns="http://www.w3.org/2000/svg" xmlns:xlink="http://www.w3.org/1999/xlink" width="150" height="17" viewBox="0 0 150 17"><defs><filter id="cayndxt8ja"><feColorMatrix in="SourceGraphic" values="0 0 0 0 1.000000 0 0 0 0 1.000000 0 0 0 0 1.000000 0 0 0 1.000000 0"></feColorMatrix></filter><path id="i1s2zj9mqb" d="M0 16.842L149.923 16.842 149.923 0 0 0z"></path></defs><g fill="none" fill-rule="evenodd"><g><g filter="url(#cayndxt8ja)" transform="translate(-525 -1141) translate(336 1028)"><g><g transform="translate(189 113)"><path fill="#231F20" d="M126.032 13.796c-2.636 0-4.216-2.59-4.216-5.856 0-3.908 1.8-4.912 3.378-4.912 2.254 0 4.024 2.18 4.024 5.698 0 4.536-2.225 5.07-3.186 5.07m-.423-11.582c-4.337 0-5.97 3.504-5.97 6.215 0 2.806 1.677 6.215 5.825 6.215 3.672 0 5.985-2.87 5.985-6.5 0-3.631-2.24-5.93-5.84-5.93M80.425 14.673c.966 0 1.98-.143 2.875-.65 1.288-.747 1.655-1.843 1.627-2.764-.044-1.51-.878-2.572-3.106-4.048l-.519-.333c-1.54-1.002-1.976-1.558-1.997-2.289-.029-.952.77-1.635 2.116-1.635 1.183 0 1.724.477 2.006.779.394.412.5.904.506 1.047.005.19.062.286.19.286.145 0 .196-.127.185-.477-.037-1.238.022-1.698.016-1.906-.004-.11-.096-.158-.26-.19-.476-.11-1.245-.268-2.429-.268-2.528 0-4.165 1.253-4.113 3 .039 1.286.764 2.398 2.806 3.763l.855.573c1.54 1.015 1.836 1.762 1.858 2.54.026.842-.746 1.81-2.383 1.81-1.128 0-2.214-.429-2.65-1.604-.1-.27-.182-.603-.189-.81-.003-.127-.025-.27-.19-.27-.144 0-.194.175-.205.413-.01.254-.055 1.208-.029 2.08.01.349.067.43.362.54.792.302 1.613.413 2.668.413"></path><path fill="#231F20" d="M116.169 9.56l-2.548-.015c-.028 0-.085-.034-.032-.11.244-.353 1.758-2.534 2.41-3.468.044-.062.104-.04.106.02.02.468.174 3.477.174 3.477 0 .047-.031.095-.11.095m-26.236.007h-2.712c-.065 0-.098-.045-.105-.108l.113-3.139c.003-.055-.004-.131.044-.137.048-.006.056.045.104.102.122.154 2.6 3.19 2.6 3.19.034.047.035.092-.044.092m30.16 4.46c-.189 0-.418-.014-.635-.062-.305-.077-.594-.424-.726-1.831-.221-2.378-.639-8.763-.72-9.625-.03-.288-.32-.35-.498-.218-.133.097-.317.375-.502.628-2.81 3.835-4.36 5.906-7.219 9.77-.498.675-.902 1.411-1.854 1.365-.406-.02-.562-.407-.608-.844-.078-.674-.078-1.91-.078-3.348V3.605c0-.171.047-.266.124-.298.142-.047.376-.06.611-.06.36 0 1.275.046 1.837.56.876.783.866 1.845.866 2.361 0 1.597-1.266 2.614-2.142 2.614-.33 0-.609.047-.609.173 0 .108.11.125.188.14.079.015.745.04.824.04 2.22 0 3.809-1.335 3.848-3.785.01-.828-.443-1.529-.783-1.86-.448-.436-1.45-.917-3.405-.917-.72 0-1.625.048-2.267.048-.38 0-2.552-.092-2.652-.092-.53 0-1.06.047-1.37.047-.294 0-.967-.047-1.694-.047-.21 0-.364.016-.364.142 0 .092.056.139.224.139.196 0 .532 0 .742.093.335.158.461.452.475 1.407l.041 6.077c-.238-.25-7.16-7.915-7.364-8.071-.264-.198-.535-.015-.535.232l-.259 7.862c-2.455-3.05-6.345-7.906-6.45-8.059-.16-.233-.551-.162-.578.173-.034.446-.705 10.15-.705 10.15-.025.774-.13 1.3-.823 1.391-.121.018-.337.032-.48.032-.128 0-.18.032-.144.123.047.125.153.156.36.156.825 0 1.679-.047 1.854-.047.492 0 1.191.047 1.699.047.173 0 .257-.031.21-.156-.034-.091-.093-.123-.283-.123h-.238c-.492 0-.71-.201-.816-.48-.07-.185-.13-.556-.118-.943l.022-2.21c-.005-.094.016-.124.096-.124h3.372c.078 0 .138.03.198.11l2.501 3.07c.066.082.097.226-.026.347-.024.023-.105.078-.165.097-.196.063-.5.046-.682.046-.141 0-.146.09-.146.184 0 .141.13.171.311.171.729 0 1.387-.016 1.511-.016l1.503-.003c.48.01.939.03 1.22.03.616 0 .716-.031.67-.156-.04-.109.007-.163-.12-.163-.19 0-.21.01-.466-.038-.362-.076-.793-.522-1.921-1.915l-.236-.294-.094-5.672c.253.298 6.507 7.102 7.39 8.038.153.173.32.345.473.345.128 0 .183-.14.183-.486l.154-9.851c.014-.874.117-1.23.517-1.327.15-.036.56-.044.864.02.515.11.642.36.673.892.03.501.03.938.03 3.315l.001 2.753c0 1.437 0 2.674-.08 3.33-.061.453-.14.799-.452.86-.14.032-.33.064-.563.064-.187 0-.25.046-.25.124 0 .11.11.156.312.156.626 0 2.061-.07 2.135-.067 1.434.076 2.692.055 3.385.032.572-.02 1.418.074 1.63.074.174 0 .316-.026.318-.158 0-.074-.046-.125-.194-.125h-.235c-.484 0-.426-.216-.256-.464l2.225-3.21c.06-.094.102-.126.18-.126l3.145-.015c.078 0 .114.031.12.11l.126 3.265c.017.188-.138.33-.258.36-.163.017-.267.032-.262.17.005.132.138.153.425.145.567-.012 1.004-.026 1.645-.017.568.008 1.15.054 1.455.054.578 0 .78-.077.822-.202.035-.11-.065-.17-.19-.17M144.509 13.796c-2.639 0-4.217-2.59-4.217-5.856 0-3.908 1.798-4.912 3.378-4.912 2.252 0 4.024 2.18 4.024 5.698 0 4.536-2.225 5.07-3.185 5.07m-.426-11.582c-4.336 0-5.97 3.504-5.97 6.215 0 1.314.369 2.758 1.183 3.924-.067.275-.221.6-.377.768-.39.424-1.372.438-2.2.438-1.22 0-1.304-.11-1.569-.343-.329-.28-.329-1.36-.329-3.363V7.1c0-2.377 0-2.815.031-3.316.032-.547.157-.813.579-.891.187-.03.439-.047.61-.047.187 0 .282-.03.282-.14 0-.11-.11-.14-.33-.14-.608 0-2.1.046-2.475.046-.422 0-1.446-.047-2.18-.047-.236 0-.344.031-.344.14 0 .112.093.14.265.14.204 0 .391.017.516.048.516.109.642.36.673.891.032.501.032.94.032 3.316v2.752c0 1.44 0 2.675-.079 3.333-.062.451-.14.796-.453.86-.142.03-.329.06-.564.06-.187 0-.25.05-.25.127 0 .108.11.156.314.156.624 0 1.648-.048 2.008-.048 1.267 0 2.697.094 4.947.094.813 0 .893-.077.986-.422.079-.286.151-.86.194-1.284.94 1.13 2.363 1.915 4.357 1.915 3.672 0 5.983-2.87 5.983-6.5 0-3.631-2.24-5.93-5.84-5.93M46.095 9.77l-2.549-.013c-.026 0-.084-.033-.031-.109.244-.355 1.757-2.534 2.412-3.469.043-.062.102-.042.105.02.02.467.173 3.477.173 3.477 0 .046-.032.094-.11.094m3.925 4.469c-.19 0-.418-.014-.636-.063-.303-.077-.593-.424-.725-1.832-.222-2.377-.638-8.762-.722-9.625-.027-.288-.318-.348-.497-.218-.132.098-.316.376-.502.629-2.164 2.955-3.585 4.865-5.427 7.353-.281-1.136-1.168-2.074-3.004-3.291l-.52-.333c-1.54-1-1.975-1.557-1.997-2.287-.029-.953.77-1.636 2.117-1.636 1.182 0 1.724.477 2.006.778.394.413.5.905.504 1.048.007.19.064.286.19.286.146 0 .197-.127.187-.476-.038-1.24.021-1.7.016-1.906-.004-.11-.096-.158-.261-.19-.477-.111-1.245-.27-2.428-.27-2.53 0-4.165 1.255-4.113 3 .039 1.287.763 2.398 2.805 3.765l.855.57c1.54 1.017 1.836 1.763 1.86 2.541.025.842-.747 1.811-2.385 1.811-1.128 0-2.214-.43-2.65-1.604-.1-.27-.181-.604-.187-.81-.004-.127-.027-.27-.19-.27-.146 0-.179.176-.207.412-.018.153-.073.524-.092.628-.11.646-.3.978-.71 1.168-.411.19-1.075.19-1.485.19-1.611 0-2.78-.237-2.811-1.326-.016-.46 0-1.911 0-2.45V8.585c0-.095.016-.157.094-.157.379 0 2.628.015 2.927.047.585.063.806.3.885.615.047.206.047.412.063.57 0 .078.032.142.143.142.14 0 .14-.175.14-.3 0-.11.033-.742.064-1.059.048-.805.127-1.058.127-1.153 0-.095-.048-.126-.11-.126-.08 0-.143.079-.253.205-.142.159-.38.205-.758.237-.364.032-2.865.032-3.212.032-.094 0-.11-.064-.11-.174V3.467c0-.11.03-.158.11-.158.315 0 2.659.032 2.927.064.79.094.948.284 1.059.568.078.19.094.458.094.57 0 .141.032.22.142.22.111 0 .143-.094.159-.175.03-.189.062-.884.078-1.042.048-.727.126-.916.126-1.026 0-.08-.014-.143-.094-.143s-.174.048-.253.064c-.126.032-.379.063-.679.093-.3.018-4.128.018-4.633.018-.221 0-.584-.018-.995-.032-.325 0-.692-.01-1.05-.014-.015-.08-.047-.114-.114-.114-.122 0-.5.155-1.503.155h-5.317c-.517 0-1.11-.03-1.564-.078-.391-.03-.541-.13-.668-.13-.086 0-.14.033-.183.204h-.155c-.209 0-.417.007-.614.017-.34.012-.628.027-.811.03-.318-.006-.947-.047-1.625-.047-.21 0-.362.016-.362.14 0 .093.056.14.222.14.196 0 .53 0 .739.094.299.14.43.39.464 1.128l.05 6.356c-.236-.25-7.126-7.916-7.329-8.071-.263-.199-.533-.016-.533.232l-.135 4.113-.19 5.434c-.016 1.357-.282 1.625-.645 1.843-.165.1-.458.148-.66.157-.062.003-.71.032-.986-.034-.418-.1-.669-.383-.717-.806-.063-.674-.063-1.909-.063-3.43V7.054c0-2.38 0-2.818.033-3.32.03-.547.157-.814.578-.891.186-.032.31-.048.465-.048.157 0 .249-.03.249-.157 0-.092-.124-.125-.326-.125-.592 0-1.513.047-1.9.047-.453 0-1.434-.047-2.027-.047-.249 0-.375.033-.375.125 0 .127.094.157.251.157.185 0 .39.016.562.062.341.079.499.345.528.877.032.502.032.94.032 3.32v2.755c0 1.52 0 2.755-.077 3.413-.048.454-.142.72-.454.784-.139.03-.327.062-.56.062-.188 0-.25.047-.25.126 0 .11.11.157.312.157.624 0 1.605-.048 1.965-.048.418 0 2.766.046 2.84.046.807 0 1.625-.025 1.764-.025.295 0 .916.047 1.925.047.217 0 .357-.032.357-.157 0-.093-.093-.123-.265-.123-.247 0-.542-.017-.806-.11-.31-.11-.513-.515-.543-1.731l-.058-3.072-.05-3.057c.252.297 6.476 7.101 7.354 8.038.153.172.32.344.472.344.126 0 .182-.14.182-.485l.153-9.851c.002-.123.006-.236.012-.34.048-.593.18-.813.453-.94.147-.066.352-.084.53-.09-.01.451 0 1.365 0 1.56 0 .175.031.252.14.252.093 0 .14-.063.173-.188.03-.127.109-.316.265-.551.234-.345.612-.425 1.52-.457l1.566-.063v6.45c0 1.447 0 2.69-.077 3.35-.047.456-.233.801-.546.866-.142.03-.644.062-.879.062-.188 0-.25.047-.25.126 0 .11.11.158.314.158.624 0 2.017-.048 2.376-.048.44 0 1.427.048 2.458.048.173 0 .3-.048.3-.158 0-.08-.08-.126-.252-.126-.234 0-.58-.032-.799-.062-.467-.065-.562-.41-.61-.85-.078-.677-.078-1.919-.078-3.367V3.35l1.54.048c1.394.032 1.869.472 1.9.88l.015.174c.017.236.048.314.173.314.094 0 .125-.094.14-.252l-.004-1.746c.119.008.229.02.296.037.52.111.648.363.68.9.03.506.03.948.03 3.348v2.78c0 1.454 0 2.701-.078 3.365-.064.457-.143.806-.459.868-.142.032-.331.063-.569.063-.189 0-.252.047-.252.127 0 .11.11.157.316.157.316 0 .726-.016 1.09-.031.379 0 .726-.017.9-.017.474 0 .964.017 1.643.048.678.017 2.464.048 3.648.048.6 0 .742 0 .853-.41l.011-.052c.045.118.137.175.32.244.791.3 1.613.413 2.669.413.348 0 .703-.02 1.056-.068.468.005.863 0 1.156-.01.572-.02 1.417 0 1.63 0 .173 0 .315.02.317-.113.001-.074-.044-.125-.193-.125h-.235c-.485 0-.427-.217-.258-.463l2.225-3.212c.062-.093.104-.124.182-.124l3.145-.016c.078 0 .114.032.12.11l.125 3.266c.017.188-.138.329-.257.36-.162.015-.268.03-.263.169.006.131.14.151.426.145.567-.012 1.003-.027 1.644-.017.568.008 1.15.055 1.456.055.579 0 .78-.078.82-.203.036-.11-.062-.17-.188-.17M70.554 4.755l-.005-.004c-.102-.061-.257-.096-.361-.05-.666-.064-1.3-.057-1.973-.05h-.047c-.337.005-.685.009-1.033.004l-2.818-.059c-.66-.017-1.385-.012-2.095.015-.526.004-1.036.018-1.557.033-.542.014-1.835.019-2.608.02l-.655.003c-.092.007-.202.133-.205.237-.002.056.033.122.131.131.073.009.54.01 1.39.008l.867-.004c.23-.002.338.003.389-.003h.005c.637-.063 1.278-.06 1.897-.056h.048c.401.002.816.004 1.233-.012.087.02.178.002.266-.017l.014-.002c.038-.008.08-.016.119-.018.095.026.203.025.318.023.11-.003.223-.005.325.02l.001.003.018-.001v-.003c.09-.03.173-.014.26.003l.015.002c.041.01.08.016.118.017.806-.022 1.697.007 2.808.093l.526.056v-.001h.006c.468-.045.95-.01 1.418.024h.011c.352.027.683.052 1.013.044v.004l.02-.007v-.004l.175-.14v.001l.008-.008v-.002c.058-.093.039-.224-.042-.3M65.891 10.744l.014-.009V10.7l-.012-1.097V9.6l-.001-.003c-.02-.165-.023-.348-.028-.541-.004-.217-.009-.442-.038-.641-.006-.284-.062-.59-.117-.885l-.037-.2-.003-.019-.013-.013c-.044-.045-.06-.1-.076-.164-.014-.054-.03-.11-.064-.162-.073-.135-.19-.264-.292-.38l-.006-.005c-.025-.035-.055-.054-.082-.07-.016-.01-.03-.02-.046-.034l-.023-.02-.014.003-.02-.015c-.092-.074-.179-.103-.28-.136h-.001c-.03-.042-.085-.048-.122-.049V6.24l-.053-.007-.243-.037-.036-.005-.023.029c-.009.011-.01.014-.061-.005-.025-.008-.05-.018-.078-.02l-.029-.003-.014.014-.028-.017-.102-.03-.007.047c-.046 0-.084.008-.116.025h-.162l-.148.002.016.058-.003.002c-.066-.018-.115.022-.143.046l-.014.011c-.053.008-.083.03-.104.047-.016.012-.021.016-.035.017l-.026.002-.017.02c-.022.027-.092.058-.13.076l-.082.036.017.018c-.013.005-.026.014-.038.025h-.08v.063l-.009-.002-.045-.019c-.003 0-.031.039-.031.039-.049.067-.112.134-.179.204-.077.083-.158.169-.219.262l-.02.026.013.029c-.015.008-.052.032-.059.077-.03.033-.037.077-.042.106-.001.009-.003.022-.006.028-.033.038-.039.078-.044.108-.005.023-.007.036-.016.048l-.04.05.018.013c-.012.03-.012.06-.012.08l-.001.025-.027.015.007.04c.01.077 0 .15-.01.224-.01.073-.02.147-.011.23-.03.046-.023.1-.018.134.002.011.004.028.003.035l-.039.03.028.047c.021.035.004.092-.011.146-.016.052-.034.115-.015.17l-.014.015c-.006.009-.013.026-.011.045 0 .043-.005.056-.006.06l-.029.06-.004.022.052.037c-.006.035-.002.069.003.098.006.039.007.056-.005.072l-.032.06.032.038v.01c-.001.027-.004.075.03.11 0 .007.002.013.003.02l-.059.015.038.083-.003.02c-.007.024-.017.073.007.116-.018.048-.007.094.001.126l.006.03c-.056.059-.029.137-.013.18-.026.04-.02.086-.015.115l-.076.027.078.08c-.003.016-.003.037.009.06.009.013.02.022.032.026l-.023.009.002.008.027.07v.008c-.006.041.003.082.023.114-.007.008-.011.02-.013.034l-.03.03.03.043c.023.032.014.076-.003.144-.014.058-.034.136.001.2l-.043.04.054.041-.003.009c-.014.024-.04.073-.009.123l-.002-.006c.011.025.006.066.001.108-.007.062-.017.136.017.211l-.011.074.003-.01c-.009.03-.003.054.007.071l-.024.012.017.052c.017.054.017.12.017.19.001.132.001.282.12.397l.027.024.033-.01c.09-.026.093-.116.096-.162.001-.011.001-.021.003-.029v-.012l-.003-.012c-.036-.122-.02-.281-.007-.422l.01-.107v-.016l-.006-.016c-.025-.049-.019-.096-.012-.152.007-.05.012-.108-.006-.166.02-.257.01-.561-.002-.83-.004-.112-.01-.22-.011-.32v-.006c-.016-.126-.011-.261-.007-.394.002-.119.006-.24-.004-.352.027-.128.026-.245.023-.369V8.77l.001-.016-.004-.009c.028-.031.034-.066.02-.1.013-.048.015-.092.016-.132 0-.033.002-.064.009-.091l.003-.015-.004-.015c-.007-.027 0-.058.007-.092.01-.04.02-.087.003-.134.047-.096.059-.214.067-.328l.004-.04c.004-.025-.005-.05-.025-.07v-.003c0-.051.027-.092.06-.143.036-.057.076-.122.088-.209v-.017l.014-.014c.021-.017.055-.046.055-.092 0-.008-.002-.016-.004-.024.042-.039.069-.082.092-.12.035-.06.06-.101.128-.12l.033-.01.008-.034c.01-.038.043-.059.096-.092.04-.024.083-.053.115-.094.044.004.07-.008.086-.025.053-.013.095-.045.128-.071.056-.046.075-.055.113-.037l.038.016.025-.024h.005c.018-.006.049-.014.066-.043l.045-.012c.031-.011.039-.012.05-.007.01.007.031.014.056.009l.002.004.046-.006.059-.007c.176-.023.328-.042.465.03l.049.027.03-.044c.005.007.012.013.017.021.035.039.097.107.187.091.02.019.042.031.06.043l.026.015v.004l.013.015c.028.037.086.055.134.057.103.108.207.258.207.322v.06h.047v.004c.017.08.04.18.103.246-.018.04-.003.09.004.11l.006.023-.016.046.041.04.009.006c-.003.041.016.08.03.107.003.008.008.016.01.024l-.01.022c-.054.105.02.163.054.19.007.006.01.009.013.01-.027.022-.025.044-.031.081l.004.047.02.03h.002l.001.007c.003.008.007.021.015.035l-.02.02-.016.055.031.043.024.013c-.001.024.008.046.016.061l.003.01-.005.026c-.02.1-.046.23.017.334l-.006.006c-.028.039-.022.083-.017.115.002.01.005.027.004.032L65.43 9c-.002.003.02.009.037.012-.001.007-.004.012-.007.02l-.012.072h.024c-.004.025-.005.048-.006.069 0 .037-.001.06-.014.078l-.006.01-.002.01c-.019.065.006.127.026.178l.01.026c-.01.013-.02.029-.02.054 0 .005.004.01.005.014l-.014.014.013.034c.006.021.018.033.033.042l-.01.003c-.002 0-.002.047-.002.047v.016l-.04.012.02.04c-.01.018-.02.045-.01.075l-.025.046c.001 0 .004.028.027.04-.023.082.036.144.073.18.015.015.025.027.031.035h-.03l.024.08v.001c-.005.004-.01.012-.015.018l-.052.023.017.068-.005.017c-.012.036-.002.059.008.075l.008.006c-.02.018-.04.044-.044.085l-.006.058.048.007c-.005.013-.008.025-.01.036-.007.02-.012.039-.022.054l-.004.008.082.046c-.012.02-.018.043-.023.058l-.009.026H65.453l.003.08c.003.011.006.025.008.042.001.015.003.03.007.048v.08c0 .01 0 .027.004.044l-.01.005.006.044c.004.022.002.045 0 .065l-.001.042-.056.028.068.075v.003c-.009.018-.018.042-.018.07h-.049l.083.102c.007.007.013.03.018.046l.001.006c-.034.033-.04.083-.042.108-.001.012-.003.029-.005.033l.021.028c-.016.012-.026.025-.032.036-.008.02-.008.04-.006.058h-.08l.066.065-.061.021.051.042v.163c0 .03.014.055.038.067h.004c.033.023.068.022.097.015v.069l.08-.024c.057-.017.1-.02.146-.011l.065.013.009-.065c.03-.244.025-.48.019-.71-.007-.222-.012-.434.016-.64.018-.04 0-.079-.012-.097M61.214 10.744l.014-.009V10.7l-.013-1.097v-.006c-.02-.165-.023-.348-.028-.541-.004-.217-.01-.442-.04-.641-.004-.284-.06-.59-.115-.885l-.037-.2-.003-.019-.014-.013c-.044-.045-.059-.1-.076-.164-.013-.054-.029-.11-.062-.162-.073-.135-.19-.264-.293-.38l-.005-.005c-.026-.035-.056-.054-.083-.07-.016-.01-.03-.02-.046-.034l-.023-.02-.014.003-.019-.015c-.092-.074-.18-.103-.28-.136h-.002c-.03-.042-.084-.048-.122-.049V6.24l-.052-.007-.244-.037-.036-.005-.023.029c-.008.011-.01.014-.062-.005-.023-.008-.05-.018-.077-.02l-.03-.003-.013.014c-.008-.005-.016-.011-.028-.017l-.101-.03-.008.047c-.045 0-.084.008-.116.025H59l-.149.002.017.058-.003.002c-.065-.018-.115.022-.142.046l-.015.011c-.053.008-.084.03-.105.047-.016.012-.02.016-.035.017l-.026.002-.015.02c-.023.027-.094.058-.13.076l-.084.036.019.018c-.013.005-.027.014-.04.025h-.08v.063l-.008-.002-.044-.019c-.004 0-.033.039-.033.039-.048.067-.11.134-.177.204-.078.083-.159.169-.22.262l-.02.026.013.029c-.015.008-.052.032-.058.077-.031.033-.038.077-.043.106 0 .009-.003.022-.005.028-.033.038-.04.078-.046.108-.003.023-.006.036-.016.048l-.038.05.017.013c-.012.03-.012.06-.012.08l-.001.025-.026.015.006.04c.01.077 0 .15-.01.224-.01.073-.02.147-.01.23-.031.046-.024.1-.02.134.003.011.005.028.004.035l-.04.03.029.047c.021.035.004.092-.012.146-.014.052-.033.115-.013.17-.006.004-.01.01-.015.015-.007.009-.012.026-.011.045 0 .043-.004.056-.006.06l-.029.06-.005.022.053.037c-.006.035-.002.069.003.098.007.039.007.056-.004.072l-.033.06.032.038v.01c-.001.027-.004.075.03.11 0 .007.001.013.004.02l-.06.015.038.083-.003.02c-.006.024-.018.073.007.116-.018.048-.007.094 0 .126l.007.03c-.056.059-.028.137-.013.18-.027.04-.02.086-.015.115l-.076.027.077.08c-.003.016-.003.037.01.06.009.013.02.022.032.026l-.023.009.003.008h-.001l.028.07-.002.008c-.006.041.004.082.024.114-.007.008-.011.02-.013.034l-.03.03.03.043c.023.032.014.076-.003.144-.015.058-.033.136.001.2l-.042.04.053.041c0 .003-.003.006-.004.009-.014.024-.038.073-.007.123l-.003-.006c.011.025.006.066 0 .108-.006.062-.015.136.017.211l-.01.074.003-.01c-.01.03-.002.054.007.071l-.024.012.017.052c.016.054.017.12.018.19 0 .132 0 .282.12.397l.025.024.035-.01c.089-.026.093-.116.096-.162l.002-.029.001-.012-.003-.012c-.036-.122-.021-.281-.007-.422.002-.038.006-.072.009-.107v-.016l-.007-.016c-.024-.049-.018-.096-.011-.152.006-.05.012-.108-.006-.166.021-.257.009-.561-.002-.83-.004-.112-.009-.22-.01-.32v-.002l-.001-.004c-.015-.126-.012-.261-.008-.394.004-.119.008-.24-.004-.352.029-.128.027-.245.025-.369-.001-.056-.002-.114 0-.174v-.016l-.004-.009c.028-.031.034-.066.02-.1.013-.048.015-.092.015-.132.002-.033.003-.064.01-.091l.003-.015-.003-.015c-.009-.027-.001-.058.006-.092.009-.04.02-.087.003-.134.048-.096.058-.214.068-.328l.004-.04c.003-.025-.005-.05-.025-.07v-.003c0-.051.026-.092.059-.143.036-.057.077-.122.087-.209l.002-.014v-.003c.003-.005.008-.01.013-.014.022-.017.055-.046.055-.092 0-.008-.002-.016-.004-.024.043-.039.068-.082.092-.12.034-.06.059-.101.128-.12l.032-.01.009-.034c.01-.038.043-.059.095-.092.04-.024.083-.053.116-.094.044.004.07-.008.086-.025.054-.013.095-.045.128-.071.057-.046.075-.055.113-.037l.038.016.025-.024h.004c.018-.006.048-.014.067-.043l.045-.012c.03-.011.039-.012.05-.007.01.007.03.014.056.009l.002.004.045-.006.06-.007c.176-.023.327-.042.464.03l.05.027.03-.044.018.021c.035.039.097.107.186.091.02.019.041.031.06.043l.027.015v.004l.011.015c.029.037.088.055.134.057.104.108.208.258.208.322v.06h.046v.004c.018.08.041.18.103.246-.017.04-.002.09.005.11l.006.023-.015.046.04.04.01.006c-.004.041.015.08.03.107l.01.024-.01.022c-.055.105.019.163.054.19.005.006.009.009.013.01-.027.022-.026.044-.032.081l.005.047.018.03h.002l.002.007c.004.008.007.021.015.035l-.021.02-.014.055.03.043.024.013c-.002.024.01.046.016.061l.003.01-.005.026c-.02.1-.045.23.016.334-.001.003-.003.004-.005.006-.028.039-.021.083-.016.115.001.01.005.027.003.032L60.75 9c-.001.003.021.009.038.012-.002.007-.005.012-.005.02l-.015.072h.025c-.004.025-.004.048-.005.069-.001.037-.002.06-.015.078l-.005.01-.003.01c-.018.065.006.127.026.178.004.01.008.018.01.026-.01.013-.02.029-.018.054 0 .005.001.01.003.014l-.014.014.012.034c.007.021.019.033.034.042l-.01.003c-.003 0-.003.047-.003.047v.016l-.037.012.018.04c-.008.018-.02.045-.008.075l-.027.046s.005.028.028.04c-.025.082.036.144.072.18l.032.035h-.03l.022.08.001.001c-.005.004-.01.012-.016.018l-.05.023.016.068-.005.017c-.012.036-.002.059.008.075l.007.006c-.018.018-.038.044-.043.085l-.005.058.047.007c-.005.013-.009.025-.011.036-.006.02-.01.039-.021.054l-.004.008.082.046c-.011.02-.018.043-.023.058-.002.01-.006.02-.009.026H60.775l.004.08c.005.011.006.025.008.042.001.015.003.03.007.048v.08c0 .01 0 .027.004.044l-.01.005.007.044c.003.022.002.045 0 .065 0 .013-.003.028-.002.042l-.055.028.068.075-.002.003c-.008.018-.017.042-.017.07h-.05l.084.102c.006.007.013.03.017.046l.002.006c-.034.033-.039.083-.041.108-.002.012-.003.029-.007.033h.002l.022.028c-.017.012-.027.025-.032.036-.01.02-.01.04-.008.058h-.08l.067.065-.062.021.051.042v.163c0 .03.014.055.038.067h.003c.033.023.07.022.1.015v.069l.077-.024c.058-.017.102-.02.148-.011l.064.013.009-.065c.03-.244.024-.48.018-.71-.006-.222-.011-.434.018-.64.017-.04 0-.079-.013-.097M70.487 10.826l.015-.008v-.035l-.013-1.098V9.68c-.02-.165-.024-.347-.028-.54-.006-.218-.01-.443-.039-.64-.006-.286-.062-.59-.116-.885l-.038-.201-.003-.018-.013-.015c-.044-.044-.06-.099-.076-.163-.014-.055-.029-.11-.063-.162-.073-.135-.19-.265-.293-.38l-.006-.006c-.025-.034-.055-.053-.082-.07-.014-.01-.03-.02-.044-.033l-.024-.02-.015.003-.019-.015c-.092-.074-.178-.103-.28-.136h-.002c-.029-.042-.084-.048-.121-.05V6.32l-.053-.008-.244-.036-.036-.006-.022.03c-.008.012-.01.015-.063-.004-.023-.007-.049-.018-.077-.02l-.028-.003-.014.014c-.008-.007-.017-.011-.028-.017l-.102-.03-.007.046c-.046 0-.085.01-.117.026h-.31l.017.058-.003.004c-.066-.018-.117.022-.144.045-.005.005-.01.01-.013.011-.054.01-.083.031-.105.048-.016.012-.02.016-.035.017l-.026.002-.016.02c-.022.028-.092.057-.131.075l-.082.036.018.017c-.013.007-.027.015-.04.027h-.078v.063l-.01-.001-.044-.02c-.004-.001-.032.039-.032.039-.048.067-.111.134-.178.204-.078.083-.158.168-.22.261l-.02.028.013.027c-.014.01-.052.033-.06.078-.029.032-.036.077-.04.106-.002.01-.004.022-.006.026-.032.04-.04.08-.045.11-.004.023-.006.036-.016.048l-.039.05.018.013c-.013.03-.013.06-.013.079l-.001.026-.026.015.006.04c.01.077.001.148-.01.225-.01.072-.018.147-.011.23-.03.045-.022.099-.017.133.001.012.004.027.003.034l-.04.03.028.047c.022.036.005.093-.011.147-.015.052-.034.116-.015.17-.005.005-.01.01-.013.016-.007.009-.012.025-.012.046 0 .04-.004.053-.006.058l-.028.059-.005.024.052.036c-.006.036-.001.069.003.097.006.04.008.057-.003.072l-.034.06.033.039v.01c-.002.026-.005.075.029.11 0 .007.003.013.003.02l-.059.015.04.083-.005.02c-.007.025-.017.073.008.116-.02.048-.008.095.001.127l.006.028c-.057.06-.03.138-.014.18-.026.04-.02.088-.015.116l-.075.026.077.08c-.003.018-.003.038.01.06.009.014.02.022.031.028l-.023.006c0 .005.002.006.003.009l.027.071v.007c-.008.042.003.084.023.114-.007.01-.012.02-.013.035l-.03.03.03.042c.023.034.014.076-.004.145-.014.059-.033.135.002.2l-.043.042.055.039-.005.008c-.014.026-.039.073-.008.124l-.003-.006c.012.025.006.065.001.108-.007.061-.016.137.017.21l-.01.074.002-.008c-.009.028-.002.053.007.071l-.024.012.017.05c.017.054.017.121.017.19.002.133.002.283.12.397l.027.026.034-.011c.09-.027.093-.115.097-.164l.001-.027.001-.013-.002-.013c-.036-.121-.022-.28-.008-.42l.01-.106v-.018l-.007-.014c-.025-.05-.018-.098-.011-.154.006-.05.012-.107-.007-.165.021-.257.01-.56-.001-.83-.005-.114-.01-.221-.01-.318l-.002-.004v-.004c-.015-.126-.01-.263-.007-.393.004-.12.007-.241-.004-.353.028-.127.027-.245.024-.369 0-.056-.003-.115 0-.175v-.015l-.003-.008c.027-.033.034-.067.02-.102.012-.047.014-.092.016-.132 0-.032.002-.061.008-.09l.004-.015-.005-.015c-.007-.028 0-.058.008-.09.009-.042.02-.089.003-.136.048-.097.058-.215.067-.33l.004-.038c.003-.026-.004-.049-.025-.07v-.004c0-.05.026-.091.06-.143.035-.056.076-.12.087-.209l.001-.014v-.002l.013-.013c.022-.019.056-.048.055-.093 0-.008-.002-.017-.004-.024.042-.04.069-.082.092-.122.035-.058.06-.1.128-.118l.034-.011.008-.032c.01-.038.043-.06.096-.093.039-.025.082-.052.115-.094.043.004.07-.01.086-.025.053-.013.094-.044.127-.072.057-.045.076-.055.114-.037l.038.017.024-.023.006-.002c.017-.004.048-.014.065-.042l.045-.013c.031-.01.038-.012.05-.006.012.006.032.014.057.008l.001.004.046-.006.059-.006c.176-.024.328-.043.465.03l.049.028.03-.045c.006.007.012.015.018.02.035.04.097.108.186.092.02.017.042.031.061.043l.025.015v.002l.013.017c.028.037.087.055.134.057.103.108.208.256.208.322v.06h.046v.004c.018.081.04.18.103.244-.018.042-.002.092.004.112.003.006.004.016.007.023l-.015.046.04.04.008.005c-.002.042.018.082.03.109.004.007.008.015.01.023l-.008.022c-.055.104.018.163.054.19l.013.012c-.028.021-.027.042-.032.08l.004.046.019.03h.002l.001.006c.004.01.008.022.015.036l-.02.02-.015.054.03.045.024.012c-.001.024.01.046.016.061l.003.009-.005.028c-.02.1-.046.23.017.335l-.004.002c-.03.04-.023.084-.017.116 0 .01.004.029.002.034l-.015.062c0 .003.02.008.038.012l-.007.02-.013.072h.026c-.006.024-.006.047-.007.068 0 .037-.002.061-.015.08l-.005.01-.002.008c-.018.067.005.128.025.178l.01.028c-.01.012-.02.027-.019.051 0 .006.003.011.004.016l-.013.013.012.036c.006.02.018.033.034.04l-.01.002c-.003 0-.003.049-.003.049v.017l-.038.01.02.04c-.01.02-.021.045-.01.076l-.027.046s.004.028.029.04c-.026.083.036.144.07.18.016.016.027.026.033.036h-.03l.023.078v.002c-.005.005-.01.01-.015.018l-.05.024.015.067-.005.018c-.01.035-.002.06.008.073l.007.007c-.018.019-.038.044-.041.084l-.007.058.047.008c-.004.012-.008.024-.01.035-.007.023-.011.04-.022.055h.001c0 .003-.003.006-.004.008l.082.045c-.012.022-.019.043-.023.06l-.01.024H70.048l.005.081.007.042c.001.015.003.031.008.048v.08c0 .01 0 .026.003.044l-.009.005.007.044c.003.022 0 .044 0 .066-.002.012-.002.026-.002.041l-.057.028.07.074c-.002.001-.003.004-.003.005-.007.018-.017.043-.017.07h-.049l.083.1c.007.008.014.032.018.047l.001.007c-.033.033-.038.08-.041.108-.002.01-.003.027-.005.032l.02.027c-.015.012-.025.026-.031.037-.009.02-.009.039-.006.057h-.08l.066.067-.062.02.051.042v.164c0 .03.016.053.038.067h.006c.031.023.067.02.097.015v.067l.078-.023c.057-.017.101-.02.146-.012l.065.014.01-.066c.03-.243.024-.48.018-.708-.006-.223-.012-.434.016-.64.02-.041 0-.078-.012-.099"></path><mask id="f30avluw9c" fill="#fff"><use xlink:href="#i1s2zj9mqb"></use></mask><path fill="#231F20" d="M56.381 15.953h15.063V.89H56.38v15.063zM72.335 0H55.494v16.842h16.841V0z" mask="url(#f30avluw9c)"></path></g></g></g></g></g></svg> 