<?xml version="1.0" encoding="UTF-8"?> <svg xmlns="http://www.w3.org/2000/svg" width="135" height="16" viewBox="0 0 135 16"><g fill="none" fill-rule="evenodd" opacity=".776"><g fill="#FFF"><g><g><path d="M0 14.716l.808-.807c.197-.197.295-.42.295-.67V.493H1.3L10.953 9.2V2.798c0-.25-.098-.473-.295-.67L9.85 1.32v-.197h5.103v.197l-.808.808c-.197.197-.295.42-.295.67v12.647h-.197L3.999 6.718v6.52c0 .25.099.474.296.67l.807.808v.197H0v-.197zM24.054 12.392c1.484 0 2.226-.585 2.226-1.754 0-1.103-.742-1.655-2.226-1.655h-3.428v3.409h3.428zm.059-5.812c1.116 0 1.674-.486 1.674-1.458 0-.46-.14-.827-.423-1.103s-.7-.414-1.251-.414h-3.487V6.58h3.487zm-7.743 8.136l.808-.807c.197-.197.296-.42.296-.67V2.797c0-.25-.099-.472-.296-.67l-.808-.807v-.197h8.137c1.418 0 2.505.322 3.26.965.755.644 1.133 1.498 1.133 2.561 0 1.603-.827 2.607-2.482 3.015v.039c2.035.355 3.053 1.478 3.053 3.369 0 1.26-.443 2.216-1.33 2.866-.886.65-2.124.975-3.713.975H16.37v-.197zM33.253 13.249c-1.366-1.294-2.049-3.024-2.049-5.191 0-2.18.69-3.92 2.069-5.221 1.38-1.3 3.126-1.95 5.24-1.95.473 0 1.051.042 1.734.128.683.085 1.11.128 1.28.128.5 0 .96-.165 1.38-.493l.197.079-1.182 4.669-.217-.06c-.144-.498-.47-.932-.975-1.3-.506-.367-1.179-.55-2.02-.55-1.195 0-2.183.416-2.964 1.25-.782.834-1.173 1.947-1.173 3.34 0 1.352.368 2.446 1.104 3.28.735.834 1.7 1.25 2.896 1.25 1.392 0 2.488-.544 3.29-1.635l1.852 2.148c-1.288 1.379-3.04 2.068-5.26 2.068-2.102 0-3.836-.647-5.202-1.94M47.575 13.731c-1.077-.972-1.616-2.384-1.616-4.235V2.798c0-.25-.098-.473-.295-.67l-.808-.808v-.197h5.32v.197l-.808.808c-.197.197-.296.42-.296.67v6.777c0 .998.243 1.746.73 2.245.485.5 1.181.749 2.087.749.893 0 1.58-.253 2.059-.758.48-.506.72-1.252.72-2.236V2.798c0-.25-.1-.473-.296-.67l-.808-.808v-.197h5.358v.197l-.807.808c-.197.197-.296.42-.296.67v6.698c0 1.852-.542 3.263-1.625 4.235-1.084.972-2.519 1.458-4.305 1.458-1.799 0-3.237-.486-4.314-1.458M60.36 14.716l.808-.807c.197-.197.295-.5.295-.907V7.368c0-.407-.098-.71-.295-.906l-.808-.808v-.197h3.98v1.694c.223-.538.633-.985 1.23-1.34.598-.354 1.245-.531 1.941-.531 1.025 0 1.82.328 2.384.985.565.657.847 1.576.847 2.758v3.98c0 .407.099.709.296.906l.807.808v.197h-4.058V9.673c0-.565-.131-1.015-.394-1.35-.263-.334-.65-.502-1.162-.502-.604 0-1.058.187-1.36.562-.302.374-.453.857-.453 1.448v3.171c0 .408.099.71.296.907l.807.807v.197H60.36v-.197zM74.061 3.566c-.348-.328-.522-.736-.522-1.222 0-.485.174-.893.522-1.221.348-.328.759-.492 1.232-.492.472 0 .883.164 1.23.492.349.328.523.736.523 1.221 0 .486-.174.894-.522 1.222-.348.328-.759.492-1.231.492-.473 0-.884-.164-1.232-.492zm-1.33 11.15l.808-.807c.197-.197.296-.5.296-.907V7.368c0-.407-.099-.71-.296-.906l-.808-.808v-.197h4.059v7.546c0 .407.098.709.295.906l.808.808v.197H72.73v-.198zM79.587 7.565c-.447-.867-.946-1.497-1.497-1.891v-.217h3.624l1.95 4.57h.04l1.714-4.57h3.684v.217c-.564.394-1.063 1.024-1.497 1.891l-3.9 7.782h-.198l-3.92-7.782zM92.963 8.018c-.341.355-.532.788-.571 1.3h3.704c-.027-.538-.19-.978-.493-1.32-.302-.341-.729-.512-1.28-.512-.565 0-1.018.178-1.36.532m-2.167 5.861c-.932-.873-1.399-2.052-1.399-3.536 0-1.497.46-2.716 1.38-3.655.919-.939 2.166-1.408 3.742-1.408 1.524 0 2.667.443 3.428 1.33.762.886 1.143 2.078 1.143 3.575 0 .302-.013.585-.04.848h-6.619c.066.499.31.919.73 1.26.42.342.978.512 1.674.512.88 0 1.556-.262 2.029-.788l1.635 1.931c-.893.827-2.2 1.241-3.92 1.241-1.59 0-2.85-.436-3.783-1.31M100.449 14.716l.808-.807c.197-.197.295-.5.295-.907V7.368c0-.407-.098-.71-.295-.906l-.808-.808v-.197h3.98v1.911c.223-.604.59-1.103 1.103-1.497.512-.394 1.103-.591 1.773-.591.485 0 .9.092 1.24.276l-.768 2.955c-.42-.368-.893-.552-1.418-.552-.578 0-1.031.19-1.36.571-.328.381-.492.92-.492 1.616v2.856c0 .408.098.71.295.907l.808.807v.197h-5.161v-.197zM108.86 13.909l1.38-2.01c.88.722 1.937 1.084 3.171 1.084.84 0 1.261-.263 1.261-.788 0-.25-.108-.44-.325-.572-.217-.131-.502-.223-.857-.276-.354-.052-.755-.118-1.202-.197-1.93-.328-2.896-1.254-2.896-2.777 0-1.09.385-1.878 1.153-2.364s1.743-.73 2.926-.73c.459 0 .942.043 1.448.129.505.085.843.128 1.014.128.433 0 .867-.164 1.3-.493l.197.08-.926 3.604-.197-.059c-.394-.84-1.28-1.26-2.66-1.26-.827 0-1.24.242-1.24.728 0 .223.101.4.305.532.204.131.476.22.817.266.342.046.73.108 1.163.187.854.145 1.566.434 2.137.867.572.434.857 1.064.857 1.891 0 1.051-.397 1.865-1.191 2.443-.795.578-1.888.867-3.28.867-1.865 0-3.317-.427-4.354-1.28M124.305 12.579c.342-.348.512-.765.512-1.251v-.65c-.17.065-.584.118-1.24.157-1.182.066-1.774.473-1.774 1.222 0 .302.099.551.296.748.197.197.492.296.886.296.539 0 .979-.174 1.32-.522m-4.59 1.852c-.578-.506-.867-1.172-.867-2 0-1.037.378-1.812 1.133-2.324.755-.513 1.934-.782 3.536-.808.5-.013.84-.076 1.025-.187.184-.112.275-.306.275-.582 0-.275-.14-.505-.423-.69-.282-.183-.712-.275-1.29-.275-.88 0-1.682.329-2.404.985l-1.537-1.812c.973-.972 2.384-1.458 4.236-1.458 1.497 0 2.597.302 3.3.906.703.604 1.054 1.524 1.054 2.758v4.059c0 .407.098.709.296.906l.807.808v.197h-3.98v-1.281c-.236.46-.617.834-1.142 1.123-.525.289-1.136.433-1.832.433-.88 0-1.61-.253-2.187-.758M129.663 14.716l.808-.807c.197-.197.295-.5.295-.907V1.911c0-.407-.098-.71-.295-.906l-.808-.808V0h4.059v13.002c0 .408.098.71.295.907l.808.807v.197h-5.162v-.197z" transform="translate(-936 -1327) translate(134 1311) translate(802 16)"></path></g></g></g></g></svg> 