<?xml version="1.0" encoding="UTF-8"?> <svg xmlns="http://www.w3.org/2000/svg" xmlns:xlink="http://www.w3.org/1999/xlink" width="402px" height="48px" viewBox="0 0 402 48" version="1.1"><title>nbcu logo</title><g id="Homepage-Update-11.20" stroke="none" stroke-width="1" fill="none" fill-rule="evenodd"><g id="Artboard" transform="translate(-2250.000000, -1609.000000)" fill="#400095"><g id="Group-26" transform="translate(2250.000000, 1609.000000)"><path d="M0,44.14923 L2.4231,41.72583 C3.0141,41.13483 3.3096,40.46523 3.3096,39.71673 L3.3096,1.47753 L3.9006,1.47753 L32.8605,27.60063 L32.8605,8.39253 C32.8605,7.64373 32.565,6.97383 31.974,6.38313 L29.5509,3.96003 L29.5509,3.36903 L44.8584,3.36903 L44.8584,3.96003 L42.4353,6.38313 C41.8443,6.97413 41.5488,7.64403 41.5488,8.39253 L41.5488,46.33593 L40.9578,46.33593 L11.9976,20.15373 L11.9976,39.71643 C11.9976,40.46493 12.2931,41.13483 12.8841,41.72553 L15.3072,44.14893 L15.3072,44.73993 L0,44.73993 L0,44.14923 Z" id="Fill-1"></path><path d="M72.16113,37.1751 C76.61343,37.1751 78.83973,35.4216 78.83973,31.9149 C78.83973,28.6056 76.61343,26.9505 72.16113,26.9505 L61.87743,26.9505 L61.87743,37.1751 L72.16113,37.1751 Z M72.33813,19.74 C75.68733,19.74 77.36193,18.282 77.36193,15.3663 C77.36193,13.9872 76.93833,12.8841 76.09113,12.0567 C75.24393,11.2293 73.99293,10.8156 72.33813,10.8156 L61.87713,10.8156 L61.87713,19.74 L72.33813,19.74 Z M49.11123,44.1492 L51.53433,41.7258 C52.12533,41.1348 52.42083,40.4652 52.42083,39.7167 L52.42083,8.3925 C52.42083,7.6437 52.12533,6.9738 51.53433,6.3831 L49.11123,3.96 L49.11123,3.369 L73.52013,3.369 C77.77563,3.369 81.03603,4.3344 83.30133,6.2649 C85.56723,8.1954 86.70003,10.7565 86.70003,13.9482 C86.70003,18.7551 84.21783,21.7692 79.25313,22.9908 L79.25313,23.109 C85.36023,24.1731 88.41393,27.5415 88.41393,33.2154 C88.41393,36.9978 87.08403,39.8643 84.42453,41.8146 C81.76503,43.7649 78.05133,44.7402 73.28373,44.7402 L49.11123,44.7402 L49.11123,44.1492 Z" id="Fill-4"></path><path d="M99.75966,39.74589 C95.66196,35.86449 93.61326,30.67389 93.61326,24.17289 C93.61326,17.63199 95.68176,12.41139 99.81906,8.51079 C103.95636,4.61019 109.19646,2.65929 115.54026,2.65929 C116.95866,2.65929 118.69236,2.78769 120.74106,3.04389 C122.79006,3.30009 124.07046,3.42759 124.58256,3.42759 C126.07986,3.42759 127.45896,2.93529 128.71986,1.95039 L129.31086,2.18679 L125.76486,16.19409 L125.11476,16.01679 C124.68156,14.51949 123.70626,13.21929 122.18946,12.11619 C120.67236,11.01309 118.65306,10.46139 116.13156,10.46139 C112.54596,10.46139 109.58106,11.71239 107.23686,14.21439 C104.89266,16.71639 103.72026,20.05569 103.72026,24.23229 C103.72026,28.29039 104.82336,31.57089 107.02986,34.07289 C109.23636,36.57489 112.13226,37.82589 115.71786,37.82589 C119.89446,37.82589 123.18426,36.19059 125.58786,32.92029 L131.14356,39.36249 C127.28226,43.49949 122.02236,45.56829 115.36326,45.56829 C109.05846,45.56769 103.85736,43.62729 99.75966,39.74589" id="Fill-6"></path><path d="M142.7247,41.19405 C139.4937,38.27775 137.8782,34.04235 137.8782,28.48725 L137.8782,8.39265 C137.8782,7.64385 137.5827,6.97395 136.9917,6.38295 L134.5686,3.96015 L134.5686,3.36915 L150.5262,3.36915 L150.5262,3.96015 L148.1028,6.38295 C147.5118,6.97425 147.2163,7.64415 147.2163,8.39265 L147.2163,28.72365 C147.2163,31.71765 147.9453,33.96375 149.4033,35.46105 C150.861,36.95865 152.9493,37.70685 155.6679,37.70685 C158.3472,37.70685 160.4058,36.94875 161.844,35.43165 C163.2822,33.91425 164.0013,31.67835 164.0013,28.72365 L164.0013,8.39265 C164.0013,7.64385 163.7058,6.97395 163.1148,6.38295 L160.6914,3.96015 L160.6914,3.36915 L176.7672,3.36915 L176.7672,3.96015 L174.3441,6.38295 C173.7531,6.97425 173.4576,7.64415 173.4576,8.39265 L173.4576,28.48725 C173.4576,34.04265 171.8322,38.27805 168.5817,41.19405 C165.3312,44.10975 161.0265,45.56745 155.6679,45.56745 C150.27,45.56745 145.9557,44.10975 142.7247,41.19405" id="Fill-8"></path><path d="M181.07943,44.14923 L183.50283,41.72583 C184.09383,41.13483 184.38933,40.22883 184.38933,39.00723 L184.38933,22.10403 C184.38933,20.88273 184.09383,19.97643 183.50283,19.38543 L181.07943,16.96233 L181.07943,16.37133 L193.01823,16.37133 L193.01823,21.45393 C193.68783,19.83843 194.91933,18.49893 196.71213,17.43513 C198.50493,16.37133 200.44533,15.83943 202.53363,15.83943 C205.60683,15.83943 207.99063,16.82433 209.68503,18.79443 C211.37943,20.76453 212.22633,23.52273 212.22633,27.06843 L212.22633,39.00753 C212.22633,40.22883 212.52183,41.13513 213.11283,41.72613 L215.53623,44.14953 L215.53623,44.74053 L203.36103,44.74053 L203.36103,29.01903 C203.36103,27.32463 202.96713,25.97523 202.17903,24.97053 C201.39123,23.96583 200.22873,23.46333 198.69213,23.46333 C196.87953,23.46333 195.52023,24.02493 194.61393,25.14783 C193.70763,26.27073 193.25463,27.71883 193.25463,29.49183 L193.25463,39.00723 C193.25463,40.22853 193.55013,41.13483 194.14113,41.72583 L196.56423,44.14923 L196.56423,44.74023 L181.07943,44.74023 L181.07943,44.14923 L181.07943,44.14923 Z" id="Fill-10"></path><path d="M222.18369,10.69746 C221.13969,9.71256 220.61709,8.49096 220.61709,7.03326 C220.61709,5.57556 221.13939,4.35396 222.18369,3.36906 C223.22739,2.38386 224.45889,1.89156 225.87759,1.89156 C227.29629,1.89156 228.52719,2.38416 229.57149,3.36906 C230.61519,4.35396 231.13779,5.57556 231.13779,7.03326 C231.13779,8.49096 230.61549,9.71256 229.57149,10.69746 C228.52719,11.68236 227.29629,12.17496 225.87759,12.17496 C224.45889,12.17496 223.22769,11.68236 222.18369,10.69746 L222.18369,10.69746 Z M218.19429,44.14926 L220.61709,41.72586 C221.20869,41.13486 221.50359,40.22886 221.50359,39.00726 L221.50359,22.10406 C221.50359,20.88276 221.20869,19.97646 220.61709,19.38546 L218.19429,16.96236 L218.19429,16.37136 L230.36919,16.37136 L230.36919,39.00756 C230.36919,40.22886 230.66439,41.13516 231.25539,41.72616 L233.67879,44.14956 L233.67879,44.74056 L218.19429,44.74056 L218.19429,44.14926 Z" id="Fill-12"></path><path d="M238.76046,22.69497 C237.42096,20.09457 235.92396,18.20337 234.26886,17.02107 L234.26886,16.37097 L245.14326,16.37097 L250.99476,30.08277 L251.11326,30.08277 L256.25466,16.37097 L267.30696,16.37097 L267.30696,17.02107 C265.61316,18.20307 264.11586,20.09457 262.81506,22.69497 L251.11326,46.04007 L250.52196,46.04007 L238.76046,22.69497 Z" id="Fill-14"></path><path d="M278.88954,24.05448 C277.86534,25.11828 277.29444,26.41908 277.17564,27.95508 L288.28674,27.95508 C288.20784,26.33958 287.71554,25.02018 286.80894,23.99568 C285.90294,22.97088 284.62224,22.4587799 282.96744,22.4587799 C281.27304,22.45848 279.91374,22.99098 278.88954,24.05448 M272.38854,41.63718 C269.59074,39.01698 268.19214,35.48088 268.19214,31.02828 C268.19214,26.53668 269.57154,22.88238 272.32944,20.06508 C275.08734,17.24808 278.83044,15.83928 283.55844,15.83928 C288.12924,15.83928 291.55734,17.16918 293.84214,19.82898 C296.12784,22.48818 297.27084,26.06388 297.27084,30.55578 C297.27084,31.46208 297.23064,32.30958 297.15204,33.09768 L277.29444,33.09768 C277.49094,34.59468 278.22024,35.85528 279.48084,36.87948 C280.74114,37.90398 282.41574,38.41638 284.50404,38.41638 C287.14464,38.41638 289.17324,37.62828 290.59194,36.05208 L295.49754,41.84448 C292.81794,44.32638 288.89754,45.56778 283.73604,45.56778 C278.96814,45.56778 275.18574,44.25768 272.38854,41.63718" id="Fill-16"></path><path d="M301.34619,44.14923 L303.76959,41.72583 C304.36089,41.13483 304.65579,40.22883 304.65579,39.00723 L304.65579,22.10403 C304.65579,20.88273 304.36089,19.97643 303.76959,19.38543 L301.34619,16.96233 L301.34619,16.37133 L313.28529,16.37133 L313.28529,22.10403 C313.95459,20.29143 315.05829,18.79443 316.59459,17.61243 C318.13149,16.43043 319.90419,15.83943 321.91359,15.83943 C323.37129,15.83943 324.61299,16.11513 325.63719,16.66683 L323.33199,25.53243 C322.07109,24.42903 320.65239,23.87733 319.07679,23.87733 C317.34309,23.87733 315.98349,24.44853 314.99859,25.59123 C314.01369,26.73423 313.52079,28.34943 313.52079,30.43773 L313.52079,39.00723 C313.52079,40.22853 313.81569,41.13483 314.40729,41.72583 L316.83039,44.14923 L316.83039,44.74023 L301.34559,44.74023 L301.34559,44.14923 L301.34619,44.14923 Z" id="Fill-18"></path><path d="M326.58165,41.72577 L330.71895,35.69757 C333.35895,37.86447 336.53025,38.94807 340.23435,38.94807 C342.75585,38.94807 344.01675,38.15997 344.01675,36.58407 C344.01675,35.83527 343.69155,35.26407 343.04115,34.87017 C342.39135,34.47597 341.53455,34.20027 340.47105,34.04247 C339.40695,33.88497 338.20485,33.68757 336.86535,33.45147 C331.07355,32.46657 328.17705,29.68857 328.17705,25.11807 C328.17705,21.84777 329.32965,19.48377 331.63485,18.02577 C333.93945,16.56777 336.86535,15.83907 340.41165,15.83907 C341.79015,15.83907 343.23855,15.96717 344.75565,16.22307 C346.27275,16.47927 347.28705,16.60737 347.79915,16.60737 C349.09935,16.60737 350.39955,16.11477 351.69975,15.12987 L352.29075,15.36627 L349.51305,26.18187 L348.92235,26.00457 C347.73975,23.48307 345.07995,22.22217 340.94355,22.22217 C338.46105,22.22217 337.21995,22.95117 337.21995,24.40887 C337.21995,25.07847 337.52535,25.61067 338.13585,26.00457 C338.74695,26.39847 339.56415,26.66457 340.58835,26.80227 C341.61315,26.94057 342.77565,27.12747 344.07585,27.36387 C346.63725,27.79707 348.77475,28.66407 350.48835,29.96457 C352.20225,31.26477 353.05905,33.15597 353.05905,35.63817 C353.05905,38.79027 351.86685,41.23317 349.48365,42.96687 C347.10015,44.70057 343.81995,45.5675701 339.64335,45.5675701 C334.04865,45.5675701 329.69415,44.28687 326.58165,41.72577" id="Fill-20"></path><path d="M372.91611,37.73673 C373.94031,36.69273 374.45241,35.44173 374.45241,33.98373 L374.45241,32.03313 C373.94031,32.22993 372.69921,32.38773 370.72941,32.50563 C367.18371,32.70273 365.41041,33.92463 365.41041,36.17043 C365.41041,37.07673 365.70561,37.82523 366.29721,38.41623 C366.88761,39.00723 367.77411,39.3027301 368.95641,39.3027301 C370.57191,39.30303 371.89131,38.78073 372.91611,37.73673 M359.14551,43.29213 C357.41151,41.77503 356.54511,39.77583 356.54511,37.29303 C356.54511,34.18053 357.67731,31.85583 359.94261,30.31953 C362.20881,28.78263 365.74491,27.97533 370.55151,27.89613 C372.04851,27.85683 373.07331,27.66993 373.62471,27.33483 C374.17671,27.00003 374.45211,26.41893 374.45211,25.59123 C374.45211,24.76383 374.02851,24.07413 373.18221,23.52273 C372.33501,22.97103 371.04471,22.69533 369.31071,22.69533 C366.67071,22.69533 364.26741,23.68053 362.10021,25.65063 L357.49011,20.21313 C360.40671,17.29743 364.64181,15.83973 370.19721,15.83973 C374.68911,15.83973 377.98911,16.74603 380.09691,18.55833 C382.20501,20.37093 383.25921,23.12883 383.25921,26.83293 L383.25921,39.00783 C383.25921,40.22913 383.55441,41.13543 384.14571,41.72643 L386.56851,44.14983 L386.56851,44.74083 L374.63001,44.74083 L374.63001,40.89903 C373.92111,42.27843 372.77751,43.40103 371.20191,44.26773 C369.62571,45.13473 367.79391,45.56793 365.70561,45.56793 C363.06591,45.56793 360.87861,44.80893 359.14551,43.29213" id="Fill-22"></path><path d="M388.99014,44.14923 L391.41294,41.72583 C392.00424,41.13483 392.29944,40.22883 392.29944,39.00723 L392.29944,5.73303 C392.29944,4.51143 392.00424,3.60543 391.41294,3.01413 L388.99014,0.59103 L388.99014,3e-05 L401.16474,3e-05 L401.16474,39.00723 C401.16474,40.22853 401.46054,41.13483 402.05124,41.72583 L404.47464,44.14923 L404.47464,44.74023 L388.99014,44.74023 L388.99014,44.14923 Z" id="Fill-24"></path></g></g></g></svg> 