<?xml version="1.0" encoding="UTF-8"?> <svg xmlns="http://www.w3.org/2000/svg" xmlns:xlink="http://www.w3.org/1999/xlink" width="87px" height="102px" viewBox="0 0 87 102" version="1.1"><title>RBC</title><defs><polygon id="path-1" points="0.00026 0.8775 75.54196 0.8775 75.54196 100.1 0.00026 100.1"></polygon></defs><g id="Homepage-Update-11.20" stroke="none" stroke-width="1" fill="none" fill-rule="evenodd"><g id="Artboard" transform="translate(-207.000000, -1582.000000)"><g id="RBC" transform="translate(207.000000, 1582.000000)"><g id="Group-3" transform="translate(0.000000, 0.422890)"><mask id="mask-2" fill="white"><use xlink:href="#path-1"></use></mask><g id="Clip-2"></g><path d="M75.54196,87.94955 C75.54196,91.22685 74.19906,93.13005 71.57176,94.14145 C61.36286,98.07395 49.27156,100.10065 37.77046,100.10065 C26.27196,100.10065 14.17936,98.07395 3.97176,94.14145 C1.34446,93.13005 0.00026,91.22685 0.00026,87.94955 L0.00026,0.87685 L75.54196,0.87685 L75.54196,87.94955 Z" id="Fill-1" fill="#0058A8" mask="url(#mask-2)"></path></g><path d="M20.25894,54.36171 C9.80044,47.83701 6.34634,44.95101 6.05384,40.67011 C6.00054,39.80041 6.20074,38.33531 6.56344,37.28751 L5.57804,36.63361 C4.79024,37.88811 4.28844,39.54041 4.28844,41.06011 C4.28844,43.53011 5.07884,45.40341 6.05124,46.89581 C7.52154,49.15911 9.06854,50.57871 12.87624,53.43091 C16.97774,56.50801 19.77794,60.10121 21.39254,63.85951 L21.97364,63.85951 L21.97364,59.59421 C27.52204,62.73631 32.40744,65.69641 34.81114,70.98351 L35.39354,70.98351 C34.45364,65.50401 31.35314,61.27901 20.25894,54.36171" id="Fill-4" fill="#FFD420"></path><path d="M50.95428,40.09603 C48.66628,41.12173 47.08808,42.51273 45.68278,44.50953 L50.35758,44.26643 C50.52528,42.19033 50.79958,40.81103 50.95428,40.09603 L50.95428,40.09603 Z M67.80488,56.76853 C68.27678,55.62843 68.57838,54.53253 68.66028,53.14283 L61.83008,52.75543 C61.52068,54.66773 61.00978,56.32783 60.46508,57.69153 L67.80488,56.76853 Z M60.40918,39.83083 C60.90188,41.14773 61.27238,42.42173 61.54148,43.64763 L65.55848,43.42663 C64.17788,41.84063 62.41248,40.59393 60.40918,39.83083 L60.40918,39.83083 Z M58.58528,43.81273 C57.90148,41.44153 57.08118,39.79313 56.65088,39.01703 C56.37528,39.00013 56.09838,38.99233 55.81758,38.99233 C55.35738,38.99233 54.89068,39.05343 54.44348,39.09893 C53.77788,40.75773 53.23838,42.43473 52.79768,44.13253 L58.58528,43.81273 Z M61.94058,45.96293 C62.15248,47.67373 62.17458,49.27793 62.06278,50.75733 L68.63818,50.41153 C68.47048,48.91913 68.04408,47.50603 67.40968,46.21253 L61.94058,45.96293 Z M59.70458,50.88213 C59.63828,49.01273 59.40558,47.32403 59.09098,45.83033 L52.45838,45.53003 C52.00208,47.54893 51.70178,49.51713 51.56008,51.31243 L59.70458,50.88213 Z M60.72508,36.69913 L61.50248,35.60843 L60.29608,34.00293 L60.49758,33.64803 L63.88538,35.47323 L63.14698,37.70663 C63.69168,37.97183 64.19608,38.30333 64.86428,38.74663 L67.05348,35.15213 L61.38808,32.19203 L48.86518,32.19203 L38.70178,38.30333 C40.61148,39.62803 42.36778,41.05933 43.61578,42.50363 C46.33798,38.54123 51.12328,36.01663 55.86048,36.01663 C57.41138,36.01663 59.21578,36.18043 60.72508,36.69913 L60.72508,36.69913 Z M35.66888,36.34033 L41.28098,32.97853 C40.17858,32.43643 38.95918,32.08673 37.51488,32.06853 C35.58178,32.03733 32.31748,32.92653 30.73668,33.16963 C31.44388,33.65063 33.95028,35.24833 35.66888,36.34033 L35.66888,36.34033 Z M36.81938,23.68483 C34.82648,23.24933 33.71758,23.49503 32.57358,24.58573 C33.13258,24.85353 33.83328,24.99913 34.61068,24.94323 C35.72738,24.86523 36.42418,24.19443 36.81938,23.68483 L36.81938,23.68483 Z M68.43798,70.99313 L67.73078,70.99313 C67.73078,67.09053 64.14798,66.02973 60.40138,66.02973 L48.68578,66.02973 C49.06408,67.95373 49.23958,70.20273 48.94708,72.32693 L48.36598,72.32693 C47.27918,63.56623 42.32358,59.22423 35.39328,54.57673 L35.39328,58.56383 L34.81218,58.56383 C32.97138,54.44933 28.92448,50.58573 25.09078,47.84663 L25.09338,47.84663 C24.07418,47.11993 23.01728,46.36723 21.97338,45.62363 L21.97338,49.92273 L21.39228,49.92273 C19.76598,45.65873 16.81498,42.47503 12.61078,38.68553 C8.06988,34.59833 6.23558,32.15433 5.17348,29.34373 C4.52998,27.63943 4.34798,26.26273 4.32588,24.39333 C4.28038,21.05103 5.97428,18.02723 8.08158,16.90013 L8.08158,18.51733 C7.03508,19.90183 6.49428,21.65163 6.49298,23.43263 C6.48908,25.07323 6.88038,26.89973 7.69938,28.45583 C10.25778,33.32433 18.87158,39.29263 24.34198,42.95863 C41.35638,54.36093 44.75068,56.34993 47.57558,62.39883 C47.89018,63.07483 48.20348,63.98223 48.46478,65.03133 C50.92308,64.65303 59.83978,63.29843 61.48298,63.03583 C61.79888,62.98643 62.45668,62.90453 62.79468,62.88373 C64.33128,61.91523 65.53118,60.67763 66.58158,59.13453 L60.06468,58.63143 C59.72798,59.37633 59.39258,60.00423 59.10008,60.50733 L58.56838,60.50733 C58.74648,59.84433 58.90248,59.19303 59.03508,58.55343 L57.36718,58.42733 L57.36718,58.07373 L59.17418,57.85013 C59.51738,56.00543 59.68248,54.26213 59.71888,52.63453 L51.50418,52.16783 C51.45998,53.00893 51.45218,53.80323 51.47948,54.53903 L50.95298,54.53903 C50.77878,53.71873 50.64098,52.90623 50.53698,52.11453 L48.73388,52.01053 L48.73388,51.46063 L50.44598,51.36963 C50.20548,49.19603 50.19118,47.17063 50.27958,45.42993 L45.47478,45.21023 C45.70228,45.63143 45.93758,46.05783 46.10398,46.52583 C47.14008,49.41703 46.89308,52.81263 46.55248,54.37393 L45.96878,54.37393 C45.88428,52.56693 45.27588,50.35563 44.69998,49.00233 C43.37138,45.87323 40.39178,43.10943 35.39328,39.90233 L35.39328,43.89983 L34.81218,43.89983 C33.14948,38.64783 29.01418,35.72803 22.86518,32.57033 C17.78738,29.96773 16.21178,26.83213 16.50038,21.98053 L18.21508,22.99453 C18.65318,27.53413 22.14238,30.15233 25.79538,30.12633 C27.94688,30.10943 29.96188,29.82473 31.91058,29.43473 C34.71988,28.86793 37.32508,28.38173 39.49348,29.15133 L39.49348,26.47203 L37.78788,26.47203 C37.17818,26.99723 35.93928,27.60823 34.12058,27.63813 C32.11728,27.67323 28.33038,26.52143 28.33038,22.29383 C28.33038,18.62003 31.44128,18.03503 33.97368,18.03503 C35.32958,18.03503 37.58508,17.98433 38.34558,17.94143 C38.91368,17.90893 39.33618,17.82053 39.61308,17.54883 C39.89908,17.26673 39.98618,16.97683 40.05378,16.60243 C40.13178,16.14743 40.13178,15.68203 40.13178,14.89163 L40.13178,12.20973 L28.39538,12.20973 L28.39538,16.85593 L23.95458,15.16853 L23.95458,14.05703 L26.08138,14.05703 L26.08138,12.20973 L18.16048,12.20973 L18.16048,8.35263 L15.46038,8.35263 C14.01608,8.35263 12.35338,9.36403 12.23638,11.32053 C12.12458,13.19903 12.97088,14.77983 14.90528,14.77983 L15.25238,14.77983 L15.25238,17.02623 L14.90528,17.02623 C11.51488,17.02623 8.96298,14.48343 8.96298,11.10863 C8.96298,7.58953 11.96078,4.91153 15.58518,4.91153 L21.31168,4.91153 L21.31168,8.76863 L43.57548,8.76863 L43.57548,14.46783 C43.57548,15.42723 43.52608,16.71943 43.43118,17.53453 C43.36618,18.12603 43.15428,19.19463 42.02978,20.05393 C41.35118,20.56873 40.32938,20.77803 38.66798,20.78453 C38.12718,20.78713 36.54638,20.76113 34.65358,20.64283 C32.11728,20.48423 31.39838,21.46313 31.29438,22.36923 C31.27228,22.56163 31.27488,22.74753 31.29698,22.92693 C32.48258,22.00653 34.16478,21.35913 36.07318,21.95973 C39.43368,23.01403 40.39308,23.11023 42.14418,21.73613 L42.31838,22.12873 C42.12988,22.41993 41.79318,22.83983 41.30308,23.21293 L42.92548,23.21293 L42.92548,31.99573 L47.97598,28.96803 L62.15638,28.96803 C62.15638,28.96803 68.14938,32.09583 69.13608,32.61583 C70.00708,33.07213 70.34898,33.62333 70.48418,34.43453 C70.59728,35.11313 70.42308,35.97243 70.08898,36.52363 C69.88098,36.86423 68.25338,39.53313 67.39148,40.95663 C69.80038,43.56443 71.42928,47.20963 71.42928,51.27083 C71.42928,54.95113 70.06558,59.69743 65.64038,63.22693 C67.58648,63.85873 68.83188,64.92083 69.81208,66.31573 L68.43798,70.99313 Z" id="Fill-6" fill="#FFD420"></path><path d="M38.21337,89.83247 L35.53147,89.83247 L35.53147,82.15727 L38.08987,82.15727 C41.60767,82.15727 42.96097,83.20377 42.96097,85.84017 C42.96097,88.68847 41.19817,89.83247 38.21337,89.83247 M38.00017,74.60037 C40.12697,74.60037 41.57127,75.06317 41.57127,77.33297 C41.57127,79.75357 39.63687,80.41917 37.43077,80.41917 L35.53147,80.41917 L35.53147,74.60037 C35.53147,74.60167 36.72097,74.60037 38.00017,74.60037 M42.27847,81.07437 C44.18427,80.76367 46.00687,79.28557 46.00687,77.04567 C46.00687,75.02807 45.14757,72.81157 39.20007,72.81157 L29.16537,72.81157 L29.16537,72.97147 C29.47087,73.06507 29.94797,73.31077 30.26517,73.62147 C30.94507,74.28707 31.17127,75.28157 31.20247,76.59977 L31.20247,91.61087 L39.51727,91.61087 C44.09197,91.61087 47.40177,89.86757 47.40177,85.87527 C47.40177,82.62657 44.87327,81.24467 42.27847,81.07437" id="Fill-8" fill="#FEFEFE"></path><path d="M14.03324,74.60063 C14.03324,74.60193 15.68424,74.60063 16.96084,74.60063 C19.39834,74.60063 20.67104,75.31433 20.67104,77.90133 C20.67104,80.21143 19.00704,81.57903 16.33814,81.57903 L14.03324,81.57903 L14.03324,74.60063 Z M21.76174,91.61113 L27.17884,91.61113 L20.25634,82.76723 C23.03054,82.02883 25.10794,80.51173 25.10794,77.75573 C25.10794,74.52003 23.17224,72.81183 18.10484,72.81183 L7.63594,72.81183 L7.63594,72.97173 C8.02074,73.10823 8.45234,73.35523 8.73444,73.63733 C9.46894,74.35753 9.68734,75.45993 9.68734,76.94843 L9.68734,91.61113 L14.03324,91.61113 L14.03324,83.27813 L15.62054,83.27813 L21.76174,91.61113 Z" id="Fill-10" fill="#FEFEFE"></path><path d="M64.97751,75.38648 C66.14231,76.04428 66.49461,76.90358 66.50241,76.91268 C66.55571,76.97898 66.68311,76.95818 66.68311,76.95818 L67.62821,73.74068 C67.62821,73.74068 65.92911,72.52258 61.88611,72.52258 C55.76961,72.52258 51.19231,75.60098 51.19231,82.34018 C51.19231,89.93088 56.64581,91.90168 61.45581,91.90168 C65.92911,91.90168 67.68931,90.47818 67.68931,90.47818 L67.68931,88.27468 C67.68931,88.27468 66.10721,89.74758 62.71681,89.74758 C59.91791,89.74758 55.80861,88.46968 55.72151,82.23098 C55.63701,76.46808 58.15511,74.58958 61.52211,74.58958 C63.40061,74.58958 64.34051,75.02898 64.97751,75.38648" id="Fill-12" fill="#FEFEFE"></path><path d="M81.68901,91.00416 L82.11021,91.00416 C82.60161,91.00416 82.99941,90.84036 82.99941,90.44126 C82.99941,90.09156 82.74201,89.85756 82.18041,89.85756 C81.94641,89.85756 81.78261,89.88096 81.68901,89.90306 L81.68901,91.00416 Z M81.66561,93.18166 L80.77641,93.18166 L80.77641,89.34276 C81.12741,89.27256 81.61881,89.22576 82.25061,89.22576 C82.97601,89.22576 83.30361,89.34276 83.58441,89.50656 C83.79631,89.67036 83.96011,89.97456 83.96011,90.34896 C83.96011,90.77016 83.63121,91.09776 83.16321,91.23816 L83.16321,91.28496 C83.53761,91.42536 83.74821,91.70616 83.86521,92.22226 C83.98351,92.80726 84.05241,93.03996 84.14731,93.18166 L83.18661,93.18166 C83.06961,93.03996 82.99941,92.68896 82.88241,92.24436 C82.81221,91.82316 82.57821,91.63596 82.08681,91.63596 L81.66561,91.63596 L81.66561,93.18166 Z M79.30221,91.16796 C79.30221,92.87616 80.56581,94.23336 82.29741,94.23336 C83.98351,94.23336 85.22371,92.87616 85.22371,91.19136 C85.22371,89.48316 83.98351,88.10256 82.27401,88.10256 C80.56581,88.10256 79.30221,89.48316 79.30221,91.16796 L79.30221,91.16796 Z M86.20651,91.16796 C86.20651,93.34546 84.49831,95.05366 82.27401,95.05366 C80.07441,95.05366 78.31811,93.34546 78.31811,91.16796 C78.31811,89.03726 80.07441,87.32906 82.27401,87.32906 C84.49831,87.32906 86.20651,89.03726 86.20651,91.16796 L86.20651,91.16796 Z" id="Fill-14" fill="#0058A8"></path></g></g></g></svg> 