<?xml version="1.0" encoding="UTF-8"?> <svg xmlns="http://www.w3.org/2000/svg" xmlns:xlink="http://www.w3.org/1999/xlink" width="516px" height="595px" viewBox="0 0 516 595" version="1.1"><title>State 6</title><defs><radialGradient cx="30.5678271%" cy="54.2224719%" fx="30.5678271%" fy="54.2224719%" r="108.731993%" gradientTransform="translate(0.305678,0.542225),scale(0.536082,1.000000),translate(-0.305678,-0.542225)" id="radialGradient-1"><stop stop-color="#5F758A" offset="0%"></stop><stop stop-color="#363D45" offset="100%"></stop></radialGradient><linearGradient x1="50%" y1="-43.4136474%" x2="50%" y2="85.5598051%" id="linearGradient-2"><stop stop-color="#01597E" offset="0%"></stop><stop stop-color="#049CCB" offset="100%"></stop></linearGradient><polygon id="path-3" points="0.1730938 0.1863235 6.241785 0.1863235 6.241785 9.2897365 0.1730938 9.2897365"></polygon><polygon id="path-5" points="0.37037 0.17292 43.25695 0.17292 43.25695 24.33387 0.37037 24.33387"></polygon><polygon id="path-7" points="0 36.67708 54.80695 36.67708 54.80695 0.54978 0 0.54978"></polygon></defs><g id="Homepage-Update-11.20" stroke="none" stroke-width="1" fill="none" fill-rule="evenodd"><g id="State-6" transform="translate(-6.000000, 0.000000)"><g id="Group" transform="translate(0.000000, 85.000000)"><rect id="Rectangle-3" fill="#FFFFFF" fill-rule="nonzero" x="60.5" y="27" width="401" height="209" rx="8.24"></rect><path d="M73.5,-6.82121026e-13 L73.5,272 L60.8094099,272 L60.809,12.846 L0.5,12.8467153 L0.5,0.233576642 L60.809,0.233 L60.8094099,-6.82121026e-13 L73.5,-6.82121026e-13 Z" id="Combined-Shape" fill="#6D7278"></path><path d="M73.5,236 L449.855342,236 C456.286509,236 461.5,230.768271 461.5,224.314607 L461.5,39.6853933 C461.5,33.2317288 456.286509,28 449.855342,28 L73.5,28 L73.5,236 Z" id="Rectangle-4" fill="url(#radialGradient-1)"></path><rect id="Rectangle-Copy-30" fill="#EEEEEE" fill-rule="nonzero" x="284.5" y="148" width="54" height="49" rx="6.16"></rect><rect id="Rectangle-Copy-31" fill="#EEEEEE" fill-rule="nonzero" x="367.5" y="148" width="54" height="49" rx="6.16"></rect><rect id="Rectangle-Copy-37" fill="#EEEEEE" fill-rule="nonzero" x="284.5" y="63" width="54" height="63" rx="6.16"></rect><rect id="Rectangle-Copy-38" fill="#EEEEEE" fill-rule="nonzero" x="367.5" y="63" width="54" height="63" rx="6.16"></rect><rect id="Rectangle-Copy-27" fill="url(#linearGradient-2)" fill-rule="nonzero" x="106.5" y="63" width="146" height="134" rx="6.16"></rect><polygon id="Fill-1-Copy-4" fill="#FCFCFC" points="194.949631 96 211.69656 115.95 179.617936 153.475 147.30344 115.95 154.143735 108.1125 183.627764 108.1125 189.760442 115.475 171.362408 137.0875 179.382064 146.35 206.035627 115 189.52457 96 148.482801 96 131.5 115.95 179.617936 172 227.5 115.95 210.753071 96"></polygon></g><g id="Group-2" transform="translate(100.000000, 349.000000)"><g id="HPE-logo" transform="translate(250.000000, 3.300000)"><path d="M0,9.015842 L30.647342,9.015842 L30.647342,0.209 L0,0.209 L0,9.015842 Z M2.014342,7.0015 L28.633,7.0015 L28.633,2.223342 L2.014342,2.223342 L2.014342,7.0015 Z" id="Fill-1" fill="#00B38D"></path><polygon id="Fill-2" fill="#231F20" points="5.644881 14.5663386 5.644881 17.9318656 1.810567 17.9318656 1.810567 14.5663386 0.044935 14.5663386 0.044935 23.0352276 1.810567 23.0352276 1.810567 19.4767936 5.644881 19.4767936 5.644881 23.0352276 7.410304 23.0352276 7.410304 14.5663386"></polygon><g id="Group-45" transform="translate(0.000000, 13.674452)"><path d="M10.2789544,5.5537988 L12.6099314,5.5537988 C12.5685494,4.8918958 12.1963204,4.4228998 11.5202054,4.4228998 C10.9548604,4.4228998 10.4720704,4.7815438 10.2789544,5.5537988 L10.2789544,5.5537988 Z M10.2237784,6.6711128 C10.3617184,7.6778658 11.0930094,8.0918948 12.0032044,8.0918948 C12.6789014,8.0918948 13.1616914,7.9399518 13.7686274,7.5537198 L13.7686274,8.9607078 C13.2582494,9.3331458 12.5685494,9.4986738 11.7411184,9.4986738 C9.8653434,9.4986738 8.5825014,8.2848018 8.5825014,6.3262628 C8.5825014,4.3953118 9.7961644,3.0575028 11.4790324,3.0575028 C13.2720434,3.0575028 14.1962414,4.2987538 14.1962414,6.1193528 L14.1962414,6.6711128 L10.2237784,6.6711128 Z" id="Fill-3" fill="#231F20"></path><polygon id="Fill-5" fill="#231F20" points="20.8442806 7.1261894 21.9475916 3.1953174 23.6028716 3.1953174 21.7270966 9.3606084 20.1545806 9.3606084 19.1478276 5.5814704 18.1408656 9.3606084 16.5685586 9.3606084 14.6925746 3.1953174 16.4030306 3.1953174 17.5063416 7.1261894 18.5133036 3.1953174 19.8235246 3.1953174"></polygon><path d="M29.8735195,5.5537988 L32.2044965,5.5537988 C32.1631145,4.8918958 31.7908855,4.4228998 31.1147705,4.4228998 C30.5494255,4.4228998 30.0666355,4.7815438 29.8735195,5.5537988 L29.8735195,5.5537988 Z M29.8183435,6.6711128 C29.9562835,7.6778658 30.6875745,8.0918948 31.5977695,8.0918948 C32.2734665,8.0918948 32.7562565,7.9399518 33.3631925,7.5537198 L33.3631925,8.9607078 C32.8528145,9.3331458 32.1631145,9.4986738 31.3356835,9.4986738 C29.4599085,9.4986738 28.1770665,8.2848018 28.1770665,6.3262628 C28.1770665,4.3953118 29.3907295,3.0575028 31.0735975,3.0575028 C32.8666085,3.0575028 33.7908065,4.2987538 33.7908065,6.1193528 L33.7908065,6.6711128 L29.8183435,6.6711128 Z" id="Fill-7" fill="#231F20"></path><path d="M49.2776647,2.3953281 L47.6915637,2.3953281 L47.6915637,4.9194211 L49.2776647,4.9194211 C50.1878597,4.9194211 50.6294767,4.3952491 50.6294767,3.6641671 C50.6294767,2.9054971 50.1878597,2.3953281 49.2776647,2.3953281 L49.2776647,2.3953281 Z M47.6915637,6.4229671 L47.6915637,9.3606711 L45.9397257,9.3606711 L45.9397257,0.8919911 L49.3880167,0.8919911 C51.1810277,0.8919911 52.3673117,1.8573621 52.3673117,3.6641671 C52.3673117,5.4571781 51.1810277,6.4229671 49.3880167,6.4229671 L47.6915637,6.4229671 Z" id="Fill-9" fill="#231F20"></path><path d="M56.560207,7.236625 C56.408473,6.905569 55.95348,6.698659 55.47069,6.698659 C54.932724,6.698659 54.380964,6.933157 54.380964,7.457329 C54.380964,7.995295 54.932724,8.215999 55.47069,8.215999 C55.95348,8.215999 56.408473,8.00888 56.560207,7.677824 L56.560207,7.236625 Z M56.560207,5.512584 C56.560207,4.919442 56.050038,4.547004 55.181016,4.547004 C54.560495,4.547004 53.980938,4.726326 53.498357,5.043588 L53.498357,3.56763 C53.939765,3.291959 54.739608,3.057461 55.553454,3.057461 C57.249907,3.057461 58.201693,3.926274 58.201693,5.429611 L58.201693,9.360692 L56.560207,9.360692 L56.560207,9.029636 C56.353506,9.236546 55.746361,9.471044 55.070664,9.471044 C53.829413,9.471044 52.794863,8.753965 52.794863,7.471123 C52.794863,6.298842 53.829413,5.49879 55.181016,5.49879 C55.718982,5.49879 56.312124,5.678112 56.560207,5.857225 L56.560207,5.512584 Z" id="Fill-11" fill="#231F20"></path><path d="M62.5624362,3.0574401 C63.1831662,3.0574401 63.7898932,3.1953801 64.2313012,3.5402301 L64.2313012,5.0987431 C63.8174812,4.7263051 63.3208972,4.5469831 62.7691372,4.5469831 C61.8589422,4.5469831 61.1416542,5.1815071 61.1416542,6.2848181 C61.1416542,7.3745441 61.8589422,8.0228621 62.7691372,8.0228621 C63.3208972,8.0228621 63.8174812,7.8297461 64.2313012,7.4711021 L64.2313012,9.0160301 C63.7898932,9.3606711 63.1831662,9.4986111 62.5624362,9.4986111 C60.8105982,9.4986111 59.4452012,8.2573601 59.4452012,6.2848181 C59.4452012,4.2986911 60.8105982,3.0574401 62.5624362,3.0574401" id="Fill-13" fill="#231F20"></path><polygon id="Fill-15" fill="#231F20" points="71.5575872 9.3607129 69.5576662 9.3607129 67.3370412 6.5193579 67.3370412 9.3607129 65.6265852 9.3607129 65.6265852 0.3954489 67.3370412 0.3954489 67.3370412 5.6367509 69.4471052 3.1954219 71.5024112 3.1954219 68.9369362 6.0227739"></polygon><path d="M75.5712441,7.236625 C75.4195101,6.905569 74.9645171,6.698659 74.4817271,6.698659 C73.9437611,6.698659 73.3920011,6.933157 73.3920011,7.457329 C73.3920011,7.995295 73.9437611,8.215999 74.4817271,8.215999 C74.9645171,8.215999 75.4195101,8.00888 75.5712441,7.677824 L75.5712441,7.236625 Z M75.5712441,5.512584 C75.5712441,4.919442 75.0610751,4.547004 74.1920531,4.547004 C73.5715321,4.547004 72.9919751,4.726326 72.5093941,5.043588 L72.5093941,3.56763 C72.9508021,3.291959 73.7506451,3.057461 74.5644911,3.057461 C76.2609441,3.057461 77.2127301,3.926274 77.2127301,5.429611 L77.2127301,9.360692 L75.5712441,9.360692 L75.5712441,9.029636 C75.3645431,9.236546 74.7573981,9.471044 74.0817011,9.471044 C72.8404501,9.471044 71.8059001,8.753965 71.8059001,7.471123 C71.8059001,6.298842 72.8404501,5.49879 74.1920531,5.49879 C74.7300191,5.49879 75.3231611,5.678112 75.5712441,5.857225 L75.5712441,5.512584 Z" id="Fill-17" fill="#231F20"></path><path d="M82.5803099,4.8780182 C82.3458119,4.7400782 82.0423439,4.6711082 81.7250819,4.6711082 C81.1459429,4.6711082 80.6769469,4.9745762 80.5528009,5.5401302 L80.5528009,9.3606502 L78.8423449,9.3606502 L78.8423449,3.1953592 L80.5528009,3.1953592 L80.5528009,3.8022952 C80.8148869,3.3608872 81.3250559,3.0574192 81.9319919,3.0574192 C82.2216659,3.0574192 82.4837519,3.1125952 82.5803099,3.1675622 L82.5803099,4.8780182 Z" id="Fill-19" fill="#231F20"></path><g id="Group-23" transform="translate(82.973000, 0.209000)"><mask id="mask-4" fill="white"><use xlink:href="#path-3"></use></mask><g id="Clip-22"></g><path d="M4.5177858,5.0551875 C4.3246698,4.6415765 3.8556738,4.3378995 3.3592988,4.3378995 C2.4351008,4.3378995 1.8835498,5.0827755 1.8835498,6.0759435 C1.8835498,7.0551085 2.4351008,7.7999845 3.3592988,7.7999845 C3.8694678,7.7999845 4.3246698,7.5103105 4.5177858,7.0826965 L4.5177858,5.0551875 Z M4.5177858,8.6414185 C4.2421148,8.9722655 3.6349698,9.2897365 2.9728578,9.2897365 C1.1798468,9.2897365 0.1730938,7.8413665 0.1730938,6.0759435 C0.1730938,4.3105205 1.1798468,2.8483565 2.9728578,2.8483565 C3.6349698,2.8483565 4.2421148,3.1656185 4.5177858,3.4966745 L4.5177858,0.1863235 L6.2418268,0.1863235 L6.2418268,9.1517965 L4.5177858,9.1517965 L4.5177858,8.6414185 Z" id="Fill-21" fill="#231F20" mask="url(#mask-4)"></path></g><path d="M27.2599954,8.3087741 C26.7446014,8.3087741 26.4308924,8.0268331 26.4206514,7.4796711 L26.4463584,7.4796711 L26.4463584,0.9526011 L24.7361114,0.9526011 L24.7361114,7.0616711 L24.7361114,7.4796711 L24.7361114,7.5638981 C24.7361114,8.9570921 25.6049244,9.7571441 26.9153544,9.7571441 C27.3153804,9.7571441 27.6188484,9.7019681 27.8669314,9.5914071 L27.8669314,8.1430371 C27.6876094,8.2676011 27.4669054,8.3087741 27.2599954,8.3087741" id="Fill-24" fill="#231F20"></path><path d="M41.3550599,4.8539414 L42.9116919,4.8539414 L42.9116919,3.4607474 L41.3550599,3.4607474 L41.3550599,0.9525384 L39.6446039,0.9525384 L39.6446039,3.4607474 L37.1750599,3.4607474 L37.1750599,0.9525384 L35.4646039,0.9525384 L35.4646039,3.4607474 L34.3426919,3.4607474 L34.3426919,4.8539414 L35.4646039,4.8539414 L35.4646039,7.0616084 L35.4646039,7.4796084 L35.4646039,7.5638354 C35.4646039,8.9570294 36.3338349,9.7570814 37.6440559,9.7570814 C38.0438729,9.7570814 38.3473409,9.7019054 38.5956329,9.5913444 L38.5956329,8.1429744 C38.4163109,8.2675384 38.1958159,8.3087114 37.9889059,8.3087114 C37.4733029,8.3087114 37.1595939,8.0269794 37.1493529,7.4796084 L37.1750599,7.4796084 L37.1750599,4.8539414 L39.6446039,4.8539414 L39.6446039,7.0616084 L39.6446039,7.4796084 L39.6446039,7.5638354 C39.6446039,8.9570294 40.5136259,9.7570814 41.8238469,9.7570814 C42.2238729,9.7570814 42.5275499,9.7019054 42.7758419,9.5913444 L42.7758419,8.1429744 C42.5961019,8.2675384 42.3758159,8.3087114 42.1689059,8.3087114 C41.6533029,8.3087114 41.3395939,8.0269794 41.3293529,7.4796084 L41.3550599,7.4796084 L41.3550599,4.8539414 Z" id="Fill-26" fill="#231F20"></path><polygon id="Fill-28" fill="#231F20" points="5.5752422 12.7208268 5.5752422 13.6937218 1.2253252 13.6937218 1.2253252 16.3900308 5.1722902 16.3900308 5.1722902 17.3629258 1.2253252 17.3629258 1.2253252 20.2673988 5.5752422 20.2673988 5.5752422 21.2542968 0.1412422 21.2542968 0.1412422 12.7208268"></polygon><path d="M7.2153906,15.0835091 L8.2576736,15.0835091 L8.2576736,15.8620341 C8.6192436,15.3752731 9.2861626,14.9585271 10.0782726,14.9585271 C11.4821256,14.9585271 12.2464386,15.8620341 12.2464386,17.2100841 L12.2464386,21.2542341 L11.1903616,21.2542341 L11.1903616,17.3768661 C11.1903616,16.5151591 10.7594036,15.9174191 9.8283086,15.9174191 C9.1055866,15.9174191 8.4802586,16.4037621 8.2576736,17.0710991 L8.2576736,21.2542341 L7.2153906,21.2542341 L7.2153906,15.0835091 Z" id="Fill-30" fill="#231F20"></path><path d="M18.9596022,17.529666 L22.1422542,17.529666 C22.1004542,16.626368 21.6419082,15.848052 20.6412162,15.848052 C19.8213092,15.848052 19.1541812,16.389989 18.9596022,17.529666 L18.9596022,17.529666 Z M18.9037992,18.349573 C18.9458082,19.781014 19.8491062,20.462145 20.9747802,20.462145 C21.6697052,20.462145 22.1700512,20.295363 22.7259912,19.878408 L22.7259912,20.8373 C22.2256452,21.226458 21.5863142,21.379446 20.8497982,21.379446 C19.0707902,21.379446 17.8755192,20.170381 17.8755192,18.224591 C17.8755192,16.306598 18.9873992,14.958548 20.6272132,14.958548 C22.2950332,14.958548 23.1567402,16.167613 23.1567402,17.974418 L23.1567402,18.349573 L18.9037992,18.349573 Z" id="Fill-32" fill="#231F20"></path><path d="M27.7433079,16.1258548 C27.5765259,16.0148758 27.3123499,15.9590728 27.0483829,15.9590728 C26.3952579,15.9590728 25.8253149,16.3900308 25.6169419,17.1127528 L25.6169419,21.2542968 L24.5746589,21.2542968 L24.5746589,15.0835718 L25.6169419,15.0835718 L25.6169419,15.8896848 C25.8809089,15.3615418 26.4646459,14.9585898 27.1457769,14.9585898 C27.4097439,14.9585898 27.6321199,15.0001808 27.7433079,15.0557748 L27.7433079,16.1258548 Z" id="Fill-34" fill="#231F20"></path><path d="M29.869235,19.4198411 C30.188796,20.0591721 30.80033,20.4343271 31.453455,20.4343271 C32.634723,20.4343271 33.329857,19.4754351 33.329857,18.1689761 C33.329857,16.8625171 32.634723,15.9036251 31.453455,15.9036251 C30.80033,15.9036251 30.188796,16.2787801 29.869235,16.9181111 L29.869235,19.4198411 Z M29.869235,23.6169791 L28.826952,23.6169791 L28.826952,15.0835091 L29.869235,15.0835091 L29.869235,15.8062311 C30.188796,15.3614791 30.841921,14.9585271 31.606443,14.9585271 C33.427042,14.9585271 34.385934,16.4595651 34.385934,18.1689761 C34.385934,19.8783871 33.427042,21.3794251 31.606443,21.3794251 C30.841921,21.3794251 30.188796,20.9762641 29.869235,20.5315121 L29.869235,23.6169791 Z" id="Fill-36" fill="#231F20"></path><path d="M39.1815853,16.1258548 C39.0148033,16.0148758 38.7508363,15.9590728 38.4868693,15.9590728 C37.8335353,15.9590728 37.2635923,16.3900308 37.0552193,17.1127528 L37.0552193,21.2542968 L36.0129363,21.2542968 L36.0129363,15.0835718 L37.0552193,15.0835718 L37.0552193,15.8896848 C37.3193953,15.3615418 37.9031323,14.9585898 38.5840543,14.9585898 C38.8480213,14.9585898 39.0706063,15.0001808 39.1815853,15.0557748 L39.1815853,16.1258548 Z" id="Fill-38" fill="#231F20"></path><path d="M40.474522,21.254255 L41.516805,21.254255 L41.516805,15.08353 L40.474522,15.08353 L40.474522,21.254255 Z M40.988453,13.888259 C40.627301,13.888259 40.321534,13.582492 40.321534,13.22134 C40.321534,12.845976 40.627301,12.554003 40.988453,12.554003 C41.363817,12.554003 41.669584,12.845976 41.669584,13.22134 C41.669584,13.582492 41.363817,13.888259 40.988453,13.888259 L40.988453,13.888259 Z" id="Fill-40" fill="#231F20"></path><path d="M43.0176758,19.6559902 C43.5876188,20.1841332 44.2963378,20.4899002 45.0468568,20.4899002 C45.7279878,20.4899002 46.3255188,20.2397272 46.3255188,19.6281932 C46.3255188,19.1696472 45.9779518,18.9194742 45.4360148,18.7386892 L44.5883108,18.4469252 C43.6572158,18.1411582 43.0314698,17.6964062 43.0314698,16.6957142 C43.0314698,15.6116312 43.9905708,14.9585062 45.2136388,14.9585062 C45.9085638,14.9585062 46.5478948,15.1530852 47.0482408,15.5004432 L47.0482408,16.5847352 C46.5338918,16.1537772 45.9641578,15.8480102 45.2136388,15.8480102 C44.5743078,15.8480102 44.0461648,16.1257712 44.0461648,16.6541232 C44.0461648,17.1542602 44.3799378,17.3210422 44.9634658,17.5296242 L45.9085638,17.8491852 C46.8396588,18.1689552 47.3540078,18.7111012 47.3540078,19.5866022 C47.3540078,20.7260702 46.3395218,21.3794042 45.0468568,21.3794042 C44.2409528,21.3794042 43.4762218,21.1292312 43.0176758,20.7678702 L43.0176758,19.6559902 Z" id="Fill-42" fill="#231F20"></path><path d="M49.480332,17.529666 L52.662984,17.529666 C52.621184,16.626368 52.162638,15.848052 51.161946,15.848052 C50.34183,15.848052 49.674911,16.389989 49.480332,17.529666 L49.480332,17.529666 Z M49.424529,18.349573 C49.466329,19.781014 50.369836,20.462145 51.49551,20.462145 C52.190435,20.462145 52.690572,20.295363 53.246721,19.878408 L53.246721,20.8373 C52.746375,21.226458 52.106835,21.379446 51.370319,21.379446 C49.591311,21.379446 48.396249,20.170381 48.396249,18.224591 C48.396249,16.306598 49.508129,14.958548 51.147943,14.958548 C52.815763,14.958548 53.67747,16.167613 53.67747,17.974418 L53.67747,18.349573 L49.424529,18.349573 Z" id="Fill-43" fill="#231F20"></path><path d="M16.5214082,20.4621868 C15.9098742,20.4621868 15.5069222,20.0732378 15.5069222,19.3363038 L15.5069222,18.8033538 L15.5328382,18.8033538 L15.5328382,15.9659698 L17.1699352,15.9659698 L17.1699352,15.0950668 L15.5328382,15.0950668 L15.5328382,13.5624698 L14.4786422,13.5624698 L14.4786422,15.0950668 L13.0597412,15.0950668 L13.0597412,15.9659698 L14.4786422,15.9659698 L14.4786422,18.8033538 L14.4786422,19.4201128 C14.4786422,20.6569748 15.2845462,21.3794878 16.3686292,21.3794878 C16.7021932,21.3794878 16.9383632,21.3376878 17.1747422,21.2407118 L17.1747422,20.2951958 C16.9801632,20.4205958 16.7437842,20.4621868 16.5214082,20.4621868" id="Fill-44" fill="#231F20"></path></g></g><g id="Dell_Logo-Copy" fill="#007DB8" fill-rule="nonzero"><g id="g3460" transform="translate(20.000000, 20.293000) scale(-1, 1) rotate(-180.000000) translate(-20.000000, -20.293000) translate(-0.000000, 0.293000)"><path d="M19.844,37.2826667 C15.02732,37.2826667 10.665248,35.3289347 7.50704533,32.1683267 C4.34764,29.0149347 2.39511067,24.6504573 2.39511067,19.831372 C2.39511067,15.0158947 4.34764,10.654424 7.50704533,7.49982933 C10.665248,4.34343067 15.02732,2.38609067 19.844,2.38609067 C24.6618827,2.38609067 29.02636,4.34343067 32.179752,7.49982933 C35.3379547,10.654424 37.2862747,15.0158947 37.2862747,19.831372 C37.2862747,24.6504573 35.3379547,29.0149347 32.179752,32.1683267 C29.02636,35.3289347 24.6618827,37.2826667 19.844,37.2826667 M19.844,39.3969547 C30.6469533,39.3969547 39.4059747,30.6367307 39.4059747,19.831372 C39.4059747,9.02962133 30.6469533,0.2706 19.844,0.2706 C9.04224933,0.2706 0.27962,9.02962133 0.27962,19.831372 C0.27962,30.6367307 9.04224933,39.3969547 19.844,39.3969547" id="path3462"></path></g><g id="g3464" transform="translate(20.324000, 20.273000) scale(-1, 1) rotate(-180.000000) translate(-20.324000, -20.273000) translate(5.324000, 14.773000)"><path d="M5.40144,5.324 C5.40144,6.44558933 4.64643872,7.08269467 3.57755376,7.08269467 L2.92337936,7.08269467 L2.92337936,3.56412222 L3.5589488,3.56412222 C4.55281376,3.56412222 5.40144,4.09652222 5.40144,5.324 M17.0379422,4.05807111 L12.2186574,0.317665333 L7.8140832,3.73567333 C7.17851376,2.230756 5.64270432,1.18547733 3.8740328,1.18547733 L0.10442784,1.18547733 L0.10442784,9.46252267 L3.8740328,9.46252267 C5.85035968,9.46252267 7.27453936,8.22380533 7.81288288,6.90404489 L12.2186574,10.3185036 L13.8504925,9.05257467 L9.812616,5.92442889 L10.5886229,5.32577467 L14.625299,8.45214578 L16.2595347,7.18976622 L12.2222584,4.05807111 L12.997065,3.45823378 L17.0379422,6.59052044 L17.0379422,9.46252267 L19.9673232,9.46252267 L19.9673232,3.60139022 L22.8895022,3.60139022 L22.8895022,1.17542089 L17.0379422,1.17542089 L17.0379422,4.05807111 Z M26.6002915,3.60020711 L29.5212702,3.60020711 L29.5212702,1.17542089 L23.6679098,1.17542089 L23.6679098,9.46252267 L26.6002915,9.46252267 L26.6002915,3.60020711 Z" id="path3466"></path></g></g><g id="Lenovo-logo-vector-01" transform="translate(68.000000, 13.200000)" fill="#E60012" fill-rule="nonzero"><path d="M28.9924126,3.08 C27.7295175,3.08 26.3018968,3.66085809 25.4416639,4.80442244 L25.4416639,4.80442244 L25.4416639,4.80442244 L25.4416639,3.26151815 L22.44,3.26151815 L22.44,14.08 L25.4416639,14.08 L25.4416639,7.92653465 C25.4416639,6.81927393 26.3018968,5.63940594 27.9125458,5.63940594 C29.1571381,5.63940594 30.4383361,6.49254125 30.4383361,7.92653465 L30.4383361,14.08 L33.44,14.08 L33.44,7.3819802 C33.4216972,4.89518152 31.62802,3.08 28.9924126,3.08" id="XMLID_23_"></path><polygon id="XMLID_27_" points="54.6414328 3.08 51.92 10.273557 49.1985672 3.08 45.76 3.08 50.2650746 13.64 53.5749254 13.64 58.08 3.08"></polygon><path d="M13.6513183,6.16857143 C14.1663023,5.48142857 14.9755627,5.07285714 15.968746,5.07285714 C17.0538907,5.07285714 17.8815434,5.70428571 18.3045659,6.61428571 L13.044373,8.82428571 C12.8972347,7.67285714 13.1915113,6.8 13.6513183,6.16857143 M19.4448875,10.4957143 C18.1758199,11.4428571 17.4585209,11.6657143 16.2998071,11.6657143 C15.2514469,11.6657143 14.4421865,11.3314286 13.8720257,10.7742857 L21.56,7.54285714 C21.3944695,6.33571429 20.9346624,5.27714286 20.2541479,4.46 C19.2425723,3.27142857 17.7527974,2.64 15.9319614,2.64 C12.6213505,2.64 10.12,5.11 10.12,8.36 C10.12,11.7028571 12.6213505,14.08 16.2630225,14.08 C18.3045659,14.08 20.3828939,13.1142857 21.3576849,11.9628571 L19.4448875,10.4957143 Z" id="XMLID_30_"></path><polygon id="XMLID_31_" points="9.68 11.3513178 2.9867658 11.3513178 2.9867658 0 0 0 0 14.08 9.68 14.08"></polygon><path d="M63.342125,5.24 C61.7155,5.24 60.517875,6.52142857 60.517875,8.36 C60.517875,10.1057143 61.769125,11.48 63.377875,11.48 C65.0045,11.48 66.202125,10.1614286 66.202125,8.36 C66.202125,6.61428571 64.933,5.24 63.342125,5.24 M63.342125,14.08 C60.1425,14.08 57.64,11.61 57.64,8.36 C57.64,5.14714286 60.160375,2.64 63.377875,2.64 C66.5775,2.64 69.08,5.11 69.08,8.36 C69.08,11.5728571 66.559625,14.08 63.342125,14.08" id="XMLID_34_"></path><path d="M40.462125,5.24 C38.8355,5.24 37.637875,6.52142857 37.637875,8.36 C37.637875,10.1057143 38.889125,11.48 40.497875,11.48 C42.1245,11.48 43.322125,10.1614286 43.322125,8.36 C43.322125,6.61428571 42.053,5.24 40.462125,5.24 M40.462125,14.08 C37.2625,14.08 34.76,11.61 34.76,8.36 C34.76,5.14714286 37.280375,2.64 40.497875,2.64 C43.6975,2.64 46.2,5.11 46.2,8.36 C46.2,11.5728571 43.679625,14.08 40.462125,14.08" id="XMLID_38_"></path></g><g id="Intel-logo" transform="translate(166.000000, 4.400000)"><path d="M0,21.742215 L0,23.203565 C0,25.782515 1.02245,28.074365 2.0636,29.634715 C3.2428,31.401315 4.8136,32.445765 6.6132,33.580415 C8.03275,34.475265 10.90045,35.468565 12.83755,35.851365 C15.22565,36.323265 17.6352,36.676915 20.50675,36.676915 L21.92245,36.676915 C30.7483,36.676915 39.71605,34.114465 45.4894,31.058665 L45.4894,26.903415 C43.9274,27.730065 42.00405,28.821265 40.2006,29.378415 C39.81725,29.496665 39.21335,29.758465 38.8113,29.907515 C38.31685,30.090115 37.83175,30.210015 37.34225,30.401965 C36.6102,30.690715 35.134,31.085065 34.3178,31.261065 C33.2673,31.486015 32.2685,31.770915 31.1674,31.992015 C30.0322,32.219165 29.02075,32.341265 27.8421,32.548065 C26.75145,32.740015 25.4606,32.806015 24.29735,32.886315 C23.0824,32.969915 21.8218,33.023265 20.50675,33.023265 L20.23285,33.023265 C15.55235,33.023265 11.08745,32.287365 7.96235,30.724265 C4.9566,29.221115 2.14665,26.434265 2.14665,21.970465 L2.14665,21.559615 C2.14665,19.459715 2.79125,17.846015 3.3979,16.325265 C3.6641,15.658115 4.16625,14.807265 4.54905,14.233615 C4.7883,13.875015 4.98245,13.614315 5.23325,13.273865 C5.45765,12.969165 5.80745,12.641365 5.9829,12.379565 L5.9829,10.917665 C5.2547,11.405515 4.48965,12.364715 3.872,13.008215 C3.17075,13.738615 2.651,14.553165 2.0735,15.411715 C1.21605,16.686615 0,19.652765 0,21.742215" id="Fill-1" fill="#0079BC"></path><g id="Group-5" transform="translate(11.550000, 0.377080)"><mask id="mask-6" fill="white"><use xlink:href="#path-5"></use></mask><g id="Clip-4"></g><path d="M43.25717,13.46367 L43.25717,12.13927 C43.24177,12.11507 43.04432,10.65757 43.01077,10.46727 C42.92442,9.98987 42.75117,9.37992 42.58617,8.97347 C42.17367,7.95872 41.83047,7.27287 41.21392,6.46327 C40.07377,4.96562 38.71472,3.88267 37.01522,2.94327 C33.89617,1.21792 29.14912,0.17292 24.30252,0.17292 L23.89222,0.17292 C18.89162,0.17292 14.75672,1.00452 10.84787,2.10947 C9.81607,2.40152 8.97622,2.70292 8.01482,3.02137 C7.21897,3.28537 6.05297,3.72647 5.33247,4.08452 C4.47887,4.50912 3.62692,4.87377 2.79092,5.28792 C2.34817,5.50737 0.64757,6.54852 0.37037,6.61287 L0.37037,7.70902 C0.74712,7.62102 2.13532,6.85432 2.66882,6.62772 C3.40912,6.31257 4.33807,5.84507 5.08387,5.61682 C5.42157,5.51342 5.98037,5.30222 6.31532,5.15922 C6.72287,4.98542 7.14857,4.87982 7.58087,4.73407 C8.40532,4.45797 9.32712,4.14667 10.19942,3.92777 C12.07877,3.45642 13.73372,3.07362 15.78907,2.71172 C17.53972,2.40317 20.00317,2.09132 21.97382,2.09132 L24.02862,2.09132 C28.03042,2.09132 32.36222,3.01037 34.92907,4.43597 C36.48612,5.30167 37.53277,6.02987 38.60692,7.38122 C39.41597,8.39927 40.42522,10.43097 40.42522,12.23057 L40.42522,13.00662 C40.42522,14.90412 39.43962,16.94352 38.61682,18.04957 C38.11797,18.72057 37.62462,19.31842 37.01192,19.86952 C36.71437,20.13847 35.32452,21.24177 34.99012,21.31932 L34.99012,24.33387 C35.63472,24.27997 37.57127,23.03257 38.06902,22.66297 C38.98642,21.98042 39.80812,21.19612 40.50882,20.30622 C41.30467,19.29532 41.73367,18.55392 42.31337,17.31532 C42.57572,16.75487 42.72642,16.17902 42.91837,15.54542 C42.99482,15.28802 43.25112,13.47247 43.25717,13.46367" id="Fill-3" fill="#0079BC" mask="url(#mask-6)"></path></g><path d="M33.02145,17.814335 L33.02145,18.133885 L37.3142,18.133885 L37.3142,17.905635 C37.3142,16.771535 36.49855,15.758985 35.3045,15.758985 L35.07625,15.758985 C34.02465,15.758985 33.02145,16.784735 33.02145,17.814335 M30.19005,18.910485 L30.19005,19.458285 C30.19005,22.598785 32.11615,24.893385 35.25885,24.893385 L35.8523,24.893385 C36.8049,24.893385 37.4836,24.662935 38.16505,24.373635 C38.9059,24.059035 39.2832,23.521685 39.8387,23.146035 L38.0457,21.468535 C37.69205,21.995985 36.7136,22.519035 35.80665,22.519035 L35.3045,22.519035 C34.1154,22.519035 33.02145,21.507585 33.02145,20.371835 L33.02145,20.052285 L40.14615,20.052285 L40.14615,18.819185 C40.14615,17.366635 39.6264,15.967435 38.9917,15.131985 C38.38945,14.339435 37.1668,13.429735 35.80665,13.429735 L34.93875,13.429735 C33.5027,13.429735 32.20305,14.331185 31.50125,15.107785 C30.7857,15.899785 30.19005,17.408985 30.19005,18.910485" id="Fill-6" fill="#0079BC"></path><path d="M13.336125,24.710785 L16.121875,24.710785 L16.121875,15.895935 L18.634275,15.895935 C19.188125,15.895935 19.639125,16.324385 19.639125,16.855135 L19.639125,24.710785 L22.470525,24.710785 L22.470525,16.900785 C22.470525,15.047835 21.209375,13.612335 19.364675,13.612335 L13.336125,13.612335 L13.336125,24.710785 Z" id="Fill-8" fill="#0079BC"></path><path d="M24.525985,21.42206 C24.525985,23.29811 25.745335,24.71051 27.586185,24.71051 L29.504585,24.71051 L29.504585,22.33561 L28.088335,22.33561 C27.669235,22.33561 27.357935,21.85051 27.357935,21.42206 L27.357935,15.89621 L29.504585,15.89621 L29.504585,13.61206 L27.357935,13.61206 L27.357935,10.55241 L24.525985,10.55241 L24.525985,21.42206 Z" id="Fill-10" fill="#0079BC"></path><path d="M41.79032,22.016115 C41.79032,22.774015 42.24957,23.461515 42.64612,23.855865 C42.85897,24.066515 43.19502,24.240865 43.50687,24.365165 C43.94302,24.538415 44.16852,24.514215 44.62172,24.619265 L44.62172,8.999265 L41.79032,8.999265 L41.79032,22.016115 Z" id="Fill-12" fill="#0079BC"></path><path d="M7.935785,16.21532 L7.946785,21.74227 C7.946785,23.61447 9.044585,24.80797 10.823835,24.84757 L10.823835,13.61217 L8.002885,13.61272 L7.935785,16.21532 Z" id="Fill-14" fill="#0079BC"></path><mask id="mask-8" fill="white"><use xlink:href="#path-7"></use></mask><g id="Clip-17"></g><polygon id="Fill-16" fill="#0079BC" mask="url(#mask-8)" points="7.9926 12.05963 10.824 12.05963 10.824 9.36463 7.9926 9.36463"></polygon><path d="M47.37733,10.061425 L47.61603,10.061425 C47.72988,10.061425 47.80743,10.043825 47.84923,10.010275 C47.89103,9.976175 47.91193,9.931075 47.91193,9.874975 C47.91193,9.839225 47.90148,9.806775 47.88113,9.777625 C47.86133,9.749575 47.83383,9.728125 47.79863,9.714375 C47.76233,9.700075 47.69633,9.693475 47.60063,9.693475 L47.37733,9.693475 L47.37733,10.061425 Z M47.17988,10.747825 L47.17988,9.527925 L47.59843,9.527925 C47.74198,9.527925 47.84593,9.538925 47.91028,9.561475 C47.97463,9.584025 48.02523,9.623625 48.06318,9.679175 C48.10113,9.735825 48.12038,9.795225 48.12038,9.858475 C48.12038,9.947575 48.08848,10.025125 48.02523,10.091125 C47.96143,10.157675 47.87673,10.194525 47.77168,10.202775 C47.81458,10.220375 47.84923,10.241825 47.87508,10.267125 C47.92458,10.314975 47.98453,10.395825 48.05548,10.509125 L48.20453,10.747825 L47.96363,10.747825 L47.85583,10.555325 C47.77058,10.404625 47.70238,10.309475 47.65013,10.271525 C47.61438,10.243475 47.56103,10.229725 47.49228,10.229725 L47.37733,10.229725 L47.37733,10.747825 L47.17988,10.747825 Z M47.67708,9.174825 C47.51813,9.174825 47.36303,9.215525 47.21178,9.296925 C47.06163,9.378875 46.94338,9.496025 46.85813,9.647275 C46.77288,9.799075 46.72998,9.956925 46.72998,10.121375 C46.72998,10.284725 46.77233,10.440925 46.85593,10.590525 C46.94008,10.740675 47.05668,10.857275 47.20628,10.940875 C47.35753,11.024475 47.51373,11.066825 47.67708,11.066825 C47.84043,11.066825 47.99718,11.024475 48.14733,10.940875 C48.29803,10.857275 48.41408,10.740675 48.49713,10.590525 C48.58073,10.440925 48.62198,10.284725 48.62198,10.121375 C48.62198,9.956925 48.58018,9.799075 48.49548,9.647275 C48.41078,9.496025 48.29253,9.378875 48.14128,9.296925 C47.99003,9.215525 47.83548,9.174825 47.67708,9.174825 L47.67708,9.174825 Z M47.67708,8.986725 C47.86793,8.986725 48.05328,9.035675 48.23478,9.133575 C48.41628,9.230925 48.55763,9.370625 48.65828,9.552675 C48.75948,9.734175 48.80953,9.923925 48.80953,10.121375 C48.80953,10.316625 48.76058,10.504725 48.66048,10.684575 C48.56093,10.864975 48.42068,11.005225 48.24138,11.104775 C48.06153,11.204875 47.87343,11.254375 47.67708,11.254375 C47.48073,11.254375 47.29263,11.204875 47.11333,11.104775 C46.93293,11.005225 46.79323,10.864975 46.69313,10.684575 C46.59248,10.504725 46.54243,10.316625 46.54243,10.121375 C46.54243,9.923925 46.59303,9.734175 46.69533,9.552675 C46.79653,9.370625 46.93788,9.230925 47.11938,9.133575 C47.30033,9.035675 47.48678,8.986725 47.67708,8.986725 L47.67708,8.986725 Z" id="Fill-18" fill="#0079BC" mask="url(#mask-8)"></path></g></g></g></g></svg> 