<?xml version="1.0" encoding="UTF-8"?> <svg xmlns="http://www.w3.org/2000/svg" width="71" height="46" viewBox="0 0 71 46"><g fill="none" fill-rule="evenodd" opacity=".776"><g fill="#FFF"><g><g><path d="M63.914 35.079c-.598.436-1.006 1.345-1.207 2.703l-.52 3.475h-2.29l1.274-8.502h2.171s-.16.877-.3 1.368c.5-.781 1.298-1.587 2.637-1.562l-.338 2.25c-.55-.102-1.054-.004-1.427.268zm5.356-4.616l-2.38.535-1.11 7.726c-.165 1.081-.078 1.745.268 2.152.329.38.891.547 1.826.547.571 0 1.255-.088 1.844-.23L70 39.317c-.391.112-.8.158-1.146.158-.32 0-.516-.059-.629-.19-.095-.11-.142-.29-.142-.548 0-.156.018-.344.05-.567 0 0 .477-3.17.543-3.617h2.038l.27-1.798h-2.038c.009-.05.147-1.036.324-2.292zm-29.717-1.188h2.288l-1.798 11.982h-2.288l1.798-11.982zm8.284 7.51c-.274 1.824-1.128 2.79-2.47 2.79-.395 0-.722-.045-1.031-.135l.34-2.265c.195-1.304 1.016-2.69 2.15-2.69.343 0 .596.104.775.308.302.351.38 1.021.236 1.993zm1.858-3.41c-.45-.525-1.115-.789-1.981-.789-1.15 0-2.116.513-2.77 1.416.111-.431.205-.979.245-1.247h-2.137l-1.817 12.092h2.29c.156-1.036.517-3.44.53-3.535.307.044.607.063 1.014.063 2.837 0 4.731-1.752 5.188-4.805.213-1.418.017-2.522-.562-3.195zm-14.76 2.445H32.01c.284-.945.955-1.538 1.787-1.538.401 0 .721.13.924.37.165.201.252.473.252.803 0 .115-.016.237-.036.365zm-.835-3.25c-2.418 0-4.245 1.767-4.655 4.5-.22 1.47-.014 2.581.608 3.306.6.697 1.595 1.047 2.958 1.047.986 0 2.023-.173 2.924-.48l.285-1.897c-.857.37-1.773.562-2.603.562-.752 0-1.293-.184-1.604-.55-.227-.264-.34-.637-.34-1.11 0-.162.017-.343.047-.532h5.174c.094-.316.181-.695.23-1.032.045-.286.065-.558.065-.817 0-.848-.225-1.55-.668-2.066-.533-.62-1.346-.932-2.421-.932zm-4.136.185l-4.458 8.502h-2.282l-1.872-8.502h2.496l1.03 5.496 2.646-5.496h2.44zm-20.393-.998H5.998l-1.426 9.5H2.251s1.4-9.352 1.424-9.5H0l.3-2h9.572l-.301 2zm47.487 5.197c-.233 1.543-1.07 2.504-2.19 2.504-.494 0-.868-.145-1.112-.427-.349-.406-.45-1.11-.304-2.093.266-1.773 1.358-2.402 2.21-2.402.495 0 .866.141 1.106.419.333.387.43 1.059.29 1.999zm-.973-4.368c-2.552 0-4.615 1.872-5.02 4.554-.217 1.461-.013 2.566.607 3.286.57.662 1.49.997 2.737.997 2.551 0 4.616-1.877 5.019-4.567.215-1.43.005-2.526-.622-3.255-.581-.675-1.495-1.015-2.721-1.015zM11.49 35.08c-.599.436-1.005 1.345-1.207 2.703l-.522 3.475H7.473l1.274-8.502h2.171s-.162.877-.3 1.368c.499-.781 1.299-1.587 2.636-1.562l-.336 2.25c-.55-.102-1.056-.004-1.428.268zm6.373 2.599c-.142.944-.958 1.965-2.024 1.965-.297 0-.528-.084-.663-.243-.094-.11-.144-.254-.144-.424 0-.048.005-.098.011-.15.128-.847 1.058-1.26 2.838-1.274l-.018.126zm-.474-5.109c-.93 0-1.999.175-2.941.474l-.305 2.035c.73-.384 1.741-.71 2.658-.71.609 0 1.006.116 1.212.354.122.143.18.34.183.595 0 .22-.05.552-.085.707-3.03.014-5.01 1.178-5.302 3.12-.023.146-.032.288-.032.424 0 .482.136.892.402 1.202.37.428.975.653 1.755.653 1.138 0 2.195-.556 2.807-1.418-.086.327-.175.767-.247 1.252h2.172l.28-2.21.523-3.49c.15-.995.026-1.684-.387-2.164-.478-.555-1.357-.824-2.693-.824zM48.64 13.14c-5.985 1.037-12.144 2.513-16.816 4.59l-10.41-1.946c-2.599.738-4.974 1.557-6.751 2.408l22.238 8.114c5.74-5.831 16.958-11.343 23.966-13.187-5.107 0-8.974.033-12.228.02" transform="translate(-651 -1311) translate(134 1311) translate(517 .5)"></path><g><path d="M41.348 12.64c-5.984 1.037-12.143 2.513-16.815 4.59l-10.41-1.946L0 12.646c6.965-1.317 15.799-2.884 27.477-2.884 9.898.584 22.26.8 31.112.8-3.934.293-10.477.907-17.241 2.078zM4.021 5.979c14.605 2.415 30.098 4.503 53.022 3.135C47.57 8.319 35.567 4.794 27.138 0L4.02 5.979z" transform="translate(-651 -1311) translate(134 1311) translate(517 .5) translate(7.291)"></path></g></g></g></g></g></svg> 