<?xml version="1.0" encoding="UTF-8"?> <svg xmlns="http://www.w3.org/2000/svg" xmlns:xlink="http://www.w3.org/1999/xlink" width="170px" height="107px" viewBox="0 0 170 107" version="1.1"><title>TravelPort</title><defs><linearGradient x1="44.7073056%" y1="48.4818791%" x2="55.2658109%" y2="51.217095%" id="linearGradient-1"><stop stop-color="#67B845" offset="0%"></stop><stop stop-color="#A6D063" offset="100%"></stop></linearGradient><linearGradient x1="39.5950832%" y1="46.1454727%" x2="60.3904555%" y2="52.8552054%" id="linearGradient-2"><stop stop-color="#1E6F38" offset="0%"></stop><stop stop-color="#71AA3D" offset="78%"></stop><stop stop-color="#8ABC3F" offset="100%"></stop></linearGradient><linearGradient x1="27.7498509%" y1="41.1408966%" x2="72.2586692%" y2="53.8447001%" id="linearGradient-3"><stop stop-color="#05596E" offset="0%"></stop><stop stop-color="#046B84" offset="22%"></stop><stop stop-color="#0391B4" offset="74%"></stop><stop stop-color="#02A0C6" offset="100%"></stop></linearGradient><linearGradient x1="23.5206771%" y1="46.1719651%" x2="76.4793229%" y2="55.7050439%" id="linearGradient-4"><stop stop-color="#29AECF" offset="0%"></stop><stop stop-color="#35B3D2" offset="7%"></stop><stop stop-color="#6CC7DD" offset="38%"></stop><stop stop-color="#94D6E6" offset="65%"></stop><stop stop-color="#ACDFEB" offset="87%"></stop><stop stop-color="#B5E2ED" offset="100%"></stop></linearGradient></defs><g id="Homepage-Update-11.20" stroke="none" stroke-width="1" fill="none" fill-rule="evenodd"><g id="Artboard" transform="translate(-1473.000000, -1580.000000)" fill-rule="nonzero"><g id="TravelPort" transform="translate(1473.000000, 1580.000000)"><path d="M41.5044581,77.0073677 C39.1267762,77.0351087 36.7662663,77.414307 34.4995258,78.1326581 L33.7587097,82.9807839 C35.7122766,81.941466 37.8769989,81.3609997 40.0884677,81.283471 C41.5419677,81.283471 42.4890871,81.5647935 42.9767129,82.1368161 C43.2871141,82.541499 43.4433497,83.0434476 43.4174516,83.5528065 C43.3996381,84.1205149 43.3305899,84.6854547 43.2111484,85.2407419 C35.9905355,85.2407419 31.2736935,88.0539677 30.5797645,92.6676581 C30.527512,93.0026725 30.5024239,93.3413624 30.5047452,93.6804194 C30.4750495,94.6995134 30.8072741,95.6961873 31.4424871,96.4936452 C32.5346195,97.6205488 34.0687838,98.2074438 35.6341935,98.0971839 C38.2749975,98.1079166 40.7610564,96.8526835 42.3202935,94.7213129 C42.0728917,95.7046501 41.8757107,96.6999446 41.7295161,97.7033323 L46.8870968,97.7033323 L47.5528935,92.4332226 L48.8000903,84.124829 C49.1564323,81.7523419 48.8657323,80.1112935 47.8623484,78.9672484 C46.7745677,77.6450323 44.6834032,77.0073677 41.5044581,77.0073677 Z M42.6297484,89.1980129 C42.2921613,91.4485935 40.3510355,93.8867226 37.8097548,93.8867226 C37.2248805,93.9325188 36.6492545,93.7200854 36.2343484,93.3053226 C35.9948863,93.0237 35.870923,92.6618612 35.8873839,92.2925613 C35.878451,92.1739486 35.878451,92.0548321 35.8873839,91.9362194 C36.1874613,89.9200742 38.4005323,88.9354452 42.6485032,88.9073129 C42.6485032,89.0104645 42.6297484,89.1698806 42.6297484,89.1698806 L42.6297484,89.1980129 Z M27.4477065,83.0089161 C26.0223387,84.0498097 25.0564645,86.2159935 24.5782161,89.4512032 L23.3310194,97.7314645 L17.8827387,97.7314645 L20.9116452,77.4762387 L26.0879806,77.4762387 C26.0879806,77.4762387 25.7035065,79.5674032 25.3752968,80.7302032 C26.6172692,78.4210723 29.0268484,76.9803673 31.6487903,76.9792355 L30.8517097,82.3431194 C29.6776667,82.0766497 28.4456947,82.3074323 27.4477065,82.9807839 L27.4477065,83.0089161 Z M133.675113,77.0730097 C127.598545,77.0730097 122.684777,81.5366613 121.718903,87.9226839 C121.203145,91.4017065 121.718903,94.0367613 123.172403,95.752829 C124.522752,97.3282355 126.717068,98.1253161 129.736597,98.1253161 C135.813165,98.1253161 140.726932,93.6522871 141.692806,87.2475097 C142.199187,83.834129 141.692806,81.2272065 140.211174,79.4923839 C138.729542,77.7575613 136.600868,77.0448774 133.675113,77.0448774 L133.675113,77.0730097 Z M136.000713,87.4819452 C135.447445,91.1578935 133.450055,93.4459839 130.77749,93.4459839 C129.787531,93.5177449 128.817399,93.1427648 128.133058,92.4238452 C127.298468,91.4861032 127.054655,89.7794129 127.410997,87.4444355 C128.039284,83.2152194 130.636829,81.7148323 132.671729,81.7148323 C133.656123,81.6370963 134.62341,82.0054229 135.306784,82.7182161 C136.103865,83.609071 136.328923,85.2126097 135.972581,87.4538129 L136.000713,87.4819452 Z M22.8809032,75.0662419 L14.3662065,75.0662419 C14.3662065,75.3288097 10.9715806,97.7033323 10.9715806,97.7033323 L5.43890323,97.7033323 C5.43890323,97.7033323 8.77726452,75.4225839 8.83352903,75.0662419 L0.0750193548,75.0662419 L0.797080645,70.3025129 L23.5935871,70.3025129 L22.8809032,75.0662419 Z M71.4559355,77.4481065 L60.8406968,97.7033323 L55.4017935,97.7033323 L50.9381419,77.4481065 L56.8834258,77.4481065 L59.3403097,90.5764935 L65.6419355,77.4481065 L71.4559355,77.4481065 Z M81.3116032,77.0073677 C75.5444903,77.0073677 71.1933677,81.217829 70.2181161,87.7257581 C69.6929806,91.2235355 70.2181161,93.8773452 71.6716161,95.6027903 C73.1251161,97.3282355 75.4225839,98.0971839 78.7140581,98.0971839 C81.0827783,98.0910069 83.4351597,97.7047478 85.6814806,96.9531387 L86.3566548,92.4332226 C84.4011559,93.2908274 82.2932951,93.7468396 80.1581806,93.7741935 C78.3670935,93.7741935 77.0823871,93.3334548 76.341571,92.4613548 C75.7579259,91.7079856 75.4679828,90.7681699 75.5257355,89.8169226 C75.5287967,89.3925827 75.5664309,88.9691978 75.6382645,88.550971 L87.969571,88.550971 C88.2003545,87.7437543 88.3819845,86.9232877 88.5134613,86.0940871 C88.6150527,85.448791 88.6683394,84.7968123 88.6728774,84.1435839 C88.7514082,82.3641452 88.185375,80.6161017 87.0787161,79.2204387 C85.8033871,77.7481839 83.8716387,77.0073677 81.3116032,77.0073677 Z M83.2996161,84.7531161 L76.3321935,84.7531161 C77.0073677,82.4931581 78.601529,81.0865452 80.5801645,81.0865452 C81.4087871,81.0409539 82.2152633,81.3635444 82.7838581,81.9680226 C83.1939069,82.5054231 83.4058956,83.1678878 83.3840129,83.8435065 C83.3792509,84.1484255 83.3510354,84.4525261 83.2996161,84.7531161 L83.2996161,84.7531161 Z M118.455561,78.9203613 C117.253601,77.6228169 115.532095,76.9342144 113.766852,77.0448774 C111.155877,77.0184678 108.69989,78.2815473 107.202658,80.4207484 C107.474603,79.3892323 107.690284,78.085771 107.793435,77.4481065 L102.701497,77.4481065 L98.369129,106.255539 L103.826787,106.255539 C104.201884,103.789277 105.055229,98.0596742 105.092739,97.8158613 C105.89132,97.9247524 106.696815,97.9748999 107.502735,97.9659 C114.263855,97.9659 118.755639,93.7929484 119.862174,86.516071 C120.302913,83.1589548 119.834042,80.5332774 118.455561,78.9203613 L118.455561,78.9203613 Z M114.029419,87.0505839 C113.382377,91.392329 111.347477,93.6897968 108.149777,93.6897968 C107.319697,93.7030676 106.492092,93.5956684 105.692894,93.3709645 C105.692894,93.0990194 106.499352,87.9789484 106.499352,87.9789484 C106.968223,84.8750226 108.928103,81.5647935 111.619423,81.5647935 C112.325341,81.5095266 113.017307,81.7828533 113.494906,82.3056097 C114.188835,83.1402 114.404516,84.7343613 114.029419,87.0505839 L114.029419,87.0505839 Z M94.3368387,69.1584677 L99.7851194,69.1584677 L95.4996387,97.7033323 L90.0232258,97.7033323 L94.3368387,69.1584677 Z M165.126977,71.9716935 L159.416129,73.2657774 L156.771697,91.6642742 C156.377845,94.2430645 156.584148,95.8278484 157.418739,96.7937226 C158.253329,97.7595968 159.538035,98.0971839 161.760484,98.0971839 C163.242485,98.0766618 164.717586,97.8910947 166.158494,97.5439161 L166.82429,93.0802645 C165.936496,93.3313324 165.018071,93.4575765 164.095461,93.4553613 C163.553618,93.5313647 163.005602,93.3669599 162.595074,93.0052452 C162.335076,92.6229252 162.215764,92.1622475 162.257487,91.7017839 C162.267692,91.246327 162.308418,90.7920665 162.379394,90.3420581 L163.673477,81.7335871 L168.530981,81.7335871 L169.168645,77.4481065 L164.311142,77.4481065 C164.339274,77.3262 164.667484,75.0193548 165.089468,71.9904484 L165.126977,71.9716935 Z M152.36431,82.962029 C150.938942,84.0029226 149.973068,86.1691065 149.494819,89.4043161 L148.247623,97.6845774 L142.799342,97.6845774 L145.837626,77.4293516 L150.976452,77.4293516 C150.976452,77.4293516 150.591977,79.5205161 150.263768,80.6833161 C151.50888,78.3727011 153.921901,76.932091 156.546639,76.9323484 L155.740181,82.2962323 C154.556692,82.0406248 153.320209,82.2886008 152.3268,82.9807839 L152.36431,82.962029 Z" id="Shape" fill="#02718C"></path><path d="M115.942413,30.7204258 C132.052819,27.9072 147.63809,26.4724548 157.01551,25.7785258 C135.925694,25.7785258 106.480597,25.2627677 82.9338968,23.9030419 C55.120471,23.9030419 34.0775419,27.6540097 17.4888871,30.7766903 L51.1256903,37.0595613 C63.7593881,33.5107631 76.6666872,31.020266 89.713771,29.6138903 C98.4317691,30.4340699 107.186312,30.803407 115.942413,30.7204258 L115.942413,30.7204258 Z" id="Path" fill="url(#linearGradient-1)"></path><path d="M115.942413,30.7204258 C107.176286,30.7919094 98.4123267,30.4100512 89.6856387,29.5763806 C76.6385549,30.9827563 63.7312559,33.4732534 51.0975581,37.0220516 L75.9008323,41.6544968 C87.0130742,36.7032194 101.688735,33.1960645 115.942413,30.7204258 Z" id="Path" fill="url(#linearGradient-2)"></path><path d="M115.942413,30.7204258 C101.688735,33.1960645 87.0130742,36.7032194 75.8914548,41.6544968 L51.0881806,37.0220516 C45.580689,38.4958444 40.2021976,40.4151661 35.0059065,42.7610323 L87.9789484,62.0878935 C101.660603,48.1999355 128.376871,35.062171 145.068677,30.6735387 C132.906165,30.6735387 123.697539,30.7485581 115.942413,30.7204258 Z" id="Path" fill="url(#linearGradient-3)"></path><path d="M27.0257226,14.8538323 C61.8159484,20.6115677 98.725471,25.5816 153.330184,22.3557677 C130.768113,20.4802839 102.176361,12.0406065 82.0617968,0.637664516 L27.0257226,14.8538323 Z" id="Path" fill="url(#linearGradient-4)"></path></g></g></g></svg> 