<?xml version="1.0" encoding="UTF-8"?> <svg xmlns="http://www.w3.org/2000/svg" xmlns:xlink="http://www.w3.org/1999/xlink" width="238px" height="100px" viewBox="0 0 238 100" version="1.1"><title>Tripwire</title><defs><polygon id="path-1" points="0 0.0663893182 79.1630035 0.0663893182 79.1630035 29.295 0 29.295"></polygon></defs><g id="Homepage-Update-11.20" stroke="none" stroke-width="1" fill="none" fill-rule="evenodd"><g id="Artboard" transform="translate(-1828.000000, -1583.000000)"><g id="Tripwire" transform="translate(1828.000000, 1583.000000)"><path d="M217.484444,75.4079932 C217.484444,81.1197573 212.815886,85.7487477 207.056185,85.7487477 L22.5425786,85.7487477 C16.7828772,85.7487477 12.1147,81.1197573 12.1147,75.4079932 L12.1147,10.7797991 C12.1147,5.06765455 16.7828772,0.436381364 22.5425786,0.436381364 L207.056185,0.436381364 C212.815886,0.436381364 217.484444,5.06765455 217.484444,10.7797991 L217.484444,75.4079932 Z" id="Fill-1" fill="#FEFEFE"></path><path d="M177.92459,35.1240202 C177.200585,34.8352552 176.4762,34.6906825 175.680289,34.6906825 C172.567029,34.6906825 168.150713,36.6443165 168.150713,42.6558788 L168.150713,64.4486956 L160.763047,64.4486956 L160.763047,27.7386365 L168.150713,27.7386365 L168.150713,31.6500897 C171.191306,28.9701679 173.652466,27.3052988 177.92459,27.3052988 L177.92459,35.1240202 Z M147.87591,20.8607793 L155.261293,20.8607793 L155.261293,12.8955829 L147.87591,12.8955829 L147.87591,20.8607793 Z M147.87591,64.4486956 L155.261293,64.4486956 L155.261293,27.7386365 L147.87591,27.7386365 L147.87591,64.4486956 Z M134.336674,64.4486956 L127.819868,64.4486956 L123.764222,42.6558788 L123.61965,42.6558788 L119.564004,64.4486956 L113.049101,64.4486956 L104.359899,27.7386365 L112.17824,27.7386365 L116.669506,50.5465061 L116.814079,50.5465061 L120.939728,27.7386365 L126.732529,27.7386365 L130.64208,50.5465061 L130.788174,50.5465061 L135.205252,27.7386365 L143.023592,27.7386365 L134.336674,64.4486956 Z M66.2760188,20.8607793 L73.6614025,20.8607793 L73.6614025,12.8955829 L66.2760188,12.8955829 L66.2760188,20.8607793 Z M66.2760188,64.4486956 L73.6614025,64.4486956 L73.6614025,27.7386365 L66.2760188,27.7386365 L66.2760188,64.4486956 Z M61.5682743,35.1240202 C60.8442693,34.8352552 60.1198838,34.6906825 59.3239729,34.6906825 C56.2088111,34.6906825 51.7921143,36.6443165 51.7921143,42.6558788 L51.7921143,64.4486956 L44.4067306,64.4486956 L44.4067306,27.7386365 L51.7921143,27.7386365 L51.7921143,31.6500897 C54.8349897,28.9701679 57.2961502,27.3052988 61.5682743,27.3052988 L61.5682743,35.1240202 Z M188.199907,48.8862025 L188.199907,53.878527 C188.199907,57.2820734 189.503724,57.4989325 192.760796,57.4989325 L217.544366,57.4989325 L217.544366,9.71270018 C217.544366,4.34867155 213.19539,7.60909091e-05 207.830981,7.60909091e-05 L21.7540865,7.60909091e-05 C16.3900579,7.60909091e-05 12.0407015,4.34867155 12.0407015,9.71270018 L12.0407015,27.7386365 L27.3170929,27.7386365 L27.3170929,12.8955829 L34.7024765,12.8955829 L34.7024765,27.7386365 L39.2656484,27.7386365 L39.2656484,34.6906825 L34.7024765,34.6906825 L34.7024765,53.878527 C34.7024765,57.2820734 36.0062943,57.4989325 39.2656484,57.4989325 L39.2656484,64.4486956 L36.2227729,64.4486956 C29.5613943,64.4486956 27.3170929,59.7432338 27.3170929,55.8340634 L27.3170929,34.6906825 L12.0407015,34.6906825 L12.0407015,76.368717 C12.0407015,81.3043538 15.7227406,85.3687497 20.4875534,85.990032 C43.0020925,74.9648397 61.0169956,72.6809711 79.1631556,70.053552 L79.1631556,27.7386365 L86.5485393,27.7386365 L86.5485393,31.0706575 C88.429887,28.9701679 89.877897,27.3052988 93.5705888,27.3052988 C96.5392756,27.3052988 98.7116711,28.3907356 100.015489,30.7792293 C100.884067,32.3721925 101.24702,34.6187765 101.24702,38.6721393 L101.24702,52.6466152 C101.24702,57.9318897 101.028259,60.0319988 100.087395,61.5545779 C98.8558634,63.5078315 97.046802,64.8843161 93.4986829,64.8843161 C90.6022825,64.8843161 88.2856947,63.5078315 86.6927315,61.1193379 L86.5485393,61.1193379 L86.5485393,69.0339338 C129.908944,63.608652 173.83166,69.2351943 217.544366,68.6378806 L217.544366,64.4486956 L189.720203,64.4486956 C183.056542,64.4486956 180.81224,59.7432338 180.81224,55.8340634 L180.81224,47.4446602 L180.820991,47.4446602 L180.820991,40.0482434 C180.820991,37.079937 181.182042,34.4719211 182.196714,32.5909538 C183.93387,29.4035056 187.337797,27.3052988 191.82678,27.3052988 C198.632351,27.3052988 202.832569,32.2999061 202.832569,38.7444256 L202.832569,48.881637 L188.205994,48.881637 L188.199907,48.8862025 Z M191.82678,34.6906825 C189.582478,34.6906825 188.205994,36.1390729 188.205994,38.8889984 L188.205994,43.0892165 L195.447566,43.0892165 L195.447566,38.8889984 C195.447566,36.1390729 194.071081,34.6906825 191.82678,34.6906825 L191.82678,34.6906825 Z M90.2412311,57.4989325 C93.0630625,57.4989325 93.8616365,55.4707293 93.8616365,53.1541415 L93.8616365,39.6849093 C93.8616365,36.7166029 92.7742975,34.6906825 90.2412311,34.6906825 C87.9969297,34.6906825 86.5485393,36.5724106 86.5485393,39.251952 L86.5485393,53.5151929 C86.5485393,55.8340634 88.141122,57.4989325 90.2412311,57.4989325 L90.2412311,57.4989325 Z M92.8397356,73.2691538 C90.7095706,73.2649688 88.6136465,73.2976879 86.5485393,73.3612238 L86.5485393,79.2917493 L79.1631556,79.2917493 L79.1631556,73.7173293 C56.3115338,75.2749102 37.9332965,80.6568202 24.658857,86.0817215 L207.830981,86.0817215 C213.19539,86.0817215 217.544366,81.7331261 217.544366,76.368717 L217.544366,70.1737756 C196.344297,71.740107 158.365422,73.4179115 92.8397356,73.2691538 L92.8397356,73.2691538 Z" id="Fill-3" fill="#E97638"></path><g id="Group-7" transform="translate(0.000000, 69.986896)"><mask id="mask-2" fill="white"><use xlink:href="#path-1"></use></mask><g id="Clip-6"></g><path d="M20.4870207,16.0028693 C14.081688,19.1400975 7.31302118,22.981547 0.0699275455,27.7436966 C-7.60909091e-05,27.7897316 -7.60909091e-05,29.2951902 -7.60909091e-05,29.2951902 C-7.60909091e-05,29.2951902 8.595153,22.6619652 24.6587048,16.0949393 C37.9350466,10.6677552 56.3110012,5.28812795 79.1630035,3.73054705 L79.1630035,0.0663893182 C61.016463,2.69380841 43.0019403,4.97767705 20.4870207,16.0028693" id="Fill-5" fill="#C74E3D" mask="url(#mask-2)"></path></g><path d="M217.545355,68.6367012 C173.832649,69.2362976 129.90765,63.6097553 86.5472457,69.0350371 L86.5472457,73.3600444 C88.6119725,73.2987912 90.7078966,73.2656917 92.8388225,73.2702571 C158.366031,73.4167321 196.344906,71.7385471 217.545355,70.1744985 C226.800673,69.4900608 232.862835,68.827309 236.614498,68.350219 L237.259748,67.8864449 C230.695005,68.3174999 224.121131,68.5472944 217.545355,68.6367012" id="Fill-8" fill="#C74E3D"></path><path d="M212.111627,27.9202655 L212.096409,27.9202655 L211.072606,30.5084978 L210.764057,30.5084978 L209.749004,27.9202655 L209.731503,27.9202655 L209.731503,30.5084978 L209.195443,30.5084978 L209.195443,27.4260551 L210.04652,27.4260551 L210.921565,29.6768242 L211.796611,27.4260551 L212.64959,27.4260551 L212.64959,30.5084978 L212.111627,30.5084978 L212.111627,27.9202655 Z M207.331596,27.9202655 L206.381981,27.9202655 L206.381981,27.4260551 L208.821456,27.4260551 L208.821456,27.9202655 L207.869939,27.9202655 L207.869939,30.5084978 L207.331596,30.5084978 L207.331596,27.9202655 Z" id="Fill-10" fill="#FEFEFE"></path></g></g></g></svg> 