<svg version="1" xmlns="http://www.w3.org/2000/svg" width="632" height="632" viewBox="0 0 474.000000 474.000000"><path d="M73.9 85.6c-11.8 14.7-21.8 27.2-22.4 27.8-.5.6-3.7 4.5-7 8.6s-6.8 8.4-7.7 9.5c-6 7.2-16.8 21-16.8 21.5 0 .3 1 1.6 2.3 3 1.2 1.4 6.7 8.1 12.3 15 5.5 6.9 14.8 18.3 20.5 25.5 5.8 7.1 14.3 17.7 18.9 23.5 4.7 5.8 9.2 11.4 10.2 12.5.9 1.1 8.3 10.3 16.5 20.5 17.2 21.4 61 75.7 65.6 81.4 3 3.7 39.4 48.8 46.1 57 1.7 2.2 3.6 4.4 4.1 5 .6.6 4.3 5.2 8.2 10.2 4 5 7.8 9.6 8.6 10.2 1 .9 4.9-3.4 18.2-20 9.4-11.6 21.3-26.4 26.5-32.8 10.3-12.8 73.3-90.7 100.4-124.5 9.4-11.5 23.7-29.3 31.9-39.5 35.2-43.4 37.9-46.9 37.1-48.2-.7-1.1-29.5-37.2-34.6-43.3-.9-1.1-5.1-6.3-9.3-11.5-4.1-5.2-8.1-10.2-8.8-11-.7-.8-5.9-7.2-11.5-14.3L372.9 59h-35c-39.5 0-36.8-.8-29.2 8 2.1 2.5 11.7 14.4 21.3 26.5 9.6 12.1 17.7 22.2 18 22.5.7.6 15.6 19.3 19.1 24 1.5 1.9 3.5 4.4 4.6 5.5 1.1 1.1 2.7 3.2 3.7 4.7l1.7 2.7-13.8 17.3c-7.6 9.5-14.6 18.2-15.5 19.3-2.5 3-19.2 23.6-36.8 45.5-8.5 10.6-19.8 24.5-25 31-5.2 6.4-18.9 23.4-30.5 37.7-11.5 14.3-21.4 25.9-22 25.6-.5-.2-4.7-5.3-9.3-11.1-4.6-5.9-9.5-12.2-11-13.9-1.5-1.8-4.1-4.9-5.8-7-9.7-12.1-35.5-44.1-59-73.3-14.9-18.4-33.9-42-42.2-52.4-10-12.3-14.9-19.2-14.4-20 3-3.9 26.8-33.4 27.9-34.6 1.2-1.3 10-1.5 66.9-1.5 64.3 0 65.6 0 67.4 2 1 1.1 7.2 9 13.8 17.5l12 15.4-5.1 6.6c-2.9 3.5-12.2 15.1-20.7 25.6-29.7 36.6-55.5 68.8-55.8 69.6-.3.7 13.6 18.9 15.8 20.8.3.3 4.6 5.6 9.4 11.7 4.9 6.2 9.2 11.3 9.6 11.3.4 0 4-4.2 8-9.3 4.1-5 7.7-9.4 8-9.7.3-.3 2.1-2.5 4-5s3.7-4.7 4-5c.3-.3 3.2-3.9 6.6-8 3.3-4.1 22.4-27.8 42.4-52.5 20-24.8 38.6-47.7 41.2-50.9 2.6-3.3 4.8-6.4 4.8-6.9 0-.7-11.7-15.5-14-17.7-.3-.3-1.7-2.1-3.2-4.2-1.5-2-3.4-4.2-4.1-5-.7-.7-4-4.7-7.2-8.8-3.3-4.1-6.2-7.7-6.5-8-.3-.3-2.5-3-5-6s-4.9-6-5.5-6.6c-.5-.6-6.8-8.4-14-17.3l-13-16.1H95.3L73.9 85.6z"/></svg>