<?xml version="1.0" encoding="UTF-8"?> <!-- Generator: Adobe Illustrator 23.1.0, SVG Export Plug-In . SVG Version: 6.00 Build 0) --> <svg xmlns="http://www.w3.org/2000/svg" xmlns:xlink="http://www.w3.org/1999/xlink" version="1.1" id="Layer_1" x="0px" y="0px" viewBox="0 0 235.5 199.6" style="enable-background:new 0 0 235.5 199.6;" xml:space="preserve"> <style type="text/css"> .st0{display:none;} .st1{display:inline;} .st2{fill-rule:evenodd;clip-rule:evenodd;} .st3{fill-rule:evenodd;clip-rule:evenodd;fill:#FFFFFF;} .st4{opacity:0.423;} .st5{filter:url(#Adobe_OpacityMaskFilter);} .st6{opacity:0.287;mask:url(#z8ewhbfc8e_1_);fill-rule:evenodd;clip-rule:evenodd;fill:#32C5FF;enable-background:new ;} .st7{opacity:0.697;fill-rule:evenodd;clip-rule:evenodd;fill:#FFFFFF;stroke:#024F71;stroke-width:1.093;enable-background:new ;} .st8{fill:none;stroke:#024F71;stroke-width:0.547;stroke-linecap:round;stroke-dasharray:0.547,1.64;} .st9{opacity:0.498;} .st10{fill-rule:evenodd;clip-rule:evenodd;fill:#024F71;} .st11{fill:#024F71;} .st12{font-family:'OpenSans-Regular';} .st13{font-size:6.561px;} .st14{fill:none;stroke:#2B2B2B;stroke-width:0.547;stroke-linecap:round;stroke-dasharray:1.094;} .st15{opacity:0.5;} .st16{fill:none;stroke:#024F71;stroke-width:0.547;stroke-linecap:round;} .st17{fill-rule:evenodd;clip-rule:evenodd;fill:#0091FF;} .st18{fill-rule:evenodd;clip-rule:evenodd;fill:url(#SVGID_1_);} .st19{fill-rule:evenodd;clip-rule:evenodd;fill:url(#SVGID_2_);} .st20{fill:#005A80;} </style> <g> <g> <g> <g transform="translate(-636 -3769) translate(636 3769)" class="st0"> <g class="st1"> <path id="actwl5m3xb" class="st2" d="M-25.6-2.8h288c3.3,0,6,2.7,6,6v196c0,3.3-2.7,6-6,6h-288c-3.3,0-6-2.7-6-6V3.2 C-31.6-0.1-28.9-2.8-25.6-2.8z"></path> </g> <g class="st1"> <path class="st3" d="M-25.6-2.8h288c3.3,0,6,2.7,6,6v196c0,3.3-2.7,6-6,6h-288c-3.3,0-6-2.7-6-6V3.2 C-31.6-0.1-28.9-2.8-25.6-2.8z"></path> </g> </g> <g transform="translate(-636 -3769) translate(636 3769) translate(18 17)" class="st4"> <defs> <filter id="Adobe_OpacityMaskFilter" x="3.8" y="-14.6" width="192.5" height="192.5"> <feColorMatrix type="matrix" values="1 0 0 0 0 0 1 0 0 0 0 0 1 0 0 0 0 0 1 0"></feColorMatrix> </filter> </defs> <mask maskUnits="userSpaceOnUse" x="3.8" y="-14.6" width="192.5" height="192.5" id="z8ewhbfc8e_1_"> <g class="st5"> <path id="ua73apm6kc_1_" class="st3" d="M-47.6-18.8h295.2v206.7H-47.6V-18.8z"></path> </g> </mask> <circle class="st6" cx="100" cy="81.7" r="96.2"></circle> </g> <g transform="translate(-636 -3769) translate(636 3769) translate(60.74 33.762)"> <path class="st7" d="M-44.9-18.2h56.3c1.2,0,2.2,1,2.2,2.2v119.2c0,1.2-1,2.2-2.2,2.2h-56.3c-1.2,0-2.2-1-2.2-2.2V-16 C-47-17.2-46.1-18.2-44.9-18.2z"></path> <g> <path class="st8" d="M-2.2,71.7c0-2.9-6.4-5.2-14.2-5.2s-14.2,2.3-14.2,5.2"></path> <path class="st8" d="M-2.2,94.4c0,2.9-6.4,5.2-14.2,5.2s-14.2-2.3-14.2-5.2"></path> <path class="st8" d="M-2.2,94.4V71.7 M-30.6,94.4V71.7"></path> </g> <g> <g class="st9"> <path class="st10" d="M-30.6,13.7l13.8,7.6L-3,13.7l-13.8-7.6L-30.6,13.7L-30.6,13.7z M-16.7,22.6c-0.1,0-0.2,0-0.3-0.1 l-15.2-8.3c-0.2-0.1-0.3-0.3-0.3-0.6c0-0.2,0.1-0.4,0.3-0.6l15.1-8.2c0.2-0.1,0.4-0.1,0.6,0l15.2,8.3c0.2,0.1,0.3,0.3,0.3,0.6 s-0.1,0.4-0.3,0.6l-15.1,8.2C-16.5,22.6-16.6,22.6-16.7,22.6z"></path> <path class="st10" d="M-16.7,28.7c-0.1,0-0.2,0-0.3-0.1l-15.2-8.5c-0.3-0.2-0.4-0.6-0.3-0.9c0.2-0.3,0.6-0.4,0.9-0.3l14.9,8.3 L-2,19c0.3-0.2,0.7-0.1,0.9,0.3c0.2,0.3,0.1,0.7-0.2,0.9l-15.1,8.4C-16.5,28.7-16.6,28.7-16.7,28.7"></path> <path class="st10" d="M-16.7,34.2c-0.1,0-0.2,0-0.3-0.1l-15.2-8.5c-0.3-0.2-0.4-0.6-0.3-0.9c0.2-0.3,0.6-0.4,0.9-0.3l14.9,8.3 L-2,24.6c0.3-0.2,0.7-0.1,0.9,0.3c0.2,0.3,0.1,0.7-0.2,0.9l-15.1,8.4C-16.5,34.2-16.6,34.2-16.7,34.2"></path> </g> <path class="st11" d="M-27.9-5.7c0.5,0,0.9-0.1,1.2-0.2v-0.7c-0.2,0.1-0.4,0.1-0.6,0.2c-0.2,0-0.4,0.1-0.6,0.1 c-0.5,0-0.8-0.1-1.1-0.4c-0.2-0.3-0.4-0.7-0.4-1.3c0-0.6,0.1-1,0.4-1.3c0.3-0.3,0.6-0.5,1-0.5c0.2,0,0.4,0,0.6,0.1 c0.2,0.1,0.3,0.1,0.5,0.2l0.3-0.6c-0.4-0.2-0.8-0.3-1.3-0.3c-0.5,0-0.9,0.1-1.2,0.3c-0.3,0.2-0.6,0.5-0.8,0.8 C-29.9-9-30-8.6-30-8.1c0,0.8,0.2,1.4,0.6,1.8C-29.1-5.9-28.6-5.7-27.9-5.7z M-25-5.8v-5h-0.8v5H-25L-25-5.8z M-22.6-5.7 c0.2,0,0.5,0,0.7-0.1c0.2-0.1,0.3-0.2,0.4-0.4h0l0.1,0.5h0.6v-3.5h-0.8v1.8c0,0.4-0.1,0.8-0.2,0.9c-0.1,0.2-0.4,0.3-0.7,0.3 c-0.2,0-0.4-0.1-0.5-0.2c-0.1-0.1-0.2-0.3-0.2-0.6v-2.2h-0.8V-7c0,0.4,0.1,0.8,0.3,1C-23.4-5.8-23.1-5.7-22.6-5.7z M-18.8-5.7 c0.5,0,0.8-0.1,1.1-0.3s0.4-0.4,0.4-0.8c0-0.2,0-0.3-0.1-0.4c-0.1-0.1-0.2-0.2-0.3-0.3c-0.1-0.1-0.3-0.2-0.6-0.3 c-0.3-0.1-0.6-0.2-0.7-0.3c-0.1-0.1-0.2-0.2-0.2-0.3c0-0.2,0.2-0.3,0.6-0.3c0.3,0,0.6,0.1,1,0.2l0.2-0.6 c-0.4-0.2-0.8-0.3-1.2-0.3c-0.4,0-0.8,0.1-1,0.3C-19.8-8.9-20-8.7-20-8.4c0,0.3,0.1,0.5,0.2,0.6c0.1,0.2,0.4,0.3,0.8,0.5 c0.2,0.1,0.4,0.2,0.5,0.2c0.1,0.1,0.2,0.1,0.3,0.2c0.1,0.1,0.1,0.1,0.1,0.2c0,0.3-0.2,0.4-0.7,0.4c-0.4,0-0.7-0.1-1.2-0.3v0.7 C-19.7-5.8-19.3-5.7-18.8-5.7z M-15.4-5.7c0.1,0,0.3,0,0.4,0c0.1,0,0.2-0.1,0.3-0.1v-0.6c-0.2,0.1-0.4,0.1-0.6,0.1 c-0.1,0-0.3,0-0.4-0.1c-0.1-0.1-0.1-0.2-0.1-0.4v-1.9h1v-0.6h-1v-0.8h-0.5l-0.3,0.8l-0.5,0.3v0.3h0.5v1.9 C-16.5-6.1-16.1-5.7-15.4-5.7z M-12.4-5.7c0.2,0,0.5,0,0.6-0.1c0.2,0,0.4-0.1,0.6-0.2v-0.6c-0.2,0.1-0.4,0.2-0.6,0.2 c-0.2,0-0.4,0.1-0.6,0.1c-0.3,0-0.6-0.1-0.7-0.3c-0.2-0.2-0.3-0.4-0.3-0.8h2.4v-0.4c0-0.5-0.1-0.9-0.4-1.2 c-0.3-0.3-0.6-0.4-1.1-0.4c-0.5,0-0.9,0.2-1.2,0.5s-0.4,0.8-0.4,1.4c0,0.6,0.2,1,0.5,1.3C-13.4-5.9-13-5.7-12.4-5.7z M-11.8-7.9h-1.6c0-0.3,0.1-0.5,0.3-0.7c0.1-0.2,0.3-0.2,0.6-0.2c0.2,0,0.4,0.1,0.6,0.2C-11.8-8.4-11.8-8.2-11.8-7.9z M-9.4-5.8v-1.9c0-0.3,0.1-0.6,0.3-0.8C-9-8.6-8.7-8.7-8.4-8.7c0.1,0,0.2,0,0.3,0L-8-9.3c-0.1,0-0.2,0-0.4,0 c-0.2,0-0.4,0.1-0.6,0.2c-0.2,0.1-0.3,0.3-0.5,0.5h0l-0.1-0.6h-0.6v3.5H-9.4z M-3.7-5.8v-4.7h-0.6l-1.4,1.1l0.4,0.5 c0.4-0.3,0.6-0.5,0.7-0.6c0.1-0.1,0.1-0.1,0.2-0.2c0,0.2,0,0.5,0,0.9v3H-3.7L-3.7-5.8z"></path> <text transform="matrix(1 0 0 1 -22.6815 15.5686)" class="st11 st12 st13">App</text> <path class="st14" d="M2.9,12.2L-16.4,1.5l-18.9,10.2v15.9l18.7,10.5L2.9,27V12.2z"></path> </g> <g class="st15"> <path class="st10" d="M-16.4,70.3c6.6,0,10.7,1.9,10.7,3.2c0,1.3-4.1,3.2-10.7,3.2c-6.6,0-10.7-1.9-10.7-3.2 C-27.1,72.2-23,70.3-16.4,70.3z M-27.1,75.7c2.1,1.6,6.5,2.4,10.7,2.4c4.2,0,8.6-0.8,10.7-2.4V80c0,1.3-4.1,3.2-10.7,3.2 c-6.6,0-10.7-1.9-10.7-3.2C-27.1,80-27.1,75.7-27.1,75.7z M-27.1,82.1c2.1,1.6,6.5,2.4,10.7,2.4c4.2,0,8.6-0.8,10.7-2.4v4.3 c0,1.3-4.1,3.2-10.7,3.2c-6.6,0-10.7-1.9-10.7-3.2C-27.1,86.4-27.1,82.1-27.1,82.1z M-16.4,96.1c-6.6,0-10.7-1.9-10.7-3.2v-4.3 c2.1,1.6,6.5,2.4,10.7,2.4c4.2,0,8.6-0.8,10.7-2.4v4.3C-5.7,94.2-9.8,96.1-16.4,96.1z M-16.4,97.4c5.8,0,12-1.6,12-4.5v-5.8 h-0.1c0.1-0.2,0.1-0.4,0.1-0.6v-5.8h-0.1c0.1-0.2,0.1-0.4,0.1-0.6v-6.5c0-2.9-6.2-4.5-12-4.5c-5.8,0-12,1.6-12,4.5V80 c0,0.2,0,0.4,0.1,0.6h-0.1v5.8c0,0.2,0,0.4,0.1,0.6h-0.1v5.8C-28.5,95.8-22.3,97.4-16.4,97.4z"></path> </g> <path class="st8" d="M-37.5,51.8H4.6"></path> <g> <path class="st16" d="M-17.8,41.4l1.1-1.1l1.1,1.1"></path> <path class="st16" d="M-17.8,48.5l1.1,1.1l1.1-1.1"></path> <path class="st16" d="M-16.6,40.8v8.7"></path> </g> <g> <path class="st16" d="M-17.8,55.6l1.1-1.1l1.1,1.1"></path> <path class="st16" d="M-17.8,62.7l1.1,1.1l1.1-1.1"></path> <path class="st16" d="M-16.6,55v8.7"></path> </g> </g> <g> <g> <g> <path class="st3" d="M55.4,153.3h23.4c0.8,0,1.5,0.6,1.6,1.3l1.4,7.1v20c0,0.9-0.7,1.6-1.6,1.6H53.9c-0.9,0-1.6-0.7-1.6-1.6 v-19.6l1.6-7.5C54,153.9,54.6,153.3,55.4,153.3z"></path> <path class="st11" d="M82.8,167v-5.3c0,0,0,0,0-0.1v-0.1l-1.9-7.6c-0.2-0.7-0.8-1.2-1.5-1.2H54.7c-0.7,0-1.4,0.5-1.5,1.2 l-1.9,7.6v0.1c0,0,0,0,0,0.1v5.3c0,0.8,0.4,1.6,1.1,2.1c-0.7,0.5-1.1,1.3-1.1,2.1v3.2c0,0.8,0.4,1.6,1.1,2.1 c-0.7,0.5-1.1,1.3-1.1,2.1v3.2c0,1.5,1.2,2.6,2.6,2.6h26.3c1.5,0,2.6-1.2,2.6-2.6v-3.2c0-0.8-0.4-1.6-1.1-2.1 c0.7-0.5,1.1-1.3,1.1-2.1v-3.2c0-0.8-0.4-1.6-1.1-2.1C82.4,168.6,82.8,167.8,82.8,167L82.8,167z M54.2,154.2 c0.1-0.2,0.3-0.4,0.5-0.4h24.7c0.2,0,0.5,0.2,0.5,0.4l1.7,7H52.4C52.4,161.2,54.2,154.2,54.2,154.2z M81.7,178.6v3.2 c0,0.9-0.7,1.6-1.6,1.6H53.8c-0.9,0-1.6-0.7-1.6-1.6v-3.2c0-0.9,0.7-1.6,1.6-1.6h26.3C81,177,81.7,177.7,81.7,178.6 L81.7,178.6z M81.7,171.2v3.2c0,0.9-0.7,1.6-1.6,1.6H53.8c-0.9,0-1.6-0.7-1.6-1.6v-3.2c0-0.9,0.7-1.6,1.6-1.6h26.3 C81,169.6,81.7,170.3,81.7,171.2L81.7,171.2z M81.7,167c0,0.9-0.7,1.6-1.6,1.6H53.8c-0.9,0-1.6-0.7-1.6-1.6v-4.7h29.5 L81.7,167L81.7,167z"></path> <g> <path class="st11" d="M57.1,167.6c1.2,0,2.1-0.9,2.1-2.1c0-1.1-0.9-2.1-2.1-2.1c-1.2,0-2.1,0.9-2.1,2.1 C55,166.7,55.9,167.6,57.1,167.6z M57.1,164.5c0.6,0,1.1,0.5,1.1,1c0,0.6-0.5,1-1.1,1c-0.6,0-1.1-0.5-1.1-1 C56,165,56.5,164.5,57.1,164.5z M57.1,174.8c1.2,0,2.1-0.9,2.1-2.1c0-1.1-0.9-2.1-2.1-2.1c-1.2,0-2.1,0.9-2.1,2.1 C55,173.9,55.9,174.8,57.1,174.8z M57.1,171.7c0.6,0,1.1,0.5,1.1,1c0,0.6-0.5,1-1.1,1c-0.6,0-1.1-0.5-1.1-1 C56,172.2,56.5,171.7,57.1,171.7z M57.1,182.1c1.2,0,2.1-0.9,2.1-2.1c0-1.1-0.9-2.1-2.1-2.1c-1.2,0-2.1,0.9-2.1,2.1 C55,181.2,55.9,182.1,57.1,182.1z M57.1,179c0.6,0,1.1,0.5,1.1,1c0,0.6-0.5,1-1.1,1c-0.6,0-1.1-0.5-1.1-1 C56,179.5,56.5,179,57.1,179z M72.4,164.5h1.1v2.1h-1.1V164.5z M74.5,164.5h1.1v2.1h-1.1V164.5z M76.6,164.5h1.1v2.1h-1.1 V164.5z M78.7,164.5h1.1v2.1h-1.1V164.5z M72.4,171.7h1.1v2.1h-1.1V171.7z M74.5,171.7h1.1v2.1h-1.1V171.7z M76.6,171.7h1.1 v2.1h-1.1V171.7z M78.7,171.7h1.1v2.1h-1.1V171.7z M72.4,179h1.1v2.1h-1.1V179z M74.5,179h1.1v2.1h-1.1V179z M76.6,179h1.1 v2.1h-1.1V179z M78.7,179h1.1v2.1h-1.1V179z"></path> </g> </g> <path class="st17" d="M33.2,184.6v-1.6H10.4c-2.7,0-4.9-2.2-4.9-4.9c0-2.5,2-4.7,4.5-4.8l0.1,0c0.6,0,1.2,0,1.8,0.2l0.5-1.6 c-0.6-0.2-1.1-0.3-1.7-0.3c-0.1-0.5-0.2-1.1-0.2-1.6c0-4,3.3-7.3,7.3-7.3c3.1,0,5.9,2,6.9,4.9l0.1,0.2c0.1,0.5,0.3,1,0.3,1.4 l1.6-0.2c0-0.5-0.2-1-0.3-1.5c0.8-0.6,1.8-0.9,2.8-0.9c2.7,0,4.9,2.2,4.9,4.9c0,0.3,0,0.6-0.1,0.9l0,0 c-0.1,0.6-0.3,1.1-0.6,1.6l1.4,0.8c0.3-0.5,0.5-1,0.7-1.6c0.3-0.1,0.7-0.1,1.1-0.1c2.7,0,4.9,2.2,4.9,4.9s-2.2,4.9-4.9,4.9 h-3.1V184.6h3.1c3.6,0,6.5-2.9,6.5-6.5c0-3.6-2.9-6.5-6.5-6.5c-0.3,0-0.5,0-0.8,0.1v0c0-3.6-2.9-6.5-6.5-6.5 c-1.2,0-2.4,0.3-3.4,0.9c-1.5-3-4.6-5-8-5c-4.9,0-8.9,4-8.9,8.9c0,0.6,0.1,1.2,0.2,1.8c-2.9,0.7-5.1,3.3-5.1,6.3 c0,3.6,2.9,6.5,6.5,6.5H33.2L33.2,184.6z"></path> </g> </g> <g> <g> <g> <path class="st3" d="M201.9,153.3h23.4c0.8,0,1.5,0.6,1.6,1.3l1.4,7.1v20c0,0.9-0.7,1.6-1.6,1.6h-26.2c-0.9,0-1.6-0.7-1.6-1.6 v-19.6l1.6-7.5C200.5,153.9,201.2,153.3,201.9,153.3z"></path> <path class="st11" d="M229.3,167v-5.3c0,0,0,0,0-0.1v-0.1l-1.9-7.6c-0.2-0.7-0.8-1.2-1.5-1.2h-24.7c-0.7,0-1.4,0.5-1.5,1.2 l-1.9,7.6v0.1c0,0,0,0,0,0.1v5.3c0,0.8,0.4,1.6,1.1,2.1c-0.7,0.5-1.1,1.3-1.1,2.1v3.2c0,0.8,0.4,1.6,1.1,2.1 c-0.7,0.5-1.1,1.3-1.1,2.1v3.2c0,1.5,1.2,2.6,2.6,2.6h26.3c1.5,0,2.6-1.2,2.6-2.6v-3.2c0-0.8-0.4-1.6-1.1-2.1 c0.7-0.5,1.1-1.3,1.1-2.1v-3.2c0-0.8-0.4-1.6-1.1-2.1C228.9,168.6,229.3,167.8,229.3,167L229.3,167z M200.7,154.2 c0.1-0.2,0.3-0.4,0.5-0.4h24.7c0.2,0,0.5,0.2,0.5,0.4l1.7,7h-29.2C198.9,161.2,200.7,154.2,200.7,154.2z M228.3,178.6v3.2 c0,0.9-0.7,1.6-1.6,1.6h-26.3c-0.9,0-1.6-0.7-1.6-1.6v-3.2c0-0.9,0.7-1.6,1.6-1.6h26.3C227.6,177,228.3,177.7,228.3,178.6 L228.3,178.6z M228.3,171.2v3.2c0,0.9-0.7,1.6-1.6,1.6h-26.3c-0.9,0-1.6-0.7-1.6-1.6v-3.2c0-0.9,0.7-1.6,1.6-1.6h26.3 C227.6,169.6,228.3,170.3,228.3,171.2L228.3,171.2z M228.3,167c0,0.9-0.7,1.6-1.6,1.6h-26.3c-0.9,0-1.6-0.7-1.6-1.6v-4.7h29.5 L228.3,167L228.3,167z"></path> <g> <path class="st11" d="M203.6,167.6c1.2,0,2.1-0.9,2.1-2.1c0-1.1-0.9-2.1-2.1-2.1c-1.2,0-2.1,0.9-2.1,2.1 C201.5,166.7,202.4,167.6,203.6,167.6z M203.6,164.5c0.6,0,1.1,0.5,1.1,1c0,0.6-0.5,1-1.1,1c-0.6,0-1.1-0.5-1.1-1 C202.6,165,203,164.5,203.6,164.5z M203.6,174.8c1.2,0,2.1-0.9,2.1-2.1c0-1.1-0.9-2.1-2.1-2.1c-1.2,0-2.1,0.9-2.1,2.1 C201.5,173.9,202.4,174.8,203.6,174.8z M203.6,171.7c0.6,0,1.1,0.5,1.1,1c0,0.6-0.5,1-1.1,1c-0.6,0-1.1-0.5-1.1-1 C202.6,172.2,203,171.7,203.6,171.7z M203.6,182.1c1.2,0,2.1-0.9,2.1-2.1c0-1.1-0.9-2.1-2.1-2.1c-1.2,0-2.1,0.9-2.1,2.1 C201.5,181.2,202.4,182.1,203.6,182.1z M203.6,179c0.6,0,1.1,0.5,1.1,1c0,0.6-0.5,1-1.1,1c-0.6,0-1.1-0.5-1.1-1 C202.6,179.5,203,179,203.6,179z M218.9,164.5h1.1v2.1h-1.1V164.5z M221,164.5h1.1v2.1H221V164.5z M223.2,164.5h1.1v2.1h-1.1 V164.5z M225.3,164.5h1.1v2.1h-1.1V164.5z M218.9,171.7h1.1v2.1h-1.1V171.7z M221,171.7h1.1v2.1H221V171.7z M223.2,171.7h1.1 v2.1h-1.1V171.7z M225.3,171.7h1.1v2.1h-1.1V171.7z M218.9,179h1.1v2.1h-1.1V179z M221,179h1.1v2.1H221V179z M223.2,179h1.1 v2.1h-1.1V179z M225.3,179h1.1v2.1h-1.1V179z"></path> </g> </g> <path class="st17" d="M179.8,184.6v-1.6h-22.9c-2.7,0-4.9-2.2-4.9-4.9c0-2.5,2-4.7,4.5-4.8l0.1,0c0.6,0,1.2,0,1.8,0.2l0.5-1.6 c-0.6-0.2-1.1-0.3-1.7-0.3c-0.1-0.5-0.2-1.1-0.2-1.6c0-4,3.3-7.3,7.3-7.3c3.1,0,5.9,2,6.9,4.9l0.1,0.2c0.1,0.5,0.3,1,0.3,1.4 l1.6-0.2c0-0.5-0.2-1-0.3-1.5c0.8-0.6,1.8-0.9,2.8-0.9c2.7,0,4.9,2.2,4.9,4.9c0,0.3,0,0.6-0.1,0.9l0,0 c-0.1,0.6-0.3,1.1-0.6,1.6l1.4,0.8c0.3-0.5,0.5-1,0.7-1.6c0.3-0.1,0.7-0.1,1.1-0.1c2.7,0,4.9,2.2,4.9,4.9s-2.2,4.9-4.9,4.9 h-3.1V184.6h3.1c3.6,0,6.5-2.9,6.5-6.5c0-3.6-2.9-6.5-6.5-6.5c-0.3,0-0.5,0-0.8,0.1v0c0-3.6-2.9-6.5-6.5-6.5 c-1.2,0-2.4,0.3-3.4,0.9c-1.5-3-4.6-5-8-5c-4.9,0-8.9,4-8.9,8.9c0,0.6,0.1,1.2,0.2,1.8c-2.9,0.7-5.1,3.3-5.1,6.3 c0,3.6,2.9,6.5,6.5,6.5H179.8L179.8,184.6z"></path> </g> </g> <g transform="translate(-636 -3769) translate(636 3769) translate(207.269 33.762)"> <path class="st7" d="M-44.9-18.2h56.3c1.2,0,2.2,1,2.2,2.2v119.2c0,1.2-1,2.2-2.2,2.2h-56.3c-1.2,0-2.2-1-2.2-2.2V-16 C-47-17.2-46.1-18.2-44.9-18.2z"></path> <g> <g> <path class="st10" d="M-30.6,13.7l13.8,7.6L-3,13.7l-13.8-7.6L-30.6,13.7L-30.6,13.7z M-16.7,22.6c-0.1,0-0.2,0-0.3-0.1 l-15.2-8.3c-0.2-0.1-0.3-0.3-0.3-0.6c0-0.2,0.1-0.4,0.3-0.6l15.1-8.2c0.2-0.1,0.4-0.1,0.6,0l15.2,8.3c0.2,0.1,0.3,0.3,0.3,0.6 s-0.1,0.4-0.3,0.6l-15.1,8.2C-16.5,22.6-16.6,22.6-16.7,22.6z"></path> <path class="st10" d="M-16.7,28.7c-0.1,0-0.2,0-0.3-0.1l-15.2-8.5c-0.3-0.2-0.4-0.6-0.3-0.9c0.2-0.3,0.6-0.4,0.9-0.3l14.9,8.3 L-2,19c0.3-0.2,0.7-0.1,0.9,0.3c0.2,0.3,0.1,0.7-0.2,0.9l-15.1,8.4C-16.5,28.7-16.6,28.7-16.7,28.7"></path> <path class="st10" d="M-16.7,34.2c-0.1,0-0.2,0-0.3-0.1l-15.2-8.5c-0.3-0.2-0.4-0.6-0.3-0.9c0.2-0.3,0.6-0.4,0.9-0.3l14.9,8.3 L-2,24.6c0.3-0.2,0.7-0.1,0.9,0.3c0.2,0.3,0.1,0.7-0.2,0.9l-15.1,8.4C-16.5,34.2-16.6,34.2-16.7,34.2"></path> </g> <path class="st11" d="M-27.9-5.7c0.5,0,0.9-0.1,1.2-0.2v-0.7c-0.2,0.1-0.4,0.1-0.6,0.2c-0.2,0-0.4,0.1-0.6,0.1 c-0.5,0-0.8-0.1-1.1-0.4c-0.2-0.3-0.4-0.7-0.4-1.3c0-0.6,0.1-1,0.4-1.3c0.3-0.3,0.6-0.5,1-0.5c0.2,0,0.4,0,0.6,0.1 c0.2,0.1,0.3,0.1,0.5,0.2l0.3-0.6c-0.4-0.2-0.8-0.3-1.3-0.3c-0.5,0-0.9,0.1-1.2,0.3c-0.3,0.2-0.6,0.5-0.8,0.8 C-29.9-9-30-8.6-30-8.1c0,0.8,0.2,1.4,0.6,1.8S-28.6-5.7-27.9-5.7z M-25-5.8v-5h-0.8v5H-25L-25-5.8z M-22.6-5.7 c0.2,0,0.5,0,0.7-0.1c0.2-0.1,0.3-0.2,0.4-0.4h0l0.1,0.5h0.6v-3.5h-0.8v1.8c0,0.4-0.1,0.8-0.2,0.9c-0.1,0.2-0.4,0.3-0.7,0.3 c-0.2,0-0.4-0.1-0.5-0.2c-0.1-0.1-0.2-0.3-0.2-0.6v-2.2h-0.8V-7c0,0.4,0.1,0.8,0.3,1C-23.4-5.8-23.1-5.7-22.6-5.7z M-18.8-5.7 c0.5,0,0.8-0.1,1.1-0.3c0.3-0.2,0.4-0.4,0.4-0.8c0-0.2,0-0.3-0.1-0.4c-0.1-0.1-0.2-0.2-0.3-0.3c-0.1-0.1-0.3-0.2-0.6-0.3 c-0.3-0.1-0.6-0.2-0.7-0.3c-0.1-0.1-0.2-0.2-0.2-0.3c0-0.2,0.2-0.3,0.6-0.3c0.3,0,0.6,0.1,1,0.2l0.2-0.6 c-0.4-0.2-0.8-0.3-1.2-0.3c-0.4,0-0.8,0.1-1,0.3C-19.8-8.9-20-8.7-20-8.4c0,0.3,0.1,0.5,0.2,0.6c0.1,0.2,0.4,0.3,0.8,0.5 c0.2,0.1,0.4,0.2,0.5,0.2c0.1,0.1,0.2,0.1,0.3,0.2c0.1,0.1,0.1,0.1,0.1,0.2c0,0.3-0.2,0.4-0.7,0.4c-0.4,0-0.7-0.1-1.2-0.3v0.7 C-19.7-5.8-19.3-5.7-18.8-5.7z M-15.4-5.7c0.1,0,0.3,0,0.4,0c0.1,0,0.2-0.1,0.3-0.1v-0.6c-0.2,0.1-0.4,0.1-0.6,0.1 c-0.1,0-0.3,0-0.4-0.1c-0.1-0.1-0.1-0.2-0.1-0.4v-1.9h1v-0.6h-1v-0.8h-0.5l-0.3,0.8l-0.5,0.3v0.3h0.5v1.9 C-16.5-6.1-16.1-5.7-15.4-5.7z M-12.4-5.7c0.2,0,0.5,0,0.6-0.1c0.2,0,0.4-0.1,0.6-0.2v-0.6c-0.2,0.1-0.4,0.2-0.6,0.2 c-0.2,0-0.4,0.1-0.6,0.1c-0.3,0-0.6-0.1-0.7-0.3c-0.2-0.2-0.3-0.4-0.3-0.8h2.4v-0.4c0-0.5-0.1-0.9-0.4-1.2 c-0.3-0.3-0.6-0.4-1.1-0.4c-0.5,0-0.9,0.2-1.2,0.5s-0.4,0.8-0.4,1.4c0,0.6,0.2,1,0.5,1.3C-13.4-5.9-13-5.7-12.4-5.7z M-11.8-7.9h-1.6c0-0.3,0.1-0.5,0.3-0.7c0.1-0.2,0.3-0.2,0.6-0.2c0.2,0,0.4,0.1,0.6,0.2C-11.8-8.4-11.8-8.2-11.8-7.9L-11.8-7.9 z M-9.4-5.8v-1.9c0-0.3,0.1-0.6,0.3-0.8C-9-8.6-8.7-8.7-8.4-8.7c0.1,0,0.2,0,0.3,0L-8-9.3c-0.1,0-0.2,0-0.4,0 c-0.2,0-0.4,0.1-0.6,0.2c-0.2,0.1-0.3,0.3-0.5,0.5h0l-0.1-0.6h-0.6v3.5H-9.4z M-2.7-5.8v-0.7h-2.2v0l0.8-0.8 c0.4-0.3,0.6-0.6,0.8-0.8C-3.2-8.3-3.1-8.5-3-8.6C-2.9-8.8-2.9-9-2.9-9.2c0-0.4-0.1-0.7-0.4-0.9c-0.3-0.2-0.6-0.3-1-0.3 c-0.3,0-0.5,0-0.8,0.1c-0.2,0.1-0.5,0.2-0.8,0.5l0.4,0.5C-5.2-9.6-5-9.7-4.9-9.8c0.2-0.1,0.3-0.1,0.5-0.1 c0.2,0,0.4,0.1,0.5,0.2c0.1,0.1,0.2,0.3,0.2,0.5c0,0.2,0,0.3-0.1,0.4C-3.8-8.6-3.9-8.5-4-8.3c-0.1,0.2-0.4,0.4-0.7,0.8 l-1.2,1.2v0.6C-5.9-5.8-2.7-5.8-2.7-5.8z M-21.9,15.6l0.5-1.3h1.8l0.5,1.3h0.8l-1.8-4.7h-0.8l-1.8,4.7 C-22.7,15.6-21.9,15.6-21.9,15.6z M-19.8,13.6h-1.4l0.4-1.2c0.1-0.3,0.2-0.6,0.3-0.9c0,0.1,0.1,0.2,0.1,0.4 c0.1,0.2,0.1,0.3,0.1,0.4C-20.3,12.3-19.8,13.6-19.8,13.6z M-17.1,17.1v-1.5c0-0.1,0-0.2,0-0.5h0c0.2,0.3,0.6,0.5,1,0.5 c0.4,0,0.8-0.2,1-0.5c0.3-0.3,0.4-0.8,0.4-1.4s-0.1-1-0.4-1.3c-0.2-0.3-0.6-0.5-1-0.5c-0.5,0-0.8,0.2-1.1,0.5h0 c-0.1-0.3-0.1-0.4-0.1-0.5h-0.6v5.1L-17.1,17.1L-17.1,17.1z M-16.2,15c-0.3,0-0.5-0.1-0.7-0.3c-0.1-0.2-0.2-0.5-0.2-0.9v-0.1 c0-0.4,0.1-0.7,0.2-0.8c0.1-0.2,0.4-0.3,0.7-0.3c0.3,0,0.5,0.1,0.6,0.3c0.1,0.2,0.2,0.5,0.2,0.9c0,0.4-0.1,0.7-0.2,0.9 C-15.7,14.9-15.9,15-16.2,15z M-13,17.1v-1.5c0-0.1,0-0.2,0-0.5h0c0.2,0.3,0.6,0.5,1,0.5c0.4,0,0.8-0.2,1-0.5 c0.3-0.3,0.4-0.8,0.4-1.4s-0.1-1-0.4-1.3c-0.2-0.3-0.6-0.5-1-0.5c-0.5,0-0.8,0.2-1.1,0.5h0c-0.1-0.3-0.1-0.4-0.1-0.5h-0.6v5.1 L-13,17.1L-13,17.1z M-12.1,15c-0.3,0-0.5-0.1-0.7-0.3c-0.1-0.2-0.2-0.5-0.2-0.9v-0.1c0-0.4,0.1-0.7,0.2-0.8 c0.1-0.2,0.4-0.3,0.7-0.3c0.3,0,0.5,0.1,0.6,0.3c0.1,0.2,0.2,0.5,0.2,0.9c0,0.4-0.1,0.7-0.2,0.9C-11.6,14.9-11.8,15-12.1,15z"></path> </g> <g> <path class="st10" d="M-16.4,70.3c6.6,0,10.7,1.9,10.7,3.2c0,1.3-4.1,3.2-10.7,3.2c-6.6,0-10.7-1.9-10.7-3.2 C-27.1,72.2-23,70.3-16.4,70.3z M-27.1,75.7c2.1,1.6,6.5,2.4,10.7,2.4c4.2,0,8.6-0.8,10.7-2.4V80c0,1.3-4.1,3.2-10.7,3.2 c-6.6,0-10.7-1.9-10.7-3.2C-27.1,80-27.1,75.7-27.1,75.7z M-27.1,82.1c2.1,1.6,6.5,2.4,10.7,2.4c4.2,0,8.6-0.8,10.7-2.4v4.3 c0,1.3-4.1,3.2-10.7,3.2c-6.6,0-10.7-1.9-10.7-3.2C-27.1,86.4-27.1,82.1-27.1,82.1z M-16.4,96.1c-6.6,0-10.7-1.9-10.7-3.2v-4.3 c2.1,1.6,6.5,2.4,10.7,2.4c4.2,0,8.6-0.8,10.7-2.4v4.3C-5.7,94.2-9.8,96.1-16.4,96.1z M-16.4,97.4c5.8,0,12-1.6,12-4.5v-5.8 h-0.1c0.1-0.2,0.1-0.4,0.1-0.6v-5.8h-0.1c0.1-0.2,0.1-0.4,0.1-0.6v-6.5c0-2.9-6.2-4.5-12-4.5c-5.8,0-12,1.6-12,4.5V80 c0,0.2,0,0.4,0.1,0.6h-0.1v5.8c0,0.2,0,0.4,0.1,0.6h-0.1v5.8C-28.5,95.8-22.3,97.4-16.4,97.4z"></path> </g> <path class="st8" d="M-37.5,51.8H4.6"></path> <g> <path class="st16" d="M-17.8,41.4l1.1-1.1l1.1,1.1"></path> <path class="st16" d="M-17.8,48.5l1.1,1.1l1.1-1.1"></path> <path class="st16" d="M-16.6,40.8v8.7"></path> </g> <g> <path class="st16" d="M-17.8,55.6l1.1-1.1l1.1,1.1"></path> <path class="st16" d="M-17.8,62.7l1.1,1.1l1.1-1.1"></path> <path class="st16" d="M-16.6,55v8.7"></path> </g> </g> <g> <g> <g> <linearGradient id="SVGID_1_" gradientUnits="userSpaceOnUse" x1="-127.9795" y1="482.8672" x2="-128.8101" y2="482.8672" gradientTransform="matrix(46.645 0 0 -91.816 6100.4868 44417.1211)"> <stop offset="0" style="stop-color:#FFFFFF"></stop> <stop offset="1" style="stop-color:#FFFFFF;stop-opacity:0"></stop> </linearGradient> <path class="st18" d="M92.1,42.3h29.9v-6l16.7,13.2l-16.7,13v-6.1H92.1V42.3z M92.1,108h29.9v-6l16.7,13.2l-16.7,13V122H92.1 V108z"></path> <linearGradient id="SVGID_2_" gradientUnits="userSpaceOnUse" x1="-128.0722" y1="482.9671" x2="-128.9028" y2="482.9671" gradientTransform="matrix(49.208 0 0 -95.1342 6434.1641 46028.9297)"> <stop offset="0" style="stop-color:#93D500"></stop> <stop offset="1" style="stop-color:#93D500;stop-opacity:0"></stop> </linearGradient> <path class="st19" d="M121.9,64.1c-0.5-0.2-0.7-0.7-0.7-1.2v-5H92.4c-0.7,0-1.3-0.6-1.3-1.3c0-0.7,0.6-1.3,1.3-1.3h30 c0.7,0,1.3,0.6,1.3,1.3v3.6L137,49.4l-13.3-10.8v3.6c0,0.7-0.6,1.3-1.3,1.3h-30c-0.7,0-1.3-0.6-1.3-1.3c0-0.7,0.6-1.3,1.3-1.3 h28.7v-5c0-0.5,0.3-1,0.7-1.2c0.5-0.2,1-0.2,1.4,0.2l16.6,13.5c0.3,0.2,0.5,0.6,0.5,1c0,0.4-0.2,0.8-0.5,1l-16.6,13.5 c-0.2,0.2-0.5,0.3-0.8,0.3C122.2,64.2,122.1,64.2,121.9,64.1z M121.9,129.7c-0.5-0.2-0.7-0.7-0.7-1.2v-5.1H92.4 c-0.7,0-1.3-0.6-1.3-1.3c0-0.7,0.6-1.3,1.3-1.3h30c0.7,0,1.3,0.6,1.3,1.3v3.6L137,115l-13.3-10.8v3.6c0,0.7-0.6,1.3-1.3,1.3 h-30c-0.7,0-1.3-0.6-1.3-1.3c0-0.7,0.6-1.3,1.3-1.3h28.7v-5c0-0.5,0.3-0.9,0.7-1.2c0.5-0.2,1-0.2,1.4,0.2l16.6,13.5 c0.3,0.2,0.5,0.6,0.5,1c0,0.4-0.2,0.8-0.5,1l-16.6,13.5c-0.2,0.2-0.5,0.3-0.8,0.3C122.2,129.8,122.1,129.8,121.9,129.7z"></path> </g> </g> <path class="st20" d="M91.7,89.8v-4.3c0-1,0-2-0.1-3.1h0l2.6,7.4h1.3l2.7-7.4h0c0,0.2,0,0.6-0.1,1.3c0,0.7,0,1.3,0,1.7v4.4h1.4 v-8.9h-2.1L94.9,88h0l-2.5-7.1h-2.1v8.9H91.7L91.7,89.8z M103.3,89.8v-8.9h-1.5v8.9H103.3z M109.5,89.9c0.6,0,1.1,0,1.6-0.1 c0.5-0.1,1-0.2,1.5-0.4v-4.5h-3.3v1.2h1.8v2.3c-0.5,0.1-1,0.2-1.5,0.2c-0.9,0-1.6-0.3-2.1-0.8c-0.5-0.6-0.7-1.4-0.7-2.5 c0-1,0.3-1.8,0.8-2.4c0.6-0.6,1.3-0.9,2.3-0.9c0.7,0,1.4,0.2,2.2,0.5l0.5-1.2c-0.8-0.4-1.7-0.5-2.6-0.5c-1.4,0-2.6,0.4-3.4,1.2 c-0.8,0.8-1.2,1.9-1.2,3.4c0,1.5,0.4,2.6,1.1,3.4C107.1,89.5,108.1,89.9,109.5,89.9z M116.2,89.8v-3.6h1.4l2.1,3.6h1.7l-2.5-3.9 c1.2-0.5,1.7-1.3,1.7-2.4c0-0.9-0.3-1.5-0.8-1.9c-0.6-0.4-1.4-0.6-2.5-0.6h-2.5v8.9H116.2L116.2,89.8z M117.2,85h-1v-2.9h1 c0.7,0,1.2,0.1,1.5,0.3c0.3,0.2,0.5,0.6,0.5,1.1c0,0.5-0.2,0.9-0.5,1.1C118.4,84.9,117.9,85,117.2,85L117.2,85z M123.1,89.8 l0.9-2.5h3.4l0.9,2.5h1.5l-3.3-8.9h-1.6l-3.3,8.9H123.1z M126.9,86.1h-2.6l0.8-2.3c0.2-0.6,0.4-1.1,0.5-1.6 c0,0.2,0.1,0.4,0.2,0.8c0.1,0.3,0.2,0.6,0.3,0.8C126.1,83.6,126.9,86.1,126.9,86.1z M134,89.8v-7.7h2.6v-1.2h-6.7v1.2h2.6v7.7 L134,89.8L134,89.8z M143,89.8v-1.2h-3.6v-2.8h3.4v-1.2h-3.4v-2.4h3.6v-1.2h-5v8.9C138,89.8,143,89.8,143,89.8z"></path> </g> </g> </g> </g> </svg> 