<?xml version="1.0" encoding="UTF-8"?> <svg xmlns="http://www.w3.org/2000/svg" xmlns:xlink="http://www.w3.org/1999/xlink" width="540" height="366" viewBox="0 0 540 366"><defs><linearGradient id="jvkyqdz2dd" x1="83.057%" x2="0%" y1="50%" y2="50%"><stop offset="0%" stop-color="#FFF"></stop><stop offset="100%" stop-color="#FFF" stop-opacity="0"></stop></linearGradient><linearGradient id="h5pl23lw9e" x1="83.057%" x2="0%" y1="50%" y2="50%"><stop offset="0%" stop-color="#93D500"></stop><stop offset="100%" stop-color="#93D500" stop-opacity="0"></stop></linearGradient><filter id="ez6kfy18mb" width="152.8%" height="152.8%" x="-26.4%" y="-26.4%"><feGaussianBlur in="SourceGraphic" stdDeviation="31"></feGaussianBlur></filter><path id="e6uusn9dra" d="M0 0L540 0 540 378 0 378z"></path></defs><g fill="none" fill-rule="evenodd"><g><g><g opacity=".423" transform="translate(-530 -224) translate(530 224)"><mask id="d30wkqg4ic" fill="#fff"><use xlink:href="#e6uusn9dra"></use></mask><circle cx="270" cy="202" r="176" fill="#32C5FF" filter="url(#ez6kfy18mb)" mask="url(#d30wkqg4ic)" opacity=".287"></circle></g><g transform="translate(-530 -224) translate(530 224) translate(80 27)"><rect width="111" height="226" x="1" y="1" fill="#FFF" stroke="#024F71" stroke-width="2" opacity=".697" rx="4"></rect><g stroke="#024F71" stroke-dasharray="1 3" stroke-linecap="round"><path d="M52.5 9.5c0-5.247-11.64-9.5-26-9.5S.5 4.253.5 9.5" transform="translate(30.5 156)"></path><path d="M52.5 60.5c0-5.247-11.64-9.5-26-9.5s-26 4.253-26 9.5" transform="translate(30.5 156) matrix(1 0 0 -1 0 111.5)"></path><path d="M52.5 51L52.5 9.5M.5 51L.5 9.5" transform="translate(30.5 156)"></path></g><g><g fill="#024F71" opacity=".498"><path d="M4.148 16.306l25.304 13.846L54.56 16.41 29.257 2.563 4.147 16.306zM29.452 32.65c-.2 0-.401-.05-.581-.149L1.129 17.322c-.377-.208-.61-.596-.61-1.016 0-.421.233-.81.61-1.016L28.676.212c.36-.195.802-.195 1.163 0l27.74 15.182c.376.206.61.596.61 1.016 0 .42-.234.81-.609 1.016L30.035 32.502c-.181.099-.382.15-.583.15z" transform="translate(22.432 11) translate(4.568 32)"></path><path d="M29.452 43.809c-.2 0-.401-.051-.581-.151L1.129 28.134c-.575-.32-.779-1.048-.457-1.62.32-.573 1.045-.778 1.62-.457l27.16 15.198 26.962-15.092c.577-.321 1.3-.116 1.622.458.322.571.117 1.297-.456 1.62L30.035 43.658c-.181.1-.38.151-.583.151" transform="translate(22.432 11) translate(4.568 32)"></path><path d="M29.452 53.942c-.2 0-.401-.05-.581-.151L1.129 38.268c-.575-.321-.779-1.049-.457-1.62.32-.574 1.045-.781 1.62-.458l27.16 15.198 26.962-15.092c.577-.318 1.3-.116 1.622.458.322.573.117 1.297-.456 1.62L30.035 53.792c-.181.1-.38.151-.583.151" transform="translate(22.432 11) translate(4.568 32)"></path></g><text fill="#024F71" font-family="OpenSans-Semibold, Open Sans" font-size="12" font-weight="500" transform="translate(22.432 11)"><tspan x="8.978" y="13">Cluster 1</tspan></text><text fill="#024F71" font-family="OpenSans-Semibold, Open Sans" font-size="12" font-weight="500" opacity=".5" transform="translate(22.432 11)"><tspan x="23.125" y="52">App</tspan></text><path stroke="#2B2B2B" stroke-dasharray="2" stroke-linecap="round" d="M70 45.653l-35.434-19.62L0 44.653v29.14l34.16 19.24L70 72.793v-27.14z" transform="translate(22.432 11)"></path></g><g fill="#024F71" opacity=".5"><path d="M22 2.864c12.117 0 19.555 3.442 19.555 5.908 0 2.468-7.438 5.91-19.554 5.91-12.117 0-19.556-3.442-19.556-5.91 0-2.466 7.44-5.908 19.556-5.908zM2.446 12.7C6.344 15.54 14.335 17.045 22 17.045s15.655-1.506 19.554-4.344v7.89c0 2.468-7.438 5.909-19.554 5.909-12.117 0-19.556-3.44-19.556-5.91v-7.889zm0 11.819c3.899 2.838 11.89 4.344 19.556 4.344s15.655-1.506 19.554-4.344v7.89c0 2.467-7.438 5.909-19.554 5.909-12.117 0-19.556-3.442-19.556-5.91v-7.89zM22 50.136c-12.117 0-19.556-3.44-19.556-5.909v-7.89c3.899 2.839 11.89 4.344 19.556 4.344s15.655-1.505 19.554-4.344v7.89c0 2.468-7.438 5.91-19.554 5.91zm0 2.364C32.665 52.5 44 49.601 44 44.227V33.591h-.213c.126-.38.213-.772.213-1.182V21.773h-.213C43.913 21.39 44 21 44 20.59V8.772C44 3.4 32.665.5 22 .5 11.337.5 0 3.399 0 8.772v11.819c0 .41.087.8.213 1.182H0v10.636c0 .41.087.802.213 1.182H0v10.636C0 49.601 11.336 52.5 22 52.5z" transform="translate(35 160)"></path></g><path stroke="#024F71" stroke-dasharray="1 3" stroke-linecap="round" d="M18.5 129L95.5 129"></path><g stroke="#024F71" stroke-linecap="round"><path d="M0 2L2.077 0 4 2" transform="translate(54.5 108)"></path><path d="M0 17L2.077 15 4 17" transform="translate(54.5 108) matrix(1 0 0 -1 0 32)"></path><path d="M2.096 1L2.096 17" transform="translate(54.5 108)"></path></g><g stroke="#024F71" stroke-linecap="round"><path d="M0 2L2.077 0 4 2" transform="translate(54.5 134)"></path><path d="M0 17L2.077 15 4 17" transform="translate(54.5 134) matrix(1 0 0 -1 0 32)"></path><path d="M2.096 1L2.096 17" transform="translate(54.5 134)"></path></g></g><g><g><g><path fill="#FFF" d="M7.673 1h42.73c1.436 0 2.67 1.017 2.944 2.427l2.528 12.982V53c0 1.657-1.343 3-3 3h-48c-1.657 0-3-1.343-3-3V17.072L4.736 3.386C5.027 1.996 6.253 1 7.673 1z" transform="translate(-530 -224) translate(530 224) translate(63 279) translate(86.625)"></path><path fill="#024F71" fill-rule="nonzero" d="M57.75 25.988v-9.625c-.006-.045-.015-.09-.027-.133.002-.032.002-.065 0-.097L54.236 2.187C53.914.9 52.759 0 51.434 0H6.316C4.99 0 3.836.901 3.514 2.187L.03 16.129c-.002.032-.002.064 0 .096-.013.045-.023.09-.029.137v9.626c.004 1.52.73 2.949 1.955 3.85-1.225.9-1.95 2.329-1.955 3.85v5.774c.004 1.521.73 2.95 1.955 3.85-1.225.901-1.95 2.33-1.955 3.85v5.776c.003 2.656 2.156 4.809 4.813 4.812h48.124c2.657-.003 4.81-2.156 4.813-4.813v-5.774c-.004-1.521-.73-2.95-1.955-3.85 1.225-.901 1.95-2.33 1.955-3.85v-5.776c-.004-1.52-.73-2.949-1.955-3.85 1.225-.9 1.95-2.329 1.955-3.85zM5.381 2.655c.107-.43.493-.73.935-.73h45.118c.442 0 .828.3.935.73L55.555 15.4H2.195L5.381 2.655zm50.444 44.508v5.775c0 1.594-1.293 2.887-2.888 2.887H4.813c-1.595 0-2.888-1.293-2.888-2.888v-5.774c0-1.595 1.293-2.888 2.888-2.888h48.124c1.595 0 2.888 1.293 2.888 2.888zm0-13.475v5.774c0 1.595-1.293 2.888-2.888 2.888H4.813c-1.595 0-2.888-1.293-2.888-2.888v-5.775c0-1.594 1.293-2.887 2.888-2.887h48.124c1.595 0 2.888 1.293 2.888 2.887zm0-7.7c0 1.594-1.293 2.887-2.888 2.887H4.813c-1.595 0-2.888-1.293-2.888-2.887v-8.663h53.9v8.663z" transform="translate(-530 -224) translate(530 224) translate(63 279) translate(86.625)"></path><g fill="#024F71" fill-rule="nonzero"><path d="M3.857 7.861c2.13 0 3.857-1.696 3.857-3.787 0-2.092-1.727-3.788-3.857-3.788S0 1.982 0 4.074C0 6.165 1.727 7.86 3.857 7.86zm0-5.681c1.065 0 1.928.848 1.928 1.894 0 1.046-.863 1.893-1.928 1.893S1.928 5.12 1.928 4.074 2.792 2.18 3.857 2.18zM3.857 21.118c2.13 0 3.857-1.696 3.857-3.788 0-2.091-1.727-3.787-3.857-3.787S0 15.239 0 17.33c0 2.092 1.727 3.788 3.857 3.788zm0-5.681c1.065 0 1.928.847 1.928 1.893s-.863 1.894-1.928 1.894-1.929-.848-1.929-1.894c0-1.046.864-1.893 1.929-1.893zM3.857 34.375c2.13 0 3.857-1.696 3.857-3.788 0-2.092-1.727-3.787-3.857-3.787S0 28.495 0 30.587c0 2.092 1.727 3.788 3.857 3.788zm0-5.682c1.065 0 1.928.848 1.928 1.894 0 1.046-.863 1.894-1.928 1.894s-1.929-.848-1.929-1.894c0-1.046.864-1.894 1.929-1.894zM31.876 2.18L33.804 2.18 33.804 5.967 31.876 5.967zM35.733 2.18L37.661 2.18 37.661 5.967 35.733 5.967zM39.59 2.18L41.518 2.18 41.518 5.967 39.59 5.967zM43.447 2.18L45.375 2.18 45.375 5.967 43.447 5.967zM31.876 15.437L33.804 15.437 33.804 19.224 31.876 19.224zM35.733 15.437L37.661 15.437 37.661 19.224 35.733 19.224zM39.59 15.437L41.518 15.437 41.518 19.224 39.59 19.224zM43.447 15.437L45.375 15.437 45.375 19.224 43.447 19.224zM31.876 28.693L33.804 28.693 33.804 32.481 31.876 32.481zM35.733 28.693L37.661 28.693 37.661 32.481 35.733 32.481zM39.59 28.693L41.518 28.693 41.518 32.481 39.59 32.481zM43.447 28.693L45.375 28.693 45.375 32.481 43.447 32.481z" transform="translate(-530 -224) translate(530 224) translate(63 279) translate(86.625) translate(6.875 19.25)"></path></g></g><path fill="#0091FF" d="M53.718 58.136V55.17H11.89c-4.916 0-8.916-3.994-8.916-8.9 0-4.618 3.615-8.511 8.229-8.864l.093-.006c1.095-.072 2.176.044 3.215.361l.872-2.836c-1.017-.31-2.065-.476-3.127-.507-.224-.977-.376-1.969-.376-2.975 0-7.363 6.001-13.352 13.377-13.352 5.673 0 10.743 3.598 12.619 8.952l.144.41c.27.861.47 1.745.559 2.645l2.959-.292c-.09-.909-.284-1.8-.526-2.677 1.489-1.033 3.24-1.622 5.061-1.622 4.917 0 8.918 3.99 8.918 8.897 0 .554-.058 1.124-.168 1.698l-.009.047c-.198 1.006-.565 1.962-1.096 2.84l2.544 1.532c.553-.913.974-1.89 1.26-2.913.634-.142 1.275-.238 1.927-.238 4.916 0 8.917 3.993 8.917 8.9 0 4.906-4 8.9-8.917 8.9h-5.731v2.966h5.73c6.556 0 11.89-5.324 11.89-11.866 0-6.543-5.334-11.866-11.89-11.866-.497 0-.994.032-1.485.093v-.093c0-6.542-5.334-11.866-11.89-11.866-2.178 0-4.303.602-6.149 1.72-2.72-5.535-8.392-9.133-14.667-9.133-9.016 0-16.35 7.32-16.35 16.318 0 1.101.112 2.196.332 3.27C3.939 35.927 0 40.704 0 46.27c0 6.542 5.335 11.866 11.89 11.866h41.828z" transform="translate(-530 -224) translate(530 224) translate(63 279)"></path></g></g><g><g><g><path fill="#FFF" d="M7.673 1h42.73c1.436 0 2.67 1.017 2.944 2.427l2.528 12.982V53c0 1.657-1.343 3-3 3h-48c-1.657 0-3-1.343-3-3V17.072L4.736 3.386C5.027 1.996 6.253 1 7.673 1z" transform="translate(-530 -224) translate(530 224) translate(331 279) translate(86.625)"></path><path fill="#024F71" fill-rule="nonzero" d="M57.75 25.988v-9.625c-.006-.045-.015-.09-.027-.133.002-.032.002-.065 0-.097L54.236 2.187C53.914.9 52.759 0 51.434 0H6.316C4.99 0 3.836.901 3.514 2.187L.03 16.129c-.002.032-.002.064 0 .096-.013.045-.023.09-.029.137v9.626c.004 1.52.73 2.949 1.955 3.85-1.225.9-1.95 2.329-1.955 3.85v5.774c.004 1.521.73 2.95 1.955 3.85-1.225.901-1.95 2.33-1.955 3.85v5.776c.003 2.656 2.156 4.809 4.813 4.812h48.124c2.657-.003 4.81-2.156 4.813-4.813v-5.774c-.004-1.521-.73-2.95-1.955-3.85 1.225-.901 1.95-2.33 1.955-3.85v-5.776c-.004-1.52-.73-2.949-1.955-3.85 1.225-.9 1.95-2.329 1.955-3.85zM5.381 2.655c.107-.43.493-.73.935-.73h45.118c.442 0 .828.3.935.73L55.555 15.4H2.195L5.381 2.655zm50.444 44.508v5.775c0 1.594-1.293 2.887-2.888 2.887H4.813c-1.595 0-2.888-1.293-2.888-2.888v-5.774c0-1.595 1.293-2.888 2.888-2.888h48.124c1.595 0 2.888 1.293 2.888 2.888zm0-13.475v5.774c0 1.595-1.293 2.888-2.888 2.888H4.813c-1.595 0-2.888-1.293-2.888-2.888v-5.775c0-1.594 1.293-2.887 2.888-2.887h48.124c1.595 0 2.888 1.293 2.888 2.887zm0-7.7c0 1.594-1.293 2.887-2.888 2.887H4.813c-1.595 0-2.888-1.293-2.888-2.887v-8.663h53.9v8.663z" transform="translate(-530 -224) translate(530 224) translate(331 279) translate(86.625)"></path><g fill="#024F71" fill-rule="nonzero"><path d="M3.857 7.861c2.13 0 3.857-1.696 3.857-3.787 0-2.092-1.727-3.788-3.857-3.788S0 1.982 0 4.074C0 6.165 1.727 7.86 3.857 7.86zm0-5.681c1.065 0 1.928.848 1.928 1.894 0 1.046-.863 1.893-1.928 1.893S1.928 5.12 1.928 4.074 2.792 2.18 3.857 2.18zM3.857 21.118c2.13 0 3.857-1.696 3.857-3.788 0-2.091-1.727-3.787-3.857-3.787S0 15.239 0 17.33c0 2.092 1.727 3.788 3.857 3.788zm0-5.681c1.065 0 1.928.847 1.928 1.893s-.863 1.894-1.928 1.894-1.929-.848-1.929-1.894c0-1.046.864-1.893 1.929-1.893zM3.857 34.375c2.13 0 3.857-1.696 3.857-3.788 0-2.092-1.727-3.787-3.857-3.787S0 28.495 0 30.587c0 2.092 1.727 3.788 3.857 3.788zm0-5.682c1.065 0 1.928.848 1.928 1.894 0 1.046-.863 1.894-1.928 1.894s-1.929-.848-1.929-1.894c0-1.046.864-1.894 1.929-1.894zM31.876 2.18L33.804 2.18 33.804 5.967 31.876 5.967zM35.733 2.18L37.661 2.18 37.661 5.967 35.733 5.967zM39.59 2.18L41.518 2.18 41.518 5.967 39.59 5.967zM43.447 2.18L45.375 2.18 45.375 5.967 43.447 5.967zM31.876 15.437L33.804 15.437 33.804 19.224 31.876 19.224zM35.733 15.437L37.661 15.437 37.661 19.224 35.733 19.224zM39.59 15.437L41.518 15.437 41.518 19.224 39.59 19.224zM43.447 15.437L45.375 15.437 45.375 19.224 43.447 19.224zM31.876 28.693L33.804 28.693 33.804 32.481 31.876 32.481zM35.733 28.693L37.661 28.693 37.661 32.481 35.733 32.481zM39.59 28.693L41.518 28.693 41.518 32.481 39.59 32.481zM43.447 28.693L45.375 28.693 45.375 32.481 43.447 32.481z" transform="translate(-530 -224) translate(530 224) translate(331 279) translate(86.625) translate(6.875 19.25)"></path></g></g><path fill="#0091FF" d="M53.718 58.136V55.17H11.89c-4.916 0-8.916-3.994-8.916-8.9 0-4.618 3.615-8.511 8.229-8.864l.093-.006c1.095-.072 2.176.044 3.215.361l.872-2.836c-1.017-.31-2.065-.476-3.127-.507-.224-.977-.376-1.969-.376-2.975 0-7.363 6.001-13.352 13.377-13.352 5.673 0 10.743 3.598 12.619 8.952l.144.41c.27.861.47 1.745.559 2.645l2.959-.292c-.09-.909-.284-1.8-.526-2.677 1.489-1.033 3.24-1.622 5.061-1.622 4.917 0 8.918 3.99 8.918 8.897 0 .554-.058 1.124-.168 1.698l-.009.047c-.198 1.006-.565 1.962-1.096 2.84l2.544 1.532c.553-.913.974-1.89 1.26-2.913.634-.142 1.275-.238 1.927-.238 4.916 0 8.917 3.993 8.917 8.9 0 4.906-4 8.9-8.917 8.9h-5.731v2.966h5.73c6.556 0 11.89-5.324 11.89-11.866 0-6.543-5.334-11.866-11.89-11.866-.497 0-.994.032-1.485.093v-.093c0-6.542-5.334-11.866-11.89-11.866-2.178 0-4.303.602-6.149 1.72-2.72-5.535-8.392-9.133-14.667-9.133-9.016 0-16.35 7.32-16.35 16.318 0 1.101.112 2.196.332 3.27C3.939 35.927 0 40.704 0 46.27c0 6.542 5.335 11.866 11.89 11.866h41.828z" transform="translate(-530 -224) translate(530 224) translate(331 279)"></path></g></g><g transform="translate(-530 -224) translate(530 224) translate(348 27)"><rect width="111" height="226" x="1" y="1" fill="#FFF" stroke="#024F71" stroke-width="2" opacity=".697" rx="4"></rect><g fill="#024F71"><g><path d="M4.148 16.306l25.304 13.846L54.56 16.41 29.257 2.563 4.147 16.306zM29.452 32.65c-.2 0-.401-.05-.581-.149L1.129 17.322c-.377-.208-.61-.596-.61-1.016 0-.421.233-.81.61-1.016L28.676.212c.36-.195.802-.195 1.163 0l27.74 15.182c.376.206.61.596.61 1.016 0 .42-.234.81-.609 1.016L30.035 32.502c-.181.099-.382.15-.583.15z" transform="translate(26.432 11) translate(.568 32)"></path><path d="M29.452 43.809c-.2 0-.401-.051-.581-.151L1.129 28.134c-.575-.32-.779-1.048-.457-1.62.32-.573 1.045-.778 1.62-.457l27.16 15.198 26.962-15.092c.577-.321 1.3-.116 1.622.458.322.571.117 1.297-.456 1.62L30.035 43.658c-.181.1-.38.151-.583.151" transform="translate(26.432 11) translate(.568 32)"></path><path d="M29.452 53.942c-.2 0-.401-.05-.581-.151L1.129 38.268c-.575-.321-.779-1.049-.457-1.62.32-.574 1.045-.781 1.62-.458l27.16 15.198 26.962-15.092c.577-.318 1.3-.116 1.622.458.322.573.117 1.297-.456 1.62L30.035 53.792c-.181.1-.38.151-.583.151" transform="translate(26.432 11) translate(.568 32)"></path></g><text font-family="OpenSans-Semibold, Open Sans" font-size="12" font-weight="500" transform="translate(26.432 11)"><tspan x="4.978" y="13">Cluster 2</tspan></text><text font-family="OpenSans-Semibold, Open Sans" font-size="12" font-weight="500" transform="translate(26.432 11)"><tspan x="19.125" y="52">App</tspan></text></g><g fill="#024F71"><path d="M22 2.864c12.117 0 19.555 3.442 19.555 5.908 0 2.468-7.438 5.91-19.554 5.91-12.117 0-19.556-3.442-19.556-5.91 0-2.466 7.44-5.908 19.556-5.908zM2.446 12.7C6.344 15.54 14.335 17.045 22 17.045s15.655-1.506 19.554-4.344v7.89c0 2.468-7.438 5.909-19.554 5.909-12.117 0-19.556-3.44-19.556-5.91v-7.889zm0 11.819c3.899 2.838 11.89 4.344 19.556 4.344s15.655-1.506 19.554-4.344v7.89c0 2.467-7.438 5.909-19.554 5.909-12.117 0-19.556-3.442-19.556-5.91v-7.89zM22 50.136c-12.117 0-19.556-3.44-19.556-5.909v-7.89c3.899 2.839 11.89 4.344 19.556 4.344s15.655-1.505 19.554-4.344v7.89c0 2.468-7.438 5.91-19.554 5.91zm0 2.364C32.665 52.5 44 49.601 44 44.227V33.591h-.213c.126-.38.213-.772.213-1.182V21.773h-.213C43.913 21.39 44 21 44 20.59V8.772C44 3.4 32.665.5 22 .5 11.337.5 0 3.399 0 8.772v11.819c0 .41.087.8.213 1.182H0v10.636c0 .41.087.802.213 1.182H0v10.636C0 49.601 11.336 52.5 22 52.5z" transform="translate(35 160)"></path></g><path stroke="#024F71" stroke-dasharray="1 3" stroke-linecap="round" d="M18.5 129L95.5 129"></path><g stroke="#024F71" stroke-linecap="round"><path d="M0 2L2.077 0 4 2" transform="translate(54.5 108)"></path><path d="M0 17L2.077 15 4 17" transform="translate(54.5 108) matrix(1 0 0 -1 0 32)"></path><path d="M2.096 1L2.096 17" transform="translate(54.5 108)"></path></g><g stroke="#024F71" stroke-linecap="round"><path d="M0 2L2.077 0 4 2" transform="translate(54.5 134)"></path><path d="M0 17L2.077 15 4 17" transform="translate(54.5 134) matrix(1 0 0 -1 0 32)"></path><path d="M2.096 1L2.096 17" transform="translate(54.5 134)"></path></g></g><g><g><g><path fill="url(#jvkyqdz2dd)" d="M1.874 14L56.583 14 56.583 2.939 87.186 27 56.583 50.809 56.583 39.651 1.874 39.651zM1.874 134.061L56.583 134.061 56.583 123 87.186 147.061 56.583 170.87 56.583 159.712 1.874 159.712z" transform="translate(-530 -224) translate(530 224) translate(219 63) translate(3) translate(.6)"></path><path fill="url(#h5pl23lw9e)" d="M56.259 53.773c-.827-.392-1.35-1.222-1.35-2.13v-9.235H2.363C1.059 42.408 0 41.354 0 40.052c0-1.303 1.06-2.357 2.363-2.357h54.91c1.303 0 2.362 1.054 2.362 2.357v6.632l24.257-19.686L59.635 7.315v6.632c0 1.3-1.06 2.357-2.363 2.357H2.362C1.06 16.304 0 15.247 0 13.947c0-1.302 1.06-2.36 2.363-2.36h52.546V2.359c0-.91.523-1.737 1.35-2.13.824-.391 1.796-.272 2.506.3L89.13 25.172c.55.446.87 1.12.87 1.827 0 .708-.32 1.381-.87 1.83L58.765 53.473c-.43.349-.959.527-1.493.527-.344 0-.69-.073-1.013-.227zM56.259 173.773c-.827-.392-1.35-1.222-1.35-2.13v-9.235H2.363c-1.304 0-2.363-1.054-2.363-2.356 0-1.303 1.06-2.357 2.363-2.357h54.91c1.303 0 2.362 1.054 2.362 2.357v6.632l24.257-19.686-24.257-19.683v6.632c0 1.3-1.06 2.357-2.363 2.357H2.362c-1.303 0-2.362-1.057-2.362-2.357 0-1.302 1.06-2.36 2.363-2.36h52.546v-9.229c0-.91.523-1.737 1.35-2.13.824-.391 1.796-.272 2.506.3l30.365 24.643c.55.446.87 1.12.87 1.827 0 .708-.32 1.381-.87 1.83l-30.365 24.645c-.43.349-.959.527-1.493.527-.344 0-.69-.073-1.013-.227z" transform="translate(-530 -224) translate(530 224) translate(219 63) translate(3) translate(.6)"></path></g></g><text fill="#005A80" font-family="OpenSans-Semibold, Open Sans" font-size="22.8" font-weight="500" transform="translate(-530 -224) translate(530 224) translate(219 63)"><tspan x=".086" y="101">MIGRATE</tspan></text></g></g></g></g></svg> 