<?xml version="1.0" encoding="UTF-8"?> <svg xmlns="http://www.w3.org/2000/svg" xmlns:xlink="http://www.w3.org/1999/xlink" width="332" height="240" viewBox="0 0 332 240"><defs><linearGradient id="mq7j388njf" x1="83.057%" x2="0%" y1="50%" y2="50%"><stop offset="0%" stop-color="#FFF"></stop><stop offset="100%" stop-color="#FFF" stop-opacity="0"></stop></linearGradient><linearGradient id="6wec691hvg" x1="83.057%" x2="0%" y1="50%" y2="50%"><stop offset="0%" stop-color="#93D500"></stop><stop offset="100%" stop-color="#93D500" stop-opacity="0"></stop></linearGradient><filter id="8qopd5gdia" width="116%" height="123.1%" x="-8%" y="-11.5%"><feOffset in="SourceAlpha" result="shadowOffsetOuter1"></feOffset><feGaussianBlur in="shadowOffsetOuter1" result="shadowBlurOuter1" stdDeviation="8"></feGaussianBlur><feColorMatrix in="shadowBlurOuter1" values="0 0 0 0 0.00886950528 0 0 0 0 0.310302045 0 0 0 0 0.44457654 0 0 0 0.5 0"></feColorMatrix></filter><filter id="5nuw4lu4zd" width="152.8%" height="152.8%" x="-26.4%" y="-26.4%"><feGaussianBlur in="SourceGraphic" stdDeviation="16.949"></feGaussianBlur></filter><rect id="actwl5m3xb" width="300" height="208" x="16" y="16" rx="6"></rect><path id="ua73apm6kc" d="M0 0L295.245 0 295.245 206.672 0 206.672z"></path></defs><g fill="none" fill-rule="evenodd"><g><g><g transform="translate(-636 -3769) translate(636 3769)"><use fill="#000" filter="url(#8qopd5gdia)" xlink:href="#actwl5m3xb"></use><use fill="#FFF" xlink:href="#actwl5m3xb"></use></g><g opacity=".423" transform="translate(-636 -3769) translate(636 3769) translate(18 17)"><mask id="z8ewhbfc8e" fill="#fff"><use xlink:href="#ua73apm6kc"></use></mask><circle cx="147.623" cy="100.444" r="96.228" fill="#32C5FF" filter="url(#5nuw4lu4zd)" mask="url(#z8ewhbfc8e)" opacity=".287"></circle></g><g transform="translate(-636 -3769) translate(636 3769) translate(60.74 33.762)"><rect width="60.689" height="123.566" x=".547" y=".547" fill="#FFF" stroke="#024F71" stroke-width="1.093" opacity=".697" rx="2.187"></rect><g stroke="#024F71" stroke-dasharray=".547 1.64" stroke-linecap="round" stroke-width=".547"><path d="M28.704 5.194C28.704 2.325 22.34 0 14.49 0S.273 2.325.273 5.194" transform="translate(16.676 85.293)"></path><path d="M28.704 33.078c0-2.868-6.364-5.194-14.215-5.194S.273 30.21.273 33.078" transform="translate(16.676 85.293) matrix(1 0 0 -1 0 60.963)"></path><path d="M28.704 27.884L28.704 5.194M.273 27.884L.273 5.194" transform="translate(16.676 85.293)"></path></g><g><g fill="#024F71" opacity=".498"><path d="M2.268 8.915l13.835 7.57L29.83 8.973l-13.834-7.57L2.268 8.914zm13.835 8.937c-.11 0-.22-.028-.318-.082L.617 9.47c-.206-.113-.333-.325-.333-.555 0-.23.127-.442.333-.555L15.678.116c.198-.107.439-.107.636 0l15.167 8.3c.206.114.333.326.333.556 0 .23-.127.443-.332.556l-15.06 8.242c-.1.054-.21.082-.319.082z" transform="translate(12.264 6.014) translate(2.498 17.496)"></path><path d="M16.103 23.953c-.11 0-.22-.029-.318-.083L.617 15.382c-.314-.175-.425-.573-.25-.886.175-.313.572-.425.886-.25l14.85 8.31 14.741-8.251c.316-.176.711-.064.887.25.176.312.064.71-.249.886l-15.06 8.429c-.1.054-.209.083-.319.083" transform="translate(12.264 6.014) translate(2.498 17.496)"></path><path d="M16.103 29.493c-.11 0-.22-.028-.318-.083L.617 20.923c-.314-.175-.425-.573-.25-.886.175-.314.572-.427.886-.25l14.85 8.31 14.741-8.252c.316-.174.711-.064.887.25.176.313.064.71-.249.886l-15.06 8.43c-.1.054-.209.082-.319.082" transform="translate(12.264 6.014) translate(2.498 17.496)"></path></g><path fill="#024F71" fill-rule="nonzero" d="M7.427 7.064c.465 0 .882-.07 1.249-.208v-.657c-.2.062-.394.113-.58.152-.186.04-.378.06-.577.06-.459 0-.81-.148-1.052-.443-.242-.294-.364-.729-.364-1.303 0-.55.126-.98.378-1.291.252-.312.598-.468 1.038-.468.195 0 .38.028.556.085.176.056.344.122.502.197l.275-.638c-.406-.2-.848-.301-1.326-.301-.455 0-.851.097-1.189.292-.337.194-.595.474-.773.839-.179.365-.268.791-.268 1.278 0 .773.184 1.368.551 1.783.367.415.894.623 1.58.623zM10.357 7V2.015h-.752V7h.753zm2.323.064c.248 0 .469-.047.662-.14.193-.095.342-.224.447-.389h.038l.106.465h.593V3.457h-.756v1.765c0 .444-.075.76-.223.95-.148.189-.38.283-.697.283-.237 0-.41-.067-.522-.203-.111-.136-.167-.34-.167-.61V3.457h-.759v2.316c0 .434.106.757.317.97.212.214.532.321.961.321zm3.838 0c.47 0 .831-.092 1.083-.277.252-.185.378-.45.378-.796 0-.171-.032-.318-.096-.44-.064-.123-.162-.232-.295-.326-.132-.094-.345-.197-.637-.31-.348-.135-.574-.24-.678-.318-.103-.077-.155-.17-.155-.282 0-.226.199-.34.596-.34.26 0 .582.08.964.238l.244-.567c-.372-.169-.766-.253-1.183-.253-.42 0-.753.084-.998.251-.244.168-.366.403-.366.707 0 .252.072.457.216.615.144.158.42.316.828.474.21.081.373.154.49.218.118.064.202.126.253.185.052.06.077.135.077.225 0 .28-.232.42-.695.42-.359 0-.746-.097-1.163-.289v.65c.286.144.665.215 1.137.215zm3.415 0c.141 0 .278-.012.409-.037.131-.024.239-.055.322-.091v-.567c-.184.058-.368.086-.551.086-.148 0-.267-.043-.357-.13-.091-.086-.137-.22-.137-.401V4.027h1.01v-.57h-1.01v-.788h-.464l-.256.75-.52.275v.333h.484v1.91c0 .751.357 1.127 1.07 1.127zm2.986 0c.242 0 .456-.018.644-.054.188-.037.374-.099.558-.186v-.612c-.208.092-.401.157-.582.197-.18.04-.375.06-.585.06-.318 0-.564-.093-.74-.278-.175-.185-.268-.449-.278-.793h2.36v-.407c0-.497-.135-.888-.406-1.172-.271-.284-.64-.426-1.109-.426-.504 0-.9.165-1.188.496-.288.331-.433.786-.433 1.365 0 .564.156 1.006.467 1.328.31.321.741.482 1.292.482zm.638-2.21h-1.609c.028-.29.114-.512.258-.664.145-.151.336-.227.575-.227.24 0 .428.075.564.226.137.15.207.372.212.665zM25.905 7V5.148c0-.314.093-.569.28-.765.187-.197.431-.295.732-.295.116 0 .227.013.333.038l.074-.701c-.098-.022-.223-.032-.375-.032-.218 0-.42.062-.61.186-.189.123-.342.291-.46.503h-.038l-.1-.625h-.589V7h.753zm5.74 0V2.316h-.627L29.64 3.4l.378.477c.408-.33.648-.527.72-.589.071-.062.131-.119.18-.17-.016.212-.025.498-.025.859V7h.753z" transform="translate(12.264 6.014)"></path><text fill="#024F71" font-family="OpenSans-Semibold, Open Sans" font-size="6.561" font-weight="500" opacity=".5" transform="translate(12.264 6.014)"><tspan x="12.644" y="28.323">App</tspan></text><path stroke="#2B2B2B" stroke-dasharray="1.094" stroke-linecap="round" stroke-width=".547" d="M38.273 24.96L18.899 14.235 0 24.414v15.933l18.677 10.519L38.273 39.8V24.96z" transform="translate(12.264 6.014)"></path></g><g fill="#024F71" opacity=".5"><path d="M12.029 1.566c6.624 0 10.691 1.882 10.691 3.23 0 1.35-4.067 3.231-10.691 3.231-6.625 0-10.692-1.881-10.692-3.23 0-1.35 4.067-3.231 10.692-3.231zM1.337 6.944c2.132 1.552 6.5 2.375 10.692 2.375 4.191 0 8.56-.823 10.691-2.375v4.314c0 1.35-4.067 3.23-10.691 3.23-6.625 0-10.692-1.88-10.692-3.23V6.944zm0 6.462c2.132 1.552 6.5 2.375 10.692 2.375 4.191 0 8.56-.823 10.691-2.375v4.314c0 1.349-4.067 3.23-10.691 3.23-6.625 0-10.692-1.881-10.692-3.23v-4.314zm10.692 14.006c-6.625 0-10.692-1.881-10.692-3.23v-4.315c2.132 1.552 6.5 2.376 10.692 2.376 4.191 0 8.56-.824 10.691-2.376v4.314c0 1.35-4.067 3.231-10.691 3.231zm0 1.292c5.83 0 12.028-1.585 12.028-4.523v-5.815h-.117c.07-.208.117-.422.117-.646v-5.816h-.117c.07-.208.117-.422.117-.646V4.796c0-2.938-6.197-4.523-12.028-4.523C6.199.273 0 1.858 0 4.796v6.462c0 .224.048.438.117.646H0v5.816c0 .224.048.438.117.646H0v5.815c0 2.938 6.198 4.523 12.029 4.523z" transform="translate(19.136 87.48)"></path></g><path stroke="#024F71" stroke-dasharray=".547 1.64" stroke-linecap="round" stroke-width=".547" d="M10.115 70.531L52.215 70.531"></path><g stroke="#024F71" stroke-linecap="round" stroke-width=".547"><path d="M0 1.093L1.136 0 2.187 1.093" transform="translate(29.798 59.049)"></path><path d="M0 9.295L1.136 8.201 2.187 9.295" transform="translate(29.798 59.049) matrix(1 0 0 -1 0 17.496)"></path><path d="M1.146 0.547L1.146 9.295" transform="translate(29.798 59.049)"></path></g><g stroke="#024F71" stroke-linecap="round" stroke-width=".547"><path d="M0 1.093L1.136 0 2.187 1.093" transform="translate(29.798 73.264)"></path><path d="M0 9.295L1.136 8.201 2.187 9.295" transform="translate(29.798 73.264) matrix(1 0 0 -1 0 17.496)"></path><path d="M1.146 0.547L1.146 9.295" transform="translate(29.798 73.264)"></path></g></g><g><g><g><path fill="#FFF" d="M4.195.547h23.363c.785 0 1.46.556 1.61 1.327l1.382 7.098v20.006c0 .906-.735 1.64-1.64 1.64H2.664c-.905 0-1.64-.734-1.64-1.64V9.334L2.59 1.851c.159-.76.829-1.304 1.605-1.304z" transform="translate(-636 -3769) translate(636 3769) translate(51.445 171.543) translate(47.362)"></path><path fill="#024F71" fill-rule="nonzero" d="M31.575 14.209V8.946c-.003-.024-.008-.049-.015-.072V8.82l-1.907-7.625C29.478.493 28.846 0 28.122 0H3.453C2.73 0 2.097.493 1.921 1.196L.016 8.818v.053c-.007.025-.013.05-.016.075v5.263c.002.831.399 1.612 1.069 2.105-.67.492-1.067 1.273-1.069 2.105v3.157c.002.832.399 1.613 1.069 2.105-.67.493-1.067 1.274-1.069 2.105v3.158c.002 1.452 1.179 2.63 2.631 2.63h26.313c1.452 0 2.63-1.178 2.63-2.63v-3.158c-.001-.831-.398-1.612-1.068-2.105.67-.492 1.067-1.273 1.069-2.105V18.42c-.002-.832-.4-1.613-1.069-2.105.67-.493 1.067-1.274 1.069-2.105zM2.942 1.45c.059-.234.27-.399.511-.399h24.669c.241 0 .452.165.51.4l1.742 6.968H1.2l1.742-6.969zm27.58 24.335v3.158c0 .872-.706 1.578-1.578 1.578H2.63c-.872 0-1.579-.706-1.579-1.578v-3.158c0-.872.707-1.579 1.58-1.579h26.312c.872 0 1.578.707 1.578 1.58zm0-7.367v3.157c0 .872-.706 1.579-1.578 1.579H2.63c-.872 0-1.579-.707-1.579-1.579V18.42c0-.872.707-1.58 1.58-1.58h26.312c.872 0 1.578.708 1.578 1.58zm0-4.21c0 .872-.706 1.578-1.578 1.578H2.63c-.872 0-1.579-.706-1.579-1.578V9.472h29.47v4.737z" transform="translate(-636 -3769) translate(636 3769) translate(51.445 171.543) translate(47.362)"></path><g fill="#024F71" fill-rule="nonzero"><path d="M2.109 4.298c1.164 0 2.108-.927 2.108-2.07 0-1.145-.944-2.072-2.108-2.072C.944.156 0 1.083 0 2.227c0 1.144.944 2.071 2.109 2.071zm0-3.106c.582 0 1.054.463 1.054 1.035 0 .572-.472 1.036-1.054 1.036-.583 0-1.055-.464-1.055-1.036 0-.572.472-1.035 1.055-1.035zM2.109 11.546c1.164 0 2.108-.927 2.108-2.07 0-1.144-.944-2.072-2.108-2.072C.944 7.404 0 8.332 0 9.475c0 1.144.944 2.071 2.109 2.071zm0-3.106c.582 0 1.054.464 1.054 1.035 0 .572-.472 1.036-1.054 1.036-.583 0-1.055-.464-1.055-1.036 0-.571.472-1.035 1.055-1.035zM2.109 18.795c1.164 0 2.108-.928 2.108-2.071 0-1.144-.944-2.071-2.108-2.071-1.165 0-2.109.927-2.109 2.07 0 1.144.944 2.072 2.109 2.072zm0-3.107c.582 0 1.054.464 1.054 1.036 0 .572-.472 1.035-1.054 1.035-.583 0-1.055-.463-1.055-1.035 0-.572.472-1.036 1.055-1.036zM17.428 1.192L18.483 1.192 18.483 3.263 17.428 3.263zM19.537 1.192L20.591 1.192 20.591 3.263 19.537 3.263zM21.646 1.192L22.7 1.192 22.7 3.263 21.646 3.263zM23.754 1.192L24.809 1.192 24.809 3.263 23.754 3.263zM17.428 8.44L18.483 8.44 18.483 10.511 17.428 10.511zM19.537 8.44L20.591 8.44 20.591 10.511 19.537 10.511zM21.646 8.44L22.7 8.44 22.7 10.511 21.646 10.511zM23.754 8.44L24.809 8.44 24.809 10.511 23.754 10.511zM17.428 15.688L18.483 15.688 18.483 17.759 17.428 17.759zM19.537 15.688L20.591 15.688 20.591 17.759 19.537 17.759zM21.646 15.688L22.7 15.688 22.7 17.759 21.646 17.759zM23.754 15.688L24.809 15.688 24.809 17.759 23.754 17.759z" transform="translate(-636 -3769) translate(636 3769) translate(51.445 171.543) translate(47.362) translate(3.759 10.525)"></path></g></g><path fill="#0091FF" d="M29.37 31.786v-1.622H6.501c-2.688 0-4.875-2.183-4.875-4.866 0-2.525 1.976-4.653 4.5-4.846l.05-.004c.599-.039 1.19.024 1.758.198l.477-1.55c-.557-.17-1.13-.26-1.71-.278-.122-.534-.206-1.076-.206-1.627 0-4.025 3.281-7.3 7.314-7.3 3.102 0 5.874 1.968 6.9 4.895l.079.224c.147.47.256.954.305 1.446l1.618-.16c-.05-.497-.155-.984-.287-1.463.813-.565 1.771-.887 2.767-.887 2.688 0 4.875 2.182 4.875 4.864 0 .303-.031.615-.092.929l-.004.025c-.108.55-.31 1.073-.6 1.554l1.391.837c.303-.5.533-1.034.689-1.593.347-.077.697-.13 1.054-.13 2.688 0 4.875 2.183 4.875 4.866s-2.187 4.866-4.875 4.866H29.37v1.622h3.134c3.584 0 6.5-2.911 6.5-6.488 0-3.577-2.916-6.488-6.5-6.488-.273 0-.544.018-.813.051v-.05c0-3.577-2.916-6.488-6.5-6.488-1.191 0-2.353.329-3.362.94-1.488-3.026-4.59-4.993-8.02-4.993-4.93 0-8.939 4.002-8.939 8.921 0 .603.06 1.201.181 1.789C2.153 19.643 0 22.255 0 25.298c0 3.577 2.917 6.488 6.501 6.488h22.87z" transform="translate(-636 -3769) translate(636 3769) translate(51.445 171.543)"></path></g></g><g><g><g><path fill="#FFF" d="M4.195.547h23.363c.785 0 1.46.556 1.61 1.327l1.382 7.098v20.006c0 .906-.735 1.64-1.64 1.64H2.664c-.905 0-1.64-.734-1.64-1.64V9.334L2.59 1.851c.159-.76.829-1.304 1.605-1.304z" transform="translate(-636 -3769) translate(636 3769) translate(197.974 171.543) translate(47.362)"></path><path fill="#024F71" fill-rule="nonzero" d="M31.575 14.209V8.946c-.003-.024-.008-.049-.015-.072V8.82l-1.907-7.625C29.478.493 28.846 0 28.122 0H3.453C2.73 0 2.097.493 1.921 1.196L.016 8.818v.053c-.007.025-.013.05-.016.075v5.263c.002.831.399 1.612 1.069 2.105-.67.492-1.067 1.273-1.069 2.105v3.157c.002.832.399 1.613 1.069 2.105-.67.493-1.067 1.274-1.069 2.105v3.158c.002 1.452 1.179 2.63 2.631 2.63h26.313c1.452 0 2.63-1.178 2.63-2.63v-3.158c-.001-.831-.398-1.612-1.068-2.105.67-.492 1.067-1.273 1.069-2.105V18.42c-.002-.832-.4-1.613-1.069-2.105.67-.493 1.067-1.274 1.069-2.105zM2.942 1.45c.059-.234.27-.399.511-.399h24.669c.241 0 .452.165.51.4l1.742 6.968H1.2l1.742-6.969zm27.58 24.335v3.158c0 .872-.706 1.578-1.578 1.578H2.63c-.872 0-1.579-.706-1.579-1.578v-3.158c0-.872.707-1.579 1.58-1.579h26.312c.872 0 1.578.707 1.578 1.58zm0-7.367v3.157c0 .872-.706 1.579-1.578 1.579H2.63c-.872 0-1.579-.707-1.579-1.579V18.42c0-.872.707-1.58 1.58-1.58h26.312c.872 0 1.578.708 1.578 1.58zm0-4.21c0 .872-.706 1.578-1.578 1.578H2.63c-.872 0-1.579-.706-1.579-1.578V9.472h29.47v4.737z" transform="translate(-636 -3769) translate(636 3769) translate(197.974 171.543) translate(47.362)"></path><g fill="#024F71" fill-rule="nonzero"><path d="M2.109 4.298c1.164 0 2.108-.927 2.108-2.07 0-1.145-.944-2.072-2.108-2.072C.944.156 0 1.083 0 2.227c0 1.144.944 2.071 2.109 2.071zm0-3.106c.582 0 1.054.463 1.054 1.035 0 .572-.472 1.036-1.054 1.036-.583 0-1.055-.464-1.055-1.036 0-.572.472-1.035 1.055-1.035zM2.109 11.546c1.164 0 2.108-.927 2.108-2.07 0-1.144-.944-2.072-2.108-2.072C.944 7.404 0 8.332 0 9.475c0 1.144.944 2.071 2.109 2.071zm0-3.106c.582 0 1.054.464 1.054 1.035 0 .572-.472 1.036-1.054 1.036-.583 0-1.055-.464-1.055-1.036 0-.571.472-1.035 1.055-1.035zM2.109 18.795c1.164 0 2.108-.928 2.108-2.071 0-1.144-.944-2.071-2.108-2.071-1.165 0-2.109.927-2.109 2.07 0 1.144.944 2.072 2.109 2.072zm0-3.107c.582 0 1.054.464 1.054 1.036 0 .572-.472 1.035-1.054 1.035-.583 0-1.055-.463-1.055-1.035 0-.572.472-1.036 1.055-1.036zM17.428 1.192L18.483 1.192 18.483 3.263 17.428 3.263zM19.537 1.192L20.591 1.192 20.591 3.263 19.537 3.263zM21.646 1.192L22.7 1.192 22.7 3.263 21.646 3.263zM23.754 1.192L24.809 1.192 24.809 3.263 23.754 3.263zM17.428 8.44L18.483 8.44 18.483 10.511 17.428 10.511zM19.537 8.44L20.591 8.44 20.591 10.511 19.537 10.511zM21.646 8.44L22.7 8.44 22.7 10.511 21.646 10.511zM23.754 8.44L24.809 8.44 24.809 10.511 23.754 10.511zM17.428 15.688L18.483 15.688 18.483 17.759 17.428 17.759zM19.537 15.688L20.591 15.688 20.591 17.759 19.537 17.759zM21.646 15.688L22.7 15.688 22.7 17.759 21.646 17.759zM23.754 15.688L24.809 15.688 24.809 17.759 23.754 17.759z" transform="translate(-636 -3769) translate(636 3769) translate(197.974 171.543) translate(47.362) translate(3.759 10.525)"></path></g></g><path fill="#0091FF" d="M29.37 31.786v-1.622H6.501c-2.688 0-4.875-2.183-4.875-4.866 0-2.525 1.976-4.653 4.5-4.846l.05-.004c.599-.039 1.19.024 1.758.198l.477-1.55c-.557-.17-1.13-.26-1.71-.278-.122-.534-.206-1.076-.206-1.627 0-4.025 3.281-7.3 7.314-7.3 3.102 0 5.874 1.968 6.9 4.895l.079.224c.147.47.256.954.305 1.446l1.618-.16c-.05-.497-.155-.984-.287-1.463.813-.565 1.771-.887 2.767-.887 2.688 0 4.875 2.182 4.875 4.864 0 .303-.031.615-.092.929l-.004.025c-.108.55-.31 1.073-.6 1.554l1.391.837c.303-.5.533-1.034.689-1.593.347-.077.697-.13 1.054-.13 2.688 0 4.875 2.183 4.875 4.866s-2.187 4.866-4.875 4.866H29.37v1.622h3.134c3.584 0 6.5-2.911 6.5-6.488 0-3.577-2.916-6.488-6.5-6.488-.273 0-.544.018-.813.051v-.05c0-3.577-2.916-6.488-6.5-6.488-1.191 0-2.353.329-3.362.94-1.488-3.026-4.59-4.993-8.02-4.993-4.93 0-8.939 4.002-8.939 8.921 0 .603.06 1.201.181 1.789C2.153 19.643 0 22.255 0 25.298c0 3.577 2.917 6.488 6.501 6.488h22.87z" transform="translate(-636 -3769) translate(636 3769) translate(197.974 171.543)"></path></g></g><g transform="translate(-636 -3769) translate(636 3769) translate(207.269 33.762)"><rect width="60.689" height="123.566" x=".547" y=".547" fill="#FFF" stroke="#024F71" stroke-width="1.093" opacity=".697" rx="2.187"></rect><g fill="#024F71"><g><path d="M2.268 8.915l13.835 7.57L29.83 8.973l-13.834-7.57L2.268 8.914zm13.835 8.937c-.11 0-.22-.028-.318-.082L.617 9.47c-.206-.113-.333-.325-.333-.555 0-.23.127-.442.333-.555L15.678.116c.198-.107.439-.107.636 0l15.167 8.3c.206.114.333.326.333.556 0 .23-.127.443-.332.556l-15.06 8.242c-.1.054-.21.082-.319.082z" transform="translate(14.451 6.014) translate(.31 17.496)"></path><path d="M16.103 23.953c-.11 0-.22-.029-.318-.083L.617 15.382c-.314-.175-.425-.573-.25-.886.175-.313.572-.425.886-.25l14.85 8.31 14.741-8.251c.316-.176.711-.064.887.25.176.312.064.71-.249.886l-15.06 8.429c-.1.054-.209.083-.319.083" transform="translate(14.451 6.014) translate(.31 17.496)"></path><path d="M16.103 29.493c-.11 0-.22-.028-.318-.083L.617 20.923c-.314-.175-.425-.573-.25-.886.175-.314.572-.427.886-.25l14.85 8.31 14.741-8.252c.316-.174.711-.064.887.25.176.313.064.71-.249.886l-15.06 8.43c-.1.054-.209.082-.319.082" transform="translate(14.451 6.014) translate(.31 17.496)"></path></g><path fill-rule="nonzero" d="M5.24 7.064c.465 0 .882-.07 1.249-.208v-.657c-.2.062-.394.113-.58.152-.186.04-.378.06-.577.06-.459 0-.81-.148-1.052-.443-.242-.294-.364-.729-.364-1.303 0-.55.126-.98.378-1.291.252-.312.598-.468 1.038-.468.195 0 .38.028.556.085.176.056.344.122.502.197l.275-.638c-.406-.2-.848-.301-1.326-.301-.455 0-.851.097-1.189.292-.337.194-.595.474-.773.839-.179.365-.268.791-.268 1.278 0 .773.184 1.368.551 1.783.367.415.894.623 1.58.623zM8.17 7V2.015h-.752V7h.753zm2.323.064c.248 0 .469-.047.662-.14.193-.095.342-.224.447-.389h.038l.106.465h.593V3.457h-.756v1.765c0 .444-.075.76-.223.95-.148.189-.38.283-.697.283-.237 0-.41-.067-.522-.203-.111-.136-.167-.34-.167-.61V3.457h-.759v2.316c0 .434.106.757.317.97.212.214.532.321.961.321zm3.838 0c.47 0 .831-.092 1.083-.277.252-.185.378-.45.378-.796 0-.171-.032-.318-.096-.44-.064-.123-.162-.232-.295-.326-.132-.094-.345-.197-.637-.31-.348-.135-.574-.24-.678-.318-.103-.077-.155-.17-.155-.282 0-.226.199-.34.596-.34.26 0 .582.08.964.238l.244-.567c-.372-.169-.766-.253-1.183-.253-.42 0-.753.084-.998.251-.244.168-.366.403-.366.707 0 .252.072.457.216.615.144.158.42.316.828.474.21.081.373.154.49.218.118.064.202.126.253.185.052.06.077.135.077.225 0 .28-.232.42-.695.42-.359 0-.746-.097-1.163-.289v.65c.286.144.665.215 1.137.215zm3.415 0c.141 0 .278-.012.409-.037.131-.024.239-.055.322-.091v-.567c-.184.058-.368.086-.551.086-.148 0-.267-.043-.357-.13-.091-.086-.137-.22-.137-.401V4.027h1.01v-.57h-1.01v-.788h-.464l-.256.75-.52.275v.333h.484v1.91c0 .751.357 1.127 1.07 1.127zm2.986 0c.242 0 .456-.018.644-.054.188-.037.374-.099.558-.186v-.612c-.208.092-.401.157-.582.197-.18.04-.375.06-.585.06-.318 0-.564-.093-.74-.278-.175-.185-.268-.449-.278-.793h2.36v-.407c0-.497-.135-.888-.406-1.172-.271-.284-.64-.426-1.109-.426-.504 0-.9.165-1.188.496-.288.331-.433.786-.433 1.365 0 .564.156 1.006.467 1.328.31.321.741.482 1.292.482zm.638-2.21H19.76c.028-.29.114-.512.258-.664.145-.151.336-.227.575-.227.24 0 .428.075.564.226.137.15.207.372.212.665zM23.718 7V5.148c0-.314.093-.569.28-.765.187-.197.431-.295.732-.295.116 0 .227.013.333.038l.074-.701c-.098-.022-.223-.032-.375-.032-.218 0-.42.062-.61.186-.189.123-.342.291-.46.503h-.038l-.1-.625h-.589V7h.753zm6.705 0v-.663H28.2v-.032l.814-.788c.365-.344.626-.617.783-.819.157-.202.273-.398.349-.588.076-.19.114-.39.114-.602 0-.384-.132-.69-.394-.918-.263-.227-.612-.341-1.048-.341-.278 0-.54.046-.785.138-.245.092-.498.248-.759.468l.407.496c.22-.173.414-.293.581-.359.168-.066.341-.099.52-.099.225 0 .4.06.528.183.127.121.19.288.19.5 0 .153-.026.297-.08.432-.053.134-.138.278-.254.43-.117.153-.353.412-.71.778L27.248 6.43V7h3.175zM11.264 28.323l.458-1.3h1.79l.469 1.3h.813l-1.752-4.703h-.833l-1.752 4.703h.807zm2.047-1.96h-1.365l.423-1.22c.111-.313.196-.6.253-.863.022.086.06.22.117.404.057.184.101.318.133.404l.439 1.275zm2.774 3.536v-1.45c0-.065-.015-.246-.045-.545h.045c.248.322.596.483 1.045.483.442 0 .788-.162 1.04-.487.25-.324.376-.776.376-1.355s-.124-1.028-.37-1.348c-.247-.32-.591-.481-1.033-.481-.47 0-.823.18-1.058.538h-.038c-.053-.25-.089-.408-.106-.474h-.609v5.12h.753zm.875-2.127c-.31 0-.533-.096-.67-.29-.136-.193-.205-.505-.205-.937v-.112c0-.384.07-.664.207-.84.138-.174.356-.262.655-.262.271 0 .477.102.617.306.14.204.21.505.21.902 0 .395-.07.7-.212.913-.14.213-.342.32-.602.32zm3.213 2.127v-1.45c0-.065-.015-.246-.045-.545h.045c.248.322.596.483 1.045.483.442 0 .788-.162 1.04-.487.25-.324.376-.776.376-1.355s-.124-1.028-.37-1.348c-.247-.32-.592-.481-1.034-.481-.47 0-.822.18-1.057.538h-.038c-.054-.25-.089-.408-.106-.474h-.609v5.12h.753zm.875-2.127c-.31 0-.533-.096-.67-.29-.137-.193-.205-.505-.205-.937v-.112c0-.384.069-.664.207-.84.138-.174.356-.262.655-.262.271 0 .477.102.617.306.14.204.21.505.21.902 0 .395-.071.7-.212.913-.14.213-.342.32-.602.32z" transform="translate(14.451 6.014)"></path></g><g fill="#024F71"><path d="M12.029 1.566c6.624 0 10.691 1.882 10.691 3.23 0 1.35-4.067 3.231-10.691 3.231-6.625 0-10.692-1.881-10.692-3.23 0-1.35 4.067-3.231 10.692-3.231zM1.337 6.944c2.132 1.552 6.5 2.375 10.692 2.375 4.191 0 8.56-.823 10.691-2.375v4.314c0 1.35-4.067 3.23-10.691 3.23-6.625 0-10.692-1.88-10.692-3.23V6.944zm0 6.462c2.132 1.552 6.5 2.375 10.692 2.375 4.191 0 8.56-.823 10.691-2.375v4.314c0 1.349-4.067 3.23-10.691 3.23-6.625 0-10.692-1.881-10.692-3.23v-4.314zm10.692 14.006c-6.625 0-10.692-1.881-10.692-3.23v-4.315c2.132 1.552 6.5 2.376 10.692 2.376 4.191 0 8.56-.824 10.691-2.376v4.314c0 1.35-4.067 3.231-10.691 3.231zm0 1.292c5.83 0 12.028-1.585 12.028-4.523v-5.815h-.117c.07-.208.117-.422.117-.646v-5.816h-.117c.07-.208.117-.422.117-.646V4.796c0-2.938-6.197-4.523-12.028-4.523C6.199.273 0 1.858 0 4.796v6.462c0 .224.048.438.117.646H0v5.816c0 .224.048.438.117.646H0v5.815c0 2.938 6.198 4.523 12.029 4.523z" transform="translate(19.136 87.48)"></path></g><path stroke="#024F71" stroke-dasharray=".547 1.64" stroke-linecap="round" stroke-width=".547" d="M10.115 70.531L52.215 70.531"></path><g stroke="#024F71" stroke-linecap="round" stroke-width=".547"><path d="M0 1.093L1.136 0 2.187 1.093" transform="translate(29.798 59.049)"></path><path d="M0 9.295L1.136 8.201 2.187 9.295" transform="translate(29.798 59.049) matrix(1 0 0 -1 0 17.496)"></path><path d="M1.146 0.547L1.146 9.295" transform="translate(29.798 59.049)"></path></g><g stroke="#024F71" stroke-linecap="round" stroke-width=".547"><path d="M0 1.093L1.136 0 2.187 1.093" transform="translate(29.798 73.264)"></path><path d="M0 9.295L1.136 8.201 2.187 9.295" transform="translate(29.798 73.264) matrix(1 0 0 -1 0 17.496)"></path><path d="M1.146 0.547L1.146 9.295" transform="translate(29.798 73.264)"></path></g></g><g><g><g><path fill="url(#mq7j388njf)" d="M1.024 7.654L30.937 7.654 30.937 1.607 47.669 14.762 30.937 27.78 30.937 21.679 1.024 21.679zM1.024 73.298L30.937 73.298 30.937 67.25 47.669 80.405 30.937 93.423 30.937 87.322 1.024 87.322z" transform="translate(-636 -3769) translate(636 3769) translate(135.928 53.445) translate(2.45) translate(.328)"></path><path fill="url(#6wec691hvg)" d="M30.76 29.4c-.452-.214-.738-.668-.738-1.164v-5.05H1.292C.579 23.187 0 22.612 0 21.899c0-.712.58-1.288 1.292-1.288h30.022c.712 0 1.291.576 1.291 1.288v3.626l13.263-10.763L32.605 4v3.626c0 .71-.579 1.288-1.291 1.288H1.292C.579 8.914 0 8.336 0 7.626c0-.713.58-1.29 1.292-1.29h28.73V1.289c0-.497.286-.95.738-1.164.45-.214.982-.15 1.37.164l16.602 13.473c.3.244.476.612.476 1 0 .386-.175.754-.476 1L32.13 29.236c-.236.191-.525.288-.816.288-.189 0-.378-.04-.554-.124zM30.76 95.01c-.452-.214-.738-.668-.738-1.164v-5.05H1.292C.579 88.797 0 88.222 0 87.509c0-.712.58-1.288 1.292-1.288h30.022c.712 0 1.291.576 1.291 1.288v3.626l13.263-10.763L32.605 69.61v3.626c0 .71-.579 1.288-1.291 1.288H1.292C.579 74.524 0 73.946 0 73.236c0-.713.58-1.29 1.292-1.29h28.73v-5.047c0-.497.286-.95.738-1.164.45-.214.982-.15 1.37.164l16.602 13.473c.3.244.476.612.476 1 0 .386-.175.754-.476 1L32.13 94.846c-.236.191-.525.288-.816.288-.189 0-.378-.04-.554-.124z" transform="translate(-636 -3769) translate(636 3769) translate(135.928 53.445) translate(2.45) translate(.328)"></path></g></g><path fill="#005A80" fill-rule="nonzero" d="M3.353 55.1v-4.328c0-.966-.035-2-.104-3.104h.049l2.58 7.432h1.285l2.672-7.42h.049c-.016.15-.036.58-.058 1.29-.022.71-.033 1.287-.033 1.729v4.4h1.4v-8.898H9.135L6.591 53.28h-.037l-2.47-7.08H2.031v8.9h1.32zm11.638 0v-8.9h-1.455v8.9h1.455zm6.123.121c.572 0 1.105-.036 1.598-.11.493-.072 1.007-.196 1.543-.37v-4.468H20.98v1.248h1.845v2.294c-.536.118-1.04.177-1.51.177-.933 0-1.649-.283-2.146-.85-.497-.565-.745-1.392-.745-2.48 0-1.034.276-1.85.828-2.446.551-.597 1.302-.895 2.252-.895.722 0 1.444.166 2.167.499l.51-1.211c-.831-.358-1.712-.536-2.64-.536-1.445 0-2.58.405-3.403 1.214-.824.81-1.236 1.93-1.236 3.363 0 1.453.365 2.578 1.096 3.375.73.798 1.769 1.196 3.116 1.196zm6.732-.121v-3.555h1.437l2.13 3.555h1.656l-2.514-3.938c1.152-.471 1.729-1.26 1.729-2.368 0-.869-.276-1.518-.828-1.948-.552-.43-1.402-.645-2.55-.645H26.39V55.1h1.455zm1.01-4.76h-1.01v-2.91h.962c.661 0 1.156.11 1.485.329.329.22.493.58.493 1.083 0 .496-.152.869-.456 1.12-.305.252-.796.378-1.473.378zm5.862 4.76l.87-2.472h3.403l.889 2.472h1.546l-3.33-8.936h-1.582l-3.33 8.936h1.534zm3.89-3.725h-2.593l.803-2.32c.211-.592.372-1.138.481-1.637.04.162.115.418.222.767.108.35.192.605.253.767l.834 2.423zm7.067 3.725v-7.651h2.617V46.2h-6.69v1.248h2.618v7.65h1.455zm9.014 0v-1.236H51.11V51.07h3.354v-1.217H51.11V47.43h3.58V46.2h-5.035v8.9h5.034z" transform="translate(-636 -3769) translate(636 3769) translate(135.928 53.445)"></path></g></g></g></g></svg> 