<?xml version="1.0" encoding="UTF-8"?> <svg xmlns="http://www.w3.org/2000/svg" width="54" height="49" viewBox="0 0 54 49"><g fill="none" fill-rule="evenodd"><g fill="#024F71" fill-rule="nonzero"><g><g><g><g><path d="M19.763 6.296l4.541 5.259 2.74-7.886c.362-1.285-.318-3.076-1.726-3.525-3.845-1.016-4.703 3.613-5.555 6.152zM26.72 16.138L13.955 1.358c-2.535-2.875-7.147.779-4.644 3.69 4.245 4.912 8.484 9.825 12.729 14.738.496.578-.42 1.3-.917.728l-6.748-7.819c-.517-.598-1.273-.923-2.055-.975-2.67-.18-4.493 2.673-2.788 4.686 1.43 1.558 2.788 3.045 4.185 4.66.491.578-.426 1.295-.917.722-1.23-1.424-2.556-2.75-3.786-4.185-2.875-1.79-6.17 1.724-3.986 4.258l.847.98c.787.681 1.699 1.9 2.4 2.715.523.614-.458 1.326-1.046.635l-2.212-2.56c-2.75-2.27-6.623 1.295-4.299 4.03 6.349 7.452 12.843 11.695 22.86 4.99 6.046-4.045 8.15-10.6 3.144-16.513z" transform="translate(-284 -1687) translate(190 1657) translate(94 30.617) translate(5 2.87) translate(7 2.87)"></path></g></g></g></g></g></g></svg> 