<?xml version="1.0" encoding="UTF-8"?> <svg xmlns="http://www.w3.org/2000/svg" width="54" height="49" viewBox="0 0 54 49"><g fill="none" fill-rule="evenodd"><g fill="#2492C3"><g><g><g><g><path d="M24.96 0H7.04C3.166 0 0 3.03 0 6.736V23.88c0 3.706 3.166 6.735 7.04 6.735h17.92c3.874 0 7.04-3.03 7.04-6.735V6.736C32 3.029 28.834 0 24.96 0m-1.14 11.808l-1.085 1.04-4.706 4.502-2.975 2.846c-.501.48-1.352.48-1.85 0l-.601-.576-4.218-4.035c-.519-.497-.48-1.269 0-1.77.48-.496 1.366-.463 1.85 0 .2.192.401.388.602.58 1.094 1.048 2.19 2.104 3.284 3.151l.166-.159 4.706-4.506c.99-.948 1.984-1.9 2.974-2.846.52-.497 1.33-.46 1.85 0 .523.459.488 1.31.004 1.773z" transform="translate(-180 -5330) translate(86 5301) translate(94 29) translate(5 4.486) translate(6 5.74)"></path></g></g></g></g></g></g></svg> 