<?xml version="1.0" encoding="UTF-8"?> <svg xmlns="http://www.w3.org/2000/svg" width="54" height="49" viewBox="0 0 54 49"><g fill="none" fill-rule="evenodd"><g fill="#2492C3" fill-rule="nonzero"><g><g><g><g><path d="M0 37.98l.284-.87c.057-.218 1.65-5.387 3.697-7.4 1.137-1.089 2.502-1.687 3.753-1.687.797 0 1.422.218 1.934.707 1.308 1.252.853 3.646-1.024 5.442-2.218 2.122-7.507 3.482-7.734 3.59l-.91.219zM43.336.054l-.057.762c-.342 8.38-2.218 14.692-10.521 21.766L19.108 8.325C26.617 1.415 32.759 0 40.152 0c.74 0 1.535 0 2.445.054h.74zm-8.304 12.407c1.593-1.415 1.707-3.81.228-5.387-1.479-1.578-3.981-1.633-5.63-.218-1.593 1.415-1.706 3.809-.228 5.387 1.479 1.524 3.981 1.632 5.63.218zM16.208 8.978l15.583 16.27c-.512 3.156-2.104 6.04-4.55 8.216l-.569.49-5.289-5.496c-1.194.816-2.616 1.306-4.151 1.306-.967 0-1.934-.218-2.787-.544-.853-.38-1.65-.925-2.332-1.578-1.25-1.306-1.933-2.993-1.82-4.788.057-1.524.683-2.939 1.707-4.081l-5.29-5.496.57-.49c2.388-2.285 5.573-3.591 8.928-3.809z" transform="translate(-864 -3152) translate(770 3122) translate(94 30.617) translate(5 2.87) translate(0 2.005)"></path></g></g></g></g></g></g></svg> 