<?xml version="1.0" encoding="UTF-8"?> <svg xmlns="http://www.w3.org/2000/svg" width="54" height="49" viewBox="0 0 54 49"><g fill="none" fill-rule="evenodd"><g fill="#2492C3" fill-rule="nonzero"><g><g><g><path d="M21.827 1.924c-.14.023-.274.07-.4.14l-18.73 9.894c-.428.23-.697.695-.697 1.202s.269.97.696 1.201L7.66 16.99l-4.963 2.614c-.427.23-.696.695-.696 1.202s.269.97.696 1.201l4.963 2.628-4.963 2.614c-.427.23-.696.695-.696 1.202s.269.97.696 1.201l18.732 9.894c.36.19.784.19 1.144 0l18.732-9.894c.427-.23.696-.694.696-1.201 0-.507-.269-.971-.696-1.202l-4.963-2.614 4.963-2.628c.427-.23.696-.694.696-1.201 0-.507-.269-.971-.696-1.202L36.34 16.99l4.963-2.628c.427-.23.696-.694.696-1.201 0-.507-.269-.971-.696-1.202L22.572 2.064c-.23-.125-.489-.174-.745-.14zM10.506 18.493l10.922 5.762c.36.19.784.19 1.144 0l10.922-5.762 4.39 2.319L22 29.188 6.115 20.812l4.39-2.319zm0 7.645L21.428 31.9c.36.19.784.19 1.144 0l10.922-5.762 4.39 2.319L22 36.833 6.115 28.457l4.39-2.319z" transform="translate(-284 -3152) translate(190 3122) translate(94 30.617) translate(5 2.87)"></path></g></g></g></g></g></svg> 