<?xml version="1.0" encoding="UTF-8"?> <svg xmlns="http://www.w3.org/2000/svg" width="54" height="49" viewBox="0 0 54 49"><g fill="none" fill-rule="evenodd"><g fill="#93D500" fill-rule="nonzero"><g><g><g><g><path d="M36.581 19.357l7.416-7.095L31.24.055 23.27 7.632h-2.58L12.757.053 0 12.26l7.378 7.098-2.7 2.616c-1.507 1.443-1.507 3.79 0 5.233.7.669 1.602 1.027 2.52 1.076.051.912.447 1.762 1.127 2.412.68.65 1.568 1.029 2.521 1.078.051.878.425 1.741 1.125 2.41.7.67 1.603 1.028 2.521 1.076.05.879.425 1.743 1.125 2.413 1.507 1.442 3.96 1.442 5.469 0l.91-.871.913.87c1.508 1.443 3.961 1.443 5.469 0 .68-.65 1.075-1.5 1.126-2.412.918-.048 1.82-.406 2.52-1.076s1.074-1.534 1.124-2.412c.918-.048 1.822-.406 2.522-1.076.68-.65 1.075-1.5 1.126-2.413.918-.048 1.82-.406 2.52-1.075 1.508-1.443 1.508-3.79 0-5.233l-2.735-2.616zm.912 6.105c-.503.48-1.32.48-1.823 0l-3.646-3.489-1.823 1.744 3.646 3.489c.504.482.504 1.262 0 1.744-.503.48-1.32.48-1.823 0l-3.646-3.488-1.823 1.744 3.646 3.488c.502.48.502 1.263 0 1.744-.503.481-1.32.481-1.823 0l-3.646-3.488-1.823 1.744 3.646 3.488c.504.482.504 1.263 0 1.745-.503.48-1.32.48-1.825-.002L10.482 22.331v-3.486l-6.841-6.58 9.118-8.725 5.577 5.33-4.542 4.382c-1.511 1.446-1.512 3.787 0 5.233 1.508 1.443 3.961 1.442 5.469 0l2.8-2.678c2.454 1.758 5.64 2.162 8.432 1.215l6.998 6.695c.503.481.503 1.264 0 1.745z" transform="translate(-181 -1796) translate(72 1796) translate(109) translate(5 4.486) translate(0 1.914)"></path></g></g></g></g></g></g></svg> 