<?xml version="1.0" encoding="UTF-8"?> <svg xmlns="http://www.w3.org/2000/svg" xmlns:xlink="http://www.w3.org/1999/xlink" width="909" height="338" viewBox="0 0 909 338"><defs><filter id="mld4kipuda" width="115.2%" height="155%" x="-7.6%" y="-27.5%"><feGaussianBlur in="SourceGraphic" stdDeviation="20"></feGaussianBlur></filter><filter id="kjk501name" width="101.7%" height="103.7%" x="-.9%" y="-1.9%"><feGaussianBlur in="SourceAlpha" result="shadowBlurInner1" stdDeviation="1"></feGaussianBlur><feOffset in="shadowBlurInner1" result="shadowOffsetInner1"></feOffset><feComposite in="shadowOffsetInner1" in2="SourceAlpha" k2="-1" k3="1" operator="arithmetic" result="shadowInnerInner1"></feComposite><feColorMatrix in="shadowInnerInner1" values="0 0 0 0 0 0 0 0 0 0 0 0 0 0 0 0 0 0 0.5 0"></feColorMatrix></filter><filter id="yas492xx2g" width="101.7%" height="103.7%" x="-.9%" y="-1.9%"><feGaussianBlur in="SourceAlpha" result="shadowBlurInner1" stdDeviation="1"></feGaussianBlur><feOffset in="shadowBlurInner1" result="shadowOffsetInner1"></feOffset><feComposite in="shadowOffsetInner1" in2="SourceAlpha" k2="-1" k3="1" operator="arithmetic" result="shadowInnerInner1"></feComposite><feColorMatrix in="shadowInnerInner1" values="0 0 0 0 0 0 0 0 0 0 0 0 0 0 0 0 0 0 0.5 0"></feColorMatrix></filter><filter id="ukztwrui5i" width="101.7%" height="103.7%" x="-.9%" y="-1.9%"><feGaussianBlur in="SourceAlpha" result="shadowBlurInner1" stdDeviation="1"></feGaussianBlur><feOffset in="shadowBlurInner1" result="shadowOffsetInner1"></feOffset><feComposite in="shadowOffsetInner1" in2="SourceAlpha" k2="-1" k3="1" operator="arithmetic" result="shadowInnerInner1"></feComposite><feColorMatrix in="shadowInnerInner1" values="0 0 0 0 0 0 0 0 0 0 0 0 0 0 0 0 0 0 0.5 0"></feColorMatrix></filter><filter id="mh0l8doimk" width="101.7%" height="103.7%" x="-.9%" y="-1.9%"><feGaussianBlur in="SourceAlpha" result="shadowBlurInner1" stdDeviation="1"></feGaussianBlur><feOffset in="shadowBlurInner1" result="shadowOffsetInner1"></feOffset><feComposite in="shadowOffsetInner1" in2="SourceAlpha" k2="-1" k3="1" operator="arithmetic" result="shadowInnerInner1"></feComposite><feColorMatrix in="shadowInnerInner1" values="0 0 0 0 0 0 0 0 0 0 0 0 0 0 0 0 0 0 0.5 0"></feColorMatrix></filter><filter id="u88t6fu4xm" width="101.7%" height="103.7%" x="-.9%" y="-1.9%"><feGaussianBlur in="SourceAlpha" result="shadowBlurInner1" stdDeviation="1"></feGaussianBlur><feOffset in="shadowBlurInner1" result="shadowOffsetInner1"></feOffset><feComposite in="shadowOffsetInner1" in2="SourceAlpha" k2="-1" k3="1" operator="arithmetic" result="shadowInnerInner1"></feComposite><feColorMatrix in="shadowInnerInner1" values="0 0 0 0 0 0 0 0 0 0 0 0 0 0 0 0 0 0 0.5 0"></feColorMatrix></filter><filter id="wda6k8ij0o" width="101.7%" height="103.7%" x="-.9%" y="-1.9%"><feGaussianBlur in="SourceAlpha" result="shadowBlurInner1" stdDeviation="1"></feGaussianBlur><feOffset in="shadowBlurInner1" result="shadowOffsetInner1"></feOffset><feComposite in="shadowOffsetInner1" in2="SourceAlpha" k2="-1" k3="1" operator="arithmetic" result="shadowInnerInner1"></feComposite><feColorMatrix in="shadowInnerInner1" values="0 0 0 0 0 0 0 0 0 0 0 0 0 0 0 0 0 0 0.5 0"></feColorMatrix></filter><rect id="0n000x2fxd" width="115" height="54" x="256" y="0" rx="4"></rect><rect id="thkkl1t6ff" width="115" height="54" x="383" y="0" rx="4"></rect><rect id="xqk3wyff8h" width="115" height="54" x="511" y="0" rx="4"></rect><rect id="42anof13aj" width="115" height="54" x="639" y="0" rx="4"></rect><rect id="0nbn75c8vl" width="115" height="54" x="0" y="0" rx="4"></rect><rect id="3ylz0ob51n" width="115" height="54" x="128" y="0" rx="4"></rect><linearGradient id="9824907sub" x1="50%" x2="50%" y1="89.721%" y2="4.376%"><stop offset="0%" stop-color="#00814B"></stop><stop offset="17%" stop-color="#128A49"></stop><stop offset="50%" stop-color="#42A145"></stop><stop offset="97%" stop-color="#8EC63E"></stop><stop offset="100%" stop-color="#93C83E"></stop></linearGradient><linearGradient id="9blao66dxc" x1="50%" x2="50%" y1="3.799%" y2="120.846%"><stop offset="0%" stop-color="#00814B"></stop><stop offset="17%" stop-color="#128A49"></stop><stop offset="50%" stop-color="#42A145"></stop><stop offset="97%" stop-color="#8EC63E"></stop><stop offset="100%" stop-color="#93C83E"></stop></linearGradient><path id="e1ajir9l6p" d="M0 0.696L5.923 0.696 5.923 7.835 0 7.835z"></path><path id="18odqumz5r" d="M0 34.309L716.934 34.309 716.934 0 0 0z"></path></defs><g fill="none" fill-rule="evenodd"><g><g transform="translate(-146 -812) translate(205 872)"><ellipse cx="395.5" cy="109" fill="#2492C3" filter="url(#mld4kipuda)" opacity=".26" rx="394.5" ry="109"></ellipse><path fill="url(#9824907sub)" fill-rule="nonzero" d="M0.76 72.04H790.26V187.91000000000003H0.76z"></path><path fill="url(#9blao66dxc)" fill-rule="nonzero" d="M790.26 71.91L0.76 71.91 40.68 41.64 748.23 41.64z"></path><g><g transform="translate(19 123)"><use fill="#FFF" xlink:href="#0n000x2fxd"></use><use fill="#000" filter="url(#kjk501name)" xlink:href="#0n000x2fxd"></use></g><g transform="translate(19 123)"><use fill="#FFF" xlink:href="#thkkl1t6ff"></use><use fill="#000" filter="url(#yas492xx2g)" xlink:href="#thkkl1t6ff"></use></g><g transform="translate(19 123)"><use fill="#FFF" xlink:href="#xqk3wyff8h"></use><use fill="#000" filter="url(#ukztwrui5i)" xlink:href="#xqk3wyff8h"></use></g><g transform="translate(19 123)"><use fill="#FFF" xlink:href="#42anof13aj"></use><use fill="#000" filter="url(#mh0l8doimk)" xlink:href="#42anof13aj"></use></g><g transform="translate(19 123)"><use fill="#FFF" xlink:href="#0nbn75c8vl"></use><use fill="#000" filter="url(#u88t6fu4xm)" xlink:href="#0nbn75c8vl"></use></g><g transform="translate(19 123)"><use fill="#FFF" xlink:href="#3ylz0ob51n"></use><use fill="#000" filter="url(#wda6k8ij0o)" xlink:href="#3ylz0ob51n"></use></g></g><g transform="translate(46 134)"><g transform="translate(0 6.31)"><mask id="cn3de883dq" fill="#fff"><use xlink:href="#e1ajir9l6p"></use></mask><path fill="#231F20" d="M4.35 4.236c0-1.533-.676-2.3-2.03-2.3h-.806v4.649h.649c1.459 0 2.188-.783 2.188-2.35m1.572-.038c0 1.175-.335 2.075-1.003 2.7-.67.625-1.635.938-2.898.938H0V.695h2.242c1.165 0 2.07.309 2.714.924.645.615.967 1.474.967 2.578" mask="url(#cn3de883dq)"></path></g><mask id="9kdtt94fhs" fill="#fff"><use xlink:href="#18odqumz5r"></use></mask><path fill="#231F20" d="M7.232 14.143h1.489V8.684H7.232v5.46zm-.064-6.87c0-.485.27-.727.811-.727.54 0 .81.242.81.727 0 .231-.067.411-.202.54-.136.128-.338.193-.608.193-.541 0-.811-.244-.811-.733zM14.086 12.523c0 .56-.194.986-.584 1.279-.39.293-.971.44-1.745.44-.398 0-.735-.028-1.016-.082-.28-.053-.542-.133-.786-.236v-1.23c.277.13.588.238.936.326.345.088.65.133.915.133.54 0 .81-.157.81-.47 0-.117-.036-.211-.107-.285-.071-.073-.195-.156-.371-.25-.176-.091-.41-.2-.703-.323-.42-.176-.73-.34-.925-.49-.197-.149-.341-.32-.43-.515-.09-.194-.135-.431-.135-.715 0-.485.188-.86.565-1.125.375-.266.908-.398 1.598-.398.658 0 1.297.143 1.919.43l-.45 1.073c-.272-.117-.528-.213-.765-.288-.238-.074-.481-.112-.728-.112-.44 0-.66.12-.66.357 0 .133.072.25.213.347.142.098.452.243.93.434.427.172.74.333.938.483.198.15.345.323.439.519.095.195.142.428.142.698M17.626 13.055c.261 0 .573-.057.937-.171v1.108c-.371.167-.827.25-1.367.25-.595 0-1.029-.151-1.301-.452-.272-.301-.408-.753-.408-1.355V9.803h-.713v-.63l.821-.498.429-1.152h.953v1.162h1.528v1.118h-1.528v2.632c0 .21.059.368.177.469.119.1.277.15.472.15M22.666 8.582c.202 0 .369.015.503.044l-.112 1.396c-.12-.032-.267-.048-.44-.048-.475 0-.846.122-1.111.366s-.398.586-.398 1.025v2.779h-1.489V8.685h1.128l.22.918h.073c.169-.307.397-.553.687-.74.287-.187.6-.281.939-.281M24.09 14.143h1.489V8.684H24.09v5.46zm-.064-6.87c0-.485.271-.727.811-.727s.81.242.81.727c0 .231-.067.411-.202.54-.135.128-.338.193-.608.193-.54 0-.811-.244-.811-.733zM29.614 9.774c-.368 0-.637.113-.806.339-.169.226-.256.6-.263 1.12v.162c0 .585.087 1.005.26 1.26.175.254.451.38.83.38.304 0 .547-.14.73-.422.18-.281.27-.691.27-1.229 0-.537-.09-.94-.274-1.207-.183-.27-.432-.403-.747-.403m.48-1.191c.643 0 1.148.25 1.512.753.364.503.547 1.192.547 2.069 0 .902-.187 1.6-.564 2.095-.375.493-.888.742-1.536.742-.64 0-1.144-.234-1.508-.699h-.103l-.249.6h-1.138V6.545h1.49v1.768c0 .226-.02.585-.059 1.08h.06c.347-.54.863-.81 1.547-.81M37.222 14.144l-.2-.698h-.078c-.16.254-.386.45-.68.588-.292.138-.626.208-1 .208-.642 0-1.125-.172-1.45-.515-.325-.344-.488-.838-.488-1.482v-3.56h1.489v3.188c0 .395.07.69.21.887.139.197.363.295.669.295.417 0 .717-.14.903-.417.186-.28.278-.74.278-1.385V8.685h1.49v5.459h-1.143zM42.15 13.055c.26 0 .572-.057.936-.171v1.108c-.37.167-.827.25-1.367.25-.595 0-1.029-.151-1.3-.452-.273-.301-.409-.753-.409-1.355V9.803h-.713v-.63l.821-.498.43-1.152h.952v1.162h1.528v1.118H41.5v2.632c0 .21.06.368.177.469.12.1.277.15.472.15M46.374 9.642c-.315 0-.563.1-.742.3-.179.2-.281.485-.308.852h2.09c-.007-.367-.103-.652-.288-.852-.186-.2-.437-.3-.752-.3m.21 4.6c-.879 0-1.565-.243-2.061-.728-.495-.485-.742-1.172-.742-2.06 0-.915.229-1.623.686-2.122.458-.5 1.09-.75 1.897-.75.772 0 1.372.22 1.802.66.43.439.645 1.046.645 1.82v.724H45.29c.017.423.142.753.376.99.234.239.563.357.986.357.329 0 .64-.034.933-.102.293-.07.599-.178.918-.327v1.152c-.261.13-.539.227-.835.29-.296.064-.657.096-1.084.096M52.317 13.055c.381 0 .66-.111.837-.332.178-.221.274-.597.291-1.128v-.161c0-.586-.09-1.006-.272-1.26-.179-.254-.473-.381-.88-.381-.332 0-.59.14-.774.423-.184.28-.276.69-.276 1.228 0 .537.093.94.278 1.208.186.269.451.403.796.403m-.522 1.187c-.642 0-1.145-.25-1.512-.748-.365-.498-.549-1.188-.549-2.07 0-.895.187-1.593.56-2.092.372-.5.885-.75 1.54-.75.686 0 1.211.267 1.572.8h.05c-.077-.406-.114-.77-.114-1.088V6.546h1.495v7.598h-1.143l-.288-.708h-.064c-.338.537-.854.806-1.547.806M13.646 24.161c0 .645-.232 1.152-.697 1.523-.463.372-1.108.557-1.935.557-.762 0-1.435-.143-2.021-.43v-1.406c.48.215.889.366 1.221.454.335.088.64.132.916.132.332 0 .587-.063.764-.19.178-.127.268-.316.268-.567 0-.14-.04-.264-.119-.373-.077-.109-.191-.214-.343-.315-.151-.1-.46-.262-.925-.484-.438-.205-.764-.4-.982-.59-.217-.189-.393-.409-.522-.66-.13-.25-.196-.543-.196-.879 0-.63.215-1.127.642-1.489.428-.36 1.02-.542 1.775-.542.371 0 .724.044 1.063.132.335.088.688.211 1.056.371l-.488 1.177c-.38-.156-.695-.265-.945-.327-.248-.062-.494-.093-.735-.093-.285 0-.505.067-.659.2-.154.133-.23.308-.23.523 0 .133.031.25.094.35.06.098.16.194.296.287.134.093.454.26.958.5.668.32 1.126.64 1.373.96.246.321.37.714.37 1.18M17.012 25.055c.26 0 .573-.057.937-.171v1.108c-.371.167-.827.25-1.367.25-.595 0-1.03-.151-1.301-.452-.272-.301-.408-.753-.408-1.355v-2.632h-.713v-.63l.82-.498.43-1.152h.953v1.162h1.528v1.118h-1.528v2.632c0 .21.059.368.177.469.119.1.277.15.472.15M20.153 23.404c0 .541.09.95.267 1.226.176.276.465.415.866.415.397 0 .682-.138.856-.413.175-.275.262-.685.262-1.228 0-.54-.088-.946-.264-1.216-.175-.27-.464-.405-.864-.405-.397 0-.684.134-.859.403-.176.268-.264.675-.264 1.218m3.774 0c0 .89-.234 1.583-.703 2.085-.468.501-1.12.752-1.958.752-.524 0-.986-.115-1.386-.344-.4-.23-.708-.559-.923-.989-.215-.43-.323-.93-.323-1.504 0-.892.233-1.585.7-2.08.465-.495 1.12-.742 1.962-.742.524 0 .986.114 1.386.342.401.228.708.555.923.981.215.426.322.926.322 1.5M28.15 20.582c.202 0 .37.015.503.044l-.112 1.396c-.12-.032-.267-.048-.44-.048-.475 0-.846.122-1.11.366-.266.244-.399.586-.399 1.025v2.779h-1.489v-5.459h1.128l.22.918h.073c.17-.307.397-.553.687-.74.287-.187.6-.281.94-.281M32.519 23.614l-.576.02c-.433.013-.755.091-.967.234-.212.143-.317.361-.317.654 0 .42.24.63.722.63.345 0 .62-.099.827-.298.207-.198.31-.462.31-.79v-.45zm.439 2.53l-.288-.743h-.04c-.25.316-.507.535-.773.657-.265.122-.61.183-1.037.183-.525 0-.937-.15-1.24-.449-.3-.3-.45-.726-.45-1.28 0-.579.203-1.006.608-1.28.406-.276 1.016-.429 1.834-.458l.947-.029v-.239c0-.554-.283-.83-.85-.83-.436 0-.95.131-1.538.395l-.493-1.006c.628-.328 1.325-.493 2.09-.493.732 0 1.294.16 1.685.48.39.317.585.803.585 1.454v3.637h-1.04zM36.57 22.472c0 .296.066.53.201.703.136.172.342.259.618.259.281 0 .486-.087.616-.26.13-.171.195-.406.195-.702 0-.658-.27-.986-.81-.986-.548 0-.82.328-.82.986zm-.543 4.443c0 .205.1.367.295.484.197.117.474.176.828.176.534 0 .952-.074 1.255-.22.303-.147.454-.347.454-.601 0-.205-.09-.346-.269-.425-.178-.078-.456-.117-.83-.117h-.77c-.275 0-.503.065-.688.193-.183.129-.275.299-.275.51zm4.214-6.23v.757l-.855.219c.157.245.235.518.235.82 0 .587-.204 1.043-.614 1.37-.408.328-.975.49-1.7.49l-.269-.014-.22-.024c-.153.117-.229.248-.229.39 0 .216.273.323.82.323h.928c.598 0 1.055.128 1.37.386.313.257.47.634.47 1.132 0 .639-.265 1.133-.798 1.485-.532.35-1.296.527-2.292.527-.762 0-1.344-.133-1.746-.398-.402-.265-.603-.637-.603-1.115 0-.33.102-.604.308-.826.205-.221.505-.38.903-.473-.153-.065-.286-.172-.4-.32-.115-.148-.17-.305-.17-.471 0-.21.06-.382.18-.52.12-.14.294-.275.522-.408-.286-.124-.514-.322-.68-.596-.169-.273-.253-.595-.253-.967 0-.595.193-1.056.581-1.381.388-.326.941-.49 1.66-.49.154 0 .335.015.544.043.211.028.345.048.404.06h1.904zM43.315 21.642c-.315 0-.563.1-.742.3-.179.2-.28.485-.308.852h2.09c-.007-.367-.103-.652-.288-.852-.186-.2-.437-.3-.752-.3m.21 4.6c-.879 0-1.565-.243-2.06-.728-.496-.485-.743-1.172-.743-2.06 0-.915.23-1.623.686-2.122.458-.5 1.09-.75 1.897-.75.772 0 1.372.22 1.802.66.43.439.645 1.046.645 1.82v.724h-3.52c.016.423.141.753.375.99.234.239.563.357.986.357.33 0 .64-.034.933-.102.293-.07.6-.178.918-.327v1.152c-.26.13-.539.227-.835.29-.296.064-.657.096-1.084.096M149.096 10.545c0-1.533-.677-2.3-2.031-2.3h-.806v4.649h.649c1.459 0 2.188-.783 2.188-2.35m1.572-.038c0 1.175-.335 2.075-1.003 2.7-.67.625-1.635.938-2.898.938h-2.022v-7.14h2.242c1.165 0 2.07.309 2.714.924.645.615.967 1.474.967 2.578M154.947 11.614l-.576.02c-.433.013-.755.091-.967.234-.212.143-.317.361-.317.654 0 .42.241.63.722.63.345 0 .621-.099.827-.298.207-.198.311-.462.311-.79v-.45zm.44 2.53l-.289-.743h-.039c-.25.316-.508.535-.774.657-.265.122-.61.183-1.037.183-.525 0-.937-.15-1.239-.449-.3-.3-.45-.726-.45-1.28 0-.579.202-1.006.607-1.28.406-.276 1.016-.429 1.834-.458l.947-.029v-.239c0-.554-.283-.83-.85-.83-.436 0-.949.131-1.538.395l-.493-1.006c.628-.328 1.325-.493 2.09-.493.732 0 1.294.16 1.685.48.39.317.585.803.585 1.454v3.637h-1.04zM160.17 13.055c.26 0 .573-.057.937-.171v1.108c-.371.167-.827.25-1.367.25-.595 0-1.03-.151-1.301-.452-.272-.301-.408-.753-.408-1.355V9.803h-.713v-.63l.82-.498.43-1.152h.953v1.162h1.528v1.118h-1.528v2.632c0 .21.059.368.177.469.119.1.277.15.472.15M165.283 11.614l-.576.02c-.433.013-.755.091-.967.234-.212.143-.317.361-.317.654 0 .42.241.63.722.63.345 0 .621-.099.827-.298.207-.198.311-.462.311-.79v-.45zm.44 2.53l-.289-.743h-.039c-.25.316-.508.535-.774.657-.265.122-.61.183-1.037.183-.525 0-.937-.15-1.239-.449-.3-.3-.45-.726-.45-1.28 0-.579.202-1.006.607-1.28.406-.276 1.016-.429 1.834-.458l.947-.029v-.239c0-.554-.283-.83-.85-.83-.436 0-.949.131-1.538.395l-.493-1.006c.628-.328 1.325-.493 2.09-.493.732 0 1.294.16 1.685.48.39.317.585.803.585 1.454v3.637h-1.04zM131.991 22.364h.498c.466 0 .814-.092 1.045-.276.231-.184.347-.452.347-.803 0-.355-.097-.617-.29-.786-.195-.17-.498-.254-.912-.254h-.688v2.12zm3.418-1.133c0 .768-.24 1.356-.72 1.763-.48.407-1.163.61-2.049.61h-.649v2.54h-1.514v-7.139h2.281c.866 0 1.524.186 1.975.56.45.371.676.927.676 1.666zM139.576 20.582c.202 0 .37.015.503.044l-.112 1.396c-.12-.032-.267-.048-.44-.048-.475 0-.846.122-1.11.366-.266.244-.399.586-.399 1.025v2.779h-1.489v-5.459h1.128l.22.918h.073c.17-.307.397-.553.687-.74.287-.187.6-.281.94-.281M142.2 23.404c0 .541.09.95.267 1.226.176.276.465.415.866.415.397 0 .682-.138.856-.413.175-.275.262-.685.262-1.228 0-.54-.088-.946-.264-1.216-.175-.27-.464-.405-.864-.405-.397 0-.684.134-.859.403-.176.268-.264.675-.264 1.218m3.774 0c0 .89-.234 1.583-.703 2.085-.468.501-1.12.752-1.958.752-.524 0-.986-.115-1.386-.344-.4-.23-.708-.559-.923-.989-.215-.43-.323-.93-.323-1.504 0-.892.233-1.585.7-2.08.465-.495 1.12-.742 1.962-.742.524 0 .986.114 1.386.342.401.228.708.555.923.981.215.426.322.926.322 1.5M149.438 25.055c.26 0 .573-.057.937-.171v1.108c-.371.167-.827.25-1.368.25-.595 0-1.029-.151-1.3-.452-.272-.301-.409-.753-.409-1.355v-2.632h-.713v-.63l.821-.498.43-1.152h.952v1.162h1.528v1.118h-1.528v2.632c0 .21.06.368.177.469.12.1.278.15.472.15M153.664 21.642c-.315 0-.563.1-.742.3-.179.2-.28.485-.308.852h2.09c-.007-.367-.103-.652-.288-.852-.186-.2-.437-.3-.752-.3m.21 4.6c-.879 0-1.565-.243-2.06-.728-.496-.485-.743-1.172-.743-2.06 0-.915.23-1.623.686-2.122.458-.5 1.09-.75 1.897-.75.772 0 1.372.22 1.802.66.43.439.645 1.046.645 1.82v.724h-3.52c.016.423.141.753.375.99.234.239.563.357.986.357.33 0 .64-.034.933-.102.293-.07.6-.178.918-.327v1.152c-.26.13-.539.227-.835.29-.296.064-.657.096-1.084.096M159.554 26.241c-1.7 0-2.55-.933-2.55-2.798 0-.928.233-1.637.695-2.126.46-.49 1.125-.735 1.987-.735.632 0 1.198.123 1.699.371l-.44 1.152c-.234-.094-.452-.172-.654-.232-.202-.06-.403-.09-.605-.09-.775 0-1.162.55-1.162 1.65 0 1.068.387 1.602 1.162 1.602.286 0 .552-.038.796-.115.244-.076.488-.196.732-.359v1.275c-.241.153-.484.26-.73.317-.245.06-.556.088-.93.088M164.91 25.055c.26 0 .572-.057.936-.171v1.108c-.37.167-.827.25-1.367.25-.595 0-1.029-.151-1.3-.452-.273-.301-.409-.753-.409-1.355v-2.632h-.713v-.63l.821-.498.43-1.152h.952v1.162h1.528v1.118h-1.528v2.632c0 .21.06.368.177.469.12.1.277.15.472.15M166.878 26.143h1.489v-5.459h-1.489v5.46zm-.064-6.87c0-.485.271-.727.811-.727s.811.242.811.727c0 .231-.068.411-.203.54-.135.128-.337.193-.608.193-.54 0-.811-.244-.811-.733zM171.043 23.404c0 .541.089.95.267 1.226.176.276.465.415.866.415.397 0 .682-.138.856-.413.175-.275.262-.685.262-1.228 0-.54-.088-.946-.264-1.216-.175-.27-.464-.405-.864-.405-.397 0-.684.134-.859.403-.176.268-.264.675-.264 1.218m3.774 0c0 .89-.234 1.583-.703 2.085-.468.501-1.121.752-1.958.752-.524 0-.986-.115-1.386-.344-.401-.23-.708-.559-.923-.989-.215-.43-.323-.93-.323-1.504 0-.892.233-1.585.699-2.08.466-.495 1.12-.742 1.963-.742.524 0 .986.114 1.386.342.401.228.708.555.923.981.215.426.322.926.322 1.5M181.032 26.144h-1.489v-3.188c0-.395-.07-.69-.21-.887-.14-.196-.364-.295-.669-.295-.417 0-.718.139-.903.417-.186.279-.279.74-.279 1.385v2.568h-1.489v-5.46h1.138l.2.699h.083c.166-.263.394-.463.686-.598.291-.135.622-.203.994-.203.634 0 1.116.172 1.445.516.33.343.493.838.493 1.486v3.56zM397.546 7.598h-1.924l-3.105-5.4h-.044c.061.953.093 1.634.093 2.04v3.36h-1.353V.458h1.91l3.1 5.348h.034c-.049-.928-.073-1.583-.073-1.968V.458h1.362v7.14zM401.46 3.096c-.315 0-.563.1-.742.3-.179.2-.28.485-.308.852h2.09c-.007-.367-.103-.652-.288-.852-.186-.2-.437-.3-.752-.3m.21 4.6c-.879 0-1.565-.243-2.06-.728-.496-.485-.743-1.172-.743-2.06 0-.915.23-1.623.686-2.122.458-.5 1.09-.75 1.897-.75.772 0 1.372.22 1.802.66.43.439.645 1.046.645 1.82v.724h-3.52c.016.423.141.753.375.99.234.239.563.357.986.357.33 0 .64-.034.933-.102.293-.07.6-.178.918-.327V7.31c-.26.13-.539.227-.835.29-.296.064-.657.096-1.084.096M407.406 6.509c.26 0 .573-.057.937-.171v1.108c-.371.167-.827.25-1.367.25-.595 0-1.03-.151-1.301-.452-.272-.301-.408-.753-.408-1.355V3.257h-.713v-.63l.82-.498.43-1.152h.953v1.162h1.528v1.118h-1.528v2.632c0 .21.059.368.177.469.119.1.277.15.472.15M414.11 7.598l-.42-1.91-.565-2.411h-.035l-.996 4.32h-1.601L408.94 2.14h1.484l.63 2.417c.1.433.203 1.03.308 1.792h.029c.013-.248.07-.64.17-1.177l.079-.415.674-2.617h1.64l.64 2.617.06.318c.029.14.056.289.082.446.026.158.05.313.07.464.022.152.034.273.037.364h.03c.029-.234.08-.556.156-.964.075-.41.129-.685.16-.828l.655-2.417h1.46l-1.572 5.459h-1.621zM419.246 4.858c0 .541.089.95.267 1.226.176.276.465.415.866.415.397 0 .682-.138.856-.413.175-.275.262-.685.262-1.228 0-.54-.088-.946-.264-1.216-.175-.27-.464-.405-.864-.405-.397 0-.684.134-.86.403-.175.268-.263.675-.263 1.218m3.774 0c0 .89-.234 1.583-.703 2.085-.468.501-1.121.752-1.958.752-.524 0-.986-.115-1.386-.344-.401-.23-.708-.559-.923-.989-.215-.43-.323-.93-.323-1.504 0-.892.233-1.585.699-2.08.466-.495 1.12-.742 1.963-.742.524 0 .986.114 1.386.342.4.228.708.555.923.981.215.426.322.926.322 1.5M427.242 2.036c.202 0 .369.015.503.044l-.112 1.396c-.12-.032-.267-.048-.44-.048-.475 0-.846.122-1.111.366s-.398.586-.398 1.025V7.6h-1.49v-5.46h1.129l.22.918h.073c.169-.307.397-.553.687-.74.287-.187.6-.28.939-.28M430.096 4.629L430.745 3.799 432.274 2.139 433.953 2.139 431.785 4.507 434.085 7.598 432.367 7.598 430.794 5.386 430.155 5.899 430.155 7.598 428.665 7.598 428.665 0 430.155 0 430.155 3.389 430.076 4.629zM385.545 16.629c-.479-1.54-.748-2.411-.808-2.612-.06-.202-.103-.362-.129-.48-.108.418-.416 1.448-.923 3.092h1.86zm.88 2.969l-.519-1.7h-2.602l-.518 1.7h-1.63l2.52-7.168h1.85l2.53 7.168h-1.632zM391.025 19.695c-1.7 0-2.55-.933-2.55-2.798 0-.928.233-1.637.695-2.126.46-.49 1.125-.735 1.987-.735.632 0 1.198.123 1.699.371l-.44 1.152c-.234-.094-.452-.172-.654-.232-.202-.06-.403-.09-.605-.09-.775 0-1.162.55-1.162 1.65 0 1.068.387 1.602 1.162 1.602.286 0 .552-.038.796-.115.244-.076.488-.196.732-.359v1.275c-.241.153-.484.26-.73.317-.245.06-.556.088-.93.088M396.082 19.695c-1.698 0-2.548-.933-2.548-2.798 0-.928.231-1.637.694-2.126.46-.49 1.125-.735 1.986-.735.632 0 1.199.123 1.7.371l-.44 1.152c-.234-.094-.452-.172-.654-.232-.202-.06-.404-.09-.606-.09-.774 0-1.161.55-1.161 1.65 0 1.068.387 1.602 1.161 1.602.286 0 .553-.038.796-.115.245-.076.488-.196.733-.359v1.275c-.241.153-.484.26-.73.317-.245.06-.556.088-.93.088M401.184 15.096c-.315 0-.563.1-.742.3-.179.2-.28.485-.308.852h2.09c-.007-.367-.103-.652-.288-.852-.186-.2-.437-.3-.752-.3m.21 4.6c-.879 0-1.565-.243-2.06-.728-.496-.485-.743-1.172-.743-2.06 0-.915.23-1.623.686-2.122.458-.5 1.09-.75 1.897-.75.772 0 1.372.22 1.802.66.43.439.645 1.046.645 1.82v.724h-3.52c.016.423.141.753.375.99.234.239.563.357.986.357.33 0 .64-.034.933-.102.293-.07.6-.178.918-.327v1.152c-.26.13-.539.227-.835.29-.296.064-.657.096-1.084.096M404.82 19.598L406.309 19.598 406.309 12 404.82 12zM410.092 15.096c-.315 0-.563.1-.742.3-.179.2-.28.485-.308.852h2.09c-.007-.367-.103-.652-.288-.852-.186-.2-.437-.3-.752-.3m.21 4.6c-.879 0-1.565-.243-2.06-.728-.496-.485-.743-1.172-.743-2.06 0-.915.23-1.623.686-2.122.458-.5 1.09-.75 1.897-.75.772 0 1.372.22 1.802.66.43.439.645 1.046.645 1.82v.724h-3.52c.016.423.141.753.375.99.234.239.563.357.986.357.33 0 .64-.034.933-.102.293-.07.6-.178.918-.327v1.152c-.26.13-.539.227-.835.29-.296.064-.657.096-1.084.096M416.78 14.036c.202 0 .369.015.503.044l-.112 1.396c-.12-.032-.267-.048-.44-.048-.475 0-.846.122-1.111.366s-.398.586-.398 1.025v2.78h-1.49v-5.46h1.129l.22.918h.073c.169-.307.397-.553.687-.74.287-.187.6-.28.939-.28M421.148 17.068l-.576.02c-.433.013-.755.091-.967.234-.212.143-.317.361-.317.654 0 .42.24.63.722.63.345 0 .62-.099.827-.298.207-.198.31-.462.31-.79v-.45zm.439 2.53l-.288-.743h-.04c-.25.316-.507.535-.773.657-.265.122-.61.183-1.037.183-.525 0-.937-.15-1.24-.449-.3-.3-.45-.726-.45-1.28 0-.579.203-1.006.608-1.28.406-.276 1.016-.429 1.834-.458l.947-.029v-.239c0-.554-.283-.83-.85-.83-.436 0-.95.131-1.538.395l-.493-1.006c.628-.328 1.325-.493 2.09-.493.732 0 1.294.16 1.685.48.39.317.585.803.585 1.454v3.637h-1.04zM426.37 18.509c.262 0 .574-.057.938-.171v1.108c-.371.167-.827.25-1.367.25-.595 0-1.03-.151-1.301-.452-.272-.301-.408-.753-.408-1.355v-2.632h-.713v-.63l.82-.498.43-1.152h.953v1.162h1.528v1.118h-1.528v2.632c0 .21.059.368.177.469.119.1.277.15.472.15M428.339 19.598h1.489V14.14h-1.489v5.46zm-.064-6.87c0-.485.27-.728.81-.728s.811.243.811.727c0 .231-.067.412-.202.54-.136.128-.338.193-.609.193-.54 0-.81-.244-.81-.733zM432.504 16.858c0 .541.09.95.267 1.226.176.276.465.415.866.415.397 0 .682-.138.856-.413.175-.275.262-.685.262-1.228 0-.54-.088-.946-.264-1.216-.175-.27-.464-.405-.864-.405-.397 0-.684.134-.859.403-.176.268-.264.675-.264 1.218m3.774 0c0 .89-.234 1.583-.703 2.085-.468.501-1.12.752-1.958.752-.524 0-.986-.115-1.386-.344-.4-.23-.708-.559-.923-.989-.215-.43-.323-.93-.323-1.504 0-.892.233-1.585.7-2.08.465-.495 1.12-.742 1.962-.742.524 0 .986.114 1.386.342.401.228.708.555.923.981.215.426.322.926.322 1.5M442.493 19.598h-1.49V16.41c0-.395-.07-.69-.21-.887-.14-.196-.363-.295-.668-.295-.417 0-.718.139-.903.417-.186.279-.28.74-.28 1.385v2.568h-1.488v-5.46h1.138l.2.699h.083c.166-.263.394-.463.686-.598.29-.135.622-.203.994-.203.634 0 1.116.172 1.445.516.329.343.493.838.493 1.486v3.56zM392.653 28.858c0-.863.126-1.67.379-2.422.252-.752.615-1.41 1.09-1.977h1.22c-.458.628-.804 1.318-1.04 2.07-.233.752-.35 1.525-.35 2.32 0 .797.119 1.568.359 2.311.238.744.58 1.417 1.023 2.02h-1.211c-.48-.554-.843-1.2-1.094-1.939-.251-.739-.376-1.533-.376-2.383M402.35 24.459v4.619c0 .527-.118.99-.354 1.387s-.577.702-1.023.913c-.446.211-.974.317-1.582.317-.918 0-1.63-.235-2.139-.705-.507-.47-.76-1.114-.76-1.931v-4.6h1.507v4.37c0 .55.111.954.332 1.211.222.257.588.386 1.1.386.494 0 .853-.13 1.075-.388.224-.259.335-.665.335-1.219v-4.36h1.51zM403.912 31.598L405.401 31.598 405.401 24 403.912 24zM409.205 30.509c.26 0 .573-.057.937-.171v1.108c-.371.167-.827.25-1.367.25-.595 0-1.03-.151-1.301-.452-.272-.301-.408-.753-.408-1.355v-2.632h-.713v-.63l.82-.498.43-1.152h.953v1.162h1.528v1.118h-1.528v2.632c0 .21.059.368.177.469.119.1.277.15.472.15M411.173 31.598h1.489V26.14h-1.489v5.46zm-.064-6.87c0-.485.27-.728.81-.728s.811.243.811.727c0 .231-.067.412-.202.54-.136.128-.338.193-.609.193-.54 0-.81-.244-.81-.733zM419.026 31.598h-1.49V28.41c0-.395-.066-.69-.197-.887-.132-.196-.34-.295-.623-.295-.38 0-.657.14-.83.42-.173.28-.258.74-.258 1.382v2.568h-1.49v-5.46h1.138l.2.699h.083c.147-.25.359-.447.635-.588.276-.142.594-.213.952-.213.818 0 1.37.268 1.66.8h.132c.147-.253.362-.45.648-.59.284-.14.605-.21.963-.21.619 0 1.087.159 1.404.477.318.317.476.826.476 1.525v3.56h-1.494V28.41c0-.395-.066-.69-.197-.887-.133-.196-.34-.295-.623-.295-.364 0-.637.13-.818.39-.18.26-.271.674-.271 1.24v2.74zM426.894 29.068l-.576.02c-.433.013-.755.091-.967.234-.212.143-.317.361-.317.654 0 .42.241.63.722.63.345 0 .621-.099.827-.298.207-.198.311-.462.311-.79v-.45zm.439 2.53l-.288-.743h-.039c-.251.316-.508.535-.774.657-.265.122-.61.183-1.037.183-.525 0-.937-.15-1.239-.449-.3-.3-.451-.726-.451-1.28 0-.579.203-1.006.608-1.28.406-.276 1.016-.429 1.834-.458l.947-.029v-.239c0-.554-.283-.83-.85-.83-.436 0-.949.131-1.538.395l-.493-1.006c.628-.328 1.325-.493 2.09-.493.732 0 1.294.16 1.685.48.39.317.585.803.585 1.454v3.637h-1.04zM431.748 28.858c0 .856-.126 1.654-.38 2.393-.251.738-.614 1.381-1.09 1.928h-1.211c.44-.599.78-1.27 1.02-2.014.242-.744.362-1.516.362-2.317 0-.794-.117-1.567-.351-2.319-.235-.752-.581-1.442-1.04-2.07h1.22c.479.57.843 1.231 1.094 1.984.25.754.376 1.56.376 2.415M270.228 5.615c0 .645-.231 1.152-.696 1.523-.463.372-1.109.557-1.936.557-.762 0-1.435-.143-2.021-.43V5.86c.481.215.889.366 1.222.454.334.088.64.132.916.132.332 0 .587-.063.764-.19.178-.127.267-.316.267-.567 0-.14-.039-.264-.118-.373-.078-.109-.192-.214-.344-.315-.151-.1-.459-.262-.925-.484-.437-.205-.764-.4-.982-.59-.217-.189-.392-.409-.522-.66-.13-.25-.195-.543-.195-.879 0-.63.214-1.127.641-1.489.429-.36 1.021-.542 1.776-.542.371 0 .724.044 1.062.132.336.088.689.211 1.057.371l-.488 1.177c-.381-.156-.696-.265-.946-.327-.248-.062-.493-.093-.734-.093-.286 0-.506.067-.659.2-.154.133-.23.308-.23.523 0 .133.031.25.093.35.061.098.16.194.296.287.135.093.454.26.959.5.667.32 1.125.64 1.372.96.247.321.371.714.371 1.18M273.594 6.509c.261 0 .573-.057.937-.171v1.108c-.37.167-.827.25-1.367.25-.595 0-1.029-.151-1.3-.452-.273-.301-.409-.753-.409-1.355V3.257h-.713v-.63l.821-.498.43-1.152h.952v1.162h1.528v1.118h-1.528v2.632c0 .21.06.368.177.469.12.1.277.15.472.15M276.736 4.858c0 .541.089.95.267 1.226.176.276.465.415.866.415.397 0 .682-.138.856-.413.175-.275.262-.685.262-1.228 0-.54-.088-.946-.264-1.216-.175-.27-.464-.405-.864-.405-.397 0-.684.134-.86.403-.175.268-.263.675-.263 1.218m3.774 0c0 .89-.234 1.583-.703 2.085-.468.501-1.121.752-1.958.752-.524 0-.986-.115-1.386-.344-.401-.23-.708-.559-.923-.989-.215-.43-.323-.93-.323-1.504 0-.892.233-1.585.699-2.08.466-.495 1.12-.742 1.963-.742.524 0 .986.114 1.386.342.4.228.708.555.923.981.215.426.322.926.322 1.5M284.733 2.036c.202 0 .369.015.503.044l-.112 1.396c-.12-.032-.267-.048-.44-.048-.475 0-.846.122-1.111.366s-.398.586-.398 1.025V7.6h-1.49v-5.46h1.129l.22.918h.073c.169-.307.397-.553.687-.74.287-.187.6-.28.939-.28M289.101 5.068l-.576.02c-.433.013-.755.091-.967.234-.212.143-.317.361-.317.654 0 .42.241.63.722.63.345 0 .621-.099.827-.298.207-.198.311-.462.311-.79v-.45zm.44 2.53l-.289-.743h-.039c-.25.316-.508.535-.774.657-.265.122-.61.183-1.037.183-.525 0-.937-.15-1.239-.449-.3-.3-.45-.726-.45-1.28 0-.579.202-1.006.607-1.28.406-.276 1.016-.429 1.834-.458l.947-.029V3.96c0-.554-.283-.83-.85-.83-.436 0-.949.131-1.538.395l-.493-1.006c.628-.328 1.325-.493 2.09-.493.732 0 1.294.16 1.685.48.39.317.585.803.585 1.454v3.637h-1.04zM293.152 3.926c0 .296.067.53.202.703.136.172.342.259.618.259.28 0 .486-.087.616-.26.129-.171.195-.406.195-.702 0-.658-.271-.986-.811-.986-.547 0-.82.328-.82.986zm-.542 4.443c0 .205.099.367.295.484.197.117.474.176.828.176.534 0 .952-.074 1.255-.22.303-.147.454-.347.454-.601 0-.205-.09-.346-.27-.425-.177-.078-.455-.117-.83-.117h-.77c-.274 0-.502.065-.687.193-.183.129-.275.299-.275.51zm4.214-6.23v.757l-.855.219c.157.245.235.518.235.82 0 .587-.204 1.043-.614 1.37-.408.328-.975.49-1.701.49l-.268-.014-.22-.024c-.153.117-.23.248-.23.39 0 .216.274.323.82.323h.929c.598 0 1.055.128 1.37.386.313.257.47.634.47 1.132 0 .639-.265 1.133-.798 1.485-.532.35-1.296.527-2.292.527-.762 0-1.344-.133-1.746-.398-.402-.265-.603-.637-.603-1.115 0-.33.102-.604.308-.826.205-.221.505-.38.903-.473-.153-.065-.286-.172-.401-.32-.114-.148-.17-.305-.17-.471 0-.21.06-.382.18-.52.12-.14.295-.275.523-.408-.286-.124-.514-.322-.681-.596-.168-.273-.252-.595-.252-.967 0-.595.193-1.056.58-1.381.389-.326.942-.49 1.66-.49.155 0 .336.015.545.043.21.028.345.048.404.06h1.904zM299.898 3.096c-.315 0-.563.1-.742.3-.18.2-.281.485-.308.852h2.09c-.007-.367-.103-.652-.288-.852-.186-.2-.437-.3-.752-.3m.21 4.6c-.88 0-1.565-.243-2.061-.728-.495-.485-.742-1.172-.742-2.06 0-.915.229-1.623.686-2.122.458-.5 1.09-.75 1.897-.75.772 0 1.372.22 1.802.66.43.439.645 1.046.645 1.82v.724h-3.521c.017.423.142.753.376.99.234.239.563.357.986.357.329 0 .64-.034.933-.102.293-.07.599-.178.918-.327V7.31c-.261.13-.54.227-.835.29-.296.064-.657.096-1.084.096M257.286 16.629c-.48-1.54-.748-2.411-.808-2.612-.06-.202-.103-.362-.13-.48-.107.418-.415 1.448-.922 3.092h1.86zm.879 2.969l-.518-1.7h-2.602l-.518 1.7h-1.631l2.52-7.168h1.85l2.53 7.168h-1.631zM262.765 19.695c-1.699 0-2.549-.933-2.549-2.798 0-.928.232-1.637.694-2.126.461-.49 1.125-.735 1.987-.735.632 0 1.198.123 1.7.371l-.44 1.152c-.235-.094-.453-.172-.655-.232-.202-.06-.403-.09-.605-.09-.775 0-1.162.55-1.162 1.65 0 1.068.387 1.602 1.162 1.602.286 0 .552-.038.796-.115.244-.076.488-.196.732-.359v1.275c-.24.153-.484.26-.73.317-.245.06-.556.088-.93.088M267.823 19.695c-1.7 0-2.55-.933-2.55-2.798 0-.928.233-1.637.695-2.126.46-.49 1.125-.735 1.987-.735.632 0 1.198.123 1.699.371l-.44 1.152c-.234-.094-.452-.172-.654-.232-.202-.06-.403-.09-.605-.09-.775 0-1.162.55-1.162 1.65 0 1.068.387 1.602 1.162 1.602.286 0 .552-.038.796-.115.244-.076.488-.196.732-.359v1.275c-.241.153-.484.26-.73.317-.245.06-.556.088-.93.088M272.924 15.096c-.315 0-.563.1-.742.3-.179.2-.28.485-.308.852h2.09c-.007-.367-.103-.652-.288-.852-.186-.2-.437-.3-.752-.3m.21 4.6c-.879 0-1.565-.243-2.06-.728-.496-.485-.743-1.172-.743-2.06 0-.915.23-1.623.686-2.122.458-.5 1.09-.75 1.897-.75.772 0 1.372.22 1.802.66.43.439.645 1.046.645 1.82v.724h-3.52c.016.423.141.753.375.99.234.239.563.357.986.357.33 0 .64-.034.933-.102.293-.07.6-.178.918-.327v1.152c-.26.13-.539.227-.835.29-.296.064-.657.096-1.084.096M276.56 19.598L278.049 19.598 278.049 12 276.56 12zM281.832 15.096c-.315 0-.563.1-.741.3-.18.2-.281.485-.308.852h2.09c-.007-.367-.103-.652-.288-.852-.186-.2-.438-.3-.752-.3m.21 4.6c-.88 0-1.565-.243-2.062-.728-.495-.485-.741-1.172-.741-2.06 0-.915.228-1.623.685-2.122.459-.5 1.09-.75 1.897-.75.772 0 1.373.22 1.803.66.43.439.644 1.046.644 1.82v.724h-3.52c.016.423.141.753.375.99.234.239.563.357.986.357.33 0 .64-.034.933-.102.293-.07.6-.178.918-.327v1.152c-.26.13-.538.227-.834.29-.297.064-.658.096-1.084.096M288.52 14.036c.202 0 .369.015.503.044l-.112 1.396c-.12-.032-.267-.048-.44-.048-.475 0-.846.122-1.111.366s-.398.586-.398 1.025v2.78h-1.489v-5.46h1.128l.22.918h.073c.169-.307.397-.553.687-.74.287-.187.6-.28.939-.28M292.888 17.068l-.576.02c-.433.013-.755.091-.967.234-.212.143-.317.361-.317.654 0 .42.241.63.722.63.345 0 .621-.099.827-.298.207-.198.311-.462.311-.79v-.45zm.44 2.53l-.289-.743H293c-.25.316-.508.535-.774.657-.265.122-.61.183-1.037.183-.525 0-.937-.15-1.239-.449-.3-.3-.45-.726-.45-1.28 0-.579.202-1.006.607-1.28.406-.276 1.016-.429 1.834-.458l.947-.029v-.239c0-.554-.283-.83-.85-.83-.436 0-.949.131-1.538.395l-.493-1.006c.628-.328 1.325-.493 2.09-.493.732 0 1.294.16 1.685.48.39.317.585.803.585 1.454v3.637h-1.04zM298.11 18.509c.262 0 .574-.057.938-.171v1.108c-.371.167-.827.25-1.367.25-.595 0-1.03-.151-1.301-.452-.272-.301-.408-.753-.408-1.355v-2.632h-.713v-.63l.82-.498.43-1.152h.953v1.162h1.528v1.118h-1.528v2.632c0 .21.059.368.177.469.119.1.277.15.472.15M300.079 19.598h1.489V14.14h-1.489v5.46zm-.064-6.87c0-.485.271-.728.811-.728s.81.243.81.727c0 .231-.067.412-.202.54-.136.128-.338.193-.608.193-.54 0-.811-.244-.811-.733zM304.245 16.858c0 .541.089.95.267 1.226.176.276.465.415.866.415.397 0 .682-.138.856-.413.175-.275.262-.685.262-1.228 0-.54-.088-.946-.264-1.216-.175-.27-.464-.405-.864-.405-.397 0-.684.134-.86.403-.175.268-.263.675-.263 1.218m3.774 0c0 .89-.234 1.583-.703 2.085-.468.501-1.121.752-1.958.752-.524 0-.986-.115-1.386-.344-.401-.23-.708-.559-.923-.989-.215-.43-.323-.93-.323-1.504 0-.892.233-1.585.699-2.08.466-.495 1.12-.742 1.963-.742.524 0 .986.114 1.386.342.4.228.708.555.923.981.215.426.322.926.322 1.5M314.233 19.598h-1.49V16.41c0-.395-.07-.69-.21-.887-.14-.196-.363-.295-.668-.295-.417 0-.718.139-.903.417-.186.279-.28.74-.28 1.385v2.568h-1.488v-5.46h1.138l.2.699h.083c.166-.263.394-.463.686-.598.29-.135.622-.203.994-.203.634 0 1.116.172 1.445.516.329.343.493.838.493 1.486v3.56zM264.393 28.858c0-.863.126-1.67.38-2.422.251-.752.614-1.41 1.09-1.977h1.22c-.459.628-.805 1.318-1.04 2.07-.234.752-.35 1.525-.35 2.32 0 .797.118 1.568.358 2.311.238.744.58 1.417 1.023 2.02h-1.21c-.48-.554-.844-1.2-1.095-1.939-.25-.739-.376-1.533-.376-2.383M274.09 24.459v4.619c0 .527-.118.99-.354 1.387s-.577.702-1.023.913c-.446.211-.974.317-1.582.317-.918 0-1.63-.235-2.139-.705-.507-.47-.76-1.114-.76-1.931v-4.6h1.507v4.37c0 .55.111.954.332 1.211.222.257.588.386 1.1.386.494 0 .853-.13 1.075-.388.224-.259.335-.665.335-1.219v-4.36h1.51zM275.652 31.598L277.141 31.598 277.141 24 275.652 24zM280.945 30.509c.26 0 .573-.057.937-.171v1.108c-.371.167-.827.25-1.367.25-.595 0-1.03-.151-1.301-.452-.272-.301-.408-.753-.408-1.355v-2.632h-.713v-.63l.82-.498.43-1.152h.953v1.162h1.528v1.118h-1.528v2.632c0 .21.059.368.177.469.119.1.277.15.472.15M282.913 31.598h1.489V26.14h-1.489v5.46zm-.064-6.87c0-.485.271-.728.811-.728s.81.243.81.727c0 .231-.067.412-.202.54-.136.128-.338.193-.608.193-.54 0-.811-.244-.811-.733zM290.766 31.598h-1.489V28.41c0-.395-.067-.69-.198-.887-.132-.196-.339-.295-.623-.295-.38 0-.657.14-.83.42-.173.28-.258.74-.258 1.382v2.568h-1.49v-5.46h1.138l.2.699h.083c.147-.25.36-.447.635-.588.276-.142.594-.213.952-.213.818 0 1.37.268 1.66.8h.132c.147-.253.362-.45.648-.59.284-.14.605-.21.963-.21.62 0 1.087.159 1.404.477.318.317.476.826.476 1.525v3.56h-1.494V28.41c0-.395-.066-.69-.197-.887-.133-.196-.34-.295-.623-.295-.364 0-.637.13-.818.39-.18.26-.27.674-.27 1.24v2.74zM298.634 29.068l-.576.02c-.433.013-.755.091-.967.234-.212.143-.317.361-.317.654 0 .42.241.63.722.63.345 0 .621-.099.827-.298.207-.198.311-.462.311-.79v-.45zm.44 2.53l-.289-.743h-.039c-.25.316-.508.535-.774.657-.265.122-.61.183-1.037.183-.525 0-.937-.15-1.239-.449-.3-.3-.45-.726-.45-1.28 0-.579.202-1.006.607-1.28.406-.276 1.016-.429 1.834-.458l.947-.029v-.239c0-.554-.283-.83-.85-.83-.436 0-.949.131-1.538.395l-.493-1.006c.628-.328 1.325-.493 2.09-.493.732 0 1.294.16 1.685.48.39.317.585.803.585 1.454v3.637h-1.04zM303.488 28.858c0 .856-.126 1.654-.38 2.393-.251.738-.614 1.381-1.09 1.928h-1.211c.44-.599.78-1.27 1.02-2.014.242-.744.362-1.516.362-2.317 0-.794-.117-1.567-.351-2.319-.235-.752-.581-1.442-1.04-2.07h1.22c.479.57.843 1.231 1.094 1.984.25.754.376 1.56.376 2.415M501.984 8.027h-1.924l-3.105-5.4h-.044c.06.953.093 1.634.093 2.041v3.36h-1.353V.887h1.909l3.1 5.347h.035c-.05-.928-.073-1.583-.073-1.968V.888h1.362v7.14zM506.659 5.498l-.576.02c-.433.013-.755.091-.967.234-.212.143-.317.361-.317.654 0 .42.24.63.722.63.345 0 .62-.099.827-.298.207-.198.31-.462.31-.79v-.45zm.439 2.53l-.288-.743h-.04c-.25.316-.507.535-.773.657-.265.122-.61.183-1.037.183-.525 0-.937-.15-1.24-.449-.3-.3-.45-.726-.45-1.28 0-.579.203-1.006.608-1.28.406-.276 1.016-.429 1.834-.458l.947-.029V4.39c0-.554-.283-.83-.85-.83-.436 0-.95.131-1.538.395l-.493-1.006c.628-.328 1.325-.493 2.09-.493.732 0 1.294.16 1.685.48.39.317.585.803.585 1.454v3.637h-1.04zM511.912 6.939c.26 0 .573-.058.937-.171v1.107c-.371.168-.827.25-1.367.25-.595 0-1.03-.15-1.301-.452-.272-.3-.408-.753-.408-1.354V3.687h-.713v-.63l.82-.498.43-1.153h.953v1.162h1.528v1.119h-1.528v2.632c0 .21.059.367.177.468.119.101.277.152.472.152M513.91 8.027h1.489V2.568h-1.489v5.46zm-.064-6.87c0-.485.271-.727.811-.727s.81.242.81.727c0 .231-.067.411-.202.54-.136.128-.338.193-.608.193-.54 0-.811-.245-.811-.733zM518.32 8.027l-2.08-5.459h1.558l1.054 3.11c.117.394.19.767.22 1.12h.029c.017-.314.09-.687.22-1.12l1.05-3.11h1.557l-2.08 5.46h-1.528zM524.863 3.525c-.315 0-.563.1-.742.3-.18.2-.281.485-.308.852h2.09c-.007-.367-.103-.652-.288-.852-.186-.2-.437-.3-.752-.3m.21 4.6c-.88 0-1.565-.243-2.061-.728-.495-.485-.742-1.172-.742-2.06 0-.915.229-1.623.686-2.122.458-.5 1.09-.75 1.897-.75.772 0 1.372.22 1.802.66.43.44.645 1.046.645 1.821v.723h-3.521c.017.423.142.753.376.991s.563.356.986.356c.329 0 .64-.034.933-.102.293-.069.599-.178.918-.327V7.74c-.261.13-.54.227-.835.29-.296.064-.657.096-1.084.096M536.807 8.027L535.088 8.027 533.218 5.019 532.578 5.478 532.578 8.027 531.065 8.027 531.065.888 532.578.888 532.578 4.155 533.174 3.315 535.108.888 536.787.888 534.297 4.048zM541.316 8.027l-.2-.698h-.078c-.16.254-.386.45-.68.588-.292.138-.626.208-1 .208-.642 0-1.125-.172-1.45-.515-.325-.344-.488-.838-.488-1.482v-3.56h1.489v3.188c0 .395.07.69.21.887.139.197.363.295.669.295.417 0 .717-.139.903-.417.186-.279.278-.74.278-1.385V2.568h1.49v5.46h-1.143zM546.519 3.657c-.368 0-.637.113-.806.34-.169.225-.256.6-.263 1.12v.161c0 .586.087 1.006.26 1.26.175.254.451.381.829.381.305 0 .548-.14.73-.423.18-.28.271-.69.271-1.228 0-.537-.091-.94-.274-1.208-.183-.269-.432-.403-.747-.403m.479-1.19c.644 0 1.149.25 1.513.753.364.503.547 1.192.547 2.068 0 .902-.187 1.6-.564 2.095-.375.494-.888.742-1.536.742-.641 0-1.144-.233-1.508-.698h-.103l-.249.6h-1.138V.43h1.49v1.768c0 .225-.02.585-.059 1.08h.059c.348-.54.864-.81 1.548-.81M552.596 3.525c-.315 0-.563.1-.742.3-.179.2-.28.485-.308.852h2.09c-.007-.367-.103-.652-.288-.852-.186-.2-.437-.3-.752-.3m.21 4.6c-.879 0-1.565-.243-2.06-.728-.496-.485-.743-1.172-.743-2.06 0-.915.23-1.623.686-2.122.458-.5 1.09-.75 1.897-.75.772 0 1.372.22 1.802.66.43.44.645 1.046.645 1.821v.723h-3.52c.016.423.141.753.375.991s.563.356.986.356c.33 0 .64-.034.933-.102.293-.069.6-.178.918-.327V7.74c-.26.13-.539.227-.835.29-.296.064-.657.096-1.084.096M559.314 2.466c.202 0 .369.015.503.044l-.112 1.396c-.12-.032-.267-.048-.44-.048-.475 0-.846.122-1.111.366s-.398.586-.398 1.025v2.779h-1.489v-5.46h1.128l.22.919h.073c.169-.307.397-.553.687-.74.287-.187.6-.281.939-.281M565.806 8.027h-1.489V4.84c0-.395-.07-.69-.21-.887-.14-.196-.364-.295-.669-.295-.417 0-.718.14-.903.417-.186.28-.279.74-.279 1.385v2.568h-1.489V2.568h1.138l.2.698h.083c.166-.263.394-.463.686-.598.291-.135.622-.203.994-.203.634 0 1.116.172 1.445.516.33.343.493.838.493 1.486v3.56zM569.578 3.525c-.315 0-.563.1-.742.3-.18.2-.281.485-.308.852h2.09c-.007-.367-.103-.652-.288-.852-.186-.2-.437-.3-.752-.3m.21 4.6c-.88 0-1.565-.243-2.061-.728-.495-.485-.742-1.172-.742-2.06 0-.915.229-1.623.686-2.122.458-.5 1.09-.75 1.897-.75.772 0 1.372.22 1.802.66.43.44.645 1.046.645 1.821v.723h-3.521c.017.423.142.753.376.991s.563.356.986.356c.329 0 .64-.034.933-.102.293-.069.599-.178.918-.327V7.74c-.261.13-.54.227-.835.29-.296.064-.657.096-1.084.096M575.553 6.939c.261 0 .573-.058.937-.171v1.107c-.37.168-.827.25-1.367.25-.595 0-1.029-.15-1.3-.452-.273-.3-.409-.753-.409-1.354V3.687h-.713v-.63l.821-.498.43-1.153h.952v1.162h1.528v1.119h-1.528v2.632c0 .21.06.367.177.468.12.101.277.152.472.152M579.81 3.525c-.316 0-.564.1-.743.3-.179.2-.28.485-.308.852h2.09c-.007-.367-.103-.652-.288-.852-.186-.2-.437-.3-.752-.3m.21 4.6c-.879 0-1.565-.243-2.06-.728-.496-.485-.743-1.172-.743-2.06 0-.915.23-1.623.686-2.122.458-.5 1.09-.75 1.897-.75.772 0 1.372.22 1.802.66.43.44.645 1.046.645 1.821v.723h-3.52c.016.423.141.753.375.991s.563.356.986.356c.33 0 .64-.034.933-.102.293-.069.6-.178.918-.327V7.74c-.26.13-.539.227-.835.29-.296.064-.657.096-1.084.096M587.34 6.406c0 .56-.194.986-.584 1.28-.389.292-.97.44-1.745.44-.398 0-.735-.028-1.016-.082-.28-.054-.542-.133-.786-.237v-1.23c.277.13.588.24.936.327.345.088.651.132.915.132.54 0 .81-.156.81-.469 0-.117-.036-.212-.107-.286-.07-.073-.195-.156-.37-.249-.177-.092-.41-.2-.704-.324-.42-.176-.729-.339-.925-.489-.197-.149-.34-.32-.43-.515-.09-.194-.135-.432-.135-.715 0-.485.188-.86.565-1.125.375-.266.908-.398 1.598-.398.658 0 1.297.143 1.92.43l-.45 1.073c-.273-.117-.529-.213-.766-.288-.238-.074-.48-.112-.728-.112-.439 0-.659.12-.659.357 0 .133.071.25.212.346.142.098.452.243.93.435.427.172.74.333.938.483.198.15.345.322.44.518.094.195.141.428.141.698M514.079 20.028L515.593 20.028 515.593 12.889 514.079 12.889zM522.272 20.027h-1.489V16.84c0-.395-.071-.69-.21-.887-.14-.196-.364-.295-.669-.295-.417 0-.718.14-.903.417-.186.28-.279.74-.279 1.385v2.568h-1.489v-5.459h1.138l.2.698h.083c.166-.263.394-.463.686-.598.291-.135.622-.203.994-.203.634 0 1.116.172 1.445.516.329.343.493.838.493 1.486v3.56zM526.039 18.939c.26 0 .573-.058.937-.172v1.108c-.371.168-.827.25-1.367.25-.595 0-1.03-.15-1.301-.451-.272-.302-.408-.753-.408-1.355v-2.632h-.713v-.63l.82-.498.43-1.152h.953v1.162h1.528v1.117h-1.528v2.633c0 .21.059.367.177.469.119.1.277.15.472.15M530.294 15.525c-.315 0-.563.1-.742.3-.179.2-.28.485-.308.852h2.09c-.007-.367-.103-.652-.288-.852-.186-.2-.437-.3-.752-.3m.21 4.6c-.879 0-1.565-.243-2.06-.728-.496-.485-.743-1.172-.743-2.06 0-.915.23-1.623.686-2.122.458-.5 1.09-.75 1.897-.75.772 0 1.372.22 1.802.66.43.44.645 1.046.645 1.821v.723h-3.52c.016.423.141.753.375.991s.563.356.986.356c.33 0 .64-.034.933-.102.293-.069.6-.178.918-.327v1.152c-.26.13-.539.227-.835.29-.296.064-.657.096-1.084.096M535.057 16.355c0 .296.067.532.202.703.136.172.342.26.618.26.281 0 .486-.088.616-.26.13-.171.195-.407.195-.703 0-.658-.27-.986-.81-.986-.548 0-.82.329-.82.986zm-.542 4.444c0 .204.1.367.295.483.197.117.474.177.828.177.534 0 .952-.075 1.255-.22.303-.148.454-.348.454-.602 0-.204-.09-.346-.269-.425-.178-.078-.456-.116-.83-.116h-.77c-.275 0-.503.064-.688.192-.183.13-.275.3-.275.51zm4.214-6.23v.756l-.855.22c.157.245.235.518.235.82 0 .587-.204 1.043-.614 1.37-.408.328-.975.49-1.7.49l-.269-.015-.22-.024c-.153.117-.229.248-.229.392 0 .215.273.322.82.322h.928c.598 0 1.055.128 1.37.386.313.256.47.633.47 1.131 0 .64-.265 1.133-.798 1.485-.532.351-1.296.527-2.292.527-.762 0-1.344-.132-1.746-.397-.402-.265-.603-.637-.603-1.116 0-.329.102-.604.308-.826.205-.22.505-.378.903-.473-.153-.065-.286-.172-.4-.32-.115-.148-.17-.305-.17-.47 0-.21.06-.383.18-.52.12-.14.294-.275.522-.409-.286-.123-.514-.322-.68-.596-.169-.273-.253-.595-.253-.966 0-.595.193-1.056.581-1.381.388-.326.941-.49 1.66-.49.154 0 .335.014.544.043.211.028.345.048.404.06h1.904zM542.677 14.466c.202 0 .37.015.503.044l-.112 1.396c-.12-.032-.267-.048-.44-.048-.475 0-.846.122-1.11.366-.266.244-.399.586-.399 1.025v2.779h-1.489v-5.46h1.128l.22.919h.073c.17-.307.397-.553.687-.74.287-.187.6-.281.94-.281M547.076 17.498l-.576.02c-.433.013-.755.091-.967.234-.212.143-.317.361-.317.654 0 .42.24.63.722.63.345 0 .62-.099.827-.298.207-.198.31-.462.31-.79v-.45zm.439 2.53l-.288-.743h-.04c-.25.316-.507.535-.773.657-.265.122-.61.183-1.037.183-.525 0-.937-.15-1.24-.449-.3-.3-.45-.726-.45-1.28 0-.579.203-1.006.608-1.28.406-.276 1.016-.429 1.834-.458l.947-.029v-.239c0-.554-.283-.83-.85-.83-.436 0-.95.131-1.538.395l-.493-1.006c.628-.328 1.325-.493 2.09-.493.732 0 1.294.16 1.685.48.39.317.585.803.585 1.454v3.637h-1.04zM552.329 18.939c.26 0 .573-.058.937-.172v1.108c-.371.168-.827.25-1.367.25-.595 0-1.03-.15-1.301-.451-.272-.302-.408-.753-.408-1.355v-2.632h-.713v-.63l.82-.498.43-1.152h.953v1.162h1.528v1.117h-1.528v2.633c0 .21.059.367.177.469.119.1.277.15.472.15M554.327 20.027h1.489v-5.459h-1.489v5.46zm-.064-6.87c0-.485.271-.727.811-.727s.81.242.81.727c0 .231-.067.411-.202.54-.136.128-.338.193-.608.193-.54 0-.811-.245-.811-.733zM558.522 17.288c0 .541.089.95.267 1.226.176.276.465.415.866.415.397 0 .682-.138.856-.413.175-.275.262-.685.262-1.228 0-.54-.088-.946-.264-1.216-.175-.27-.464-.405-.864-.405-.397 0-.684.134-.859.403-.176.268-.264.675-.264 1.218m3.774 0c0 .89-.234 1.583-.703 2.085-.468.501-1.121.752-1.958.752-.524 0-.986-.115-1.386-.344-.401-.23-.708-.559-.923-.989-.215-.43-.323-.93-.323-1.504 0-.892.233-1.585.699-2.08.466-.495 1.12-.742 1.963-.742.524 0 .986.114 1.386.342.401.228.708.555.923.981.215.426.322.926.322 1.5M568.54 20.027h-1.488V16.84c0-.395-.072-.69-.21-.887-.14-.196-.365-.295-.67-.295-.417 0-.717.14-.903.417-.186.28-.279.74-.279 1.385v2.568h-1.489v-5.459h1.139l.2.698h.082c.166-.263.394-.463.687-.598.29-.135.621-.203.993-.203.635 0 1.116.172 1.446.516.328.343.492.838.492 1.486v3.56zM519.786 29.288c0-.863.126-1.67.379-2.422.252-.752.615-1.41 1.09-1.977h1.22c-.458.628-.804 1.318-1.04 2.07-.233.752-.35 1.525-.35 2.32 0 .797.119 1.568.359 2.311.238.744.58 1.417 1.023 2.02h-1.211c-.48-.554-.843-1.2-1.094-1.939-.251-.739-.376-1.533-.376-2.383M526.44 26.046c-.57 0-1.011.214-1.323.642-.313.428-.47 1.025-.47 1.79 0 1.59.599 2.387 1.793 2.387.5 0 1.108-.125 1.82-.376v1.27c-.585.244-1.24.366-1.962.366-1.038 0-1.833-.315-2.382-.945-.55-.63-.826-1.534-.826-2.712 0-.742.135-1.393.406-1.951.27-.558.658-.986 1.164-1.284.507-.298 1.099-.447 1.78-.447.693 0 1.39.168 2.09.503l-.488 1.23c-.267-.126-.536-.237-.806-.331-.271-.095-.535-.142-.796-.142M534.054 30.045c0 .645-.23 1.152-.696 1.523-.463.372-1.109.557-1.936.557-.762 0-1.435-.143-2.02-.43v-1.406c.48.215.888.366 1.221.454.334.088.64.132.916.132.332 0 .587-.063.764-.19.178-.127.267-.316.267-.567 0-.14-.039-.264-.118-.373-.078-.11-.192-.214-.344-.315-.15-.101-.459-.262-.925-.484-.437-.205-.764-.401-.982-.59-.217-.19-.392-.41-.522-.66-.13-.25-.195-.543-.195-.88 0-.63.214-1.126.641-1.488.43-.361 1.021-.542 1.776-.542.371 0 .724.044 1.062.132.336.088.69.21 1.057.37l-.488 1.178c-.38-.156-.696-.265-.946-.327-.248-.062-.493-.093-.734-.093-.286 0-.506.067-.659.2-.154.133-.23.308-.23.523 0 .133.031.25.093.349.061.099.16.195.296.288.135.093.454.26.96.5.666.319 1.124.639 1.371.96.247.32.371.714.371 1.179M535.423 32.028L536.937 32.028 536.937 24.889 535.423 24.889zM542.034 24.889L539.373 32.028 538.02 32.028 540.681 24.889zM545.843 26.046c-.569 0-1.01.214-1.323.642-.313.428-.469 1.025-.469 1.79 0 1.59.598 2.387 1.792 2.387.501 0 1.108-.125 1.821-.376v1.27c-.586.244-1.24.366-1.963.366-1.038 0-1.833-.315-2.382-.945-.55-.63-.826-1.534-.826-2.712 0-.742.135-1.393.406-1.951.27-.558.658-.986 1.164-1.284.507-.298 1.1-.447 1.78-.447.693 0 1.39.168 2.09.503l-.488 1.23c-.267-.126-.536-.237-.806-.331-.27-.095-.535-.142-.796-.142M555.495 32.027h-1.924l-3.105-5.4h-.044c.06.953.093 1.634.093 2.041v3.36h-1.353v-7.14h1.909l3.1 5.347h.035c-.05-.928-.073-1.583-.073-1.968v-3.379h1.362v7.14zM557.282 32.028L558.796 32.028 558.796 24.889 557.282 24.889zM562.687 29.288c0 .856-.126 1.654-.379 2.393-.252.738-.615 1.381-1.091 1.928h-1.211c.44-.599.78-1.27 1.021-2.014.241-.744.361-1.516.361-2.317 0-.794-.117-1.567-.351-2.319-.235-.752-.581-1.442-1.04-2.07h1.22c.479.57.843 1.231 1.094 1.984.251.754.376 1.56.376 2.415M623.597 3.937h.488c.48 0 .832-.08 1.06-.239.227-.16.342-.41.342-.752 0-.339-.117-.58-.349-.723-.233-.143-.594-.215-1.082-.215h-.459v1.929zm0 1.23v2.74h-1.514V.768h2.08c.97 0 1.688.177 2.154.53.466.353.698.889.698 1.609 0 .42-.115.793-.347 1.12-.23.327-.558.584-.98.769 1.073 1.605 1.773 2.642 2.098 3.111h-1.679l-1.704-2.74h-.806zM630.51 3.405c-.316 0-.564.1-.743.3-.179.2-.28.485-.308.852h2.09c-.007-.367-.103-.652-.288-.852-.186-.2-.437-.3-.752-.3m.21 4.6c-.879 0-1.565-.243-2.06-.728-.496-.485-.743-1.172-.743-2.06 0-.915.23-1.623.686-2.122.458-.5 1.09-.75 1.897-.75.772 0 1.372.22 1.802.66.43.439.645 1.046.645 1.82v.724h-3.52c.016.423.141.753.375.99.234.239.563.357.986.357.33 0 .64-.034.933-.102.293-.07.6-.178.918-.327v1.152c-.26.13-.539.227-.835.29-.296.064-.657.096-1.084.096M636.263 6.818c.381 0 .66-.111.837-.332.178-.221.274-.597.291-1.128v-.161c0-.586-.09-1.006-.272-1.26-.179-.254-.473-.381-.88-.381-.332 0-.59.14-.774.423-.184.28-.276.69-.276 1.228 0 .537.093.94.278 1.208.186.269.451.403.796.403m-.522 1.187c-.642 0-1.145-.25-1.512-.748-.365-.498-.549-1.188-.549-2.07 0-.895.187-1.593.56-2.092.372-.5.885-.75 1.54-.75.686 0 1.211.267 1.572.8h.05c-.077-.406-.114-.77-.114-1.088V.309h1.495v7.598h-1.143l-.288-.708h-.064c-.338.537-.854.806-1.547.806M648.304 7.907L646.795 7.907 646.795 4.826 643.968 4.826 643.968 7.907 642.454 7.907 642.454.768 643.968.768 643.968 3.566 646.795 3.566 646.795.768 648.304.768zM652.758 5.378l-.576.02c-.433.013-.755.09-.967.234-.212.143-.317.36-.317.654 0 .42.241.63.722.63.345 0 .621-.1.827-.299.207-.197.311-.462.311-.79v-.45zm.44 2.529l-.289-.742h-.039c-.25.316-.508.534-.774.657-.265.122-.61.183-1.037.183-.525 0-.937-.15-1.239-.45-.3-.3-.45-.725-.45-1.28 0-.579.202-1.006.607-1.28.406-.276 1.016-.429 1.834-.458l.947-.029V4.27c0-.554-.283-.83-.85-.83-.436 0-.949.131-1.538.395l-.493-1.006c.628-.327 1.325-.492 2.09-.492.732 0 1.294.16 1.685.478.39.318.585.804.585 1.455v3.638h-1.04zM657.792 6.818c.26 0 .572-.057.937-.171v1.108c-.372.167-.827.25-1.368.25-.595 0-1.029-.151-1.3-.452-.273-.301-.409-.753-.409-1.355V3.566h-.713v-.63l.822-.498.428-1.152h.954v1.162h1.527v1.118h-1.527v2.632c0 .21.058.368.176.469.12.1.278.15.473.15M661.2 2.362h.089c.125 0 .215-.027.268-.081.055-.054.08-.144.08-.27 0-.122-.025-.21-.078-.261-.053-.051-.145-.077-.276-.077h-.083v.689zM662.297 2c0 .322-.136.543-.408.663l.675 1.138h-.723l-.507-.961h-.134v.96h-.651V1.196h.75c.344 0 .596.066.756.199.162.133.242.335.242.607zm-2.606.495c0 .31.078.6.234.869.156.269.368.48.637.635.27.155.559.233.867.233.31 0 .6-.08.869-.234.268-.156.48-.368.634-.637.156-.27.233-.56.233-.866 0-.311-.078-.601-.234-.87-.156-.268-.368-.48-.637-.635-.27-.154-.56-.232-.865-.232-.312 0-.602.078-.871.234-.268.156-.48.368-.634.638-.155.269-.233.558-.233.865zm-.403 0c0-.38.095-.736.284-1.068.19-.332.45-.593.783-.785.332-.192.69-.288 1.074-.288.378 0 .735.095 1.067.285.332.19.594.45.785.783.192.332.288.689.288 1.073 0 .374-.093.725-.276 1.053-.185.329-.443.59-.775.789-.332.197-.695.296-1.09.296-.393 0-.755-.1-1.087-.295-.332-.196-.591-.458-.776-.787-.185-.328-.277-.68-.277-1.056zM665.875 4.328c0 .797.15 1.398.453 1.802.303.404.755.605 1.359.605 1.207 0 1.81-.802 1.81-2.407 0-1.608-.6-2.412-1.801-2.412-.603 0-1.057.203-1.363.608-.305.405-.458 1.007-.458 1.804m5.21 0c0 1.182-.293 2.09-.88 2.725-.586.634-1.426.952-2.519.952-1.094 0-1.933-.318-2.52-.952-.586-.635-.879-1.547-.879-2.735s.294-2.095.882-2.722c.587-.626 1.43-.94 2.527-.94 1.096 0 1.937.316 2.516.947.582.632.873 1.54.873 2.725M674.804 3.537c-.368 0-.637.113-.806.339-.169.226-.256.6-.263 1.12v.162c0 .586.087 1.006.26 1.26.175.254.451.38.83.38.666 0 1-.55 1-1.65 0-.537-.083-.94-.248-1.208-.164-.27-.42-.403-.773-.403m.44 4.468c-.642 0-1.145-.233-1.509-.698h-.078c.051.455.078.719.078.79v2.212h-1.49V2.448h1.211l.21.708h.07c.347-.54.863-.81 1.547-.81.644 0 1.15.249 1.513.747.364.498.547 1.19.547 2.075 0 .582-.086 1.089-.256 1.518-.172.43-.415.757-.73.982-.316.224-.687.337-1.114.337M680.662 3.405c-.315 0-.563.1-.742.3-.18.2-.281.485-.308.852h2.09c-.007-.367-.103-.652-.288-.852-.186-.2-.437-.3-.752-.3m.21 4.6c-.88 0-1.565-.243-2.061-.728-.495-.485-.742-1.172-.742-2.06 0-.915.229-1.623.686-2.122.458-.5 1.09-.75 1.897-.75.772 0 1.372.22 1.802.66.43.439.645 1.046.645 1.82v.724h-3.521c.017.423.142.753.376.99.234.239.563.357.986.357.329 0 .64-.034.933-.102.293-.07.599-.178.918-.327v1.152c-.261.13-.54.227-.835.29-.296.064-.657.096-1.084.096M689.15 7.907h-1.488V4.719c0-.395-.071-.69-.21-.887-.14-.196-.364-.295-.67-.295-.416 0-.717.139-.902.417-.186.279-.28.74-.28 1.385v2.568h-1.488v-5.46h1.138l.2.699h.083c.166-.263.394-.463.686-.598.29-.135.622-.203.994-.203.634 0 1.116.172 1.445.516.329.343.493.838.493 1.486v3.56zM694.867 5.924c0 .645-.231 1.152-.696 1.523-.463.372-1.11.557-1.936.557-.762 0-1.435-.143-2.021-.43V6.168c.48.215.889.366 1.222.454.334.088.64.132.916.132.332 0 .587-.063.764-.19.178-.127.267-.316.267-.567 0-.14-.04-.264-.118-.373-.078-.109-.192-.214-.344-.315-.151-.1-.46-.262-.925-.484-.437-.205-.764-.4-.982-.59-.217-.189-.392-.409-.522-.66-.13-.25-.195-.543-.195-.879 0-.63.214-1.127.64-1.489.43-.36 1.022-.542 1.777-.542.37 0 .724.044 1.062.132.336.088.689.211 1.057.371l-.488 1.177c-.381-.156-.696-.265-.946-.327-.248-.062-.493-.093-.734-.093-.286 0-.506.067-.66.2-.153.133-.23.308-.23.523 0 .133.032.25.094.35.06.098.16.194.296.287.135.093.454.26.959.5.667.32 1.125.64 1.372.96.247.321.37.714.37 1.18M700.875 7.907h-1.489V4.719c0-.788-.293-1.182-.878-1.182-.418 0-.719.14-.904.425-.186.283-.279.742-.279 1.377v2.568h-1.489V.309h1.49v1.548c0 .12-.013.404-.034.85l-.034.439h.077c.332-.533.86-.801 1.582-.801.642 0 1.128.173 1.46.518.333.345.499.84.499 1.484v3.56zM702.117 7.907h1.489V2.448h-1.489v5.46zm-.064-6.87c0-.485.271-.728.811-.728s.81.243.81.728c0 .23-.067.411-.202.54-.136.128-.338.192-.608.192-.54 0-.811-.244-.811-.732zM707.93 3.566h-1.289v4.34h-1.489v-4.34h-.82v-.718l.82-.4v-.401c0-.621.153-1.075.46-1.362.304-.286.795-.43 1.468-.43.515 0 .972.077 1.372.23l-.38 1.094c-.3-.095-.577-.142-.83-.142-.212 0-.365.063-.459.188-.095.126-.142.286-.142.48v.343h1.29v1.118zM711.156 6.818c.26 0 .573-.057.937-.171v1.108c-.371.167-.827.25-1.367.25-.595 0-1.03-.151-1.301-.452-.272-.301-.408-.753-.408-1.355V3.566h-.713v-.63l.82-.498.43-1.152h.953v1.162h1.528v1.118h-1.528v2.632c0 .21.059.368.177.469.119.1.277.15.472.15M714.565 2.362h.089c.125 0 .215-.027.268-.081.055-.054.08-.144.08-.27 0-.122-.025-.21-.078-.261-.053-.051-.145-.077-.276-.077h-.083v.689zM715.662 2c0 .322-.136.543-.408.663l.675 1.138h-.723l-.507-.961h-.134v.96h-.651V1.196h.75c.344 0 .596.066.756.199.162.133.242.335.242.607zm-2.606.495c0 .31.078.6.234.869.156.269.368.48.637.635.27.155.559.233.867.233.31 0 .6-.08.869-.234.268-.156.48-.368.634-.637.156-.27.233-.56.233-.866 0-.311-.078-.601-.234-.87-.156-.268-.368-.48-.637-.635-.27-.154-.56-.232-.865-.232-.312 0-.602.078-.871.234-.268.156-.48.368-.634.638-.155.269-.233.558-.233.865zm-.403 0c0-.38.095-.736.284-1.068.19-.332.45-.593.783-.785.332-.192.69-.288 1.074-.288.378 0 .735.095 1.067.285.332.19.594.45.785.783.192.332.288.689.288 1.073 0 .374-.093.725-.276 1.053-.185.329-.443.59-.775.789-.332.197-.695.296-1.09.296-.393 0-.755-.1-1.087-.295-.332-.196-.591-.458-.776-.787-.185-.328-.277-.68-.277-1.056zM627.052 13.925c-.569 0-1.01.214-1.323.642-.313.428-.469 1.025-.469 1.79 0 1.591.598 2.387 1.792 2.387.501 0 1.108-.125 1.821-.376v1.27c-.586.244-1.24.366-1.963.366-1.038 0-1.833-.315-2.382-.945-.55-.63-.826-1.534-.826-2.712 0-.742.135-1.393.406-1.95.27-.559.658-.987 1.164-1.285.507-.298 1.1-.447 1.78-.447.693 0 1.39.168 2.09.503l-.488 1.231c-.267-.127-.536-.238-.806-.332-.27-.095-.535-.142-.796-.142M631.17 17.168c0 .54.088.948.266 1.226.176.276.465.415.866.415.397 0 .682-.139.856-.414.175-.274.262-.684.262-1.227 0-.541-.088-.947-.264-1.216-.175-.27-.464-.405-.864-.405-.397 0-.684.133-.859.402-.176.269-.264.676-.264 1.219m3.774 0c0 .889-.234 1.582-.703 2.085-.468.5-1.12.752-1.958.752-.524 0-.986-.115-1.386-.345-.4-.23-.708-.558-.923-.988-.215-.43-.323-.931-.323-1.505 0-.892.233-1.585.7-2.08.465-.495 1.12-.742 1.962-.742.524 0 .986.114 1.386.342.401.229.708.556.923.982.215.425.322.925.322 1.498M640.968 19.907h-1.489v-3.188c0-.395-.07-.69-.21-.887-.14-.196-.364-.295-.669-.295-.417 0-.718.139-.903.417-.186.279-.279.74-.279 1.385v2.568h-1.489v-5.46h1.138l.2.699h.083c.166-.263.394-.463.686-.598.291-.135.622-.203.994-.203.634 0 1.116.172 1.445.516.33.343.493.838.493 1.486v3.56zM644.515 18.818c.261 0 .573-.057.937-.171v1.108c-.37.167-.827.25-1.367.25-.595 0-1.029-.151-1.3-.452-.273-.301-.409-.753-.409-1.355v-2.632h-.713v-.63l.821-.498.43-1.152h.952v1.162h1.528v1.118h-1.528v2.632c0 .21.06.368.177.469.12.1.277.15.472.15M649.439 17.378l-.576.02c-.433.012-.755.09-.967.233-.212.143-.317.361-.317.654 0 .42.241.63.722.63.345 0 .621-.098.827-.297.207-.198.311-.462.311-.791v-.45zm.439 2.529l-.288-.742h-.039c-.251.316-.508.535-.774.657-.265.122-.61.183-1.037.183-.525 0-.937-.15-1.239-.45-.3-.3-.451-.726-.451-1.28 0-.578.203-1.005.608-1.28.406-.276 1.016-.428 1.834-.457l.947-.03v-.238c0-.554-.283-.83-.85-.83-.436 0-.949.13-1.538.395l-.493-1.007c.628-.327 1.325-.492 2.09-.492.732 0 1.294.16 1.685.479.39.318.585.803.585 1.455v3.637h-1.04zM652.166 19.907h1.489v-5.459h-1.489v5.46zm-.064-6.87c0-.485.271-.728.811-.728s.81.243.81.728c0 .23-.067.411-.202.54-.136.128-.338.192-.608.192-.54 0-.811-.244-.811-.732zM659.98 19.907h-1.489v-3.188c0-.395-.071-.69-.21-.887-.14-.196-.364-.295-.669-.295-.417 0-.718.139-.903.417-.186.279-.279.74-.279 1.385v2.568h-1.489v-5.46h1.138l.2.699h.083c.166-.263.394-.463.686-.598.291-.135.622-.203.994-.203.634 0 1.116.172 1.445.516.329.343.493.838.493 1.486v3.56zM663.532 15.405c-.315 0-.563.1-.742.3-.18.2-.281.485-.308.852h2.09c-.007-.367-.103-.652-.288-.852-.186-.2-.437-.3-.752-.3m.21 4.6c-.88 0-1.565-.243-2.061-.728-.495-.485-.742-1.172-.742-2.06 0-.915.229-1.623.686-2.122.458-.5 1.09-.75 1.897-.75.772 0 1.372.22 1.802.66.43.439.645 1.046.645 1.82v.724h-3.521c.017.423.142.753.376.99.234.239.563.357.986.357.329 0 .64-.034.933-.102.293-.07.599-.178.918-.327v1.152c-.261.13-.54.227-.835.29-.296.064-.657.096-1.084.096M670.03 14.345c.202 0 .369.015.503.044l-.112 1.396c-.12-.032-.267-.048-.44-.048-.475 0-.846.122-1.111.366s-.398.586-.398 1.025v2.78h-1.49v-5.46h1.129l.22.918h.073c.169-.307.397-.553.687-.74.287-.187.6-.28.939-.28M675.152 16.128h.498c.466 0 .814-.093 1.045-.277.23-.184.347-.452.347-.803 0-.354-.097-.617-.29-.786-.195-.17-.498-.254-.912-.254h-.688v2.12zm3.418-1.133c0 .768-.24 1.356-.721 1.763-.48.407-1.162.61-2.048.61h-.65v2.539h-1.513v-7.139h2.28c.867 0 1.525.186 1.976.56.45.372.676.928.676 1.667zM679.501 19.907L680.99 19.907 680.99 12.309 679.501 12.309zM685.316 17.378l-.576.02c-.433.012-.755.09-.967.233-.212.143-.317.361-.317.654 0 .42.24.63.722.63.345 0 .62-.098.827-.297.207-.198.31-.462.31-.791v-.45zm.439 2.529l-.288-.742h-.04c-.25.316-.507.535-.773.657-.265.122-.61.183-1.037.183-.525 0-.937-.15-1.24-.45-.3-.3-.45-.726-.45-1.28 0-.578.203-1.005.608-1.28.406-.276 1.016-.428 1.834-.457l.947-.03v-.238c0-.554-.283-.83-.85-.83-.436 0-.95.13-1.538.395l-.493-1.007c.628-.327 1.325-.492 2.09-.492.732 0 1.294.16 1.685.479.39.318.585.803.585 1.455v3.637h-1.04zM690.348 18.818c.261 0 .573-.057.937-.171v1.108c-.37.167-.827.25-1.367.25-.595 0-1.029-.151-1.3-.452-.273-.301-.409-.753-.409-1.355v-2.632h-.713v-.63l.821-.498.43-1.152h.952v1.162h1.528v1.118H689.7v2.632c0 .21.06.368.177.469.12.1.277.15.472.15M695.338 15.566h-1.289v4.34h-1.489v-4.34h-.82v-.718l.82-.4v-.401c0-.621.153-1.075.46-1.362.304-.286.795-.43 1.468-.43.515 0 .972.077 1.372.23l-.38 1.094c-.3-.095-.577-.142-.83-.142-.212 0-.365.063-.459.188-.095.126-.142.286-.142.48v.343h1.29v1.118zM697.206 17.168c0 .54.089.948.267 1.226.176.276.465.415.866.415.397 0 .682-.139.856-.414.175-.274.262-.684.262-1.227 0-.541-.088-.947-.264-1.216-.175-.27-.464-.405-.864-.405-.397 0-.684.133-.86.402-.175.269-.263.676-.263 1.219m3.774 0c0 .889-.234 1.582-.703 2.085-.468.5-1.121.752-1.958.752-.524 0-.986-.115-1.386-.345-.401-.23-.708-.558-.923-.988-.215-.43-.323-.931-.323-1.505 0-.892.233-1.585.699-2.08.466-.495 1.12-.742 1.963-.742.524 0 .986.114 1.386.342.4.229.708.556.923.982.215.425.322.925.322 1.498M705.012 14.345c.202 0 .37.015.503.044l-.112 1.396c-.12-.032-.267-.048-.44-.048-.475 0-.846.122-1.11.366-.266.244-.399.586-.399 1.025v2.78h-1.489v-5.46h1.128l.22.918h.073c.17-.307.397-.553.687-.74.287-.187.6-.28.94-.28M711.133 19.907h-1.489v-3.188c0-.395-.067-.69-.198-.887-.132-.196-.339-.295-.623-.295-.38 0-.657.14-.83.42-.173.28-.258.74-.258 1.382v2.568h-1.49v-5.46h1.138l.2.699h.083c.147-.25.36-.447.635-.588.276-.142.594-.213.952-.213.818 0 1.37.268 1.66.8h.132c.147-.253.362-.45.648-.59.284-.14.605-.21.963-.21.62 0 1.087.159 1.404.477.318.317.476.826.476 1.525v3.56h-1.494v-3.188c0-.395-.066-.69-.197-.887-.133-.196-.34-.295-.623-.295-.364 0-.637.13-.818.39-.18.26-.27.674-.27 1.24v2.74zM643.145 31.907L644.659 31.907 644.659 24.768 643.145 24.768zM651.119 31.907h-1.49v-3.188c0-.395-.07-.69-.21-.887-.14-.196-.363-.295-.668-.295-.417 0-.718.139-.903.417-.186.279-.28.74-.28 1.385v2.568h-1.488v-5.46h1.138l.2.699h.083c.166-.263.394-.463.686-.598.29-.135.622-.203.994-.203.634 0 1.116.172 1.445.516.329.343.493.838.493 1.486v3.56zM654.665 30.818c.262 0 .574-.057.938-.171v1.108c-.371.167-.827.25-1.367.25-.596 0-1.03-.151-1.302-.452-.271-.301-.407-.753-.407-1.355v-2.632h-.714v-.63l.822-.498.428-1.152h.953v1.162h1.529v1.118h-1.529v2.632c0 .21.06.368.178.469.119.1.277.15.471.15M658.702 27.405c-.315 0-.563.1-.742.3-.18.2-.281.485-.308.852h2.09c-.007-.367-.103-.652-.288-.852-.186-.2-.437-.3-.752-.3m.21 4.6c-.88 0-1.565-.243-2.061-.728-.495-.485-.742-1.172-.742-2.06 0-.915.229-1.623.686-2.122.458-.5 1.09-.75 1.897-.75.772 0 1.372.22 1.802.66.43.439.645 1.046.645 1.82v.724h-3.521c.017.423.142.753.376.99.234.239.563.357.986.357.329 0 .64-.034.933-.102.293-.07.599-.178.918-.327v1.152c-.261.13-.54.227-.835.29-.296.064-.657.096-1.084.096M663.244 28.235c0 .296.067.53.202.703.136.172.342.259.618.259.28 0 .486-.087.616-.26.129-.171.195-.406.195-.702 0-.658-.271-.986-.811-.986-.547 0-.82.328-.82.986zm-.542 4.443c0 .205.099.367.295.484.197.117.474.176.828.176.534 0 .952-.074 1.255-.22.303-.147.454-.347.454-.601 0-.205-.09-.346-.27-.425-.177-.078-.455-.117-.83-.117h-.77c-.274 0-.502.065-.687.193-.183.129-.275.299-.275.51zm4.214-6.23v.757l-.855.219c.157.245.235.518.235.82 0 .587-.204 1.043-.614 1.37-.408.328-.975.49-1.701.49l-.268-.014-.22-.024c-.153.117-.23.248-.23.39 0 .216.274.323.82.323h.929c.598 0 1.055.128 1.37.386.313.257.47.634.47 1.132 0 .639-.265 1.133-.798 1.485-.532.35-1.296.527-2.292.527-.762 0-1.344-.133-1.746-.398-.402-.265-.603-.637-.603-1.115 0-.33.102-.604.308-.826.205-.221.505-.38.903-.473-.153-.065-.286-.172-.401-.32-.114-.148-.17-.305-.17-.471 0-.21.06-.382.18-.52.12-.14.295-.275.523-.408-.286-.124-.514-.322-.681-.596-.168-.273-.252-.595-.252-.967 0-.595.193-1.056.58-1.381.389-.326.942-.49 1.66-.49.155 0 .336.015.545.043.21.028.345.048.404.06h1.904zM670.644 26.345c.202 0 .369.015.503.044l-.112 1.396c-.12-.032-.267-.048-.44-.048-.475 0-.846.122-1.111.366s-.398.586-.398 1.025v2.78h-1.489v-5.46h1.128l.22.918h.073c.169-.307.397-.553.687-.74.287-.187.6-.28.939-.28M674.823 29.378l-.576.02c-.433.012-.755.09-.967.233-.212.143-.317.361-.317.654 0 .42.24.63.722.63.345 0 .62-.098.827-.297.207-.198.31-.462.31-.791v-.45zm.439 2.529l-.288-.742h-.04c-.25.316-.507.535-.773.657-.265.122-.61.183-1.037.183-.525 0-.937-.15-1.24-.45-.3-.3-.45-.726-.45-1.28 0-.578.203-1.005.608-1.28.406-.276 1.016-.428 1.834-.457l.947-.03v-.238c0-.555-.283-.83-.85-.83-.436 0-.95.13-1.538.394l-.493-1.006c.628-.328 1.325-.492 2.09-.492.732 0 1.294.16 1.685.479.39.317.585.803.585 1.454v3.638h-1.04zM679.855 30.818c.261 0 .573-.057.937-.171v1.108c-.371.167-.827.25-1.367.25-.595 0-1.029-.151-1.301-.452-.272-.301-.408-.753-.408-1.355v-2.632h-.713v-.63l.821-.498.429-1.152h.953v1.162h1.528v1.118h-1.528v2.632c0 .21.059.368.177.469.119.1.277.15.472.15M681.634 31.907h1.489v-5.459h-1.489v5.46zm-.064-6.87c0-.485.27-.728.81-.728s.811.243.811.728c0 .23-.067.411-.202.54-.136.128-.338.192-.609.192-.54 0-.81-.244-.81-.732zM685.608 29.168c0 .54.089.948.267 1.226.176.276.465.415.866.415.397 0 .682-.139.856-.414.175-.274.262-.684.262-1.227 0-.541-.088-.947-.264-1.216-.175-.27-.464-.405-.864-.405-.397 0-.684.133-.86.402-.175.268-.263.675-.263 1.218m3.774 0c0 .89-.234 1.583-.703 2.085-.468.502-1.121.753-1.958.753-.524 0-.986-.116-1.386-.345-.401-.23-.708-.558-.923-.988-.215-.43-.323-.931-.323-1.505 0-.892.233-1.585.699-2.08.466-.494 1.12-.741 1.963-.741.524 0 .986.113 1.386.341.4.229.708.555.923.982.215.425.322.925.322 1.498M695.407 31.907h-1.49v-3.188c0-.395-.07-.69-.21-.887-.14-.196-.363-.295-.668-.295-.417 0-.718.139-.903.417-.186.279-.28.74-.28 1.385v2.568h-1.488v-5.46h1.138l.2.699h.083c.166-.263.394-.463.686-.598.29-.135.622-.203.994-.203.634 0 1.116.172 1.445.516.329.343.493.838.493 1.486v3.56z" mask="url(#9kdtt94fhs)"></path></g><path fill="#FFF" fill-rule="nonzero" d="M289.524 106c3.569 0 6.302-.904 8.2-2.712 1.897-1.807 2.845-4.42 2.845-7.837 0-3.22-.915-5.716-2.747-7.491-1.831-1.775-4.394-2.662-7.689-2.662h-6.4V106h5.791zm0-2.846h-2.407V88.13h2.931c4.635 0 6.953 2.478 6.953 7.434 0 5.06-2.492 7.59-7.477 7.59zm16.823-15.137c.585 0 1.04-.163 1.366-.489.326-.326.489-.772.489-1.338 0-.595-.163-1.053-.489-1.374-.326-.32-.781-.481-1.366-.481-.604 0-1.07.16-1.395.481-.326.321-.489.78-.489 1.374 0 .566.163 1.012.489 1.338.326.326.79.489 1.395.489zM307.989 106V90.339h-3.327V106h3.327zm8.553.283c1.199 0 2.18-.172 2.945-.517.765-.344 1.525-.993 2.28-1.947h.113l.666 2.181h2.379V95.45c0-1.859-.508-3.223-1.522-4.092-1.015-.868-2.519-1.302-4.51-1.302-.897 0-1.85.115-2.86.347-1.01.23-1.94.568-2.79 1.012l1.076 2.379c.68-.321 1.388-.6 2.124-.836.736-.236 1.506-.354 2.308-.354.982 0 1.706.248 2.174.744.467.496.7 1.244.7 2.244v.836l-2.704.085c-2.455.075-4.281.524-5.48 1.345-1.199.821-1.798 2.039-1.798 3.653 0 1.52.431 2.695 1.295 3.526.864.83 2.065 1.246 3.604 1.246zm1.048-2.549c-.83 0-1.454-.19-1.87-.573-.415-.382-.622-.923-.622-1.621 0-.963.356-1.678 1.069-2.146.712-.467 1.852-.729 3.42-.786l2.01-.085v1.36c0 1.218-.366 2.164-1.097 2.839-.732.675-1.702 1.012-2.91 1.012zM332.897 106v-7.802c0-1.945.3-3.335.9-4.17.599-.836 1.54-1.254 2.824-1.254.963 0 1.671.295 2.124.885.453.59.68 1.485.68 2.684V106h3.342v-8.298c0-1.67.3-2.91.899-3.717.6-.807 1.546-1.21 2.839-1.21.963 0 1.673.294 2.131.884.458.59.687 1.485.687 2.684V106h3.327V95.79c0-1.935-.427-3.374-1.281-4.318-.854-.944-2.216-1.416-4.085-1.416-1.086 0-2.049.217-2.889.651-.84.434-1.492 1.038-1.954 1.813h-.227c-.783-1.643-2.379-2.464-4.786-2.464-.991 0-1.9.203-2.726.609-.826.405-1.456.981-1.89 1.727h-.17l-.467-2.053h-2.606V106h3.328zm28.193.283c1.199 0 2.18-.172 2.945-.517.765-.344 1.525-.993 2.28-1.947h.113l.666 2.181h2.379V95.45c0-1.859-.508-3.223-1.523-4.092-1.014-.868-2.518-1.302-4.51-1.302-.896 0-1.85.115-2.86.347-1.01.23-1.94.568-2.79 1.012l1.077 2.379c.68-.321 1.387-.6 2.124-.836.736-.236 1.505-.354 2.308-.354.982 0 1.706.248 2.173.744.468.496.701 1.244.701 2.244v.836l-2.704.085c-2.455.075-4.281.524-5.48 1.345-1.2.821-1.799 2.039-1.799 3.653 0 1.52.432 2.695 1.296 3.526.864.83 2.065 1.246 3.604 1.246zm1.048-2.549c-.831 0-1.454-.19-1.87-.573-.415-.382-.622-.923-.622-1.621 0-.963.356-1.678 1.069-2.146.712-.467 1.852-.729 3.42-.786l2.01-.085v1.36c0 1.218-.366 2.164-1.097 2.839-.732.675-1.702 1.012-2.91 1.012zM377.445 106v-7.802c0-1.954.326-3.347.977-4.177.651-.831 1.68-1.247 3.087-1.247 1.057 0 1.829.298 2.315.893.486.594.73 1.496.73 2.704V106h3.341V95.79c0-3.823-1.879-5.734-5.636-5.734-1.057 0-2.02.203-2.888.609-.869.405-1.54.981-2.011 1.727h-.17l-.467-2.053h-2.606V106h3.328zm20.121.283c.623 0 1.225-.054 1.806-.163.58-.108 1.055-.243 1.423-.403v-2.507c-.812.255-1.624.383-2.436.383-.651 0-1.177-.191-1.578-.574-.402-.382-.602-.974-.602-1.777V92.86h4.46v-2.52h-4.46v-3.484h-2.054l-1.132 3.314-2.294 1.218v1.472h2.138v8.44c0 3.323 1.576 4.984 4.73 4.984zm8.043-18.266c.586 0 1.041-.163 1.367-.489.326-.326.488-.772.488-1.338 0-.595-.162-1.053-.488-1.374-.326-.32-.781-.481-1.367-.481-.604 0-1.069.16-1.394.481-.326.321-.489.78-.489 1.374 0 .566.163 1.012.489 1.338.325.326.79.489 1.394.489zM407.252 106V90.339h-3.328V106h3.328zm20.589.283c1.727 0 3.212-.309 4.453-.927 1.242-.619 2.19-1.501 2.846-2.648.656-1.147.985-2.485.985-4.015V85.298h-3.385v13.07c0 3.35-1.595 5.027-4.786 5.027-1.642 0-2.86-.406-3.653-1.218-.793-.812-1.19-2.072-1.19-3.781V85.298h-3.398v13.339c0 2.379.713 4.248 2.138 5.607 1.426 1.36 3.422 2.04 5.99 2.04zm16.553-.283V83.967h-3.328V106h3.328zm9.799.283c.623 0 1.225-.054 1.805-.163.58-.108 1.055-.243 1.423-.403v-2.507c-.811.255-1.623.383-2.435.383-.652 0-1.178-.191-1.579-.574-.401-.382-.602-.974-.602-1.777V92.86h4.46v-2.52h-4.46v-3.484h-2.053l-1.133 3.314-2.294 1.218v1.472h2.138v8.44c0 3.323 1.577 4.984 4.73 4.984zm8.043-18.266c.585 0 1.04-.163 1.366-.489.326-.326.489-.772.489-1.338 0-.595-.163-1.053-.489-1.374-.325-.32-.78-.481-1.366-.481-.604 0-1.07.16-1.395.481-.326.321-.488.78-.488 1.374 0 .566.162 1.012.488 1.338.326.326.79.489 1.395.489zM463.878 106V90.339h-3.327V106h3.327zm8.086 0v-7.802c0-1.945.3-3.335.899-4.17.6-.836 1.541-1.254 2.825-1.254.963 0 1.67.295 2.124.885.453.59.68 1.485.68 2.684V106h3.341v-8.298c0-1.67.3-2.91.9-3.717.6-.807 1.545-1.21 2.839-1.21.963 0 1.673.294 2.13.884.459.59.688 1.485.688 2.684V106h3.327V95.79c0-1.935-.427-3.374-1.281-4.318-.855-.944-2.216-1.416-4.085-1.416-1.086 0-2.049.217-2.89.651-.84.434-1.49 1.038-1.953 1.813h-.227c-.783-1.643-2.379-2.464-4.786-2.464-.991 0-1.9.203-2.726.609-.826.405-1.456.981-1.89 1.727h-.17l-.467-2.053h-2.606V106h3.328zm28.193.283c1.199 0 2.18-.172 2.945-.517.765-.344 1.525-.993 2.28-1.947h.113l.666 2.181h2.379V95.45c0-1.859-.508-3.223-1.523-4.092-1.014-.868-2.518-1.302-4.51-1.302-.896 0-1.85.115-2.86.347-1.01.23-1.94.568-2.79 1.012l1.077 2.379c.68-.321 1.387-.6 2.124-.836.736-.236 1.505-.354 2.308-.354.981 0 1.706.248 2.173.744.468.496.701 1.244.701 2.244v.836l-2.704.085c-2.455.075-4.281.524-5.48 1.345-1.2.821-1.799 2.039-1.799 3.653 0 1.52.432 2.695 1.296 3.526.864.83 2.065 1.246 3.604 1.246zm1.048-2.549c-.831 0-1.454-.19-1.87-.573-.415-.382-.623-.923-.623-1.621 0-.963.357-1.678 1.07-2.146.712-.467 1.852-.729 3.42-.786l2.01-.085v1.36c0 1.218-.366 2.164-1.097 2.839-.732.675-1.702 1.012-2.91 1.012z"></path></g></g></g></svg> 