<?xml version="1.0" encoding="UTF-8"?> <svg xmlns="http://www.w3.org/2000/svg" width="43" height="45" viewBox="0 0 43 45"><g fill="none" fill-rule="evenodd"><g fill="#007DB8" fill-rule="nonzero"><g><g><path d="M21.288 39.667c-5.075 0-9.671-2.058-12.999-5.388-3.33-3.322-5.386-7.92-5.386-12.997 0-5.073 2.057-9.668 5.386-12.992 3.328-3.325 7.924-5.387 13-5.387s9.675 2.062 12.998 5.387c3.328 3.324 5.38 7.919 5.38 12.992 0 5.077-2.052 9.675-5.38 12.997-3.323 3.33-7.922 5.388-12.999 5.388m-.002 2.903c11.754 0 21.284-9.531 21.284-21.288C42.57 9.53 33.04 0 21.286 0 9.534 0 0 9.53 0 21.282 0 33.04 9.534 42.57 21.286 42.57" transform="translate(-41 -45) translate(41 45) matrix(1 0 0 -1 0 44.003)"></path></g><g><path d="M5.805 4.838c0 1.234-.884 1.934-2.136 1.934h-.767v-3.87h.745c1.164 0 2.158.586 2.158 1.936m12.17-1.22L12.86 0 8.184 3.307C7.51 1.85 5.88.84 4.002.84H0v8.007h4.002c2.098 0 3.61-1.198 4.18-2.475l4.678 3.303 1.732-1.225-4.286-3.026.823-.58 4.286 3.025 1.734-1.22-4.285-3.03.822-.58 4.29 3.03v2.778h3.11v-5.67h3.102V.83h-6.212v2.789zm10.088-.386h2.897V.967h-5.805v7.74h2.908V3.232z" transform="translate(-41 -45) translate(41 45) matrix(1 0 0 -1 5.805 26.588)"></path></g></g></g></g></svg> 