<?xml version="1.0" encoding="UTF-8"?> <svg xmlns="http://www.w3.org/2000/svg" width="52" height="37" viewBox="0 0 52 37"><g fill="none" fill-rule="evenodd"><g><g transform="translate(-474 -21) translate(474 21)"><rect width="37" height="37" x="8" fill="#93D500" rx="4"></rect><g fill="#FFF" fill-rule="nonzero"><g><path d="M18.787 23.932H1.901C.85 23.932 0 24.774 0 25.806c0 1.033.851 1.875 1.9 1.875h16.887c1.05 0 1.9-.842 1.9-1.875 0-1.032-.85-1.874-1.9-1.874zM8.882 19.833c.807.743 2.116.743 2.924 0l5.848-5.382c.807-.744.807-1.948 0-2.691-.808-.744-2.117-.744-2.924 0l-2.319 2.133V1.903C12.411.85 11.486 0 10.344 0 9.202 0 8.276.851 8.276 1.902v11.991L5.958 11.76c-.808-.743-2.117-.743-2.924 0-.807.744-.807 1.948 0 2.692l5.848 5.382z" transform="translate(16 4)"></path></g></g></g></g></g></svg> 