<?xml version="1.0" encoding="UTF-8"?> <svg xmlns="http://www.w3.org/2000/svg" xmlns:xlink="http://www.w3.org/1999/xlink" width="325px" height="232px" viewBox="0 0 325 232" version="1.1"><title>Efficiency-Bar-chart</title><defs><linearGradient x1="0%" y1="50%" x2="92.33988%" y2="50%" id="linearGradient-1"><stop stop-color="#2492C3" offset="0%"></stop><stop stop-color="#0091FF" stop-opacity="0" offset="99.9656883%"></stop></linearGradient><linearGradient x1="40.0861035%" y1="57.775015%" x2="92.5928563%" y2="41.9058305%" id="linearGradient-2"><stop stop-color="#00804B" offset="0%"></stop><stop stop-color="#8EDF00" offset="100%"></stop></linearGradient></defs><g id="Hard-Problems-We-Solve" stroke="none" stroke-width="1" fill="none" fill-rule="evenodd"><g id="Problems-I/O-Performance-" transform="translate(-690.000000, -2603.000000)"><g id="Efficiency-Bar-chart" transform="translate(690.000000, 2603.000000)"><g id="Group-18" transform="translate(1.500000, 27.000000)"><rect id="Rectangle" fill="url(#linearGradient-1)" opacity="0.197870164" x="0" y="0" width="323" height="184"></rect><g id="Group-17" transform="translate(0.500000, 95.000000)"><rect id="Rectangle" fill="url(#linearGradient-2)" x="0" y="0" width="150" height="46" rx="2"></rect><path d="M27.3798828,29 C29.2744141,29 30.7233887,28.53125 31.7268066,27.59375 C32.7302246,26.65625 33.2319336,25.3061523 33.2319336,23.543457 C33.2319336,21.8881836 32.7485352,20.5991211 31.7817383,19.6762695 C30.8149414,18.753418 29.4575195,18.2919922 27.7094727,18.2919922 L27.7094727,18.2919922 L24.3476562,18.2919922 L24.3476562,29 L27.3798828,29 Z M27.5922852,27.125 L26.6181641,27.125 L26.6181641,20.1523438 L27.8266602,20.1523438 C29.8579102,20.1523438 30.8735352,21.3022461 30.8735352,23.6020508 C30.8735352,25.9506836 29.7797852,27.125 27.5922852,27.125 L27.5922852,27.125 Z M37.6062951,29 L37.6062951,18.2919922 L35.3357873,18.2919922 L35.3357873,29 L37.6062951,29 Z M41.2848558,29 L42.061223,26.4511719 L45.9650316,26.4511719 L46.7413987,29 L49.1876878,29 L45.3937425,18.2480469 L42.6178636,18.2480469 L38.8385667,29 L41.2848558,29 Z M45.4230394,24.546875 L42.632512,24.546875 C43.3942308,22.0810547 43.8556566,20.5356445 44.0167894,19.9106445 C44.0558519,20.0864258 44.1205491,20.3256836 44.2108812,20.628418 C44.3012132,20.9311523 44.7052659,22.2373047 45.4230394,24.546875 L45.4230394,24.546875 Z M52.448768,29 L52.4482244,23.9057484 C52.4427885,23.303503 52.396583,22.2012939 52.3096079,20.5991211 L52.3096079,20.5991211 L52.3755258,20.5991211 L54.9536508,29 L57.033729,29 L59.7949594,20.6137695 L59.8608774,20.6137695 C59.8022837,21.9614258 59.7693247,22.7915039 59.7620005,23.1040039 C59.7546762,23.4165039 59.7510141,23.6923828 59.7510141,23.9316406 L59.7510141,29 L61.8677133,29 L61.8677133,18.2919922 L58.776893,18.2919922 L56.0889047,26.4804688 L56.0449594,26.4804688 L53.5107797,18.2919922 L50.4199594,18.2919922 L50.4199594,29 L52.448768,29 Z M65.546274,29 L66.3226412,26.4511719 L70.2264498,26.4511719 L71.002817,29 L73.4491061,29 L69.6551608,18.2480469 L66.8792819,18.2480469 L63.099985,29 L65.546274,29 Z M69.6844576,24.546875 L66.8939303,24.546875 C67.655649,22.0810547 68.1170748,20.5356445 68.2782076,19.9106445 C68.3172701,20.0864258 68.3819674,20.3256836 68.4722994,20.628418 C68.5626315,20.9311523 68.9666842,22.2373047 69.6844576,24.546875 L69.6844576,24.546875 Z M76.7101863,29 L76.7101863,23.9609375 C76.7101863,23.3505859 76.6637996,22.3300781 76.5710261,20.8994141 L76.5710261,20.8994141 L76.6369441,20.8994141 L81.2951472,29 L84.1808894,29 L84.1808894,18.2919922 L82.1374324,18.2919922 L82.1374324,23.3603516 C82.1374324,23.9365234 82.1740535,24.9204102 82.2472957,26.3120117 L82.2472957,26.3120117 L82.1960261,26.3120117 L77.5451472,18.2919922 L74.6813777,18.2919922 L74.6813777,29 L76.7101863,29 Z M90.8916767,29 L90.8916767,20.1816406 L93.7993915,20.1816406 L93.7993915,18.2919922 L85.713454,18.2919922 L85.713454,20.1816406 L88.6211689,20.1816406 L88.6211689,29 L90.8916767,29 Z M97.6024639,29 L97.6024639,18.2919922 L95.3319561,18.2919922 L95.3319561,29 L97.6024639,29 Z" id="DIAMANTI" fill="#FFFFFF" fill-rule="nonzero"></path><polygon id="Fill-1" fill="#FEFEFE" points="131.829037 10 136.548546 15.729748 127.5 26.6350747 118.451785 15.7300705 120.344764 13.4488805 128.681039 13.4488805 130.401838 15.5958829 125.203942 21.8562527 127.429337 24.5380702 134.958125 15.4933067 130.344777 10 118.755007 10 114 15.7300705 127.5 32 141 15.7300705 136.244993 10"></polygon><path d="M20.9335938,66.1171875 C21.6484375,66.1171875 22.2626953,65.9892578 22.7763672,65.7333984 C23.2900391,65.4775391 23.6826172,65.1123047 23.9541016,64.6376953 C24.2255859,64.1630859 24.3613281,63.609375 24.3613281,62.9765625 L24.3613281,62.9765625 L24.3613281,57.4335938 L22.9609375,57.4335938 L22.9609375,62.8417969 C22.9609375,64.2285156 22.3007812,64.921875 20.9804688,64.921875 C20.3007812,64.921875 19.796875,64.7539062 19.46875,64.4179688 C19.140625,64.0820312 18.9765625,63.5605469 18.9765625,62.8535156 L18.9765625,62.8535156 L18.9765625,57.4335938 L17.5703125,57.4335938 L17.5703125,62.953125 C17.5703125,63.9375 17.8652344,64.7109375 18.4550781,65.2734375 C19.0449219,65.8359375 19.8710938,66.1171875 20.9335938,66.1171875 Z M27.7832031,68.8828125 L27.7832031,66.2285156 C27.7832031,66.1113281 27.7558594,65.7792969 27.7011719,65.2324219 L27.7011719,65.2324219 L27.7832031,65.2324219 C28.2363281,65.8222656 28.8730469,66.1171875 29.6933594,66.1171875 C30.5019531,66.1171875 31.1357422,65.8203125 31.5947266,65.2265625 C32.0537109,64.6328125 32.2832031,63.8066406 32.2832031,62.7480469 C32.2832031,61.6894531 32.0576172,60.8671875 31.6064453,60.28125 C31.1552734,59.6953125 30.5253906,59.4023438 29.7167969,59.4023438 C28.8574219,59.4023438 28.2128906,59.7304688 27.7832031,60.3867188 L27.7832031,60.3867188 L27.7128906,60.3867188 C27.6152344,59.9296875 27.5507812,59.640625 27.5195312,59.5195312 L27.5195312,59.5195312 L26.40625,59.5195312 L26.40625,68.8828125 L27.7832031,68.8828125 Z M29.3828125,64.9921875 C28.8164062,64.9921875 28.4082031,64.8154297 28.1582031,64.4619141 C27.9082031,64.1083984 27.7832031,63.5371094 27.7832031,62.7480469 L27.7832031,62.7480469 L27.7832031,62.5429688 C27.7832031,61.8398438 27.9091797,61.328125 28.1611328,61.0078125 C28.4130859,60.6875 28.8125,60.5273438 29.359375,60.5273438 C29.8554688,60.5273438 30.2314453,60.7138672 30.4873047,61.0869141 C30.7431641,61.4599609 30.8710938,62.0097656 30.8710938,62.7363281 C30.8710938,63.4589844 30.7421875,64.015625 30.484375,64.40625 C30.2265625,64.796875 29.859375,64.9921875 29.3828125,64.9921875 Z M39.0859375,66.1171875 C39.34375,66.1171875 39.5927734,66.0947266 39.8330078,66.0498047 C40.0732422,66.0048828 40.2695312,65.9492188 40.421875,65.8828125 L40.421875,65.8828125 L40.421875,64.8457031 C40.0859375,64.9511719 39.75,65.0039062 39.4140625,65.0039062 C39.1445312,65.0039062 38.9267578,64.9248047 38.7607422,64.7666016 C38.5947266,64.6083984 38.5117188,64.3632812 38.5117188,64.03125 L38.5117188,64.03125 L38.5117188,60.5625 L40.3574219,60.5625 L40.3574219,59.5195312 L38.5117188,59.5195312 L38.5117188,58.078125 L37.6621094,58.078125 L37.1933594,59.4492188 L36.2441406,59.953125 L36.2441406,60.5625 L37.1289062,60.5625 L37.1289062,64.0546875 C37.1289062,65.4296875 37.78125,66.1171875 39.0859375,66.1171875 Z M44.3828125,66.1171875 C45.3515625,66.1171875 46.1074219,65.8203125 46.6503906,65.2265625 C47.1933594,64.6328125 47.4648438,63.8066406 47.4648438,62.7480469 C47.4648438,61.7246094 47.1914062,60.9111328 46.6445312,60.3076172 C46.0976562,59.7041016 45.3554688,59.4023438 44.4179688,59.4023438 C43.4375,59.4023438 42.6777344,59.6972656 42.1386719,60.2871094 C41.5996094,60.8769531 41.3300781,61.6972656 41.3300781,62.7480469 C41.3300781,63.4238281 41.4550781,64.0175781 41.7050781,64.5292969 C41.9550781,65.0410156 42.3125,65.4335938 42.7773438,65.7070312 C43.2421875,65.9804688 43.7773438,66.1171875 44.3828125,66.1171875 Z M44.40625,64.9921875 C43.3007812,64.9921875 42.7480469,64.2441406 42.7480469,62.7480469 C42.7480469,62.0332031 42.8779297,61.484375 43.1376953,61.1015625 C43.3974609,60.71875 43.8164062,60.5273438 44.3945312,60.5273438 C45.4960938,60.5273438 46.046875,61.2675781 46.046875,62.7480469 C46.046875,64.2441406 45.5,64.9921875 44.40625,64.9921875 Z M54.1679688,66 L57.5371094,58.40625 L57.5371094,57.4453125 L51.6132812,57.4453125 L51.6132812,58.6582031 L56.0664062,58.6582031 L52.6796875,66 L54.1679688,66 Z M61.4511719,66.1171875 C62.4355469,66.1171875 63.1669922,65.7558594 63.6455078,65.0332031 C64.1240234,64.3105469 64.3632812,63.2050781 64.3632812,61.7167969 C64.3632812,60.2714844 64.1171875,59.1738281 63.625,58.4238281 C63.1328125,57.6738281 62.4082031,57.2988281 61.4511719,57.2988281 C60.4707031,57.2988281 59.7412109,57.6572266 59.2626953,58.3740234 C58.7841797,59.0908203 58.5449219,60.2050781 58.5449219,61.7167969 C58.5449219,63.1582031 58.7910156,64.2519531 59.2832031,64.9980469 C59.7753906,65.7441406 60.4980469,66.1171875 61.4511719,66.1171875 Z M61.4511719,64.96875 C60.9238281,64.96875 60.5400391,64.71875 60.2998047,64.21875 C60.0595703,63.71875 59.9394531,62.8847656 59.9394531,61.7167969 C59.9394531,60.5488281 60.0595703,59.7128906 60.2998047,59.2089844 C60.5400391,58.7050781 60.9238281,58.453125 61.4511719,58.453125 C61.9785156,58.453125 62.3642578,58.7099609 62.6083984,59.2236328 C62.8525391,59.7373047 62.9746094,60.5683594 62.9746094,61.7167969 C62.9746094,62.8691406 62.8525391,63.6992188 62.6083984,64.2070312 C62.3642578,64.7148438 61.9785156,64.96875 61.4511719,64.96875 Z M67.2402344,62.6894531 C67.8691406,62.6894531 68.3447266,62.4638672 68.6669922,62.0126953 C68.9892578,61.5615234 69.1503906,60.8867188 69.1503906,59.9882812 C69.1503906,59.1289062 68.9853516,58.4677734 68.6552734,58.0048828 C68.3251953,57.5419922 67.8535156,57.3105469 67.2402344,57.3105469 C65.9941406,57.3105469 65.3710938,58.203125 65.3710938,59.9882812 C65.3710938,60.8554688 65.5341797,61.5224609 65.8603516,61.9892578 C66.1865234,62.4560547 66.6464844,62.6894531 67.2402344,62.6894531 Z M68.2363281,66 L72.9882812,57.4335938 L71.8515625,57.4335938 L67.0996094,66 L68.2363281,66 Z M67.2402344,61.7285156 C66.9824219,61.7285156 66.796875,61.5859375 66.6835938,61.3007812 C66.5703125,61.015625 66.5136719,60.5820312 66.5136719,60 C66.5136719,59.4179688 66.5703125,58.984375 66.6835938,58.6992188 C66.796875,58.4140625 66.9824219,58.2714844 67.2402344,58.2714844 C67.7558594,58.2714844 68.0136719,58.8476562 68.0136719,60 C68.0136719,61.1523438 67.7558594,61.7285156 67.2402344,61.7285156 Z M72.8242188,66.1171875 C73.4453125,66.1171875 73.9179688,65.8925781 74.2421875,65.4433594 C74.5664062,64.9941406 74.7285156,64.3203125 74.7285156,63.421875 C74.7285156,62.5585938 74.5615234,61.8964844 74.2275391,61.4355469 C73.8935547,60.9746094 73.4257812,60.7441406 72.8242188,60.7441406 C71.5742188,60.7441406 70.9492188,61.6367188 70.9492188,63.421875 C70.9492188,64.2929688 71.1132812,64.9599609 71.4414062,65.4228516 C71.7695312,65.8857422 72.2304688,66.1171875 72.8242188,66.1171875 Z M72.8242188,65.1621094 C72.5664062,65.1621094 72.3798828,65.0175781 72.2646484,64.7285156 C72.1494141,64.4394531 72.0917969,64.0039062 72.0917969,63.421875 C72.0917969,62.8398438 72.1494141,62.4082031 72.2646484,62.1269531 C72.3798828,61.8457031 72.5664062,61.7050781 72.8242188,61.7050781 C73.3359375,61.7050781 73.5917969,62.2773438 73.5917969,63.421875 C73.5917969,64.5820312 73.3359375,65.1621094 72.8242188,65.1621094 Z M82.4277344,66 L82.4277344,58.6347656 L84.9472656,58.6347656 L84.9472656,57.4335938 L78.5078125,57.4335938 L78.5078125,58.6347656 L81.0273438,58.6347656 L81.0273438,66 L82.4277344,66 Z M89.734375,66.1171875 C90.5859375,66.1171875 91.3476562,65.9902344 92.0195312,65.7363281 L92.0195312,65.7363281 L92.0195312,64.5351562 C91.6523438,64.6484375 91.2988281,64.7412109 90.9589844,64.8134766 C90.6191406,64.8857422 90.2675781,64.921875 89.9042969,64.921875 C89.0644531,64.921875 88.4228516,64.6523438 87.9794922,64.1132812 C87.5361328,63.5742188 87.3144531,62.7792969 87.3144531,61.7285156 C87.3144531,60.7246094 87.5449219,59.9375 88.0058594,59.3671875 C88.4667969,58.796875 89.0996094,58.5117188 89.9042969,58.5117188 C90.2597656,58.5117188 90.5986328,58.5634766 90.9208984,58.6669922 C91.2431641,58.7705078 91.5488281,58.890625 91.8378906,59.0273438 L91.8378906,59.0273438 L92.3417969,57.8613281 C91.5996094,57.4941406 90.7910156,57.3105469 89.9160156,57.3105469 C89.0839844,57.3105469 88.359375,57.4882812 87.7421875,57.84375 C87.125,58.1992188 86.6533203,58.7109375 86.3271484,59.3789062 C86.0009766,60.046875 85.8378906,60.8261719 85.8378906,61.7167969 C85.8378906,63.1308594 86.1738281,64.2177734 86.8457031,64.9775391 C87.5175781,65.7373047 88.4804688,66.1171875 89.734375,66.1171875 Z M97.4628906,66.1171875 C98.7402344,66.1171875 99.7275391,65.7304688 100.424805,64.9570312 C101.12207,64.1835938 101.470703,63.0996094 101.470703,61.7050781 C101.470703,60.3066406 101.123047,59.2226562 100.427734,58.453125 C99.7324219,57.6835938 98.7480469,57.2988281 97.4746094,57.2988281 C96.1816406,57.2988281 95.1865234,57.6777344 94.4892578,58.4355469 C93.7919922,59.1933594 93.4433594,60.2792969 93.4433594,61.6933594 C93.4433594,63.1074219 93.7900391,64.1982422 94.4833984,64.9658203 C95.1767578,65.7333984 96.1699219,66.1171875 97.4628906,66.1171875 Z M97.4628906,64.921875 C96.6269531,64.921875 95.9960938,64.6494141 95.5703125,64.1044922 C95.1445312,63.5595703 94.9316406,62.7597656 94.9316406,61.7050781 C94.9316406,60.6542969 95.1455078,59.8574219 95.5732422,59.3144531 C96.0009766,58.7714844 96.6347656,58.5 97.4746094,58.5 C98.3066406,58.5 98.9326172,58.7714844 99.3525391,59.3144531 C99.7724609,59.8574219 99.9824219,60.6542969 99.9824219,61.7050781 C99.9824219,62.7714844 99.7705078,63.5742188 99.3466797,64.1132812 C98.9228516,64.6523438 98.2949219,64.921875 97.4628906,64.921875 Z M107.962891,66.1171875 C108.822266,66.1171875 109.482422,65.9482422 109.943359,65.6103516 C110.404297,65.2724609 110.634766,64.7871094 110.634766,64.1542969 C110.634766,63.8417969 110.576172,63.5732422 110.458984,63.3486328 C110.341797,63.1240234 110.162109,62.9257812 109.919922,62.7539062 C109.677734,62.5820312 109.289062,62.3925781 108.753906,62.1855469 C108.117188,61.9394531 107.704102,61.7460938 107.514648,61.6054688 C107.325195,61.4648438 107.230469,61.2929688 107.230469,61.0898438 C107.230469,60.6757812 107.59375,60.46875 108.320312,60.46875 C108.796875,60.46875 109.384766,60.6132812 110.083984,60.9023438 L110.083984,60.9023438 L110.529297,59.8652344 C109.849609,59.5566406 109.128906,59.4023438 108.367188,59.4023438 C107.597656,59.4023438 106.989258,59.5556641 106.541992,59.8623047 C106.094727,60.1689453 105.871094,60.5996094 105.871094,61.1542969 C105.871094,61.6152344 106.00293,61.9902344 106.266602,62.2792969 C106.530273,62.5683594 107.035156,62.8574219 107.78125,63.1464844 C108.164062,63.2949219 108.462891,63.4277344 108.677734,63.5449219 C108.892578,63.6621094 109.046875,63.7753906 109.140625,63.8847656 C109.234375,63.9941406 109.28125,64.1308594 109.28125,64.2949219 C109.28125,64.8066406 108.857422,65.0625 108.009766,65.0625 C107.353516,65.0625 106.644531,64.8867188 105.882812,64.5351562 L105.882812,64.5351562 L105.882812,65.7246094 C106.40625,65.9863281 107.099609,66.1171875 107.962891,66.1171875 Z M113.693359,66.1171875 C114.189453,66.1171875 114.595703,66.0458984 114.912109,65.9033203 C115.228516,65.7607422 115.542969,65.4921875 115.855469,65.0976562 L115.855469,65.0976562 L115.902344,65.0976562 L116.177734,66 L117.162109,66 L117.162109,61.6347656 C117.162109,60.8652344 116.952148,60.3007812 116.532227,59.9414062 C116.112305,59.5820312 115.490234,59.4023438 114.666016,59.4023438 C114.294922,59.4023438 113.900391,59.4501953 113.482422,59.5458984 C113.064453,59.6416016 112.679688,59.78125 112.328125,59.9648438 L112.328125,59.9648438 L112.773438,60.9492188 C113.054688,60.8164062 113.347656,60.7011719 113.652344,60.6035156 C113.957031,60.5058594 114.275391,60.4570312 114.607422,60.4570312 C115.013672,60.4570312 115.313477,60.5595703 115.506836,60.7646484 C115.700195,60.9697266 115.796875,61.2792969 115.796875,61.6933594 L115.796875,61.6933594 L115.796875,62.0390625 L114.677734,62.0742188 C113.662109,62.1054688 112.90625,62.2910156 112.410156,62.6308594 C111.914062,62.9707031 111.666016,63.4746094 111.666016,64.1425781 C111.666016,64.7714844 111.844727,65.2578125 112.202148,65.6015625 C112.55957,65.9453125 113.056641,66.1171875 113.693359,66.1171875 Z M114.126953,65.0625 C113.783203,65.0625 113.525391,64.9833984 113.353516,64.8251953 C113.181641,64.6669922 113.095703,64.4433594 113.095703,64.1542969 C113.095703,63.7558594 113.243164,63.4599609 113.538086,63.2666016 C113.833008,63.0732422 114.304688,62.9648438 114.953125,62.9414062 L114.953125,62.9414062 L115.785156,62.90625 L115.785156,63.46875 C115.785156,63.9726562 115.633789,64.3642578 115.331055,64.6435547 C115.02832,64.9228516 114.626953,65.0625 114.126953,65.0625 Z M122.048828,66 L124.521484,59.5195312 L123.056641,59.5195312 L121.738281,63.2871094 C121.5,64.0292969 121.363281,64.5410156 121.328125,64.8222656 L121.328125,64.8222656 L121.28125,64.8222656 C121.234375,64.4316406 121.097656,63.9199219 120.871094,63.2871094 L120.871094,63.2871094 L119.552734,59.5195312 L118.099609,59.5195312 L120.560547,66 L122.048828,66 Z M126.203125,58.5585938 C126.445312,58.5585938 126.633789,58.4912109 126.768555,58.3564453 C126.90332,58.2216797 126.970703,58.0371094 126.970703,57.8027344 C126.970703,57.5566406 126.90332,57.3671875 126.768555,57.234375 C126.633789,57.1015625 126.445312,57.0351562 126.203125,57.0351562 C125.953125,57.0351562 125.760742,57.1015625 125.625977,57.234375 C125.491211,57.3671875 125.423828,57.5566406 125.423828,57.8027344 C125.423828,58.0371094 125.491211,58.2216797 125.625977,58.3564453 C125.760742,58.4912109 125.953125,58.5585938 126.203125,58.5585938 Z M126.882812,66 L126.882812,59.5195312 L125.505859,59.5195312 L125.505859,66 L126.882812,66 Z M130.228516,66 L130.228516,62.7714844 C130.228516,61.9628906 130.363281,61.3867188 130.632812,61.0429688 C130.902344,60.6992188 131.328125,60.5273438 131.910156,60.5273438 C132.347656,60.5273438 132.666992,60.6503906 132.868164,60.8964844 C133.069336,61.1425781 133.169922,61.515625 133.169922,62.015625 L133.169922,62.015625 L133.169922,66 L134.552734,66 L134.552734,61.7753906 C134.552734,60.1933594 133.775391,59.4023438 132.220703,59.4023438 C131.783203,59.4023438 131.384766,59.4863281 131.025391,59.6542969 C130.666016,59.8222656 130.388672,60.0605469 130.193359,60.3691406 L130.193359,60.3691406 L130.123047,60.3691406 L129.929688,59.5195312 L128.851562,59.5195312 L128.851562,66 L130.228516,66 Z M138.337891,68.8828125 C139.482422,68.8828125 140.357422,68.6835938 140.962891,68.2851562 C141.568359,67.8867188 141.871094,67.3203125 141.871094,66.5859375 C141.871094,66.0117188 141.685547,65.5722656 141.314453,65.2675781 C140.943359,64.9628906 140.400391,64.8105469 139.685547,64.8105469 L139.685547,64.8105469 L138.554688,64.8105469 C138.183594,64.8105469 137.928711,64.7734375 137.790039,64.6992188 C137.651367,64.625 137.582031,64.5136719 137.582031,64.3652344 C137.582031,64.1191406 137.730469,63.9042969 138.027344,63.7207031 C138.195312,63.7519531 138.382812,63.7675781 138.589844,63.7675781 C139.398438,63.7675781 140.033203,63.5761719 140.494141,63.1933594 C140.955078,62.8105469 141.185547,62.2851562 141.185547,61.6171875 C141.185547,61.3945312 141.152344,61.1835938 141.085938,60.984375 C141.019531,60.7851562 140.935547,60.6171875 140.833984,60.4804688 L140.833984,60.4804688 L141.941406,60.2753906 L141.941406,59.5195312 L139.697266,59.5195312 C139.595703,59.4921875 139.444336,59.4658203 139.243164,59.4404297 C139.041992,59.4150391 138.849609,59.4023438 138.666016,59.4023438 C137.845703,59.4023438 137.213867,59.5957031 136.770508,59.9824219 C136.327148,60.3691406 136.105469,60.9140625 136.105469,61.6171875 C136.105469,62.0546875 136.209961,62.4365234 136.418945,62.7626953 C136.62793,63.0888672 136.900391,63.3242188 137.236328,63.46875 C136.966797,63.6328125 136.763672,63.7988281 136.626953,63.9667969 C136.490234,64.1347656 136.421875,64.3398438 136.421875,64.5820312 C136.421875,64.7734375 136.481445,64.9560547 136.600586,65.1298828 C136.719727,65.3037109 136.871094,65.4296875 137.054688,65.5078125 C136.601562,65.6132812 136.249023,65.8017578 135.99707,66.0732422 C135.745117,66.3447266 135.619141,66.6796875 135.619141,67.078125 C135.619141,67.65625 135.851562,68.1015625 136.316406,68.4140625 C136.78125,68.7265625 137.455078,68.8828125 138.337891,68.8828125 Z M138.654297,62.8828125 C138.263672,62.8828125 137.963867,62.7734375 137.754883,62.5546875 C137.545898,62.3359375 137.441406,62.0234375 137.441406,61.6171875 C137.441406,61.1835938 137.543945,60.8535156 137.749023,60.6269531 C137.954102,60.4003906 138.255859,60.2871094 138.654297,60.2871094 C139.056641,60.2871094 139.356445,60.4013672 139.553711,60.6298828 C139.750977,60.8583984 139.849609,61.1835938 139.849609,61.6054688 C139.849609,62.4570312 139.451172,62.8828125 138.654297,62.8828125 Z M138.378906,67.9335938 C137.894531,67.9335938 137.518555,67.8535156 137.250977,67.6933594 C136.983398,67.5332031 136.849609,67.3046875 136.849609,67.0078125 C136.849609,66.6914062 136.96582,66.4404297 137.198242,66.2548828 C137.430664,66.0693359 137.744141,65.9765625 138.138672,65.9765625 L138.138672,65.9765625 L139.181641,65.9765625 C139.728516,65.9765625 140.102539,66.0361328 140.303711,66.1552734 C140.504883,66.2744141 140.605469,66.4746094 140.605469,66.7558594 C140.605469,67.1113281 140.421875,67.3964844 140.054688,67.6113281 C139.6875,67.8261719 139.128906,67.9335938 138.378906,67.9335938 Z M144.824219,66.1171875 C145.683594,66.1171875 146.34375,65.9482422 146.804688,65.6103516 C147.265625,65.2724609 147.496094,64.7871094 147.496094,64.1542969 C147.496094,63.8417969 147.4375,63.5732422 147.320312,63.3486328 C147.203125,63.1240234 147.023438,62.9257812 146.78125,62.7539062 C146.539062,62.5820312 146.150391,62.3925781 145.615234,62.1855469 C144.978516,61.9394531 144.56543,61.7460938 144.375977,61.6054688 C144.186523,61.4648438 144.091797,61.2929688 144.091797,61.0898438 C144.091797,60.6757812 144.455078,60.46875 145.181641,60.46875 C145.658203,60.46875 146.246094,60.6132812 146.945312,60.9023438 L146.945312,60.9023438 L147.390625,59.8652344 C146.710938,59.5566406 145.990234,59.4023438 145.228516,59.4023438 C144.458984,59.4023438 143.850586,59.5556641 143.40332,59.8623047 C142.956055,60.1689453 142.732422,60.5996094 142.732422,61.1542969 C142.732422,61.6152344 142.864258,61.9902344 143.12793,62.2792969 C143.391602,62.5683594 143.896484,62.8574219 144.642578,63.1464844 C145.025391,63.2949219 145.324219,63.4277344 145.539062,63.5449219 C145.753906,63.6621094 145.908203,63.7753906 146.001953,63.8847656 C146.095703,63.9941406 146.142578,64.1308594 146.142578,64.2949219 C146.142578,64.8066406 145.71875,65.0625 144.871094,65.0625 C144.214844,65.0625 143.505859,64.8867188 142.744141,64.5351562 L142.744141,64.5351562 L142.744141,65.7246094 C143.267578,65.9863281 143.960938,66.1171875 144.824219,66.1171875 Z" id="Upto70%TCOsavings" fill="#024F71" fill-rule="nonzero"></path></g><g id="Group-16" transform="translate(0.500000, 29.000000)"><rect id="Rectangle-Copy-2" fill="#024F71" x="0" y="0" width="282" height="46" rx="2"></rect><path d="M30.9614258,29 L30.9614258,27.125 L26.6181641,27.125 L26.6181641,18.2919922 L24.3476562,18.2919922 L24.3476562,29 L30.9614258,29 Z M38.8733849,29 L38.8733849,27.125 L34.9769005,27.125 L34.9769005,24.3637695 L38.6023888,24.3637695 L38.6023888,22.503418 L34.9769005,22.503418 L34.9769005,20.1523438 L38.8733849,20.1523438 L38.8733849,18.2919922 L32.7063927,18.2919922 L32.7063927,29 L38.8733849,29 Z M45.4962816,29.1464844 C46.1310472,29.1464844 46.7523851,29.1013184 47.3602952,29.0109863 C47.9682054,28.9206543 48.6163987,28.7631836 49.3048753,28.5385742 L49.3048753,28.5385742 L49.3048753,22.9868164 L45.0568284,22.9868164 L45.0568284,24.8764648 L47.085637,24.8764648 L47.085637,27.1103516 C46.5973558,27.2080078 46.1163987,27.2568359 45.6427659,27.2568359 C44.7345628,27.2568359 44.0424241,26.9504395 43.5663499,26.3376465 C43.0902757,25.7248535 42.8522386,24.8374023 42.8522386,23.675293 C42.8522386,22.5620117 43.1476487,21.6757812 43.7384691,21.0166016 C44.3292894,20.3574219 45.1154222,20.027832 46.0968675,20.027832 C46.9415941,20.027832 47.7545823,20.2231445 48.5358323,20.6137695 L48.5358323,20.6137695 L49.2902269,18.7973633 C48.2697191,18.3579102 47.2101487,18.1381836 46.1115159,18.1381836 C44.3585862,18.1381836 42.9877366,18.621582 41.9989671,19.5883789 C41.0101976,20.5551758 40.5158128,21.902832 40.5158128,23.6313477 C40.5158128,25.4086914 40.9418382,26.7722168 41.793889,27.7219238 C42.6459398,28.6716309 43.8800706,29.1464844 45.4962816,29.1464844 Z M52.8369516,29 L53.6133188,26.4511719 L57.5171274,26.4511719 L58.2934946,29 L60.7397837,29 L56.9458383,18.2480469 L54.1699594,18.2480469 L50.3906626,29 L52.8369516,29 Z M56.9751352,24.546875 L54.1846079,24.546875 C54.9463266,22.0810547 55.4077524,20.5356445 55.5688852,19.9106445 C55.6079477,20.0864258 55.672645,20.3256836 55.762977,20.628418 C55.853309,20.9311523 56.2573618,22.2373047 56.9751352,24.546875 L56.9751352,24.546875 Z M66.3079928,29.1464844 C67.3919772,29.1464844 68.3734225,28.9633789 69.2523287,28.597168 L69.2523287,28.597168 L69.2523287,26.6928711 C68.1829928,27.0688477 67.2723483,27.2568359 66.5203951,27.2568359 C64.7284029,27.2568359 63.8324069,26.0629883 63.8324069,23.675293 C63.8324069,22.527832 64.0667819,21.6330566 64.5355319,20.9909668 C65.0042819,20.348877 65.6659029,20.027832 66.5203951,20.027832 C66.9110201,20.027832 67.3089694,20.0986328 67.7142428,20.2402344 C68.1195162,20.3818359 68.5223483,20.5478516 68.9227389,20.7382812 L68.9227389,20.7382812 L69.6551608,18.8925781 C68.6053561,18.3896484 67.5604342,18.1381836 66.5203951,18.1381836 C65.4998873,18.1381836 64.6099947,18.3615723 63.8507174,18.8083496 C63.0914401,19.255127 62.5091647,19.8972168 62.1038912,20.7346191 C61.6986178,21.5720215 61.4959811,22.5473633 61.4959811,23.6606445 C61.4959811,25.4282227 61.9085787,26.7844238 62.733774,27.729248 C63.5589694,28.6740723 64.7503756,29.1464844 66.3079928,29.1464844 Z M75.8752254,29 L75.8752254,24.8325195 L79.4274715,18.2919922 L76.9811824,18.2919922 L74.7472957,22.7011719 L72.5280574,18.2919922 L70.0671199,18.2919922 L73.619366,24.9057617 L73.619366,29 L75.8752254,29 Z M85.5394757,29 L86.3158428,26.4511719 L90.2196514,26.4511719 L90.9960186,29 L93.4423077,29 L89.6483624,18.2480469 L86.8724835,18.2480469 L83.0931866,29 L85.5394757,29 Z M89.6776593,24.546875 L86.8871319,24.546875 C87.6488507,22.0810547 88.1102764,20.5356445 88.2714093,19.9106445 C88.3104718,20.0864258 88.375169,20.3256836 88.4655011,20.628418 C88.5558331,20.9311523 88.9598858,22.2373047 89.6776593,24.546875 L89.6776593,24.546875 Z M96.9450871,29 L96.9450871,24.8911133 L98.1535832,24.8911133 L100.709736,29 L103.229267,29 C102.740986,28.296875 101.691181,26.7416992 100.079853,24.3344727 C100.714618,24.0561523 101.205341,23.6716309 101.552021,23.1809082 C101.8987,22.6901855 102.07204,22.1298828 102.07204,21.5 C102.07204,20.4208984 101.722919,19.6164551 101.024677,19.0866699 C100.326435,18.5568848 99.2497746,18.2919922 97.7946965,18.2919922 L97.7946965,18.2919922 L94.6745793,18.2919922 L94.6745793,29 L96.9450871,29 Z M97.677509,23.0454102 L96.9450871,23.0454102 L96.9450871,20.1523438 L97.6335637,20.1523438 C98.3659856,20.1523438 98.9067571,20.2597656 99.2558782,20.4746094 C99.6049992,20.6894531 99.7795598,21.0507812 99.7795598,21.5585938 C99.7795598,22.0712891 99.6086614,22.4472656 99.2668645,22.6865234 C98.9250676,22.9257812 98.3952825,23.0454102 97.677509,23.0454102 L97.677509,23.0454102 Z M108.797476,29.1464844 C109.88146,29.1464844 110.862906,28.9633789 111.741812,28.597168 L111.741812,28.597168 L111.741812,26.6928711 C110.672476,27.0688477 109.761831,27.2568359 109.009878,27.2568359 C107.217886,27.2568359 106.32189,26.0629883 106.32189,23.675293 C106.32189,22.527832 106.556265,21.6330566 107.025015,20.9909668 C107.493765,20.348877 108.155386,20.027832 109.009878,20.027832 C109.400503,20.027832 109.798453,20.0986328 110.203726,20.2402344 C110.608999,20.3818359 111.011831,20.5478516 111.412222,20.7382812 L111.412222,20.7382812 L112.144644,18.8925781 C111.094839,18.3896484 110.049917,18.1381836 109.009878,18.1381836 C107.98937,18.1381836 107.099478,18.3615723 106.340201,18.8083496 C105.580923,19.255127 104.998648,19.8972168 104.593374,20.7346191 C104.188101,21.5720215 103.985464,22.5473633 103.985464,23.6606445 C103.985464,25.4282227 104.398062,26.7844238 105.223257,27.729248 C106.048453,28.6740723 107.239859,29.1464844 108.797476,29.1464844 Z M116.174767,29 L116.174767,24.378418 L120.41549,24.378418 L120.41549,29 L122.678673,29 L122.678673,18.2919922 L120.41549,18.2919922 L120.41549,22.4887695 L116.174767,22.4887695 L116.174767,18.2919922 L113.904259,18.2919922 L113.904259,29 L116.174767,29 Z M127.536433,29 L127.536433,18.2919922 L125.265925,18.2919922 L125.265925,29 L127.536433,29 Z M134.247221,29 L134.247221,20.1816406 L137.154935,20.1816406 L137.154935,18.2919922 L129.068998,18.2919922 L129.068998,20.1816406 L131.976713,20.1816406 L131.976713,29 L134.247221,29 Z M144.854492,29 L144.854492,27.125 L140.958008,27.125 L140.958008,24.3637695 L144.583496,24.3637695 L144.583496,22.503418 L140.958008,22.503418 L140.958008,20.1523438 L144.854492,20.1523438 L144.854492,18.2919922 L138.6875,18.2919922 L138.6875,29 L144.854492,29 Z M151.308932,29.1464844 C152.392916,29.1464844 153.374361,28.9633789 154.253268,28.597168 L154.253268,28.597168 L154.253268,26.6928711 C153.183932,27.0688477 152.273287,27.2568359 151.521334,27.2568359 C149.729342,27.2568359 148.833346,26.0629883 148.833346,23.675293 C148.833346,22.527832 149.067721,21.6330566 149.536471,20.9909668 C150.005221,20.348877 150.666842,20.027832 151.521334,20.027832 C151.911959,20.027832 152.309908,20.0986328 152.715182,20.2402344 C153.120455,20.3818359 153.523287,20.5478516 153.923678,20.7382812 L153.923678,20.7382812 L154.6561,18.8925781 C153.606295,18.3896484 152.561373,18.1381836 151.521334,18.1381836 C150.500826,18.1381836 149.610934,18.3615723 148.851656,18.8083496 C148.092379,19.255127 147.510104,19.8972168 147.10483,20.7346191 C146.699557,21.5720215 146.49692,22.5473633 146.49692,23.6606445 C146.49692,25.4282227 146.909518,26.7844238 147.734713,27.729248 C148.559908,28.6740723 149.751315,29.1464844 151.308932,29.1464844 Z M160.546575,29 L160.546575,20.1816406 L163.454289,20.1816406 L163.454289,18.2919922 L155.368352,18.2919922 L155.368352,20.1816406 L158.276067,20.1816406 L158.276067,29 L160.546575,29 Z M169.264198,29.1464844 C170.177284,29.1464844 170.968299,28.987793 171.637245,28.6704102 C172.30619,28.3530273 172.817665,27.8964844 173.171668,27.3007812 C173.525672,26.7050781 173.702674,26.0117188 173.702674,25.2207031 L173.702674,25.2207031 L173.702674,18.2919922 L171.439491,18.2919922 L171.439491,24.8325195 C171.439491,25.6625977 171.272254,26.2717285 170.937782,26.6599121 C170.603309,27.0480957 170.064979,27.2421875 169.322791,27.2421875 C168.55619,27.2421875 168.006873,27.0493164 167.674842,26.6635742 C167.342811,26.277832 167.176795,25.6723633 167.176795,24.847168 L167.176795,24.847168 L167.176795,18.2919922 L164.913612,18.2919922 L164.913612,25.1914062 C164.913612,26.4169922 165.294471,27.3825684 166.05619,28.0881348 C166.817909,28.7937012 167.887245,29.1464844 169.264198,29.1464844 Z M178.479868,29 L178.479868,24.8911133 L179.688364,24.8911133 L182.244516,29 L184.764047,29 C184.275766,28.296875 183.225962,26.7416992 181.614633,24.3344727 C182.249399,24.0561523 182.740122,23.6716309 183.086801,23.1809082 C183.433481,22.6901855 183.606821,22.1298828 183.606821,21.5 C183.606821,20.4208984 183.2577,19.6164551 182.559458,19.0866699 C181.861215,18.5568848 180.784555,18.2919922 179.329477,18.2919922 L179.329477,18.2919922 L176.20936,18.2919922 L176.20936,29 L178.479868,29 Z M179.21229,23.0454102 L178.479868,23.0454102 L178.479868,20.1523438 L179.168344,20.1523438 C179.900766,20.1523438 180.441538,20.2597656 180.790659,20.4746094 C181.13978,20.6894531 181.31434,21.0507812 181.31434,21.5585938 C181.31434,22.0712891 181.143442,22.4472656 180.801645,22.6865234 C180.459848,22.9257812 179.930063,23.0454102 179.21229,23.0454102 L179.21229,23.0454102 Z M192.163311,29 L192.163311,27.125 L188.266827,27.125 L188.266827,24.3637695 L191.892315,24.3637695 L191.892315,22.503418 L188.266827,22.503418 L188.266827,20.1523438 L192.163311,20.1523438 L192.163311,18.2919922 L185.996319,18.2919922 L185.996319,29 L192.163311,29 Z M196.65486,29.1464844 C197.895095,29.1464844 198.863112,28.8681641 199.558913,28.3115234 C200.254714,27.7548828 200.602614,26.9931641 200.602614,26.0263672 C200.602614,25.328125 200.417067,24.7385254 200.045974,24.2575684 C199.67488,23.7766113 198.988845,23.296875 197.987868,22.8183594 C197.231032,22.4570312 196.751296,22.2067871 196.548659,22.067627 C196.346022,21.9284668 196.198317,21.7844238 196.105544,21.635498 C196.01277,21.4865723 195.966384,21.3120117 195.966384,21.1118164 C195.966384,20.7895508 196.08113,20.5283203 196.310622,20.328125 C196.540114,20.1279297 196.869704,20.027832 197.299392,20.027832 C197.66072,20.027832 198.028151,20.0742188 198.401686,20.1669922 C198.775222,20.2597656 199.247634,20.4233398 199.818923,20.6577148 L199.818923,20.6577148 L200.551345,18.8925781 C199.999587,18.6533203 199.471022,18.4677734 198.965651,18.3359375 C198.46028,18.2041016 197.929274,18.1381836 197.372634,18.1381836 C196.239821,18.1381836 195.35237,18.4091797 194.71028,18.9511719 C194.06819,19.4931641 193.747145,20.237793 193.747145,21.1850586 C193.747145,21.6879883 193.844802,22.1274414 194.040114,22.503418 C194.235427,22.8793945 194.496657,23.2089844 194.823806,23.4921875 C195.150954,23.7753906 195.641677,24.0708008 196.295974,24.378418 C196.994216,24.7104492 197.456862,24.9521484 197.683913,25.1035156 C197.910964,25.2548828 198.083083,25.4123535 198.20027,25.5759277 C198.317458,25.739502 198.376052,25.9262695 198.376052,26.1362305 C198.376052,26.512207 198.242995,26.7954102 197.976882,26.9858398 C197.710768,27.1762695 197.328688,27.2714844 196.830642,27.2714844 C196.415602,27.2714844 195.957839,27.2055664 195.457351,27.0737305 C194.956862,26.9418945 194.34529,26.7148438 193.622634,26.3925781 L193.622634,26.3925781 L193.622634,28.5019531 C194.50154,28.9316406 195.512282,29.1464844 196.65486,29.1464844 Z" id="LEGACYARCHITECTURES" fill="#FFFFFF" fill-rule="nonzero"></path><path d="M265.040039,65.6972656 L265.040039,64.4257812 C265.821289,64.3398438 266.418945,64.1132812 266.833008,63.7460938 C267.24707,63.3789062 267.454102,62.9121094 267.454102,62.3457031 C267.454102,61.8886719 267.311523,61.5019531 267.026367,61.1855469 C266.741211,60.8691406 266.227539,60.5683594 265.485352,60.2832031 L265.485352,60.2832031 L265.040039,60.1132812 L265.040039,57.9804688 C265.645508,58.0273438 266.254883,58.171875 266.868164,58.4140625 L266.868164,58.4140625 L267.295898,57.3417969 C266.584961,57.0488281 265.833008,56.8886719 265.040039,56.8613281 L265.040039,56.8613281 L265.040039,55.8945312 L264.260742,55.8945312 L264.260742,56.8789062 C263.541992,56.953125 262.972656,57.1640625 262.552734,57.5117188 C262.132812,57.859375 261.922852,58.3027344 261.922852,58.8417969 C261.922852,59.3457031 262.070312,59.7685547 262.365234,60.1103516 C262.660156,60.4521484 263.12793,60.7460938 263.768555,60.9921875 L263.768555,60.9921875 L264.260742,61.1738281 L264.260742,63.3652344 C263.905273,63.3613281 263.50293,63.3037109 263.053711,63.1923828 C262.604492,63.0810547 262.211914,62.9433594 261.875977,62.7792969 L261.875977,62.7792969 L261.875977,64.015625 C262.49707,64.296875 263.291992,64.4453125 264.260742,64.4609375 L264.260742,64.4609375 L264.260742,65.6972656 L265.040039,65.6972656 Z M264.260742,59.8261719 C263.897461,59.6816406 263.646484,59.5351562 263.507812,59.3867188 C263.369141,59.2382812 263.299805,59.0527344 263.299805,58.8300781 C263.299805,58.6152344 263.381836,58.4355469 263.545898,58.2910156 C263.709961,58.1464844 263.948242,58.0507812 264.260742,58.0039062 L264.260742,58.0039062 L264.260742,59.8261719 Z M265.040039,63.3183594 L265.040039,61.4492188 C265.411133,61.5859375 265.675781,61.7275391 265.833984,61.8740234 C265.992188,62.0205078 266.071289,62.2070312 266.071289,62.4335938 C266.071289,62.9179688 265.727539,63.2128906 265.040039,63.3183594 L265.040039,63.3183594 Z M271.889648,65.6972656 L271.889648,64.4257812 C272.670898,64.3398438 273.268555,64.1132812 273.682617,63.7460938 C274.09668,63.3789062 274.303711,62.9121094 274.303711,62.3457031 C274.303711,61.8886719 274.161133,61.5019531 273.875977,61.1855469 C273.59082,60.8691406 273.077148,60.5683594 272.334961,60.2832031 L272.334961,60.2832031 L271.889648,60.1132812 L271.889648,57.9804688 C272.495117,58.0273438 273.104492,58.171875 273.717773,58.4140625 L273.717773,58.4140625 L274.145508,57.3417969 C273.43457,57.0488281 272.682617,56.8886719 271.889648,56.8613281 L271.889648,56.8613281 L271.889648,55.8945312 L271.110352,55.8945312 L271.110352,56.8789062 C270.391602,56.953125 269.822266,57.1640625 269.402344,57.5117188 C268.982422,57.859375 268.772461,58.3027344 268.772461,58.8417969 C268.772461,59.3457031 268.919922,59.7685547 269.214844,60.1103516 C269.509766,60.4521484 269.977539,60.7460938 270.618164,60.9921875 L270.618164,60.9921875 L271.110352,61.1738281 L271.110352,63.3652344 C270.754883,63.3613281 270.352539,63.3037109 269.90332,63.1923828 C269.454102,63.0810547 269.061523,62.9433594 268.725586,62.7792969 L268.725586,62.7792969 L268.725586,64.015625 C269.34668,64.296875 270.141602,64.4453125 271.110352,64.4609375 L271.110352,64.4609375 L271.110352,65.6972656 L271.889648,65.6972656 Z M271.110352,59.8261719 C270.74707,59.6816406 270.496094,59.5351562 270.357422,59.3867188 C270.21875,59.2382812 270.149414,59.0527344 270.149414,58.8300781 C270.149414,58.6152344 270.231445,58.4355469 270.395508,58.2910156 C270.55957,58.1464844 270.797852,58.0507812 271.110352,58.0039062 L271.110352,58.0039062 L271.110352,59.8261719 Z M271.889648,63.3183594 L271.889648,61.4492188 C272.260742,61.5859375 272.525391,61.7275391 272.683594,61.8740234 C272.841797,62.0205078 272.920898,62.2070312 272.920898,62.4335938 C272.920898,62.9179688 272.577148,63.2128906 271.889648,63.3183594 L271.889648,63.3183594 Z M278.739258,65.6972656 L278.739258,64.4257812 C279.520508,64.3398438 280.118164,64.1132812 280.532227,63.7460938 C280.946289,63.3789062 281.15332,62.9121094 281.15332,62.3457031 C281.15332,61.8886719 281.010742,61.5019531 280.725586,61.1855469 C280.44043,60.8691406 279.926758,60.5683594 279.18457,60.2832031 L279.18457,60.2832031 L278.739258,60.1132812 L278.739258,57.9804688 C279.344727,58.0273438 279.954102,58.171875 280.567383,58.4140625 L280.567383,58.4140625 L280.995117,57.3417969 C280.28418,57.0488281 279.532227,56.8886719 278.739258,56.8613281 L278.739258,56.8613281 L278.739258,55.8945312 L277.959961,55.8945312 L277.959961,56.8789062 C277.241211,56.953125 276.671875,57.1640625 276.251953,57.5117188 C275.832031,57.859375 275.62207,58.3027344 275.62207,58.8417969 C275.62207,59.3457031 275.769531,59.7685547 276.064453,60.1103516 C276.359375,60.4521484 276.827148,60.7460938 277.467773,60.9921875 L277.467773,60.9921875 L277.959961,61.1738281 L277.959961,63.3652344 C277.604492,63.3613281 277.202148,63.3037109 276.75293,63.1923828 C276.303711,63.0810547 275.911133,62.9433594 275.575195,62.7792969 L275.575195,62.7792969 L275.575195,64.015625 C276.196289,64.296875 276.991211,64.4453125 277.959961,64.4609375 L277.959961,64.4609375 L277.959961,65.6972656 L278.739258,65.6972656 Z M277.959961,59.8261719 C277.59668,59.6816406 277.345703,59.5351562 277.207031,59.3867188 C277.068359,59.2382812 276.999023,59.0527344 276.999023,58.8300781 C276.999023,58.6152344 277.081055,58.4355469 277.245117,58.2910156 C277.40918,58.1464844 277.647461,58.0507812 277.959961,58.0039062 L277.959961,58.0039062 L277.959961,59.8261719 Z M278.739258,63.3183594 L278.739258,61.4492188 C279.110352,61.5859375 279.375,61.7275391 279.533203,61.8740234 C279.691406,62.0205078 279.770508,62.2070312 279.770508,62.4335938 C279.770508,62.9179688 279.426758,63.2128906 278.739258,63.3183594 L278.739258,63.3183594 Z" id="$$$" fill="#024F71" fill-rule="nonzero"></path></g></g><line x1="-114.5" y1="116" x2="116.5" y2="116" id="Path-3" stroke="#024F71" stroke-linecap="round" stroke-dasharray="1,3" transform="translate(1.000000, 116.000000) rotate(90.000000) translate(-1.000000, -116.000000) "></line></g></g></g></svg> 