<?xml version="1.0" encoding="UTF-8"?> <svg xmlns="http://www.w3.org/2000/svg" width="325" height="232" viewBox="0 0 325 232"><defs><linearGradient id="bi2t0x81aa" x1="0%" x2="92.34%" y1="50%" y2="50%"><stop offset="0%" stop-color="#2492C3"></stop><stop offset="99.966%" stop-color="#0091FF" stop-opacity="0"></stop></linearGradient><linearGradient id="6rhwkvqqeb" x1="40.086%" x2="92.593%" y1="57.775%" y2="41.906%"><stop offset="0%" stop-color="#00804B"></stop><stop offset="100%" stop-color="#8EDF00"></stop></linearGradient></defs><g fill="none" fill-rule="evenodd"><g><g><g><path fill="url(#bi2t0x81aa)" d="M0 0H323V184H0z" opacity=".198" transform="translate(-690 -2603) translate(690 2603) translate(1.5 27)"></path><g transform="translate(-690 -2603) translate(690 2603) translate(1.5 27) translate(.5 95)"><rect width="150" height="46" fill="url(#6rhwkvqqeb)" rx="2"></rect><text fill="#FFF" font-family="OpenSans-Bold, Open Sans" font-size="15" font-weight="bold" letter-spacing="-.115"><tspan x="23" y="29">DIAMANTI</tspan></text><path fill="#FEFEFE" d="M131.829 10L136.549 15.73 127.5 26.635 118.452 15.73 120.345 13.449 128.681 13.449 130.402 15.596 125.204 21.856 127.429 24.538 134.958 15.493 130.345 10 118.755 10 114 15.73 127.5 32 141 15.73 136.245 10z"></path><text fill="#024F71" font-family="OpenSans-Semibold, Open Sans" font-size="12" font-weight="500"><tspan x="16.516" y="66">Up to 70% TCO savings</tspan></text></g><g transform="translate(-690 -2603) translate(690 2603) translate(1.5 27) translate(.5 29)"><rect width="282" height="46" fill="#024F71" rx="2"></rect><text fill="#FFF" font-family="OpenSans-Bold, Open Sans" font-size="15" font-weight="bold" letter-spacing="-.115"><tspan x="23" y="29">LEGACY ARCHITECTURES</tspan></text><text fill="#024F71" font-family="OpenSans-Semibold, Open Sans" font-size="12" font-weight="500"><tspan x="261.226" y="65">$$$</tspan></text></g></g><path stroke="#024F71" stroke-dasharray="1 3" stroke-linecap="round" d="M-114.5 116L116.5 116" transform="translate(-690 -2603) translate(690 2603) rotate(90 1 116)"></path></g></g></g></svg> 