<?xml version="1.0" encoding="UTF-8"?> <svg xmlns="http://www.w3.org/2000/svg" xmlns:xlink="http://www.w3.org/1999/xlink" width="540" height="365" viewBox="0 0 540 365"><defs><filter id="v9ganezgob" width="152.8%" height="152.8%" x="-26.4%" y="-26.4%"><feGaussianBlur in="SourceGraphic" stdDeviation="31"></feGaussianBlur></filter><filter id="scepww6jpm" width="222.4%" height="222.4%" x="-61.2%" y="-61.2%"><feGaussianBlur in="SourceGraphic" stdDeviation="10"></feGaussianBlur></filter><filter id="6kv9hu2a1n" width="222.4%" height="222.4%" x="-61.2%" y="-61.2%"><feGaussianBlur in="SourceGraphic" stdDeviation="10"></feGaussianBlur></filter><filter id="74agzt8kio" width="222.4%" height="222.4%" x="-61.2%" y="-61.2%"><feGaussianBlur in="SourceGraphic" stdDeviation="10"></feGaussianBlur></filter><filter id="a19w5ncnyp"><feColorMatrix in="SourceGraphic" values="0 0 0 0 0.008870 0 0 0 0 0.310302 0 0 0 0 0.444577 0 0 0 1.000000 0"></feColorMatrix></filter><filter id="305jkf5imq"><feColorMatrix in="SourceGraphic" values="0 0 0 0 0.008870 0 0 0 0 0.310302 0 0 0 0 0.444577 0 0 0 1.000000 0"></feColorMatrix></filter><filter id="2vpfughohr"><feColorMatrix in="SourceGraphic" values="0 0 0 0 0.008870 0 0 0 0 0.310302 0 0 0 0 0.444577 0 0 0 1.000000 0"></feColorMatrix></filter><filter id="nbbpleftas" width="158.5%" height="158.5%" x="-29.3%" y="-29.3%"><feGaussianBlur in="SourceGraphic" stdDeviation="8"></feGaussianBlur></filter><filter id="afi5a4vcbt" width="158.5%" height="158.5%" x="-29.3%" y="-29.3%"><feGaussianBlur in="SourceGraphic" stdDeviation="8"></feGaussianBlur></filter><filter id="7c0yb1g7wu" width="158.5%" height="158.5%" x="-29.3%" y="-29.3%"><feGaussianBlur in="SourceGraphic" stdDeviation="8"></feGaussianBlur></filter><linearGradient id="ixdvy97nxf" x1="50.002%" x2="49.998%" y1="13.514%" y2="153.378%"><stop offset="0%" stop-color="#93D500"></stop><stop offset="100%" stop-color="#93D500" stop-opacity="0"></stop></linearGradient><linearGradient id="mvtt9oeekg" x1="50%" x2="50.001%" y1="50%" y2="79.197%"><stop offset="0%" stop-color="#93D500"></stop><stop offset="100%" stop-color="#93D500" stop-opacity="0"></stop></linearGradient><linearGradient id="gjrwiwie4h" x1="100%" x2="100%" y1="27.404%" y2="79.197%"><stop offset="0%" stop-color="#93D500"></stop><stop offset="100%" stop-color="#93D500" stop-opacity="0"></stop></linearGradient><linearGradient id="tg9r16vn3i" x1="49.999%" x2="50.001%" y1="21.109%" y2="61.67%"><stop offset="0%" stop-color="#93D500"></stop><stop offset="100%" stop-color="#93D500" stop-opacity="0"></stop></linearGradient><linearGradient id="ftn8ms94jj" x1="50.002%" x2="49.998%" y1="13.514%" y2="153.378%"><stop offset="0%" stop-color="#93D500"></stop><stop offset="100%" stop-color="#93D500" stop-opacity="0"></stop></linearGradient><path id="33151gftda" d="M0 0L540 0 540 304 0 304z"></path><path id="57lkqeu32d" d="M0 0H334V294H0z"></path><path id="njgb5g3l5k" d="M0 112.142L189.623 112.142 189.623 121 0 121z"></path></defs><g fill="none" fill-rule="evenodd"><g><g transform="translate(-530 -226) translate(530 226)"><g opacity=".423" transform="translate(0 17)"><mask id="esi5ax52vc" fill="#fff"><use xlink:href="#33151gftda"></use></mask><circle cx="270" cy="240" r="176" fill="#32C5FF" filter="url(#v9ganezgob)" mask="url(#esi5ax52vc)" opacity=".287"></circle></g><g transform="translate(103 27)"><mask id="dyyktu2dee" fill="#fff"><use xlink:href="#57lkqeu32d"></use></mask><g fill-rule="nonzero" mask="url(#dyyktu2dee)"><g><path fill="url(#ixdvy97nxf)" d="M183.501-4.06l1.307 2.325 9 16c.407.722.15 1.636-.572 2.042-.68.383-1.53.178-1.966-.45l-.076-.122L185 4.727V177c0 .828-.672 1.5-1.5 1.5-.78 0-1.42-.595-1.493-1.356L182 177V4.726l-6.193 11.01c-.382.679-1.215.946-1.913.636l-.13-.065c-.679-.382-.946-1.215-.636-1.913l.065-.13 9-16L183.5-4.06zM60.501-4.06l1.307 2.325 9 16c.407.722.15 1.636-.572 2.042-.68.383-1.53.178-1.966-.45l-.076-.122L62 4.727V177c0 .828-.672 1.5-1.5 1.5-.78 0-1.42-.595-1.493-1.356L59 177V4.726l-6.193 11.01c-.382.679-1.215.946-1.913.636l-.13-.065c-.679-.382-.946-1.215-.636-1.913l.065-.13 9-16L60.5-4.06z" transform="translate(30 15.658)"></path><path fill="url(#mvtt9oeekg)" d="M245.001-4.06l1.307 2.325 9 16c.407.722.15 1.636-.572 2.042-.68.383-1.53.178-1.966-.45l-.076-.122L246.5 4.727V294c0 .828-.672 1.5-1.5 1.5-.78 0-1.42-.595-1.493-1.356L243.5 294V4.726l-6.193 11.01c-.382.679-1.215.946-1.913.636l-.13-.065c-.679-.382-.946-1.215-.636-1.913l.065-.13 9-16L245-4.06z" transform="translate(30 15.658)"></path><path fill="url(#ixdvy97nxf)" d="M122.001-4.06l1.307 2.325 9 16c.407.722.15 1.636-.572 2.042-.68.383-1.53.178-1.966-.45l-.076-.122L123.5 4.727V177c0 .828-.672 1.5-1.5 1.5-.78 0-1.42-.595-1.493-1.356L120.5 177V4.726l-6.193 11.01c-.382.679-1.215.946-1.913.636l-.13-.065c-.679-.382-.946-1.215-.636-1.913l.065-.13 9-16L122-4.06z" transform="translate(30 15.658)"></path><path fill="url(#gjrwiwie4h)" d="M1.001-4.06l1.307 2.325 9 16c.407.722.15 1.636-.572 2.042-.68.383-1.53.178-1.966-.45l-.076-.122L2.5 4.727V294c0 .828-.672 1.5-1.5 1.5-.78 0-1.42-.595-1.493-1.356L-.5 294-.498 4.725l-6.194 11.01c-.382.68-1.215.947-1.913.637l-.13-.065c-.679-.382-.946-1.215-.636-1.913l.065-.13 9-16L1-4.06z" transform="translate(30 15.658)"></path><path fill="url(#tg9r16vn3i)" d="M276-4.06l1.307 2.325 9 16c.407.722.15 1.636-.572 2.042-.68.383-1.53.178-1.966-.45l-.076-.122L277.5 4.727V294c0 .828-.672 1.5-1.5 1.5-.78 0-1.42-.595-1.493-1.356L274.5 294V4.726l-6.193 11.01c-.382.679-1.215.946-1.913.636l-.13-.065c-.679-.382-.946-1.215-.636-1.913l.065-.13 9-16L276-4.06z" transform="translate(30 15.658)"></path><path fill="url(#ixdvy97nxf)" d="M153-4.06l1.307 2.325 9 16c.407.722.15 1.636-.572 2.042-.68.383-1.53.178-1.966-.45l-.076-.122L154.5 4.727V177c0 .828-.672 1.5-1.5 1.5-.78 0-1.42-.595-1.493-1.356L151.5 177V4.726l-6.193 11.01c-.382.679-1.215.946-1.913.636l-.13-.065c-.679-.382-.946-1.215-.636-1.913l.065-.13 9-16L153-4.06z" transform="translate(30 15.658)"></path><path fill="url(#mvtt9oeekg)" d="M30-4.06l1.307 2.325 9 16c.407.722.15 1.636-.572 2.042-.68.383-1.53.178-1.966-.45l-.076-.122L31.5 4.727V294c0 .828-.672 1.5-1.5 1.5-.78 0-1.42-.595-1.493-1.356L28.5 294V4.726l-6.193 11.01c-.382.679-1.215.946-1.913.636l-.13-.065c-.679-.382-.946-1.215-.636-1.913l.065-.13 9-16L30-4.06z" transform="translate(30 15.658)"></path><path fill="url(#ftn8ms94jj)" d="M214.5-4.06l1.307 2.325 9 16c.407.722.15 1.636-.572 2.042-.68.383-1.53.178-1.966-.45l-.076-.122L216 4.727v153.115c0 .829-.672 1.5-1.5 1.5-.78 0-1.42-.595-1.493-1.355l-.007-.145V4.726l-6.193 11.01c-.382.679-1.215.946-1.913.636l-.13-.065c-.679-.382-.946-1.215-.636-1.913l.065-.13 9-16L214.5-4.06z" transform="translate(30 15.658)"></path><path fill="url(#ixdvy97nxf)" d="M91.5-4.06l1.307 2.325 9 16c.407.722.15 1.636-.572 2.042-.68.383-1.53.178-1.966-.45l-.076-.122L93 4.727V177c0 .828-.672 1.5-1.5 1.5-.78 0-1.42-.595-1.493-1.356L90 177V4.726l-6.193 11.01c-.382.679-1.215.946-1.913.636l-.13-.065c-.679-.382-.946-1.215-.636-1.913l.065-.13 9-16L91.5-4.06z" transform="translate(30 15.658)"></path></g></g></g><path fill="#FFF" d="M188 200h163c3.314 0 6 2.686 6 6v101H182V206c0-3.314 2.686-6 6-6z"></path><g transform="translate(175 200)"><path fill="#024F71" stroke="#024F71" stroke-width=".5" d="M8.356 108V5.86c0-1.948 1.24-3.605 2.968-4.23.472-.17.98-.268 1.509-.268h163.334c2.468 0 4.477 2.018 4.477 4.498V108H182V5.86c0-1.174-.35-2.266-.944-3.183-1.04-1.61-2.84-2.677-4.889-2.677H12.833c-.163 0-.323.012-.481.023C9.358.271 7 2.791 7 5.86V108h1.356z"></path><rect width="149" height="89" x="20" y="11.5" fill="#2492C3" opacity=".278" rx="4"></rect><path fill="#024F71" stroke="#024F71" stroke-linecap="round" stroke-linejoin="round" stroke-width=".5" d="M.68 111.896h.68v-2.312c0-.509.427-.922.953-.922H187.312c.525 0 .951.413.951.922v2.312h.68c.378 0 .68.296.68.658v-2.97c0-.86-.5-1.605-1.236-1.982-.32-.164-.687-.258-1.075-.258h-185c-1.275 0-2.312 1.005-2.312 2.24v2.97c0-.362.304-.658.68-.658"></path><mask id="occphi1dxl" fill="#fff"><use xlink:href="#njgb5g3l5k"></use></mask><use stroke="#024F71" stroke-linecap="round" stroke-linejoin="round" stroke-width=".5" xlink:href="#njgb5g3l5k"></use><path fill="#024F71" stroke="#024F71" stroke-linecap="round" stroke-linejoin="round" stroke-width=".5" d="M1.36 113.514h186.903v5.153c0 .53-.426.96-.951.96H2.313c-.526 0-.953-.43-.953-.96v-5.153zM2.313 121H187.312c1.274 0 2.311-1.047 2.311-2.334v-3.545h-.679v-1.371h.68v-.924c0-.378-.303-.685-.68-.685H.68c-.376 0-.68.307-.68.685v5.84c0 1.287 1.037 2.334 2.313 2.334h0z" mask="url(#occphi1dxl)"></path></g><g transform="translate(205 232)"><circle cx="105.5" cy="24.5" r="24.5" fill="#FFF" filter="url(#scepww6jpm)"></circle><circle cx="64.5" cy="24.5" r="24.5" fill="#FFF" filter="url(#6kv9hu2a1n)"></circle><circle cx="24.5" cy="24.5" r="24.5" fill="#FFF" filter="url(#74agzt8kio)"></circle><g><g filter="url(#a19w5ncnyp)" transform="translate(7 9)"><g><g fill="#FFF" fill-rule="nonzero"><path d="M14.42.008c-.102.018-.2.054-.29.107L.505 7.635C.196 7.81 0 8.163 0 8.548c0 .386.196.738.506.914l3.61 1.997-3.61 1.987c-.31.175-.506.528-.506.914 0 .385.196.738.506.913l3.61 1.997-3.61 1.987c-.31.176-.506.528-.506.914 0 .385.196.738.506.913l13.623 7.52c.262.145.57.145.833 0l13.623-7.52c.31-.175.506-.528.506-.913 0-.386-.196-.738-.506-.914l-3.61-1.987 3.61-1.997c.31-.175.506-.528.506-.913 0-.386-.196-.739-.506-.914l-3.61-1.987 3.61-1.997c.31-.176.506-.528.506-.914 0-.385-.196-.738-.506-.913L14.962.115c-.167-.096-.356-.133-.542-.107zM6.186 12.602l7.943 4.38c.262.145.57.145.833 0l7.943-4.38 3.193 1.763-11.553 6.366-11.552-6.366 3.193-1.763zm0 5.811l7.943 4.38c.262.145.57.145.833 0l7.943-4.38 3.193 1.763-11.553 6.367-11.552-6.367 3.193-1.763z" transform="translate(82) translate(1.455 1.455)"></path></g></g></g><g filter="url(#305jkf5imq)" transform="translate(7 9)"><g><g fill="#FFF" fill-rule="nonzero"><path d="M14.42.008c-.102.018-.2.054-.29.107L.505 7.635C.196 7.81 0 8.163 0 8.548c0 .386.196.738.506.914l3.61 1.997-3.61 1.987c-.31.175-.506.528-.506.914 0 .385.196.738.506.913l3.61 1.997-3.61 1.987c-.31.176-.506.528-.506.914 0 .385.196.738.506.913l13.623 7.52c.262.145.57.145.833 0l13.623-7.52c.31-.175.506-.528.506-.913 0-.386-.196-.738-.506-.914l-3.61-1.987 3.61-1.997c.31-.175.506-.528.506-.913 0-.386-.196-.739-.506-.914l-3.61-1.987 3.61-1.997c.31-.176.506-.528.506-.914 0-.385-.196-.738-.506-.913L14.962.115c-.167-.096-.356-.133-.542-.107zM6.186 12.602l7.943 4.38c.262.145.57.145.833 0l7.943-4.38 3.193 1.763-11.553 6.366-11.552-6.366 3.193-1.763zm0 5.811l7.943 4.38c.262.145.57.145.833 0l7.943-4.38 3.193 1.763-11.553 6.367-11.552-6.367 3.193-1.763z" transform="translate(41) translate(1.455 1.455)"></path></g></g></g><g filter="url(#2vpfughohr)" transform="translate(7 9)"><g fill="#FFF" fill-rule="nonzero"><path d="M14.42.008c-.102.018-.2.054-.29.107L.505 7.635C.196 7.81 0 8.163 0 8.548c0 .386.196.738.506.914l3.61 1.997-3.61 1.987c-.31.175-.506.528-.506.914 0 .385.196.738.506.913l3.61 1.997-3.61 1.987c-.31.176-.506.528-.506.914 0 .385.196.738.506.913l13.623 7.52c.262.145.57.145.833 0l13.623-7.52c.31-.175.506-.528.506-.913 0-.386-.196-.738-.506-.914l-3.61-1.987 3.61-1.997c.31-.175.506-.528.506-.913 0-.386-.196-.739-.506-.914l-3.61-1.987 3.61-1.997c.31-.176.506-.528.506-.914 0-.385-.196-.738-.506-.913L14.962.115c-.167-.096-.356-.133-.542-.107zM6.186 12.602l7.943 4.38c.262.145.57.145.833 0l7.943-4.38 3.193 1.763-11.553 6.366-11.552-6.366 3.193-1.763zm0 5.811l7.943 4.38c.262.145.57.145.833 0l7.943-4.38 3.193 1.763-11.553 6.367-11.552-6.367 3.193-1.763z" transform="translate(1.455 1.455)"></path></g></g></g></g><circle cx="335" cy="119" r="41" fill="#FFF" filter="url(#nbbpleftas)"></circle><circle cx="271" cy="94" r="41" fill="#FFF" filter="url(#afi5a4vcbt)"></circle><circle cx="208" cy="118" r="41" fill="#FFF" filter="url(#7c0yb1g7wu)"></circle><g fill="#024F71"><path d="M17.513 40.809L19.373 40.809 19.373 38.947 17.513 38.947zM21.232 40.809L23.092 40.809 23.092 38.947 21.232 38.947zM24.949 40.809L26.808 40.809 26.808 38.947 24.949 38.947zM28.667 40.809L30.527 40.809 30.527 38.947 28.667 38.947zM32.385 40.809L34.245 40.809 34.245 38.947 32.385 38.947zM25.88 8.227c-9.742 0-17.66 7.93-17.66 17.687 0 2.439.493 4.77 1.387 6.887l1.714-.726c-.799-1.893-1.242-3.973-1.242-6.16 0-8.75 7.063-15.825 15.8-15.825 8.739 0 15.8 7.074 15.8 15.824 0 2.188-.441 4.268-1.24 6.161l1.712.726c.896-2.116 1.387-4.447 1.387-6.887 0-9.757-7.916-17.687-17.658-17.687" transform="translate(245 69)"></path><path d="M28.203 25.916c0 1.286-1.04 2.328-2.324 2.328-1.282 0-2.323-1.042-2.323-2.328 0-1.286 1.041-2.327 2.323-2.327 1.284 0 2.324 1.041 2.324 2.327" transform="translate(245 69)"></path><path d="M36.313 16.783L27.92 25.189 26.606 23.871 34.999 15.465z" transform="translate(245 69)"></path><path d="M25.877 2.622c-12.825 0-23.257 10.45-23.257 23.294 0 12.845 10.432 23.294 23.257 23.294 12.825 0 23.257-10.45 23.257-23.294 0-12.844-10.432-23.294-23.257-23.294m0 49.21C11.607 51.833 0 40.208 0 25.917 0 11.626 11.608 0 25.877 0c14.269 0 25.877 11.626 25.877 25.916 0 14.29-11.608 25.917-25.877 25.917" transform="translate(245 69)"></path></g><g fill="#024F71"><path d="M11.737 39.016H3.483v8.267h2.358v-4.589l1.7 1.705c5.07 5.077 11.724 7.617 18.373 7.617 6.623 0 13.242-2.522 18.275-7.564 7.618-7.63 9.765-19.281 5.343-28.994l-2.146.98c4.016 8.82 2.062 19.408-4.864 26.344-9.17 9.184-24.113 9.16-33.314-.054l-1.347-1.35h3.876v-2.362zM9.286 9.234c9.17-9.185 24.113-9.16 33.313.052l1.383 1.385h-3.945v2.363h8.255V4.768h-2.36v4.517l-1.665-1.669C34.147-2.518 17.707-2.542 7.618 7.564.001 15.19-2.145 26.844 2.275 36.557l2.146-.98C.406 26.755 2.361 16.168 9.286 9.233" transform="translate(309 93)"></path><path d="M16.453 36.654v-4.107c2.299 1.185 5.945 1.745 9.433 1.745 3.488 0 7.136-.56 9.435-1.745v4.107c0 .607-3.244 2.362-9.435 2.362-6.189 0-9.433-1.755-9.433-2.362zm0-11.192c2.299 1.183 5.945 1.744 9.433 1.744 3.488 0 7.136-.56 9.435-1.744v4.105c0 .608-3.244 2.364-9.435 2.364-6.189 0-9.433-1.756-9.433-2.364v-4.105zm0-7.086c2.299 1.184 5.945 1.745 9.433 1.745 3.488 0 7.136-.56 9.435-1.745v4.106c0 .606-3.244 2.363-9.435 2.363-6.189 0-9.433-1.757-9.433-2.363v-4.106zm9.433-5.342c6.19 0 9.435 1.755 9.435 2.361 0 .607-3.244 2.363-9.435 2.363-6.189 0-9.433-1.756-9.433-2.363 0-.606 3.244-2.36 9.433-2.36zm11.792 23.62V15.395c0-3.244-6.112-4.723-11.792-4.723-5.678 0-11.79 1.48-11.79 4.723v21.259c0 3.245 6.112 4.723 11.79 4.723 5.68 0 11.792-1.478 11.792-4.723z" transform="translate(309 93)"></path></g><g fill="#024F71"><g><path d="M47.83 51.697c0 .66-.538 1.197-1.195 1.197H3.587c-.659 0-1.195-.537-1.195-1.197V26.146c0-.662.536-1.2 1.195-1.2h43.048c.657 0 1.195.538 1.195 1.2v25.551zM10.958 16.57c0-7.816 6.35-14.174 14.152-14.174 7.8 0 14.148 6.358 14.148 14.174v5.981h-28.3V16.57zm35.677 5.981H41.65V16.57C41.65 7.434 34.23 0 25.11 0 15.988 0 8.566 7.434 8.566 16.57v5.981H3.587C1.608 22.551 0 24.164 0 26.146v25.551c0 1.98 1.608 3.593 3.587 3.593h43.048c1.977 0 3.585-1.612 3.585-3.593V26.146c0-1.982-1.608-3.595-3.585-3.595z" transform="translate(183 84) translate(.043 .303)"></path><path d="M26.918 39.048l-.617.342v5.122H23.91v-5.128l-.619-.342c-1.213-.67-1.967-1.936-1.967-3.302 0-2.092 1.7-3.793 3.787-3.793 2.085 0 3.783 1.7 3.783 3.793 0 1.364-.756 2.633-1.975 3.308M25.11 29.55c-3.407 0-6.18 2.776-6.18 6.189 0 1.997.977 3.857 2.589 5.01v6.156h7.174v-6.152c1.614-1.158 2.592-3.02 2.592-5.014 0-3.413-2.77-6.189-6.175-6.189" transform="translate(183 84) translate(.043 .303)"></path></g></g><g stroke="#024F71" stroke-dasharray="1 4" stroke-linecap="round" stroke-width="2"><path d="M128 81L128 24M1 82L1 21M64 82L64 0" transform="translate(207 118)"></path></g></g></g></g></svg> 