<?xml version="1.0" encoding="UTF-8"?> <svg xmlns="http://www.w3.org/2000/svg" xmlns:xlink="http://www.w3.org/1999/xlink" width="398px" height="339px" viewBox="0 0 398 339" version="1.1"><title>High-Performance-Storage-Diagram</title><defs><rect id="path-1" x="19" y="211" width="360" height="91" rx="4"></rect><filter x="-2.5%" y="-9.9%" width="105.0%" height="119.8%" id="filter-2"><feOffset dx="0" dy="0" in="SourceAlpha" result="shadowOffsetOuter1"></feOffset><feGaussianBlur stdDeviation="3" in="shadowOffsetOuter1" result="shadowBlurOuter1"></feGaussianBlur><feColorMatrix values="0 0 0 0 0 0 0 0 0 0 0 0 0 0 0 0 0 0 0.0371503497 0" type="matrix" in="shadowBlurOuter1"></feColorMatrix></filter><linearGradient x1="64.687495%" y1="0%" x2="64.6875%" y2="99.9343007%" id="linearGradient-3"><stop stop-color="#4AC4E3" offset="0%"></stop><stop stop-color="#4AC4E3" offset="33.0754914%"></stop><stop stop-color="#4AC4E3" offset="51.4768346%"></stop><stop stop-color="#2492C3" offset="100%"></stop></linearGradient><linearGradient x1="45.3910379%" y1="100%" x2="56.377551%" y2="-27.6675078%" id="linearGradient-4"><stop stop-color="#00597E" offset="0%"></stop><stop stop-color="#009ECD" offset="100%"></stop></linearGradient><radialGradient cx="30.1049963%" cy="44.385832%" fx="30.1049963%" fy="44.385832%" r="112.121627%" gradientTransform="translate(0.301050,0.443858),scale(0.518625,1.000000),translate(-0.301050,-0.443858)" id="radialGradient-5"><stop stop-color="#5F758B" offset="0%"></stop><stop stop-color="#363D45" offset="99.9672203%"></stop></radialGradient><radialGradient cx="83.2911841%" cy="18.5055125%" fx="83.2911841%" fy="18.5055125%" r="99.3805635%" gradientTransform="translate(0.832912,0.185055),scale(0.938788,1.000000),translate(-0.832912,-0.185055)" id="radialGradient-6"><stop stop-color="#FFF000" offset="0%"></stop><stop stop-color="#F5911E" offset="100%"></stop></radialGradient><radialGradient cx="-7.9754902%" cy="-198.735294%" fx="-7.9754902%" fy="-198.735294%" r="596.77451%" id="radialGradient-7"><stop stop-color="#FFF000" offset="0%"></stop><stop stop-color="#F5911E" offset="100%"></stop></radialGradient><linearGradient x1="49.9983963%" y1="153.055121%" x2="49.9983963%" y2="-36.896339%" id="linearGradient-8"><stop stop-color="#D1E1D7" offset="0%"></stop><stop stop-color="#00B0AD" offset="100%"></stop></linearGradient><linearGradient x1="49.9869446%" y1="187.700867%" x2="49.9869446%" y2="43.3632883%" id="linearGradient-9"><stop stop-color="#D1E1D7" offset="0%"></stop><stop stop-color="#00B0AD" offset="100%"></stop></linearGradient><linearGradient x1="50.1111111%" y1="290.552111%" x2="50.1111111%" y2="-14.0468338%" id="linearGradient-10"><stop stop-color="#D1E1D7" offset="0%"></stop><stop stop-color="#00B0AD" offset="100%"></stop></linearGradient><linearGradient x1="83.0567458%" y1="50%" x2="0%" y2="50%" id="linearGradient-11"><stop stop-color="#FFFFFF" offset="0%"></stop><stop stop-color="#FFFFFF" stop-opacity="0" offset="100%"></stop></linearGradient><linearGradient x1="83.0567458%" y1="50%" x2="0%" y2="50%" id="linearGradient-12"><stop stop-color="#93D500" offset="0%"></stop><stop stop-color="#93D500" stop-opacity="0" offset="100%"></stop></linearGradient><path d="M3.24476562,0.04 L36.5135294,0.04 L39.36,11.38375 L39.36,38.04 C39.36,39.1445695 38.4645695,40.04 37.36,40.04 L3.36,40.04 C2.2554305,40.04 1.36,39.1445695 1.36,38.04 L1.36,11.493125 L1.36,11.493125 L3.24476562,0.04 Z" id="path-13"></path><filter x="-17.1%" y="-13.8%" width="134.2%" height="132.5%" id="filter-14"><feOffset dx="0" dy="1" in="SourceAlpha" result="shadowOffsetOuter1"></feOffset><feGaussianBlur stdDeviation="2" in="shadowOffsetOuter1" result="shadowBlurOuter1"></feGaussianBlur><feColorMatrix values="0 0 0 0 0 0 0 0 0 0 0 0 0 0 0 0 0 0 0.164226399 0" type="matrix" in="shadowBlurOuter1"></feColorMatrix></filter></defs><g id="Hard-Problems-We-Solve" stroke="none" stroke-width="1" fill="none" fill-rule="evenodd"><g id="Problems-I/O-Performance-" transform="translate(-680.000000, -1654.000000)"><g id="High-Performance-Storage-Diagram" transform="translate(680.000000, 1654.000000)"><g id="Rectangle-Copy-8"><use fill="black" fill-opacity="1" filter="url(#filter-2)" xlink:href="#path-1"></use><use fill="#FFFFFF" fill-rule="evenodd" xlink:href="#path-1"></use></g><rect id="Rectangle-Copy-4" fill="#FFFFFF" x="19" y="26" width="360" height="170" rx="4"></rect><rect id="Rectangle-Copy-6" fill="url(#linearGradient-3)" opacity="0.396461124" x="19" y="26" width="360" height="170" rx="4"></rect><g id="Group-21" transform="translate(89.000000, 92.000000)"><g id="Group-10-Copy" transform="translate(0.000000, 7.000000)"><g id="Group-13" fill="url(#linearGradient-4)"><path d="M1.52,0 L15.2,0 L15.2,0 L15.2,42.56 L1.52,42.56 C0.68052718,42.56 -3.4128344e-16,41.8794728 0,41.04 L0,1.52 C-1.0280577e-16,0.68052718 0.68052718,-2.89880555e-16 1.52,0 Z" id="Rectangle-Copy-15" transform="translate(7.600000, 21.280000) scale(1, -1) translate(-7.600000, -21.280000) "></path></g><polygon id="Fill-1-Copy" fill="#FEFEFE" points="9.30596122 29.64 11.1657976 31.8173042 7.6 35.9613284 4.03433318 31.8174268 4.78030718 30.9505746 8.06541666 30.9505746 8.74353918 31.7664355 6.69518296 34.145376 7.57215344 35.1644667 10.5390539 31.7274566 8.72105276 29.64 4.15382498 29.64 2.28 31.8174268 7.6 38 12.92 31.8174268 11.046175 29.64"></polygon></g><g id="chip-copy" transform="translate(15.000000, 0.000000)"><polygon id="Rectangle" fill="#2B2B2B" style="mix-blend-mode: multiply;" transform="translate(1.547511, 28.543706) scale(-1, 1) rotate(90.000000) translate(-1.547511, -28.543706) " points="-26.8235294 27.125154 29.918552 27.125154 29.918552 29.962258 -26.8235294 29.962258"></polygon><rect id="Rectangle" fill="#FFFFFF" transform="translate(45.140957, 29.531674) scale(-1, 1) rotate(180.000000) translate(-45.140957, -29.531674) " x="0.134169752" y="6.19004525" width="90.0135747" height="46.6832579" rx="2.69042006"></rect><path d="M0.134169752,6.19004525 L87.4573243,6.19004525 C88.9432023,6.19004525 90.1477444,7.39458734 90.1477444,8.88046531 L90.1477444,50.1828831 C90.1477444,51.6687611 88.9432023,52.8733032 87.4573243,52.8733032 L0.134169752,52.8733032 L0.134169752,52.8733032 L0.134169752,6.19004525 Z" id="Rectangle" fill="url(#radialGradient-5)" transform="translate(45.140957, 29.531674) scale(-1, 1) rotate(180.000000) translate(-45.140957, -29.531674) "></path><g id="Group-32" transform="translate(10.309955, 14.358186)" fill="#F0F0F0" opacity="0.388578869"><rect id="Rectangle-Copy-27" transform="translate(7.500000, 15.000000) rotate(-180.000000) translate(-7.500000, -15.000000) " x="0" y="0" width="15" height="30" rx="2"></rect><rect id="Rectangle-Copy-28" transform="translate(27.500000, 7.000000) scale(-1, 1) rotate(180.000000) translate(-27.500000, -7.000000) " x="21" y="0" width="13" height="14" rx="2"></rect><rect id="Rectangle-Copy-29" transform="translate(27.000000, 24.500000) scale(-1, 1) rotate(180.000000) translate(-27.000000, -24.500000) " x="21" y="19" width="12" height="11" rx="2"></rect><rect id="Rectangle-Copy-30" transform="translate(46.000000, 24.500000) scale(-1, 1) rotate(180.000000) translate(-46.000000, -24.500000) " x="40" y="19" width="12" height="11" rx="2"></rect><rect id="Rectangle-Copy-31" transform="translate(64.690045, 24.500000) scale(-1, 1) rotate(180.000000) translate(-64.690045, -24.500000) " x="58.6900452" y="19" width="12" height="11" rx="2"></rect><rect id="Rectangle-Copy-37" transform="translate(46.000000, 7.000000) scale(-1, 1) rotate(180.000000) translate(-46.000000, -7.000000) " x="40" y="0" width="12" height="14" rx="2"></rect><rect id="Rectangle-Copy-38" transform="translate(64.690045, 7.000000) scale(-1, 1) rotate(180.000000) translate(-64.690045, -7.000000) " x="58.6900452" y="-8.8817842e-16" width="12" height="14" rx="2"></rect></g></g></g><g id="Group-21-Copy" transform="translate(250.000000, 92.000000)"><g id="Group-10-Copy" transform="translate(0.000000, 7.000000)"><g id="Group-13" fill="url(#linearGradient-4)"><path d="M1.52,0 L15.2,0 L15.2,0 L15.2,42.56 L1.52,42.56 C0.68052718,42.56 -3.4128344e-16,41.8794728 0,41.04 L0,1.52 C-1.0280577e-16,0.68052718 0.68052718,-2.89880555e-16 1.52,0 Z" id="Rectangle-Copy-15" transform="translate(7.600000, 21.280000) scale(1, -1) translate(-7.600000, -21.280000) "></path></g><polygon id="Fill-1-Copy" fill="#FEFEFE" points="9.30596122 29.64 11.1657976 31.8173042 7.6 35.9613284 4.03433318 31.8174268 4.78030718 30.9505746 8.06541666 30.9505746 8.74353918 31.7664355 6.69518296 34.145376 7.57215344 35.1644667 10.5390539 31.7274566 8.72105276 29.64 4.15382498 29.64 2.28 31.8174268 7.6 38 12.92 31.8174268 11.046175 29.64"></polygon></g><g id="chip-copy" transform="translate(15.000000, 0.000000)"><polygon id="Rectangle" fill="#2B2B2B" style="mix-blend-mode: multiply;" transform="translate(1.547511, 28.543706) scale(-1, 1) rotate(90.000000) translate(-1.547511, -28.543706) " points="-26.8235294 27.125154 29.918552 27.125154 29.918552 29.962258 -26.8235294 29.962258"></polygon><rect id="Rectangle" fill="#FFFFFF" transform="translate(45.140957, 29.531674) scale(-1, 1) rotate(180.000000) translate(-45.140957, -29.531674) " x="0.134169752" y="6.19004525" width="90.0135747" height="46.6832579" rx="2.69042006"></rect><path d="M0.134169752,6.19004525 L87.4573243,6.19004525 C88.9432023,6.19004525 90.1477444,7.39458734 90.1477444,8.88046531 L90.1477444,50.1828831 C90.1477444,51.6687611 88.9432023,52.8733032 87.4573243,52.8733032 L0.134169752,52.8733032 L0.134169752,52.8733032 L0.134169752,6.19004525 Z" id="Rectangle" fill="url(#radialGradient-5)" transform="translate(45.140957, 29.531674) scale(-1, 1) rotate(180.000000) translate(-45.140957, -29.531674) "></path><g id="Group-32" transform="translate(10.309955, 14.358186)" fill="#F0F0F0" opacity="0.388578869"><rect id="Rectangle-Copy-27" transform="translate(7.500000, 15.000000) rotate(-180.000000) translate(-7.500000, -15.000000) " x="0" y="0" width="15" height="30" rx="2"></rect><rect id="Rectangle-Copy-28" transform="translate(27.500000, 7.000000) scale(-1, 1) rotate(180.000000) translate(-27.500000, -7.000000) " x="21" y="0" width="13" height="14" rx="2"></rect><rect id="Rectangle-Copy-29" transform="translate(27.000000, 24.500000) scale(-1, 1) rotate(180.000000) translate(-27.000000, -24.500000) " x="21" y="19" width="12" height="11" rx="2"></rect><rect id="Rectangle-Copy-30" transform="translate(46.000000, 24.500000) scale(-1, 1) rotate(180.000000) translate(-46.000000, -24.500000) " x="40" y="19" width="12" height="11" rx="2"></rect><rect id="Rectangle-Copy-31" transform="translate(64.690045, 24.500000) scale(-1, 1) rotate(180.000000) translate(-64.690045, -24.500000) " x="58.6900452" y="19" width="12" height="11" rx="2"></rect><rect id="Rectangle-Copy-37" transform="translate(46.000000, 7.000000) scale(-1, 1) rotate(180.000000) translate(-46.000000, -7.000000) " x="40" y="0" width="12" height="14" rx="2"></rect><rect id="Rectangle-Copy-38" transform="translate(64.690045, 7.000000) scale(-1, 1) rotate(180.000000) translate(-64.690045, -7.000000) " x="58.6900452" y="-8.8817842e-16" width="12" height="14" rx="2"></rect></g></g></g><g id="Group-10" transform="translate(26.000000, 35.000000)"><rect id="Rectangle" fill="#FFFFFF" x="0" y="0" width="86" height="20" rx="5"></rect><path d="M11.0341797,14.0878906 C11.5820312,14.0878906 12.0566406,13.9926758 12.4580078,13.8022461 C12.859375,13.6118164 13.1662598,13.3378906 13.3786621,12.9804688 C13.5910645,12.6230469 13.6972656,12.2070312 13.6972656,11.7324219 L13.6972656,11.7324219 L13.6972656,7.57519531 L12.3393555,7.57519531 L12.3393555,11.4995117 C12.3393555,11.9975586 12.2390137,12.3630371 12.0383301,12.5959473 C11.8376465,12.8288574 11.5146484,12.9453125 11.0693359,12.9453125 C10.609375,12.9453125 10.2797852,12.8295898 10.0805664,12.5981445 C9.88134766,12.3666992 9.78173828,12.003418 9.78173828,11.5083008 L9.78173828,11.5083008 L9.78173828,7.57519531 L8.42382812,7.57519531 L8.42382812,11.7148438 C8.42382812,12.4501953 8.65234375,13.029541 9.109375,13.4528809 C9.56640625,13.8762207 10.2080078,14.0878906 11.0341797,14.0878906 Z M19.2387695,14 L19.2387695,12.875 L16.6328125,12.875 L16.6328125,7.57519531 L15.2705078,7.57519531 L15.2705078,14 L19.2387695,14 Z M22.8334961,14 L22.8334961,8.70898438 L24.578125,8.70898438 L24.578125,7.57519531 L19.7265625,7.57519531 L19.7265625,8.70898438 L21.4711914,8.70898438 L21.4711914,14 L22.8334961,14 Z M26.9291992,14 L26.9291992,7.57519531 L25.5668945,7.57519531 L25.5668945,14 L26.9291992,14 Z M29.7636719,14 L29.763092,10.9189148 C29.7588399,10.5525614 29.7312012,9.89941406 29.6801758,8.95947266 L29.6801758,8.95947266 L29.7197266,8.95947266 L31.2666016,14 L32.5146484,14 L34.1713867,8.96826172 L34.2109375,8.96826172 C34.1757812,9.77685547 34.1560059,10.2749023 34.1516113,10.4624023 C34.1472168,10.6499023 34.1450195,10.8154297 34.1450195,10.9589844 L34.1450195,14 L35.4150391,14 L35.4150391,7.57519531 L33.5605469,7.57519531 L31.9477539,12.4882812 L31.9213867,12.4882812 L30.4008789,7.57519531 L28.5463867,7.57519531 L28.5463867,14 L29.7636719,14 Z M37.6914062,14 L38.1572266,12.4707031 L40.4995117,12.4707031 L40.965332,14 L42.4331055,14 L40.1567383,7.54882812 L38.4912109,7.54882812 L36.2236328,14 L37.6914062,14 Z M40.1743164,11.328125 L38.5,11.328125 C38.9570312,9.84863281 39.2338867,8.92138672 39.3305664,8.54638672 C39.3540039,8.65185547 39.3928223,8.79541016 39.4470215,8.97705078 C39.5012207,9.15869141 39.7436523,9.94238281 40.1743164,11.328125 L40.1743164,11.328125 Z M48.3525391,14.0878906 C49.3369141,14.0878906 50.0927734,13.8022461 50.6201172,13.230957 C51.1474609,12.659668 51.4111328,11.8422852 51.4111328,10.7788086 C51.4111328,9.71240234 51.1496582,8.89501953 50.626709,8.32666016 C50.1037598,7.75830078 49.3486328,7.47412109 48.3613281,7.47412109 C47.3740234,7.47412109 46.6159668,7.75610352 46.0871582,8.32006836 C45.5583496,8.8840332 45.2939453,9.70068359 45.2939453,10.7700195 C45.2939453,11.8393555 45.5576172,12.659668 46.0849609,13.230957 C46.6123047,13.8022461 47.3681641,14.0878906 48.3525391,14.0878906 Z M48.3525391,12.9453125 C47.8105469,12.9453125 47.4033203,12.7636719 47.1308594,12.4003906 C46.8583984,12.0371094 46.722168,11.496582 46.722168,10.7788086 C46.722168,10.0610352 46.8598633,9.51977539 47.1352539,9.1550293 C47.4106445,8.7902832 47.8193359,8.60791016 48.3613281,8.60791016 C49.4423828,8.60791016 49.9829102,9.33154297 49.9829102,10.7788086 C49.9829102,12.2231445 49.4394531,12.9453125 48.3525391,12.9453125 Z M54.1928711,14 L54.1928711,10.0932617 L55.3530273,10.0932617 L55.3530273,9.08691406 L54.1928711,9.08691406 L54.1928711,8.77929688 C54.1928711,8.60351562 54.2353516,8.45922852 54.3203125,8.34643555 C54.4052734,8.23364258 54.5429688,8.17724609 54.7333984,8.17724609 C54.9619141,8.17724609 55.2109375,8.21972656 55.4804688,8.3046875 L55.4804688,8.3046875 L55.8232422,7.3203125 C55.4628906,7.18261719 55.0512695,7.11376953 54.5883789,7.11376953 C53.9819336,7.11376953 53.5410156,7.24267578 53.265625,7.50048828 C52.9902344,7.75830078 52.8525391,8.16699219 52.8525391,8.7265625 L52.8525391,8.7265625 L52.8525391,9.08691406 L52.1142578,9.44726562 L52.1142578,10.0932617 L52.8525391,10.0932617 L52.8525391,14 L54.1928711,14 Z M57.6777344,14 L57.6777344,10.0932617 L58.8378906,10.0932617 L58.8378906,9.08691406 L57.6777344,9.08691406 L57.6777344,8.77929688 C57.6777344,8.60351562 57.7202148,8.45922852 57.8051758,8.34643555 C57.8901367,8.23364258 58.027832,8.17724609 58.2182617,8.17724609 C58.4467773,8.17724609 58.6958008,8.21972656 58.965332,8.3046875 L58.965332,8.3046875 L59.3081055,7.3203125 C58.9477539,7.18261719 58.5361328,7.11376953 58.0732422,7.11376953 C57.4667969,7.11376953 57.0258789,7.24267578 56.7504883,7.50048828 C56.4750977,7.75830078 56.3374023,8.16699219 56.3374023,8.7265625 L56.3374023,8.7265625 L56.3374023,9.08691406 L55.5991211,9.44726562 L55.5991211,10.0932617 L56.3374023,10.0932617 L56.3374023,14 L57.6777344,14 Z M60.934082,14 L60.934082,7.16210938 L59.59375,7.16210938 L59.59375,14 L60.934082,14 Z M64.4101562,14.0878906 C65.1630859,14.0878906 65.7504883,13.8623047 66.1723633,13.4111328 C66.5942383,12.9599609 66.8051758,12.3344727 66.8051758,11.534668 C66.8051758,11.019043 66.7084961,10.5693359 66.5151367,10.1855469 C66.3217773,9.80175781 66.0449219,9.50732422 65.6845703,9.30224609 C65.3242188,9.09716797 64.9082031,8.99462891 64.4365234,8.99462891 C63.6777344,8.99462891 63.0888672,9.21728516 62.6699219,9.66259766 C62.2509766,10.1079102 62.0415039,10.7319336 62.0415039,11.534668 C62.0415039,12.050293 62.1381836,12.5014648 62.331543,12.8881836 C62.5249023,13.2749023 62.8017578,13.5715332 63.1621094,13.7780762 C63.5224609,13.9846191 63.9384766,14.0878906 64.4101562,14.0878906 Z M64.4277344,13.0112305 C64.0673828,13.0112305 63.807373,12.8867188 63.6477051,12.6376953 C63.4880371,12.3886719 63.4082031,12.0209961 63.4082031,11.534668 C63.4082031,11.0454102 63.4873047,10.6799316 63.6455078,10.4382324 C63.8037109,10.1965332 64.0615234,10.0756836 64.4189453,10.0756836 C64.7792969,10.0756836 65.0385742,10.1972656 65.1967773,10.4404297 C65.3549805,10.6835938 65.434082,11.0483398 65.434082,11.534668 C65.434082,12.0239258 65.3557129,12.392334 65.1989746,12.6398926 C65.0422363,12.8874512 64.7851562,13.0112305 64.4277344,13.0112305 Z M69.1079102,14.0878906 C69.4916992,14.0878906 69.8029785,14.032959 70.041748,13.9230957 C70.2805176,13.8132324 70.5126953,13.6162109 70.7382812,13.3320312 L70.7382812,13.3320312 L70.7734375,13.3320312 L71.0327148,14 L71.96875,14 L71.96875,10.7260742 C71.96875,10.1401367 71.7929688,9.70361328 71.4414062,9.41650391 C71.0898438,9.12939453 70.5844727,8.98583984 69.925293,8.98583984 C69.2368164,8.98583984 68.6098633,9.13378906 68.0444336,9.4296875 L68.0444336,9.4296875 L68.4882812,10.3349609 C69.0185547,10.0976562 69.4799805,9.97900391 69.8725586,9.97900391 C70.3823242,9.97900391 70.637207,10.2280273 70.637207,10.7260742 L70.637207,10.7260742 L70.637207,10.9414062 L69.784668,10.9677734 C69.0493164,10.9941406 68.4992676,11.1311035 68.1345215,11.3786621 C67.7697754,11.6262207 67.5874023,12.0107422 67.5874023,12.5322266 C67.5874023,13.0302734 67.7229004,13.4140625 67.9938965,13.6835938 C68.2648926,13.953125 68.6362305,14.0878906 69.1079102,14.0878906 Z M69.6132812,13.1079102 C69.1796875,13.1079102 68.9628906,12.9189453 68.9628906,12.5410156 C68.9628906,12.2773438 69.0581055,12.0810547 69.2485352,11.9521484 C69.4389648,11.8232422 69.7290039,11.7529297 70.1186523,11.7412109 L70.1186523,11.7412109 L70.637207,11.7236328 L70.637207,12.1279297 C70.637207,12.4238281 70.5441895,12.6611328 70.3581543,12.8398438 C70.1721191,13.0185547 69.9238281,13.1079102 69.6132812,13.1079102 Z M74.9042969,14.0878906 C75.5283203,14.0878906 75.9926758,13.8461914 76.2973633,13.362793 L76.2973633,13.362793 L76.3544922,13.362793 L76.6137695,14 L77.6420898,14 L77.6420898,7.16210938 L76.2973633,7.16210938 L76.2973633,8.73535156 C76.2973633,9.02246094 76.3310547,9.34912109 76.3984375,9.71533203 L76.3984375,9.71533203 L76.3544922,9.71533203 C76.0292969,9.23486328 75.5576172,8.99462891 74.9394531,8.99462891 C74.3505859,8.99462891 73.8884277,9.21948242 73.5529785,9.66918945 C73.2175293,10.1188965 73.0498047,10.746582 73.0498047,11.5522461 C73.0498047,12.3461914 73.2145996,12.9672852 73.5441895,13.4155273 C73.8737793,13.8637695 74.3271484,14.0878906 74.9042969,14.0878906 Z M75.3745117,13.0200195 C75.0639648,13.0200195 74.8251953,12.8991699 74.6582031,12.6574707 C74.4912109,12.4157715 74.4077148,12.0532227 74.4077148,11.5698242 C74.4077148,11.0864258 74.4904785,10.7180176 74.6560059,10.4645996 C74.8215332,10.2111816 75.0537109,10.0844727 75.3525391,10.0844727 C75.71875,10.0844727 75.9831543,10.1987305 76.145752,10.4272461 C76.3083496,10.6557617 76.3896484,11.0336914 76.3896484,11.5610352 L76.3896484,11.5610352 L76.3896484,11.7060547 C76.375,12.1835938 76.2878418,12.5219727 76.1281738,12.7211914 C75.9685059,12.9204102 75.7172852,13.0200195 75.3745117,13.0200195 Z" id="ULTIMAOfoad" fill="#024F71" fill-rule="nonzero"></path></g><g id="Group-7" transform="translate(106.200000, 228.000000)"><line x1="-8.87373855e-13" y1="14.58" x2="184.3" y2="14.9" id="Path-2" stroke="#024F71" stroke-linecap="round" stroke-dasharray="1,4"></line><path d="M62.1745117,10 L62.1745117,6.66015625 C62.1745117,6.20898438 62.1540039,5.7109375 62.1129883,5.16601562 L62.1129883,5.16601562 L62.0910156,4.88037109 L62.1261719,4.88037109 L65.2858398,10 L66.5734375,10 L66.5734375,3.57519531 L65.6110352,3.57519531 L65.6117676,7.06781006 C65.614209,7.29140218 65.6227539,7.57958984 65.6374023,7.93237305 C65.6549805,8.35571289 65.6666992,8.60107422 65.6725586,8.66845703 L65.6725586,8.66845703 L65.6461914,8.66845703 L62.4953125,3.57519531 L61.2208984,3.57519531 L61.2208984,10 L62.1745117,10 Z M70.7702148,10 L73.0202148,3.57519531 L71.9303711,3.57519531 L70.5900391,7.55224609 C70.5402344,7.69287109 70.4757813,7.90966797 70.3966797,8.20263672 C70.3175781,8.49560547 70.2589844,8.75341797 70.2208984,8.97607422 C70.1974609,8.82958984 70.1461914,8.60620117 70.0670898,8.3059082 C69.9879883,8.00561523 69.9132813,7.76025391 69.8429688,7.56982422 L69.8429688,7.56982422 L68.5026367,3.57519531 L67.421582,3.57519531 L69.662793,10 L70.7702148,10 Z M74.8219727,10 L74.8219727,6.87548828 C74.8219727,6.17822266 74.7970703,5.43115234 74.7472656,4.63427734 L74.7472656,4.63427734 L74.7824219,4.63427734 L76.6457031,10 L77.5729492,10 L79.5021484,4.64306641 L79.5373047,4.64306641 C79.5255859,4.75146484 79.5116699,5.06201172 79.4955566,5.57470703 C79.4794434,6.08740234 79.4713867,6.50341797 79.4713867,6.82275391 L79.4713867,6.82275391 L79.4713867,10 L80.4821289,10 L80.4821289,3.57519531 L78.9967773,3.57519531 L77.1598633,8.68603516 L77.1334961,8.68603516 L75.3493164,3.57519531 L73.8683594,3.57519531 L73.8683594,10 L74.8219727,10 Z M84.1867188,10.0878906 C84.5177734,10.0878906 84.812207,10.0629883 85.0700195,10.0131836 C85.327832,9.96337891 85.5827148,9.87841797 85.834668,9.75830078 L85.834668,9.75830078 L85.834668,8.91894531 C85.5504883,9.04492188 85.2846191,9.13500977 85.0370605,9.18920898 C84.789502,9.2434082 84.522168,9.27050781 84.2350586,9.27050781 C83.7985352,9.27050781 83.4601563,9.14379883 83.2199219,8.89038086 C82.9796875,8.63696289 82.8522461,8.27441406 82.8375977,7.80273438 L82.8375977,7.80273438 L86.0763672,7.80273438 L86.0763672,7.24462891 C86.0763672,6.56201172 85.890332,6.02587891 85.5182617,5.63623047 C85.1461914,5.24658203 84.6393555,5.05175781 83.9977539,5.05175781 C83.3063477,5.05175781 82.7628906,5.27880859 82.3673828,5.73291016 C81.971875,6.18701172 81.7741211,6.81103516 81.7741211,7.60498047 C81.7741211,8.37841797 81.9872559,8.9855957 82.4135254,9.42651367 C82.8397949,9.86743164 83.4308594,10.0878906 84.1867188,10.0878906 Z M85.0612305,7.05566406 L82.8551758,7.05566406 C82.8932617,6.65722656 83.0111816,6.35400391 83.2089355,6.14599609 C83.4066895,5.93798828 83.6696289,5.83398438 83.9977539,5.83398438 C84.3258789,5.83398438 84.5836914,5.93725586 84.7711914,6.14379883 C84.9586914,6.3503418 85.0553711,6.65429688 85.0612305,7.05566406 L85.0612305,7.05566406 Z M91.4948242,10 C92.6022461,10 93.4503906,9.71948242 94.0392578,9.15844727 C94.628125,8.59741211 94.9225586,7.78662109 94.9225586,6.72607422 C94.9225586,5.72705078 94.6383789,4.95214844 94.0700195,4.40136719 C93.5016602,3.85058594 92.70625,3.57519531 91.6837891,3.57519531 L91.6837891,3.57519531 L89.6974609,3.57519531 L89.6974609,10 L91.4948242,10 Z M91.4948242,9.11669922 L90.7477539,9.11669922 L90.7477539,4.45410156 L91.6574219,4.45410156 C93.0958984,4.45410156 93.8151367,5.22314453 93.8151367,6.76123047 C93.8151367,8.33154297 93.0416992,9.11669922 91.4948242,9.11669922 L91.4948242,9.11669922 Z M97.225293,10 L97.225293,7.45996094 C97.225293,7.02929688 97.3534668,6.67919922 97.6098145,6.40966797 C97.8661621,6.14013672 98.2008789,6.00537109 98.6139648,6.00537109 C98.772168,6.00537109 98.9245117,6.02294922 99.0709961,6.05810547 L99.0709961,6.05810547 L99.1720703,5.09570312 C99.0373047,5.06640625 98.865918,5.05175781 98.6579102,5.05175781 C98.359082,5.05175781 98.0800293,5.13671875 97.820752,5.30664062 C97.5614746,5.4765625 97.3512695,5.70654297 97.1901367,5.99658203 L97.1901367,5.99658203 L97.1374023,5.99658203 L97.0011719,5.13964844 L96.1925781,5.13964844 L96.1925781,10 L97.225293,10 Z M100.595898,4.41894531 C100.777539,4.41894531 100.918896,4.3684082 101.019971,4.26733398 C101.121045,4.16625977 101.171582,4.02783203 101.171582,3.85205078 C101.171582,3.66748047 101.121045,3.52539062 101.019971,3.42578125 C100.918896,3.32617188 100.777539,3.27636719 100.595898,3.27636719 C100.408398,3.27636719 100.264111,3.32617188 100.163037,3.42578125 C100.061963,3.52539062 100.011426,3.66748047 100.011426,3.85205078 C100.011426,4.02783203 100.061963,4.16625977 100.163037,4.26733398 C100.264111,4.3684082 100.408398,4.41894531 100.595898,4.41894531 Z M101.105664,10 L101.105664,5.13964844 L100.072949,5.13964844 L100.072949,10 L101.105664,10 Z M104.805859,10 L106.660352,5.13964844 L105.561719,5.13964844 L104.572949,7.96533203 C104.394238,8.52197266 104.291699,8.90576172 104.265332,9.11669922 L104.265332,9.11669922 L104.230176,9.11669922 C104.19502,8.82373047 104.09248,8.43994141 103.922559,7.96533203 L103.922559,7.96533203 L102.933789,5.13964844 L101.843945,5.13964844 L103.689648,10 L104.805859,10 Z M109.521191,10.0878906 C109.852246,10.0878906 110.14668,10.0629883 110.404492,10.0131836 C110.662305,9.96337891 110.917188,9.87841797 111.169141,9.75830078 L111.169141,9.75830078 L111.169141,8.91894531 C110.884961,9.04492188 110.619092,9.13500977 110.371533,9.18920898 C110.123975,9.2434082 109.856641,9.27050781 109.569531,9.27050781 C109.133008,9.27050781 108.794629,9.14379883 108.554395,8.89038086 C108.31416,8.63696289 108.186719,8.27441406 108.17207,7.80273438 L108.17207,7.80273438 L111.41084,7.80273438 L111.41084,7.24462891 C111.41084,6.56201172 111.224805,6.02587891 110.852734,5.63623047 C110.480664,5.24658203 109.973828,5.05175781 109.332227,5.05175781 C108.64082,5.05175781 108.097363,5.27880859 107.701855,5.73291016 C107.306348,6.18701172 107.108594,6.81103516 107.108594,7.60498047 C107.108594,8.37841797 107.321729,8.9855957 107.747998,9.42651367 C108.174268,9.86743164 108.765332,10.0878906 109.521191,10.0878906 Z M110.395703,7.05566406 L108.189648,7.05566406 C108.227734,6.65722656 108.345654,6.35400391 108.543408,6.14599609 C108.741162,5.93798828 109.004102,5.83398438 109.332227,5.83398438 C109.660352,5.83398438 109.918164,5.93725586 110.105664,6.14379883 C110.293164,6.3503418 110.389844,6.65429688 110.395703,7.05566406 L110.395703,7.05566406 Z M113.84541,10.0878906 C114.489941,10.0878906 114.985059,9.96118164 115.330762,9.70776367 C115.676465,9.4543457 115.849316,9.09033203 115.849316,8.61572266 C115.849316,8.38134766 115.805371,8.17993164 115.71748,8.01147461 C115.62959,7.84301758 115.494824,7.69433594 115.313184,7.56542969 C115.131543,7.43652344 114.840039,7.29443359 114.438672,7.13916016 C113.961133,6.95458984 113.651318,6.80957031 113.509229,6.70410156 C113.367139,6.59863281 113.296094,6.46972656 113.296094,6.31738281 C113.296094,6.00683594 113.568555,5.8515625 114.113477,5.8515625 C114.470898,5.8515625 114.911816,5.95996094 115.43623,6.17675781 L115.43623,6.17675781 L115.770215,5.39892578 C115.260449,5.16748047 114.719922,5.05175781 114.148633,5.05175781 C113.571484,5.05175781 113.115186,5.16674805 112.779736,5.39672852 C112.444287,5.62670898 112.276563,5.94970703 112.276563,6.36572266 C112.276563,6.71142578 112.375439,6.99267578 112.573193,7.20947266 C112.770947,7.42626953 113.149609,7.64306641 113.70918,7.85986328 C113.996289,7.97119141 114.22041,8.07080078 114.381543,8.15869141 C114.542676,8.24658203 114.658398,8.33154297 114.728711,8.41357422 C114.799023,8.49560547 114.83418,8.59814453 114.83418,8.72119141 C114.83418,9.10498047 114.516309,9.296875 113.880566,9.296875 C113.388379,9.296875 112.856641,9.16503906 112.285352,8.90136719 L112.285352,8.90136719 L112.285352,9.79345703 C112.67793,9.98974609 113.197949,10.0878906 113.84541,10.0878906 Z" id="NVMeDrives" fill="#005A80" fill-rule="nonzero"></path></g><path d="M135.085938,158.087891 C135.8125,158.087891 136.382324,157.925293 136.79541,157.600098 C137.208496,157.274902 137.415039,156.82666 137.415039,156.255371 C137.415039,155.965332 137.36377,155.713379 137.26123,155.499512 C137.158691,155.285645 136.997559,155.09375 136.777832,154.923828 C136.558105,154.753906 136.212402,154.570801 135.740723,154.374512 C135.321777,154.20166 135.031738,154.0625 134.870605,153.957031 C134.709473,153.851562 134.59375,153.739502 134.523438,153.62085 C134.453125,153.502197 134.417969,153.359375 134.417969,153.192383 C134.417969,152.949219 134.505859,152.753662 134.681641,152.605713 C134.857422,152.457764 135.115234,152.383789 135.455078,152.383789 C135.90332,152.383789 136.413086,152.503906 136.984375,152.744141 L136.984375,152.744141 L137.318359,151.887207 C136.708984,151.617676 136.09668,151.48291 135.481445,151.48291 C134.839844,151.48291 134.328613,151.636719 133.947754,151.944336 C133.566895,152.251953 133.376465,152.673828 133.376465,153.209961 C133.376465,153.637695 133.496582,154.003906 133.736816,154.308594 C133.977051,154.613281 134.390137,154.884277 134.976074,155.121582 C135.544434,155.350098 135.919434,155.547852 136.101074,155.714844 C136.282715,155.881836 136.373535,156.085449 136.373535,156.325684 C136.373535,156.592285 136.274658,156.804688 136.076904,156.962891 C135.87915,157.121094 135.572266,157.200195 135.15625,157.200195 C134.87207,157.200195 134.565186,157.160645 134.235596,157.081543 C133.906006,157.002441 133.594727,156.894043 133.301758,156.756348 L133.301758,156.756348 L133.301758,157.749512 C133.764648,157.975098 134.359375,158.087891 135.085938,158.087891 Z M140.113281,158.087891 C140.306641,158.087891 140.493408,158.071045 140.673584,158.037354 C140.85376,158.003662 141.000977,157.961914 141.115234,157.912109 L141.115234,157.912109 L141.115234,157.134277 C140.863281,157.213379 140.611328,157.25293 140.359375,157.25293 C140.157227,157.25293 139.993896,157.193604 139.869385,157.074951 C139.744873,156.956299 139.682617,156.772461 139.682617,156.523438 L139.682617,156.523438 L139.682617,153.921875 L141.066895,153.921875 L141.066895,153.139648 L139.682617,153.139648 L139.682617,152.058594 L139.04541,152.058594 L138.693848,153.086914 L137.981934,153.464844 L137.981934,153.921875 L138.645508,153.921875 L138.645508,156.541016 C138.645508,157.572266 139.134766,158.087891 140.113281,158.087891 Z M144.085938,158.087891 C144.8125,158.087891 145.379395,157.865234 145.786621,157.419922 C146.193848,156.974609 146.397461,156.35498 146.397461,155.561035 C146.397461,154.793457 146.192383,154.18335 145.782227,153.730713 C145.37207,153.278076 144.81543,153.051758 144.112305,153.051758 C143.376953,153.051758 142.807129,153.272949 142.402832,153.715332 C141.998535,154.157715 141.796387,154.772949 141.796387,155.561035 C141.796387,156.067871 141.890137,156.513184 142.077637,156.896973 C142.265137,157.280762 142.533203,157.575195 142.881836,157.780273 C143.230469,157.985352 143.631836,158.087891 144.085938,158.087891 Z M144.103516,157.244141 C143.274414,157.244141 142.859863,156.683105 142.859863,155.561035 C142.859863,155.024902 142.957275,154.613281 143.1521,154.326172 C143.346924,154.039062 143.661133,153.895508 144.094727,153.895508 C144.920898,153.895508 145.333984,154.450684 145.333984,155.561035 C145.333984,156.683105 144.923828,157.244141 144.103516,157.244141 Z M148.616699,158 L148.616699,155.459961 C148.616699,155.029297 148.744873,154.679199 149.001221,154.409668 C149.257568,154.140137 149.592285,154.005371 150.005371,154.005371 C150.163574,154.005371 150.315918,154.022949 150.462402,154.058105 L150.462402,154.058105 L150.563477,153.095703 C150.428711,153.066406 150.257324,153.051758 150.049316,153.051758 C149.750488,153.051758 149.471436,153.136719 149.212158,153.306641 C148.952881,153.476562 148.742676,153.706543 148.581543,153.996582 L148.581543,153.996582 L148.528809,153.996582 L148.392578,153.139648 L147.583984,153.139648 L147.583984,158 L148.616699,158 Z M152.64209,158.087891 C153.01416,158.087891 153.318848,158.034424 153.556152,157.92749 C153.793457,157.820557 154.029297,157.619141 154.263672,157.323242 L154.263672,157.323242 L154.298828,157.323242 L154.505371,158 L155.243652,158 L155.243652,154.726074 C155.243652,154.148926 155.086182,153.725586 154.77124,153.456055 C154.456299,153.186523 153.989746,153.051758 153.371582,153.051758 C153.093262,153.051758 152.797363,153.087646 152.483887,153.159424 C152.17041,153.231201 151.881836,153.335938 151.618164,153.473633 L151.618164,153.473633 L151.952148,154.211914 C152.163086,154.112305 152.382812,154.025879 152.611328,153.952637 C152.839844,153.879395 153.078613,153.842773 153.327637,153.842773 C153.632324,153.842773 153.857178,153.919678 154.002197,154.073486 C154.147217,154.227295 154.219727,154.459473 154.219727,154.77002 L154.219727,154.77002 L154.219727,155.029297 L153.380371,155.055664 C152.618652,155.079102 152.051758,155.218262 151.679688,155.473145 C151.307617,155.728027 151.121582,156.105957 151.121582,156.606934 C151.121582,157.078613 151.255615,157.443359 151.523682,157.701172 C151.791748,157.958984 152.164551,158.087891 152.64209,158.087891 Z M152.967285,157.296875 C152.709473,157.296875 152.516113,157.237549 152.387207,157.118896 C152.258301,157.000244 152.193848,156.83252 152.193848,156.615723 C152.193848,156.316895 152.304443,156.094971 152.525635,155.949951 C152.746826,155.804932 153.100586,155.723633 153.586914,155.706055 L153.586914,155.706055 L154.210938,155.679688 L154.210938,156.101562 C154.210938,156.479492 154.097412,156.773193 153.870361,156.982666 C153.643311,157.192139 153.342285,157.296875 152.967285,157.296875 Z M158.086914,160.162109 C158.945312,160.162109 159.601562,160.012695 160.055664,159.713867 C160.509766,159.415039 160.736816,158.990234 160.736816,158.439453 C160.736816,158.008789 160.597656,157.679199 160.319336,157.450684 C160.041016,157.222168 159.633789,157.10791 159.097656,157.10791 L159.097656,157.10791 L158.249512,157.10791 C157.971191,157.10791 157.780029,157.080078 157.676025,157.024414 C157.572021,156.96875 157.52002,156.885254 157.52002,156.773926 C157.52002,156.589355 157.631348,156.428223 157.854004,156.290527 C157.97998,156.313965 158.120605,156.325684 158.275879,156.325684 C158.882324,156.325684 159.358398,156.182129 159.704102,155.89502 C160.049805,155.60791 160.222656,155.213867 160.222656,154.712891 C160.222656,154.545898 160.197754,154.387695 160.147949,154.238281 C160.098145,154.088867 160.035156,153.962891 159.958984,153.860352 L159.958984,153.860352 L160.789551,153.706543 L160.789551,153.139648 L159.106445,153.139648 C159.030273,153.119141 158.916748,153.099365 158.765869,153.080322 C158.61499,153.061279 158.470703,153.051758 158.333008,153.051758 C157.717773,153.051758 157.243896,153.196777 156.911377,153.486816 C156.578857,153.776855 156.412598,154.185547 156.412598,154.712891 C156.412598,155.041016 156.490967,155.327393 156.647705,155.572021 C156.804443,155.81665 157.008789,155.993164 157.260742,156.101562 C157.058594,156.224609 156.90625,156.349121 156.803711,156.475098 C156.701172,156.601074 156.649902,156.754883 156.649902,156.936523 C156.649902,157.080078 156.69458,157.217041 156.783936,157.347412 C156.873291,157.477783 156.986816,157.572266 157.124512,157.630859 C156.784668,157.709961 156.520264,157.851318 156.331299,158.054932 C156.142334,158.258545 156.047852,158.509766 156.047852,158.808594 C156.047852,159.242188 156.222168,159.576172 156.570801,159.810547 C156.919434,160.044922 157.424805,160.162109 158.086914,160.162109 Z M158.324219,155.662109 C158.03125,155.662109 157.806396,155.580078 157.649658,155.416016 C157.49292,155.251953 157.414551,155.017578 157.414551,154.712891 C157.414551,154.387695 157.491455,154.140137 157.645264,153.970215 C157.799072,153.800293 158.025391,153.715332 158.324219,153.715332 C158.625977,153.715332 158.85083,153.801025 158.998779,153.972412 C159.146729,154.143799 159.220703,154.387695 159.220703,154.704102 C159.220703,155.342773 158.921875,155.662109 158.324219,155.662109 Z M158.117676,159.450195 C157.754395,159.450195 157.472412,159.390137 157.271729,159.27002 C157.071045,159.149902 156.970703,158.978516 156.970703,158.755859 C156.970703,158.518555 157.057861,158.330322 157.232178,158.191162 C157.406494,158.052002 157.641602,157.982422 157.9375,157.982422 L157.9375,157.982422 L158.719727,157.982422 C159.129883,157.982422 159.4104,158.0271 159.561279,158.116455 C159.712158,158.205811 159.787598,158.355957 159.787598,158.566895 C159.787598,158.833496 159.649902,159.047363 159.374512,159.208496 C159.099121,159.369629 158.680176,159.450195 158.117676,159.450195 Z M163.812988,158.087891 C164.144043,158.087891 164.438477,158.062988 164.696289,158.013184 C164.954102,157.963379 165.208984,157.878418 165.460938,157.758301 L165.460938,157.758301 L165.460938,156.918945 C165.176758,157.044922 164.910889,157.13501 164.66333,157.189209 C164.415771,157.243408 164.148438,157.270508 163.861328,157.270508 C163.424805,157.270508 163.086426,157.143799 162.846191,156.890381 C162.605957,156.636963 162.478516,156.274414 162.463867,155.802734 L162.463867,155.802734 L165.702637,155.802734 L165.702637,155.244629 C165.702637,154.562012 165.516602,154.025879 165.144531,153.63623 C164.772461,153.246582 164.265625,153.051758 163.624023,153.051758 C162.932617,153.051758 162.38916,153.278809 161.993652,153.73291 C161.598145,154.187012 161.400391,154.811035 161.400391,155.60498 C161.400391,156.378418 161.613525,156.985596 162.039795,157.426514 C162.466064,157.867432 163.057129,158.087891 163.812988,158.087891 Z M164.6875,155.055664 L162.481445,155.055664 C162.519531,154.657227 162.637451,154.354004 162.835205,154.145996 C163.032959,153.937988 163.295898,153.833984 163.624023,153.833984 C163.952148,153.833984 164.209961,153.937256 164.397461,154.143799 C164.584961,154.350342 164.681641,154.654297 164.6875,155.055664 L164.6875,155.055664 Z" id="Storage" fill="#024F71" fill-rule="nonzero"></path><path d="M289.364014,158 L289.364014,154.660156 C289.364014,154.208984 289.343506,153.710938 289.30249,153.166016 L289.30249,153.166016 L289.280518,152.880371 L289.315674,152.880371 L292.475342,158 L293.762939,158 L293.762939,151.575195 L292.800537,151.575195 L292.800537,154.941406 C292.800537,155.178711 292.809326,155.509033 292.826904,155.932373 C292.844482,156.355713 292.856201,156.601074 292.862061,156.668457 L292.862061,156.668457 L292.835693,156.668457 L289.684814,151.575195 L288.4104,151.575195 L288.4104,158 L289.364014,158 Z M297.471924,158.087891 C297.802979,158.087891 298.097412,158.062988 298.355225,158.013184 C298.613037,157.963379 298.86792,157.878418 299.119873,157.758301 L299.119873,157.758301 L299.119873,156.918945 C298.835693,157.044922 298.569824,157.13501 298.322266,157.189209 C298.074707,157.243408 297.807373,157.270508 297.520264,157.270508 C297.08374,157.270508 296.745361,157.143799 296.505127,156.890381 C296.264893,156.636963 296.137451,156.274414 296.122803,155.802734 L296.122803,155.802734 L299.361572,155.802734 L299.361572,155.244629 C299.361572,154.562012 299.175537,154.025879 298.803467,153.63623 C298.431396,153.246582 297.924561,153.051758 297.282959,153.051758 C296.591553,153.051758 296.048096,153.278809 295.652588,153.73291 C295.25708,154.187012 295.059326,154.811035 295.059326,155.60498 C295.059326,156.378418 295.272461,156.985596 295.69873,157.426514 C296.125,157.867432 296.716064,158.087891 297.471924,158.087891 Z M298.346436,155.055664 L296.140381,155.055664 C296.178467,154.657227 296.296387,154.354004 296.494141,154.145996 C296.691895,153.937988 296.954834,153.833984 297.282959,153.833984 C297.611084,153.833984 297.868896,153.937256 298.056396,154.143799 C298.243896,154.350342 298.340576,154.654297 298.346436,155.055664 L298.346436,155.055664 Z M302.099365,158.087891 C302.292725,158.087891 302.479492,158.071045 302.659668,158.037354 C302.839844,158.003662 302.987061,157.961914 303.101318,157.912109 L303.101318,157.912109 L303.101318,157.134277 C302.849365,157.213379 302.597412,157.25293 302.345459,157.25293 C302.143311,157.25293 301.97998,157.193604 301.855469,157.074951 C301.730957,156.956299 301.668701,156.772461 301.668701,156.523438 L301.668701,156.523438 L301.668701,153.921875 L303.052979,153.921875 L303.052979,153.139648 L301.668701,153.139648 L301.668701,152.058594 L301.031494,152.058594 L300.679932,153.086914 L299.968018,153.464844 L299.968018,153.921875 L300.631592,153.921875 L300.631592,156.541016 C300.631592,157.572266 301.12085,158.087891 302.099365,158.087891 Z M305.927002,158 L306.572998,155.741211 C306.672607,155.410156 306.807373,154.849121 306.977295,154.058105 L306.977295,154.058105 L307.016846,154.058105 C307.216064,154.934082 307.35376,155.492188 307.429932,155.732422 L307.429932,155.732422 L308.05835,158 L309.218506,158 L310.5896,153.139648 L309.55249,153.139648 L308.924072,155.534668 C308.762939,156.182129 308.6604,156.686035 308.616455,157.046387 L308.616455,157.046387 L308.581299,157.046387 C308.56958,156.882324 308.530762,156.652344 308.464844,156.356445 C308.398926,156.060547 308.343994,155.84082 308.300049,155.697266 L308.300049,155.697266 L307.58374,153.139648 L306.449951,153.139648 L305.71167,155.697266 C305.667725,155.834961 305.615723,156.042236 305.555664,156.319092 C305.495605,156.595947 305.450928,156.841309 305.421631,157.055176 L305.421631,157.055176 L305.395264,157.055176 C305.33667,156.633301 305.237061,156.126465 305.096436,155.534668 L305.096436,155.534668 L304.476807,153.139648 L303.422119,153.139648 L304.784424,158 L305.927002,158 Z M313.424072,158.087891 C314.150635,158.087891 314.717529,157.865234 315.124756,157.419922 C315.531982,156.974609 315.735596,156.35498 315.735596,155.561035 C315.735596,154.793457 315.530518,154.18335 315.120361,153.730713 C314.710205,153.278076 314.153564,153.051758 313.450439,153.051758 C312.715088,153.051758 312.145264,153.272949 311.740967,153.715332 C311.33667,154.157715 311.134521,154.772949 311.134521,155.561035 C311.134521,156.067871 311.228271,156.513184 311.415771,156.896973 C311.603271,157.280762 311.871338,157.575195 312.219971,157.780273 C312.568604,157.985352 312.969971,158.087891 313.424072,158.087891 Z M313.44165,157.244141 C312.612549,157.244141 312.197998,156.683105 312.197998,155.561035 C312.197998,155.024902 312.29541,154.613281 312.490234,154.326172 C312.685059,154.039062 312.999268,153.895508 313.432861,153.895508 C314.259033,153.895508 314.672119,154.450684 314.672119,155.561035 C314.672119,156.683105 314.261963,157.244141 313.44165,157.244141 Z M317.954834,158 L317.954834,155.459961 C317.954834,155.029297 318.083008,154.679199 318.339355,154.409668 C318.595703,154.140137 318.93042,154.005371 319.343506,154.005371 C319.501709,154.005371 319.654053,154.022949 319.800537,154.058105 L319.800537,154.058105 L319.901611,153.095703 C319.766846,153.066406 319.595459,153.051758 319.387451,153.051758 C319.088623,153.051758 318.80957,153.136719 318.550293,153.306641 C318.291016,153.476562 318.080811,153.706543 317.919678,153.996582 L317.919678,153.996582 L317.866943,153.996582 L317.730713,153.139648 L316.922119,153.139648 L316.922119,158 L317.954834,158 Z M321.826416,158 L321.826416,156.334473 L322.393311,155.868652 L323.953369,158 L325.16626,158 L323.087646,155.227051 L325.043213,153.139648 L323.852295,153.139648 L322.384521,154.704102 L321.800049,155.433594 L321.773682,155.433594 L321.826416,154.497559 L321.826416,151.162109 L320.80249,151.162109 L320.80249,158 L321.826416,158 Z M326.471436,152.418945 C326.653076,152.418945 326.794434,152.368408 326.895508,152.267334 C326.996582,152.16626 327.047119,152.027832 327.047119,151.852051 C327.047119,151.66748 326.996582,151.525391 326.895508,151.425781 C326.794434,151.326172 326.653076,151.276367 326.471436,151.276367 C326.283936,151.276367 326.139648,151.326172 326.038574,151.425781 C325.9375,151.525391 325.886963,151.66748 325.886963,151.852051 C325.886963,152.027832 325.9375,152.16626 326.038574,152.267334 C326.139648,152.368408 326.283936,152.418945 326.471436,152.418945 Z M326.981201,158 L326.981201,153.139648 L325.948486,153.139648 L325.948486,158 L326.981201,158 Z M329.490479,158 L329.490479,155.578613 C329.490479,154.972168 329.591553,154.540039 329.793701,154.282227 C329.99585,154.024414 330.315186,153.895508 330.751709,153.895508 C331.079834,153.895508 331.319336,153.987793 331.470215,154.172363 C331.621094,154.356934 331.696533,154.636719 331.696533,155.011719 L331.696533,155.011719 L331.696533,158 L332.733643,158 L332.733643,154.831543 C332.733643,153.64502 332.150635,153.051758 330.984619,153.051758 C330.656494,153.051758 330.357666,153.114746 330.088135,153.240723 C329.818604,153.366699 329.610596,153.54541 329.464111,153.776855 L329.464111,153.776855 L329.411377,153.776855 L329.266357,153.139648 L328.457764,153.139648 L328.457764,158 L329.490479,158 Z M335.57251,160.162109 C336.430908,160.162109 337.087158,160.012695 337.54126,159.713867 C337.995361,159.415039 338.222412,158.990234 338.222412,158.439453 C338.222412,158.008789 338.083252,157.679199 337.804932,157.450684 C337.526611,157.222168 337.119385,157.10791 336.583252,157.10791 L336.583252,157.10791 L335.735107,157.10791 C335.456787,157.10791 335.265625,157.080078 335.161621,157.024414 C335.057617,156.96875 335.005615,156.885254 335.005615,156.773926 C335.005615,156.589355 335.116943,156.428223 335.3396,156.290527 C335.465576,156.313965 335.606201,156.325684 335.761475,156.325684 C336.36792,156.325684 336.843994,156.182129 337.189697,155.89502 C337.5354,155.60791 337.708252,155.213867 337.708252,154.712891 C337.708252,154.545898 337.68335,154.387695 337.633545,154.238281 C337.58374,154.088867 337.520752,153.962891 337.44458,153.860352 L337.44458,153.860352 L338.275146,153.706543 L338.275146,153.139648 L336.592041,153.139648 C336.515869,153.119141 336.402344,153.099365 336.251465,153.080322 C336.100586,153.061279 335.956299,153.051758 335.818604,153.051758 C335.203369,153.051758 334.729492,153.196777 334.396973,153.486816 C334.064453,153.776855 333.898193,154.185547 333.898193,154.712891 C333.898193,155.041016 333.976562,155.327393 334.133301,155.572021 C334.290039,155.81665 334.494385,155.993164 334.746338,156.101562 C334.544189,156.224609 334.391846,156.349121 334.289307,156.475098 C334.186768,156.601074 334.135498,156.754883 334.135498,156.936523 C334.135498,157.080078 334.180176,157.217041 334.269531,157.347412 C334.358887,157.477783 334.472412,157.572266 334.610107,157.630859 C334.270264,157.709961 334.005859,157.851318 333.816895,158.054932 C333.62793,158.258545 333.533447,158.509766 333.533447,158.808594 C333.533447,159.242188 333.707764,159.576172 334.056396,159.810547 C334.405029,160.044922 334.9104,160.162109 335.57251,160.162109 Z M335.809814,155.662109 C335.516846,155.662109 335.291992,155.580078 335.135254,155.416016 C334.978516,155.251953 334.900146,155.017578 334.900146,154.712891 C334.900146,154.387695 334.977051,154.140137 335.130859,153.970215 C335.284668,153.800293 335.510986,153.715332 335.809814,153.715332 C336.111572,153.715332 336.336426,153.801025 336.484375,153.972412 C336.632324,154.143799 336.706299,154.387695 336.706299,154.704102 C336.706299,155.342773 336.407471,155.662109 335.809814,155.662109 Z M335.603271,159.450195 C335.23999,159.450195 334.958008,159.390137 334.757324,159.27002 C334.556641,159.149902 334.456299,158.978516 334.456299,158.755859 C334.456299,158.518555 334.543457,158.330322 334.717773,158.191162 C334.89209,158.052002 335.127197,157.982422 335.423096,157.982422 L335.423096,157.982422 L336.205322,157.982422 C336.615479,157.982422 336.895996,158.0271 337.046875,158.116455 C337.197754,158.205811 337.273193,158.355957 337.273193,158.566895 C337.273193,158.833496 337.135498,159.047363 336.860107,159.208496 C336.584717,159.369629 336.165771,159.450195 335.603271,159.450195 Z" id="Networking" fill="#024F71" fill-rule="nonzero"></path><g id="Group-12" transform="translate(134.000000, 56.000000)" fill-rule="nonzero"><g id="CSI-VERT-Copy" transform="translate(0.352000, 0.096000)"><path d="M23.142,17.613 C22.5435,17.613 21.9735,17.461 21.47,17.2045 C20.824,18.7055 19.4275,19.8265 17.6985,20.0355 C17.5085,20.0545 17.328,20.064 17.138,20.064 C14.7535,20.064 12.749,18.278 12.464,15.903 C12.4545,15.8365 12.445,15.7795 12.426,15.7035 C12.1505,14.2025 11.3525,12.92 10.241,12.008 C10.6115,12.084 11.001,12.1125 11.4,12.1125 C12.6635,12.1125 13.9745,11.7515 15.3045,11.039 C15.3045,11.039 15.314,11.039 15.314,11.0295 L15.333,11.02 C15.352,11.0105 15.371,10.9915 15.39,10.9915 C15.39,10.9915 15.808,10.7445 16.4445,10.583 C16.473,10.583 16.5015,10.5735 16.5395,10.5735 C16.72,10.5545 16.9005,10.545 17.081,10.545 C18.2875,10.545 19.4085,11.02 20.2635,11.799 C20.9285,10.925 21.964,10.3645 23.1515,10.3645 C23.218,10.3645 23.275,10.374 23.3415,10.374 C22.8907607,9.80923336 22.3631347,9.31038688 21.774,8.892 C20.4725,7.847 19,7.3245 17.3945,7.3245 C16.1215,7.3245 14.7725,7.6855 13.7845,8.284 C13.1955,8.5975 12.3215,8.968 11.419,8.968 C10.5735,8.968 9.8895,8.6545 9.329,8.0085 C8.854,7.4575 8.5975,6.7925 8.588,6.0895 C8.6355,5.339 8.9395,4.6455 9.4525,4.142 C10.013,3.5815 10.7635,3.2775 11.5615,3.2775 C12.369,3.2775 13.1195,3.591 13.6895,4.161 C13.8985,4.3795 14.079,4.617 14.2215,4.883 C14.5065,5.4245 15.0575,5.757 15.656,5.757 C15.9125,5.757 16.1785,5.6905 16.4065,5.5765 C17.195,5.168 17.5085,4.18 17.0905,3.3915 C16.796,2.831 16.4255,2.3275 15.9885,1.8905 C14.8105,0.703 13.243,0.0475 11.571,0.0475 C10.0985,0.0475 8.6735,0.57 7.5525,1.5105 C7.5335,1.52 7.505,1.539 7.467,1.5675 C7.4195,1.6055 7.372,1.653 7.3245,1.7005 L7.2675,1.7575 C7.258,1.767 7.2485,1.7765 7.239,1.7765 C7.22,1.7955 7.1915,1.8145 7.1725,1.843 C7.163,1.8525 7.144,1.8715 7.1345,1.8905 C7.0205,2.0045 6.916,2.1185 6.8115,2.2515 L6.7925,2.2705 C6.7735,2.2895 6.7545,2.318 6.7355,2.337 C5.9185,3.306 5.472,4.4935 5.415,5.7475 C5.339,7.3245 5.8805,8.8635 6.9445,10.0795 C7.163,10.3265 7.3815,10.5545 7.6285,10.754 C6.973,10.6115 6.27,10.5735 5.5765,10.659 C2.166,11.0675 -0.285,14.174 0.1235,17.5845 C0.475,20.7195 3.135,23.085 6.289,23.085 C6.536,23.085 6.783,23.066 7.03,23.0375 C7.657,22.9615 8.265,22.8 8.8255,22.5435 C9.6425,22.1825 10.013,21.223 9.6425,20.406 C9.386,19.8265 8.797,19.4465 8.1605,19.4465 C7.9325,19.4465 7.714,19.494 7.505,19.589 C7.2295,19.7125 6.9445,19.7885 6.6405,19.8265 C6.5265,19.836 6.403,19.8455 6.2795,19.8455 C4.769,19.8455 3.4865,18.7055 3.306,17.2045 C3.211,16.416 3.4295,15.6275 3.933,15.0005 C4.427,14.3735 5.1395,13.9745 5.928,13.8795 C6.042,13.87 6.1655,13.8605 6.2795,13.8605 C7.79,13.8605 9.0725,14.991 9.253,16.492 C9.2625,16.5585 9.272,16.6155 9.2815,16.6725 C9.5855,18.525 10.5545,20.216 11.989,21.432 C13.4235,22.648 15.2475,23.313 17.119,23.313 C17.4325,23.313 17.746,23.294 18.0595,23.256 C21.47,22.8475 24.1205,20.33 24.8615,17.1665 C24.3675,17.4515 23.769,17.613 23.142,17.613 L23.142,17.613 Z" id="Path" fill="url(#radialGradient-6)"></path><path d="M23.142,17.613 C22.5435,17.613 21.9735,17.461 21.47,17.2045 C20.824,18.7055 19.4275,19.8265 17.6985,20.0355 C17.5085,20.0545 17.328,20.064 17.138,20.064 C14.7535,20.064 12.749,18.278 12.464,15.903 C12.4545,15.8365 12.445,15.7795 12.426,15.7035 C12.1505,14.2025 11.3525,12.92 10.241,12.008 C10.6115,12.084 11.001,12.1125 11.4,12.1125 C12.6635,12.1125 13.9745,11.7515 15.3045,11.039 C15.3045,11.039 15.314,11.039 15.314,11.0295 L15.333,11.02 C15.352,11.0105 15.371,10.9915 15.39,10.9915 C15.39,10.9915 15.808,10.7445 16.4445,10.583 C16.473,10.583 16.5015,10.5735 16.5395,10.5735 C16.72,10.5545 16.9005,10.545 17.081,10.545 C18.2875,10.545 19.4085,11.02 20.2635,11.799 C20.9285,10.925 21.964,10.3645 23.1515,10.3645 C23.218,10.3645 23.275,10.374 23.3415,10.374 C22.8907607,9.80923336 22.3631347,9.31038688 21.774,8.892 C20.4725,7.847 19,7.3245 17.3945,7.3245 C16.1215,7.3245 14.7725,7.6855 13.7845,8.284 C13.1955,8.5975 12.3215,8.968 11.419,8.968 C10.5735,8.968 9.8895,8.6545 9.329,8.0085 C8.854,7.4575 8.5975,6.7925 8.588,6.0895 C8.6355,5.339 8.9395,4.6455 9.4525,4.142 C10.013,3.5815 10.7635,3.2775 11.5615,3.2775 C12.369,3.2775 13.1195,3.591 13.6895,4.161 C13.8985,4.3795 14.079,4.617 14.2215,4.883 C14.5065,5.4245 15.0575,5.757 15.656,5.757 C15.9125,5.757 16.1785,5.6905 16.4065,5.5765 C17.195,5.168 17.5085,4.18 17.0905,3.3915 C16.796,2.831 16.4255,2.3275 15.9885,1.8905 C14.8105,0.703 13.243,0.0475 11.571,0.0475 C10.0985,0.0475 8.6735,0.57 7.5525,1.5105 C7.5335,1.52 7.505,1.539 7.467,1.5675 C7.4195,1.6055 7.372,1.653 7.3245,1.7005 L7.2675,1.7575 C7.258,1.767 7.2485,1.7765 7.239,1.7765 C7.22,1.7955 7.1915,1.8145 7.1725,1.843 C7.163,1.8525 7.144,1.8715 7.1345,1.8905 C7.0205,2.0045 6.916,2.1185 6.8115,2.2515 L6.7925,2.2705 C6.7735,2.2895 6.7545,2.318 6.7355,2.337 C5.9185,3.306 5.472,4.4935 5.415,5.7475 C5.339,7.3245 5.8805,8.8635 6.9445,10.0795 C7.163,10.3265 7.3815,10.5545 7.6285,10.754 C6.973,10.6115 6.27,10.5735 5.5765,10.659 C2.166,11.0675 -0.285,14.174 0.1235,17.5845 C0.475,20.7195 3.135,23.085 6.289,23.085 C6.536,23.085 6.783,23.066 7.03,23.0375 C7.657,22.9615 8.265,22.8 8.8255,22.5435 C9.6425,22.1825 10.013,21.223 9.6425,20.406 C9.386,19.8265 8.797,19.4465 8.1605,19.4465 C7.9325,19.4465 7.714,19.494 7.505,19.589 C7.2295,19.7125 6.9445,19.7885 6.6405,19.8265 C6.5265,19.836 6.403,19.8455 6.2795,19.8455 C4.769,19.8455 3.4865,18.7055 3.306,17.2045 C3.211,16.416 3.4295,15.6275 3.933,15.0005 C4.427,14.3735 5.1395,13.9745 5.928,13.8795 C6.042,13.87 6.1655,13.8605 6.2795,13.8605 C7.79,13.8605 9.0725,14.991 9.253,16.492 C9.2625,16.5585 9.272,16.6155 9.2815,16.6725 C9.5855,18.525 10.5545,20.216 11.989,21.432 C13.4235,22.648 15.2475,23.313 17.119,23.313 C17.4325,23.313 17.746,23.294 18.0595,23.256 C21.47,22.8475 24.1205,20.33 24.8615,17.1665 C24.3675,17.4515 23.769,17.613 23.142,17.613 L23.142,17.613 Z" id="Path" fill="#F6921E" opacity="0.6"></path><circle id="Oval" fill="url(#radialGradient-7)" cx="23.142" cy="13.9935" r="1.938"></circle><circle id="Oval" fill="#F6921E" opacity="0.6" cx="23.142" cy="13.9935" r="1.938"></circle><path d="M8.474,31.8155 C7.714,32.5375 6.707,32.8985 5.7095,32.8985 C3.154,32.8985 1.824,31.198 1.805,29.2505 C1.786,27.322 3.1065,25.5265 5.7095,25.5265 C6.707,25.5265 7.714,25.8875 8.474,26.6095 L8.075,26.942 C7.429,26.3245 6.574,26.03 5.7095,26.03 C3.496,26.03 2.3655,27.512 2.375,29.241 C2.394,30.932 3.5245,32.395 5.7095,32.395 C6.5645,32.395 7.429,32.0815 8.0845,31.483 L8.474,31.8155 L8.474,31.8155 Z M17.043,26.999 C16.492,26.1535 15.599,26.03 14.744,26.0205 C13.851,26.0205 12.445,26.334 12.445,27.4835 C12.445,28.3955 13.4805,28.614 14.763,28.842 C16.226,29.108 17.746,29.355 17.746,30.913 C17.7365,32.5375 16.017,32.927 14.744,32.927 C13.566,32.927 12.217,32.4615 11.6375,31.3595 L12.16,31.1125 C12.6255,31.9865 13.813,32.4235 14.7535,32.4235 C15.6845,32.4235 17.1665,32.1765 17.1665,30.9035 C17.176,29.8205 15.922,29.583 14.6775,29.355 C13.2905,29.0985 11.875,28.8325 11.875,27.5025 C11.8465,25.9825 13.509,25.5075 14.7535,25.5075 C15.8365,25.5075 16.777,25.669 17.5275,26.733 L17.043,26.999 L17.043,26.999 Z M21.166,32.813 L21.166,25.612 L21.736,25.612 L21.736,32.813 L21.166,32.813 Z" id="Shape" fill="#000000"></path></g></g><g id="CNI-VERT" transform="translate(298.000000, 56.800000)" fill-rule="nonzero"><path d="M17.9242288,4.10282776 L17.843027,4.06008997 L12.3768638,0.0683804627 L3.19678663,6.96625964 L4.95330977,8.24839332 L4.94903599,8.24839332 L12.4794344,13.744473 L21.6723329,6.83804627 L17.9242288,4.10282776 L17.9242288,4.10282776 Z M5.6969473,5.65848329 L10.6459833,1.94029563 L12.0264139,2.94463368 L7.07737789,6.66282134 L5.6969473,5.65848329 Z M13.8128535,9.56044344 L12.449518,10.5861504 L7.46201799,6.94489075 L12.4067802,3.23097686 L15.6334833,5.58582905 L12.0520566,8.27830977 L13.8128535,9.56044344 Z M16.0181234,5.86789846 L17.3942802,6.8722365 L14.1932198,9.27410026 L12.817063,8.26976221 L16.0181234,5.86789846 L16.0181234,5.86789846 Z M18.0438946,6.97053342 L18.1379177,6.88933162 L18.1678342,6.86796272 L16.4027635,5.58155527 L17.766099,4.55584833 L20.9073265,6.84659383 L15.9582905,10.5647815 L14.5906812,9.568991 L18.0438946,6.97053342 L18.0438946,6.97053342 Z M16.0181234,5.29521208 L11.0263496,1.65395244 L12.3811375,0.636793059 L17.3686375,4.2780527 L16.0181234,5.29521208 L16.0181234,5.29521208 Z M5.31658098,5.94482648 L6.69701157,6.94916452 L5.34222365,7.96632391 L3.96179306,6.96198586 L5.31658098,5.94482648 Z M7.08165167,7.23123393 L12.081973,10.8810411 L10.7271851,11.8982005 L5.72686375,8.24839332 L7.08165167,7.23123393 L7.08165167,7.23123393 Z M14.2103149,9.85106041 L15.5779242,10.8468509 L12.4794344,13.1760604 L11.1118252,12.1802699 L14.2103149,9.85106041 Z" id="Shape" fill="#00B0AD"></path><path d="M6.79530848,32.1302699 C6.79530848,32.1302699 5.92345758,33.2072622 4.09428021,33.2072622 C1.69241645,33.2072622 0.0299164524,31.3396208 0.0299164524,28.9377571 C0.0299164524,26.5102506 1.69241645,24.6554306 4.09428021,24.6554306 C5.92345758,24.6554306 6.79530848,25.7196015 6.79530848,25.7196015 L6.35938303,26.3179306 C6.35938303,26.3179306 5.52599614,25.3905206 4.11137532,25.3905206 C2.17535347,25.3905206 0.837660668,26.9974614 0.837660668,28.9377571 C0.837660668,30.8609576 2.17535347,32.4678985 4.11137532,32.4678985 C5.53026992,32.4678985 6.35938303,31.5404884 6.35938303,31.5404884 L6.79530848,32.1302699 L6.79530848,32.1302699 Z M17.2703406,33.0149422 L16.6720116,33.0149422 L11.308419,26.155527 L11.308419,33.0149422 L10.5305913,33.0149422 L10.5305913,24.8349293 L11.1588368,24.8349293 L16.4925129,31.6516067 L16.4925129,24.8349293 L17.2703406,24.8349293 L17.2703406,33.0149422 Z M23.3775707,33.0149422 L22.5997429,33.0149422 L22.5997429,24.8349293 L23.3775707,24.8349293 L23.3775707,33.0149422 Z" id="Shape" fill="#003B49"></path><path d="M12.4324229,20.1936054 C12.3811375,20.1936054 12.334126,20.1765103 12.2871144,20.1465938 L3.25234576,13.667545 C3.1625964,13.6034383 3.10703728,13.4837725 3.10703728,13.3555591 C3.10703728,13.2273458 3.1625964,13.1076799 3.25234576,13.0435733 L7.76973008,9.80404884 L8.06034704,10.4237468 L3.9746144,13.3555591 L12.4324229,19.4200514 L20.8902314,13.3555591 L16.8087725,10.4280206 L17.0993895,9.80832262 L21.6167738,13.047847 C21.7065231,13.1119537 21.7620823,13.2316195 21.7620823,13.3598329 C21.7620823,13.4880463 21.7065231,13.6077121 21.6167738,13.6718188 L12.5777314,20.1465938 C12.5349936,20.1765103 12.4837082,20.1936054 12.4324229,20.1936054 Z" id="Path" fill="url(#linearGradient-8)"></path><path d="M12.4324229,13.7145566 C12.3811375,13.7145566 12.334126,13.6974614 12.2871144,13.667545 L3.25234576,7.18849614 C3.1625964,7.12438946 3.10703728,7.00472365 3.10703728,6.87651028 C3.10703728,6.74829692 3.1625964,6.62863111 3.25234576,6.56452442 L12.2913882,0.0897493573 C12.3811375,0.0256426735 12.4922558,0.0256426735 12.5820051,0.0897493573 L21.6210476,6.5687982 C21.7107969,6.63290488 21.766356,6.75257069 21.766356,6.88078406 C21.766356,7.00899743 21.7107969,7.12866324 21.6210476,7.19276992 L12.5777314,13.667545 C12.5349936,13.7017352 12.4837082,13.7145566 12.4324229,13.7145566 L12.4324229,13.7145566 Z M3.9746144,6.88078406 L12.4324229,12.9452763 L20.8945051,6.88078406 L12.4324229,0.816291774 L3.9746144,6.88078406 Z" id="Shape" fill="url(#linearGradient-9)"></path><polygon id="Path" fill="url(#linearGradient-10)" points="3.10703728 6.88078406 3.68399743 6.88078406 3.68399743 13.3598329 3.10703728 13.3598329"></polygon></g><g id="Group-11" transform="translate(188.960000, 103.000000)"><path d="M36.3088703,34.8530259 C35.8255749,34.5993205 35.5197519,34.062165 35.5197519,33.4742684 L35.5197519,27.4955703 L4.61163548,27.4955703 C3.84945484,27.4955703 3.84945484,7.54208074 4.61163548,7.54208074 L35.5197519,7.54208074 L35.5197519,1.56688197 C35.5197519,0.977235708 35.8255749,0.441829904 36.3088703,0.188124539 C36.7905812,-0.0655808265 37.3594437,0.0114056291 37.7746023,0.38234037 L55.5313514,16.3360336 C55.8530201,16.6247328 56.04,17.0604062 56.04,17.5188255 C56.04,17.9772449 55.8530201,18.4129182 55.5313514,18.7033671 L37.7746023,34.65881 C37.5226549,34.8845203 37.2136627,35 36.9015014,35 C36.7002604,35 36.4974348,34.9527583 36.3088703,34.8530259 Z" id="Fill-6-Copy-7" fill="url(#linearGradient-11)" opacity="0.719424293"></path><path d="M36.5807262,34.8130259 C36.0433444,34.5593205 35.7032962,34.022165 35.7032962,33.4342684 L35.7032962,27.4555703 L1.53638345,27.4555703 C0.688905883,27.4555703 2.16715534e-13,26.7731903 2.16715534e-13,25.9298387 C2.16715534e-13,25.0864871 0.688905883,24.4041071 1.53638345,24.4041071 L37.2396797,24.4041071 C38.0871572,24.4041071 38.7760631,25.0864871 38.7760631,25.9298387 L38.7760631,30.2235833 L54.5486602,17.4788255 L38.7760631,4.73581741 L38.7760631,9.02956201 C38.7760631,9.87116394 38.0871572,10.5552936 37.2396797,10.5552936 L1.53638345,10.5552936 C0.688905883,10.5552936 2.16715534e-13,9.87116394 2.16715534e-13,9.02956201 C2.16715534e-13,8.18621038 0.688905883,7.50208074 1.53638345,7.50208074 L35.7032962,7.50208074 L35.7032962,1.52688197 C35.7032962,0.937235708 36.0433444,0.401829904 36.5807262,0.148124539 C37.1163461,-0.105580826 37.748871,-0.0285943709 38.2104908,0.34234037 L57.9544277,16.2960336 C58.3120949,16.5847328 58.52,17.0204062 58.52,17.4788255 C58.52,17.9372449 58.3120949,18.3729182 57.9544277,18.6633671 L38.2104908,34.61881 C37.9303474,34.8445203 37.5867755,34.96 37.2396797,34.96 C37.0159174,34.96 36.7903932,34.9127583 36.5807262,34.8130259 Z" id="Fill-6-Copy" fill="url(#linearGradient-12)"></path></g><g id="Group-9" transform="translate(115.000000, 249.400000)"><g id="Group-5" stroke="#6D7278"><path d="M32.5762217,13.2556641 C32.7910465,13.2556641 32.9855339,13.342739 33.126315,13.4835202 C33.2670962,13.6243014 33.3541712,13.8187888 33.3541712,14.0336136 L33.3541712,14.0336136 L33.3541712,30.2277145 C33.3541712,30.4425394 33.2670962,30.6370267 33.126315,30.7778079 C32.9855339,30.9185891 32.7910465,31.0056641 32.5762217,31.0056641 L32.5762217,31.0056641 L-0.645828817,31.0056641 L-0.645828817,13.2556641 Z" id="Rectangle" transform="translate(16.354171, 22.130664) scale(-1, 1) rotate(90.000000) translate(-16.354171, -22.130664) "></path><polyline id="Path-5" stroke-width="0.75" stroke-linecap="round" points="0.633223917 4.63066406 26.1666712 4.63066406 26.1666712 0"></polyline></g><g id="Group-8" transform="translate(14.541671, 24.555664)" fill="#6D7278"><circle id="Oval" cx="1.875" cy="1.875" r="1.875"></circle><circle id="Oval-Copy" cx="1.875" cy="8.125" r="1.875"></circle></g><polygon id="Path-7" fill="#6D7278" fill-rule="nonzero" points="22.2015833 12.1306641 22.2015833 13.3806641 10.5536341 13.3806641 10.5536341 12.1306641"></polygon></g><g id="Group-9-Copy" transform="translate(250.000000, 249.400000)"><g id="Group-5" stroke="#6D7278"><path d="M32.5762217,13.2556641 C32.7910465,13.2556641 32.9855339,13.342739 33.126315,13.4835202 C33.2670962,13.6243014 33.3541712,13.8187888 33.3541712,14.0336136 L33.3541712,14.0336136 L33.3541712,30.2277145 C33.3541712,30.4425394 33.2670962,30.6370267 33.126315,30.7778079 C32.9855339,30.9185891 32.7910465,31.0056641 32.5762217,31.0056641 L32.5762217,31.0056641 L-0.645828817,31.0056641 L-0.645828817,13.2556641 Z" id="Rectangle" transform="translate(16.354171, 22.130664) scale(-1, 1) rotate(90.000000) translate(-16.354171, -22.130664) "></path><polyline id="Path-5" stroke-width="0.75" stroke-linecap="round" points="0.633223917 4.63066406 26.1666712 4.63066406 26.1666712 0"></polyline></g><g id="Group-8" transform="translate(14.541671, 24.555664)" fill="#6D7278"><circle id="Oval" cx="1.875" cy="1.875" r="1.875"></circle><circle id="Oval-Copy" cx="1.875" cy="8.125" r="1.875"></circle></g><polygon id="Path-7" fill="#6D7278" fill-rule="nonzero" points="22.2015833 12.1306641 22.2015833 13.3806641 10.5536341 13.3806641 10.5536341 12.1306641"></polygon></g><g id="Group-9-Copy-2" transform="translate(205.000000, 249.400000)"><g id="Group-5" stroke="#6D7278"><path d="M32.5762217,13.2556641 C32.7910465,13.2556641 32.9855339,13.342739 33.126315,13.4835202 C33.2670962,13.6243014 33.3541712,13.8187888 33.3541712,14.0336136 L33.3541712,14.0336136 L33.3541712,30.2277145 C33.3541712,30.4425394 33.2670962,30.6370267 33.126315,30.7778079 C32.9855339,30.9185891 32.7910465,31.0056641 32.5762217,31.0056641 L32.5762217,31.0056641 L-0.645828817,31.0056641 L-0.645828817,13.2556641 Z" id="Rectangle" transform="translate(16.354171, 22.130664) scale(-1, 1) rotate(90.000000) translate(-16.354171, -22.130664) "></path><polyline id="Path-5" stroke-width="0.75" stroke-linecap="round" points="0.633223917 4.63066406 26.1666712 4.63066406 26.1666712 0"></polyline></g><g id="Group-8" transform="translate(14.541671, 24.555664)" fill="#6D7278"><circle id="Oval" cx="1.875" cy="1.875" r="1.875"></circle><circle id="Oval-Copy" cx="1.875" cy="8.125" r="1.875"></circle></g><polygon id="Path-7" fill="#6D7278" fill-rule="nonzero" points="22.2015833 12.1306641 22.2015833 13.3806641 10.5536341 13.3806641 10.5536341 12.1306641"></polygon></g><g id="Group-9-Copy-3" transform="translate(160.000000, 249.400000)"><g id="Group-5" stroke="#6D7278"><path d="M32.5762217,13.2556641 C32.7910465,13.2556641 32.9855339,13.342739 33.126315,13.4835202 C33.2670962,13.6243014 33.3541712,13.8187888 33.3541712,14.0336136 L33.3541712,14.0336136 L33.3541712,30.2277145 C33.3541712,30.4425394 33.2670962,30.6370267 33.126315,30.7778079 C32.9855339,30.9185891 32.7910465,31.0056641 32.5762217,31.0056641 L32.5762217,31.0056641 L-0.645828817,31.0056641 L-0.645828817,13.2556641 Z" id="Rectangle" transform="translate(16.354171, 22.130664) scale(-1, 1) rotate(90.000000) translate(-16.354171, -22.130664) "></path><polyline id="Path-5" stroke-width="0.75" stroke-linecap="round" points="0.633223917 4.63066406 26.1666712 4.63066406 26.1666712 0"></polyline></g><g id="Group-8" transform="translate(14.541671, 24.555664)" fill="#6D7278"><circle id="Oval" cx="1.875" cy="1.875" r="1.875"></circle><circle id="Oval-Copy" cx="1.875" cy="8.125" r="1.875"></circle></g><polygon id="Path-7" fill="#6D7278" fill-rule="nonzero" points="22.2015833 12.1306641 22.2015833 13.3806641 10.5536341 13.3806641 10.5536341 12.1306641"></polygon></g><g id="Group-15" transform="translate(38.640000, 205.960000)"><g id="Rectangle"><use fill="black" fill-opacity="1" filter="url(#filter-14)" xlink:href="#path-13"></use><use fill="#FFFFFF" fill-rule="evenodd" xlink:href="#path-13"></use></g><g id="008-server-1-copy-5" fill="#6D7278" fill-rule="nonzero"><path d="M40.4968235,18.2235706 L40.4968235,11.4741 C40.4929426,11.4426306 40.486615,11.4114987 40.477925,11.3809573 C40.4791062,11.3585153 40.4791062,11.3359046 40.477925,11.3134626 L38.0325918,1.53347975 C37.8070751,0.632087954 36.9970543,0 36.0678209,0 L4.4290026,0 C3.49976924,0 2.6897484,0.632087954 2.46423171,1.53347975 L0.0202484118,11.3100879 C0.018982886,11.3325299 0.018982886,11.3551406 0.0202484118,11.3775826 C0.0109678897,11.4091364 0.00413405074,11.4414495 0,11.4741 L0,18.2235706 C0.00295289338,19.289987 0.511609871,20.2916928 1.37081748,20.9233589 C0.511609871,21.5550249 0.00295289338,22.5567307 0,23.6231471 L0,27.6728294 C0.00295289338,28.7392458 0.511609871,29.7409516 1.37081748,30.3726177 C0.511609871,31.0042838 0.00295289338,32.0059896 0,33.0724059 L0,37.1220883 C0.00219357794,38.9849422 1.51188141,40.49463 3.37473529,40.4968236 L37.1220882,40.4968236 C38.9849421,40.49463 40.49463,38.9849422 40.4968235,37.1220883 L40.4968235,33.0724059 C40.4938706,32.0059896 39.9852137,31.0042838 39.1260061,30.3726177 C39.9852137,29.7409516 40.4938706,28.7392458 40.4968235,27.6728294 L40.4968235,23.6231471 C40.4938706,22.5567307 39.9852137,21.5550249 39.1260061,20.9233589 C39.9852137,20.2916928 40.4938706,19.289987 40.4968235,18.2235706 Z M3.77362901,1.86150402 C3.8486325,1.56064637 4.11894879,1.34964105 4.4290026,1.34989392 L36.0678209,1.34989392 C36.3778747,1.34964105 36.648191,1.56064637 36.7231945,1.86150402 L38.9572693,10.799153 L1.53955424,10.799153 L3.77362901,1.86150402 Z M39.1469294,33.0724059 L39.1469294,37.1220883 C39.1469294,38.2403912 38.2403911,39.1469294 37.1220882,39.1469294 L3.37473529,39.1469294 C2.25643239,39.1469294 1.34989412,38.2403912 1.34989412,37.1220883 L1.34989412,33.0724059 C1.34989412,31.954103 2.25643239,31.0475647 3.37473529,31.0475647 L37.1220882,31.0475647 C38.2403911,31.0475647 39.1469294,31.954103 39.1469294,33.0724059 Z M39.1469294,23.6231471 L39.1469294,27.6728294 C39.1469294,28.7911324 38.2403911,29.6976706 37.1220882,29.6976706 L3.37473529,29.6976706 C2.25643239,29.6976706 1.34989412,28.7911324 1.34989412,27.6728294 L1.34989412,23.6231471 C1.34989412,22.5048442 2.25643239,21.5983059 3.37473529,21.5983059 L37.1220882,21.5983059 C38.2403911,21.5983059 39.1469294,22.5048442 39.1469294,23.6231471 Z M39.1469294,18.2235706 C39.1469294,19.3418735 38.2403911,20.2484118 37.1220882,20.2484118 L37.1220882,20.2484118 L3.37473529,20.2484118 C2.25643239,20.2484118 1.34989412,19.3418735 1.34989412,18.2235706 L1.34989412,18.2235706 L1.34989412,12.1490471 L39.1469294,12.1490471 L39.1469294,18.2235706 Z" id="Shape"></path><g id="Group" transform="translate(4.647176, 13.277647)"><path d="M2.70864,5.61746606 C4.20457109,5.61746606 5.41728,4.40567171 5.41728,2.91086878 C5.41728,1.41606585 4.20457109,0.204271493 2.70864,0.204271493 C1.21270892,0.204271493 0,1.41606585 0,2.91086878 C0,4.40567171 1.21270892,5.61746606 2.70864,5.61746606 Z M2.70864,1.55757014 C3.45664787,1.55757014 4.06296,2.16342502 4.06296,2.91086878 C4.06296,3.65831253 3.45664787,4.26416742 2.70864,4.26416742 C1.96063214,4.26416742 1.35432,3.65831253 1.35432,2.91086878 C1.35432,2.16342502 1.96063214,1.55757014 2.70864,1.55757014 Z" id="Shape"></path><path d="M2.70864,15.0905566 C4.20457109,15.0905566 5.41728,13.8787622 5.41728,12.3839593 C5.41728,10.8891563 4.20457109,9.67736199 2.70864,9.67736199 C1.21270892,9.67736199 0,10.8891563 0,12.3839593 C0,13.8787622 1.21270892,15.0905566 2.70864,15.0905566 Z M2.70864,11.0306606 C3.45664787,11.0306606 4.06296,11.6365155 4.06296,12.3839593 C4.06296,13.131403 3.45664787,13.7372579 2.70864,13.7372579 C1.96063214,13.7372579 1.35432,13.131403 1.35432,12.3839593 C1.35432,11.6365155 1.96063214,11.0306606 2.70864,11.0306606 Z" id="Shape"></path><path d="M2.70864,24.5636471 C4.20457109,24.5636471 5.41728,23.3518527 5.41728,21.8570498 C5.41728,20.3622468 4.20457109,19.1504525 2.70864,19.1504525 C1.21270892,19.1504525 0,20.3622468 0,21.8570498 C0,23.3518527 1.21270892,24.5636471 2.70864,24.5636471 Z M2.70864,20.5037511 C3.45664787,20.5037511 4.06296,21.109606 4.06296,21.8570498 C4.06296,22.6044935 3.45664787,23.2103484 2.70864,23.2103484 C1.96063214,23.2103484 1.35432,22.6044935 1.35432,21.8570498 C1.35432,21.109606 1.96063214,20.5037511 2.70864,20.5037511 Z" id="Shape"></path><polygon id="Path" points="16.9688329 1.55757014 18.3231529 1.55757014 18.3231529 4.26416742 16.9688329 4.26416742"></polygon><polygon id="Path" points="19.6774729 1.55757014 21.0317929 1.55757014 21.0317929 4.26416742 19.6774729 4.26416742"></polygon><polygon id="Path" points="22.3861129 1.55757014 23.7404329 1.55757014 23.7404329 4.26416742 22.3861129 4.26416742"></polygon><polygon id="Path" points="25.0947529 1.55757014 26.4490729 1.55757014 26.4490729 4.26416742 25.0947529 4.26416742"></polygon><polygon id="Path" points="27.8033929 1.55757014 29.1577129 1.55757014 29.1577129 4.26416742 27.8033929 4.26416742"></polygon><polygon id="Path" points="30.5120329 1.55757014 31.8663529 1.55757014 31.8663529 4.26416742 30.5120329 4.26416742"></polygon><polygon id="Path" points="16.9688329 11.0306606 18.3231529 11.0306606 18.3231529 13.7372579 16.9688329 13.7372579"></polygon><polygon id="Path" points="19.6774729 11.0306606 21.0317929 11.0306606 21.0317929 13.7372579 19.6774729 13.7372579"></polygon><polygon id="Path" points="22.3861129 11.0306606 23.7404329 11.0306606 23.7404329 13.7372579 22.3861129 13.7372579"></polygon><polygon id="Path" points="25.0947529 11.0306606 26.4490729 11.0306606 26.4490729 13.7372579 25.0947529 13.7372579"></polygon><polygon id="Path" points="27.8033929 11.0306606 29.1577129 11.0306606 29.1577129 13.7372579 27.8033929 13.7372579"></polygon><polygon id="Path" points="30.5120329 11.0306606 31.8663529 11.0306606 31.8663529 13.7372579 30.5120329 13.7372579"></polygon><polygon id="Path" points="16.9688329 20.5037511 18.3231529 20.5037511 18.3231529 23.2103484 16.9688329 23.2103484"></polygon><polygon id="Path" points="19.6774729 20.5037511 21.0317929 20.5037511 21.0317929 23.2103484 19.6774729 23.2103484"></polygon><polygon id="Path" points="22.3861129 20.5037511 23.7404329 20.5037511 23.7404329 23.2103484 22.3861129 23.2103484"></polygon><polygon id="Path" points="25.0947529 20.5037511 26.4490729 20.5037511 26.4490729 23.2103484 25.0947529 23.2103484"></polygon><polygon id="Path" points="27.8033929 20.5037511 29.1577129 20.5037511 29.1577129 23.2103484 27.8033929 23.2103484"></polygon><polygon id="Path" points="30.5120329 20.5037511 31.8663529 20.5037511 31.8663529 23.2103484 30.5120329 23.2103484"></polygon></g></g></g><path d="M37.5888672,260 L39.2104492,257.37207 L40.8188477,260 L42.0273438,260 L39.8652344,256.686523 L41.8735352,253.575195 L40.7397461,253.575195 L39.2543945,256.005371 L37.769043,253.575195 L36.6000977,253.575195 L38.5952148,256.668945 L36.4638672,260 L37.5888672,260 Z M44.6289062,260.087891 C45.2939453,260.087891 45.8212891,259.928223 46.2109375,259.608887 C46.6005859,259.289551 46.7954102,258.864746 46.7954102,258.334473 C46.7954102,257.991699 46.689209,257.681152 46.4768066,257.402832 C46.2644043,257.124512 45.90625,256.859375 45.4023438,256.607422 C46.1933594,256.217773 46.5888672,255.693359 46.5888672,255.03418 C46.5888672,254.56543 46.4116211,254.191162 46.0571289,253.911377 C45.7026367,253.631592 45.2207031,253.491699 44.6113281,253.491699 C44.0224609,253.491699 43.5449219,253.630127 43.1787109,253.906982 C42.8125,254.183838 42.6293945,254.555176 42.6293945,255.020996 C42.6293945,255.346191 42.7128906,255.63916 42.8798828,255.899902 C43.046875,256.160645 43.3266602,256.408203 43.7192383,256.642578 C43.262207,256.865234 42.9333496,257.119385 42.732666,257.405029 C42.5319824,257.690674 42.4316406,258.012207 42.4316406,258.369629 C42.4316406,258.91748 42.6235352,259.34082 43.0073242,259.639648 C43.3911133,259.938477 43.9316406,260.087891 44.6289062,260.087891 Z M44.6289062,256.185547 C44.3359375,256.047852 44.1279297,255.929932 44.0048828,255.831787 C43.8818359,255.733643 43.7880859,255.624512 43.7236328,255.504395 C43.6591797,255.384277 43.6269531,255.248047 43.6269531,255.095703 C43.6269531,254.84668 43.7163086,254.649658 43.8950195,254.504639 C44.0737305,254.359619 44.3095703,254.287109 44.6025391,254.287109 C44.9013672,254.287109 45.1408691,254.359619 45.3210449,254.504639 C45.5012207,254.649658 45.5913086,254.84668 45.5913086,255.095703 C45.5913086,255.324219 45.5187988,255.52417 45.3737793,255.695557 C45.2287598,255.866943 44.9804688,256.030273 44.6289062,256.185547 Z M44.6113281,259.296875 C44.2451172,259.296875 43.9550781,259.212646 43.7412109,259.044189 C43.5273438,258.875732 43.4204102,258.63916 43.4204102,258.334473 C43.4204102,258.070801 43.5053711,257.837158 43.675293,257.633545 C43.8452148,257.429932 44.1235352,257.243164 44.5102539,257.073242 L44.5102539,257.073242 L44.6376953,257.130371 C45.0302734,257.297363 45.3232422,257.479004 45.5166016,257.675293 C45.7099609,257.871582 45.8066406,258.088379 45.8066406,258.325684 C45.8066406,258.624512 45.7019043,258.861084 45.4924316,259.0354 C45.282959,259.209717 44.9892578,259.296875 44.6113281,259.296875 Z M49.8540039,260.087891 C50.5043945,260.087891 51.0178223,259.892334 51.3942871,259.501221 C51.770752,259.110107 51.9589844,258.577637 51.9589844,257.903809 C51.9589844,257.291504 51.7963867,256.806641 51.4711914,256.449219 C51.1459961,256.091797 50.6918945,255.913086 50.1088867,255.913086 C49.7719727,255.913086 49.4790039,255.978271 49.2299805,256.108643 C48.980957,256.239014 48.7875977,256.422852 48.6499023,256.660156 L48.6499023,256.660156 L48.597168,256.660156 C48.6264648,255.845703 48.8139648,255.253906 49.159668,254.884766 C49.5053711,254.515625 50.0224609,254.331055 50.7109375,254.331055 C51.0039062,254.331055 51.2617188,254.363281 51.484375,254.427734 L51.484375,254.427734 L51.484375,253.566406 C51.2617188,253.516602 50.9892578,253.491699 50.6669922,253.491699 C48.6191406,253.491699 47.5952148,254.748535 47.5952148,257.262207 C47.5952148,257.856934 47.6867676,258.365967 47.869873,258.789307 C48.0529785,259.212646 48.3144531,259.534912 48.6542969,259.756104 C48.9941406,259.977295 49.394043,260.087891 49.8540039,260.087891 Z M49.8364258,259.235352 C49.487793,259.235352 49.201416,259.093994 48.9772949,258.811279 C48.7531738,258.528564 48.6411133,258.180664 48.6411133,257.767578 C48.6411133,257.594727 48.6953125,257.425537 48.8037109,257.26001 C48.9121094,257.094482 49.0600586,256.964111 49.2475586,256.868896 C49.4350586,256.773682 49.6401367,256.726074 49.862793,256.726074 C50.2231445,256.726074 50.4934082,256.831543 50.673584,257.04248 C50.8537598,257.253418 50.9438477,257.543457 50.9438477,257.912598 C50.9438477,258.337402 50.8479004,258.664062 50.6560059,258.892578 C50.4641113,259.121094 50.190918,259.235352 49.8364258,259.235352 Z M56.8808594,260.087891 C57.6074219,260.087891 58.1772461,259.925293 58.590332,259.600098 C59.003418,259.274902 59.2099609,258.82666 59.2099609,258.255371 C59.2099609,257.965332 59.1586914,257.713379 59.0561523,257.499512 C58.9536133,257.285645 58.7924805,257.09375 58.5727539,256.923828 C58.3530273,256.753906 58.0073242,256.570801 57.5356445,256.374512 C57.1166992,256.20166 56.8266602,256.0625 56.6655273,255.957031 C56.5043945,255.851562 56.3886719,255.739502 56.3183594,255.62085 C56.2480469,255.502197 56.2128906,255.359375 56.2128906,255.192383 C56.2128906,254.949219 56.3007812,254.753662 56.4765625,254.605713 C56.6523438,254.457764 56.9101562,254.383789 57.25,254.383789 C57.6982422,254.383789 58.2080078,254.503906 58.7792969,254.744141 L58.7792969,254.744141 L59.1132812,253.887207 C58.5039062,253.617676 57.8916016,253.48291 57.2763672,253.48291 C56.6347656,253.48291 56.1235352,253.636719 55.7426758,253.944336 C55.3618164,254.251953 55.1713867,254.673828 55.1713867,255.209961 C55.1713867,255.637695 55.2915039,256.003906 55.5317383,256.308594 C55.7719727,256.613281 56.1850586,256.884277 56.7709961,257.121582 C57.3393555,257.350098 57.7143555,257.547852 57.8959961,257.714844 C58.0776367,257.881836 58.168457,258.085449 58.168457,258.325684 C58.168457,258.592285 58.0695801,258.804688 57.8718262,258.962891 C57.6740723,259.121094 57.3671875,259.200195 56.9511719,259.200195 C56.6669922,259.200195 56.3601074,259.160645 56.0305176,259.081543 C55.7009277,259.002441 55.3896484,258.894043 55.0966797,258.756348 L55.0966797,258.756348 L55.0966797,259.749512 C55.5595703,259.975098 56.1542969,260.087891 56.8808594,260.087891 Z M62.4663086,260.087891 C62.7973633,260.087891 63.0917969,260.062988 63.3496094,260.013184 C63.6074219,259.963379 63.8623047,259.878418 64.1142578,259.758301 L64.1142578,259.758301 L64.1142578,258.918945 C63.8300781,259.044922 63.564209,259.13501 63.3166504,259.189209 C63.0690918,259.243408 62.8017578,259.270508 62.5146484,259.270508 C62.078125,259.270508 61.7397461,259.143799 61.4995117,258.890381 C61.2592773,258.636963 61.1318359,258.274414 61.1171875,257.802734 L61.1171875,257.802734 L64.355957,257.802734 L64.355957,257.244629 C64.355957,256.562012 64.1699219,256.025879 63.7978516,255.63623 C63.4257812,255.246582 62.9189453,255.051758 62.2773438,255.051758 C61.5859375,255.051758 61.0424805,255.278809 60.6469727,255.73291 C60.2514648,256.187012 60.0537109,256.811035 60.0537109,257.60498 C60.0537109,258.378418 60.2668457,258.985596 60.6931152,259.426514 C61.1193848,259.867432 61.7104492,260.087891 62.4663086,260.087891 Z M63.3408203,257.055664 L61.1347656,257.055664 C61.1728516,256.657227 61.2907715,256.354004 61.4885254,256.145996 C61.6862793,255.937988 61.9492188,255.833984 62.2773438,255.833984 C62.6054688,255.833984 62.8632812,255.937256 63.0507812,256.143799 C63.2382812,256.350342 63.3349609,256.654297 63.3408203,257.055664 L63.3408203,257.055664 Z M66.5620117,260 L66.5620117,257.459961 C66.5620117,257.029297 66.6901855,256.679199 66.9465332,256.409668 C67.2028809,256.140137 67.5375977,256.005371 67.9506836,256.005371 C68.1088867,256.005371 68.2612305,256.022949 68.4077148,256.058105 L68.4077148,256.058105 L68.5087891,255.095703 C68.3740234,255.066406 68.2026367,255.051758 67.9946289,255.051758 C67.6958008,255.051758 67.416748,255.136719 67.1574707,255.306641 C66.8981934,255.476562 66.6879883,255.706543 66.5268555,255.996582 L66.5268555,255.996582 L66.4741211,255.996582 L66.3378906,255.139648 L65.5292969,255.139648 L65.5292969,260 L66.5620117,260 Z M71.6333008,260 L73.487793,255.139648 L72.3891602,255.139648 L71.4003906,257.965332 C71.2216797,258.521973 71.1191406,258.905762 71.0927734,259.116699 L71.0927734,259.116699 L71.0576172,259.116699 C71.0224609,258.82373 70.9199219,258.439941 70.75,257.965332 L70.75,257.965332 L69.7612305,255.139648 L68.6713867,255.139648 L70.5170898,260 L71.6333008,260 Z M76.3486328,260.087891 C76.6796875,260.087891 76.9741211,260.062988 77.2319336,260.013184 C77.4897461,259.963379 77.7446289,259.878418 77.996582,259.758301 L77.996582,259.758301 L77.996582,258.918945 C77.7124023,259.044922 77.4465332,259.13501 77.1989746,259.189209 C76.951416,259.243408 76.684082,259.270508 76.3969727,259.270508 C75.9604492,259.270508 75.6220703,259.143799 75.3818359,258.890381 C75.1416016,258.636963 75.0141602,258.274414 74.9995117,257.802734 L74.9995117,257.802734 L78.2382812,257.802734 L78.2382812,257.244629 C78.2382812,256.562012 78.0522461,256.025879 77.6801758,255.63623 C77.3081055,255.246582 76.8012695,255.051758 76.159668,255.051758 C75.4682617,255.051758 74.9248047,255.278809 74.5292969,255.73291 C74.1337891,256.187012 73.9360352,256.811035 73.9360352,257.60498 C73.9360352,258.378418 74.1491699,258.985596 74.5754395,259.426514 C75.001709,259.867432 75.5927734,260.087891 76.3486328,260.087891 Z M77.2231445,257.055664 L75.0170898,257.055664 C75.0551758,256.657227 75.1730957,256.354004 75.3708496,256.145996 C75.5686035,255.937988 75.831543,255.833984 76.159668,255.833984 C76.487793,255.833984 76.7456055,255.937256 76.9331055,256.143799 C77.1206055,256.350342 77.2172852,256.654297 77.2231445,257.055664 L77.2231445,257.055664 Z M80.4443359,260 L80.4443359,257.459961 C80.4443359,257.029297 80.5725098,256.679199 80.8288574,256.409668 C81.0852051,256.140137 81.4199219,256.005371 81.8330078,256.005371 C81.9912109,256.005371 82.1435547,256.022949 82.2900391,256.058105 L82.2900391,256.058105 L82.3911133,255.095703 C82.2563477,255.066406 82.0849609,255.051758 81.8769531,255.051758 C81.578125,255.051758 81.2990723,255.136719 81.0397949,255.306641 C80.7805176,255.476562 80.5703125,255.706543 80.4091797,255.996582 L80.4091797,255.996582 L80.3564453,255.996582 L80.2202148,255.139648 L79.4116211,255.139648 L79.4116211,260 L80.4443359,260 Z" id="X86Server" fill="#024F71" fill-rule="nonzero"></path></g></g></g></svg> 