<?xml version="1.0" encoding="UTF-8"?> <svg xmlns="http://www.w3.org/2000/svg" xmlns:xlink="http://www.w3.org/1999/xlink" width="398" height="339" viewBox="0 0 398 339"><defs><linearGradient id="sw05f69brc" x1="64.687%" x2="64.688%" y1="0%" y2="99.934%"><stop offset="0%" stop-color="#4AC4E3"></stop><stop offset="33.075%" stop-color="#4AC4E3"></stop><stop offset="51.477%" stop-color="#4AC4E3"></stop><stop offset="100%" stop-color="#2492C3"></stop></linearGradient><linearGradient id="1sykoppkcd" x1="45.391%" x2="56.378%" y1="100%" y2="-27.668%"><stop offset="0%" stop-color="#00597E"></stop><stop offset="100%" stop-color="#009ECD"></stop></linearGradient><linearGradient id="r68y875cnh" x1="49.998%" x2="49.998%" y1="153.055%" y2="-36.896%"><stop offset="0%" stop-color="#D1E1D7"></stop><stop offset="100%" stop-color="#00B0AD"></stop></linearGradient><linearGradient id="s0vkpyfr4i" x1="49.987%" x2="49.987%" y1="187.701%" y2="43.363%"><stop offset="0%" stop-color="#D1E1D7"></stop><stop offset="100%" stop-color="#00B0AD"></stop></linearGradient><linearGradient id="nfrphk42aj" x1="50.111%" x2="50.111%" y1="290.552%" y2="-14.047%"><stop offset="0%" stop-color="#D1E1D7"></stop><stop offset="100%" stop-color="#00B0AD"></stop></linearGradient><linearGradient id="z94y1zxm2k" x1="83.057%" x2="0%" y1="50%" y2="50%"><stop offset="0%" stop-color="#FFF"></stop><stop offset="100%" stop-color="#FFF" stop-opacity="0"></stop></linearGradient><linearGradient id="6vdzp77ool" x1="83.057%" x2="0%" y1="50%" y2="50%"><stop offset="0%" stop-color="#93D500"></stop><stop offset="100%" stop-color="#93D500" stop-opacity="0"></stop></linearGradient><radialGradient id="prmef9ylye" cx="30.105%" cy="44.386%" r="112.122%" fx="30.105%" fy="44.386%" gradientTransform="matrix(.51863 0 0 1 .145 0)"><stop offset="0%" stop-color="#5F758B"></stop><stop offset="99.967%" stop-color="#363D45"></stop></radialGradient><radialGradient id="nwxwvl7ouf" cx="83.291%" cy="18.506%" r="99.381%" fx="83.291%" fy="18.506%" gradientTransform="matrix(.93879 0 0 1 .051 0)"><stop offset="0%" stop-color="#FFF000"></stop><stop offset="100%" stop-color="#F5911E"></stop></radialGradient><radialGradient id="2onphzliyg" cx="-7.975%" cy="-198.735%" r="596.775%" fx="-7.975%" fy="-198.735%"><stop offset="0%" stop-color="#FFF000"></stop><stop offset="100%" stop-color="#F5911E"></stop></radialGradient><filter id="p6fplaf7ga" width="105%" height="119.8%" x="-2.5%" y="-9.9%"><feOffset in="SourceAlpha" result="shadowOffsetOuter1"></feOffset><feGaussianBlur in="shadowOffsetOuter1" result="shadowBlurOuter1" stdDeviation="3"></feGaussianBlur><feColorMatrix in="shadowBlurOuter1" values="0 0 0 0 0 0 0 0 0 0 0 0 0 0 0 0 0 0 0.0371503497 0"></feColorMatrix></filter><filter id="rjn0wy4bfm" width="134.2%" height="132.5%" x="-17.1%" y="-13.8%"><feOffset dy="1" in="SourceAlpha" result="shadowOffsetOuter1"></feOffset><feGaussianBlur in="shadowOffsetOuter1" result="shadowBlurOuter1" stdDeviation="2"></feGaussianBlur><feColorMatrix in="shadowBlurOuter1" values="0 0 0 0 0 0 0 0 0 0 0 0 0 0 0 0 0 0 0.164226399 0"></feColorMatrix></filter><rect id="eq7fb4bz5b" width="360" height="91" x="19" y="211" rx="4"></rect><path id="sl0arw5ejn" d="M3.245.04h33.269l2.846 11.344V38.04c0 1.105-.895 2-2 2h-34c-1.105 0-2-.895-2-2V11.493L3.245.04z"></path></defs><g fill="none" fill-rule="evenodd"><g><g transform="translate(-680 -1654) translate(680 1654)"><g><use fill="#000" filter="url(#p6fplaf7ga)" xlink:href="#eq7fb4bz5b"></use><use fill="#FFF" xlink:href="#eq7fb4bz5b"></use></g><rect width="360" height="170" x="19" y="26" fill="#FFF" rx="4"></rect><rect width="360" height="170" x="19" y="26" fill="url(#sw05f69brc)" opacity=".396" rx="4"></rect><g><g><g fill="url(#1sykoppkcd)" transform="translate(89 92) translate(0 7)"><path d="M1.52 0H15.2v42.56H1.52c-.84 0-1.52-.68-1.52-1.52V1.52C0 .68.68 0 1.52 0z" transform="matrix(1 0 0 -1 0 42.56)"></path></g><path fill="#FEFEFE" d="M9.306 29.64L11.166 31.817 7.6 35.961 4.034 31.817 4.78 30.951 8.065 30.951 8.744 31.766 6.695 34.145 7.572 35.164 10.539 31.727 8.721 29.64 4.154 29.64 2.28 31.817 7.6 38 12.92 31.817 11.046 29.64z" transform="translate(89 92) translate(0 7)"></path></g><g transform="translate(89 92) translate(15)"><path fill="#2B2B2B" style="mix-blend-mode:multiply" d="M-26.824 27.125L29.919 27.125 29.919 29.962 -26.824 29.962z" transform="matrix(0 1 1 0 -26.996 26.996)"></path><rect width="90.014" height="46.683" x=".134" y="6.19" fill="#FFF" rx="2.69" transform="matrix(1 0 0 -1 0 59.063)"></rect><path fill="url(#prmef9ylye)" d="M.134 6.19h87.323c1.486 0 2.69 1.205 2.69 2.69v41.303c0 1.486-1.204 2.69-2.69 2.69H.134V6.19z" transform="matrix(1 0 0 -1 0 59.063)"></path><g fill="#F0F0F0" opacity=".389" transform="translate(10.31 14.358)"><rect width="15" height="30" rx="2" transform="rotate(-180 7.5 15)"></rect><rect width="13" height="14" x="21" rx="2" transform="matrix(1 0 0 -1 0 14)"></rect><rect width="12" height="11" x="21" y="19" rx="2" transform="matrix(1 0 0 -1 0 49)"></rect><rect width="12" height="11" x="40" y="19" rx="2" transform="matrix(1 0 0 -1 0 49)"></rect><rect width="12" height="11" x="58.69" y="19" rx="2" transform="matrix(1 0 0 -1 0 49)"></rect><rect width="12" height="14" x="40" rx="2" transform="matrix(1 0 0 -1 0 14)"></rect><rect width="12" height="14" x="58.69" rx="2" transform="matrix(1 0 0 -1 0 14)"></rect></g></g></g><g><g><g fill="url(#1sykoppkcd)" transform="translate(250 92) translate(0 7)"><path d="M1.52 0H15.2v42.56H1.52c-.84 0-1.52-.68-1.52-1.52V1.52C0 .68.68 0 1.52 0z" transform="matrix(1 0 0 -1 0 42.56)"></path></g><path fill="#FEFEFE" d="M9.306 29.64L11.166 31.817 7.6 35.961 4.034 31.817 4.78 30.951 8.065 30.951 8.744 31.766 6.695 34.145 7.572 35.164 10.539 31.727 8.721 29.64 4.154 29.64 2.28 31.817 7.6 38 12.92 31.817 11.046 29.64z" transform="translate(250 92) translate(0 7)"></path></g><g transform="translate(250 92) translate(15)"><path fill="#2B2B2B" style="mix-blend-mode:multiply" d="M-26.824 27.125L29.919 27.125 29.919 29.962 -26.824 29.962z" transform="matrix(0 1 1 0 -26.996 26.996)"></path><rect width="90.014" height="46.683" x=".134" y="6.19" fill="#FFF" rx="2.69" transform="matrix(1 0 0 -1 0 59.063)"></rect><path fill="url(#prmef9ylye)" d="M.134 6.19h87.323c1.486 0 2.69 1.205 2.69 2.69v41.303c0 1.486-1.204 2.69-2.69 2.69H.134V6.19z" transform="matrix(1 0 0 -1 0 59.063)"></path><g fill="#F0F0F0" opacity=".389" transform="translate(10.31 14.358)"><rect width="15" height="30" rx="2" transform="rotate(-180 7.5 15)"></rect><rect width="13" height="14" x="21" rx="2" transform="matrix(1 0 0 -1 0 14)"></rect><rect width="12" height="11" x="21" y="19" rx="2" transform="matrix(1 0 0 -1 0 49)"></rect><rect width="12" height="11" x="40" y="19" rx="2" transform="matrix(1 0 0 -1 0 49)"></rect><rect width="12" height="11" x="58.69" y="19" rx="2" transform="matrix(1 0 0 -1 0 49)"></rect><rect width="12" height="14" x="40" rx="2" transform="matrix(1 0 0 -1 0 14)"></rect><rect width="12" height="14" x="58.69" rx="2" transform="matrix(1 0 0 -1 0 14)"></rect></g></g></g><g transform="translate(26 35)"><rect width="86" height="20" fill="#FFF" rx="5"></rect><text fill="#024F71" font-family="OpenSans-Bold, Open Sans" font-size="9" font-weight="bold"><tspan x="3" y="15">ULTIMA Offload</tspan></text></g><g><path stroke="#024F71" stroke-dasharray="1 4" stroke-linecap="round" d="M0 14.58L184.3 14.9" transform="translate(106.2 228)"></path><text fill="#005A80" font-family="OpenSans-Semibold, Open Sans" font-size="9" font-weight="500" transform="translate(106.2 228)"><tspan x="60.373" y="10">NVMe Drives</tspan></text></g><text fill="#024F71" font-family="OpenSans-Semibold, Open Sans" font-size="9" font-weight="500"><tspan x="132.862" y="158">Storage</tspan></text><text fill="#024F71" font-family="OpenSans-Semibold, Open Sans" font-size="9" font-weight="500"><tspan x="287.562" y="158">Networking</tspan></text><g fill-rule="nonzero"><g transform="translate(134 56) translate(.352 .096)"><path fill="url(#nwxwvl7ouf)" d="M23.142 17.613c-.598 0-1.168-.152-1.672-.409-.646 1.502-2.043 2.622-3.771 2.831-.19.02-.371.029-.561.029-2.385 0-4.389-1.786-4.674-4.161-.01-.067-.019-.123-.038-.2-.276-1.5-1.074-2.783-2.185-3.695.37.076.76.105 1.159.105 1.264 0 2.575-.361 3.905-1.074 0 0 .009 0 .009-.01l.019-.009c.019-.01.038-.028.057-.028 0 0 .418-.248 1.055-.409.028 0 .056-.01.095-.01.18-.018.36-.028.541-.028 1.207 0 2.328.475 3.183 1.254.665-.874 1.7-1.434 2.887-1.434.067 0 .124.009.19.009-.45-.565-.978-1.064-1.567-1.482-1.302-1.045-2.774-1.567-4.38-1.567-1.272 0-2.621.36-3.61.959-.589.313-1.463.684-2.365.684-.846 0-1.53-.313-2.09-.96-.475-.55-.732-1.215-.741-1.918.048-.751.352-1.444.865-1.948.56-.56 1.31-.865 2.109-.865.807 0 1.558.314 2.128.884.209.219.389.456.532.722.285.542.835.874 1.434.874.256 0 .522-.066.75-.18.789-.409 1.103-1.397.684-2.185-.294-.561-.665-1.064-1.101-1.501C14.81.703 13.242.048 11.57.048c-1.473 0-2.897.522-4.018 1.462-.02.01-.048.029-.086.057-.047.038-.095.086-.143.133l-.056.058c-.01.009-.02.018-.029.018-.019.02-.048.038-.066.067-.01.01-.029.028-.038.048-.114.114-.219.228-.324.36l-.018.02c-.02.018-.038.047-.058.066-.817.969-1.263 2.156-1.32 3.41-.076 1.577.465 3.117 1.53 4.332.218.247.436.476.683.675-.655-.143-1.358-.18-2.051-.095-3.411.409-5.862 3.515-5.454 6.925.352 3.136 3.012 5.501 6.166 5.501.247 0 .494-.019.741-.047.627-.076 1.235-.238 1.795-.494.818-.361 1.188-1.321.818-2.138-.257-.58-.846-.96-1.482-.96-.228 0-.447.048-.656.143-.276.123-.56.2-.864.238-.114.009-.238.018-.362.018-1.51 0-2.792-1.14-2.973-2.64-.095-.789.123-1.577.627-2.204.494-.627 1.207-1.026 1.995-1.121.114-.01.237-.02.351-.02 1.511 0 2.793 1.131 2.974 2.632l.028.18c.304 1.853 1.274 3.544 2.708 4.76 1.434 1.216 3.258 1.881 5.13 1.881.314 0 .627-.019.94-.057 3.411-.409 6.061-2.926 6.802-6.09-.494.285-1.092.447-1.719.447z"></path><path fill="#F6921E" d="M23.142 17.613c-.598 0-1.168-.152-1.672-.409-.646 1.502-2.043 2.622-3.771 2.831-.19.02-.371.029-.561.029-2.385 0-4.389-1.786-4.674-4.161-.01-.067-.019-.123-.038-.2-.276-1.5-1.074-2.783-2.185-3.695.37.076.76.105 1.159.105 1.264 0 2.575-.361 3.905-1.074 0 0 .009 0 .009-.01l.019-.009c.019-.01.038-.028.057-.028 0 0 .418-.248 1.055-.409.028 0 .056-.01.095-.01.18-.018.36-.028.541-.028 1.207 0 2.328.475 3.183 1.254.665-.874 1.7-1.434 2.887-1.434.067 0 .124.009.19.009-.45-.565-.978-1.064-1.567-1.482-1.302-1.045-2.774-1.567-4.38-1.567-1.272 0-2.621.36-3.61.959-.589.313-1.463.684-2.365.684-.846 0-1.53-.313-2.09-.96-.475-.55-.732-1.215-.741-1.918.048-.751.352-1.444.865-1.948.56-.56 1.31-.865 2.109-.865.807 0 1.558.314 2.128.884.209.219.389.456.532.722.285.542.835.874 1.434.874.256 0 .522-.066.75-.18.789-.409 1.103-1.397.684-2.185-.294-.561-.665-1.064-1.101-1.501C14.81.703 13.242.048 11.57.048c-1.473 0-2.897.522-4.018 1.462-.02.01-.048.029-.086.057-.047.038-.095.086-.143.133l-.056.058c-.01.009-.02.018-.029.018-.019.02-.048.038-.066.067-.01.01-.029.028-.038.048-.114.114-.219.228-.324.36l-.018.02c-.02.018-.038.047-.058.066-.817.969-1.263 2.156-1.32 3.41-.076 1.577.465 3.117 1.53 4.332.218.247.436.476.683.675-.655-.143-1.358-.18-2.051-.095-3.411.409-5.862 3.515-5.454 6.925.352 3.136 3.012 5.501 6.166 5.501.247 0 .494-.019.741-.047.627-.076 1.235-.238 1.795-.494.818-.361 1.188-1.321.818-2.138-.257-.58-.846-.96-1.482-.96-.228 0-.447.048-.656.143-.276.123-.56.2-.864.238-.114.009-.238.018-.362.018-1.51 0-2.792-1.14-2.973-2.64-.095-.789.123-1.577.627-2.204.494-.627 1.207-1.026 1.995-1.121.114-.01.237-.02.351-.02 1.511 0 2.793 1.131 2.974 2.632l.028.18c.304 1.853 1.274 3.544 2.708 4.76 1.434 1.216 3.258 1.881 5.13 1.881.314 0 .627-.019.94-.057 3.411-.409 6.061-2.926 6.802-6.09-.494.285-1.092.447-1.719.447z" opacity=".6"></path><circle cx="23.142" cy="13.993" r="1.938" fill="url(#2onphzliyg)"></circle><circle cx="23.142" cy="13.993" r="1.938" fill="#F6921E" opacity=".6"></circle><path fill="#000" d="M8.474 31.816c-.76.722-1.767 1.082-2.764 1.082-2.556 0-3.886-1.7-3.905-3.648-.019-1.928 1.302-3.724 3.905-3.724.997 0 2.004.361 2.764 1.084l-.399.332c-.646-.617-1.501-.912-2.365-.912-2.214 0-3.345 1.482-3.335 3.211.019 1.691 1.15 3.154 3.335 3.154.854 0 1.719-.314 2.375-.912l.389.332zm8.569-4.817c-.551-.845-1.444-.969-2.299-.979-.893 0-2.299.314-2.299 1.463 0 .912 1.035 1.131 2.318 1.359 1.463.266 2.983.513 2.983 2.071-.01 1.625-1.729 2.014-3.002 2.014-1.178 0-2.527-.465-3.107-1.567l.523-.247c.466.873 1.653 1.31 2.594 1.31.93 0 2.412-.247 2.412-1.52.01-1.082-1.244-1.32-2.489-1.548-1.386-.256-2.802-.523-2.802-1.852-.028-1.52 1.634-1.995 2.879-1.995 1.082 0 2.023.161 2.774 1.225l-.485.266zm4.123 5.814v-7.201h.57v7.201h-.57z"></path></g></g><g fill-rule="nonzero"><path fill="#00B0AD" d="M17.924 4.103l-.081-.043L12.377.068l-9.18 6.898 1.756 1.282H4.95l7.53 5.496 9.193-6.906-3.748-2.735zM5.697 5.658l4.949-3.718 1.38 1.005-4.949 3.718-1.38-1.005zm8.116 3.902l-1.363 1.026-4.988-3.641 4.945-3.714 3.226 2.355-3.58 2.692 1.76 1.282zm2.205-3.692l1.376 1.004-3.2 2.402-1.377-1.004 3.201-2.402zm2.026 1.103l.094-.082.03-.021-1.765-1.286 1.363-1.026 3.141 2.29-4.949 3.719-1.367-.996 3.453-2.598zm-2.026-1.676l-4.992-3.641L12.381.637l4.988 3.641-1.35 1.017zm-10.701.65l1.38 1.004-1.355 1.017-1.38-1.004 1.355-1.017zM7.082 7.23l5 3.65-1.355 1.017-5-3.65 1.355-1.017zm7.128 2.62l1.368.996-3.099 2.33-1.367-.997 3.098-2.329z" transform="translate(298 56.8)"></path><path fill="#003B49" d="M6.795 32.13s-.872 1.077-2.7 1.077c-2.403 0-4.065-1.867-4.065-4.27 0-2.427 1.662-4.282 4.064-4.282 1.83 0 2.701 1.065 2.701 1.065l-.436.598s-.833-.927-2.248-.927c-1.936 0-3.273 1.606-3.273 3.547 0 1.923 1.337 3.53 3.273 3.53 1.42 0 2.248-.928 2.248-.928l.436.59zm10.475.885h-.598l-5.364-6.86v6.86h-.777v-8.18h.628l5.334 6.817v-6.817h.777v8.18zm6.108 0H22.6v-8.18h.778v8.18z" transform="translate(298 56.8)"></path><path fill="url(#r68y875cnh)" d="M12.432 20.194c-.05 0-.098-.017-.145-.047l-9.035-6.48c-.09-.064-.145-.183-.145-.311 0-.129.056-.248.145-.312l4.518-3.24.29.62-4.085 2.932 8.457 6.064 8.458-6.064-4.081-2.928.29-.62 4.518 3.24c.09.064.145.184.145.312s-.055.248-.145.312l-9.04 6.475c-.042.03-.093.047-.145.047z" transform="translate(298 56.8)"></path><path fill="url(#s0vkpyfr4i)" d="M12.432 13.715c-.05 0-.098-.018-.145-.047l-9.035-6.48c-.09-.064-.145-.183-.145-.311 0-.129.056-.248.145-.312L12.292.09c.09-.064.2-.064.29 0l9.039 6.479c.09.064.145.184.145.312s-.055.248-.145.312l-9.043 6.475c-.043.034-.094.047-.146.047zM3.975 6.88l8.457 6.064 8.463-6.064L12.432.816 3.975 6.881z" transform="translate(298 56.8)"></path><path fill="url(#nfrphk42aj)" d="M3.107 6.881L3.684 6.881 3.684 13.36 3.107 13.36z" transform="translate(298 56.8)"></path></g><g><path fill="url(#z94y1zxm2k)" d="M36.309 34.853c-.483-.254-.79-.79-.79-1.379v-5.978H4.613c-.763 0-.763-19.954 0-19.954H35.52V1.567c0-.59.306-1.125.789-1.379.482-.254 1.05-.177 1.466.194L55.53 16.336c.322.289.509.724.509 1.183 0 .458-.187.894-.509 1.184L37.775 34.66c-.252.226-.561.341-.873.341-.202 0-.405-.047-.593-.147z" opacity=".719" transform="translate(188.96 103)"></path><path fill="url(#6vdzp77ool)" d="M36.58 34.813c-.537-.254-.877-.79-.877-1.379v-5.978H1.536C.69 27.456 0 26.773 0 25.93c0-.844.689-1.526 1.536-1.526H37.24c.847 0 1.536.682 1.536 1.526v4.294L54.55 17.479 38.776 4.736V9.03c0 .841-.689 1.525-1.536 1.525H1.536C.69 10.555 0 9.871 0 9.03c0-.844.689-1.528 1.536-1.528h34.167V1.527c0-.59.34-1.125.878-1.379.535-.254 1.168-.177 1.63.194l19.743 15.954c.358.289.566.724.566 1.183 0 .458-.208.894-.566 1.184L38.21 34.62c-.28.226-.623.341-.97.341-.224 0-.45-.047-.66-.147z" transform="translate(188.96 103)"></path></g><g><g stroke="#6D7278"><path d="M32.576 13.256c.215 0 .41.087.55.228.141.14.228.335.228.55h0v16.194c0 .215-.087.409-.228.55-.14.14-.335.228-.55.228h0H-.646v-17.75z" transform="translate(115 249.4) matrix(0 1 1 0 -5.776 5.776)"></path><path stroke-linecap="round" stroke-width=".75" d="M0.633 4.631L26.167 4.631 26.167 0" transform="translate(115 249.4)"></path></g><g fill="#6D7278" transform="translate(115 249.4) translate(14.542 24.556)"><circle cx="1.875" cy="1.875" r="1.875"></circle><circle cx="1.875" cy="8.125" r="1.875"></circle></g><path fill="#6D7278" fill-rule="nonzero" d="M22.202 12.131L22.202 13.381 10.554 13.381 10.554 12.131z" transform="translate(115 249.4)"></path></g><g><g stroke="#6D7278"><path d="M32.576 13.256c.215 0 .41.087.55.228.141.14.228.335.228.55h0v16.194c0 .215-.087.409-.228.55-.14.14-.335.228-.55.228h0H-.646v-17.75z" transform="translate(250 249.4) matrix(0 1 1 0 -5.776 5.776)"></path><path stroke-linecap="round" stroke-width=".75" d="M0.633 4.631L26.167 4.631 26.167 0" transform="translate(250 249.4)"></path></g><g fill="#6D7278" transform="translate(250 249.4) translate(14.542 24.556)"><circle cx="1.875" cy="1.875" r="1.875"></circle><circle cx="1.875" cy="8.125" r="1.875"></circle></g><path fill="#6D7278" fill-rule="nonzero" d="M22.202 12.131L22.202 13.381 10.554 13.381 10.554 12.131z" transform="translate(250 249.4)"></path></g><g><g stroke="#6D7278"><path d="M32.576 13.256c.215 0 .41.087.55.228.141.14.228.335.228.55h0v16.194c0 .215-.087.409-.228.55-.14.14-.335.228-.55.228h0H-.646v-17.75z" transform="translate(205 249.4) matrix(0 1 1 0 -5.776 5.776)"></path><path stroke-linecap="round" stroke-width=".75" d="M0.633 4.631L26.167 4.631 26.167 0" transform="translate(205 249.4)"></path></g><g fill="#6D7278" transform="translate(205 249.4) translate(14.542 24.556)"><circle cx="1.875" cy="1.875" r="1.875"></circle><circle cx="1.875" cy="8.125" r="1.875"></circle></g><path fill="#6D7278" fill-rule="nonzero" d="M22.202 12.131L22.202 13.381 10.554 13.381 10.554 12.131z" transform="translate(205 249.4)"></path></g><g><g stroke="#6D7278"><path d="M32.576 13.256c.215 0 .41.087.55.228.141.14.228.335.228.55h0v16.194c0 .215-.087.409-.228.55-.14.14-.335.228-.55.228h0H-.646v-17.75z" transform="translate(160 249.4) matrix(0 1 1 0 -5.776 5.776)"></path><path stroke-linecap="round" stroke-width=".75" d="M0.633 4.631L26.167 4.631 26.167 0" transform="translate(160 249.4)"></path></g><g fill="#6D7278" transform="translate(160 249.4) translate(14.542 24.556)"><circle cx="1.875" cy="1.875" r="1.875"></circle><circle cx="1.875" cy="8.125" r="1.875"></circle></g><path fill="#6D7278" fill-rule="nonzero" d="M22.202 12.131L22.202 13.381 10.554 13.381 10.554 12.131z" transform="translate(160 249.4)"></path></g><g><g transform="translate(38.64 205.96)"><use fill="#000" filter="url(#rjn0wy4bfm)" xlink:href="#sl0arw5ejn"></use><use fill="#FFF" xlink:href="#sl0arw5ejn"></use></g><g fill="#6D7278" fill-rule="nonzero"><path d="M40.497 18.224v-6.75c-.004-.031-.01-.063-.02-.093.002-.022.002-.045 0-.068l-2.444-9.78C37.807.633 36.997 0 36.068 0H4.429c-.93 0-1.74.632-1.965 1.533L.02 11.31v.068c-.009.031-.016.063-.02.096v6.75c.003 1.066.512 2.068 1.37 2.7-.858.631-1.367 1.633-1.37 2.7v4.049c.003 1.066.512 2.068 1.37 2.7-.858.631-1.367 1.633-1.37 2.7v4.05c.002 1.862 1.512 3.372 3.375 3.374h33.747c1.863-.002 3.373-1.512 3.375-3.375v-4.05c-.003-1.066-.512-2.068-1.371-2.7.86-.631 1.368-1.633 1.37-2.7v-4.049c-.002-1.066-.51-2.068-1.37-2.7.86-.631 1.368-1.633 1.37-2.7zM3.774 1.862c.075-.301.345-.512.655-.512h31.639c.31 0 .58.21.655.512l2.234 8.937H1.54l2.234-8.937zm35.373 31.21v4.05c0 1.118-.907 2.025-2.025 2.025H3.375c-1.119 0-2.025-.907-2.025-2.025v-4.05c0-1.118.906-2.024 2.025-2.024h33.747c1.118 0 2.025.906 2.025 2.024zm0-9.449v4.05c0 1.118-.907 2.025-2.025 2.025H3.375c-1.119 0-2.025-.907-2.025-2.025v-4.05c0-1.118.906-2.025 2.025-2.025h33.747c1.118 0 2.025.907 2.025 2.025zm0-5.4c0 1.119-.907 2.025-2.025 2.025H3.375c-1.119 0-2.025-.906-2.025-2.024v-6.075h37.797v6.075z" transform="translate(38.64 205.96)"></path><g><path d="M2.709 5.617c1.496 0 2.708-1.211 2.708-2.706C5.417 1.416 4.205.204 2.71.204 1.213.204 0 1.416 0 2.911c0 1.495 1.213 2.706 2.709 2.706zm0-4.06c.748 0 1.354.606 1.354 1.354 0 .747-.606 1.353-1.354 1.353-.748 0-1.355-.606-1.355-1.353 0-.748.607-1.353 1.355-1.353zM2.709 15.09c1.496 0 2.708-1.211 2.708-2.706 0-1.495-1.212-2.707-2.708-2.707C1.213 9.677 0 10.89 0 12.384c0 1.495 1.213 2.707 2.709 2.707zm0-4.06c.748 0 1.354.607 1.354 1.354 0 .747-.606 1.353-1.354 1.353-.748 0-1.355-.606-1.355-1.353s.607-1.353 1.355-1.353zM2.709 24.564c1.496 0 2.708-1.212 2.708-2.707 0-1.495-1.212-2.707-2.708-2.707C1.213 19.15 0 20.362 0 21.857c0 1.495 1.213 2.707 2.709 2.707zm0-4.06c.748 0 1.354.606 1.354 1.353s-.606 1.353-1.354 1.353c-.748 0-1.355-.606-1.355-1.353s.607-1.353 1.355-1.353zM16.969 1.558L18.323 1.558 18.323 4.264 16.969 4.264zM19.677 1.558L21.032 1.558 21.032 4.264 19.677 4.264zM22.386 1.558L23.74 1.558 23.74 4.264 22.386 4.264zM25.095 1.558L26.449 1.558 26.449 4.264 25.095 4.264zM27.803 1.558L29.158 1.558 29.158 4.264 27.803 4.264zM30.512 1.558L31.866 1.558 31.866 4.264 30.512 4.264zM16.969 11.031L18.323 11.031 18.323 13.737 16.969 13.737zM19.677 11.031L21.032 11.031 21.032 13.737 19.677 13.737zM22.386 11.031L23.74 11.031 23.74 13.737 22.386 13.737zM25.095 11.031L26.449 11.031 26.449 13.737 25.095 13.737zM27.803 11.031L29.158 11.031 29.158 13.737 27.803 13.737zM30.512 11.031L31.866 11.031 31.866 13.737 30.512 13.737zM16.969 20.504L18.323 20.504 18.323 23.21 16.969 23.21zM19.677 20.504L21.032 20.504 21.032 23.21 19.677 23.21zM22.386 20.504L23.74 20.504 23.74 23.21 22.386 23.21zM25.095 20.504L26.449 20.504 26.449 23.21 25.095 23.21zM27.803 20.504L29.158 20.504 29.158 23.21 27.803 23.21zM30.512 20.504L31.866 20.504 31.866 23.21 30.512 23.21z" transform="translate(38.64 205.96) translate(4.647 13.278)"></path></g></g></g><text fill="#024F71" font-family="OpenSans-Semibold, Open Sans" font-size="9" font-weight="500"><tspan x="34" y="261">X86 Server</tspan></text></g></g></g></svg> 