<?xml version="1.0" encoding="UTF-8"?> <svg xmlns="http://www.w3.org/2000/svg" xmlns:xlink="http://www.w3.org/1999/xlink" width="541" height="364" viewBox="0 0 541 364"><defs><linearGradient id="zpjo18rrub" x1="13.866%" x2="100%" y1="53.125%" y2="45.146%"><stop offset="0%" stop-color="#00597E"></stop><stop offset="100%" stop-color="#009ECD"></stop></linearGradient><filter id="cduvjdl6za" width="122.1%" height="133.3%" x="-11%" y="-16.7%"><feGaussianBlur in="SourceGraphic" stdDeviation="5"></feGaussianBlur></filter><path id="uqqh8v5m7c" d="M0 0.038L35.654 0.038 35.654 8.771 0 8.771z"></path></defs><g fill="none" fill-rule="evenodd"><g><g><path stroke="#024F71" stroke-dasharray="1 3" stroke-linecap="round" stroke-width="2" d="M97 236.5v-47h338v40M225 236.5L224.92 189.5M329 236.5L328.92 189.5M278 159.5L278 189.5" opacity=".5" transform="translate(-530 -1180) translate(530 1180)"></path><g fill="#32C5FF" opacity=".221"><path d="M108.643 90H24.019C10.777 90 0 79.111 0 65.723c0-13.394 10.777-24.288 24.019-24.288h3.054c-.136-1.302-.202-2.609-.202-3.91C26.871 16.836 43.514 0 63.976 0c18.056 0 33.183 12.889 36.456 30.485 1.925-.4 3.882-.597 5.85-.597 16.387 0 29.718 13.478 29.718 30.044 0 8.431-3.56 16.544-9.766 22.253C121.868 87.08 115.386 90 108.643 90z" filter="url(#cduvjdl6za)" transform="translate(-530 -1180) translate(530 1180) translate(36 230.5)"></path></g><g fill="#007DB8" fill-rule="nonzero"><g><g><path d="M14.852 26.782c-3.54 0-6.747-1.39-9.069-3.638-2.323-2.243-3.758-5.347-3.758-8.775 0-3.426 1.435-6.528 3.758-8.772 2.322-2.245 5.528-3.637 9.07-3.637 3.541 0 6.75 1.392 9.068 3.637 2.322 2.244 3.754 5.346 3.754 8.772 0 3.428-1.432 6.532-3.754 8.775-2.318 2.249-5.527 3.638-9.069 3.638m-.001 1.96c8.2 0 14.849-6.435 14.849-14.373C29.7 6.434 23.051 0 14.85 0 6.653 0 0 6.434 0 14.37c0 7.937 6.652 14.372 14.85 14.372" transform="translate(-530 -1180) translate(530 1180) translate(210 302.5) matrix(1 0 0 -1 0 29.71)"></path></g><g><path d="M4.05 3.267c0 .832-.617 1.306-1.49 1.306h-.535V1.96h.52c.812 0 1.505.395 1.505 1.307m8.491-.824L8.972 0 5.71 2.233C5.24 1.25 4.102.567 2.792.567H0v5.406h2.792c1.464 0 2.518-.809 2.917-1.671l3.263 2.23 1.209-.827L7.19 3.662l.575-.39 2.99 2.041 1.21-.824-2.99-2.046.573-.392 2.993 2.046v1.876h2.17V2.145h2.164V.56h-4.334v1.883zm7.038-.26H21.6V.652h-4.05V5.88h2.029V2.182z" transform="translate(-530 -1180) translate(530 1180) translate(210 302.5) matrix(1 0 0 -1 4.05 17.952)"></path></g></g></g><g transform="translate(-530 -1180) translate(530 1180) translate(177 215.5)"><rect width="92" height="23" fill="url(#zpjo18rrub)" rx="2"></rect><text fill="#FFF" font-family="OpenSans-Bold, Open Sans" font-size="9" font-weight="bold"><tspan x="6.364" y="15">ULTIMA OFFLOAD</tspan></text></g><g transform="translate(-530 -1180) translate(530 1180) translate(389 215.5)"><rect width="92" height="23" fill="url(#zpjo18rrub)" rx="2"></rect><text fill="#FFF" font-family="OpenSans-Bold, Open Sans" font-size="9" font-weight="bold"><tspan x="6.364" y="15">ULTIMA OFFLOAD</tspan></text></g><g transform="translate(-530 -1180) translate(530 1180) translate(283 215.5)"><rect width="92" height="23" fill="url(#zpjo18rrub)" rx="2"></rect><text fill="#FFF" font-family="OpenSans-Bold, Open Sans" font-size="9" font-weight="bold"><tspan x="6.364" y="15">ULTIMA OFFLOAD</tspan></text></g><g fill="#E60012" fill-rule="nonzero"><g><path d="M22.362 2.502c-.934 0-1.99.43-2.625 1.275v-1.14h-2.22v7.999h2.22v-4.55c0-.819.636-1.691 1.827-1.691.92 0 1.867.63 1.867 1.69v4.55h2.22V5.684c-.014-1.838-1.34-3.18-3.289-3.18M41.8 2.502L39.727 8.043 37.654 2.502 35.035 2.502 38.467 10.636 40.988 10.636 44.419 2.502zM10.726 5.024c.406-.535 1.043-.853 1.825-.853.854 0 1.505.491 1.838 1.2l-4.14 1.72c-.116-.897.115-1.576.477-2.067m4.546 3.493c-.971.725-1.52.896-2.407.896-.803 0-1.423-.256-1.86-.683l5.887-2.474c-.127-.924-.479-1.734-1-2.36-.774-.91-1.915-1.393-3.31-1.393-2.534 0-4.449 1.89-4.449 4.379 0 2.56 1.915 4.38 4.703 4.38 1.563 0 3.155-.74 3.901-1.622l-1.465-1.123zM7.508 8.574L2.316 8.574 2.316 0 0 0 0 10.636 7.508 10.636zM48.784 4.588c-1.313 0-2.28.942-2.28 2.294 0 1.283 1.01 2.294 2.31 2.294 1.312 0 2.279-.97 2.279-2.294 0-1.284-1.025-2.294-2.309-2.294m.001 6.673c-2.45 0-4.366-1.89-4.366-4.38 0-2.459 1.93-4.378 4.393-4.378 2.45 0 4.366 1.89 4.366 4.379 0 2.46-1.93 4.38-4.393 4.38M30.955 4.588c-1.22 0-2.12.942-2.12 2.294 0 1.283.94 2.294 2.147 2.294 1.22 0 2.12-.97 2.12-2.294 0-1.284-.953-2.294-2.147-2.294m-.001 6.673c-2.625 0-4.678-1.89-4.678-4.38 0-2.459 2.068-4.378 4.707-4.378 2.625 0 4.678 1.89 4.678 4.379 0 2.46-2.068 4.38-4.707 4.38" transform="translate(-530 -1180) translate(530 1180) translate(304 312.5)"></path></g></g><g fill="#0089D6" fill-rule="nonzero"><path d="M10.683 16.907c2.967-.524 5.418-.957 5.446-.963l.051-.01-2.801-3.327c-1.54-1.83-2.801-3.334-2.801-3.343 0-.016 2.892-7.97 2.908-7.998.006-.01 1.974 3.384 4.772 8.226l4.798 8.305.037.063H14.19l-8.902-.002 5.394-.951zm34.138-.805c-1.355-.087-2.143-.857-2.352-2.3-.055-.383-.056-.393-.061-2.883l-.006-2.41h1.2l.004 2.33c.005 2.102.007 2.348.027 2.496.082.6.245 1.004.521 1.293.222.232.481.368.84.44.17.034.651.034.805 0 .364-.08.656-.238.913-.495.293-.293.51-.708.615-1.178l.036-.158.004-2.351.004-2.351h1.224v7.392h-1.212v-.586c0-.399-.004-.585-.013-.582-.008.002-.039.05-.07.105-.208.38-.556.728-.937.938-.457.25-.916.34-1.542.3zm13.754-.006c-.478-.036-.982-.2-1.394-.454-.867-.536-1.38-1.42-1.531-2.635-.052-.42-.058-.986-.015-1.343.097-.8.411-1.583.859-2.143.115-.143.375-.403.519-.518.388-.31.842-.526 1.324-.63.28-.062.775-.091 1.073-.063.75.069 1.436.421 1.903.976.475.563.735 1.35.769 2.32.005.152.006.418.002.592l-.006.316-2.625.003-2.625.003v.117c0 .356.087.762.237 1.107.13.297.352.622.534.78.373.322.83.515 1.33.561.186.017.658 0 .87-.033.603-.093 1.176-.329 1.639-.675.054-.041.107-.08.116-.085.013-.009.016.098.016.546v.556l-.124.077c-.524.323-1.124.53-1.76.609-.189.023-.884.033-1.111.016zm2.284-4.693c0-.596-.251-1.258-.608-1.6-.254-.243-.561-.392-.926-.448-.173-.027-.537-.017-.72.02-.385.078-.703.247-.981.521-.293.289-.512.639-.65 1.038-.05.144-.108.38-.126.51l-.008.063h4.02v-.104zM25.255 15.91l1.981-5.195 1.975-5.18H30.48l.053.135c.16.412 3.954 10.246 3.954 10.25 0 .004-.304.007-.675.007h-.675l-.547-1.454-.547-1.453h-4.402l-.02.05-.518 1.452-.5 1.404h-.677c-.535 0-.675-.003-.67-.016zm6.387-4l-.818-2.212c-.841-2.273-.888-2.41-.955-2.775-.03-.17-.047-.176-.065-.02-.013.112-.07.362-.115.5-.022.07-.4 1.107-.842 2.307-.44 1.2-.802 2.188-.802 2.194 0 .006.81.011 1.798.011.99 0 1.799-.002 1.799-.004zm3.253 3.828v-.19l2.193-3.01 2.193-3.01-1.985-.007-1.986-.006-.003-.504-.004-.503h5.744v.34l-2.193 3.027c-1.207 1.665-2.194 3.03-2.194 3.033 0 .003.976.006 2.167.006h2.167v1.013h-6.099v-.19zm16.093.18c-.005-.005-.009-1.674-.009-3.71v-3.7h1.2v.763c0 .42.004.763.01.763.007 0 .036-.069.065-.153.135-.384.369-.744.67-1.03.271-.257.581-.41.947-.47.103-.016.19-.02.395-.014.258.007.393.026.55.077l.05.016V9.703l-.142-.071c-.25-.125-.497-.175-.794-.16-.193.01-.32.035-.474.093-.318.12-.575.33-.755.616-.26.415-.447.95-.502 1.44-.01.088-.015.804-.018 2.218l-.003 2.088h-.59c-.325 0-.595-.004-.6-.009zM0 15.892c0-.005 1.32-2.292 2.933-5.084l2.933-5.075 3.418-2.864C11.164 1.293 12.707.002 12.714 0c.005-.002-.02.06-.056.138l-3.711 7.95L5.3 15.893l-2.65.003C1.193 15.9 0 15.897 0 15.892z" transform="translate(-530 -1180) translate(530 1180) translate(55 285)"></path></g><g><path fill="#252F3E" d="M30.625 11.907c-.625 0-1.25-.076-1.852-.228-.601-.152-1.07-.317-1.383-.507-.193-.114-.325-.24-.373-.354-.048-.114-.072-.241-.072-.355v-.646c0-.266.096-.393.277-.393.072 0 .144.013.216.038.072.026.18.076.3.127.41.19.855.342 1.324.443.48.102.95.152 1.43.152.758 0 1.348-.14 1.757-.418.408-.278.625-.684.625-1.203 0-.355-.108-.646-.325-.887-.216-.24-.625-.456-1.214-.659l-1.744-.57c-.878-.29-1.528-.722-1.925-1.292-.396-.557-.6-1.178-.6-1.836 0-.532.107-1.001.324-1.406.216-.406.505-.76.866-1.04.36-.29.77-.506 1.25-.658.482-.152.987-.215 1.516-.215.265 0 .541.013.806.05.276.039.529.09.781.14.241.063.47.127.686.203.216.076.385.152.505.228.169.1.289.202.36.316.073.102.11.24.11.418v.596c0 .266-.097.405-.277.405-.097 0-.253-.05-.457-.152-.686-.33-1.456-.494-2.31-.494-.685 0-1.226.114-1.6.355-.372.24-.564.608-.564 1.127 0 .355.12.659.36.9.241.24.686.48 1.323.696l1.708.57c.866.292 1.491.697 1.864 1.216.373.52.553 1.115.553 1.774 0 .544-.108 1.038-.312 1.469-.217.43-.505.81-.878 1.115-.373.316-.818.544-1.335.709-.541.177-1.107.266-1.72.266zm-15.454-.342c-.217 0-.361-.038-.457-.127-.096-.076-.18-.253-.253-.494l-2.826-9.791c-.072-.254-.108-.418-.108-.507 0-.203.096-.317.288-.317h1.179c.229 0 .385.038.47.127.095.076.167.253.24.494l2.02 8.386L17.6.95c.06-.253.133-.418.229-.494.096-.076.264-.127.48-.127h.963c.228 0 .385.038.481.127.096.076.18.253.229.494l1.9 8.487L23.962.95c.072-.253.157-.418.24-.494.097-.076.253-.127.47-.127h1.118c.193 0 .301.102.301.317 0 .063-.012.127-.024.203-.012.076-.036.177-.084.316l-2.899 9.792c-.072.253-.156.418-.252.494-.097.076-.253.127-.457.127H21.34c-.23 0-.385-.038-.482-.127-.096-.089-.18-.253-.228-.507l-1.864-8.17-1.852 8.158c-.06.253-.133.418-.229.506-.096.089-.264.127-.48.127H15.17zm-9.658-1.368c.397 0 .806-.076 1.24-.228.432-.152.817-.43 1.142-.81.192-.241.336-.507.409-.811.072-.304.12-.672.12-1.103v-.532c-.349-.088-.722-.164-1.107-.215-.384-.05-.757-.076-1.13-.076-.806 0-1.395.165-1.792.507-.397.342-.59.823-.59 1.457 0 .595.145 1.038.446 1.342.288.317.71.469 1.262.469zm4.883-1.925c0 .468.048.848.133 1.127.096.279.216.583.384.912.06.101.085.203.085.291 0 .127-.073.254-.229.38l-.758.532c-.108.076-.216.114-.312.114-.12 0-.24-.063-.361-.177-.168-.19-.313-.393-.433-.595-.12-.216-.24-.456-.373-.748-.938 1.166-2.117 1.748-3.536 1.748-1.01 0-1.816-.304-2.405-.912-.59-.608-.89-1.418-.89-2.432 0-1.077.36-1.95 1.094-2.61.734-.658 1.708-.987 2.947-.987.409 0 .83.038 1.275.101.445.064.902.165 1.383.279V4.37c0-.963-.193-1.634-.565-2.027-.385-.392-1.035-.582-1.96-.582-.422 0-.855.05-1.3.164-.445.114-.878.254-1.299.431-.192.089-.336.14-.42.165-.085.025-.145.038-.193.038-.168 0-.252-.127-.252-.393v-.62c0-.203.024-.355.084-.444.06-.089.168-.177.337-.266.42-.228.926-.418 1.515-.57.59-.165 1.215-.24 1.876-.24 1.431 0 2.478.341 3.151 1.025.661.684.998 1.723.998 3.116v4.105h.024z" transform="translate(-530 -1180) translate(530 1180) translate(82 251)"></path><g transform="translate(-530 -1180) translate(530 1180) translate(82 251) translate(0 13.608)"><mask id="e2t0nyhnjd" fill="#fff"><use xlink:href="#uqqh8v5m7c"></use></mask><path fill="#F90" d="M33.859 1.96c-.498-.696-3.297-.335-4.565-.167-.38.052-.44-.31-.095-.58C31.429-.49 35.092 0 35.519.566c.427.58-.118 4.567-2.205 6.475-.32.297-.629.142-.487-.245.475-1.276 1.53-4.153 1.032-4.837m-1.625 2.013c-3.9 3.134-9.569 4.798-14.443 4.798-6.83 0-12.985-2.748-17.633-7.313C-.21 1.096.122.606.56.89c5.028 3.173 11.23 5.095 17.645 5.095 4.328 0 9.084-.98 13.46-2.993.651-.322 1.209.465.568.98" mask="url(#e2t0nyhnjd)"></path></g></g><g fill-rule="nonzero"><path fill="#CAC9C2" d="M8.505 22.113L3.402 12.758 8.505 3.402 18.711 3.402 23.814 12.758 18.711 22.113 8.505 22.113" transform="translate(-530 -1180) translate(530 1180) translate(130 281)"></path><path fill="#FFF" d="M14.884 17.01c-2.11 0-3.828-1.717-3.828-3.827s1.717-3.828 3.828-3.828c2.11 0 3.827 1.717 3.827 3.828 0 2.11-1.717 3.827-3.827 3.827" transform="translate(-530 -1180) translate(530 1180) translate(130 281)"></path><g><path fill="#5072AA" d="M19.547.984c-.31-.538-1.073-.979-1.695-.979H5.358c-.621 0-1.384.44-1.694.98L.013 7.311c-.029.409.046.836.226 1.148l2.471 4.228L7.122 5.06h13.943c.33 0 .7.125 1.02.322L19.547.984" transform="translate(-530 -1180) translate(530 1180) translate(130 281) translate(3.402)"></path><path fill="#4D6796" d="M.171 7.035l-.16.277c-.028.409.047.836.227 1.148l2.471 4.228 1.315-2.273-3.853-3.38" transform="translate(-530 -1180) translate(530 1180) translate(130 281) translate(3.402)"></path><path fill="#FFF" d="M5.68 3.256c-.42 0-.762-.343-.762-.763 0-.421.342-.763.762-.763s.763.342.763.763c0 .42-.342.763-.763.763M18.174 2.493c0 .39-.316.706-.706.706-.39 0-.706-.316-.706-.706 0-.39.316-.707.706-.707.39 0 .706.316.706.707z" transform="translate(-530 -1180) translate(530 1180) translate(130 281) translate(3.402)"></path></g><g><path fill="#CC4232" d="M13.304 7.263L9.512.382C9.185.17 8.807.037 8.47.037H3.33l4.444 8.208L.738 21.27c-.154.281-.42.537-.723.725h5.17c.636 0 1.415-.471 1.733-1.048l6.386-11.589c.317-.576.317-1.52 0-2.095" transform="translate(-530 -1180) translate(530 1180) translate(130 281) translate(15.309 4.253)"></path><path fill="#B23F33" d="M9.684.69l-.17-.308C9.186.17 8.809.037 8.47.037h-5.14L4.67 2.508 9.684.69" transform="translate(-530 -1180) translate(530 1180) translate(130 281) translate(15.309 4.253)"></path><path fill="#FFF" d="M4.793 19.994c-.43 0-.78-.367-.78-.817 0-.45.35-.817.78-.817.43 0 .78.367.78.817 0 .45-.35.817-.78.817M10.858 9.11c-.43 0-.779-.367-.779-.818 0-.45.35-.816.78-.816.43 0 .779.366.779.816 0 .45-.35.817-.78.817" transform="translate(-530 -1180) translate(530 1180) translate(130 281) translate(15.309 4.253)"></path></g><g><path fill="#ECB02A" d="M9.933 13.945L3.043 1.253C2.866.92 2.792.467 2.82.033L.257 4.816c-.307.573-.307 1.51 0 2.082l6.167 11.51c.307.572 1.06 1.04 1.673 1.04h7.34c.294-.187.55-.44.699-.72l2.512-4.783H9.933" transform="translate(-530 -1180) translate(530 1180) translate(130 281) translate(0 6.804)"></path><path fill="#C79732" d="M15.02 19.448h.427c.293-.187.549-.44.698-.72l2.513-4.783h-2.676l-.962 5.503" transform="translate(-530 -1180) translate(530 1180) translate(130 281) translate(0 6.804)"></path><path fill="#FFF" d="M8.415 17.46c-.415 0-.753-.364-.753-.81 0-.448.338-.812.753-.812s.753.364.753.811c0 .447-.338.811-.753.811M2.547 6.65c-.415 0-.753-.364-.753-.81 0-.448.338-.812.753-.812s.752.364.752.811c0 .447-.337.811-.752.811" transform="translate(-530 -1180) translate(530 1180) translate(130 281) translate(0 6.804)"></path></g></g><g fill="#024F71" fill-rule="nonzero"><path d="M49.338 22.202V13.98c-.004-.038-.012-.076-.023-.113.002-.028.002-.055 0-.083L46.336 1.868C46.061.77 45.074 0 43.942 0H5.396C4.264 0 3.277.77 3.002 1.868L.025 13.78c-.002.028-.002.055 0 .083-.012.038-.02.077-.025.117v8.223c.004 1.3.623 2.52 1.67 3.29C.623 26.26.004 27.481 0 28.78v4.933c.004 1.3.623 2.52 1.67 3.29-1.047.77-1.666 1.99-1.67 3.289v4.934c.003 2.27 1.842 4.109 4.112 4.111h41.115c2.27-.002 4.109-1.842 4.111-4.111v-4.934c-.003-1.3-.623-2.52-1.67-3.29 1.047-.769 1.667-1.99 1.67-3.289v-4.933c-.003-1.3-.623-2.52-1.67-3.29 1.047-.77 1.667-1.99 1.67-3.289zM4.598 2.268c.09-.367.42-.624.798-.623h38.546c.378 0 .707.256.799.623l2.722 10.889H1.876l2.722-10.89zm43.096 38.025v4.934c0 1.362-1.105 2.467-2.467 2.467H4.112c-1.363 0-2.467-1.105-2.467-2.467v-4.934c0-1.363 1.104-2.467 2.467-2.467h41.115c1.362 0 2.467 1.104 2.467 2.467zm0-11.512v4.933c0 1.363-1.105 2.467-2.467 2.467H4.112c-1.363 0-2.467-1.104-2.467-2.467v-4.933c0-1.363 1.104-2.467 2.467-2.467h41.115c1.362 0 2.467 1.104 2.467 2.467zm0-6.579c0 1.363-1.105 2.467-2.467 2.467H4.112c-1.363 0-2.467-1.104-2.467-2.467v-7.4h46.049v7.4z" transform="translate(-530 -1180) translate(530 1180) translate(410 246.5)"></path><g><path d="M3.3 6.844c1.823 0 3.3-1.476 3.3-3.298C6.6 1.726 5.123.25 3.3.25 1.477.249 0 1.725 0 3.546c0 1.822 1.477 3.298 3.3 3.298zm0-4.946c.911 0 1.65.738 1.65 1.648 0 .911-.739 1.65-1.65 1.65-.911 0-1.65-.739-1.65-1.65 0-.91.739-1.648 1.65-1.648zM3.3 18.385c1.823 0 3.3-1.476 3.3-3.297 0-1.821-1.477-3.298-3.3-3.298-1.823 0-3.3 1.477-3.3 3.298 0 1.82 1.477 3.297 3.3 3.297zm0-4.946c.911 0 1.65.738 1.65 1.649 0 .91-.739 1.648-1.65 1.648-.911 0-1.65-.738-1.65-1.648 0-.911.739-1.65 1.65-1.65zM3.3 29.926c1.823 0 3.3-1.476 3.3-3.297 0-1.821-1.477-3.298-3.3-3.298-1.823 0-3.3 1.477-3.3 3.298s1.477 3.297 3.3 3.297zm0-4.946c.911 0 1.65.738 1.65 1.649 0 .91-.739 1.649-1.65 1.649-.911 0-1.65-.738-1.65-1.649 0-.91.739-1.649 1.65-1.649zM20.674 1.898L22.324 1.898 22.324 5.195 20.674 5.195zM23.974 1.898L25.624 1.898 25.624 5.195 23.974 5.195zM27.274 1.898L28.924 1.898 28.924 5.195 27.274 5.195zM30.574 1.898L32.224 1.898 32.224 5.195 30.574 5.195zM33.874 1.898L35.524 1.898 35.524 5.195 33.874 5.195zM37.174 1.898L38.824 1.898 38.824 5.195 37.174 5.195zM20.674 13.439L22.324 13.439 22.324 16.736 20.674 16.736zM23.974 13.439L25.624 13.439 25.624 16.736 23.974 16.736zM27.274 13.439L28.924 13.439 28.924 16.736 27.274 16.736zM30.574 13.439L32.224 13.439 32.224 16.736 30.574 16.736zM33.874 13.439L35.524 13.439 35.524 16.736 33.874 16.736zM37.174 13.439L38.824 13.439 38.824 16.736 37.174 16.736zM20.674 24.98L22.324 24.98 22.324 28.278 20.674 28.278zM23.974 24.98L25.624 24.98 25.624 28.278 23.974 28.278zM27.274 24.98L28.924 24.98 28.924 28.278 27.274 28.278zM30.574 24.98L32.224 24.98 32.224 28.278 30.574 28.278zM33.874 24.98L35.524 24.98 35.524 28.278 33.874 28.278zM37.174 24.98L38.824 24.98 38.824 28.278 37.174 28.278z" transform="translate(-530 -1180) translate(530 1180) translate(410 246.5) translate(5.662 16.176)"></path></g></g><g fill="#024F71" fill-rule="nonzero"><path d="M49.338 22.202V13.98c-.004-.038-.012-.076-.023-.113.002-.028.002-.055 0-.083L46.336 1.868C46.061.77 45.074 0 43.942 0H5.396C4.264 0 3.277.77 3.002 1.868L.025 13.78c-.002.028-.002.055 0 .083-.012.038-.02.077-.025.117v8.223c.004 1.3.623 2.52 1.67 3.29C.623 26.26.004 27.481 0 28.78v4.933c.004 1.3.623 2.52 1.67 3.29-1.047.77-1.666 1.99-1.67 3.289v4.934c.003 2.27 1.842 4.109 4.112 4.111h41.115c2.27-.002 4.109-1.842 4.111-4.111v-4.934c-.003-1.3-.623-2.52-1.67-3.29 1.047-.769 1.667-1.99 1.67-3.289v-4.933c-.003-1.3-.623-2.52-1.67-3.29 1.047-.77 1.667-1.99 1.67-3.289zM4.598 2.268c.09-.367.42-.624.798-.623h38.546c.378 0 .707.256.799.623l2.722 10.889H1.876l2.722-10.89zm43.096 38.025v4.934c0 1.362-1.105 2.467-2.467 2.467H4.112c-1.363 0-2.467-1.105-2.467-2.467v-4.934c0-1.363 1.104-2.467 2.467-2.467h41.115c1.362 0 2.467 1.104 2.467 2.467zm0-11.512v4.933c0 1.363-1.105 2.467-2.467 2.467H4.112c-1.363 0-2.467-1.104-2.467-2.467v-4.933c0-1.363 1.104-2.467 2.467-2.467h41.115c1.362 0 2.467 1.104 2.467 2.467zm0-6.579c0 1.363-1.105 2.467-2.467 2.467H4.112c-1.363 0-2.467-1.104-2.467-2.467v-7.4h46.049v7.4z" transform="translate(-530 -1180) translate(530 1180) translate(304 246.5)"></path><g><path d="M3.3 6.844c1.823 0 3.3-1.476 3.3-3.298C6.6 1.726 5.123.25 3.3.25 1.477.249 0 1.725 0 3.546c0 1.822 1.477 3.298 3.3 3.298zm0-4.946c.911 0 1.65.738 1.65 1.648 0 .911-.739 1.65-1.65 1.65-.911 0-1.65-.739-1.65-1.65 0-.91.739-1.648 1.65-1.648zM3.3 18.385c1.823 0 3.3-1.476 3.3-3.297 0-1.821-1.477-3.298-3.3-3.298-1.823 0-3.3 1.477-3.3 3.298 0 1.82 1.477 3.297 3.3 3.297zm0-4.946c.911 0 1.65.738 1.65 1.649 0 .91-.739 1.648-1.65 1.648-.911 0-1.65-.738-1.65-1.648 0-.911.739-1.65 1.65-1.65zM3.3 29.926c1.823 0 3.3-1.476 3.3-3.297 0-1.821-1.477-3.298-3.3-3.298-1.823 0-3.3 1.477-3.3 3.298s1.477 3.297 3.3 3.297zm0-4.946c.911 0 1.65.738 1.65 1.649 0 .91-.739 1.649-1.65 1.649-.911 0-1.65-.738-1.65-1.649 0-.91.739-1.649 1.65-1.649zM20.674 1.898L22.324 1.898 22.324 5.195 20.674 5.195zM23.974 1.898L25.624 1.898 25.624 5.195 23.974 5.195zM27.274 1.898L28.924 1.898 28.924 5.195 27.274 5.195zM30.574 1.898L32.224 1.898 32.224 5.195 30.574 5.195zM33.874 1.898L35.524 1.898 35.524 5.195 33.874 5.195zM37.174 1.898L38.824 1.898 38.824 5.195 37.174 5.195zM20.674 13.439L22.324 13.439 22.324 16.736 20.674 16.736zM23.974 13.439L25.624 13.439 25.624 16.736 23.974 16.736zM27.274 13.439L28.924 13.439 28.924 16.736 27.274 16.736zM30.574 13.439L32.224 13.439 32.224 16.736 30.574 16.736zM33.874 13.439L35.524 13.439 35.524 16.736 33.874 16.736zM37.174 13.439L38.824 13.439 38.824 16.736 37.174 16.736zM20.674 24.98L22.324 24.98 22.324 28.278 20.674 28.278zM23.974 24.98L25.624 24.98 25.624 28.278 23.974 28.278zM27.274 24.98L28.924 24.98 28.924 28.278 27.274 28.278zM30.574 24.98L32.224 24.98 32.224 28.278 30.574 28.278zM33.874 24.98L35.524 24.98 35.524 28.278 33.874 28.278zM37.174 24.98L38.824 24.98 38.824 28.278 37.174 28.278z" transform="translate(-530 -1180) translate(530 1180) translate(304 246.5) translate(5.662 16.176)"></path></g></g><g fill="#024F71" fill-rule="nonzero"><path d="M49.338 22.202V13.98c-.004-.038-.012-.076-.023-.113.002-.028.002-.055 0-.083L46.336 1.868C46.061.77 45.074 0 43.942 0H5.396C4.264 0 3.277.77 3.002 1.868L.025 13.78c-.002.028-.002.055 0 .083-.012.038-.02.077-.025.117v8.223c.004 1.3.623 2.52 1.67 3.29C.623 26.26.004 27.481 0 28.78v4.933c.004 1.3.623 2.52 1.67 3.29-1.047.77-1.666 1.99-1.67 3.289v4.934c.003 2.27 1.842 4.109 4.112 4.111h41.115c2.27-.002 4.109-1.842 4.111-4.111v-4.934c-.003-1.3-.623-2.52-1.67-3.29 1.047-.769 1.667-1.99 1.67-3.289v-4.933c-.003-1.3-.623-2.52-1.67-3.29 1.047-.77 1.667-1.99 1.67-3.289zM4.598 2.268c.09-.367.42-.624.798-.623h38.546c.378 0 .707.256.799.623l2.722 10.889H1.876l2.722-10.89zm43.096 38.025v4.934c0 1.362-1.105 2.467-2.467 2.467H4.112c-1.363 0-2.467-1.105-2.467-2.467v-4.934c0-1.363 1.104-2.467 2.467-2.467h41.115c1.362 0 2.467 1.104 2.467 2.467zm0-11.512v4.933c0 1.363-1.105 2.467-2.467 2.467H4.112c-1.363 0-2.467-1.104-2.467-2.467v-4.933c0-1.363 1.104-2.467 2.467-2.467h41.115c1.362 0 2.467 1.104 2.467 2.467zm0-6.579c0 1.363-1.105 2.467-2.467 2.467H4.112c-1.363 0-2.467-1.104-2.467-2.467v-7.4h46.049v7.4z" transform="translate(-530 -1180) translate(530 1180) translate(199 246.5)"></path><g><path d="M3.3 6.844c1.823 0 3.3-1.476 3.3-3.298C6.6 1.726 5.123.25 3.3.25 1.477.249 0 1.725 0 3.546c0 1.822 1.477 3.298 3.3 3.298zm0-4.946c.911 0 1.65.738 1.65 1.648 0 .911-.739 1.65-1.65 1.65-.911 0-1.65-.739-1.65-1.65 0-.91.739-1.648 1.65-1.648zM3.3 18.385c1.823 0 3.3-1.476 3.3-3.297 0-1.821-1.477-3.298-3.3-3.298-1.823 0-3.3 1.477-3.3 3.298 0 1.82 1.477 3.297 3.3 3.297zm0-4.946c.911 0 1.65.738 1.65 1.649 0 .91-.739 1.648-1.65 1.648-.911 0-1.65-.738-1.65-1.648 0-.911.739-1.65 1.65-1.65zM3.3 29.926c1.823 0 3.3-1.476 3.3-3.297 0-1.821-1.477-3.298-3.3-3.298-1.823 0-3.3 1.477-3.3 3.298s1.477 3.297 3.3 3.297zm0-4.946c.911 0 1.65.738 1.65 1.649 0 .91-.739 1.649-1.65 1.649-.911 0-1.65-.738-1.65-1.649 0-.91.739-1.649 1.65-1.649zM20.674 1.898L22.324 1.898 22.324 5.195 20.674 5.195zM23.974 1.898L25.624 1.898 25.624 5.195 23.974 5.195zM27.274 1.898L28.924 1.898 28.924 5.195 27.274 5.195zM30.574 1.898L32.224 1.898 32.224 5.195 30.574 5.195zM33.874 1.898L35.524 1.898 35.524 5.195 33.874 5.195zM37.174 1.898L38.824 1.898 38.824 5.195 37.174 5.195zM20.674 13.439L22.324 13.439 22.324 16.736 20.674 16.736zM23.974 13.439L25.624 13.439 25.624 16.736 23.974 16.736zM27.274 13.439L28.924 13.439 28.924 16.736 27.274 16.736zM30.574 13.439L32.224 13.439 32.224 16.736 30.574 16.736zM33.874 13.439L35.524 13.439 35.524 16.736 33.874 16.736zM37.174 13.439L38.824 13.439 38.824 16.736 37.174 16.736zM20.674 24.98L22.324 24.98 22.324 28.278 20.674 28.278zM23.974 24.98L25.624 24.98 25.624 28.278 23.974 28.278zM27.274 24.98L28.924 24.98 28.924 28.278 27.274 28.278zM30.574 24.98L32.224 24.98 32.224 28.278 30.574 28.278zM33.874 24.98L35.524 24.98 35.524 28.278 33.874 28.278zM37.174 24.98L38.824 24.98 38.824 28.278 37.174 28.278z" transform="translate(-530 -1180) translate(530 1180) translate(199 246.5) translate(5.662 16.176)"></path></g></g><g><g transform="translate(-530 -1180) translate(530 1180) translate(73 38) translate(214 12.5)"><rect width="195" height="61" fill="#024F71" rx="2"></rect><path fill="#FEFEFE" d="M182.207 7L185.703 11.167 179 19.098 172.298 11.167 173.7 9.508 179.875 9.508 181.15 11.07 177.299 15.623 178.948 17.573 184.525 10.995 181.107 7 172.522 7 169 11.167 179 23 189 11.167 185.478 7z" opacity=".748"></path><text fill="#FFF" font-family="OpenSans-Semibold, Open Sans" font-size="12" font-weight="500"><tspan x="33.439" y="29">DIAMANTI SPEKTRA</tspan></text></g><g transform="translate(-530 -1180) translate(530 1180) translate(73 38) translate(0 .5)"><rect width="204" height="35" x="1.5" y="12.5" stroke="#E00" rx="2"></rect><text fill="#E00" font-family="OpenSans-Semibold, Open Sans" font-size="12" font-weight="500"><tspan x="44.741" y="34">RED HAT OPENSHIFT</tspan></text><text fill="#024F71" font-family="OpenSans-Semibold, Open Sans" font-size="8" font-weight="500"><tspan x=".752" y="9">MANAGEMENT PLANE</tspan></text><text fill="#024F71" font-family="OpenSans-Semibold, Open Sans" font-size="8" font-weight="500"><tspan x=".834" y="60">DATA PLANE</tspan></text><text fill="#024F71" font-family="OpenSans-Semibold, Open Sans" font-size="8" font-weight="500"><tspan x="213.752" y="9">MANAGEMENT PLANE</tspan></text></g><g transform="translate(-530 -1180) translate(530 1180) translate(73 38) translate(0 63.5)"><rect width="409" height="46" fill="#2492C3" rx="2"></rect><path fill="#FEFEFE" d="M396.207 6L399.703 10.167 393 18.098 386.298 10.167 387.7 8.508 393.875 8.508 395.15 10.07 391.299 14.623 392.948 16.573 398.525 9.995 395.107 6 386.522 6 383 10.167 393 22 403 10.167 399.478 6z" opacity=".748"></path><text fill="#FFF" font-family="OpenSans-Semibold, Open Sans" font-size="17" font-weight="500"><tspan x="133.031" y="29">DIAMANTI ULTIMA</tspan></text></g><path stroke="#024F71" stroke-dasharray="1 3" stroke-linecap="round" stroke-width="2" d="M0 121.5L408 121.5" opacity=".5" transform="translate(-530 -1180) translate(530 1180) translate(73 38)"></path></g><text fill="#2B2B2B" font-family="OpenSans-SemiBoldItalic, Open Sans" font-size="9" font-style="italic" font-weight="500" transform="translate(-530 -1180) translate(530 1180)"><tspan x="401.681" y="316.069">Your choice of </tspan><tspan x="401.988" y="326.069">infrastructure</tspan></text></g></g></g></svg> 