<?xml version="1.0" encoding="UTF-8"?> <svg xmlns="http://www.w3.org/2000/svg" width="44" height="44" viewBox="0 0 44 44"><defs><filter id="a6dxc47ypa"><feColorMatrix in="SourceGraphic" values="0 0 0 0 1.000000 0 0 0 0 1.000000 0 0 0 0 1.000000 0 0 0 1.000000 0"></feColorMatrix></filter></defs><g fill="none" fill-rule="evenodd"><g filter="url(#a6dxc47ypa)" transform="translate(-771 -2081)"><g fill="#2492C3" fill-rule="nonzero"><g><path d="M23.494 13.602l-6.367 5.67-2.49-2.777c-.619-.644-1.637-.681-2.303-.085-.665.597-.739 1.613-.166 2.3l4.695 5.238 8.834-7.872c.652-.616.695-1.64.099-2.31-.597-.67-1.618-.744-2.306-.167l.004.003z" transform="translate(771 2081) translate(3 4)"></path><path d="M35.499 12.862c-.597-1.834 0-4.265-1.125-5.816-1.124-1.552-3.637-1.742-5.18-2.862-1.543-1.12-2.49-3.44-4.32-4.033-1.772-.574-3.912.733-5.874.733-1.962 0-4.102-1.307-5.874-.733-1.83.593-2.792 2.951-4.32 4.04-1.528 1.09-4.056 1.323-5.177 2.866-1.12 1.543-.527 3.975-1.128 5.805C1.939 14.634 0 16.262 0 18.224c0 1.963 1.939 3.591 2.501 5.363.597 1.834 0 4.265 1.125 5.816 1.124 1.551 3.637 1.741 5.18 2.862 1.543 1.12 2.485 3.447 4.32 4.044 1.768.574 3.912-.732 5.874-.732 1.962 0 4.102 1.306 5.874.732 1.835-.597 2.796-2.931 4.32-4.044 1.524-1.113 4.056-1.322 5.18-2.862 1.125-1.539.532-3.974 1.125-5.816.562-1.772 2.501-3.4 2.501-5.363 0-1.962-1.939-3.59-2.501-5.362zM19.09 29.186C12.965 29.186 8 24.22 8 18.096s4.965-11.09 11.09-11.09 11.09 4.965 11.09 11.09c0 2.941-1.168 5.762-3.248 7.842s-4.9 3.248-7.842 3.248z" transform="translate(771 2081) translate(3 4)"></path></g></g></g></g></svg> 