<?xml version="1.0" encoding="UTF-8"?> <svg xmlns="http://www.w3.org/2000/svg" width="44" height="44" viewBox="0 0 44 44"><defs><filter id="5khawkh3da"><feColorMatrix in="SourceGraphic" values="0 0 0 0 1.000000 0 0 0 0 1.000000 0 0 0 0 1.000000 0 0 0 1.000000 0"></feColorMatrix></filter></defs><g fill="none" fill-rule="evenodd"><g filter="url(#5khawkh3da)" transform="translate(-130 -2081)"><g fill="#2492C3" fill-rule="nonzero"><g><path d="M33 6.699h1.744c.694 0 1.256.563 1.256 1.256v24.28c0 .693-.562 1.255-1.256 1.255H1.256C.562 33.49 0 32.928 0 32.234V7.955C-.003 7.31.483 6.767 1.125 6.7l-.121.019H33V6.7zM6.632 0l.066.002h7.535c.693 0 1.255.562 1.255 1.256v3.46H5.441v-3.46C5.44.655 5.863.142 6.442.02l.126-.02c.043-.002.087-.002.13 0zm15.07 0l.065.002h7.535c.694 0 1.256.562 1.256 1.256v3.46H20.511v-3.46c-.003-.603.421-1.116 1-1.237l.126-.02c.043-.002.087-.002.13 0z" transform="translate(130 2081) translate(4 5.282)"></path></g></g></g></g></svg> 