<?xml version="1.0" encoding="UTF-8"?> <svg xmlns="http://www.w3.org/2000/svg" width="44" height="44" viewBox="0 0 44 44"><defs><filter id="c88gbws82a"><feColorMatrix in="SourceGraphic" values="0 0 0 0 1.000000 0 0 0 0 1.000000 0 0 0 0 1.000000 0 0 0 1.000000 0"></feColorMatrix></filter></defs><g fill="none" fill-rule="evenodd"><g filter="url(#c88gbws82a)" transform="translate(-450 -2081)"><g fill="#2492C3" fill-rule="nonzero"><g><path d="M21.827 2.01c-.14.025-.274.075-.4.148l-18.73 10.34c-.428.241-.697.726-.697 1.256s.269 1.015.696 1.256l4.963 2.747-4.963 2.732c-.427.24-.696.726-.696 1.255 0 .53.269 1.015.696 1.256l4.963 2.747-4.963 2.732c-.427.24-.696.726-.696 1.256s.269 1.014.696 1.255l18.732 10.34c.36.2.784.2 1.144 0l18.732-10.34c.427-.24.696-.726.696-1.255 0-.53-.269-1.015-.696-1.256l-4.963-2.732L41.304 23c.427-.24.696-.726.696-1.256s-.269-1.014-.696-1.255l-4.963-2.732 4.963-2.747c.427-.241.696-.726.696-1.256s-.269-1.015-.696-1.256L22.572 2.158c-.23-.131-.489-.182-.745-.147zM10.506 19.329l10.922 6.022c.36.2.784.2 1.144 0l10.922-6.022 4.39 2.424L22 30.506 6.115 21.752l4.39-2.424zm0 7.99l10.922 6.023c.36.199.784.199 1.144 0l10.922-6.023 4.39 2.424L22 38.496 6.115 29.742l4.39-2.424z" transform="translate(450 2081)"></path></g></g></g></g></svg> 