<?xml version="1.0" encoding="UTF-8"?> <svg xmlns="http://www.w3.org/2000/svg" width="44" height="44" viewBox="0 0 44 44"><g fill="none" fill-rule="evenodd"><g fill="#2492C3"><g><g><g><path d="M14.215 0c3.286 0 5.95 2.664 5.95 5.95 0 2.084-1.07 3.918-2.693 4.981l6.523 16.485c.565-.178 1.166-.274 1.79-.274.287 0 .57.02.845.06l3.557-5.242c-1.278-1.09-2.088-2.714-2.088-4.526 0-3.287 2.664-5.95 5.95-5.95 3.287 0 5.951 2.663 5.951 5.95 0 3.286-2.664 5.95-5.95 5.95-.798 0-1.558-.156-2.253-.442l-3.293 4.856c1.92.987 3.232 2.987 3.232 5.295 0 3.286-2.665 5.95-5.95 5.95-3.287 0-5.95-2.664-5.95-5.95 0-2.012.997-3.79 2.525-4.867l-6.546-16.543c-.509.142-1.046.217-1.6.217-.188 0-.375-.008-.559-.025L9.58 20.372c1.412 1.088 2.322 2.796 2.322 4.717 0 3.286-2.665 5.95-5.95 5.95-3.287 0-5.95-2.664-5.95-5.95s2.663-5.95 5.95-5.95c.708 0 1.39.124 2.02.351l3.87-8.082c-2.105-.917-3.577-3.015-3.577-5.458 0-3.286 2.664-5.95 5.951-5.95" transform="translate(-771 -3503) translate(771 3502) translate(0 1) translate(2 2)"></path></g></g></g></g></g></svg> 