<?xml version="1.0" encoding="UTF-8"?> <svg xmlns="http://www.w3.org/2000/svg" width="54" height="49" viewBox="0 0 54 49"><g fill="none" fill-rule="evenodd"><g fill="#024F71"><g><g><g><g><path d="M14.215 0c3.286 0 5.95 2.55 5.95 5.693 0 1.994-1.07 3.749-2.693 4.766l6.523 15.773c.565-.17 1.166-.263 1.79-.263.287 0 .57.02.845.057l3.557-5.015c-1.278-1.043-2.088-2.596-2.088-4.33 0-3.145 2.664-5.694 5.95-5.694 3.287 0 5.951 2.549 5.951 5.694 0 3.144-2.664 5.693-5.95 5.693-.798 0-1.558-.15-2.253-.423l-3.293 4.646c1.92.944 3.232 2.858 3.232 5.066 0 3.144-2.665 5.693-5.95 5.693-3.287 0-5.95-2.549-5.95-5.693 0-1.925.997-3.627 2.525-4.656l-6.546-15.829c-.509.136-1.046.208-1.6.208-.188 0-.375-.008-.559-.024l-4.077 8.13c1.412 1.041 2.322 2.675 2.322 4.513 0 3.144-2.665 5.693-5.95 5.693-3.287 0-5.95-2.549-5.95-5.693 0-3.144 2.663-5.693 5.95-5.693.708 0 1.39.119 2.02.336l3.87-7.733c-2.105-.877-3.577-2.884-3.577-5.222C8.264 2.55 10.928 0 14.215 0" transform="translate(-864 -1687) translate(770 1657) translate(94 30.617) translate(5 2.87) translate(2 1.914)"></path></g></g></g></g></g></g></svg> 