<?xml version="1.0" encoding="UTF-8"?> <svg xmlns="http://www.w3.org/2000/svg" width="176" height="20" viewBox="0 0 176 20"><g fill="none" fill-rule="evenodd"><g fill="#FFF"><g><path d="M147.688 16.167c-3.089 0-4.94-3.036-4.94-6.862 0-4.58 2.108-5.757 3.958-5.757 2.64 0 4.715 2.556 4.715 6.677 0 5.316-2.606 5.942-3.733 5.942m-.496-13.572c-5.083 0-6.996 4.105-6.996 7.282 0 3.29 1.966 7.283 6.826 7.283 4.303 0 7.013-3.363 7.013-7.617 0-4.255-2.625-6.948-6.843-6.948M94.245 17.195c1.13 0 2.32-.168 3.368-.764 1.51-.874 1.94-2.158 1.907-3.237-.052-1.77-1.028-3.015-3.64-4.744l-.608-.391c-1.806-1.173-2.316-1.825-2.34-2.681-.034-1.116.902-1.916 2.48-1.916 1.385 0 2.02.558 2.35.912.462.483.587 1.06.592 1.227.007.223.074.336.224.336.169 0 .23-.149.217-.56-.044-1.45.025-1.99.018-2.233-.004-.129-.112-.185-.304-.222-.56-.13-1.46-.315-2.847-.315-2.963 0-4.88 1.468-4.82 3.516.046 1.507.895 2.81 3.289 4.41l1 .67c1.807 1.19 2.153 2.065 2.18 2.977.029.987-.875 2.12-2.794 2.12-1.322 0-2.594-.502-3.105-1.878-.117-.317-.212-.706-.221-.95-.004-.148-.03-.316-.222-.316-.17 0-.228.205-.242.484-.012.298-.064 1.415-.033 2.438.011.408.079.503.424.632.928.354 1.89.485 3.127.485" transform="translate(-267 -14) translate(267 14)"></path><path d="M136.13 11.202l-2.986-.017c-.033 0-.1-.04-.037-.128.285-.414 2.06-2.97 2.825-4.064.05-.073.12-.048.122.023.024.548.205 4.075.205 4.075 0 .054-.036.11-.129.11m-30.744.009h-3.178c-.076 0-.115-.053-.123-.127l.133-3.677c.003-.066-.005-.155.05-.162.057-.007.066.052.123.12.143.18 3.046 3.737 3.046 3.737.04.056.042.109-.05.109m35.341 5.227c-.22 0-.489-.017-.744-.074-.357-.09-.696-.496-.85-2.145-.26-2.787-.749-10.268-.845-11.28-.034-.336-.373-.409-.583-.255-.156.115-.37.44-.587.737-3.295 4.492-5.111 6.921-8.46 11.45-.584.79-1.058 1.652-2.173 1.598-.476-.023-.659-.478-.713-.99-.09-.79-.09-2.237-.09-3.923v-7.33c0-.201.054-.312.144-.35.166-.054.44-.07.717-.07.42 0 1.494.053 2.152.656 1.026.918 1.015 2.163 1.015 2.766 0 1.872-1.484 3.064-2.51 3.064-.386 0-.714.055-.714.202 0 .128.13.148.22.165.093.017.874.046.966.046 2.602 0 4.463-1.564 4.509-4.435.013-.97-.519-1.79-.917-2.18-.525-.51-1.699-1.074-3.99-1.074-.843 0-1.904.057-2.657.057-.446 0-2.99-.11-3.107-.11-.622 0-1.244.056-1.606.056-.345 0-1.134-.055-1.985-.055-.246 0-.427.019-.427.166 0 .11.066.163.264.163.228 0 .622 0 .868.11.393.185.541.53.558 1.648l.047 7.122c-.279-.294-8.39-9.275-8.63-9.458-.309-.232-.626-.018-.626.272l-.304 9.212c-2.876-3.573-7.435-9.264-7.558-9.443-.188-.273-.646-.19-.677.203-.04.522-.827 11.894-.827 11.894-.029.906-.151 1.524-.964 1.63-.142.02-.395.037-.564.037-.148 0-.209.037-.167.144.055.147.18.183.422.183.967 0 1.967-.055 2.172-.055.577 0 1.396.055 1.99.055.204 0 .303-.036.249-.183-.041-.107-.11-.144-.334-.144h-.279c-.575 0-.83-.235-.955-.562-.083-.217-.154-.652-.139-1.105l.026-2.59c-.005-.11.019-.146.113-.146h3.95c.092 0 .162.035.233.129l2.93 3.599c.078.095.115.264-.03.406-.028.027-.123.09-.193.113-.23.074-.585.055-.8.055-.165 0-.17.104-.17.215 0 .165.15.2.364.2.854 0 1.625-.018 1.771-.018l1.76-.004c.564.011 1.101.034 1.43.035.723 0 .84-.036.786-.183-.048-.127.007-.19-.142-.19-.223 0-.245.01-.545-.045-.425-.09-.93-.612-2.251-2.244l-.278-.345-.108-6.646c.296.349 7.624 8.323 8.658 9.42.18.202.377.403.556.403.15 0 .214-.165.214-.569l.18-11.544c.017-1.024.137-1.442.606-1.555.176-.042.655-.051 1.012.024.604.128.752.421.789 1.044.036.588.036 1.1.036 3.885l.001 3.226c0 1.685 0 3.133-.093 3.903-.073.53-.165.935-.531 1.008-.164.037-.386.074-.66.074-.22 0-.293.054-.293.146 0 .128.13.182.366.182.733 0 2.415-.082 2.501-.077 1.681.088 3.155.063 3.967.036.67-.024 1.661.087 1.91.087.204 0 .371-.03.373-.185 0-.087-.054-.147-.227-.147h-.276c-.567 0-.5-.253-.3-.543l2.607-3.762c.072-.11.12-.148.213-.148l3.684-.017c.092 0 .134.036.141.128l.147 3.827c.02.22-.162.387-.302.422-.19.02-.313.037-.307.198.006.156.162.18.498.17.665-.013 1.177-.03 1.928-.02.665.01 1.347.065 1.705.065.677 0 .914-.092.963-.238.041-.128-.076-.2-.223-.2M169.339 16.167c-3.091 0-4.941-3.036-4.941-6.862 0-4.58 2.107-5.757 3.958-5.757 2.64 0 4.715 2.556 4.715 6.677 0 5.316-2.606 5.942-3.732 5.942m-.498-13.572c-5.081 0-6.995 4.105-6.995 7.282 0 1.54.43 3.232 1.385 4.599-.078.322-.26.703-.442.9-.457.496-1.608.512-2.578.512-1.43 0-1.528-.128-1.839-.401-.385-.329-.385-1.594-.385-3.941V8.32c0-2.785 0-3.298.037-3.885.037-.641.183-.953.677-1.045.22-.036.515-.055.716-.055.22 0 .33-.034.33-.164 0-.128-.129-.165-.386-.165-.714 0-2.46.055-2.9.055-.496 0-1.695-.055-2.556-.055-.275 0-.403.037-.403.165 0 .13.109.164.31.164.24 0 .46.02.606.055.605.128.752.423.788 1.045.037.587.037 1.1.037 3.885v3.225c0 1.689 0 3.134-.092 3.905-.073.53-.164.933-.53 1.008-.167.036-.386.071-.662.071-.218 0-.292.057-.292.149 0 .126.129.183.367.183.732 0 1.931-.057 2.354-.057 1.484 0 3.16.11 5.796.11.954 0 1.047-.09 1.156-.495.092-.335.177-1.006.227-1.504 1.102 1.324 2.769 2.244 5.105 2.244 4.303 0 7.012-3.363 7.012-7.617 0-4.255-2.625-6.948-6.843-6.948M54.015 11.448l-2.986-.014c-.031 0-.1-.04-.037-.128.286-.416 2.06-2.97 2.826-4.065.05-.073.12-.05.123.024.023.548.203 4.074.203 4.074 0 .054-.037.11-.129.11m4.6 5.236c-.222 0-.49-.016-.746-.074-.355-.09-.695-.496-.85-2.146-.259-2.785-.746-10.268-.845-11.278-.031-.338-.373-.408-.583-.256-.154.114-.37.44-.587.737-2.537 3.462-4.201 5.7-6.36 8.616-.33-1.332-1.369-2.43-3.52-3.856l-.61-.39c-1.805-1.174-2.314-1.825-2.34-2.68-.034-1.117.902-1.918 2.48-1.918 1.386 0 2.021.559 2.352.912.461.485.585 1.06.59 1.229.007.223.075.335.223.335.17 0 .231-.15.218-.558-.043-1.453.026-1.993.02-2.234-.005-.13-.113-.185-.306-.222-.559-.131-1.46-.318-2.845-.318-2.964 0-4.882 1.472-4.82 3.517.045 1.508.894 2.81 3.287 4.412l1.001.669c1.806 1.19 2.152 2.064 2.18 2.977.03.986-.875 2.122-2.794 2.122-1.322 0-2.595-.504-3.106-1.88-.116-.317-.212-.708-.22-.95-.004-.148-.03-.315-.222-.315-.17 0-.209.205-.242.482-.021.18-.086.613-.108.735-.13.758-.352 1.147-.832 1.37-.481.223-1.26.223-1.74.223-1.888 0-3.258-.279-3.295-1.555-.018-.538 0-2.24 0-2.87V10.06c0-.112.019-.185.11-.185.444 0 3.08.018 3.431.055.685.073.944.351 1.037.721.055.24.055.482.074.667 0 .093.037.167.167.167.165 0 .165-.205.165-.352 0-.129.037-.87.075-1.24.055-.944.149-1.24.149-1.35 0-.113-.056-.15-.13-.15-.094 0-.167.093-.296.241-.166.186-.446.24-.888.277-.427.038-3.358.038-3.765.038-.11 0-.129-.075-.129-.204V4.063c0-.13.037-.185.13-.185.369 0 3.115.037 3.43.074.925.111 1.11.333 1.24.666.092.222.11.537.11.667 0 .166.038.258.168.258s.167-.11.185-.203c.036-.222.074-1.037.092-1.222.055-.852.147-1.074.147-1.203 0-.092-.017-.167-.11-.167s-.203.056-.296.075c-.148.037-.444.074-.795.11-.353.02-4.838.02-5.43.02-.259 0-.684-.02-1.166-.038-.38 0-.811-.012-1.23-.016-.018-.094-.055-.134-.133-.134-.144 0-.587.183-1.762.183h-6.23c-.606 0-1.302-.037-1.833-.092-.459-.035-.635-.152-.783-.152-.102 0-.163.038-.215.239h-.181c-.245 0-.49.008-.72.019-.398.014-.735.032-.95.035-.372-.006-1.11-.054-1.904-.054-.246 0-.424.018-.424.164 0 .109.065.164.26.164.229 0 .62 0 .866.11.35.165.504.457.544 1.321l.058 7.448c-.277-.293-8.35-9.276-8.588-9.458-.308-.232-.626-.017-.626.273l-.157 4.82-.224 6.367c-.017 1.59-.33 1.904-.755 2.16-.193.118-.537.173-.774.184-.072.003-.83.037-1.154-.04-.49-.118-.784-.45-.84-.944-.074-.79-.074-2.237-.074-4.02V8.266c0-2.788 0-3.302.038-3.89.036-.641.184-.954.678-1.045.217-.037.362-.057.545-.057.184 0 .291-.034.291-.183 0-.108-.145-.146-.382-.146-.694 0-1.772.054-2.227.054-.53 0-1.68-.054-2.374-.054-.292 0-.44.038-.44.146 0 .149.11.183.294.183.217 0 .456.02.658.074.4.092.585.404.619 1.028.037.588.037 1.102.037 3.89v3.228c0 1.782 0 3.229-.09 4-.055.532-.166.842-.532.919-.162.035-.382.071-.655.071-.22 0-.294.056-.294.149 0 .128.129.183.366.183.731 0 1.88-.055 2.302-.055.49 0 3.242.053 3.328.053.947 0 1.905-.029 2.067-.029.346 0 1.073.055 2.256.055.254 0 .419-.037.419-.183 0-.11-.109-.145-.31-.145-.29 0-.636-.02-.945-.129-.364-.128-.601-.603-.636-2.029l-.068-3.6-.058-3.581c.294.347 7.588 8.321 8.616 9.42.18.2.376.402.555.402.146 0 .212-.164.212-.568l.18-11.545c.002-.143.006-.276.013-.397.057-.696.212-.953.532-1.102.17-.077.411-.098.62-.106-.012.53 0 1.6 0 1.83 0 .203.037.293.165.293.109 0 .164-.074.202-.22.036-.148.128-.37.31-.645.275-.405.717-.498 1.782-.536l1.835-.073v7.557c0 1.696 0 3.152-.09 3.926-.056.536-.274.94-.64 1.016-.166.035-.756.072-1.03.072-.22 0-.293.055-.293.148 0 .128.128.184.367.184.732 0 2.365-.056 2.785-.056.514 0 1.672.056 2.88.056.204 0 .352-.056.352-.184 0-.093-.095-.148-.295-.148-.274 0-.68-.037-.936-.072-.548-.077-.659-.48-.715-.997-.092-.793-.092-2.249-.092-3.945V3.925l1.805.056c1.633.037 2.19.553 2.226 1.032l.018.202c.02.278.056.368.203.368.11 0 .145-.11.165-.294 0-.446-.005-1.58-.005-2.047.139.01.267.023.345.043.61.131.76.426.797 1.055.035.593.035 1.111.035 3.924v3.257c0 1.704 0 3.166-.091 3.944-.075.535-.166.944-.537 1.016-.167.037-.389.075-.667.075-.221 0-.296.054-.296.148 0 .129.13.185.371.185.37 0 .85-.019 1.277-.037.444 0 .85-.02 1.054-.02.556 0 1.13.02 1.926.057.795.019 2.887.056 4.275.056.704 0 .87 0 .998-.481l.015-.06c.052.138.16.205.373.285.928.353 1.891.484 3.128.484.408 0 .825-.023 1.239-.08.547.006 1.01 0 1.354-.011.67-.023 1.66 0 1.91 0 .202 0 .37.023.372-.133.001-.086-.053-.146-.227-.146h-.275c-.568 0-.5-.254-.302-.543l2.608-3.763c.072-.109.12-.146.212-.146l3.686-.02c.09 0 .133.039.142.13l.145 3.828c.02.22-.162.385-.301.42-.19.019-.315.036-.309.199.007.154.164.178.499.17.665-.014 1.176-.031 1.927-.02.665.01 1.348.065 1.707.065.677 0 .913-.091.96-.239.043-.127-.073-.199-.22-.199M84.764 0v19.735H65.029V0h19.735zM80.34 7.313l-.008.054c-.054 0-.099.011-.137.03h-.189l-.174.001.02.068-.004.004c-.076-.021-.137.026-.168.054l-.016.012c-.063.012-.097.037-.123.057-.019.013-.024.018-.041.02l-.03.001-.02.024c-.025.033-.107.067-.152.089l-.097.042.022.02c-.015.007-.032.017-.047.03h-.093v.075l-.01-.002-.053-.023c-.003-.001-.037.044-.037.044-.056.08-.13.159-.208.241-.091.097-.185.196-.258.306l-.023.033.015.032c-.017.01-.061.037-.069.09-.035.038-.043.09-.048.124l-.007.031c-.038.048-.048.094-.054.128-.003.028-.006.043-.018.057l-.046.059.02.015c-.014.034-.014.07-.014.092l-.001.03-.03.018.007.047c.012.091.001.174-.012.264-.011.085-.021.172-.013.269-.035.054-.025.117-.02.156.002.014.005.033.003.04l-.046.037.033.054c.025.042.005.109-.013.172-.018.06-.04.136-.018.2l-.016.017c-.007.012-.013.03-.013.054 0 .049-.005.063-.008.068l-.032.07-.006.028.061.042c-.006.042-.002.08.004.114.007.047.01.067-.005.085l-.039.07.038.045v.011c-.001.032-.004.089.035.13 0 .008.003.015.004.022l-.069.02.046.096-.006.024c-.008.028-.02.085.01.135-.023.056-.009.113.001.149l.007.034c-.067.069-.034.16-.016.209-.031.047-.023.104-.017.137l-.09.03.092.094c-.004.021-.004.045.01.071.011.016.024.025.037.032l-.026.008c0 .005.001.006.003.009l.031.084v.008c-.009.05.003.098.027.134-.008.011-.013.024-.014.04l-.036.036.035.05c.026.039.017.089-.004.17-.017.069-.039.157.002.234l-.05.049.063.045-.005.01c-.017.03-.046.085-.01.146l-.002-.008c.013.03.007.076 0 .126-.008.072-.018.16.02.247l-.012.087.003-.01c-.01.033-.003.062.008.083l-.028.014.02.059c.02.064.02.142.02.223.001.156.001.331.14.464l.032.03.04-.012c.105-.03.11-.135.113-.191l.002-.033v-.015l-.002-.014c-.042-.143-.025-.33-.01-.493l.012-.125v-.02l-.008-.018c-.028-.057-.021-.114-.013-.18.008-.058.014-.125-.007-.193.024-.3.01-.656-.002-.972-.005-.134-.01-.26-.012-.373l-.001-.005v-.004c-.018-.148-.012-.308-.01-.461.005-.14.01-.282-.002-.413.031-.15.03-.288.027-.433-.001-.065-.003-.135 0-.205v-.018l-.004-.009c.032-.038.04-.079.022-.12.016-.054.018-.107.02-.154.001-.038.002-.072.01-.105l.004-.019-.005-.016c-.008-.033 0-.069.009-.106.01-.049.023-.104.003-.16.056-.113.068-.25.08-.386l.004-.045c.003-.03-.005-.057-.03-.081v-.005c0-.06.03-.108.07-.168.042-.066.09-.14.103-.245l.001-.016v-.003l.016-.015c.024-.023.064-.056.063-.109 0-.01-.001-.02-.004-.028.048-.046.08-.097.108-.142.04-.068.069-.118.15-.14l.039-.012.01-.038c.012-.045.05-.07.112-.108.046-.03.096-.062.134-.111.051.005.084-.01.102-.03.062-.015.11-.05.15-.083.065-.053.087-.065.131-.043l.046.02.028-.029.007-.001c.02-.004.056-.017.076-.05.02-.004.038-.01.053-.015.036-.012.045-.013.058-.006.013.006.037.016.067.01l.002.003.053-.007.07-.007c.206-.027.383-.05.544.036l.058.033.035-.053.02.023c.042.047.115.126.22.108.022.02.048.036.07.05l.03.018v.002l.015.02c.033.043.102.064.157.066.12.128.244.3.244.378v.07h.053l.001.005c.02.095.047.21.12.287-.02.049-.003.107.005.13l.008.027-.018.054.048.047.009.006c-.003.049.02.096.036.127l.011.027-.01.026c-.064.123.022.191.063.223l.016.014c-.033.025-.032.05-.037.094l.004.053.022.035.002.001.002.007c.004.011.009.025.018.042l-.025.024-.017.063.037.053.027.013c-.001.03.011.055.018.073l.004.01-.006.032c-.023.117-.054.27.02.392l-.004.004c-.035.046-.028.098-.02.136 0 .012.004.033.002.04l-.017.072c-.001.003.022.01.044.014-.003.007-.006.013-.008.022l-.016.085h.03c-.006.029-.006.056-.007.08-.001.044-.002.072-.018.095l-.006.01-.003.01c-.02.078.007.15.03.21l.013.032c-.013.014-.024.032-.023.06 0 .006.003.012.005.018l-.016.015.014.043c.007.022.021.038.04.047l-.013.002c-.002 0-.002.026-.002.042v.035l-.045.012.023.047c-.012.023-.024.053-.012.088l-.03.055s.004.032.033.046c-.03.098.041.168.083.21.018.02.03.031.038.043h-.035l.026.092.001.002-.019.021-.058.029.019.078-.007.02c-.012.042-.002.07.01.087.003.004.006.004.008.008-.021.022-.045.051-.049.099l-.007.067.054.01c-.003.014-.009.028-.012.04-.007.028-.012.048-.025.066h.002l-.006.009.096.053c-.012.026-.021.05-.027.07l-.011.027h-.006l-.08.002.003.094c.005.014.007.029.009.049.002.017.004.037.01.057v.093c0 .012 0 .03.003.05l-.01.007.007.053c.004.025.001.05 0 .076-.002.014-.002.03-.002.048l-.066.032.08.088-.002.006c-.009.02-.02.05-.02.081h-.057l.097.118c.008.01.016.037.02.055l.003.008c-.04.039-.045.094-.049.127l-.003.02-.003.016.025.033c-.019.014-.03.03-.037.043-.01.023-.01.045-.007.067h-.095l.078.078-.073.023.06.05v.192c0 .034.019.063.045.078l.006.002c.038.025.08.023.114.017v.078l.092-.028c.067-.02.118-.024.171-.013l.077.016.01-.077c.037-.284.029-.563.022-.83-.007-.262-.014-.508.02-.75.02-.048 0-.091-.015-.116l.017-.01v-.04L82.6 11.35v-.007c-.024-.194-.028-.408-.033-.634-.006-.255-.011-.518-.046-.75-.006-.335-.072-.691-.136-1.037l-.044-.235-.004-.022-.015-.017c-.052-.051-.07-.116-.089-.191-.016-.064-.034-.129-.073-.19-.086-.158-.224-.31-.345-.445l-.005-.007c-.03-.04-.066-.062-.096-.082-.018-.011-.036-.023-.053-.039l-.028-.023-.017.004-.022-.018c-.109-.087-.21-.12-.328-.16h-.003c-.034-.05-.098-.056-.142-.059v-.03l-.062-.01-.286-.042-.042-.007-.025.035c-.01.013-.014.017-.075-.005-.027-.009-.057-.021-.09-.024l-.033-.003-.017.016c-.009-.007-.02-.013-.033-.02l-.119-.035zm-5.386-.097l-.008.055c-.054 0-.1.01-.136.03h-.19l-.175.001.02.068-.003.003c-.078-.02-.135.027-.169.054l-.015.013c-.062.01-.098.036-.122.055-.019.014-.026.02-.042.02l-.03.003-.02.024c-.026.03-.108.068-.153.088l-.096.042.02.02c-.015.007-.03.017-.045.03h-.093v.074l-.01-.002-.052-.023c-.005 0-.038.046-.038.046-.056.079-.131.157-.208.24-.09.097-.186.197-.257.306l-.023.03.014.035c-.018.01-.06.037-.069.09-.035.039-.043.09-.05.124 0 .01-.003.026-.006.033-.038.045-.046.092-.052.127-.005.027-.007.042-.019.056l-.046.057.02.017c-.013.035-.013.07-.013.093 0 .01 0 .02-.002.03l-.03.018.007.045c.008.06.006.119 0 .177l-.012.087c-.01.085-.022.172-.012.27-.036.053-.028.116-.021.157.002.013.005.032.004.04l-.046.036.032.054c.025.042.005.109-.013.172-.018.06-.039.134-.018.2-.005.004-.011.01-.016.017-.007.01-.015.03-.013.052 0 .051-.005.066-.007.07l-.034.07-.004.027.06.043c-.006.041-.002.08.003.114.009.046.01.066-.005.085l-.037.07.037.045v.012c-.002.031-.004.088.035.13l.004.021-.07.019.046.097c0 .006-.003.015-.005.024-.007.028-.02.085.01.135-.022.055-.009.11 0 .147l.007.035c-.066.07-.033.162-.015.211-.03.046-.024.102-.017.137l-.09.03.092.093c-.004.02-.004.044.01.07.01.016.024.026.038.032l-.028.01.004.01.03.082v.01c-.007.048.004.096.028.133-.009.009-.013.024-.015.04l-.036.035.036.05c.026.038.016.09-.003.169-.018.068-.04.158 0 .234l-.05.049.063.047c0 .003-.004.006-.004.009-.017.029-.046.086-.01.145.01.023.005.07-.001.119-.009.072-.02.16.02.248l-.013.087.003-.012c-.01.035-.003.064.009.084l-.029.012.02.062c.02.064.02.14.02.222.001.156.001.33.141.465l.031.029.04-.013c.105-.03.108-.135.112-.189 0-.014 0-.024.003-.034v-.015l-.003-.013c-.042-.143-.024-.33-.008-.494l.011-.125v-.019l-.007-.02c-.029-.056-.022-.113-.014-.178.008-.059.014-.125-.007-.193.024-.303.011-.658-.003-.973-.004-.132-.01-.258-.013-.375v-.007c-.017-.148-.012-.307-.008-.463.003-.138.008-.28-.004-.41.032-.152.03-.288.027-.434-.001-.067-.002-.133 0-.204v-.019l-.004-.01c.033-.037.04-.077.024-.117.014-.057.018-.109.018-.155.001-.039.004-.075.01-.107l.004-.018-.004-.017c-.009-.032 0-.068.008-.107.011-.047.024-.103.004-.157.054-.113.068-.252.078-.386l.005-.046c.005-.03-.006-.058-.03-.081V9.05c0-.059.032-.106.071-.166.042-.067.089-.143.102-.245l.001-.017V8.62l.015-.016c.026-.02.065-.055.065-.108 0-.01-.002-.019-.004-.029.049-.044.08-.095.108-.14.04-.07.07-.119.15-.142l.038-.011.01-.039c.012-.044.051-.068.112-.108.046-.028.097-.061.135-.11.052.004.083-.009.101-.03.062-.014.11-.052.15-.083.065-.054.088-.065.132-.043l.044.019.03-.029h.006c.02-.006.057-.016.078-.05.02-.004.037-.01.052-.014.037-.013.045-.014.059-.008.011.008.037.017.066.01l.002.005.053-.007.07-.008c.205-.027.383-.05.544.036l.058.03.034-.05c.007.007.015.015.021.024.042.046.114.125.22.107.022.021.048.037.07.05l.03.018v.004l.015.018c.032.043.101.064.157.066.12.127.243.302.243.378v.07h.055v.004c.02.094.047.211.12.289-.02.047-.003.105.005.129l.008.027-.019.054.048.047.01.006c-.003.048.02.094.035.127l.012.028-.01.025c-.065.123.022.192.062.223l.015.013c-.031.024-.03.05-.037.093l.006.054.023.037h.001v.004c.005.014.01.028.02.045l-.024.024-.018.063.036.051.028.015c-.001.028.01.055.019.072l.003.01-.006.032c-.023.117-.054.27.02.392-.003.003-.006.005-.006.007-.034.045-.026.096-.02.134.002.012.005.032.004.038l-.018.074c-.001.004.024.01.044.014l-.008.022-.014.085h.028c-.005.03-.006.056-.007.08 0 .044-.002.073-.017.093l-.007.01-.002.013c-.022.076.007.149.03.209l.013.03c-.013.016-.026.034-.024.063 0 .006.004.012.005.017l-.016.015.015.04c.007.026.021.04.038.05l-.01.003c-.003 0-.003.056-.003.056v.02l-.046.013.023.046c-.012.022-.023.053-.012.088l-.03.055c.002-.001.006.032.033.046-.028.097.042.168.084.211.019.017.03.031.037.042h-.035l.027.092v.002l-.017.02-.06.028.02.08-.007.02c-.013.041-.002.069.01.087l.008.008c-.022.02-.045.052-.05.1l-.007.067.056.008-.012.042c-.009.024-.014.046-.026.064v.001l-.004.008.096.054c-.014.025-.022.051-.027.069l-.01.029h-.088l.005.093c.003.015.006.03.008.05.002.018.004.037.009.057v.094c0 .011 0 .03.004.05l-.011.007.007.052c.004.025.002.052 0 .076l-.002.048-.065.034.08.088-.002.004c-.009.021-.02.049-.02.082h-.057l.097.118c.008.009.016.036.02.056.002 0 .002.003.003.006-.04.038-.047.096-.05.126-.001.014-.002.034-.006.04l.001-.002.025.033c-.02.014-.031.03-.038.043-.009.023-.009.047-.007.068h-.093l.076.076-.071.025.06.049v.19c0 .036.016.065.044.079h.004c.04.027.08.027.115.018v.08l.093-.028c.067-.02.118-.023.171-.012l.077.014.01-.076c.036-.286.029-.563.022-.83-.008-.261-.014-.51.02-.751.02-.048-.002-.093-.015-.114l.016-.01v-.04l-.014-1.287v-.004l-.001-.003c-.023-.194-.027-.408-.033-.634-.005-.255-.01-.518-.045-.751-.005-.333-.072-.692-.136-1.038l-.043-.233-.005-.022-.015-.016c-.051-.053-.07-.118-.089-.192-.017-.064-.034-.129-.074-.19-.086-.158-.222-.31-.343-.444l-.006-.008c-.03-.04-.066-.062-.096-.082-.019-.012-.036-.023-.054-.039l-.029-.024-.015.004-.022-.017c-.11-.087-.211-.122-.329-.16h-.002c-.034-.049-.1-.056-.142-.057V7.31l-.062-.009-.285-.043-.043-.006-.027.035c-.01.013-.012.017-.072-.006-.028-.01-.057-.02-.091-.024l-.034-.003-.016.016-.032-.02-.12-.035zm-5.48 0l-.01.055c-.052 0-.098.01-.135.03h-.19l-.174.001.02.068-.004.003c-.077-.02-.135.027-.167.054-.007.004-.012.01-.017.013-.062.01-.098.036-.123.055-.018.014-.025.02-.041.02l-.03.003-.019.024c-.027.03-.109.068-.152.088l-.098.042.022.02c-.015.007-.032.017-.046.03h-.093v.074l-.01-.002-.052-.023c-.006 0-.038.046-.038.046-.057.079-.131.157-.209.24-.091.097-.185.197-.257.306l-.024.03.016.035c-.018.01-.062.037-.069.09-.036.039-.045.09-.049.124-.001.01-.004.026-.007.033-.037.045-.047.092-.054.127-.004.027-.006.042-.018.056l-.046.057.021.017c-.013.035-.014.07-.014.093l-.001.03-.031.018.007.045c.012.09 0 .176-.011.264-.012.085-.023.172-.013.27-.036.053-.028.116-.021.157.002.013.005.032.004.04l-.047.036.033.054c.025.042.006.109-.014.172-.017.06-.038.134-.015.2l-.017.017c-.008.01-.015.03-.014.052 0 .051-.004.066-.006.07l-.034.07-.006.027.062.043c-.006.041-.002.08.003.114.008.046.01.066-.005.085l-.038.07.038.045v.012c-.003.031-.004.088.034.13.001.006.002.014.005.021l-.07.019.045.097c0 .006-.003.015-.003.024-.008.028-.021.085.008.135-.022.055-.008.11 0 .147l.008.035c-.066.07-.033.162-.016.211-.031.046-.023.102-.017.137l-.089.03.09.093c-.003.02-.003.044.011.07.01.016.024.026.038.032l-.027.01.003.01.033.082-.003.01c-.007.048.005.096.028.133-.008.009-.013.024-.015.04l-.036.035.036.05c.027.038.016.09-.003.169-.018.068-.04.158 0 .234l-.049.049.062.047c0 .003-.003.006-.004.009-.016.029-.045.086-.008.145l-.005-.007c.014.03.008.077.002.126-.009.072-.019.16.02.248l-.013.087.003-.012c-.01.035-.002.064.01.084l-.03.012.02.062c.02.064.02.14.022.222 0 .156 0 .33.14.465l.03.029.04-.013c.105-.03.11-.135.113-.189v-.018l.004-.03-.004-.014c-.042-.143-.025-.33-.008-.494.002-.044.007-.085.01-.125l.001-.019-.009-.02c-.028-.056-.021-.113-.013-.178.008-.059.015-.125-.007-.193.025-.303.01-.658-.002-.973-.005-.132-.01-.258-.012-.375v-.003l-.001-.004c-.018-.148-.014-.307-.009-.463.004-.138.009-.28-.005-.41.034-.152.03-.288.029-.434-.001-.067-.002-.133 0-.204v-.019l-.004-.01c.032-.037.04-.077.023-.117.015-.057.017-.109.018-.155.003-.039.004-.075.012-.107l.003-.018-.004-.017c-.01-.032-.001-.068.008-.107.01-.047.023-.103.003-.157.056-.113.068-.252.08-.386l.003-.046c.005-.03-.005-.058-.029-.081V9.05c0-.059.032-.106.07-.166.043-.067.09-.143.103-.245l.002-.017-.001-.003.016-.016c.026-.02.065-.055.064-.108 0-.01-.003-.019-.005-.029.05-.044.08-.095.108-.14.04-.07.07-.119.15-.142l.038-.011.01-.039c.013-.044.051-.068.112-.108.046-.028.097-.061.135-.11.052.004.083-.009.102-.03.063-.014.11-.052.15-.083.066-.054.087-.065.132-.043l.044.019.029-.029h.005c.022-.006.057-.016.079-.05.02-.004.038-.01.052-.014.037-.013.046-.014.058-.008.014.008.037.017.067.01l.003.005.052-.007.069-.008c.207-.027.384-.05.545.036l.059.03.033-.05c.008.007.016.015.022.024.042.046.114.125.218.107.023.021.05.037.072.05l.03.018v.004l.014.018c.033.043.102.064.157.066.122.127.244.302.244.378v.07h.053v.004c.021.094.048.211.121.289-.02.047-.002.105.005.129l.008.027-.017.054.046.047.011.006c-.003.048.019.094.036.127l.012.028-.012.025c-.065.123.022.192.063.223.006.007.01.01.016.013-.033.024-.032.05-.038.093l.005.054.022.037h.002l.002.008.018.04-.025.025-.017.063.036.051.029.015c-.002.028.01.055.018.072l.005.01-.007.032c-.024.117-.053.27.019.392l-.006.007c-.022.03-.026.063-.024.093l.005.041c.001.012.006.032.003.038l-.018.074c-.001.004.024.01.044.014-.002.007-.005.014-.006.022l-.017.085h.03c-.005.03-.006.056-.007.08 0 .044-.002.073-.017.093l-.006.01-.004.013c-.02.076.007.149.031.209l.011.03c-.011.016-.023.034-.021.063 0 .006.002.012.004.017l-.016.015.014.04c.008.026.022.04.04.05l-.012.003-.002.015-.001.06-.044.014.021.046c-.01.022-.023.053-.01.088l-.031.055c.001-.001.005.032.033.046-.03.097.04.168.085.211.017.017.028.031.037.042h-.036l.026.092.001.002c-.006.005-.012.013-.018.02l-.06.028.02.08-.005.02c-.015.041-.004.069.008.087l.008.008c-.02.02-.044.052-.05.1l-.006.067.055.008c-.006.015-.01.029-.013.042-.007.024-.012.046-.024.064v.001l-.005.008.096.054c-.013.025-.021.051-.026.069l-.01.029h-.088l.004.093c.005.015.007.03.009.05.001.018.003.037.008.057v.094c0 .011 0 .03.005.05l-.012.007.008.052c.004.025.002.052 0 .076 0 .015-.003.033-.002.048l-.066.034.08.088-.001.003c-.01.022-.02.05-.02.083h-.059l.098.118c.009.009.016.036.02.056.002 0 .003.003.003.006-.04.038-.046.096-.048.126l-.004.023-.004.015h.002l.025.033c-.02.014-.03.03-.037.043-.01.023-.011.047-.009.068h-.093l.077.076-.073.025.061.049v.19c0 .036.016.065.045.079h.003c.04.027.082.027.116.018v.08l.092-.028c.067-.02.119-.023.172-.012l.076.014.01-.076c.037-.286.029-.563.022-.83-.007-.261-.014-.51.02-.751.02-.048 0-.093-.015-.114l.016-.01v-.04l-.014-1.287v-.007c-.024-.194-.028-.408-.033-.634-.005-.255-.011-.518-.046-.751-.006-.333-.071-.692-.136-1.038l-.044-.233-.002-.022-.017-.016c-.052-.053-.07-.118-.089-.192-.016-.064-.034-.129-.073-.19-.086-.158-.222-.31-.343-.444l-.006-.008c-.031-.04-.066-.062-.097-.082-.019-.012-.036-.023-.054-.039l-.027-.024-.016.004-.023-.017c-.108-.087-.21-.122-.328-.16h-.002c-.035-.049-.099-.056-.143-.057V7.31l-.061-.009-.287-.043-.042-.006-.027.035c-.008.013-.012.017-.072-.006-.027-.01-.058-.02-.09-.024l-.035-.003-.016.016-.032-.02-.12-.035zm3.44-1.813c-.617.005-1.215.021-1.824.04-.636.016-2.151.02-3.057.023l-.288.001h-.22l-.085.001h-.12l-.054.002c-.108.007-.237.155-.24.276-.003.066.038.143.153.154.049.006.248.01.596.01h1.032l1.016-.006h.387c.03 0 .052 0 .069-.002h.006c.747-.075 1.498-.071 2.223-.067h.057c.47.003.956.006 1.444-.013.102.023.209.002.312-.02l.016-.002c.046-.01.093-.019.14-.021.11.03.238.029.373.026.129-.002.26-.005.38.024l.002.003.02-.001v-.003c.105-.037.203-.017.304.003l.019.003c.048.01.094.018.138.019.944-.025 1.988.008 3.29.11l.595.062.021.002h.008c.548-.053 1.114-.012 1.661.028h.013c.412.032.8.06 1.187.051v.005l.025-.008-.001-.005.205-.163.01-.01-.001-.002c.057-.09.05-.212-.007-.301l-.042-.05-.006-.005c-.12-.072-.3-.113-.423-.06-.78-.073-1.524-.065-2.313-.057h-.023l-.03.001c-.395.006-.803.01-1.211.003l-3.303-.068c-.774-.02-1.623-.014-2.455.017z" transform="translate(-267 -14) translate(267 14)"></path></g></g></g></svg> 