<?xml version="1.0" encoding="UTF-8"?> <svg xmlns="http://www.w3.org/2000/svg" width="54" height="49" viewBox="0 0 54 49"><g fill="none" fill-rule="evenodd"><g fill="#2492C3" fill-rule="nonzero"><g><g><g><g><path d="M33 6.409h1.744C35.438 6.41 36 6.949 36 7.612v23.23c0 .664-.562 1.202-1.256 1.202H1.256C.562 32.043 0 31.505 0 30.841V7.611c-.003-.617.483-1.137 1.125-1.201l-.12.017H33V6.41zM6.632 0l.066.002h7.535c.693 0 1.255.538 1.255 1.201v3.311H5.441v-3.31C5.44.626 5.863.135 6.442.02l.126-.018c.043-.003.087-.003.13 0zm15.07 0l.065.002h7.535c.694 0 1.256.538 1.256 1.201v3.311H20.511v-3.31c-.003-.577.421-1.068 1-1.184l.126-.018c.043-.003.087-.003.13 0z" transform="translate(-574 -3152) translate(480 3122) translate(94 30.617) translate(5 2.87) translate(4 5.054)"></path></g></g></g></g></g></g></svg> 