<?xml version="1.0" encoding="UTF-8"?> <svg xmlns="http://www.w3.org/2000/svg" width="54" height="49" viewBox="0 0 54 49"><g fill="none" fill-rule="evenodd"><g fill="#93D500"><g><g><g><g transform="translate(-181 -1558) translate(55 1558) translate(126) translate(5 4.486) translate(3 5.74)"><path d="M36 22.93c0 1.09-.936 1.946-2.034 1.946h-14.16V20.01c0-.779-.244-1.48-.57-2.142l9.766-9.343v4.477c0 .701.61 1.285 1.342 1.285.732 0 1.343-.584 1.343-1.285v-7.59c0-.702-.61-1.286-1.343-1.286H22.41c-.732 0-1.343.584-1.343 1.285 0 .7.61 1.285 1.343 1.285h4.68l-9.766 9.343c-.651-.35-1.424-.545-2.238-.545H10V1.946C10 .856 10.895 0 12.034 0h21.932C35.064 0 36 .856 36 1.946V22.93z"></path><rect width="18" height="14.351" y="17.222" rx="4"></rect></g></g></g></g></g></g></svg> 