<?xml version="1.0" encoding="UTF-8"?> <svg xmlns="http://www.w3.org/2000/svg" width="37" height="24" viewBox="0 0 37 24"><g fill="none" fill-rule="evenodd"><g fill="#93D500" fill-rule="nonzero"><g><g><path d="M9.137 34.427c1.068.983 2.8.983 3.867 0l7.736-7.12c1.068-.983 1.068-2.577 0-3.56-1.068-.982-2.8-.982-3.868 0l-3.067 2.823V3.088c0-1.39-1.224-2.516-2.735-2.516-1.51 0-2.734 1.126-2.734 2.516V26.57l-3.067-2.823c-1.068-.982-2.8-.982-3.868 0-1.068.983-1.068 2.577 0 3.56l7.736 7.12z" transform="translate(-171 -325) translate(171 325) matrix(0 1 1 0 1 1)"></path></g></g></g></g></svg> 