<?xml version="1.0" encoding="UTF-8"?> <svg xmlns="http://www.w3.org/2000/svg" xmlns:xlink="http://www.w3.org/1999/xlink" width="188px" height="35px" viewBox="0 0 188 35" version="1.1"><title>Logo_NBCUniversal Copy 2</title><defs><filter id="filter-1"><feColorMatrix in="SourceGraphic" type="matrix" values="0 0 0 0 0.000000 0 0 0 0 0.000000 0 0 0 0 0.000000 0 0 0 1.000000 0"></feColorMatrix></filter></defs><g id="Hard-Problems-We-Solve" stroke="none" stroke-width="1" fill="none" fill-rule="evenodd"><g id="Problems-Why-Diamanti" transform="translate(-794.000000, -2722.000000)"><g id="Group-8" transform="translate(769.000000, 2710.000000)"><g id="Logo_NBCUniversal-Copy-2" transform="translate(25.000000, 12.000000)"><g filter="url(#filter-1)" id="MongoDB_Logo_FullColorBlack_RGB"><g><path d="M15.1708372,13.8688692 C13.3624791,5.81743869 9.593393,3.67404632 8.63192761,2.15888965 C8.23546291,1.49142608 7.88424789,0.797626609 7.58069395,0.0822547684 C7.52990401,0.797513624 7.43659226,1.2481267 6.83419994,1.79053134 C5.62469065,2.87891689 0.487819664,7.10371253 0.0555145864,16.2518733 C-0.347261455,24.7813351 6.26842362,30.0408719 7.14248306,30.5844687 C7.81456391,30.9182561 8.63310877,30.5916213 9.03234132,30.285252 C12.2214771,28.0762943 16.5787816,22.1873297 15.1743807,13.8688692" id="Path" fill="#10AA50" fill-rule="nonzero"></path><path d="M7.8547234,26.0425749 C7.68817964,28.1537807 7.56888233,29.3804496 7.14602655,30.5868529 C7.14602655,30.5868529 7.42359948,32.5967302 7.61849111,34.7258174 L8.30828938,34.7258174 C8.4728292,33.2265398 8.72405757,31.7382502 9.0606892,30.2685627 C8.16773117,29.8251022 7.88897708,27.8950954 7.8547234,26.0425749 Z" id="Path" fill="#B8C4C2" fill-rule="nonzero"></path><path d="M9.05950804,30.2697548 L9.05950804,30.2697548 C8.15710072,29.8489441 7.89606405,27.878406 7.85590456,26.0425749 C8.07907329,23.0142389 8.14412719,19.9761452 8.05079619,16.940906 C8.00354973,15.3482629 8.07323826,2.1898842 7.66219409,0.263453678 C7.94337088,0.915916104 8.26733372,1.5487339 8.63192761,2.15769755 C9.593393,3.67404632 13.3636602,5.81743869 15.1708372,13.8688692 C16.5787816,22.1730245 12.2451004,28.0464918 9.05950804,30.2697548 Z" id="Path" fill="#12924F" fill-rule="nonzero"></path><path d="M128.002462,27.3586512 C126.923794,27.3585466 126.04804,26.4786183 126.043103,25.3899735 C126.038208,24.3013286 126.905979,23.4133809 127.984602,23.4033537 C129.063225,23.3933264 129.947055,24.2649907 129.962009,25.3535422 C129.9762,25.8848185 129.77521,26.3989796 129.405424,26.7773633 C129.035639,27.155747 128.52901,27.365658 128.002462,27.3586512 M128.002462,23.5820845 C127.280457,23.5772612 126.626796,24.012246 126.346738,24.6839016 C126.06668,25.3555573 126.215481,26.1313665 126.72365,26.6490275 C127.231819,27.1666886 127.999095,27.3240672 128.667161,27.0476679 C129.335228,26.7712686 129.772276,26.1156248 129.774204,25.386921 C129.783492,24.9083388 129.600353,24.4463595 129.266546,24.1063174 C128.93274,23.7662753 128.47672,23.5771576 128.002462,23.5820845 M128.474927,26.6314714 L127.96939,25.5311649 L127.561889,25.5311649 L127.561889,26.6314714 L127.265418,26.6314714 L127.265418,24.1280654 L127.996557,24.1280654 C128.541072,24.1280654 128.767855,24.366485 128.767855,24.827827 C128.767855,25.1949932 128.596587,25.423876 128.277673,25.4942098 L128.799746,26.6278951 L128.474927,26.6314714 Z M127.573701,25.2724796 L128.002462,25.2724796 C128.349724,25.2724796 128.482014,25.1532698 128.482014,24.8337875 C128.482014,24.5143052 128.35563,24.4058243 127.964665,24.4058243 L127.573701,24.4058243 L127.573701,25.2724796 Z" id="Shape" fill="#21313C" fill-rule="nonzero"></path><path d="M98.8384059,25.5561989 C99.3687473,25.9841621 100.428249,26.1605926 101.362548,26.1605926 C102.573238,26.1605926 103.760305,25.934094 104.920206,24.876703 C106.101367,23.7930858 106.914006,22.1348774 106.914006,19.4872275 C106.914006,16.9432902 105.954903,14.8785763 103.987088,13.6697888 C102.876797,12.9652589 101.438142,12.6875 99.7975089,12.6875 C99.3250444,12.6875 98.8384059,12.7125341 98.5620141,12.8388965 C98.448701,12.9291725 98.368476,13.0550292 98.3340499,13.1965259 C98.2844412,13.6495232 98.2844412,17.099455 98.2844412,19.1391349 C98.2844412,21.2300749 98.2844412,24.1459469 98.3340499,24.5035763 C98.3600355,24.8063692 98.5112242,25.338045 98.8384059,25.5609673 M93.8019336,11.5550068 C94.2306952,11.5550068 95.8606979,11.630109 96.6190036,11.630109 C98.0363973,11.630109 99.0155801,11.5550068 101.664925,11.5550068 C103.885509,11.5550068 105.754106,12.1594005 107.09,13.3169278 C108.705828,14.7283719 109.570438,16.6917575 109.570438,19.0842984 C109.570438,22.4841621 108.034929,24.4487398 106.491151,25.5561989 C104.955641,26.7149183 102.958297,27.3693801 100.112879,27.3693801 C98.5986301,27.3693801 95.9988938,27.319312 93.8291003,27.2942779 L93.7842162,27.2942779 C93.6826363,27.0928134 93.9696585,26.3072207 94.1468327,26.286955 C94.7374134,26.2201975 94.8933268,26.1963556 95.1649939,26.0831063 C95.6232845,25.8935627 95.7307702,25.6575272 95.7815601,24.8266349 C95.8571545,23.2649864 95.8323501,21.4017371 95.8323501,19.2857629 C95.8323501,17.7753747 95.8571545,14.8285082 95.8075457,13.8962875 C95.7307702,13.1166553 95.4047696,12.9151907 94.7445004,12.7637943 C94.276271,12.6634095 93.8031604,12.5878067 93.3271067,12.5372956 C93.2774979,12.3858992 93.6649189,11.702827 93.7913032,11.5550068" id="Shape" fill="#21313C" fill-rule="nonzero"></path><path d="M115.824688,12.832936 C115.724289,12.85797 115.597905,13.1106948 115.597905,13.2358651 C115.57192,14.1430518 115.547115,16.5093665 115.547115,18.1461172 C115.560178,18.2100858 115.609998,18.259897 115.673499,18.2724796 C116.000681,18.2975136 116.808596,18.3237398 117.490126,18.3237398 C118.449229,18.3237398 119.004375,18.1973774 119.306752,18.0459809 C120.114666,17.6430518 120.487913,16.7608992 120.487913,15.8048365 C120.487913,13.6137602 118.973664,12.7828678 116.728277,12.7828678 C116.424736,12.7789976 116.121281,12.7957247 115.819964,12.832936 M121.548596,22.9061649 C121.548596,20.6900545 119.932768,19.4311989 116.979864,19.4311989 C116.854661,19.4311989 115.916819,19.4061649 115.693579,19.456233 C115.617985,19.481267 115.542391,19.5313351 115.542391,19.5825954 C115.542391,21.1692779 115.516405,23.7120232 115.593181,24.719346 C115.64397,25.1473093 115.947529,25.751703 116.324319,25.9281335 C116.728277,26.1546322 117.63659,26.2047003 118.26733,26.2047003 C120.008362,26.2047003 121.548596,25.2236035 121.548596,22.9061649 M111.265405,11.5991144 C111.493369,11.5991144 112.164269,11.6742166 113.880496,11.6742166 C115.495144,11.6742166 116.807414,11.6241485 118.36891,11.6241485 C120.31192,11.6241485 122.98607,12.3298706 122.98607,15.2505109 C122.98607,16.6810286 121.977358,17.8445163 120.665088,18.398842 C120.589493,18.423876 120.589493,18.4739441 120.665088,18.4989782 C122.532504,18.9758174 124.171956,20.1357289 124.171956,22.3518392 C124.171956,24.5178815 122.834881,25.8780654 120.891871,26.7339918 C119.710709,27.2632834 118.242526,27.4385218 116.757806,27.4385218 C115.62271,27.4385218 112.580038,27.319312 110.888615,27.3383856 C110.71144,27.2632834 111.050434,26.456233 111.201622,26.3310627 C111.589129,26.3190389 111.973626,26.2581672 112.346168,26.1498638 C112.950922,25.9996594 113.022973,25.8029632 113.098568,24.8957766 C113.149358,24.1149523 113.149358,21.3194823 113.149358,19.3298706 C113.149358,16.6095027 113.175343,14.7724796 113.149358,13.8652929 C113.124553,13.1607629 112.871785,12.9330722 112.392233,12.8079019 C112.014261,12.7316076 111.383521,12.6565054 110.879165,12.5814033 C110.752781,12.4550409 111.141383,11.6992507 111.266586,11.5991144" id="Shape" fill="#21313C" fill-rule="nonzero"></path><path d="M20.7589118,27.3586512 C20.6939214,27.197456 20.667614,27.0230364 20.6821363,26.8496253 C20.6764756,26.7314221 20.7030297,26.6139145 20.7589118,26.5098774 C21.0852876,26.4623725 21.4086757,26.3959019 21.7274642,26.310797 C22.1739432,26.1987398 22.3416681,25.9531676 22.3676537,25.3785763 C22.4408857,24.0207766 22.4456103,21.4732629 22.4196248,19.6827316 L22.4196248,19.6302793 C22.4196248,19.4371594 22.4196248,19.1748978 22.1833925,18.9901226 C21.7681878,18.7272195 21.3174155,18.5264489 20.8451366,18.3940736 C20.6337087,18.3308924 20.5167737,18.2188351 20.5226795,18.0877044 C20.5285854,17.9565736 20.6620566,17.8016008 20.9372672,17.7467643 C21.6684061,17.6716621 23.5842499,17.2103202 24.3366498,16.8598433 C24.414126,16.9617458 24.4500467,17.0896985 24.4370485,17.2174728 C24.4370485,17.2961512 24.4252369,17.3795981 24.4169687,17.4654292 C24.3957078,17.718154 24.3720846,18.0054496 24.3720846,18.2915531 C24.3815215,18.3624459 24.4299324,18.4218258 24.4970427,18.4448242 C24.5641529,18.4678226 24.6383794,18.4504702 24.6886359,18.4000341 C26.1213846,17.2663488 27.4053071,16.8622275 28.063214,16.8622275 C29.146339,16.8622275 29.9896883,17.3843665 30.6428705,18.459639 C30.6733264,18.5124282 30.7288217,18.5454013 30.7893345,18.5466621 C30.8442398,18.5461453 30.8954178,18.5185383 30.9263493,18.472752 C32.2433442,17.4642371 33.5485276,16.8622275 34.4225871,16.8622275 C36.4872572,16.8622275 37.7215709,18.4226839 37.7215709,21.0345708 C37.7215709,21.7855926 37.7144839,22.738079 37.7073969,23.6261921 C37.7014911,24.4058243 37.6955853,25.1365804 37.6955853,25.64203 C37.6955853,25.7612398 37.8585856,26.104564 38.103086,26.1725136 C38.4054633,26.3215259 38.8413119,26.3978202 39.3929143,26.493188 L39.4141752,26.493188 C39.4555158,26.6433924 39.3681099,27.2263283 39.2842474,27.3455381 C39.1472327,27.3455381 38.9582469,27.3336172 38.7220146,27.3216962 C38.293253,27.3002384 37.7050346,27.270436 37.0211422,27.270436 C35.6486326,27.270436 34.9316676,27.2966621 34.246594,27.3419619 C34.1946229,27.1691076 34.1769055,26.6112057 34.239507,26.4943801 C34.5232056,26.4496045 34.8040266,26.3879047 35.080494,26.3096049 C35.5175237,26.1641689 35.643908,25.9638965 35.6710747,25.3785763 C35.6817051,24.9625341 35.7608429,21.2968324 35.6202847,20.4266008 C35.490357,19.5241826 34.817095,18.4679837 33.3441867,18.4679837 C32.797309,18.4679837 31.9149814,18.6980586 31.0739945,19.3417916 C31.0218297,19.4014676 30.9925069,19.4779902 30.9913132,19.5575613 L30.9913132,19.5754428 C31.0905307,20.0451294 31.0905307,20.5934946 31.0905307,21.4220027 C31.0905307,21.898842 31.0905307,22.3959469 31.0846249,22.8930518 C31.0787191,23.903951 31.0739945,24.8576294 31.0905307,25.5788488 C31.0905307,26.0699932 31.3846399,26.1880109 31.6220533,26.2821866 C31.7507999,26.310797 31.8523798,26.3358311 31.9551409,26.359673 C32.1523948,26.408549 32.3579169,26.4586172 32.6638377,26.5074932 C32.7091224,26.7169126 32.7050767,26.9341355 32.6520261,27.1416894 C32.6395082,27.2195822 32.6091771,27.2934591 32.563439,27.3574591 C31.8004087,27.331233 31.0172987,27.3085831 29.8869272,27.3085831 C29.5443904,27.3085831 28.9857011,27.3228883 28.4919756,27.3360014 C28.0915619,27.3467302 27.7135902,27.3574591 27.4986189,27.3586512 C27.4404805,27.2201885 27.414618,27.0701021 27.4230245,26.9199591 C27.4109576,26.7784895 27.4383712,26.6364355 27.5021623,26.5098774 L27.8057208,26.4538488 C28.070301,26.4061649 28.2994463,26.3656335 28.5144177,26.310797 C28.8876647,26.1915872 29.0282229,25.9865463 29.0553896,25.5061308 C29.1286216,24.3855586 29.1853174,21.1561649 29.0282229,20.3479223 C28.7612804,19.0509196 28.0301415,18.3928815 26.8537047,18.3928815 C26.1650876,18.3928815 25.2945717,18.727861 24.5835125,19.2654973 C24.4452414,19.4013768 24.369458,19.5893487 24.3744469,19.7840599 C24.3744469,20.1691076 24.3744469,20.6268733 24.3744469,21.1180177 C24.3744469,22.7392711 24.3638165,24.7574932 24.4027948,25.630109 C24.426418,25.8995232 24.5209109,26.2190054 25.0205422,26.3358311 C25.1303902,26.3680177 25.319376,26.3990123 25.5390721,26.4359673 C25.6654563,26.4574251 25.8036522,26.4800749 25.9465728,26.5063011 C25.9920083,26.7917628 25.96892,27.0840602 25.8792466,27.3586512 C25.6595505,27.3586512 25.3890646,27.344346 25.0796003,27.331233 C24.6071357,27.3097752 24.016555,27.283549 23.3491988,27.283549 C22.560183,27.283549 22.0109429,27.3097752 21.5703697,27.331233 C21.2738982,27.3455381 21.0175862,27.3574591 20.7612742,27.3586512" id="Path" fill="#21313C" fill-rule="nonzero"></path><path d="M46.0889183,17.9398842 C45.6626084,17.9309497 45.2432772,18.0500304 44.8841337,18.2820163 C44.0077119,18.8196526 43.5612329,19.893733 43.5612329,21.4720708 C43.5612329,24.4260899 45.0270542,26.4896117 47.1259781,26.4896117 C47.6887592,26.5076222 48.2376862,26.3114637 48.6638502,25.9400545 C49.3087643,25.4095708 49.6513012,24.3247616 49.6513012,22.8060286 C49.6513012,19.8961172 48.2185524,17.9398842 46.086556,17.9398842 M46.4905132,27.5851499 C42.6989851,27.5851499 41.3489176,24.7777589 41.3489176,22.1515668 C41.3489176,20.3169278 42.0918681,18.8828338 43.5576894,17.8874319 C44.5843646,17.2459551 45.7628259,16.8943717 46.9700647,16.8693801 C49.862729,16.8693801 51.8836962,18.9686649 51.8836962,21.9763283 C51.8836962,24.0195845 51.076963,25.6336853 49.5497213,26.6422003 C48.81622,27.0951975 47.5417469,27.5851499 46.4905132,27.5851499" id="Shape" fill="#21313C" fill-rule="nonzero"></path><path d="M84.6892733,17.9398842 C84.2621179,17.9301122 83.8417941,18.0492412 83.4821263,18.2820163 C82.6057046,18.8196526 82.1592256,19.893733 82.1592256,21.4720708 C82.1592256,24.4260899 83.6250469,26.4896117 85.7239707,26.4896117 C86.2883643,26.5088311 86.8391915,26.3125964 87.2665675,25.9400545 C87.9114816,25.4095708 88.2528373,24.3247616 88.2528373,22.8060286 C88.2528373,19.8961172 86.8212697,17.9398842 84.6892733,17.9398842 M85.0932305,27.5851499 C81.3017024,27.5851499 79.9516349,24.7777589 79.9516349,22.1527589 C79.9516349,20.3157357 80.6945854,18.8828338 82.1615879,17.8874319 C83.1876572,17.2455676 84.3658476,16.8939433 85.572782,16.8693801 C88.4654463,16.8693801 90.4864135,18.9698569 90.4864135,21.9751362 C90.4864135,24.0207766 89.6796803,25.6336853 88.1524386,26.6410082 C87.4189373,27.0951975 86.1444642,27.5851499 85.0932305,27.5851499" id="Shape" fill="#21313C" fill-rule="nonzero"></path><path d="M71.9232808,17.839748 C70.7551121,17.839748 69.9991688,18.7707766 69.9991688,20.2120232 C69.9991688,21.6532698 70.6499888,23.3663147 72.4796078,23.3663147 C72.7937967,23.3663147 73.3631165,23.2256471 73.6454141,22.9121253 C74.0706322,22.5175409 74.3541109,21.7021458 74.3541109,20.841451 C74.3541109,18.9615123 73.446979,17.839748 71.9291866,17.839748 M71.7779979,27.7866144 C71.447974,27.7829799 71.1225717,27.8650838 70.8330688,28.0250341 C69.9082194,28.6210831 69.4794578,29.2171322 69.4794578,29.9097411 C69.4794578,30.5582425 69.7286828,31.074421 70.2649301,31.5321866 C70.9145689,32.0877044 71.7909907,32.3583106 72.9426231,32.3583106 C75.2092718,32.3583106 76.2250706,31.1280654 76.2250706,29.9097411 C76.2250706,29.0609673 75.803396,28.4923365 74.9352424,28.17047 C74.266705,27.9237057 73.1493263,27.7878065 71.7815414,27.7878065 M71.93273,33.6290872 C70.5720321,33.6290872 69.5916681,33.3394074 68.7542247,32.6885218 C67.9392233,32.0543256 67.5730633,31.1125681 67.5730633,30.4616826 C67.5818812,30.0422328 67.740423,29.6400918 68.0195423,29.3291894 C68.2557746,29.057391 68.8050146,28.5483651 70.0747631,27.6674046 C70.1150031,27.6501361 70.1410677,27.6102074 70.1409082,27.5660763 C70.1417425,27.5164521 70.1083784,27.4728753 70.0605892,27.4611717 C69.0152614,27.0570504 68.6998913,26.3882834 68.6042172,26.030654 C68.6042172,26.0175409 68.6042172,25.9972752 68.5935867,25.9746253 C68.5640577,25.8339578 68.5357098,25.7004428 68.7258768,25.5633515 C68.8723408,25.4584469 69.1062108,25.3177793 69.356617,25.168767 C69.7101003,24.971284 70.0491676,24.7485906 70.3712347,24.5023842 C70.4063219,24.4643303 70.4219899,24.4120331 70.4136724,24.3607335 C70.4053549,24.3094339 70.373988,24.2649045 70.3287128,24.2401226 C68.7813914,23.7155995 68.0018249,22.555688 68.0018249,20.7830381 C67.992187,19.661177 68.5257003,18.6051858 69.4310302,17.9541894 C70.0535022,17.4570845 71.6161788,16.8598433 72.6284341,16.8598433 L72.6874922,16.8598433 C73.7280954,16.8848774 74.3151326,17.1054155 75.1277717,17.4082084 C75.590033,17.576903 76.0798515,17.6553847 76.5711509,17.6394755 C77.4322176,17.6394755 77.8090081,17.3641008 78.1326463,17.0434264 C78.1851283,17.1878667 78.2130812,17.3402102 78.2153276,17.4940395 C78.2350995,17.8605745 78.1364508,18.2236834 77.9342112,18.5287807 C77.7582181,18.775545 77.3436305,18.9543597 76.9644777,18.9543597 C76.9254993,18.9543597 76.8877022,18.9543597 76.8463615,18.9483992 C76.6468578,18.9342225 76.4491227,18.9010945 76.2557808,18.849455 L76.1589256,18.8840259 C76.1282154,18.9293256 76.1482951,18.9793937 76.1730995,19.043767 C76.1791569,19.0563512 76.1839069,19.0695346 76.1872735,19.0831063 C76.2564041,19.4012663 76.3033717,19.7239222 76.3278317,20.0487057 C76.3278317,21.9024183 75.6037797,22.7094687 74.8206697,23.3079019 C74.0635446,23.8812548 73.1643787,24.2327015 72.2221146,24.3235695 L72.2221146,24.3235695 C72.2020348,24.3235695 72.1039985,24.3319142 71.9197373,24.3486035 C71.8016211,24.3593324 71.6480701,24.3736376 71.6256281,24.3736376 L71.603186,24.3736376 C71.4330988,24.4213215 70.9889821,24.6347071 70.9889821,25.0316757 C70.9889821,25.3606948 71.1897795,25.7695845 72.1500637,25.8434946 L72.7713546,25.8876022 C74.0375597,25.9770095 75.6191348,26.0878747 76.3632665,26.3417916 C77.375705,26.7010992 78.0456722,27.675227 78.0251606,28.7581744 C78.0251606,30.4211512 76.8534485,31.9851839 74.8915394,32.9412466 C73.9663452,33.3872536 72.9533128,33.6166749 71.9280054,33.6123978" id="Shape" fill="#21313C" fill-rule="nonzero"></path><path d="M66.1285029,26.4717302 C65.573357,26.3966281 65.1682186,26.3203338 64.6898483,26.0938351 C64.5959738,25.9956945 64.5341416,25.870885 64.512674,25.7362057 C64.4618841,24.9553815 64.4618841,22.689203 64.4618841,21.206233 C64.4618841,19.9962534 64.2610867,18.9412466 63.7531873,18.1842643 C63.1472515,17.3271458 62.2897283,16.8240804 61.1794365,16.8240804 C60.1955291,16.8240804 58.8832588,17.5035763 57.7989526,18.435797 C57.772967,18.4608311 57.6064233,18.6205722 57.6099668,18.3726158 C57.6135102,18.1246594 57.6513074,17.621594 57.6749306,17.2997275 C57.6962052,17.1263242 57.6348698,16.952995 57.509568,16.8324251 C56.8008712,17.1900545 54.8129765,17.6668937 54.077113,17.7396117 C53.5408657,17.8445163 53.4050321,18.3654632 53.9778954,18.54547 L53.9861635,18.54547 C54.4447224,18.6730883 54.8824119,18.8674549 55.2854411,19.1224455 C55.5122241,19.298876 55.4874197,19.5504087 55.4874197,19.7518733 C55.5122241,21.4386921 55.5122241,24.0326975 55.4366298,25.4429496 C55.4118254,25.9972752 55.2594555,26.1987398 54.8554983,26.3000681 L54.8932955,26.286955 C54.5856796,26.3647581 54.2736749,26.4236763 53.9589968,26.4633856 C53.8326126,26.5885559 53.8326126,27.319312 53.9589968,27.4707084 C54.2117654,27.4707084 55.4945067,27.3956063 56.5575519,27.3956063 C58.0198298,27.3956063 58.7769542,27.4707084 59.156107,27.4707084 C59.3084769,27.2942779 59.3580856,26.614782 59.2576869,26.4633856 C58.9082997,26.4474392 58.561325,26.3967279 58.2218084,26.3119891 C57.8190323,26.2118529 57.7174524,26.0091962 57.6926481,25.557391 C57.6430393,24.3724455 57.6430393,21.8547343 57.6430393,20.1416894 C57.6430393,19.6648501 57.7682424,19.4371594 57.919431,19.3072207 C58.423787,18.8542234 59.2576869,18.5526226 59.9888258,18.5526226 C60.6975227,18.5526226 61.1699873,18.7791213 61.5243357,19.0807221 C61.9370664,19.4441944 62.1958186,19.953689 62.2472065,20.5040872 C62.3476052,21.4577657 62.3216196,23.3758515 62.3216196,25.0340599 C62.3216196,25.9412466 62.2472065,26.1689373 61.9188436,26.2690736 C61.7676549,26.3441757 61.3636977,26.42047 60.8841462,26.4705381 C60.7329575,26.6219346 60.7825663,27.3264646 60.8841462,27.477861 C61.5396908,27.477861 62.3015399,27.4027589 63.407107,27.4027589 C64.7949716,27.4027589 65.6784804,27.477861 66.0316476,27.477861 C66.1828363,27.3014305 66.2336262,26.6433924 66.1332275,26.4705381" id="Path" fill="#21313C" fill-rule="nonzero"></path></g></g><path d="M141.779179,27.125 L143.643308,22.122716 L150.836655,22.122716 L152.656923,27.125 L154.192088,27.125 L148.13915,11.18852 L146.450468,11.18852 L140.244013,27.125 L141.779179,27.125 Z M150.332244,20.838944 L144.14772,20.838944 L147.239982,12.472292 L150.332244,20.838944 Z M158.600207,27.434876 C158.92186,27.434876 159.214273,27.397986 159.477444,27.324206 C159.740615,27.250426 159.952614,27.19878 160.113441,27.169268 L160.113441,27.169268 L160.113441,26.084702 C159.937994,26.12897 159.758891,26.16586 159.576133,26.195372 C159.393375,26.224884 159.214273,26.23964 159.038825,26.23964 C158.761033,26.23964 158.545379,26.210128 158.391863,26.151104 C158.238346,26.09208 158.125036,25.996166 158.051933,25.863362 C157.97883,25.730558 157.934968,25.560864 157.920348,25.35428 C157.905727,25.147696 157.898417,24.904222 157.898417,24.623858 L157.898417,24.623858 L157.898417,16.766288 L160.025717,16.766288 L160.025717,15.659588 L157.898417,15.659588 L157.898417,12.472292 L156.58256,12.472292 L156.58256,15.659588 L154.981602,15.659588 L154.981602,16.766288 L156.58256,16.766288 L156.58256,25.155074 C156.58256,26.010922 156.754353,26.604851 157.097937,26.936861 C157.441522,27.268871 157.942278,27.434876 158.600207,27.434876 Z M163.732046,27.125 L163.732046,11.18852 L162.416189,11.18852 L162.416189,27.125 L163.732046,27.125 Z M170.311326,27.434876 C171.144702,27.434876 171.919595,27.27256 172.636005,26.947928 C173.352416,26.623296 173.988413,26.151104 174.543997,25.531352 C174.543997,25.737936 174.558618,25.933453 174.587859,26.117903 C174.6171,26.302353 174.671927,26.472047 174.752341,26.626985 C174.832754,26.781923 174.938754,26.914727 175.070339,27.025397 C175.201925,27.136067 175.377372,27.206158 175.596682,27.23567 C175.78675,27.279938 175.984128,27.302072 176.188817,27.302072 C176.378885,27.302072 176.572608,27.27256 176.769987,27.213536 C176.967365,27.154512 177.117227,27.110244 177.219571,27.080732 L177.219571,27.080732 L177.219571,26.040434 C176.663987,26.247018 176.294817,26.280219 176.112059,26.140037 C175.929301,25.999855 175.837922,25.671534 175.837922,25.155074 L175.837922,25.155074 L175.837922,18.913286 C175.837922,18.249266 175.731923,17.688538 175.519924,17.231102 C175.307924,16.773666 175.015512,16.408455 174.642686,16.135469 C174.26986,15.862483 173.831241,15.663277 173.32683,15.537851 C172.822418,15.412425 172.28511,15.349712 171.714906,15.349712 C171.10084,15.349712 170.51967,15.419803 169.971397,15.559985 C169.423123,15.700167 168.940643,15.921507 168.523955,16.224005 C168.107267,16.526503 167.767338,16.917537 167.504166,17.397107 C167.240995,17.876677 167.087479,18.45585 167.043617,19.134626 L167.043617,19.134626 L168.381404,19.134626 C168.439886,18.632922 168.560507,18.216065 168.743264,17.884055 C168.926022,17.552045 169.159952,17.286437 169.445054,17.087231 C169.730156,16.888025 170.062776,16.747843 170.442912,16.666685 C170.823048,16.585527 171.239736,16.544948 171.692975,16.544948 C172.716419,16.544948 173.443795,16.762599 173.875103,17.197901 C174.306412,17.633203 174.522066,18.190242 174.522066,18.869018 C174.522066,19.075602 174.49648,19.300631 174.445308,19.544105 C174.394135,19.787579 174.258895,19.960962 174.039585,20.064254 C173.820276,20.167546 173.538829,20.248704 173.195244,20.307728 C172.85166,20.366752 172.555592,20.41102 172.307041,20.440532 L172.307041,20.440532 L170.486774,20.684006 C167.840441,21.03815 166.517274,22.189118 166.517274,24.13691 C166.517274,24.697638 166.619619,25.180897 166.824307,25.586687 C167.028996,25.992477 167.306788,26.335554 167.657683,26.615918 C168.008578,26.896282 168.4143,27.102866 168.87485,27.23567 C169.3354,27.368474 169.814225,27.434876 170.311326,27.434876 Z M170.377119,26.23964 C170.070086,26.23964 169.766708,26.199061 169.466985,26.117903 C169.167262,26.036745 168.904091,25.911319 168.677472,25.741625 C168.450852,25.571931 168.268094,25.357969 168.129198,25.099739 C167.990302,24.841509 167.920854,24.535322 167.920854,24.181178 C167.920854,23.39911 168.202301,22.816248 168.765195,22.432592 C169.328089,22.048936 170.113948,21.820218 171.122771,21.746438 C171.692975,21.70217 172.26318,21.643146 172.833384,21.569366 C173.403588,21.495586 173.966482,21.340648 174.522066,21.104552 L174.522066,21.104552 L174.522066,22.897406 C174.522066,23.47289 174.405101,23.970905 174.171171,24.391451 C173.937241,24.811997 173.626553,25.158763 173.239106,25.431749 C172.85166,25.704735 172.409386,25.90763 171.912285,26.040434 C171.415183,26.173238 170.903462,26.23964 170.377119,26.23964 Z M183.031269,27.434876 C183.703818,27.434876 184.321539,27.364785 184.884433,27.224603 C185.447327,27.084421 185.933463,26.874148 186.34284,26.593784 C186.752218,26.31342 187.073872,25.962965 187.307802,25.542419 C187.541731,25.121873 187.658696,24.638614 187.658696,24.092642 C187.658696,23.354842 187.479594,22.779358 187.121389,22.36619 C186.763183,21.953022 186.313599,21.624701 185.772636,21.381227 C185.231673,21.137753 184.646848,20.949614 184.018161,20.81681 C183.389474,20.684006 182.804649,20.532757 182.263686,20.363063 C181.722723,20.193369 181.273139,19.972029 180.914934,19.699043 C180.556728,19.426057 180.377626,19.031334 180.377626,18.514874 C180.377626,17.924634 180.596935,17.448753 181.035554,17.087231 C181.474173,16.725709 182.11017,16.544948 182.943545,16.544948 C183.776921,16.544948 184.467745,16.725709 185.016019,17.087231 C185.564292,17.448753 185.896911,18.072194 186.013876,18.957554 L186.013876,18.957554 L187.351663,18.957554 C187.190837,17.659026 186.726632,16.733087 185.959049,16.179737 C185.191466,15.626387 184.193609,15.349712 182.965476,15.349712 C181.693482,15.349712 180.710245,15.655899 180.015765,16.268273 C179.321286,16.880647 178.974046,17.666404 178.974046,18.625544 C178.974046,19.3781 179.153149,19.960962 179.511354,20.37413 C179.869559,20.787298 180.319143,21.104552 180.860106,21.325892 C181.401069,21.547232 181.985894,21.713237 182.614581,21.823907 C183.243268,21.934577 183.828093,22.067381 184.369056,22.222319 C184.910019,22.377257 185.359603,22.591219 185.717809,22.864205 C186.076014,23.137191 186.255117,23.554048 186.255117,24.114776 C186.255117,24.39514 186.196634,24.660748 186.079669,24.9116 C185.962704,25.162452 185.790912,25.387481 185.564292,25.586687 C185.337672,25.785893 185.048915,25.94452 184.69802,26.062568 C184.347125,26.180616 183.930437,26.23964 183.447957,26.23964 C182.453754,26.23964 181.689827,26.036745 181.156174,25.630955 C180.622521,25.225165 180.25335,24.527944 180.048662,23.539292 L180.048662,23.539292 L178.710875,23.539292 C178.740116,24.085264 178.857081,24.594346 179.06177,25.066538 C179.266458,25.53873 179.551561,25.951898 179.917076,26.306042 C180.282592,26.660186 180.724866,26.936861 181.243898,27.136067 C181.76293,27.335273 182.35872,27.434876 183.031269,27.434876 Z" id="Atlas" fill="#000000" fill-rule="nonzero"></path></g></g></g></g></svg> 