<?xml version="1.0" encoding="UTF-8"?> <svg xmlns="http://www.w3.org/2000/svg" width="98" height="23" viewBox="0 0 98 23"><g fill="none" fill-rule="evenodd"><g fill="#E60012" fill-rule="nonzero"><g><g><path d="M41.184 4.651c-1.72 0-3.664.798-4.835 2.37V4.9H32.26v14.866h4.088v-8.456c0-1.521 1.171-3.143 3.364-3.143 1.695 0 3.44 1.173 3.44 3.143v8.456h4.087v-9.204c-.025-3.417-2.467-5.912-6.056-5.912M76.982 4.651L73.164 14.948 69.347 4.651 64.523 4.651 70.843 19.767 75.486 19.767 81.806 4.651zM19.754 9.337c.747-.994 1.92-1.585 3.36-1.585 1.573 0 2.773.913 3.387 2.23l-7.626 3.196c-.214-1.665.213-2.928.88-3.841m8.372 6.493c-1.79 1.347-2.8 1.665-4.435 1.665-1.478 0-2.619-.476-3.423-1.269l10.84-4.598c-.233-1.718-.881-3.224-1.841-4.387-1.426-1.691-3.527-2.59-6.094-2.59-4.668 0-8.195 3.515-8.195 8.14 0 4.756 3.527 8.139 8.661 8.139 2.879 0 5.81-1.374 7.184-3.013l-2.697-2.087zM13.826 15.936L4.266 15.936 4.266 0 0 0 0 19.767 13.826 19.767zM89.845 8.527c-2.418 0-4.198 1.751-4.198 4.264 0 2.385 1.86 4.263 4.25 4.263 2.419 0 4.199-1.802 4.199-4.263 0-2.386-1.886-4.264-4.251-4.264m.001 12.403c-4.511 0-8.04-3.515-8.04-8.14 0-4.571 3.554-8.139 8.09-8.139 4.512 0 8.04 3.515 8.04 8.14 0 4.571-3.553 8.139-8.09 8.139M57.009 8.527c-2.248 0-3.903 1.751-3.903 4.264 0 2.385 1.73 4.263 3.952 4.263 2.248 0 3.904-1.802 3.904-4.263 0-2.386-1.754-4.264-3.953-4.264m-.002 12.403c-4.834 0-8.615-3.515-8.615-8.14 0-4.571 3.808-8.139 8.669-8.139 4.834 0 8.614 3.515 8.614 8.14 0 4.571-3.807 8.139-8.668 8.139" transform="translate(-103 -56) translate(41 45) translate(62 11)"></path></g></g></g></g></svg> 