<?xml version="1.0" encoding="UTF-8"?> <svg xmlns="http://www.w3.org/2000/svg" xmlns:xlink="http://www.w3.org/1999/xlink" width="150" height="17" viewBox="0 0 150 17"><defs><path id="x4lx9zsnsa" d="M0 0.052L16.627 0.052 16.627 16.679 0 16.679z"></path></defs><g fill="none" fill-rule="evenodd"><g><g><g><g transform="translate(-524 -2734) translate(479 2710) translate(45 24) translate(0 .495)"><mask id="s560hgq4gb" fill="#fff"><use xlink:href="#x4lx9zsnsa"></use></mask><path fill="#231F20" d="M0 15.869l.898-.899c.22-.219.329-.467.329-.744V.052h.219L12.18 9.735v-7.12c0-.277-.11-.525-.329-.744l-.898-.898v-.22h5.674v.22l-.899.898c-.219.219-.328.467-.328.745v14.063h-.22L4.448 6.975v7.25c0 .278.11.526.328.745l.899.898v.22H0v-.22z" mask="url(#s560hgq4gb)"></path></g><path fill="#231F20" d="M26.746 13.779c1.65 0 2.476-.65 2.476-1.95 0-1.226-.826-1.84-2.476-1.84h-3.811v3.79h3.811zm.066-6.462c1.241 0 1.862-.54 1.862-1.622 0-.51-.157-.92-.471-1.226-.314-.307-.778-.46-1.391-.46h-3.878v3.308h3.878zm-8.61 9.047l.899-.899c.219-.219.329-.467.329-.744V3.11c0-.278-.11-.526-.33-.745l-.897-.898v-.22h9.047c1.577 0 2.786.359 3.625 1.074.84.716 1.26 1.665 1.26 2.848 0 1.781-.92 2.899-2.76 3.351v.044c2.263.395 3.395 1.643 3.395 3.746 0 1.402-.493 2.465-1.478 3.187-.986.723-2.363 1.085-4.13 1.085h-8.96v-.22zM36.975 14.732c-1.518-1.439-2.278-3.363-2.278-5.772 0-2.425.767-4.36 2.3-5.806C38.531 1.71 40.473.986 42.824.986c.526 0 1.169.047 1.928.142.76.095 1.234.142 1.424.142.555 0 1.066-.182 1.533-.547l.22.088-1.315 5.191-.24-.065c-.161-.555-.523-1.037-1.085-1.446-.562-.41-1.31-.614-2.245-.614-1.33 0-2.428.464-3.297 1.391-.87.928-1.304 2.166-1.304 3.714 0 1.504.41 2.72 1.227 3.647.818.927 1.891 1.391 3.22 1.391 1.548 0 2.768-.606 3.659-1.818l2.059 2.388c-1.431 1.533-3.381 2.3-5.85 2.3-2.336 0-4.264-.72-5.783-2.158M52.9 15.268c-1.197-1.08-1.796-2.65-1.796-4.71V3.112c0-.278-.11-.526-.329-.745l-.898-.898v-.22h5.915v.22l-.898.898c-.22.219-.329.467-.329.745v7.535c0 1.11.27 1.942.81 2.497.54.556 1.315.833 2.323.833.993 0 1.756-.281 2.289-.843.533-.563.8-1.392.8-2.487V3.111c0-.278-.11-.526-.33-.745l-.898-.898v-.22h5.959v.22l-.898.898c-.22.219-.329.467-.329.745v7.448c0 2.059-.602 3.629-1.807 4.71-1.205 1.08-2.8 1.62-4.786 1.62-2.001 0-3.6-.54-4.798-1.62M67.116 16.364l.898-.899c.22-.219.329-.554.329-1.007V8.193c0-.453-.11-.789-.329-1.008l-.898-.898v-.219h4.425v1.884c.248-.599.705-1.095 1.37-1.49.664-.394 1.383-.591 2.157-.591 1.14 0 2.023.365 2.65 1.095.629.73.943 1.753.943 3.067v4.425c0 .453.11.789.328 1.008l.898.898v.219h-4.512v-5.827c0-.628-.146-1.128-.438-1.5-.292-.373-.723-.56-1.293-.56-.672 0-1.175.209-1.511.625-.336.416-.504.953-.504 1.61v3.527c0 .453.11.788.328 1.007l.899.899v.219h-5.74v-.22zM82.351 3.965c-.387-.365-.58-.818-.58-1.358 0-.54.193-.993.58-1.358.387-.365.844-.548 1.37-.548.525 0 .981.183 1.369.548.386.365.58.818.58 1.358 0 .54-.194.993-.58 1.358-.388.365-.844.548-1.37.548-.525 0-.982-.183-1.369-.548zm-1.478 12.399l.898-.899c.219-.219.328-.554.328-1.007V8.193c0-.453-.11-.789-.328-1.008l-.898-.898v-.219h4.512v8.39c0 .453.11.789.329 1.008l.898.898v.219h-5.74v-.22zM88.495 8.412c-.496-.964-1.051-1.665-1.664-2.103v-.241h4.03l2.169 5.082h.044l1.905-5.082h4.097v.24c-.628.439-1.183 1.14-1.665 2.104l-4.337 8.653h-.22l-4.359-8.653zM103.369 8.916c-.38.394-.591.876-.635 1.445h4.118c-.03-.598-.212-1.087-.548-1.467-.336-.38-.81-.57-1.424-.57-.628 0-1.131.197-1.511.592m-2.41 6.517c-1.037-.972-1.555-2.282-1.555-3.933 0-1.664.511-3.019 1.534-4.063 1.022-1.044 2.41-1.566 4.161-1.566 1.695 0 2.965.493 3.812 1.479.847.985 1.27 2.31 1.27 3.975 0 .336-.014.65-.043.942h-7.36c.073.555.343 1.023.81 1.402.467.38 1.088.57 1.862.57.979 0 1.73-.292 2.256-.876l1.819 2.146c-.994.92-2.447 1.38-4.36 1.38-1.767 0-3.169-.485-4.206-1.456M111.692 16.364l.899-.899c.219-.219.328-.554.328-1.007V8.193c0-.453-.11-.789-.328-1.008l-.899-.898v-.219h4.426v2.125c.248-.672.657-1.227 1.226-1.665.57-.438 1.227-.657 1.972-.657.54 0 1 .102 1.38.306l-.855 3.286c-.467-.409-.993-.613-1.577-.613-.642 0-1.146.212-1.511.635-.365.424-.548 1.023-.548 1.797v3.176c0 .453.11.788.328 1.007l.899.899v.219h-5.74v-.22zM121.046 15.465l1.533-2.234c.979.803 2.154 1.205 3.527 1.205.935 0 1.402-.292 1.402-.876 0-.278-.12-.49-.362-.636-.24-.146-.558-.248-.952-.306-.395-.059-.84-.132-1.337-.22-2.146-.364-3.22-1.394-3.22-3.088 0-1.212.427-2.088 1.282-2.629.854-.54 1.938-.81 3.253-.81.51 0 1.048.047 1.61.142.562.095.938.142 1.128.142.482 0 .964-.182 1.446-.547l.219.087-1.03 4.01-.219-.067c-.438-.934-1.424-1.401-2.957-1.401-.92 0-1.38.27-1.38.81 0 .248.113.445.34.591.226.146.529.245.908.296.38.051.811.12 1.293.208.95.16 1.742.482 2.377.964.635.482.953 1.183.953 2.103 0 1.168-.442 2.074-1.326 2.716-.883.643-2.099.964-3.647.964-2.074 0-3.688-.474-4.841-1.424M138.22 13.987c.38-.387.569-.85.569-1.391v-.723c-.19.073-.65.131-1.38.175-1.314.073-1.971.526-1.971 1.358 0 .336.109.614.328.833.219.219.548.328.986.328.599 0 1.088-.193 1.467-.58m-5.104 2.059c-.642-.562-.963-1.303-.963-2.224 0-1.153.42-2.015 1.259-2.584.84-.57 2.15-.87 3.932-.898.555-.015.935-.084 1.14-.208.204-.125.306-.34.306-.647 0-.306-.157-.562-.47-.766-.315-.205-.793-.307-1.436-.307-.978 0-1.87.365-2.672 1.095l-1.71-2.015c1.082-1.08 2.652-1.621 4.71-1.621 1.666 0 2.889.336 3.67 1.008.781.671 1.172 1.694 1.172 3.066v4.513c0 .453.11.789.329 1.008l.898.898v.219h-4.425v-1.424c-.263.511-.687.927-1.27 1.249-.585.321-1.264.482-2.038.482-.978 0-1.79-.282-2.432-.844M144.177 16.364l.898-.899c.22-.219.329-.554.329-1.007V2.125c0-.453-.11-.789-.329-1.008l-.898-.898V0h4.513v14.458c0 .453.11.788.328 1.007l.898.899v.219h-5.739v-.22z" transform="translate(-524 -2734) translate(479 2710) translate(45 24)"></path></g></g></g></g></svg> 