<?xml version="1.0" encoding="UTF-8"?> <svg xmlns="http://www.w3.org/2000/svg" xmlns:xlink="http://www.w3.org/1999/xlink" width="177" height="20" viewBox="0 0 177 20"><defs><path id="l3z80uc2wa" d="M0 19.814L176.381 19.814 176.381 0 0 0z"></path></defs><g fill="none" fill-rule="evenodd"><g><g><g><g transform="translate(-221 -2732) translate(189 2710) translate(32 22)"><path fill="#231F20" d="M148.273 16.23c-3.101 0-4.96-3.046-4.96-6.888 0-4.599 2.117-5.78 3.975-5.78 2.65 0 4.733 2.566 4.733 6.703 0 5.338-2.617 5.966-3.748 5.966m-.498-13.626c-5.102 0-7.024 4.122-7.024 7.311 0 3.302 1.974 7.312 6.854 7.312 4.32 0 7.041-3.376 7.041-7.647 0-4.272-2.636-6.976-6.87-6.976M94.618 17.263c1.136 0 2.33-.169 3.382-.766 1.515-.879 1.947-2.168 1.914-3.25-.052-1.777-1.033-3.027-3.654-4.764l-.61-.392C93.837 6.913 93.325 6.26 93.3 5.4c-.034-1.12.906-1.923 2.49-1.923 1.39 0 2.028.56 2.36.915.463.485.589 1.065.594 1.232.007.225.074.337.224.337.17 0 .23-.149.218-.561-.043-1.456.026-1.998.02-2.242-.006-.13-.114-.186-.307-.224-.56-.13-1.465-.316-2.858-.316-2.974 0-4.9 1.474-4.838 3.53.045 1.513.898 2.821 3.301 4.428l1.005.673c1.813 1.194 2.16 2.073 2.187 2.989.03.99-.878 2.128-2.804 2.128-1.327 0-2.605-.504-3.117-1.886-.118-.318-.214-.71-.223-.953-.004-.15-.03-.317-.223-.317-.17 0-.229.205-.242.485-.012.3-.065 1.42-.033 2.448.011.41.078.505.424.634.932.355 1.899.487 3.14.487"></path><path fill="#231F20" d="M136.67 11.246l-2.999-.016c-.032 0-.1-.04-.037-.13.287-.415 2.069-2.98 2.836-4.08.05-.072.121-.048.124.024.023.55.205 4.09.205 4.09 0 .055-.037.112-.13.112m-30.865.008h-3.191c-.076 0-.115-.052-.124-.127l.134-3.692c.003-.066-.006-.155.05-.162.057-.007.067.053.124.12.142.18 3.058 3.752 3.058 3.752.04.057.042.11-.051.11m35.482 5.247c-.222 0-.491-.017-.747-.074-.359-.09-.699-.498-.854-2.154-.26-2.797-.752-10.309-.848-11.324-.034-.338-.375-.411-.585-.256-.157.115-.373.442-.59.74-3.308 4.51-5.131 6.948-8.493 11.494-.586.793-1.062 1.66-2.182 1.605-.477-.023-.661-.48-.715-.994-.092-.792-.092-2.245-.092-3.938v-7.36c0-.201.056-.313.146-.35.166-.055.442-.072.72-.072.421 0 1.499.055 2.16.66 1.03.921 1.02 2.17 1.02 2.778 0 1.878-1.491 3.075-2.521 3.075-.388 0-.717.055-.717.203 0 .127.13.148.221.166.093.016.877.046.97.046 2.612 0 4.48-1.57 4.526-4.453.014-.974-.52-1.798-.92-2.19-.527-.511-1.705-1.077-4.006-1.077-.846 0-1.912.057-2.667.057-.448 0-3.002-.11-3.12-.11-.624 0-1.248.056-1.612.056-.346 0-1.138-.055-1.992-.055-.248 0-.43.019-.43.167 0 .109.066.164.265.164.23 0 .625 0 .872.109.395.186.543.533.56 1.655l.048 7.15c-.28-.295-8.423-9.312-8.664-9.495-.31-.233-.63-.018-.63.273l-.304 9.248c-2.888-3.587-7.465-9.3-7.589-9.48-.188-.274-.648-.19-.68.204-.039.524-.83 11.94-.83 11.94-.028.91-.151 1.53-.968 1.637-.142.02-.396.037-.565.037-.149 0-.21.038-.169.145.056.147.18.184.425.184.97 0 1.974-.055 2.18-.055.58 0 1.402.055 1.999.055.204 0 .303-.037.248-.184-.04-.107-.11-.145-.334-.145h-.28c-.578 0-.835-.236-.96-.563-.083-.218-.154-.655-.138-1.11l.026-2.6c-.006-.111.018-.147.113-.147h3.966c.092 0 .162.036.233.13l2.943 3.612c.077.096.114.266-.031.409-.028.026-.124.09-.194.113-.23.074-.588.055-.803.055-.165 0-.17.105-.17.215 0 .167.15.202.365.202.857 0 1.632-.019 1.778-.019l1.768-.003c.565.011 1.104.034 1.434.035.726 0 .843-.037.79-.184-.048-.128.007-.192-.143-.192-.223 0-.246.012-.547-.044-.427-.09-.933-.615-2.26-2.253l-.278-.346-.11-6.673c.298.35 7.655 8.356 8.693 9.457.18.203.378.406.558.406.15 0 .214-.166.214-.572l.182-11.59c.016-1.028.137-1.447.608-1.56.176-.043.658-.052 1.016.024.606.127.755.422.792 1.048.036.59.036 1.104.036 3.9l.001 3.239c0 1.691 0 3.146-.094 3.918-.072.533-.164.94-.533 1.012-.164.037-.387.075-.662.075-.22 0-.294.054-.294.146 0 .128.13.183.367.183.736 0 2.425-.083 2.512-.078 1.687.089 3.167.064 3.982.037.673-.024 1.668.087 1.918.087.204 0 .372-.03.374-.186 0-.087-.054-.148-.228-.148h-.276c-.57 0-.502-.254-.302-.545l2.617-3.777c.072-.11.121-.148.214-.148l3.699-.017c.091 0 .134.036.141.129l.148 3.842c.02.22-.163.388-.304.423-.19.02-.313.037-.308.2.006.155.163.18.5.17.668-.014 1.181-.03 1.935-.02.668.01 1.353.064 1.713.064.68 0 .917-.09.967-.238.04-.128-.077-.2-.224-.2M170.01 16.23c-3.104 0-4.96-3.046-4.96-6.888 0-4.599 2.115-5.78 3.974-5.78 2.65 0 4.734 2.566 4.734 6.703 0 5.338-2.618 5.966-3.748 5.966m-.5-13.626c-5.101 0-7.023 4.122-7.023 7.311 0 1.546.433 3.245 1.391 4.617-.079.323-.26.707-.443.904-.46.498-1.615.514-2.59.514-1.435 0-1.534-.129-1.845-.403-.387-.33-.387-1.6-.387-3.957V8.355c0-2.797 0-3.312.037-3.902.037-.643.184-.956.68-1.049.221-.035.517-.055.719-.055.22 0 .332-.034.332-.165 0-.128-.13-.165-.388-.165-.717 0-2.47.055-2.913.055-.497 0-1.701-.055-2.565-.055-.277 0-.404.037-.404.165 0 .13.11.165.31.165.24 0 .462.02.609.055.607.129.755.424.792 1.05.036.589.036 1.104.036 3.9v3.237c0 1.696 0 3.147-.092 3.922-.073.531-.165.937-.533 1.01-.167.038-.387.073-.664.073-.22 0-.293.057-.293.148 0 .128.13.184.369.184.734 0 1.938-.056 2.362-.056 1.49 0 3.173.11 5.82.11.957 0 1.051-.09 1.16-.496.093-.337.178-1.011.229-1.511 1.105 1.329 2.779 2.253 5.125 2.253 4.32 0 7.04-3.376 7.04-7.647 0-4.272-2.636-6.976-6.871-6.976M54.23 11.494l-3-.015c-.03 0-.098-.04-.036-.128.287-.418 2.068-2.981 2.837-4.081.051-.073.12-.05.124.023.023.55.204 4.09.204 4.09 0 .055-.038.11-.13.11m4.619 5.259c-.224 0-.492-.017-.75-.075-.356-.09-.697-.498-.853-2.155-.26-2.796-.75-10.308-.848-11.323-.032-.339-.375-.41-.585-.257-.156.115-.373.443-.59.74-2.547 3.477-4.218 5.724-6.386 8.65-.33-1.336-1.373-2.44-3.534-3.871l-.61-.392c-1.813-1.177-2.325-1.831-2.35-2.69-.035-1.121.905-1.925 2.49-1.925 1.39 0 2.028.56 2.36.915.464.487.588 1.066.593 1.234.007.223.075.336.224.336.171 0 .232-.15.219-.56-.044-1.459.025-2 .019-2.242-.004-.131-.113-.187-.307-.224-.56-.131-1.465-.318-2.856-.318-2.976 0-4.9 1.477-4.84 3.53.046 1.513.898 2.82 3.301 4.43l1.006.67c1.812 1.196 2.16 2.074 2.187 2.99.03.99-.878 2.13-2.805 2.13-1.327 0-2.605-.506-3.117-1.888-.117-.317-.214-.71-.22-.953-.006-.149-.032-.317-.225-.317-.17 0-.21.207-.243.485-.02.18-.086.616-.108.739-.13.76-.353 1.15-.835 1.374-.484.224-1.265.224-1.747.224-1.896 0-3.271-.28-3.308-1.56-.019-.541 0-2.25 0-2.882v-1.468c0-.112.019-.185.11-.185.447 0 3.093.018 3.445.055.688.074.948.353 1.04.725.056.241.056.483.075.669 0 .092.038.168.168.168.166 0 .166-.206.166-.354 0-.13.037-.873.075-1.245.056-.948.149-1.244.149-1.356 0-.112-.056-.149-.13-.149-.094 0-.168.092-.297.241-.167.187-.448.242-.892.279-.429.037-3.37.037-3.78.037-.11 0-.129-.074-.129-.204v-4.7c0-.131.037-.187.13-.187.37 0 3.128.037 3.444.075.929.111 1.115.335 1.245.669.092.222.111.538.111.67 0 .166.038.258.167.258.13 0 .168-.11.187-.204.036-.223.073-1.04.092-1.227.056-.855.148-1.077.148-1.207 0-.093-.017-.168-.11-.168-.094 0-.205.057-.298.075-.148.038-.446.074-.799.11-.353.02-4.856.02-5.451.02-.26 0-.686-.02-1.17-.037-.382 0-.815-.012-1.236-.016-.017-.094-.055-.135-.133-.135-.144 0-.589.183-1.769.183h-6.255c-.608 0-1.307-.036-1.84-.092-.46-.035-.637-.152-.786-.152-.101 0-.164.038-.216.24h-.182c-.245 0-.49.007-.722.019-.4.014-.739.032-.954.035-.374-.006-1.114-.055-1.911-.055-.247 0-.427.019-.427.166 0 .109.066.165.262.165.23 0 .623 0 .869.11.351.165.506.459.546 1.326l.058 7.478c-.278-.295-8.383-9.313-8.622-9.496-.31-.234-.627-.018-.627.273l-.158 4.84-.225 6.392c-.018 1.597-.331 1.912-.758 2.168-.194.119-.54.175-.777.185-.072.004-.834.037-1.16-.04-.492-.118-.786-.45-.843-.948-.074-.793-.074-2.246-.074-4.035v-3.24c0-2.8 0-3.315.038-3.906.036-.644.185-.957.68-1.049.22-.037.364-.056.548-.056.185 0 .293-.035.293-.185 0-.108-.146-.146-.384-.146-.697 0-1.78.054-2.236.054-.532 0-1.686-.054-2.384-.054-.293 0-.441.038-.441.146 0 .15.11.185.296.185.217 0 .457.019.66.073.402.093.587.406.621 1.032.038.59.038 1.106.038 3.906v3.24c0 1.79 0 3.242-.09 4.016-.056.534-.167.847-.535.923-.162.035-.384.072-.658.072-.221 0-.294.055-.294.149 0 .128.128.184.367.184.734 0 1.888-.056 2.311-.056.493 0 3.254.054 3.341.054.95 0 1.912-.03 2.075-.03.348 0 1.078.056 2.265.056.256 0 .421-.037.421-.184 0-.11-.11-.146-.312-.146-.29 0-.638-.02-.949-.129-.364-.128-.603-.605-.638-2.036l-.068-3.615L8.792 7.2c.296.35 7.619 8.355 8.651 9.457.18.201.377.404.556.404.148 0 .214-.165.214-.57l.18-11.59c.002-.145.007-.278.014-.4.056-.698.212-.956.533-1.106.172-.077.414-.098.623-.106-.012.531 0 1.606 0 1.837 0 .204.037.295.166.295.109 0 .165-.074.202-.221.037-.15.129-.371.313-.649.275-.406.72-.499 1.788-.537l1.842-.074v7.587c0 1.704 0 3.165-.09 3.942-.056.537-.275.943-.643 1.02-.167.035-.758.072-1.034.072-.22 0-.294.055-.294.149 0 .129.129.185.37.185.733 0 2.373-.056 2.795-.056.516 0 1.678.056 2.892.056.203 0 .353-.056.353-.185 0-.094-.096-.149-.297-.149-.275 0-.682-.037-.94-.072-.55-.077-.661-.483-.717-1-.093-.797-.093-2.258-.093-3.962V3.94l1.812.056c1.64.038 2.199.555 2.235 1.036l.018.204c.02.279.057.37.204.37.11 0 .146-.111.165-.296 0-.448-.005-1.587-.005-2.055.14.01.269.023.347.044.613.13.763.427.8 1.058.036.595.036 1.116.036 3.94v3.27c0 1.71 0 3.178-.092 3.959-.075.538-.167.948-.54 1.02-.166.038-.39.075-.669.075-.222 0-.297.055-.297.15 0 .128.13.184.373.184.371 0 .854-.018 1.281-.036.447 0 .855-.02 1.06-.02.557 0 1.134.02 1.932.056.799.02 2.9.057 4.292.057.707 0 .874 0 1.003-.483l.014-.06c.053.138.161.205.375.286.932.354 1.899.486 3.14.486.41 0 .828-.023 1.244-.08.55.006 1.015 0 1.36-.012.672-.023 1.666 0 1.917 0 .203 0 .371.024.373-.133.001-.086-.052-.146-.227-.146h-.277c-.57 0-.501-.255-.302-.545l2.617-3.78c.072-.108.122-.145.214-.145l3.7-.019c.091 0 .134.038.142.13l.146 3.842c.02.22-.162.387-.302.423-.19.018-.316.036-.31.199.007.155.165.178.501.171.667-.015 1.18-.032 1.935-.02.667.01 1.353.065 1.713.065.68 0 .917-.092.965-.24.042-.128-.074-.2-.221-.2M83.005 5.594L83 5.59c-.12-.071-.303-.113-.425-.059-.783-.074-1.53-.066-2.322-.058h-.054c-.397.006-.806.01-1.216.004l-3.315-.069c-.777-.02-1.63-.014-2.465.017-.619.006-1.219.022-1.831.04-.638.016-2.16.022-3.069.023-.484.002-.738.002-.77.004-.108.007-.238.156-.24.278-.003.067.038.144.153.155.086.01.635.012 1.634.009l1.02-.005c.272-.002.4.004.458-.003h.006c.75-.075 1.504-.071 2.233-.066h.056c.472.002.96.005 1.45-.014.102.023.21.002.313-.02l.016-.003c.046-.009.094-.018.14-.02.112.03.24.028.375.026.13-.003.262-.006.382.024l.002.003.02-.001V5.85c.107-.037.204-.017.305.003l.02.003c.048.01.093.018.138.02.948-.026 1.996.008 3.303.109l.62.065h.007c.55-.053 1.118-.012 1.667.028h.014c.413.032.803.06 1.191.051v.005l.025-.008-.001-.005.206-.164.01-.009-.001-.002c.068-.11.046-.263-.049-.353M77.519 12.64l.017-.01v-.041l-.015-1.292v-.003l-.001-.003c-.023-.195-.027-.41-.033-.637-.005-.256-.01-.52-.045-.754-.006-.334-.072-.694-.137-1.041l-.043-.235-.004-.022-.016-.016c-.052-.053-.07-.118-.09-.193-.016-.064-.034-.129-.074-.19-.086-.16-.223-.312-.344-.447l-.007-.007c-.03-.041-.065-.063-.096-.082-.019-.013-.035-.024-.054-.04l-.028-.024-.016.004-.022-.017c-.11-.087-.212-.122-.33-.16l-.002-.001c-.035-.049-.1-.056-.143-.057v-.033l-.062-.008-.287-.043-.042-.006-.027.034c-.01.013-.013.017-.073-.006-.028-.009-.058-.02-.091-.023l-.034-.003-.017.016-.032-.02-.12-.036-.008.056c-.055 0-.1.01-.137.03h-.19l-.175.001.019.069-.003.003c-.078-.022-.136.026-.169.053l-.016.014c-.063.01-.098.036-.123.055-.019.014-.025.019-.041.02l-.03.002-.02.024c-.026.031-.109.068-.154.089l-.096.042.02.021c-.015.007-.03.017-.045.03h-.093v.073c-.004 0-.008 0-.01-.002l-.054-.022c-.004 0-.037.046-.037.046-.057.079-.132.158-.21.24-.09.098-.186.199-.258.308l-.023.031.015.034c-.018.01-.06.038-.07.091-.035.038-.043.09-.05.124 0 .01-.002.026-.005.033-.04.045-.047.092-.053.127-.006.028-.008.043-.019.057l-.046.058.02.016c-.014.036-.014.071-.014.093l-.001.03-.031.019.008.046c.012.09 0 .176-.012.264-.011.086-.022.173-.013.271-.035.054-.027.116-.02.157.001.013.004.033.003.04l-.046.037.032.055c.026.042.006.108-.012.172-.02.06-.04.135-.018.2-.006.005-.012.01-.016.018-.008.01-.016.03-.014.053 0 .05-.005.065-.007.07l-.033.07-.005.027.06.043c-.006.041-.001.08.004.115.008.046.009.066-.005.085l-.038.07.038.045v.012c-.002.032-.005.088.034.13l.005.022-.07.019.045.097-.004.024c-.008.028-.02.086.009.136-.022.056-.009.11 0 .148.003.01.007.026.008.035-.067.07-.034.162-.015.211-.032.047-.024.103-.018.137l-.09.031.092.094c-.004.02-.004.044.01.07.01.016.024.026.038.032l-.027.01.003.01.032.082-.001.01c-.007.048.003.096.027.133-.008.01-.013.025-.015.041l-.035.035.035.05c.027.038.017.09-.003.17-.018.068-.04.16.001.235l-.05.048.063.048c-.001.003-.004.006-.004.01-.017.028-.046.086-.01.145l-.002-.007c.012.03.006.077 0 .126-.008.073-.02.161.02.249l-.013.088.003-.012c-.01.034-.003.063.009.083l-.028.014.02.061c.02.064.02.14.02.223.001.156.001.332.141.468l.031.028.04-.013c.106-.03.11-.135.113-.19 0-.013 0-.024.003-.033v-.015l-.003-.014c-.043-.143-.024-.33-.008-.496.004-.044.008-.085.01-.126l.002-.018-.008-.02c-.03-.057-.022-.113-.014-.179.008-.06.014-.126-.007-.194.024-.304.01-.661-.003-.977-.004-.133-.01-.26-.013-.376v-.008c-.018-.148-.013-.307-.008-.464.003-.139.007-.281-.005-.413.033-.15.031-.289.028-.435-.001-.066-.002-.133 0-.205V10.3l-.004-.01c.033-.038.04-.078.024-.118.015-.056.018-.11.018-.156.001-.038.003-.075.01-.107l.005-.017-.005-.018c-.009-.032 0-.068.008-.108.011-.047.024-.102.004-.158.055-.113.069-.252.079-.386l.004-.048c.005-.029-.005-.057-.03-.08v-.005c0-.06.032-.108.072-.168.041-.067.089-.144.102-.246v-.02l.017-.016c.025-.02.065-.055.065-.108 0-.01-.002-.02-.005-.029.05-.045.081-.096.109-.141.04-.07.07-.12.15-.142l.039-.012.01-.039c.012-.045.05-.069.112-.108.046-.029.098-.062.136-.11.051.004.083-.01.101-.03.063-.015.111-.053.15-.084.066-.054.089-.065.134-.044l.044.02.03-.029h.006c.02-.007.056-.016.077-.05l.053-.014c.037-.014.045-.015.058-.009.013.009.038.017.067.01l.002.005.054-.006.07-.009c.206-.027.385-.05.547.037l.057.03.035-.052c.006.008.014.016.02.026.042.045.115.125.22.107.024.022.05.036.072.05l.03.018v.004l.015.018c.032.044.102.065.157.067.122.127.245.303.245.379v.07h.054v.005c.021.094.048.212.121.29-.02.047-.003.105.006.13l.007.027-.019.053.048.048.01.006c-.003.049.02.094.036.127.004.008.009.018.012.028l-.012.025c-.064.123.023.192.064.225l.015.012c-.032.024-.03.05-.037.094l.005.055.023.035.002.001.002.008c.003.01.008.024.018.04l-.025.025-.018.064.037.05.027.016c0 .028.01.055.02.072l.003.01-.006.032c-.023.118-.054.27.02.393l-.006.007c-.034.046-.026.098-.02.135l.005.038-.02.075c0 .003.024.01.045.014l-.008.022-.015.085h.03c-.006.03-.007.057-.008.081 0 .044-.002.072-.017.093l-.007.01-.002.013c-.022.076.007.15.03.21l.013.03c-.013.016-.025.034-.024.063 0 .006.004.012.005.017l-.016.016.015.04c.007.026.022.04.039.05l-.01.003c-.004 0-.004.056-.004.056v.02l-.046.013.023.047c-.011.021-.023.052-.011.088l-.031.054c.002 0 .005.033.033.046-.028.098.042.17.085.213.018.017.029.031.037.042h-.036l.028.092v.003c-.006.005-.012.013-.018.02l-.06.028.02.08-.006.02c-.014.041-.003.07.009.088l.009.007c-.023.02-.046.052-.05.1l-.008.068.056.009c-.005.014-.01.028-.012.042-.008.024-.014.046-.025.063v.001l-.005.01.097.053c-.015.024-.022.05-.028.069l-.01.03h-.088l.005.093c.003.014.006.03.008.05.002.018.004.036.01.057v.094c0 .012 0 .031.003.052l-.011.005.007.052c.004.026.002.053 0 .077l-.002.049-.065.033.08.088-.001.004c-.01.022-.021.05-.021.083h-.057l.097.119c.008.009.016.036.021.055l.002.007c-.04.038-.047.097-.05.126-.001.014-.003.034-.006.04l.001-.002.025.034c-.02.014-.031.03-.038.043-.01.022-.01.046-.007.068h-.094l.077.077-.072.024.06.05v.19c0 .036.017.066.045.08h.004c.04.027.081.026.115.018v.08l.094-.028c.067-.02.119-.023.172-.012l.076.014.01-.076c.037-.287.03-.565.023-.834-.008-.263-.014-.511.02-.754.02-.048-.001-.092-.015-.114M72.016 12.64l.017-.01v-.041l-.015-1.292v-.006c-.024-.195-.028-.41-.033-.637-.005-.256-.011-.52-.046-.754-.006-.334-.072-.694-.137-1.041l-.043-.235-.003-.022-.017-.016c-.052-.053-.07-.118-.09-.193-.015-.064-.033-.129-.072-.19-.086-.16-.223-.312-.345-.447l-.006-.007c-.031-.041-.066-.063-.098-.082-.018-.013-.035-.024-.054-.04l-.027-.024-.016.004-.023-.017c-.109-.087-.211-.122-.329-.16l-.003-.001c-.034-.049-.098-.056-.143-.057v-.033l-.06-.008-.289-.043-.042-.006-.027.034c-.009.013-.012.017-.072-.006-.028-.009-.059-.02-.091-.023l-.035-.003-.016.016-.033-.02-.119-.036-.01.056c-.052 0-.098.01-.136.03h-.19l-.175.001.02.069-.004.003c-.076-.022-.136.026-.167.053l-.017.014c-.062.01-.099.036-.124.055-.019.014-.025.019-.041.02l-.03.002-.019.024c-.027.031-.11.068-.153.089l-.098.042.022.021c-.015.007-.032.017-.047.03h-.093v.073c-.004 0-.008 0-.01-.002l-.053-.022c-.004 0-.038.046-.038.046-.056.079-.13.158-.209.24-.091.098-.186.199-.258.308l-.024.031.015.034c-.017.01-.06.038-.068.091-.037.038-.045.09-.05.124l-.006.033c-.039.045-.048.092-.054.127-.004.028-.007.043-.019.057l-.045.058.02.016c-.013.036-.014.071-.014.093l-.001.03-.031.019.007.046c.013.09 0 .176-.011.264-.012.086-.023.173-.013.271-.036.054-.028.116-.022.157.002.013.006.033.004.04l-.046.037.033.055c.025.042.005.108-.014.172-.017.06-.04.135-.016.2-.006.005-.011.01-.017.018-.008.01-.014.03-.013.053 0 .05-.005.065-.007.07l-.034.07-.006.027.062.043c-.006.041-.002.08.004.115.008.046.009.066-.005.085l-.039.07.038.045v.012c-.002.032-.004.088.034.13.002.008.003.015.006.022l-.07.019.045.097-.004.024c-.007.028-.021.086.008.136-.022.056-.008.11 0 .148l.009.035c-.067.07-.034.162-.016.211-.032.047-.024.103-.018.137l-.089.031.09.094c-.003.02-.003.044.012.07.01.016.024.026.038.032l-.028.01c0 .003.003.006.004.01h-.001l.033.082-.002.01c-.007.048.005.096.028.133-.008.01-.013.025-.015.041l-.036.035.036.05c.027.038.016.09-.004.17-.017.068-.04.16.002.235l-.05.048.062.048c0 .003-.003.006-.004.01-.017.028-.045.086-.008.145l-.004-.007c.013.03.006.077 0 .126-.008.073-.018.161.02.249l-.012.088.003-.012c-.01.034-.002.063.009.083l-.028.014.02.061c.018.064.02.14.02.223 0 .156 0 .332.142.468l.03.028.04-.013c.105-.03.11-.135.113-.19l.002-.033.002-.015-.004-.014c-.042-.143-.025-.33-.008-.496.003-.044.008-.085.01-.126l.002-.018-.01-.02c-.028-.057-.02-.113-.013-.179.008-.06.015-.126-.007-.194.026-.304.01-.661-.002-.977-.005-.133-.01-.26-.012-.376v-.008c-.019-.148-.015-.307-.01-.464.004-.139.01-.281-.005-.413.034-.15.031-.289.03-.435-.002-.066-.003-.133 0-.205V10.3l-.005-.01c.032-.038.04-.078.023-.118.016-.056.018-.11.019-.156.002-.038.003-.075.011-.107l.003-.017-.004-.018c-.01-.032 0-.068.008-.108.01-.047.023-.102.004-.158.056-.113.068-.252.08-.386l.004-.048c.004-.029-.006-.057-.03-.08v-.005c0-.06.031-.108.07-.168.042-.067.09-.144.103-.246l.002-.017-.001-.003.016-.016c.026-.02.065-.055.064-.108 0-.01-.002-.02-.004-.029.05-.045.08-.096.108-.141.04-.07.07-.12.15-.142l.039-.012.01-.039c.013-.045.051-.069.112-.108.047-.029.098-.062.136-.11.052.004.083-.01.102-.03.063-.015.11-.053.15-.084.067-.054.089-.065.133-.044l.044.02.03-.029h.004c.022-.007.058-.016.08-.05l.052-.014c.037-.014.046-.015.059-.009.013.009.037.017.067.01l.002.005.053-.006.07-.009c.207-.027.385-.05.547.037l.058.03.034-.052c.008.008.016.016.022.026.042.045.114.125.219.107.023.022.048.036.071.05l.032.018v.004l.013.018c.033.044.102.065.157.067.123.127.245.303.245.379v.07h.054v.005c.021.094.048.212.121.29-.02.047-.002.105.006.13l.007.027-.017.053.046.048.011.006c-.003.049.02.094.036.127l.012.028-.011.025c-.066.123.022.192.063.225.006.006.01.01.016.012-.033.024-.032.05-.039.094l.006.055.022.035.002.001.002.008c.005.01.009.024.018.04l-.025.025-.017.064.036.05.029.016c-.002.028.01.055.018.072.002.003.002.008.004.01l-.006.032c-.024.118-.053.27.02.393l-.007.007c-.033.046-.025.098-.019.135.002.012.006.032.004.038l-.02.075c0 .003.026.01.045.014-.002.007-.005.014-.006.022l-.017.085h.03c-.005.03-.006.057-.007.081 0 .044-.002.072-.017.093l-.006.01-.004.013c-.02.076.008.15.031.21l.012.03c-.012.016-.024.034-.022.063 0 .006.002.012.004.017l-.017.016.015.04c.008.026.022.04.04.05l-.012.003c-.003 0-.003.056-.003.056v.02l-.044.013.021.047c-.01.021-.023.052-.01.088l-.031.054s.006.033.033.046c-.03.098.042.17.085.213.017.017.03.031.037.042h-.036l.027.092.001.003-.019.02-.059.028.02.08-.006.02c-.015.041-.003.07.009.088l.008.007c-.021.02-.045.052-.05.1l-.007.068.055.009c-.005.014-.01.028-.012.042-.007.024-.013.046-.025.063v.001l-.004.01.096.053c-.013.024-.022.05-.027.069l-.01.03H71.5l.004.093c.005.014.007.03.01.05 0 .018.002.036.008.057v.094c0 .012 0 .031.004.052l-.012.005.008.052c.004.026.002.053 0 .077 0 .015-.003.033-.002.049l-.065.033.08.088-.002.004c-.01.022-.02.05-.02.083h-.058l.098.119c.008.009.015.036.02.055l.003.007c-.04.038-.046.097-.05.126-.002.014-.003.034-.007.04l.003-.002.025.034c-.02.014-.032.03-.038.043-.01.022-.011.046-.009.068h-.094l.078.077-.073.024.06.05v.19c0 .036.017.066.046.08h.003c.04.027.082.026.117.018v.08l.092-.028c.067-.02.12-.023.173-.012l.076.014.01-.076c.037-.287.029-.565.022-.834-.007-.263-.014-.511.02-.754.02-.048 0-.092-.015-.114M82.926 12.737l.018-.01-.001-.041-.015-1.292v-.006c-.024-.195-.028-.41-.033-.637-.006-.256-.011-.52-.045-.753-.007-.335-.073-.694-.138-1.04l-.044-.237-.003-.021-.016-.017c-.051-.052-.07-.117-.089-.193-.017-.064-.034-.128-.074-.19-.086-.159-.224-.311-.345-.447l-.006-.007c-.03-.04-.066-.063-.097-.082-.017-.012-.035-.023-.053-.04l-.028-.023-.017.004-.022-.018c-.11-.087-.21-.12-.329-.16h-.003c-.034-.05-.098-.057-.143-.059v-.031l-.062-.01-.286-.042-.043-.007-.026.036c-.01.013-.013.016-.075-.006-.026-.008-.056-.02-.09-.024l-.033-.003-.017.017c-.009-.008-.02-.014-.032-.02l-.12-.036-.009.054c-.053 0-.1.011-.137.03h-.19l-.175.002.02.068c-.002 0-.002.002-.004.004-.077-.022-.137.026-.168.053l-.016.013c-.063.012-.098.037-.124.057-.019.013-.023.018-.041.02l-.03.001-.02.025c-.025.032-.108.066-.153.088l-.097.042.022.02c-.015.008-.032.018-.047.031h-.093v.075l-.01-.002-.053-.022c-.004-.002-.038.044-.038.044-.057.08-.13.158-.21.24-.09.099-.185.199-.257.308l-.024.033.015.032c-.017.01-.061.038-.07.091-.034.038-.043.091-.048.125-.002.011-.004.026-.006.031-.038.048-.048.094-.054.129-.004.027-.007.042-.019.056l-.045.06.02.014c-.014.035-.014.072-.014.094l-.002.03-.03.018.007.046c.013.092.001.175-.011.265-.012.086-.022.173-.014.27-.035.054-.026.118-.02.158.002.014.004.032.003.04l-.046.036.033.055c.025.042.005.109-.014.172-.017.061-.04.137-.017.2-.005.006-.011.011-.016.019-.008.01-.014.03-.013.054 0 .048-.006.063-.008.068l-.032.07-.006.028.061.042c-.007.043-.002.081.004.115.007.047.009.067-.005.085l-.039.07.038.045v.012c-.002.031-.005.088.035.13 0 .008.003.016.004.023l-.07.019.046.097-.005.024c-.008.029-.02.085.009.135-.022.057-.008.113.002.15l.006.033c-.066.07-.034.162-.015.21-.032.048-.024.105-.018.138l-.09.03.092.095c-.004.022-.004.045.011.072.01.015.024.024.038.032l-.028.007c0 .005.002.007.004.01l.031.084v.008c-.009.049.003.098.027.134-.008.012-.014.025-.014.041l-.036.035.034.05c.028.04.017.09-.004.17-.016.07-.038.16.002.236l-.05.05.064.045-.005.01c-.017.03-.046.086-.01.146l-.003-.008c.014.03.008.076.002.127-.009.073-.02.161.02.248l-.012.087.002-.01c-.01.033-.002.062.008.084l-.028.013.02.06c.02.064.02.142.02.224.002.155.002.332.142.466l.03.03.04-.012c.106-.032.11-.135.115-.193 0-.01 0-.022.002-.032v-.015l-.002-.015c-.043-.143-.026-.33-.01-.495l.012-.125v-.02l-.008-.017c-.03-.058-.022-.115-.013-.181.007-.058.014-.126-.008-.194.025-.302.01-.66-.002-.977-.005-.133-.01-.26-.012-.374l-.001-.005v-.005c-.018-.147-.013-.308-.009-.462.005-.14.009-.283-.004-.414.033-.15.031-.29.028-.435 0-.066-.003-.135 0-.206v-.018l-.004-.01c.033-.037.04-.078.023-.118.016-.056.018-.109.02-.157 0-.037.002-.072.01-.105l.004-.018-.006-.017c-.008-.033 0-.069.01-.106.01-.05.022-.105.002-.16.057-.114.069-.253.08-.387l.004-.046c.004-.03-.005-.058-.028-.082v-.005c0-.06.03-.108.069-.168.042-.067.09-.141.103-.246l.002-.017-.002-.002.017-.016c.025-.022.065-.055.064-.11 0-.008-.002-.02-.005-.028.05-.045.081-.096.109-.142.04-.068.07-.118.15-.14l.04-.012.01-.038c.012-.045.05-.07.112-.11.046-.029.097-.06.135-.11.052.005.084-.01.102-.03.062-.015.11-.051.15-.084.066-.053.088-.065.133-.043l.045.02.028-.028.008-.002c.02-.005.056-.017.077-.05.02-.004.037-.01.052-.014.037-.014.045-.014.058-.008.014.008.038.017.068.01l.002.004.053-.006.07-.008c.207-.028.385-.05.547.036l.057.032.036-.052.02.023c.042.047.115.127.22.108.023.02.049.037.071.051l.03.017v.003l.015.02c.033.043.103.064.158.066.12.128.244.302.244.379v.07h.054l.001.006c.02.095.047.212.12.287-.02.05-.002.108.005.132.004.007.006.018.008.027l-.018.053.048.048.01.006c-.003.049.02.097.036.128.003.008.008.018.01.027l-.01.026c-.064.123.023.192.064.224l.016.013c-.033.025-.032.05-.037.095l.004.053.022.036h.002l.002.008c.005.01.009.025.018.041l-.025.025-.017.063.037.053.027.013c-.002.03.012.055.018.073.002.003.004.007.004.01l-.006.032c-.023.118-.054.271.02.395l-.004.002c-.035.048-.027.1-.02.137 0 .013.004.034.002.04l-.017.073c-.001.004.022.01.044.014-.003.007-.006.014-.008.023l-.016.085h.03c-.006.029-.006.056-.007.08 0 .044-.002.072-.018.095l-.006.01-.002.01c-.021.079.006.15.03.21l.012.033c-.013.014-.024.032-.023.06 0 .007.003.013.005.02l-.016.014.014.043c.007.023.022.038.04.047l-.012.002c-.003 0-.003.057-.003.057v.02l-.045.012.023.048c-.011.023-.024.052-.011.088l-.031.055s.005.033.033.046c-.03.099.042.17.084.212.018.02.03.031.038.043h-.036l.027.091.001.003-.019.02-.059.03.019.079-.006.02c-.013.041-.002.07.009.087l.008.007c-.02.022-.044.052-.048.1l-.008.068.056.01-.014.04c-.006.027-.012.048-.024.065h.001l-.005.01.096.053c-.013.026-.022.05-.027.07l-.011.029H82.41l.005.095c.004.014.006.029.008.049.002.017.004.037.01.057v.093c0 .012 0 .031.004.052l-.01.006.007.052c.004.026.001.052 0 .078-.002.014-.002.03-.002.048l-.067.032.081.088-.002.006c-.009.021-.02.05-.02.082h-.058l.098.118c.008.01.016.037.02.055l.002.008c-.039.039-.045.095-.048.127-.003.012-.004.032-.006.038v-.001l.024.033c-.018.014-.03.03-.037.043-.01.023-.01.045-.007.067h-.094l.078.078-.074.024.06.05v.193c0 .034.019.063.045.078l.007.002c.037.026.08.023.114.016v.08l.092-.028c.067-.02.119-.024.172-.014l.077.016.01-.077c.036-.285.03-.565.022-.833-.007-.263-.014-.51.02-.754.022-.047 0-.091-.015-.115"></path><mask id="oazooki64b" fill="#fff"><use xlink:href="#l3z80uc2wa"></use></mask><path fill="#231F20" d="M66.33 18.769h17.721V1.047h-17.72V18.77zM85.1 0H65.287v19.814H85.1V0z" mask="url(#oazooki64b)"></path></g></g></g></g></g></svg> 