<?xml version="1.0" encoding="UTF-8"?> <svg xmlns="http://www.w3.org/2000/svg" width="9" height="15" viewBox="0 0 9 15"><defs><filter id="rqljv0q47a"><feColorMatrix in="SourceGraphic" values="0 0 0 0 1.000000 0 0 0 0 1.000000 0 0 0 0 1.000000 0 0 0 1.000000 0"></feColorMatrix></filter></defs><g fill="none" fill-rule="evenodd"><g><g><g filter="url(#rqljv0q47a)" transform="translate(-250 -1748) translate(40 1671) translate(126.5 74)"><g><g fill="#93D500"><path d="M13.1 4.443c.013.46-.35.842-.81.855H5.608c-.476 0-.865-.38-.878-.855-.012-.46.351-.843.811-.855h6.682c.476 0 .865.379.878.855z" transform="matrix(-1 0 0 1 92.5 3.5) rotate(90 4.154 4.531) rotate(-45 8.916 4.443)"></path><path d="M8.37 4.443c.013.46-.35.842-.81.855H.878c-.476 0-.865-.38-.878-.855-.012-.46.351-.843.811-.855h6.682c.476 0 .865.379.878.855z" transform="matrix(-1 0 0 1 92.5 3.5) rotate(90 4.154 4.531) scale(-1 1) rotate(-45 0 14.548)"></path></g></g></g></g></g></g></svg> 