<?xml version="1.0" encoding="UTF-8"?> <svg xmlns="http://www.w3.org/2000/svg" width="31" height="41" viewBox="0 0 31 41"><g fill="none" fill-rule="evenodd"><g fill="#FFF"><g><path d="M31 0v35.98c0 1.354-.551 2.14-1.63 2.558C25.18 40.163 20.22 41 15.5 41c-4.719 0-9.68-.837-13.87-2.462C.55 38.12 0 37.334 0 35.98V0h31zM16.402 29H12v.068c.135.04.344.144.483.277.298.283.397.706.41 1.267V37h3.648C18.548 37 20 36.258 20 34.56c0-1.383-1.11-1.971-2.247-2.044.835-.131 1.635-.761 1.635-1.714 0-.858-.377-1.802-2.986-1.802zm-9.116 0H3v.068c.158.057.334.163.45.283.3.307.39.776.39 1.41V37h1.779v-3.547h.65L8.781 37H11l-2.834-3.763c1.136-.315 1.986-.96 1.986-2.134 0-1.377-.792-2.103-2.866-2.103zm18.252 0C22.942 29 21 30.271 21 33.053 21 36.186 23.314 37 25.355 37c1.899 0 2.645-.588 2.645-.588v-.91s-.671.61-2.11.61c-1.188 0-2.93-.528-2.969-3.105-.035-2.378 1.033-3.153 2.462-3.153.798 0 1.197.181 1.466.329.495.271.644.626.647.63.012.013.03.018.047.019l.03-.001.401-1.327S27.254 29 25.538 29zm-9.623 3.977c1.544 0 2.137.445 2.137 1.567 0 1.213-.774 1.7-2.083 1.7h-1.176v-3.267h1.122zm-9.098-3.216c.998 0 1.52.304 1.52 1.404 0 .983-.682 1.566-1.775 1.566H5.62v-2.97h1.198zm9.059 0c.933 0 1.567.197 1.567 1.162 0 1.03-.849 1.314-1.817 1.314h-.833v-2.476h1.083zM9.088 1h-2.39C5.187 1 3.936 2.112 3.936 3.574c0 1.345.982 2.373 2.312 2.453l.168.005h.145v-.933h-.145c-.807 0-1.16-.657-1.114-1.437.046-.762.659-1.179 1.232-1.228l.114-.005h1.126v1.602h3.306v.767h-.889v.462l1.853.701v-1.93h4.898V5.3c0 .239-.005.399-.033.556-.028.156-.064.277-.184.394-.115.113-.292.15-.529.163-.173.01-.531.02-.913.028l-.384.007c-.19.002-.373.004-.527.004-1.056 0-2.354.243-2.354 1.769 0 1.756 1.58 2.234 2.416 2.22.69-.012 1.18-.223 1.454-.425l.076-.06h.71v1.113c-.904-.32-1.99-.118-3.163.117-.813.162-1.653.28-2.55.288-1.469.01-2.873-.998-3.139-2.756l-.025-.206-.715-.421c-.121 2.015.536 3.317 2.655 4.398 2.463 1.26 4.152 2.427 4.897 4.448l.088.258h.242v-1.66c2.086 1.331 3.33 2.48 3.884 3.78.214.498.438 1.28.51 1.975l.02.256h.242c.143-.65.246-2.06-.186-3.261-.046-.13-.105-.251-.168-.37l-.095-.176 2.005.091c-.032.62-.032 1.326.032 2.084l.037.382-.713.04v.227l.752.044c.029.219.064.442.105.667l.067.34h.22c-.007-.204-.008-.42-.002-.643l.013-.342 3.427.193c-.012.542-.058 1.113-.15 1.712l-.077.455-.754.093v.146l.696.053-.09.402-.104.41h.221c.092-.157.194-.343.298-.557l.105-.222 2.72.208c-.44.64-.94 1.156-1.58 1.558-.142.008-.417.042-.548.063-.686.108-4.407.671-5.432.828-.11-.436-.24-.812-.371-1.093-1.18-2.512-2.595-3.339-9.695-8.074C8.07 15.28 4.476 12.8 3.408 10.779c-.34-.646-.505-1.405-.503-2.087 0-.657.179-1.304.526-1.844l.137-.197v-.672C2.688 6.448 1.982 7.704 2 9.092c.01.776.086 1.348.355 2.056.442 1.167 1.208 2.182 3.103 3.88 1.644 1.475 2.829 2.73 3.53 4.34l.133.327h.243V17.91l.655.465.647.459c1.505 1.07 3.089 2.555 3.91 4.151l.145.3h.242v-1.656c2.802 1.87 4.83 3.621 5.366 7.036l.047.336h.243c.107-.772.064-1.583-.054-2.31l-.055-.305h4.888c1.508 0 2.951.41 3.052 1.892l.006.17h.295l.573-1.943c-.408-.579-.928-1.02-1.74-1.283C29.432 23.755 30 21.783 30 20.254c0-1.686-.68-3.2-1.685-4.283l.338-.555.188-.307.6-.979c.139-.23.212-.586.165-.868-.057-.337-.2-.566-.563-.755-.395-.207-2.708-1.409-2.9-1.509l-.013-.006h-5.916l-2.107 1.257V8.601h-.678c.164-.124.287-.26.37-.371l.054-.079-.073-.163c-.73.57-1.13.531-2.532.092-.797-.248-1.499.02-1.994.402-.008-.074-.01-.151 0-.23.042-.378.342-.784 1.4-.718.79.049 1.45.06 1.676.058.693-.002 1.12-.089 1.402-.303.47-.357.558-.8.586-1.047.032-.281.052-.701.058-1.064l.002-.21V2.603h-9.29V1zm-6.55 13C2.21 14.511 2 15.184 2 15.804c0 1.007.33 1.77.737 2.379.615.922 1.261 1.5 2.852 2.663 1.714 1.255 2.885 2.719 3.56 4.25h.243v-1.738c2.318 1.28 4.36 2.487 5.365 4.642H15c-.392-2.233-1.688-3.955-6.325-6.774-4.371-2.66-5.815-3.836-5.937-5.58-.022-.356.061-.953.213-1.38L2.54 14zm23.456 6.872l2.85.16c-.028.482-.12.878-.264 1.271l-.093.236-3.062.383c.227-.566.44-1.256.57-2.05zm-3.91-3.002l2.767.125c.11.517.196 1.09.237 1.717l.02.382-3.399.178c.06-.746.185-1.563.375-2.402zm3.956.18l2.282.104c.222.448.382.93.47 1.437l.043.307-2.743.144c.046-.614.036-1.28-.052-1.992zm-4.583-2.436c-.059.267-.157.758-.227 1.482l-.022.25-1.951.1c.587-.828 1.245-1.406 2.2-1.832zm2.029-.459c.117 0 .232.004.347.01.165.296.467.896.736 1.753l.072.24-2.416.133c.184-.706.41-1.403.687-2.091.187-.02.382-.045.574-.045zm1.916.349c.743.281 1.407.722 1.95 1.279l.198.214-1.676.092c-.113-.51-.267-1.039-.472-1.585zm.408-3.173l2.364 1.23-.914 1.492c-.223-.147-.402-.264-.581-.362l-.135-.07.308-.928-1.413-.757-.085.147.503.667-.324.453c-.63-.215-1.382-.283-2.03-.283-1.976 0-3.973 1.048-5.109 2.694-.456-.525-1.074-1.046-1.755-1.537l-.295-.208 4.24-2.538h5.226zm-9.961-.051c.517.006.964.114 1.37.286l.201.092-2.342 1.396c-.716-.454-1.762-1.118-2.057-1.317.66-.1 2.021-.47 2.828-.457zm-.29-3.482c-.165.211-.457.49-.922.522-.324.023-.616-.037-.85-.149.478-.452.94-.555 1.771-.373z" transform="translate(0 -3) translate(0 3)"></path></g></g></g></svg> 