<?xml version="1.0" encoding="UTF-8"?> <svg xmlns="http://www.w3.org/2000/svg" width="54" height="49" viewBox="0 0 54 49"><g fill="none" fill-rule="evenodd"><g fill="#2492C3"><g><g><g><g><path d="M31.737 9.076L16.862.034c-.035-.02-.079-.021-.114-.001L1.049 9c-.054.03-.072.1-.042.153.01.018.024.032.042.042l15.698 9.114c.036.021.08.02.115 0l14.875-9.042c.053-.032.07-.101.037-.155-.01-.015-.022-.028-.037-.037zM33.038 12.492v17.062c0 .04-.022.078-.057.098l-14.813 8.45c-.054.031-.122.012-.153-.042-.01-.017-.015-.036-.015-.055V20.719c0-.041.022-.079.058-.098l14.812-8.227c.055-.03.123-.01.153.044.01.016.015.035.015.054z" transform="translate(-180 -4738) translate(86 4709) translate(94 29) translate(5 4.486) translate(6 1.914)"></path><path d="M15.038 12.492v17.062c0 .04-.022.078-.057.098L.168 38.102c-.054.031-.122.012-.153-.042-.01-.017-.015-.036-.015-.055V20.719c0-.041.022-.079.058-.098l14.812-8.227c.055-.03.123-.01.153.044.01.016.015.035.015.054z" transform="translate(-180 -4738) translate(86 4709) translate(94 29) translate(5 4.486) translate(6 1.914) matrix(-1 0 0 1 15.038 0)"></path></g></g></g></g></g></g></svg> 