<?xml version="1.0" encoding="UTF-8"?>
<svg width="534px" height="336px" viewBox="0 0 534 336" version="1.1" xmlns="http://www.w3.org/2000/svg" xmlns:xlink="http://www.w3.org/1999/xlink">
    <title>Spektra_plane</title>
    <defs>
        <linearGradient x1="50.4815017%" y1="34.5472538%" x2="49.8232098%" y2="55.4929424%" id="linearGradient-1">
            <stop stop-color="#00A53D" offset="0%"></stop>
            <stop stop-color="#8FDF00" offset="100%"></stop>
        </linearGradient>
        <linearGradient x1="0%" y1="50.023596%" x2="100%" y2="50.023596%" id="linearGradient-2">
            <stop stop-color="#175688" offset="0%"></stop>
            <stop stop-color="#52B4FF" offset="100%"></stop>
        </linearGradient>
        <linearGradient x1="0%" y1="49.976404%" x2="100%" y2="49.976404%" id="linearGradient-3">
            <stop stop-color="#175688" offset="0%"></stop>
            <stop stop-color="#52B4FF" offset="100%"></stop>
        </linearGradient>
        <linearGradient x1="0%" y1="50%" x2="100%" y2="50%" id="linearGradient-4">
            <stop stop-color="#175688" offset="0%"></stop>
            <stop stop-color="#52B4FF" offset="100%"></stop>
        </linearGradient>
    </defs>
    <g id="Homepage-Rearrangement" stroke="none" stroke-width="1" fill="none" fill-rule="evenodd">
        <g id="Graphics" transform="translate(-760.000000, -657.000000)">
            <g id="Spektra_plane" transform="translate(760.000000, 657.000000)">
                <polygon id="Path" fill="#3BAB24" fill-rule="nonzero" points="267.506715 295.485405 39.8875912 162.771892 39.8875912 166.20973 267.506715 298.936216 491.864672 167.766486 491.864672 164.328649"></polygon>
                <polygon id="Path" fill="url(#linearGradient-1)" fill-rule="nonzero" points="491.864672 164.276757 266.493285 33.5740541 39.8875912 162.72 267.506715 295.446486"></polygon>
                <g id="mesh" opacity="0.2" stroke="#FFFFFF" stroke-width="0.6">
                    <g id="Group">
                        <polygon id="Path" points="531.622336 335.338378 532.804672 334.663784 532.804672 332.445405 531.622336 333.12"></polygon>
                        <polygon id="Path" points="532.155036 334.287568 531.752263 334.521081 531.752263 335.117838 532.674745 334.585946 532.674745 334.585946"></polygon>
                        <polygon id="Path" points="531.752263 333.197838 531.752263 334.521081 532.155036 334.287568 532.155036 332.964324 532.025109 333.042162"></polygon>
                        <polygon id="Path" points="531.752263 333.392432 531.752263 334.339459 532.025109 334.183784 532.025109 333.236757"></polygon>
                        <polygon id="Path" points="532.674745 334.002162 532.674745 332.665946 532.155036 332.964324 532.155036 334.287568 532.674745 334.585946"></polygon>
                        <line x1="43.0448175" y1="168.012973" x2="331.456788" y2="334.780541" id="Path"></line>
                        <line x1="49.6710949" y1="157.193514" x2="340.759562" y2="325.504865" id="Path"></line>
                        <line x1="61.6373723" y1="149.448649" x2="350.049343" y2="316.216216" id="Path"></line>
                        <line x1="70.940146" y1="140.172973" x2="359.352117" y2="306.940541" id="Path"></line>
                        <line x1="80.229927" y1="130.884324" x2="368.641898" y2="297.651892" id="Path"></line>
                        <line x1="89.5327007" y1="121.608649" x2="377.944672" y2="288.376216" id="Path"></line>
                        <line x1="98.8224818" y1="112.32" x2="387.234453" y2="279.087568" id="Path"></line>
                        <line x1="108.125255" y1="103.044324" x2="396.537226" y2="269.811892" id="Path"></line>
                        <line x1="117.415036" y1="93.7556757" x2="405.827007" y2="260.523243" id="Path"></line>
                        <line x1="126.71781" y1="84.48" x2="415.129781" y2="251.247568" id="Path"></line>
                        <line x1="136.007591" y1="75.1913514" x2="424.419562" y2="241.958919" id="Path"></line>
                        <line x1="145.310365" y1="65.9156757" x2="433.722336" y2="232.683243" id="Path"></line>
                        <line x1="154.600146" y1="56.627027" x2="443.025109" y2="223.394595" id="Path"></line>
                        <line x1="163.90292" y1="47.3383784" x2="452.314891" y2="214.105946" id="Path"></line>
                        <line x1="173.192701" y1="38.0627027" x2="461.617664" y2="204.83027" id="Path"></line>
                        <line x1="182.495474" y1="28.7740541" x2="470.907445" y2="195.541622" id="Path"></line>
                        <line x1="191.785255" y1="19.4983784" x2="480.210219" y2="186.265946" id="Path"></line>
                        <line x1="201.088029" y1="10.2097297" x2="489.5" y2="176.977297" id="Path"></line>
                        <line x1="210.37781" y1="0.934054054" x2="498.802774" y2="167.701622" id="Path"></line>
                        <polygon id="Path" points="1.7150365 334.832432 0.53270073 334.157838 0.53270073 331.939459 1.7150365 332.614054"></polygon>
                        <polygon id="Path" points="1.18233577 333.781622 1.58510949 334.015135 1.58510949 334.598919 0.662627737 334.08 0.662627737 334.08"></polygon>
                        <polygon id="Path" points="1.58510949 332.678919 1.58510949 334.015135 1.18233577 333.781622 1.18233577 332.458378 1.29927007 332.523243"></polygon>
                        <polygon id="Path" points="1.58510949 332.886486 1.58510949 333.820541 1.29927007 333.664865 1.29927007 332.730811"></polygon>
                        <polygon id="Path" points="0.662627737 333.483243 0.662627737 332.16 1.18233577 332.458378 1.18233577 333.781622 0.662627737 334.08"></polygon>
                        <line x1="490.292555" y1="167.507027" x2="201.880584" y2="334.274595" id="Path"></line>
                        <line x1="480.989781" y1="158.218378" x2="192.57781" y2="324.985946" id="Path"></line>
                        <line x1="471.7" y1="148.942703" x2="183.288029" y2="315.71027" id="Path"></line>
                        <line x1="462.397226" y1="139.654054" x2="173.985255" y2="306.421622" id="Path"></line>
                        <line x1="453.107445" y1="130.378378" x2="164.695474" y2="297.145946" id="Path"></line>
                        <line x1="443.804672" y1="121.08973" x2="155.392701" y2="287.857297" id="Path"></line>
                        <line x1="434.514891" y1="111.814054" x2="146.10292" y2="278.581622" id="Path"></line>
                        <line x1="425.212117" y1="102.525405" x2="136.800146" y2="269.292973" id="Path"></line>
                        <line x1="415.922336" y1="93.2497297" x2="127.497372" y2="260.017297" id="Path"></line>
                        <line x1="406.619562" y1="83.9610811" x2="118.207591" y2="250.728649" id="Path"></line>
                        <line x1="397.329781" y1="74.6854054" x2="108.904818" y2="241.452973" id="Path"></line>
                        <line x1="388.027007" y1="65.3967568" x2="99.6150365" y2="232.164324" id="Path"></line>
                        <line x1="378.737226" y1="56.1210811" x2="90.3122628" y2="222.888649" id="Path"></line>
                        <line x1="369.434453" y1="46.8324324" x2="81.0224818" y2="213.6" id="Path"></line>
                        <line x1="360.144672" y1="37.5567568" x2="71.719708" y2="204.324324" id="Path"></line>
                        <line x1="350.841898" y1="28.2681081" x2="62.429927" y2="195.035676" id="Path"></line>
                        <line x1="341.552117" y1="18.9924324" x2="53.1271533" y2="185.76" id="Path"></line>
                        <line x1="332.249343" y1="9.70378378" x2="43.8373723" y2="176.471351" id="Path"></line>
                    </g>
                    <polygon id="Path" points="266.233431 33.2237838 491.864672 164.328649 267.506715 295.485405 39.8875912 162.771892"></polygon>
                </g>
                <polygon id="Path" fill="#FFFFFF" fill-rule="nonzero" points="108.385109 163.485405 112.062044 165.24973 111.113577 170.659459 83.2052555 172.397838 86.9341606 156.531892 96.7306569 156.311351 106.436204 162.24 105.825547 167.338378 91.5725547 167.442162 91.559562 165.72973 102.031679 165.561081 102.395474 163.083243 95.2105109 158.685405 90.7540146 158.685405 88.1944526 169.284324 107.657518 168.60973"></polygon>
                <g id="Group" opacity="0.4" style="mix-blend-mode: multiply;" transform="translate(220.875912, 63.567568)" fill="#00A50E" fill-rule="nonzero">
                    <path d="M46.5918248,49.6605405 C45.1787275,50.3748908 43.5094477,50.3748908 42.0963504,49.6605405 L1.96189781,26.5167568 C1.39695327,26.3361609 1.01363362,25.8117505 1.01363362,25.2194595 C1.01363362,24.6271684 1.39695327,24.102758 1.96189781,23.9221622 L42.0963504,0.778378378 C43.5094477,0.0640280948 45.1787275,0.0640280948 46.5918248,0.778378378 L86.7392701,23.9221622 C87.2907208,24.1157402 87.6597147,24.6358092 87.6597147,25.2194595 C87.6597147,25.8031097 87.2907208,26.3231787 86.7392701,26.5167568 L46.5918248,49.6605405 Z" id="Path"></path>
                </g>
                <path d="M267.467737,96.4151351 C266.05464,97.1294854 264.38536,97.1294854 262.972263,96.4151351 L222.83781,73.2713514 C222.272866,73.0907555 221.889546,72.5663451 221.889546,71.9740541 C221.889546,71.381763 222.272866,70.8573526 222.83781,70.6767568 L262.972263,47.5459459 C264.38536,46.8315957 266.05464,46.8315957 267.467737,47.5459459 L307.615182,70.6767568 C308.166633,70.8703348 308.535627,71.3904038 308.535627,71.9740541 C308.535627,72.5577043 308.166633,73.0777733 307.615182,73.2713514 L267.467737,96.4151351 Z" id="Path" fill="#FFFFFF" fill-rule="nonzero"></path>
                <path d="M267.467737,96.4151351 C266.05464,97.1294854 264.38536,97.1294854 262.972263,96.4151351 L222.83781,73.2713514 C222.272866,73.0907555 221.889546,72.5663451 221.889546,71.9740541 C221.889546,71.381763 222.272866,70.8573526 222.83781,70.6767568 L262.972263,47.5459459 C264.38536,46.8315957 266.05464,46.8315957 267.467737,47.5459459 L307.615182,70.6767568 C308.166633,70.8703348 308.535627,71.3904038 308.535627,71.9740541 C308.535627,72.5577043 308.166633,73.0777733 307.615182,73.2713514 L267.467737,96.4151351 Z" id="Path" stroke="#7BE600" stroke-width="0.59"></path>
                <polygon id="Path" fill="#CECDCA" fill-rule="nonzero" points="260.50365 79.8227027 255.592409 71.3383784 260.50365 62.8540541 270.300146 62.8540541 275.211387 71.3383784 270.300146 79.8227027"></polygon>
                <path d="M261.335182,78.7459459 L256.969635,71.3513514 L254.578978,67.2648649 C254.40449,66.9248172 254.328023,66.5430614 254.358102,66.1621622 L251.850511,70.4951351 C251.551497,71.0911899 251.551497,71.7931344 251.850511,72.3891892 L257.892117,82.8454054 C258.256959,83.4019774 258.864153,83.7532306 259.529197,83.7924324 L266.727153,83.7924324 C267.006506,83.6347788 267.239486,83.4066261 267.402774,83.1308108 L269.871387,78.7848649 L261.335182,78.7459459 Z" id="Path" fill="#F3B41A" fill-rule="nonzero"></path>
                <polygon id="Path" fill="#DC462F" fill-rule="nonzero" points="279.304088 70.4562162 273.262482 60.012973 275.718102 64.2551351"></polygon>
                <path d="M279.343066,70.4562162 L275.75708,64.2551351 C275.462073,64.0643424 275.12088,63.9567609 274.769635,63.9437838 L269.858394,63.9437838 L274.068029,71.3513514 L269.871387,78.7459459 L267.402774,83.0918919 C267.239486,83.3677071 267.006506,83.5958598 266.727153,83.7535135 L271.612409,83.7535135 C272.280915,83.7142718 272.892056,83.3635196 273.262482,82.8064865 L275.666131,78.6421622 L279.304088,72.3502703 C279.615438,71.7603684 279.629884,71.0583906 279.343066,70.4562162 L279.343066,70.4562162 Z" id="Path" fill="#DC462F" fill-rule="nonzero"></path>
                <path d="M273.262482,60.012973 C272.892056,59.4559399 272.280915,59.1051877 271.612409,59.0659459 L259.529197,59.0659459 C258.864153,59.1051478 258.256959,59.456401 257.892117,60.012973 L254.358102,66.1621622 C254.328023,66.5430614 254.40449,66.9248172 254.578978,67.2648649 L256.969635,71.3513514 L261.231241,63.9827027 L274.730657,63.9827027 C275.081902,63.9956799 275.423095,64.1032613 275.718102,64.2940541 L273.262482,60.012973 Z" id="Path" fill="#517DBE" fill-rule="nonzero"></path>
                <polygon id="Path" fill="#CECDCA" fill-rule="nonzero" points="256.969635 71.3124324 261.335182 78.7459459 269.871387 78.7459459 274.068029 71.3513514 269.858394 63.9437838 261.231241 63.9437838"></polygon>
                <path d="M254.514015,65.8508108 L254.358102,66.1232432 C254.321437,66.5045051 254.398271,66.8880926 254.578978,67.2259459 L256.969635,71.3513514 L258.268905,69.1459459 L254.514015,65.8508108 Z" id="Path" fill="#4F71A8" fill-rule="nonzero"></path>
                <path d="M275.874015,64.5405405 L275.718102,64.2551351 C275.423095,64.0643424 275.081902,63.9567609 274.730657,63.9437838 L269.858394,63.9437838 L271.157664,66.1751351 L275.874015,64.5405405 Z" id="Path" fill="#C2432F" fill-rule="nonzero"></path>
                <path d="M266.350365,83.7535135 L266.766131,83.7535135 C267.051778,83.5997698 267.289899,83.3709833 267.454745,83.0918919 L269.923358,78.7459459 L267.324818,78.7459459 L266.350365,83.7535135 Z" id="Path" fill="#D09C2A" fill-rule="nonzero"></path>
                <path d="M265.570803,75.2432432 C263.471401,75.2428067 261.76582,73.5507753 261.751829,71.4546073 C261.737838,69.3584393 263.420681,67.6438602 265.519891,67.6154847 C267.619101,67.5871091 269.347812,69.2555734 269.390657,71.3513514 C269.408046,72.3752881 269.013705,73.3634681 268.295829,74.094882 C267.577954,74.8262959 266.596439,75.239919 265.570803,75.2432432 L265.570803,75.2432432 Z" id="Path" fill="#FFFFFF" fill-rule="nonzero"></path>
                <path d="M265.570803,67.6281081 C267.651747,67.6281081 269.338686,69.3124855 269.338686,71.3902703 C269.338686,73.4680551 267.651747,75.1524324 265.570803,75.1524324 C263.489858,75.1524324 261.80292,73.4680551 261.80292,71.3902703 C261.80292,69.3124855 263.489858,67.6281081 265.570803,67.6281081 M265.570803,67.5243243 C263.418102,67.5243243 261.672993,69.2667837 261.672993,71.4162162 C261.672993,73.5656488 263.418102,75.3081081 265.570803,75.3081081 C267.723504,75.3081081 269.468613,73.5656488 269.468613,71.4162162 C269.468613,69.2667837 267.723504,67.5243243 265.570803,67.5243243 Z" id="Shape" fill="#C9C7C5" fill-rule="nonzero"></path>
                <g id="Group" opacity="0.4" style="mix-blend-mode: multiply;" transform="translate(171.503650, 92.108108)" fill="#00A50E" fill-rule="nonzero">
                    <path d="M45.6173723,49.6994595 C44.2042749,50.4138097 42.5349952,50.4138097 41.1218978,49.6994595 L0.987445255,26.5556757 C0.422500717,26.3750798 0.0391810636,25.8506695 0.0391810636,25.2583784 C0.0391810636,24.6660873 0.422500717,24.141677 0.987445255,23.9610811 L41.1218978,0.83027027 C42.5349952,0.115919987 44.2042749,0.115919987 45.6173723,0.83027027 L85.7518248,23.9610811 C86.3167694,24.141677 86.700089,24.6660873 86.700089,25.2583784 C86.700089,25.8506695 86.3167694,26.3750798 85.7518248,26.5556757 L45.6173723,49.6994595 Z" id="Path"></path>
                </g>
                <path d="M217.121022,126.291892 C215.707925,127.006242 214.038645,127.006242 212.625547,126.291892 L172.491095,103.148108 C171.92615,102.967512 171.542831,102.443102 171.542831,101.850811 C171.542831,101.25852 171.92615,100.734109 172.491095,100.553514 L212.625547,77.4227027 C214.038645,76.7083524 215.707925,76.7083524 217.121022,77.4227027 L257.255474,100.553514 C257.820419,100.734109 258.203739,101.25852 258.203739,101.850811 C258.203739,102.443102 257.820419,102.967512 257.255474,103.148108 L217.121022,126.291892 Z" id="Path" fill="#FFFFFF" fill-rule="nonzero"></path>
                <path d="M217.121022,126.291892 C215.707925,127.006242 214.038645,127.006242 212.625547,126.291892 L172.491095,103.148108 C171.92615,102.967512 171.542831,102.443102 171.542831,101.850811 C171.542831,101.25852 171.92615,100.734109 172.491095,100.553514 L212.625547,77.4227027 C214.038645,76.7083524 215.707925,76.7083524 217.121022,77.4227027 L257.255474,100.553514 C257.820419,100.734109 258.203739,101.25852 258.203739,101.850811 C258.203739,102.443102 257.820419,102.967512 257.255474,103.148108 L217.121022,126.291892 Z" id="Path" stroke="#7BE600" stroke-width="0.59"></path>
                <path d="M208.182044,100.877838 C208.175509,101.223934 208.219273,101.569148 208.311971,101.902703 C208.415578,102.182634 208.537094,102.455629 208.675766,102.72 C208.731051,102.79978 208.75845,102.895533 208.753723,102.992432 C208.737967,103.130088 208.661812,103.253653 208.545839,103.32973 L207.883212,103.783784 C207.7977,103.850173 207.692695,103.886641 207.58438,103.887568 C207.452132,103.881011 207.32707,103.825513 207.233577,103.731892 C207.079769,103.562367 206.940679,103.380088 206.81781,103.187027 L206.467007,102.512432 C205.644436,103.530357 204.398711,104.114002 203.088905,104.095135 C202.241092,104.142569 201.410572,103.842724 200.789197,103.264865 C199.593584,101.945239 199.680374,99.9116601 200.984088,98.6983784 C201.783907,98.068161 202.786031,97.7499968 203.803504,97.8032432 C204.212639,97.807214 204.620895,97.8419064 205.024818,97.907027 C205.440584,97.907027 205.882336,98.0497297 206.324088,98.1535135 L206.324088,97.2972973 C206.385225,96.6421826 206.194812,95.9883425 205.791387,95.4681081 C205.260232,95.0556243 204.589536,94.8649521 203.920438,94.9362162 C203.482563,94.9341961 203.046132,94.9864883 202.621168,95.0918919 C202.178025,95.1854473 201.743438,95.3156254 201.321898,95.4810811 L200.932117,95.6237838 L200.737226,95.6237838 C200.581314,95.6237838 200.503358,95.507027 200.503358,95.2605405 L200.503358,94.7027027 C200.492916,94.5641034 200.519834,94.4252407 200.581314,94.3005405 C200.666965,94.1953548 200.779059,94.11477 200.906131,94.067027 C201.363554,93.83525 201.847974,93.6609495 202.348321,93.5481081 C202.933462,93.39509 203.536474,93.3209186 204.141314,93.3275676 C205.229378,93.23682 206.31019,93.5717351 207.15562,94.2616216 C207.846432,95.0296126 208.189551,96.0480192 208.104088,97.0767568 L208.104088,100.8 L208.182044,100.877838 Z M203.517664,102.616216 C203.920635,102.613608 204.320306,102.543443 204.7,102.408649 C205.120029,102.263658 205.495796,102.013527 205.791387,101.682162 C205.975945,101.468481 206.109253,101.215579 206.181168,100.942703 C206.265372,100.616572 206.304711,100.280513 206.298102,99.9437838 L206.298102,99.4637838 C205.960292,99.3859459 205.609489,99.3210811 205.245693,99.2691892 C204.88666,99.2443342 204.526333,99.2443342 204.167299,99.2691892 C203.559973,99.2149404 202.952882,99.3756671 202.452263,99.7232432 C202.072508,100.045235 201.861775,100.523447 201.880584,101.020541 C201.851199,101.468369 202.006049,101.908786 202.309343,102.24 C202.642324,102.527493 203.080044,102.663779 203.517664,102.616216 L203.517664,102.616216 Z M212.742482,103.913514 C212.590052,103.928486 212.437434,103.886926 212.313723,103.796757 C212.189143,103.672463 212.103384,103.514727 212.066861,103.342703 L209.36438,94.4821622 C209.31307,94.3306558 209.278222,94.1740803 209.260438,94.0151351 C209.247609,93.9385632 209.27166,93.8604311 209.325347,93.8042727 C209.379035,93.7481143 209.456083,93.7204934 209.533285,93.7297297 L210.66365,93.7297297 C210.824249,93.7142531 210.985193,93.7555757 211.118394,93.8464865 C211.233516,93.9739542 211.3101,94.1313885 211.33927,94.3005405 L213.275182,101.88973 L215.068175,94.3005405 C215.089241,94.1288927 215.166955,93.969137 215.289051,93.8464865 C215.425342,93.7625988 215.583883,93.7218931 215.743796,93.7297297 L216.666277,93.7297297 C216.826877,93.7142531 216.987821,93.7555757 217.121022,93.8464865 C217.245707,93.9672846 217.323891,94.1280062 217.341898,94.3005405 L219.160876,101.980541 L221.148759,94.3005405 C221.178654,94.128963 221.260238,93.9705673 221.382628,93.8464865 C221.514226,93.7628528 221.668575,93.7220577 221.82438,93.7297297 L222.889781,93.7297297 C222.967838,93.7214539 223.045459,93.7488525 223.100964,93.8042732 C223.156469,93.8596939 223.183909,93.9371966 223.17562,94.0151351 C223.181649,94.0798604 223.181649,94.1450045 223.17562,94.2097297 C223.153976,94.3074061 223.123536,94.4029297 223.084672,94.4951351 L220.317226,103.355676 C220.287332,103.527253 220.205747,103.685649 220.083358,103.80973 C219.951094,103.891835 219.797231,103.932501 219.641606,103.926486 L218.654161,103.926486 C218.493561,103.941963 218.332617,103.900641 218.199416,103.80973 C218.074702,103.683691 217.996785,103.518941 217.97854,103.342703 L216.19854,95.9481081 L214.431533,103.342703 C214.399195,103.51082 214.323005,103.667442 214.210657,103.796757 C214.071757,103.885769 213.907431,103.926789 213.74292,103.913514 L212.742482,103.913514 Z M227.515182,104.224865 C226.920291,104.221355 226.32764,104.151737 225.748175,104.017297 C225.295265,103.923329 224.857876,103.766107 224.448905,103.55027 C224.302243,103.485663 224.179557,103.376773 224.098102,103.238919 C224.047719,103.138149 224.021055,103.02722 224.020146,102.914595 L224.020146,102.330811 C224.020146,102.084324 224.111095,101.967568 224.292993,101.967568 C224.357375,101.955297 224.423501,101.955297 224.487883,101.967568 L224.786715,102.084324 C225.203788,102.265376 225.63948,102.400235 226.085985,102.486486 C226.514017,102.570492 226.94904,102.613929 227.385255,102.616216 C227.968604,102.655039 228.550732,102.524372 229.061314,102.24 C229.433113,102.001822 229.658242,101.591341 229.658978,101.15027 C229.667225,100.851265 229.554878,100.561476 229.347153,100.345946 C229.013062,100.060486 228.617256,99.8562223 228.190803,99.7491892 L226.527737,99.2302703 C225.802132,99.0513413 225.154543,98.6415203 224.682774,98.0627027 C224.314758,97.5868902 224.113857,97.00334 224.111095,96.4021622 C224.100009,95.9499832 224.207504,95.5027661 224.42292,95.1048649 C224.627429,94.73229 224.911272,94.409023 225.254453,94.1578378 C225.613196,93.887932 226.018282,93.6856969 226.449781,93.5610811 C226.918991,93.4289993 227.40448,93.3634923 227.891971,93.3664865 C228.14711,93.3467022 228.403401,93.3467022 228.65854,93.3664865 C228.912066,93.3949178 229.163694,93.438236 229.412117,93.4962162 C229.632705,93.5412816 229.849799,93.6019757 230.061752,93.6778378 C230.231761,93.7218476 230.393924,93.7918656 230.542482,93.8854054 C230.681934,93.9490238 230.802716,94.0472892 230.893285,94.1708108 C230.96579,94.2825888 231.00208,94.4139411 230.997226,94.547027 L230.997226,95.0789189 C230.997226,95.3254054 230.906277,95.4551351 230.737372,95.4551351 C230.582196,95.4368538 230.432114,95.3883718 230.29562,95.3124324 C229.600515,95.0059478 228.846555,94.8553849 228.086861,94.8713514 C227.557705,94.8444978 227.030333,94.951597 226.553723,95.1827027 C226.2561,95.3818156 226.062312,95.7025309 226.024678,96.0582615 C225.987043,96.4139921 226.109444,96.7680569 226.358832,97.0248649 C226.742152,97.3259153 227.184944,97.5425539 227.658102,97.6605405 L229.28219,98.1664865 C229.973498,98.3459919 230.594101,98.7304529 231.06219,99.2691892 C231.415038,99.7307781 231.602611,100.29721 231.594891,100.877838 C231.594841,101.327273 231.492666,101.77084 231.296058,102.175135 C231.090033,102.564954 230.807187,102.909149 230.464526,103.187027 C230.077155,103.481586 229.635758,103.697542 229.165255,103.822703 C228.638006,104.028407 228.080641,104.146722 227.515182,104.172973 L227.515182,104.224865 Z" id="Shape" fill="#252F3E" fill-rule="nonzero"></path>
                <path d="M229.684964,109.751351 C225.553221,112.549856 220.671471,114.037479 215.678832,114.019459 C209.3695,114.057358 203.272793,111.744497 198.580438,107.532973 C198.229635,107.208649 198.580438,106.780541 198.970219,107.027027 C208.172486,112.337629 219.337147,113.029258 229.126277,108.895135 C229.76292,108.583784 230.308613,109.284324 229.684964,109.751351 Z M231.25708,107.961081 C230.77635,107.338378 228.060876,107.662703 226.839562,107.805405 C226.462774,107.805405 226.410803,107.532973 226.748613,107.286486 C228.905401,105.781622 232.452409,106.20973 232.868175,106.715676 C233.283942,107.221622 232.751241,110.776216 230.737372,112.475676 C230.425547,112.735135 230.126715,112.605405 230.256642,112.255135 C230.72438,111.126486 231.73781,108.557838 231.270073,107.961081 L231.25708,107.961081 Z" id="Shape" fill="#FF9900" fill-rule="nonzero"></path>
                <path d="M136.137518,178.443243 C138.331735,179.654882 140.216808,181.355087 141.646423,183.411892 L137.085985,184.566486 C135.913529,182.861954 134.384073,181.432203 132.603504,180.376216 C131.421575,179.662178 130.084371,179.243824 128.705693,179.156757 C127.580569,179.072852 126.455558,179.320971 125.470511,179.87027 C124.926915,180.122179 124.47353,180.534133 124.171241,181.050811 C123.976716,181.538116 123.976716,182.081344 124.171241,182.568649 C124.657001,183.577183 125.244727,184.533504 125.925255,185.422703 C126.765452,186.465496 127.408267,187.652458 127.82219,188.925405 C128.020438,189.72365 127.894325,190.567791 127.471387,191.273514 C126.889872,192.124456 126.103567,192.81589 125.184672,193.284324 C122.905104,194.574824 120.284011,195.136281 117.674891,194.892973 C114.694014,194.651428 111.808798,193.728141 109.242628,192.194595 C107.037819,191.092522 105.130622,189.477425 103.681752,187.485405 L107.47562,185.292973 C108.136074,186.316126 108.921693,187.25308 109.814307,188.082162 C110.753262,188.967392 111.790795,189.742184 112.906569,190.391351 C114.252143,191.217423 115.766132,191.731664 117.33708,191.896216 C118.576778,192.010197 119.82207,191.747953 120.910073,191.143784 C121.702412,190.816086 122.216392,190.041155 122.209343,189.184865 C121.823916,187.778268 121.121774,186.478171 120.156496,185.383784 C118.857226,183.554595 118.272555,182.036757 118.493431,180.83027 C118.920428,179.400806 119.942867,178.223951 121.299854,177.6 C123.437232,176.400402 125.885365,175.86724 128.328905,176.069189 C131.083769,176.229543 133.760646,177.043394 136.137518,178.443243 L136.137518,178.443243 Z" id="Path" fill="#FFFFFF" fill-rule="nonzero"></path>
                <path d="M160.485839,195.061622 C160.771679,196.67027 159.693285,198.188108 157.250657,199.589189 C154.710577,201.073785 151.780213,201.756649 148.84438,201.548108 C145.570112,201.305416 142.399977,200.291802 139.593577,198.59027 L136.995036,197.111351 L127.848175,202.378378 L123.807445,200.056216 L148.324672,185.785946 L155.431679,189.885405 C158.510949,191.753514 160.212993,193.452973 160.485839,195.061622 Z M148.116788,198.395676 C149.796725,198.536046 151.478366,198.145772 152.924088,197.28 C154.327299,196.462703 154.950949,195.606486 154.769051,194.685405 C154.587153,193.764324 153.599708,192.817297 151.767737,191.753514 L148.961314,190.144865 L140.347153,195.139459 L142.490949,196.371892 C144.197173,197.443281 146.117216,198.12955 148.116788,198.382703" id="Shape" fill="#FFFFFF" fill-rule="nonzero"></path>
                <path d="M208.156058,220.371892 L188.147299,221.267027 L183.898686,234.810811 L179.221314,232.112432 L182.573431,221.202162 L178.259854,220.955676 L169.087007,226.274595 L165.05927,223.952432 L189.576496,209.682162 L193.604234,212.004324 L181.910803,218.789189 C184.353431,218.659459 186.731095,218.542703 189.069781,218.451892 L203.569635,217.751351 L208.156058,220.371892 Z" id="Path" fill="#FFFFFF" fill-rule="nonzero"></path>
                <polygon id="Path" fill="#FFFFFF" fill-rule="nonzero" points="183.898686 206.387027 180.507591 208.358919 170.581168 202.624865 163.90292 206.503784 173.205693 211.874595 169.866569 213.807568 160.550803 208.44973 152.872117 212.912432 162.79854 218.633514 159.38146 220.618378 145.427299 212.562162 169.931533 198.343784"></polygon>
                <polygon id="Path" fill="#FFFFFF" fill-rule="nonzero" points="227.801022 231.697297 224.357956 233.682162 217.095036 229.504865 196.020876 241.725405 191.980146 239.403243 213.067299 227.182703 205.80438 222.992432 209.247445 220.994595"></polygon>
                <path d="M229.801898,248.652973 L225.904088,259.031351 L221.317664,256.436757 L225.215474,247.355676 L221.239708,245.072432 L211.443212,250.741622 L207.415474,248.419459 L231.932701,234.149189 L238.896788,238.157838 C242.075669,240 243.842676,241.708108 244.19781,243.282162 C244.552944,244.856216 243.526521,246.330811 241.11854,247.705946 C238.069586,249.418378 234.297372,249.734054 229.801898,248.652973 Z M232.478394,246.382703 C234.004529,246.467384 235.520938,246.092247 236.830949,245.305946 C238.208175,244.501622 238.753869,243.671351 238.455036,242.802162 C237.715027,241.518256 236.587135,240.501061 235.232847,239.896216 L232.569343,238.365405 L224.565839,243.00973 L227.35927,244.618378 C228.929649,245.604116 230.709663,246.208402 232.55635,246.382703" id="Shape" fill="#FFFFFF" fill-rule="nonzero"></path>
                <path d="M264.817226,252.972973 L249.459854,272.523243 L245.185255,270.058378 L249.459854,264.648649 L240.014161,259.2 L230.789343,261.794595 L226.553723,259.355676 L260.334745,250.391351 L264.817226,252.972973 Z M244.691533,257.967568 L251.876496,262.118919 L256.242044,256.92973 C256.527883,256.566486 256.99562,256.021622 257.658248,255.295135 C258.320876,254.568649 258.827591,253.997838 259.165401,253.712432 C257.47635,254.335135 255.527445,254.944865 253.305693,255.554595 L244.691533,257.980541" id="Shape" fill="#FFFFFF" fill-rule="nonzero"></path>
                <path d="M345.735766,250.378378 C344.181112,251.170768 342.340202,251.170768 340.785547,250.378378 L319.490511,238.041081 C317.949309,237.244831 316.111774,237.269164 314.592263,238.105946 L298.104526,248.276757 C296.577595,249.088578 294.7462,249.088578 293.21927,248.276757 L260.438686,228.700541 C259.831555,228.449664 259.435637,227.858233 259.435637,227.202162 C259.435637,226.546092 259.831555,225.95466 260.438686,225.703784 L303.197664,198.603243 C304.705883,197.772199 306.535722,197.772199 308.043942,198.603243 L367.316642,234.927568 C367.927727,235.154048 368.333214,235.736193 368.333214,236.387027 C368.333214,237.037861 367.927727,237.620006 367.316642,237.846486 L345.735766,250.378378 Z" id="Path" fill="#00A50E" fill-rule="nonzero" opacity="0.4"></path>
                <polygon id="Path" fill="#899BAF" fill-rule="nonzero" points="326.441606 225.522162 295.246131 243.645405 295.012263 125.967568 326.441606 107.857297"></polygon>
                <polygon id="Path" fill="#A3B6C6" fill-rule="nonzero" points="263.816788 225.522162 295.246131 243.645405 295.246131 125.967568 263.816788 107.857297"></polygon>
                <polygon id="Path" fill="#2D99D5" fill-rule="nonzero" points="326.389635 120.985946 295.14219 139.005405 295.14219 129.522162 326.389635 111.515676"></polygon>
                <polygon id="Path" fill="#2D99D5" fill-rule="nonzero" points="326.389635 134.737297 295.14219 152.756757 295.14219 143.273514 326.389635 125.267027"></polygon>
                <polygon id="Path" fill="#2D99D5" fill-rule="nonzero" points="326.389635 148.657297 295.14219 166.676757 295.14219 157.193514 326.389635 139.187027"></polygon>
                <polygon id="Path" fill="#2D99D5" fill-rule="nonzero" points="326.389635 162.317838 295.14219 180.324324 295.14219 170.854054 326.389635 152.834595"></polygon>
                <polygon id="Path" fill="#2D99D5" fill-rule="nonzero" points="326.389635 176.237838 295.14219 194.257297 295.14219 184.774054 326.389635 166.767568"></polygon>
                <polygon id="Path" fill="#2D99D5" fill-rule="nonzero" points="326.389635 189.989189 295.14219 207.995676 295.14219 198.525405 326.389635 180.505946"></polygon>
                <polygon id="Path" fill="#2D99D5" fill-rule="nonzero" points="326.389635 203.909189 295.14219 221.915676 295.14219 212.445405 326.389635 194.438919"></polygon>
                <polygon id="Path" fill="#2D99D5" fill-rule="nonzero" points="326.389635 217.56973 295.14219 235.576216 295.14219 226.105946 326.389635 208.086486"></polygon>
                <polygon id="Path" fill="url(#linearGradient-2)" fill-rule="nonzero" points="263.894745 120.985946 295.14219 139.005405 295.14219 129.522162 263.894745 111.515676"></polygon>
                <polygon id="Path" fill="url(#linearGradient-3)" fill-rule="nonzero" points="263.894745 134.737297 295.14219 152.756757 295.14219 143.273514 263.894745 125.267027"></polygon>
                <polygon id="Path" fill="url(#linearGradient-3)" fill-rule="nonzero" points="263.894745 148.657297 295.14219 166.676757 295.14219 157.193514 263.894745 139.187027"></polygon>
                <polygon id="Path" fill="url(#linearGradient-2)" fill-rule="nonzero" points="263.894745 162.317838 295.14219 180.324324 295.14219 170.854054 263.894745 152.834595"></polygon>
                <polygon id="Path" fill="url(#linearGradient-3)" fill-rule="nonzero" points="263.894745 176.237838 295.14219 194.257297 295.14219 184.774054 263.894745 166.767568"></polygon>
                <polygon id="Path" fill="url(#linearGradient-2)" fill-rule="nonzero" points="263.894745 189.989189 295.14219 207.995676 295.14219 198.525405 263.894745 180.505946"></polygon>
                <polygon id="Path" fill="url(#linearGradient-4)" fill-rule="nonzero" points="263.894745 203.909189 295.14219 221.915676 295.14219 212.445405 263.894745 194.438919"></polygon>
                <polygon id="Path" fill="url(#linearGradient-2)" fill-rule="nonzero" points="263.894745 217.56973 295.14219 235.576216 295.14219 226.105946 263.894745 208.086486"></polygon>
                <polygon id="Path" fill="#ABBCCE" fill-rule="nonzero" points="295.246131 126.032432 262.647445 107.247568 295.246131 88.4497297 327.831825 107.247568"></polygon>
                <polygon id="Path" fill="#BBBDBF" fill-rule="nonzero" points="262.699416 107.234595 295.194161 126.032432 295.194161 123.463784 262.699416 104.665946"></polygon>
                <polygon id="Path" fill="#BBBDBF" fill-rule="nonzero" points="292.946423 89.76 327.701898 109.842162 327.701898 107.273514 292.946423 87.1913514"></polygon>
                <polygon id="Path" fill="#929497" fill-rule="nonzero" points="315.852555 114.084324 295.246131 126.032432 295.246131 123.463784 315.852555 111.515676"></polygon>
                <polygon id="Path" fill="#DCE9EF" fill-rule="nonzero" points="295.194161 123.463784 262.699416 104.652973 264.986131 103.32973 297.493869 122.140541"></polygon>
                <polygon id="Path" fill="#DCE9EF" fill-rule="nonzero" points="264.986131 105.989189 297.493869 87.1783784 295.194161 85.8551351 262.699416 104.665946"></polygon>
                <polygon id="Path" fill="#DCE9EF" fill-rule="nonzero" points="295.246131 123.463784 318.191241 110.192432 315.904526 108.869189 292.946423 122.140541"></polygon>
                <polygon id="Path" fill="#DCE9EF" fill-rule="nonzero" points="327.740876 107.312432 292.946423 87.1783784 295.246131 85.8551351 330.040584 105.989189"></polygon>
                <polygon id="Path" fill="#929497" fill-rule="nonzero" points="295.246131 91.0313514 269.481606 105.937297 267.259854 104.652973 295.246131 88.4497297"></polygon>
                <polygon id="Path" fill="#D0D2D3" fill-rule="nonzero" style="mix-blend-mode: multiply;" points="295.246131 91.0313514 269.481606 105.937297 271.027737 106.832432 296.753285 91.9654054"></polygon>
                <polygon id="Path" fill="#899BAF" fill-rule="nonzero" points="379.646715 230.659459 348.451241 248.782703 348.217372 132.83027 379.646715 114.707027"></polygon>
                <polygon id="Path" fill="#A3B6C6" fill-rule="nonzero" points="317.021898 230.659459 348.451241 248.782703 348.451241 132.83027 317.021898 114.707027"></polygon>
                <polygon id="Path" fill="#2D99D5" fill-rule="nonzero" points="379.594745 127.848649 348.347299 145.868108 348.347299 136.384865 379.594745 118.378378"></polygon>
                <polygon id="Path" fill="#2D99D5" fill-rule="nonzero" points="379.594745 141.6 348.347299 159.606486 348.347299 150.136216 379.594745 132.116757"></polygon>
                <polygon id="Path" fill="#2D99D5" fill-rule="nonzero" points="379.594745 155.52 348.347299 173.526486 348.347299 164.056216 379.594745 146.036757"></polygon>
                <polygon id="Path" fill="#2D99D5" fill-rule="nonzero" points="379.594745 169.180541 348.347299 187.187027 348.347299 177.716757 379.594745 159.697297"></polygon>
                <polygon id="Path" fill="#2D99D5" fill-rule="nonzero" points="379.594745 183.100541 348.347299 201.107027 348.347299 191.636757 379.594745 173.617297"></polygon>
                <polygon id="Path" fill="#2D99D5" fill-rule="nonzero" points="379.594745 196.838919 348.347299 214.858378 348.347299 205.375135 379.594745 187.368649"></polygon>
                <polygon id="Path" fill="#2D99D5" fill-rule="nonzero" points="379.594745 210.771892 348.347299 228.778378 348.347299 219.308108 379.594745 201.288649"></polygon>
                <polygon id="Path" fill="#2D99D5" fill-rule="nonzero" points="379.594745 224.419459 348.347299 242.438919 348.347299 232.955676 379.594745 214.949189"></polygon>
                <polygon id="Path" fill="url(#linearGradient-3)" fill-rule="nonzero" points="317.099854 127.848649 348.347299 145.868108 348.347299 136.384865 317.099854 118.378378"></polygon>
                <polygon id="Path" fill="url(#linearGradient-2)" fill-rule="nonzero" points="317.099854 141.6 348.347299 159.606486 348.347299 150.136216 317.099854 132.116757"></polygon>
                <polygon id="Path" fill="url(#linearGradient-2)" fill-rule="nonzero" points="317.099854 155.52 348.347299 173.526486 348.347299 164.056216 317.099854 146.036757"></polygon>
                <polygon id="Path" fill="url(#linearGradient-2)" fill-rule="nonzero" points="317.099854 169.180541 348.347299 187.187027 348.347299 177.716757 317.099854 159.697297"></polygon>
                <polygon id="Path" fill="url(#linearGradient-2)" fill-rule="nonzero" points="317.099854 183.100541 348.347299 201.107027 348.347299 191.636757 317.099854 173.617297"></polygon>
                <polygon id="Path" fill="url(#linearGradient-3)" fill-rule="nonzero" points="317.099854 196.838919 348.347299 214.858378 348.347299 205.375135 317.099854 187.368649"></polygon>
                <polygon id="Path" fill="url(#linearGradient-2)" fill-rule="nonzero" points="317.099854 210.771892 348.347299 228.778378 348.347299 219.308108 317.099854 201.288649"></polygon>
                <polygon id="Path" fill="url(#linearGradient-3)" fill-rule="nonzero" points="317.099854 224.419459 348.347299 242.438919 348.347299 232.955676 317.099854 214.949189"></polygon>
                <polygon id="Path" fill="#ABBCCE" fill-rule="nonzero" points="348.451241 132.895135 315.852555 114.097297 325.519124 108.583784 327.701898 109.842162 327.701898 107.273514 348.451241 95.3124324 381.036934 114.097297"></polygon>
                <polygon id="Path" fill="#BBBDBF" fill-rule="nonzero" points="315.904526 114.097297 348.39927 132.895135 348.39927 130.326486 315.904526 111.528649"></polygon>
                <polygon id="Path" fill="#BBBDBF" fill-rule="nonzero" points="346.151533 96.6097297 378.65927 115.407568 378.65927 112.838919 346.151533 94.0410811"></polygon>
                <polygon id="Path" fill="#929497" fill-rule="nonzero" points="380.945985 114.097297 348.451241 132.895135 348.451241 130.326486 380.945985 111.528649"></polygon>
                <polygon id="Path" fill="#DCE9EF" fill-rule="nonzero" points="348.39927 130.326486 315.904526 111.515676 318.191241 110.192432 350.698978 129.003243"></polygon>
                <polygon id="Path" fill="#DCE9EF" fill-rule="nonzero" points="327.701898 107.273514 350.698978 94.0410811 348.39927 92.7178378 325.415182 105.95027"></polygon>
                <polygon id="Path" fill="#DCE9EF" fill-rule="nonzero" points="348.451241 130.326486 380.945985 111.515676 378.65927 110.192432 346.151533 129.003243"></polygon>
                <polygon id="Path" fill="#DCE9EF" fill-rule="nonzero" points="378.65927 112.838919 346.151533 94.0410811 348.451241 92.7178378 380.945985 111.528649"></polygon>
                <polygon id="Path" fill="#929497" fill-rule="nonzero" points="348.451241 97.8810811 327.701898 109.842162 327.701898 107.273514 348.451241 95.3124324"></polygon>
                <g id="Group" opacity="0.4" style="mix-blend-mode: multiply;" transform="translate(119.532847, 120.648649)" fill="#00A50E" fill-rule="nonzero">
                    <path d="M45.5913869,50.2962162 C44.1782895,51.0105665 42.5090098,51.0105665 41.0959124,50.2962162 L0.948467153,27.1654054 C0.397016389,26.9718274 0.0280225486,26.4517584 0.0280225486,25.8681081 C0.0280225486,25.2844578 0.397016389,24.7643888 0.948467153,24.5708108 L41.0959124,1.42702703 C42.5090098,0.712676743 44.1782895,0.712676743 45.5913869,1.42702703 L85.7518248,24.5708108 C86.3167694,24.7514067 86.700089,25.275817 86.700089,25.8681081 C86.700089,26.4603992 86.3167694,26.9848095 85.7518248,27.1654054 L45.5913869,50.2962162 Z" id="Path"></path>
                </g>
                <path d="M165.124234,155.429189 C163.711136,156.143539 162.041856,156.143539 160.628759,155.429189 L120.481314,132.324324 C119.929863,132.130746 119.560869,131.610677 119.560869,131.027027 C119.560869,130.443377 119.929863,129.923308 120.481314,129.72973 L160.628759,106.585946 C162.041856,105.871596 163.711136,105.871596 165.124234,106.585946 L205.284672,129.72973 C205.849616,129.910326 206.232936,130.434736 206.232936,131.027027 C206.232936,131.619318 205.849616,132.143728 205.284672,132.324324 L165.124234,155.429189 Z" id="Path" fill="#FFFFFF" fill-rule="nonzero"></path>
                <path d="M165.124234,155.429189 C163.711136,156.143539 162.041856,156.143539 160.628759,155.429189 L120.481314,132.324324 C119.929863,132.130746 119.560869,131.610677 119.560869,131.027027 C119.560869,130.443377 119.929863,129.923308 120.481314,129.72973 L160.628759,106.585946 C162.041856,105.871596 163.711136,105.871596 165.124234,106.585946 L205.284672,129.72973 C205.849616,129.910326 206.232936,130.434736 206.232936,131.027027 C206.232936,131.619318 205.849616,132.143728 205.284672,132.324324 L165.124234,155.429189 Z" id="Path" stroke="#7BE600" stroke-width="0.59"></path>
                <g id="layer1" transform="translate(137.722628, 120.648649)" fill="#0089D6" fill-rule="nonzero">
                    <g id="layer1-1">
                        <path d="M9.61459854,14.88 L14.0970803,14.0886486 L14.0970803,14.0886486 L11.7843796,11.3513514 L9.48467153,8.60108108 L11.8753285,2.01081081 C11.8753285,2.01081081 13.4994161,4.8 15.7731387,8.7827027 C17.929927,12.5189189 19.6709489,15.5935135 19.7359124,15.6194595 L19.7359124,15.6194595 L5.19708029,15.6194595 L9.61459854,14.88 Z M37.6788321,14.2702703 C36.6302695,14.2569734 35.7775586,13.4226998 35.7429197,12.3762162 C35.679204,11.5861435 35.679204,10.7922349 35.7429197,10.0021622 L35.7429197,8.0172973 L36.730365,8.0172973 L36.730365,9.9372973 C36.6949164,10.6200821 36.6949164,11.3042422 36.730365,11.987027 C36.7496793,12.3796157 36.9006978,12.754304 37.1591241,13.0508108 C37.3428114,13.2436799 37.5846499,13.3712496 37.8477372,13.4140541 C38.0678453,13.4400602 38.2902569,13.4400602 38.510365,13.4140541 C38.7959341,13.3575634 39.0582371,13.2175799 39.2639416,13.0118919 C39.5156007,12.7377035 39.6903837,12.4020926 39.7706569,12.0389189 L39.7706569,11.9091892 L39.7706569,8.0172973 L40.7710949,8.0172973 L40.7710949,14.1016216 L39.7706569,14.1016216 L39.7706569,13.1416216 C39.7706569,13.1416216 39.7706569,13.1416216 39.7706569,13.2324324 C39.5882615,13.5547824 39.3238169,13.8233008 39.0040876,14.0108108 C38.6037689,14.2160774 38.1526383,14.301662 37.7048175,14.2572973 L37.6788321,14.2702703 Z M49.0084672,14.2702703 C48.5977311,14.2425735 48.2003477,14.1132856 47.8521168,13.8940541 C47.0992148,13.4187061 46.6170369,12.6146917 46.5528467,11.7275676 C46.5206593,11.3607025 46.5206593,10.9917299 46.5528467,10.6248649 C46.6272845,9.98315943 46.8742068,9.37351501 47.2674453,8.86054054 C47.3970658,8.70514954 47.5405771,8.56185619 47.6962044,8.43243243 C48.014088,8.1762015 48.3879998,7.9984186 48.7875912,7.91351351 C49.0807613,7.87397403 49.3779248,7.87397403 49.6710949,7.91351351 C50.2768524,7.96530128 50.8374241,8.25449018 51.230219,8.71783784 C51.6495393,9.26480895 51.8736358,9.93607782 51.8668613,10.6248649 L51.8668613,11.3772973 L47.540292,11.3772973 L47.540292,11.4810811 C47.5500272,11.7930237 47.6160482,12.1006536 47.7351825,12.3891892 C47.8357049,12.6299161 47.9862761,12.8465862 48.1769343,13.0248649 C48.4822777,13.2916011 48.8642919,13.455073 49.2683212,13.4918919 C49.5061321,13.5111037 49.7451088,13.5111037 49.9829197,13.4918919 C50.4544743,13.4124283 50.9000421,13.2211251 51.2821898,12.9340541 L51.3861314,12.8691892 C51.3954813,13.016068 51.3954813,13.1633914 51.3861314,13.3102703 L51.3861314,13.7772973 L51.2821898,13.8421622 C50.8368275,14.1059278 50.3411701,14.273842 49.8270073,14.3351351 C49.5241633,14.3547754 49.2203622,14.3547754 48.9175182,14.3351351 L49.0084672,14.2702703 Z M50.8924088,10.3783784 C50.8920349,9.89787068 50.7112285,9.43496847 50.3856934,9.08108108 C50.1760413,8.87846202 49.9078558,8.74684217 49.6191241,8.70486486 C49.4250946,8.67899591 49.228482,8.67899591 49.0344526,8.70486486 C48.7237259,8.75930418 48.4376593,8.90892107 48.2159124,9.13297297 C47.9752631,9.37407267 47.7930475,9.66695 47.6832117,9.98918919 C47.6379195,10.1246914 47.6031691,10.2634819 47.5792701,10.4043243 L47.5792701,10.4043243 L50.8924088,10.4043243 L50.8924088,10.3783784 Z M21.5678832,14.0886486 C21.5678832,14.0886486 22.3084672,12.1556757 23.1919708,9.82054054 L24.8290511,5.55243243 L25.8684672,5.55243243 L25.8684672,5.65621622 C26.0113869,6.00648649 29.129635,14.1016216 29.129635,14.1016216 L28.0122628,14.1016216 L27.5705109,12.9081081 L27.1157664,11.7145946 L23.4908029,11.7145946 L23.4908029,11.7145946 C23.4908029,11.7145946 23.2829197,12.2724324 23.0620438,12.9081081 L22.6462774,14.0627027 L21.5418978,14.0627027 L21.5678832,14.0886486 Z M26.829927,10.8064865 C26.829927,10.8064865 26.5181022,9.97621622 26.1543066,8.9772973 C25.8419472,8.23374846 25.5772288,7.47113047 25.3617518,6.69405405 C25.3617518,6.55135135 25.3617518,6.55135135 25.3617518,6.69405405 C25.3421674,6.8303047 25.3117551,6.9647832 25.2708029,7.09621622 C25.2708029,7.09621622 24.9459854,8.0172973 24.5821898,9.00324324 L23.919562,10.8064865 C23.919562,10.8064865 24.5821898,10.8064865 25.4007299,10.8064865 L26.829927,10.8064865 Z M29.5064234,13.9459459 L29.5064234,13.7902703 L31.3124088,11.3124324 L33.1183942,8.83459459 L29.8832117,8.83459459 L29.8832117,8.0172973 L34.6125547,8.0172973 L34.6125547,8.28972973 L32.8065693,10.7805405 L31.0005839,13.2843243 L34.5605839,13.2843243 L34.5605839,14.1145946 L29.5454015,14.1145946 L29.5064234,13.9459459 Z M42.7589781,14.1016216 C42.7589781,14.1016216 42.7589781,12.7264865 42.7589781,11.04 L42.7589781,8.00432432 L43.7464234,8.00432432 L43.7464234,8.62702703 C43.7464234,8.9772973 43.7464234,9.24972973 43.7464234,9.24972973 L43.7464234,9.13297297 C43.8620612,8.80739161 44.0535533,8.51391972 44.3051095,8.27675676 C44.5142403,8.0660441 44.7893806,7.93326158 45.0846715,7.90054054 C45.1923923,7.88510602 45.3017683,7.88510602 45.4094891,7.90054054 C45.5594681,7.8694167 45.7142546,7.8694167 45.8642336,7.90054054 L45.8642336,7.90054054 L45.8642336,8.91243243 L45.7472993,8.91243243 C45.5417343,8.81163465 45.3131381,8.76687993 45.0846715,8.7827027 C44.9506967,8.78086753 44.8178527,8.80739599 44.6948905,8.86054054 C44.4386867,8.95915306 44.2203583,9.13627546 44.0712409,9.36648649 C43.8529969,9.72625711 43.7155746,10.1290457 43.6684672,10.547027 C43.6684672,10.6248649 43.6684672,11.2086486 43.6684672,12.3762162 L43.6684672,14.0886486 L42.8759124,14.0886486 L42.7589781,14.1016216 Z M0.766569343,14.1016216 L3.18321168,9.92432432 L5.59985401,5.73405405 L8.41927007,3.38594595 L11.2386861,1.02486486 L11.2386861,1.12864865 C11.2386861,1.19351351 9.82248175,4.13837838 8.17240876,7.68 L5.19708029,14.0367568 L3.01430657,14.0367568 C1.8059854,14.0497297 0.818540146,14.0497297 0.818540146,14.0367568 L0.766569343,14.1016216 Z" id="path21"></path>
                    </g>
                </g>
            </g>
        </g>
    </g>
</svg>