<?xml version="1.0" encoding="UTF-8"?> <svg xmlns="http://www.w3.org/2000/svg" xmlns:xlink="http://www.w3.org/1999/xlink" width="332" height="240" viewBox="0 0 332 240"><defs><radialGradient id="zt1x2r9c1f" cx="50%" cy="49.947%" r="55.928%" fx="50%" fy="49.947%"><stop offset=".079%" stop-color="#FFF"></stop><stop offset="100%" stop-color="#2492C3"></stop></radialGradient><radialGradient id="se9d1rl1eh" cx="30.105%" cy="44.386%" r="112.122%" fx="30.105%" fy="44.386%" gradientTransform="matrix(.51863 0 0 1 .145 0)"><stop offset="0%" stop-color="#5F758B"></stop><stop offset="99.967%" stop-color="#363D45"></stop></radialGradient><linearGradient id="7br4jq3dcc" x1="50%" x2="95.16%" y1="42.553%" y2="45.649%"><stop offset="0%" stop-color="#2492C3"></stop><stop offset="100%" stop-color="#6DD400"></stop></linearGradient><linearGradient id="e9bna1o81d" x1="40.933%" x2="81.95%" y1="53.877%" y2="44.973%"><stop offset="0%" stop-color="#2492C3"></stop><stop offset="100%" stop-color="#6DD400"></stop></linearGradient><filter id="uh2v8koe3a" width="116%" height="123.1%" x="-8%" y="-11.5%"><feOffset in="SourceAlpha" result="shadowOffsetOuter1"></feOffset><feGaussianBlur in="shadowOffsetOuter1" result="shadowBlurOuter1" stdDeviation="8"></feGaussianBlur><feColorMatrix in="shadowBlurOuter1" values="0 0 0 0 0.00886950528 0 0 0 0 0.310302045 0 0 0 0 0.44457654 0 0 0 0.58 0"></feColorMatrix></filter><rect id="w1vng19rjb" width="300" height="208" x="16" y="16" rx="6"></rect><path id="qix17ry2ke" d="M0 0H190.281V88.049H0z"></path></defs><g fill="none" fill-rule="evenodd"><g><g><g opacity=".9" transform="translate(-233 -4055) translate(233 4055)"><use fill="#000" filter="url(#uh2v8koe3a)" xlink:href="#w1vng19rjb"></use><use fill="#FFF" xlink:href="#w1vng19rjb"></use></g><g><path fill="#024F71" fill-rule="nonzero" d="M68.152 9.455c1.527 0 2.696-.387 3.508-1.16.812-.774 1.218-1.892 1.218-3.354 0-1.378-.392-2.446-1.175-3.206-.784-.76-1.88-1.139-3.29-1.139h-2.74v8.859h2.479zm0-1.218h-1.03V1.808h1.254c1.984 0 2.975 1.06 2.975 3.181 0 2.165-1.066 3.248-3.199 3.248zm8.077 1.218V.596h-1.448v8.859h1.448zm2.697 0l.866-2.46h3.387l.885 2.46h1.539L82.289.56h-1.576L77.4 9.455h1.527zm3.872-3.708h-2.582l.8-2.309c.21-.59.37-1.133.479-1.63.04.162.114.416.22.763.108.348.192.602.252.764l.83 2.412zm5.29 3.708V5.147c0-.962-.035-1.992-.104-3.09h.049l2.569 7.398h1.279l2.66-7.386h.048c-.016.149-.035.577-.057 1.284-.023.707-.034 1.28-.034 1.721v4.381h1.394V.596h-2.048L91.31 7.643h-.036L88.815.596h-2.042v8.859h1.314zm10.494 0l.867-2.46h3.387l.885 2.46h1.539L101.945.56h-1.575l-3.315 8.895h1.527zm3.872-3.708h-2.581l.8-2.309c.21-.59.37-1.133.478-1.63.04.162.115.416.222.763l.039.126c.088.284.16.497.212.638l.83 2.412zm5.29 3.708V4.85c0-.622-.028-1.309-.085-2.06l-.03-.394h.048l4.357 7.059h1.776V.596h-1.327v4.642c0 .327.012.782.036 1.366.024.584.04.922.048 1.015h-.036L108.186.596h-1.757v8.859h1.315zm11.464 0V1.838h2.606V.596h-6.66v1.242h2.606v7.617h1.448zm5.411 0V.596h-1.448v8.859h1.448zm8.962.121c.74 0 1.375-.132 1.906-.397.531-.264.937-.642 1.218-1.133.28-.49.421-1.063.421-1.718V.596h-1.448V6.19c0 1.434-.683 2.151-2.048 2.151-.703 0-1.224-.174-1.564-.521-.339-.347-.509-.887-.509-1.618V.596h-1.454v5.708c0 1.018.305 1.818.915 2.4.61.581 1.465.872 2.563.872zm11.01-.121V8.213h-3.75V.596h-1.449v8.859h5.2zm4.587 0V1.838h2.606V.596h-6.66v1.242h2.606v7.617h1.448zm5.411 0V.596h-1.448v8.859h1.448zm3.654 0V5.147c0-.962-.034-1.992-.103-3.09h.048l2.57 7.398h1.278l2.66-7.386h.049c-.016.149-.036.577-.058 1.284-.022.707-.033 1.28-.033 1.721v4.381h1.394V.596h-2.049l-2.532 7.047h-.037L158.97.596h-2.042v8.859h1.315zm10.495 0l.866-2.46h3.388l.884 2.46h1.54L172.1.56h-1.576l-3.314 8.895h1.527zm3.872-3.708h-2.581l.8-2.309c.21-.59.369-1.133.478-1.63.04.162.114.416.221.763.107.348.191.602.252.764l.83 2.412z" transform="translate(-233 -4055) translate(233 4055) translate(49 45)"></path><g fill="url(#7br4jq3dcc)" fill-rule="nonzero" transform="translate(-233 -4055) translate(233 4055) translate(49 45) translate(14.44 41.164)"><path d="M173.886 29.953c19.568 19.568 29.818 45.56 29.847 71.89h-23.28c-.015-20.307-7.917-40.354-23.01-55.447-30.614-30.614-80.194-30.67-110.739-.125-15.107 15.107-22.96 35.212-22.884 55.571H.54c-.089-26.397 10.097-52.464 29.684-72.05 39.627-39.627 103.946-39.555 143.662.161z"></path></g><path fill="url(#e9bna1o81d)" fill-rule="nonzero" d="M234.601 142.71l-.001-.61-7.092.035.002.576h7.091zm-.038-3.038l-.017-.61-7.088.215.016.574 7.089-.18zm-.116-3.05l-.033-.608-7.08.397.03.571 7.083-.36zm-.194-3.042l-.048-.605-7.068.578.045.569 7.07-.542zm-.272-3.032l-.063-.602-7.05.76.059.565 7.054-.723zm-.35-3.033l-.08-.608-7.029.942.075.571 7.033-.905zm-.427-3.01l-.095-.602-7.002 1.123.09.566 7.007-1.086zm-.507-3.006l-.11-.597-6.97 1.304.103.56 6.977-1.267zm-.584-2.992l-.127-.6-6.934 1.485.12.564 6.941-1.45zm-7.565-1.357l6.901-1.63-.142-.593-6.892 1.666.133.557zm6.162-4.588l-.156-.584-6.847 1.844.146.55 6.857-1.81zm-.813-2.927l-.173-.586-6.797 2.022.162.55 6.808-1.986zm-.89-2.908l-.186-.575-6.742 2.197.175.541 6.753-2.163zm-.97-2.895l-.202-.575-6.682 2.373.19.54 6.695-2.338zm-1.041-2.862l-.218-.572-6.618 2.547.205.537 6.63-2.512zm-1.117-2.837l-.231-.56-6.55 2.717.217.527 6.564-2.684zm-1.193-2.81l-.246-.557-6.476 2.888.231.522 6.491-2.854zm-1.267-2.784l-.26-.55-6.4 3.056.246.517 6.414-3.023zm-1.336-2.743l-.276-.543-6.317 3.221.259.51 6.334-3.188zm-1.405-2.702l-.29-.537-6.231 3.385.272.503 6.249-3.351zm-1.478-2.671l-.302-.528-6.142 3.545.285.496 6.16-3.513zm-1.55-2.637l-.315-.519-6.047 3.704.296.487 6.067-3.672zm-1.603-2.574l-.332-.514-5.95 3.858.312.483 5.97-3.827zm-1.661-2.52l-.343-.503-5.85 4.01.323.473 5.87-3.98zm-1.743-2.5l-.358-.497-5.743 4.16.336.466 5.765-4.129zm-1.811-2.461l-.368-.484-5.634 4.306.346.455 5.656-4.277zm-1.867-2.403l-.38-.475-5.522 4.45.358.446 5.544-4.421zm-1.934-2.362l-.393-.465-5.404 4.592.37.437 5.427-4.564zm-1.993-2.309l-.404-.454-5.284 4.73.38.426 5.308-4.702zm-2.05-2.256l-.42-.447-5.16 4.865.394.42 5.185-4.838zm-2.11-2.202l-.427-.433-5.033 4.995.402.407 5.059-4.97zm-2.163-2.147l-.44-.423-4.902 5.124.413.397 4.929-5.098zm-2.22-2.09l-.45-.412-4.768 5.249.423.386 4.796-5.224zm-2.272-2.033l-.459-.398-4.631 5.37.431.373 4.66-5.345zm-2.325-1.974l-.47-.387-4.491 5.487.442.364 4.52-5.464zm-2.376-1.914l-.48-.375-4.348 5.602.452.352 4.376-5.58zm-2.426-1.853l-.488-.361-4.201 5.713.459.34 4.23-5.692zm-2.475-1.79l-.498-.35-4.052 5.82.468.328 4.082-5.799zm-2.514-1.722l-.51-.337-3.898 5.924.478.316 3.93-5.903zm-2.57-1.662l-.518-.324-3.743 6.023.487.304 3.774-6.003zm-2.605-1.591l-.524-.31-3.585 6.12.492.29 3.617-6.1zm-2.64-1.52l-.534-.296-3.425 6.21.502.278 3.457-6.192zm-2.693-1.457l-.54-.281-3.26 6.297.507.264 3.293-6.28zm-2.704-1.373l-.547-.268-3.096 6.38.514.251 3.13-6.363zm-2.744-1.306l-.555-.253-2.928 6.458.521.238 2.962-6.443zm-2.74-1.218l-.563-.239-2.761 6.531.527.225 2.796-6.517zm-2.82-1.166l-.566-.223-2.59 6.601.532.21 2.624-6.588zm-2.845-1.09l-.572-.209-2.416 6.667.537.196 2.45-6.654zm-2.88-1.018l-.579-.194-2.24 6.728.544.183 2.275-6.717zm-2.893-.937l-.583-.18-2.063 6.785.548.168 2.098-6.773zm-2.935-.867l-.588-.164-1.883 6.837.552.153 1.919-6.826zm-2.945-.787l-.592-.148-1.703 6.884.556.139 1.74-6.875zm-2.963-.708l-.595-.133-1.523 6.926.56.125 1.558-6.918zm-2.981-.631l-.598-.117-1.34 6.964.561.11 1.377-6.957zm-3.008-.555l-.601-.1-1.158 6.996.565.094 1.194-6.99zm-3.01-.474l-.604-.085-.975 7.024.567.08 1.011-7.019zm-3.025-.395l-.606-.07-.79 7.047.568.066.828-7.043zm-3.036-.317l-.607-.054-.608 7.065.57.05.645-7.061zm-3.035-.238l-.608-.038-.425 7.079.571.036.462-7.077zm-3.044-.159l-.608-.022-.243 7.087.572.02.28-7.085zm-3.051-.081l-.609-.007-.061 7.091.573.007.097-7.091zm-3.042-.003l-.605.009.12 7.09.568-.008-.083-7.091zm-3.053.075l-.614.025.302 7.084.577-.023-.265-7.086zm-3.034.153l-.611.04.484 7.075.574-.038-.447-7.077zm-3.048.232l-.608.056.668 7.06.57-.053-.63-7.063zm-3.026.31l-.604.071.85 7.04.567-.067-.813-7.044zm-3.038.39l-.599.087 1.034 7.016.563-.081-.998-7.021zm-3.001.467l-.604.104 1.216 6.986.567-.097-1.18-6.993zm-2.999.546l-.597.119 1.398 6.952.561-.111-1.362-6.96zm-2.983.625l-.59.133 1.58 6.913.554-.125-1.544-6.921zm-2.977.705l-.592.15 1.761 6.87.556-.142-1.725-6.878zm-2.947.78l-.584.165 1.94 6.82.55-.154-1.906-6.83zm-2.906.852l-.583.181 2.118 6.767.548-.17-2.083-6.778zm-2.905.935l-.575.194 2.295 6.71.54-.183-2.26-6.721zm-2.883 1.011l-.572.211 2.47 6.647.537-.198-2.435-6.66zm-2.848 1.084l-.57.227 2.645 6.58.534-.213-2.61-6.594zm-2.823 1.16l-.557.24 2.816 6.508.522-.225-2.78-6.523zm-2.795 1.236l-.552.254 2.985 6.432.518-.238-2.951-6.448zm-2.756 1.305l-.546.27 3.152 6.351.513-.252-3.12-6.369zm-2.717 1.375l-.539.283 3.317 6.268.506-.266-3.284-6.285zm-2.695 1.453l-.53.297 3.48 6.18.498-.28-3.448-6.197zm-2.642 1.516l-.522.31 3.64 6.086.49-.291-3.608-6.105zm-2.599 1.581l-.518.327 3.796 5.99.487-.308-3.765-6.009zm-2.545 1.64l-.507.339 3.949 5.89.477-.318-3.919-5.91zm-2.517 1.717l-.496.35 4.1 5.785.466-.329-4.07-5.806zm-2.47 1.779l-.489.364 4.249 5.677.46-.342-4.22-5.7zm-2.43 1.848l-.48.378 4.394 5.565.452-.355-4.366-5.588zm-2.38 1.91l-.471.39 4.537 5.45.443-.367-4.509-5.474zm-2.329 1.969l-.46.402 4.676 5.33.433-.377-4.649-5.355zm-2.276 2.028l-.45.413 4.813 5.208.422-.388-4.785-5.233zm-2.223 2.086l-.436.422 4.944 5.083.41-.397-4.918-5.108zm-2.169 2.143l-.426.435 5.074 4.953.401-.409-5.049-4.98zm-2.112 2.198l-.416.446 5.201 4.82.39-.419-5.175-4.847zm-2.056 2.252l-.403.456 5.323 4.685.38-.428-5.3-4.713zM27.72 66.79l-.393.468 5.442 4.545.37-.44-5.42-4.573zm-1.938 2.357l-.379.475 5.558 4.404.356-.447-5.535-4.432zm-1.878 2.408l-.368.488 5.67 4.258.346-.458-5.648-4.288zm-1.81 2.449l-.354.494 5.778 4.111.333-.465-5.757-4.14zM20.34 76.51l-.34.503 5.883 3.96.32-.473-5.863-3.99zm-1.683 2.544l-.329.513 5.984 3.806.308-.482-5.963-3.837zm-1.614 2.58l-.314.521 6.08 3.65.295-.49-6.06-3.68zM15.49 84.27l-.301.529 6.173 3.49.282-.497-6.154-3.522zm-1.482 2.668l-.287.537 6.261 3.33.27-.506-6.244-3.361zm-1.408 2.7l-.274.546 6.345 3.165.258-.513-6.33-3.198zm-1.336 2.731l-.26.553 6.426 3 .244-.52-6.41-3.033zm-1.258 2.75l-.245.559 6.5 2.832.23-.525-6.485-2.866zM8.82 97.894l-.23.564 6.572 2.664.216-.53-6.558-2.698zm-1.123 2.834l-.216.57 6.64 2.493.202-.536-6.626-2.527zm-1.048 2.86l-.2.575 6.7 2.318.19-.54-6.69-2.354zm-.975 2.892l-.186.581 6.76 2.143.174-.546-6.748-2.178zm-.9 2.916l-.17.586 6.813 1.965.16-.55-6.802-2.001zm-.821 2.936l-.156.589 6.863 1.787.145-.553-6.852-1.823zm-.746 2.955l-.14.593 6.907 1.608.131-.557-6.898-1.644zm-.667 2.973l-.125.597 6.946 1.428.117-.56-6.938-1.465zm-.59 2.99l-.11.6 6.981 1.247.103-.564-6.975-1.283zm-.513 3.005l-.093.602 7.01 1.066.088-.566-7.005-1.102zm-.435 3.019l-.077.604 7.036.884.072-.568-7.031-.92zm-.357 3.03l-.062.607 7.057.702.058-.57-7.053-.738zm-.277 3.031l-.047.608 7.072.52.044-.571-7.07-.557zm-.201 3.052l-.03.608 7.082.339.03-.573-7.082-.374zm-.122 3.037l-.015.608 7.09.159.014-.573-7.089-.194zM0 142.479v.232h7.091v-.218l-7.09-.014z" transform="translate(-233 -4055) translate(233 4055) translate(49 45)"></path><g transform="translate(-233 -4055) translate(233 4055) translate(49 45) translate(28.365 54.957)"><mask id="vc6pfa417g" fill="#fff"><use xlink:href="#qix17ry2ke"></use></mask><circle cx="88.345" cy="87.754" r="78.299" fill="url(#zt1x2r9c1f)" mask="url(#vc6pfa417g)" opacity=".686"></circle><g mask="url(#vc6pfa417g)"><g fill="#FFF"><path d="M202.662 98.738L65.757 98.738 36.655 69.636 14.476 69.636 7.3 76.812 6.673 76.185 14.109 68.75 37.022 68.75 66.124 97.852 202.295 97.852 229.161 70.987 273.589 70.987 273.589 71.873 229.528 71.873z" transform="matrix(0 -1 -1 0 137.035 304.627)"></path><path d="M273.506 69.764c.92 0 1.666.747 1.666 1.666 0 .92-.745 1.667-1.666 1.667-.92 0-1.666-.746-1.666-1.667 0-.92.746-1.666 1.666-1.666M94.067 98.609L93.44 97.982 109.373 82.049 183.332 82.049 202.612 62.768 260.947 62.768 260.947 63.655 202.979 63.655 183.699 82.935 109.74 82.935z" transform="matrix(0 -1 -1 0 137.035 304.627)"></path><path d="M260.864 64.878c.92 0 1.666-.746 1.666-1.666 0-.92-.746-1.667-1.666-1.667-.921 0-1.667.747-1.667 1.667s.746 1.666 1.667 1.666M88.248 82.303L49.504 82.303 49.504 81.416 87.881 81.416 105.264 64.033 171.321 64.033 196.449 38.906 290.657 38.906 290.657 39.792 196.816 39.792 171.688 64.92 105.631 64.92z" transform="matrix(0 -1 -1 0 137.035 304.627)"></path><path d="M290.574 41.016c.92 0 1.666-.747 1.666-1.667s-.746-1.666-1.666-1.666c-.92 0-1.666.746-1.666 1.666 0 .92.746 1.667 1.666 1.667M91.074 47.555L90.447 46.928 109.216 28.159 141.928 28.159 153.227 16.861 246.093 16.861 246.093 17.747 153.594 17.747 142.295 29.046 109.583 29.046z" transform="matrix(0 -1 -1 0 137.035 304.627)"></path><path d="M246.009 18.97c.92 0 1.666-.746 1.666-1.666 0-.92-.745-1.666-1.666-1.666-.92 0-1.666.746-1.666 1.666 0 .92.746 1.667 1.666 1.667M183.257 53.226L164.684 53.226 156.981 45.523 157.608 44.896 165.051 52.339 183.257 52.339z" transform="matrix(0 -1 -1 0 137.035 304.627)"></path><path d="M181.169 72.189L142.559 72.189 135.289 64.917 135.916 64.291 142.926 71.303 180.802 71.303 204.823 47.282 239.771 47.282 239.771 48.169 205.19 48.169z" transform="matrix(0 -1 -1 0 137.035 304.627)"></path><path d="M239.688 49.392c.92 0 1.666-.747 1.666-1.667s-.746-1.666-1.666-1.666c-.92 0-1.666.746-1.666 1.666 0 .92.745 1.667 1.666 1.667M198.237 92.417L133.394 92.417 123.792 82.814 124.418 82.187 133.761 91.531 197.87 91.531 214.478 74.921 215.105 75.548z" transform="matrix(0 -1 -1 0 137.035 304.627)"></path><path d="M215.91 76.472c.651-.651.651-1.706 0-2.356-.65-.652-1.706-.652-2.356 0-.65.65-.65 1.705 0 2.356.65.65 1.706.65 2.356 0M224.6 27.941L175.115 27.941 164.87 17.697 165.497 17.07 175.482 27.054 224.6 27.054z" transform="matrix(0 -1 -1 0 137.035 304.627)"></path><path d="M224.517 29.164c.92 0 1.666-.747 1.666-1.667s-.746-1.666-1.666-1.666c-.92 0-1.667.746-1.667 1.666 0 .92.747 1.667 1.667 1.667M229.974 39.505L229.347 38.878 236.43 31.795 274.538 31.795 274.538 32.682 236.797 32.682z" transform="matrix(0 -1 -1 0 137.035 304.627)"></path><path d="M274.455 33.905c.92 0 1.665-.747 1.665-1.667s-.745-1.666-1.665-1.666c-.921 0-1.667.746-1.667 1.666 0 .92.746 1.667 1.667 1.667M286.62 65.329L278.15 56.86 222.365 56.86 213.543 48.039 214.17 47.412 222.732 55.974 278.517 55.974 287.247 64.702z" transform="matrix(0 -1 -1 0 137.035 304.627)"></path><path d="M285.696 66.135c.65.651 1.706.651 2.356 0 .65-.65.65-1.706 0-2.356-.65-.651-1.706-.651-2.356 0-.652.65-.651 1.705 0 2.356M258.372 15.195L252.865 9.688 191.785 9.688 183.332 1.234 147.193 1.234 133.258 15.169 132.632 14.542 146.826.348 183.699.348 192.152 8.801 253.232 8.801 258.999 14.568z" transform="matrix(0 -1 -1 0 137.035 304.627)"></path><path d="M257.448 16c.651.651 1.707.651 2.357 0 .65-.65.65-1.705 0-2.356-.651-.65-1.706-.65-2.357 0-.65.65-.65 1.706 0 2.357M180.977 41.074L177.642 37.738 147.168 37.738 147.168 36.852 178.01 36.852 181.604 40.447z" transform="matrix(0 -1 -1 0 137.035 304.627)"></path><path d="M180.053 41.88c.65.65 1.706.65 2.357 0 .65-.651.65-1.707 0-2.357-.65-.65-1.706-.65-2.357 0-.65.65-.65 1.706 0 2.356M178.649 77.296L153.514 77.296 148.166 71.947 148.793 71.321 153.881 76.409 178.649 76.409z" transform="matrix(0 -1 -1 0 137.035 304.627)"></path><path d="M178.565 78.519c.92 0 1.666-.747 1.666-1.666 0-.92-.746-1.667-1.666-1.667-.92 0-1.666.746-1.666 1.667 0 .92.746 1.666 1.666 1.666M182.531 9.471L164.904 9.471 156.563 1.129 157.19.502 165.271 8.585 182.531 8.585z" transform="matrix(0 -1 -1 0 137.035 304.627)"></path><path d="M182.448 10.694c.92 0 1.667-.747 1.667-1.667s-.747-1.665-1.667-1.665-1.666.746-1.666 1.665c0 .92.746 1.667 1.666 1.667M199.312 77.684L188.968 77.684 188.968 76.798 198.945 76.798 207.747 67.996 223.045 67.996 223.045 68.882 208.114 68.882z" transform="matrix(0 -1 -1 0 137.035 304.627)"></path><path d="M222.961 70.106c.92 0 1.667-.746 1.667-1.667 0-.92-.747-1.666-1.667-1.666s-1.666.746-1.666 1.666c0 .92.746 1.667 1.666 1.667M218.191 33.352L196.097 33.352 190.677 27.932 191.304 27.305 196.464 32.466 218.191 32.466z" transform="matrix(0 -1 -1 0 137.035 304.627)"></path><path d="M218.107 34.575c.92 0 1.667-.746 1.667-1.666 0-.92-.746-1.667-1.667-1.667-.92 0-1.666.746-1.666 1.667 0 .92.746 1.666 1.666 1.666M228.5 90.434L210.843 90.434 210.843 89.547 228.133 89.547 237.744 79.936 256.633 79.936 256.633 80.823 238.111 80.823z" transform="matrix(0 -1 -1 0 137.035 304.627)"></path><path d="M256.55 82.046c.92 0 1.666-.746 1.666-1.666 0-.92-.745-1.667-1.665-1.667-.921 0-1.667.747-1.667 1.667s.746 1.666 1.667 1.666M194.892 115.091L159.597 115.091 143.157 98.653 143.784 98.026 159.963 114.205 194.892 114.205z" transform="matrix(0 -1 -1 0 137.035 304.627)"></path><path d="M194.809 116.315c.92 0 1.666-.747 1.666-1.667s-.746-1.666-1.666-1.666c-.92 0-1.667.746-1.667 1.666 0 .92.747 1.667 1.667 1.667" transform="matrix(0 -1 -1 0 137.035 304.627)"></path></g></g></g><g transform="translate(-233 -4055) translate(233 4055) translate(49 45) translate(78.003 114.641)"><path fill="#2B2B2B" style="mix-blend-mode:multiply" d="M-22.525 22.778L25.124 22.778 25.124 25.161 -22.525 25.161z" transform="matrix(0 1 1 0 -22.67 22.67)"></path><rect width="75.589" height="39.202" x=".113" y="5.198" fill="#FFF" rx="1.59" transform="matrix(1 0 0 -1 0 49.598)"></rect><rect width="75.589" height="39.202" x=".113" y="5.198" fill="url(#se9d1rl1eh)" rx="1.59" transform="matrix(1 0 0 -1 0 49.598)"></rect><g fill="#F1F1F1" transform="translate(18.735 12.057)"><rect width="14.295" height="25.557" rx="2.872" transform="rotate(-180 7.147 12.779)"></rect><rect width="11.696" height="11.479" x="20.576" rx="2.872" transform="matrix(1 0 0 -1 0 11.48)"></rect><rect width="11.696" height="11.479" x="37.47" rx="2.872" transform="matrix(1 0 0 -1 0 11.48)"></rect><rect width="11.696" height="11.479" x="20.576" y="14.078" rx="2.872" transform="matrix(1 0 0 -1 0 39.635)"></rect><rect width="11.696" height="11.479" x="37.47" y="14.078" rx="2.872" transform="matrix(1 0 0 -1 0 39.635)"></rect></g></g></g></g></g></g></svg> 