<?xml version="1.0" encoding="UTF-8"?> <!-- Generator: Adobe Illustrator 23.1.0, SVG Export Plug-In . SVG Version: 6.00 Build 0) --> <svg xmlns="http://www.w3.org/2000/svg" xmlns:xlink="http://www.w3.org/1999/xlink" version="1.1" id="Layer_1" x="0px" y="0px" viewBox="0 0 238.5 174.9" style="enable-background:new 0 0 238.5 174.9;" xml:space="preserve"> <style type="text/css"> .st0{fill:#024F71;} .st1{fill:url(#SVGID_1_);} .st2{fill:url(#SVGID_2_);} .st3{filter:url(#Adobe_OpacityMaskFilter);} .st4{fill-rule:evenodd;clip-rule:evenodd;fill:#FFFFFF;} .st5{opacity:0.686;mask:url(#vc6pfa417g_1_);fill-rule:evenodd;clip-rule:evenodd;fill:url(#SVGID_3_);enable-background:new ;} .st6{filter:url(#Adobe_OpacityMaskFilter_1_);} .st7{mask:url(#vc6pfa417g_2_);} .st8{fill-rule:evenodd;clip-rule:evenodd;fill:#2B2B2B;} .st9{fill-rule:evenodd;clip-rule:evenodd;fill:url(#SVGID_4_);} .st10{fill-rule:evenodd;clip-rule:evenodd;fill:#F1F1F1;} </style> <g> <path class="st0" d="M70.1,19.4c1.5,0,2.7-0.4,3.5-1.2c0.8-0.8,1.2-1.9,1.2-3.4c0-1.4-0.4-2.4-1.2-3.2c-0.8-0.8-1.9-1.1-3.3-1.1 h-2.7v8.9C67.6,19.4,70.1,19.4,70.1,19.4z M70.1,18.2h-1v-6.4h1.3c2,0,3,1.1,3,3.2C73.3,17.1,72.2,18.2,70.1,18.2z M78.1,19.4v-8.9 h-1.4v8.9H78.1z M80.8,19.4l0.9-2.5h3.4l0.9,2.5h1.5l-3.3-8.9h-1.6l-3.3,8.9H80.8L80.8,19.4z M84.7,15.7h-2.6l0.8-2.3 c0.2-0.6,0.4-1.1,0.5-1.6c0,0.2,0.1,0.4,0.2,0.8c0.1,0.3,0.2,0.6,0.3,0.8L84.7,15.7L84.7,15.7z M90,19.4v-4.3c0-1,0-2-0.1-3.1h0 l2.6,7.4h1.3l2.7-7.4h0c0,0.1,0,0.6-0.1,1.3c0,0.7,0,1.3,0,1.7v4.4h1.4v-8.9h-2l-2.5,7h0l-2.5-7h-2v8.9H90L90,19.4z M100.5,19.4 l0.9-2.5h3.4l0.9,2.5h1.5l-3.3-8.9h-1.6L99,19.4C99,19.4,100.5,19.4,100.5,19.4z M104.4,15.7h-2.6l0.8-2.3c0.2-0.6,0.4-1.1,0.5-1.6 c0,0.2,0.1,0.4,0.2,0.8l0,0.1c0.1,0.3,0.2,0.5,0.2,0.6L104.4,15.7z M109.7,19.4v-4.6c0-0.6,0-1.3-0.1-2.1l0-0.4h0l4.4,7.1h1.8v-8.9 h-1.3v4.6c0,0.3,0,0.8,0,1.4c0,0.6,0,0.9,0,1h0l-4.3-7h-1.8v8.9C108.3,19.4,109.7,19.4,109.7,19.4z M121.1,19.4v-7.6h2.6v-1.2h-6.7 v1.2h2.6v7.6H121.1z M126.5,19.4v-8.9h-1.4v8.9H126.5z M135.5,19.5c0.7,0,1.4-0.1,1.9-0.4c0.5-0.3,0.9-0.6,1.2-1.1 c0.3-0.5,0.4-1.1,0.4-1.7v-5.7h-1.4v5.6c0,1.4-0.7,2.2-2,2.2c-0.7,0-1.2-0.2-1.6-0.5c-0.3-0.3-0.5-0.9-0.5-1.6v-5.6H132v5.7 c0,1,0.3,1.8,0.9,2.4C133.5,19.2,134.4,19.5,135.5,19.5L135.5,19.5z M146.5,19.4v-1.2h-3.8v-7.6h-1.4v8.9H146.5L146.5,19.4z M151.1,19.4v-7.6h2.6v-1.2H147v1.2h2.6v7.6H151.1z M156.5,19.4v-8.9h-1.4v8.9H156.5z M160.2,19.4v-4.3c0-1,0-2-0.1-3.1h0l2.6,7.4 h1.3l2.7-7.4h0c0,0.1,0,0.6-0.1,1.3s0,1.3,0,1.7v4.4h1.4v-8.9h-2l-2.5,7h0l-2.5-7h-2v8.9H160.2L160.2,19.4z M170.7,19.4l0.9-2.5 h3.4l0.9,2.5h1.5l-3.3-8.9h-1.6l-3.3,8.9L170.7,19.4L170.7,19.4z M174.5,15.7h-2.6l0.8-2.3c0.2-0.6,0.4-1.1,0.5-1.6 c0,0.2,0.1,0.4,0.2,0.8c0.1,0.3,0.2,0.6,0.3,0.8L174.5,15.7z"></path> <g transform="translate(-233 -4055) translate(233 4055) translate(49 45) translate(14.44 41.164)"> <linearGradient id="SVGID_1_" gradientUnits="userSpaceOnUse" x1="-192.622" y1="380.671" x2="-192.1704" y2="380.64" gradientTransform="matrix(203.1936 0 0 -101.7242 39193.332 38741.0391)"> <stop offset="0" style="stop-color:#2492C3"></stop> <stop offset="1" style="stop-color:#6DD400"></stop> </linearGradient> <path class="st1" d="M126.8-5.1c19.6,19.6,29.8,45.6,29.8,71.9h-23.3c0-20.3-7.9-40.4-23-55.4C79.7-19.3,30.2-19.3-0.4,11.2 c-15.1,15.1-23,35.2-22.9,55.6h-23.3c-0.1-26.4,10.1-52.5,29.7-72.1C22.8-44.9,87.1-44.8,126.8-5.1z"></path> </g> <linearGradient id="SVGID_2_" gradientUnits="userSpaceOnUse" x1="-129.3144" y1="467.1308" x2="-128.9042" y2="467.2198" gradientTransform="matrix(234.601 0 0 -117.592 30436.8008 55032.8672)"> <stop offset="0" style="stop-color:#2492C3"></stop> <stop offset="1" style="stop-color:#6DD400"></stop> </linearGradient> <path class="st2" d="M236.5,152.6l0-0.6l-7.1,0l0,0.6L236.5,152.6L236.5,152.6z M236.5,149.6l0-0.6l-7.1,0.2l0,0.6L236.5,149.6 L236.5,149.6z M236.4,146.6l0-0.6l-7.1,0.4l0,0.6L236.4,146.6L236.4,146.6z M236.2,143.5l0-0.6l-7.1,0.6l0,0.6L236.2,143.5 L236.2,143.5z M235.9,140.5l-0.1-0.6l-7.1,0.8l0.1,0.6L235.9,140.5L235.9,140.5z M235.5,137.5l-0.1-0.6l-7,0.9l0.1,0.6L235.5,137.5 L235.5,137.5z M235.1,134.4l-0.1-0.6l-7,1.1l0.1,0.6L235.1,134.4L235.1,134.4z M234.6,131.4l-0.1-0.6l-7,1.3l0.1,0.6L234.6,131.4z M234,128.4l-0.1-0.6l-6.9,1.5l0.1,0.6L234,128.4L234,128.4z M226.5,127.1l6.9-1.6l-0.1-0.6l-6.9,1.7L226.5,127.1z M232.6,122.5 l-0.2-0.6l-6.8,1.8l0.1,0.6L232.6,122.5L232.6,122.5z M231.8,119.6l-0.2-0.6l-6.8,2l0.2,0.6C225,121.6,231.8,119.6,231.8,119.6z M230.9,116.7l-0.2-0.6l-6.7,2.2l0.2,0.5L230.9,116.7z M230,113.8l-0.2-0.6l-6.7,2.4l0.2,0.5L230,113.8L230,113.8z M228.9,110.9 l-0.2-0.6l-6.6,2.5l0.2,0.5L228.9,110.9L228.9,110.9z M227.8,108.1l-0.2-0.6l-6.6,2.7l0.2,0.5L227.8,108.1L227.8,108.1z M226.6,105.3l-0.2-0.6l-6.5,2.9l0.2,0.5L226.6,105.3L226.6,105.3z M225.3,102.5l-0.3-0.6l-6.4,3.1l0.2,0.5L225.3,102.5 L225.3,102.5z M224,99.7l-0.3-0.5l-6.3,3.2l0.3,0.5L224,99.7z M222.6,97l-0.3-0.5l-6.2,3.4l0.3,0.5L222.6,97z M221.1,94.4l-0.3-0.5 l-6.1,3.5l0.3,0.5L221.1,94.4L221.1,94.4z M219.6,91.7l-0.3-0.5l-6,3.7l0.3,0.5L219.6,91.7L219.6,91.7z M218,89.1l-0.3-0.5 l-5.9,3.9L212,93L218,89.1z M216.3,86.6l-0.3-0.5l-5.9,4l0.3,0.5L216.3,86.6L216.3,86.6z M214.6,84.1l-0.4-0.5l-5.7,4.2l0.3,0.5 C208.8,88.3,214.6,84.1,214.6,84.1z M212.7,81.7l-0.4-0.5l-5.6,4.3l0.3,0.5L212.7,81.7z M210.9,79.3l-0.4-0.5l-5.5,4.4l0.4,0.4 L210.9,79.3z M208.9,76.9l-0.4-0.5l-5.4,4.6l0.4,0.4L208.9,76.9L208.9,76.9z M207,74.6l-0.4-0.5l-5.3,4.7l0.4,0.4L207,74.6z M204.9,72.3l-0.4-0.4l-5.2,4.9l0.4,0.4L204.9,72.3L204.9,72.3z M202.8,70.1l-0.4-0.4l-5,5l0.4,0.4L202.8,70.1L202.8,70.1z M200.6,68l-0.4-0.4l-4.9,5.1l0.4,0.4L200.6,68z M198.4,65.9l-0.4-0.4l-4.8,5.2l0.4,0.4L198.4,65.9L198.4,65.9z M196.1,63.9 l-0.5-0.4l-4.6,5.4l0.4,0.4L196.1,63.9L196.1,63.9z M193.8,61.9l-0.5-0.4l-4.5,5.5l0.4,0.4L193.8,61.9L193.8,61.9z M191.4,60 l-0.5-0.4l-4.3,5.6l0.5,0.4L191.4,60L191.4,60z M189,58.1l-0.5-0.4l-4.2,5.7l0.5,0.3L189,58.1L189,58.1z M186.5,56.3L186,56 l-4.1,5.8l0.5,0.3L186.5,56.3L186.5,56.3z M184,54.6l-0.5-0.3l-3.9,5.9l0.5,0.3L184,54.6z M181.5,53l-0.5-0.3l-3.7,6l0.5,0.3 L181.5,53z M178.8,51.4l-0.5-0.3l-3.6,6.1l0.5,0.3L178.8,51.4z M176.2,49.8l-0.5-0.3l-3.4,6.2l0.5,0.3 C172.8,56,176.2,49.8,176.2,49.8z M173.5,48.4l-0.5-0.3l-3.3,6.3l0.5,0.3L173.5,48.4L173.5,48.4z M170.8,47l-0.5-0.3l-3.1,6.4 l0.5,0.3L170.8,47L170.8,47z M168.1,45.7l-0.6-0.3l-2.9,6.5l0.5,0.2L168.1,45.7L168.1,45.7z M165.3,44.5l-0.6-0.2l-2.8,6.5l0.5,0.2 L165.3,44.5L165.3,44.5z M162.5,43.3l-0.6-0.2l-2.6,6.6l0.5,0.2C159.9,49.9,162.5,43.3,162.5,43.3z M159.7,42.2l-0.6-0.2l-2.4,6.7 l0.5,0.2L159.7,42.2L159.7,42.2z M156.8,41.2l-0.6-0.2l-2.2,6.7l0.5,0.2C154.5,47.9,156.8,41.2,156.8,41.2z M153.9,40.3l-0.6-0.2 l-2.1,6.8l0.5,0.2L153.9,40.3L153.9,40.3z M151,39.4l-0.6-0.2l-1.9,6.8l0.6,0.2L151,39.4L151,39.4z M148,38.6l-0.6-0.1l-1.7,6.9 l0.6,0.1L148,38.6L148,38.6z M145,37.9l-0.6-0.1l-1.5,6.9l0.6,0.1L145,37.9z M142.1,37.3l-0.6-0.1l-1.3,7l0.6,0.1L142.1,37.3z M139.1,36.7l-0.6-0.1l-1.2,7l0.6,0.1C137.9,43.7,139.1,36.7,139.1,36.7z M136,36.3l-0.6-0.1l-1,7l0.6,0.1L136,36.3L136,36.3z M133,35.9l-0.6-0.1l-0.8,7l0.6,0.1C132.2,42.9,133,35.9,133,35.9z M130,35.5l-0.6-0.1l-0.6,7.1l0.6,0 C129.3,42.6,130,35.5,130,35.5z M127,35.3l-0.6,0l-0.4,7.1l0.6,0C126.5,42.4,127,35.3,127,35.3z M123.9,35.1l-0.6,0l-0.2,7.1l0.6,0 L123.9,35.1L123.9,35.1z M120.9,35.1l-0.6,0l-0.1,7.1l0.6,0L120.9,35.1z M117.8,35.1l-0.6,0l0.1,7.1l0.6,0 C117.9,42.2,117.8,35.1,117.8,35.1z M114.8,35.1l-0.6,0l0.3,7.1l0.6,0C115,42.2,114.8,35.1,114.8,35.1z M111.7,35.3l-0.6,0l0.5,7.1 l0.6,0C112.2,42.4,111.7,35.3,111.7,35.3z M108.7,35.5l-0.6,0.1l0.7,7.1l0.6-0.1L108.7,35.5z M105.7,35.8l-0.6,0.1l0.8,7l0.6-0.1 C106.5,42.9,105.7,35.8,105.7,35.8z M102.6,36.2l-0.6,0.1l1,7l0.6-0.1L102.6,36.2L102.6,36.2z M99.6,36.7L99,36.8l1.2,7l0.6-0.1 L99.6,36.7L99.6,36.7z M96.6,37.2L96,37.4l1.4,7l0.6-0.1C98,44.2,96.6,37.2,96.6,37.2z M93.6,37.9L93,38l1.6,6.9l0.6-0.1 C95.2,44.8,93.6,37.9,93.6,37.9z M90.7,38.6l-0.6,0.1l1.8,6.9l0.6-0.1C92.4,45.4,90.7,38.6,90.7,38.6z M87.7,39.3l-0.6,0.2l1.9,6.8 l0.6-0.2L87.7,39.3L87.7,39.3z M84.8,40.2l-0.6,0.2l2.1,6.8l0.5-0.2C86.9,47,84.8,40.2,84.8,40.2z M81.9,41.1l-0.6,0.2l2.3,6.7 l0.5-0.2C84.2,47.9,81.9,41.1,81.9,41.1z M79,42.1l-0.6,0.2l2.5,6.6l0.5-0.2C81.4,48.8,79,42.1,79,42.1z M76.2,43.2l-0.6,0.2 l2.6,6.6l0.5-0.2L76.2,43.2L76.2,43.2z M73.3,44.4l-0.6,0.2l2.8,6.5l0.5-0.2L73.3,44.4L73.3,44.4z M70.5,45.6L70,45.9l3,6.4 l0.5-0.2L70.5,45.6z M67.8,46.9l-0.5,0.3l3.2,6.4l0.5-0.3L67.8,46.9L67.8,46.9z M65.1,48.3l-0.5,0.3l3.3,6.3l0.5-0.3 C68.4,54.6,65.1,48.3,65.1,48.3z M62.4,49.8l-0.5,0.3l3.5,6.2l0.5-0.3C65.8,56,62.4,49.8,62.4,49.8z M59.7,51.3l-0.5,0.3l3.6,6.1 l0.5-0.3L59.7,51.3z M57.1,52.9l-0.5,0.3l3.8,6l0.5-0.3L57.1,52.9z M54.6,54.5l-0.5,0.3l3.9,5.9l0.5-0.3L54.6,54.5L54.6,54.5z M52.1,56.2l-0.5,0.3l4.1,5.8l0.5-0.3L52.1,56.2z M49.6,58l-0.5,0.4l4.2,5.7l0.5-0.3L49.6,58L49.6,58z M47.2,59.8l-0.5,0.4l4.4,5.6 l0.5-0.4C51.5,65.4,47.2,59.8,47.2,59.8z M44.8,61.7l-0.5,0.4l4.5,5.5l0.4-0.4L44.8,61.7L44.8,61.7z M42.5,63.7L42,64.1l4.7,5.3 l0.4-0.4L42.5,63.7z M40.2,65.7l-0.5,0.4l4.8,5.2L45,71C45,71,40.2,65.7,40.2,65.7z M38,67.8l-0.4,0.4l4.9,5.1l0.4-0.4 C42.9,72.9,38,67.8,38,67.8z M35.8,70l-0.4,0.4l5.1,5l0.4-0.4L35.8,70L35.8,70z M33.7,72.2l-0.4,0.4l5.2,4.8l0.4-0.4L33.7,72.2z M31.6,74.4l-0.4,0.5l5.3,4.7l0.4-0.4L31.6,74.4z M29.6,76.7l-0.4,0.5l5.4,4.5l0.4-0.4L29.6,76.7L29.6,76.7z M27.7,79.1l-0.4,0.5 l5.6,4.4l0.4-0.4C33.2,83.5,27.7,79.1,27.7,79.1z M25.8,81.5L25.5,82l5.7,4.3l0.3-0.5L25.8,81.5z M24,83.9l-0.4,0.5l5.8,4.1 l0.3-0.5C29.8,88.1,24,83.9,24,83.9z M22.3,86.4l-0.3,0.5l5.9,4l0.3-0.5L22.3,86.4z M20.6,89l-0.3,0.5l6,3.8l0.3-0.5 C26.5,92.8,20.6,89,20.6,89z M19,91.6l-0.3,0.5l6.1,3.7l0.3-0.5L19,91.6L19,91.6z M17.4,94.2l-0.3,0.5l6.2,3.5l0.3-0.5 C23.6,97.7,17.4,94.2,17.4,94.2z M15.9,96.9l-0.3,0.5l6.3,3.3l0.3-0.5C22.2,100.2,15.9,96.9,15.9,96.9z M14.5,99.6l-0.3,0.5 l6.3,3.2l0.3-0.5L14.5,99.6L14.5,99.6z M13.2,102.3l-0.3,0.6l6.4,3l0.2-0.5C19.6,105.3,13.2,102.3,13.2,102.3z M11.9,105.1 l-0.2,0.6l6.5,2.8l0.2-0.5C18.4,107.9,11.9,105.1,11.9,105.1z M10.7,107.8l-0.2,0.6l6.6,2.7l0.2-0.5 C17.3,110.5,10.7,107.8,10.7,107.8z M9.6,110.7l-0.2,0.6l6.6,2.5l0.2-0.5C16.2,113.2,9.6,110.7,9.6,110.7z M8.6,113.5l-0.2,0.6 l6.7,2.3l0.2-0.5L8.6,113.5L8.6,113.5z M7.6,116.4L7.4,117l6.8,2.1l0.2-0.5L7.6,116.4z M6.7,119.3l-0.2,0.6l6.8,2l0.2-0.6 L6.7,119.3L6.7,119.3z M5.9,122.3l-0.2,0.6l6.9,1.8l0.1-0.6C12.7,124.1,5.9,122.3,5.9,122.3z M5.1,125.2L5,125.8l6.9,1.6l0.1-0.6 C12,126.9,5.1,125.2,5.1,125.2z M4.5,128.2l-0.1,0.6l6.9,1.4l0.1-0.6C11.4,129.7,4.5,128.2,4.5,128.2z M3.9,131.2l-0.1,0.6l7,1.2 l0.1-0.6L3.9,131.2L3.9,131.2z M3.4,134.2l-0.1,0.6l7,1.1l0.1-0.6C10.4,135.3,3.4,134.2,3.4,134.2z M2.9,137.2l-0.1,0.6l7,0.9 l0.1-0.6C9.9,138.1,2.9,137.2,2.9,137.2z M2.6,140.2l-0.1,0.6l7.1,0.7l0.1-0.6L2.6,140.2L2.6,140.2z M2.3,143.3l0,0.6l7.1,0.5 l0-0.6L2.3,143.3L2.3,143.3z M2.1,146.3l0,0.6l7.1,0.3l0-0.6L2.1,146.3L2.1,146.3z M2,149.4l0,0.6l7.1,0.2l0-0.6 C9,149.6,2,149.4,2,149.4z M1.9,152.4v0.2H9v-0.2L1.9,152.4L1.9,152.4z"></path> <g transform="translate(-233 -4055) translate(233 4055) translate(49 45) translate(28.365 54.957)"> <defs> <filter id="Adobe_OpacityMaskFilter" x="-37" y="-25.6" width="156.6" height="156.6"> <feColorMatrix type="matrix" values="1 0 0 0 0 0 1 0 0 0 0 0 1 0 0 0 0 0 1 0"></feColorMatrix> </filter> </defs> <mask maskUnits="userSpaceOnUse" x="-37" y="-25.6" width="156.6" height="156.6" id="vc6pfa417g_1_"> <g class="st3"> <path id="qix17ry2ke_1_" class="st4" d="M-47.1-35.1h190.3v88H-47.1V-35.1z"></path> </g> </mask> <radialGradient id="SVGID_3_" cx="-206.4192" cy="367.8004" r="0.5596" gradientTransform="matrix(156.598 0 0 -156.598 32366.0938 57649.4961)" gradientUnits="userSpaceOnUse"> <stop offset="7.900000e-04" style="stop-color:#FFFFFF"></stop> <stop offset="1" style="stop-color:#2492C3"></stop> </radialGradient> <circle class="st5" cx="41.3" cy="52.7" r="78.3"></circle> <defs> <filter id="Adobe_OpacityMaskFilter_1_" x="-26.4" y="-22.7" width="116" height="285.6"> <feColorMatrix type="matrix" values="1 0 0 0 0 0 1 0 0 0 0 0 1 0 0 0 0 0 1 0"></feColorMatrix> </filter> </defs> <mask maskUnits="userSpaceOnUse" x="-26.4" y="-22.7" width="116" height="285.6" id="vc6pfa417g_2_"> <g class="st6"> <path id="qix17ry2ke_2_" class="st4" d="M-47.1-35.1h190.3v88H-47.1V-35.1z"></path> </g> </mask> <g class="st7"> <g> <path class="st4" d="M-8.8,66.9v136.9l29.1,29.1v22.2l-7.2,7.2l0.6,0.6l7.4-7.4v-22.9l-29.1-29.1V67.3L19,40.4V-4h-0.9V40 L-8.8,66.9z"></path> <path class="st4" d="M20.2-3.9c0-0.9-0.7-1.7-1.7-1.7c-0.9,0-1.7,0.7-1.7,1.7c0,0.9,0.7,1.7,1.7,1.7C19.4-2.3,20.2-3,20.2-3.9 M-8.7,175.5l0.6,0.6l15.9-15.9v-74L27.2,67V8.6h-0.9v58L7,85.9v74L-8.7,175.5z"></path> <path class="st4" d="M25.1,8.7c0-0.9,0.7-1.7,1.7-1.7s1.7,0.7,1.7,1.7c0,0.9-0.7,1.7-1.7,1.7S25.1,9.6,25.1,8.7 M7.6,181.3v38.7 h0.9v-38.4l17.4-17.4V98.2L51,73.1v-94.2h-0.9v93.8L25,97.9v66.1L7.6,181.3z"></path> <path class="st4" d="M48.9-21c0-0.9,0.7-1.7,1.7-1.7s1.7,0.7,1.7,1.7c0,0.9-0.7,1.7-1.7,1.7C49.7-19.3,48.9-20.1,48.9-21 M42.4,178.5l0.6,0.6l18.8-18.8v-32.7l11.3-11.3V23.5h-0.9V116l-11.3,11.3V160L42.4,178.5z"></path> <path class="st4" d="M71,23.6c0-0.9,0.7-1.7,1.7-1.7c0.9,0,1.7,0.7,1.7,1.7c0,0.9-0.7,1.7-1.7,1.7C71.7,25.2,71,24.5,71,23.6 M36.7,86.3v18.6l7.7,7.7l0.6-0.6l-7.4-7.4V86.3H36.7z"></path> <path class="st4" d="M17.8,88.4V127l7.3,7.3l0.6-0.6l-7-7V88.8l24-24V29.8h-0.9v34.6L17.8,88.4z"></path> <path class="st4" d="M40.6,29.9c0-0.9,0.7-1.7,1.7-1.7s1.7,0.7,1.7,1.7s-0.7,1.7-1.7,1.7C41.3,31.5,40.6,30.8,40.6,29.9 M-2.5,71.3v64.8l9.6,9.6l0.6-0.6l-9.3-9.3V71.7L15,55.1l-0.6-0.6L-2.5,71.3z"></path> <path class="st4" d="M13.5,53.7c0.7-0.7,1.7-0.7,2.4,0c0.7,0.6,0.7,1.7,0,2.4c-0.7,0.6-1.7,0.6-2.4,0 C12.8,55.4,12.8,54.3,13.5,53.7 M62,45v49.5l10.2,10.2l0.6-0.6l-10-10V45H62z"></path> <path class="st4" d="M60.8,45c0-0.9,0.7-1.7,1.7-1.7c0.9,0,1.7,0.7,1.7,1.7s-0.7,1.7-1.7,1.7C61.5,46.7,60.8,46,60.8,45 M50.4,39.6l0.6,0.6l7.1-7.1V-5h-0.9v37.7L50.4,39.6z"></path> <path class="st4" d="M56-4.9c0-0.9,0.7-1.7,1.7-1.7s1.7,0.7,1.7,1.7c0,0.9-0.7,1.7-1.7,1.7S56-4,56-4.9 M24.6-17.1l8.5,8.5v55.8 l8.8,8.8l0.6-0.6L34,46.8V-9l-8.7-8.7L24.6-17.1z"></path> <path class="st4" d="M23.8-16.1c-0.7-0.6-0.7-1.7,0-2.4c0.7-0.6,1.7-0.6,2.4,0c0.7,0.6,0.7,1.7,0,2.4 C25.5-15.5,24.5-15.5,23.8-16.1 M74.8,11.2l5.5,5.5v61.1l8.5,8.5v36.1l-13.9,13.9l0.6,0.6l14.2-14.2V85.9l-8.5-8.5V16.3 l-5.8-5.8L74.8,11.2z"></path> <path class="st4" d="M74,12.1c-0.7-0.7-0.7-1.7,0-2.4c0.7-0.6,1.7-0.6,2.4,0c0.7,0.7,0.7,1.7,0,2.4C75.7,12.8,74.6,12.8,74,12.1 M48.9,88.6l3.3,3.3v30.5h0.9V91.6L49.5,88L48.9,88.6z"></path> <path class="st4" d="M48.1,89.5c-0.7-0.6-0.7-1.7,0-2.4c0.7-0.6,1.7-0.6,2.4,0c0.7,0.6,0.7,1.7,0,2.4 C49.8,90.2,48.7,90.2,48.1,89.5 M12.7,90.9V116l5.3,5.3l0.6-0.6l-5.1-5.1V90.9H12.7z"></path> <path class="st4" d="M11.4,91c0-0.9,0.7-1.7,1.7-1.7c0.9,0,1.7,0.7,1.7,1.7s-0.7,1.7-1.7,1.7C12.2,92.7,11.4,91.9,11.4,91 M80.5,87v17.6l8.3,8.3l0.6-0.6l-8.1-8.1V87H80.5z"></path> <path class="st4" d="M79.3,87.1c0-0.9,0.7-1.7,1.7-1.7c0.9,0,1.7,0.7,1.7,1.7s-0.7,1.7-1.7,1.7C80,88.8,79.3,88,79.3,87.1 M12.3,70.3v10.3h0.9v-10l8.8-8.8V46.5h-0.9v14.9L12.3,70.3z"></path> <path class="st4" d="M19.8,46.6c0-0.9,0.7-1.7,1.7-1.7c0.9,0,1.7,0.7,1.7,1.7s-0.7,1.7-1.7,1.7S19.8,47.5,19.8,46.6 M56.6,51.4 v22.1l5.4,5.4l0.6-0.6l-5.2-5.2V51.4H56.6z"></path> <path class="st4" d="M55.4,51.5c0-0.9,0.7-1.7,1.7-1.7c0.9,0,1.7,0.7,1.7,1.7c0,0.9-0.7,1.7-1.7,1.7 C56.1,53.1,55.4,52.4,55.4,51.5 M-0.5,41.1v17.7h0.9V41.4l9.6-9.6V12.9H9.1v18.5L-0.5,41.1z"></path> <path class="st4" d="M7.9,13c0-0.9,0.7-1.7,1.7-1.7s1.7,0.7,1.7,1.7c0,0.9-0.7,1.7-1.7,1.7S7.9,13.9,7.9,13 M-25.1,74.7V110 l16.4,16.4l0.6-0.6l-16.2-16.2V74.7H-25.1z"></path> <path class="st4" d="M-26.4,74.8c0-0.9,0.7-1.7,1.7-1.7s1.7,0.7,1.7,1.7s-0.7,1.7-1.7,1.7S-26.4,75.7-26.4,74.8"></path> </g> </g> </g> <g transform="translate(-233 -4055) translate(233 4055) translate(49 45) translate(78.003 114.641)"> <path class="st8" d="M-47-34.9v47.6h2.4v-47.6H-47z"></path> <path class="st4" d="M-45.4,9.3H27c0.9,0,1.6-0.7,1.6-1.6v-36c0-0.9-0.7-1.6-1.6-1.6h-72.4c-0.9,0-1.6,0.7-1.6,1.6v36 C-47,8.6-46.3,9.3-45.4,9.3z"></path> <radialGradient id="SVGID_4_" cx="-254.669" cy="316.5608" r="1.1212" gradientTransform="matrix(39.2027 0 0 39.202 9959.5078 -12417.8809)" gradientUnits="userSpaceOnUse"> <stop offset="0" style="stop-color:#5F758B"></stop> <stop offset="0.9997" style="stop-color:#363D45"></stop> </radialGradient> <path class="st9" d="M-45.4,9.3H27c0.9,0,1.6-0.7,1.6-1.6v-36c0-0.9-0.7-1.6-1.6-1.6h-72.4c-0.9,0-1.6,0.7-1.6,1.6v36 C-47,8.6-46.3,9.3-45.4,9.3z"></path> <g transform="translate(18.735 12.057)"> <path class="st10" d="M-35.7-9.5h-8.6c-1.6,0-2.9-1.3-2.9-2.9v-19.8c0-1.6,1.3-2.9,2.9-2.9h8.6c1.6,0,2.9,1.3,2.9,2.9v19.8 C-32.8-10.8-34.1-9.5-35.7-9.5z"></path> <path class="st10" d="M-23.6-23.6h6c1.6,0,2.9-1.3,2.9-2.9v-5.7c0-1.6-1.3-2.9-2.9-2.9h-6c-1.6,0-2.9,1.3-2.9,2.9v5.7 C-26.5-24.9-25.2-23.6-23.6-23.6z"></path> <path class="st10" d="M-6.7-23.6h6c1.6,0,2.9-1.3,2.9-2.9v-5.7c0-1.6-1.3-2.9-2.9-2.9h-6c-1.6,0-2.9,1.3-2.9,2.9v5.7 C-9.6-24.9-8.3-23.6-6.7-23.6z"></path> <path class="st10" d="M-23.6-9.5h6c1.6,0,2.9-1.3,2.9-2.9v-5.7c0-1.6-1.3-2.9-2.9-2.9h-6c-1.6,0-2.9,1.3-2.9,2.9v5.7 C-26.5-10.8-25.2-9.5-23.6-9.5z"></path> <path class="st10" d="M-6.7-9.5h6c1.6,0,2.9-1.3,2.9-2.9v-5.7c0-1.6-1.3-2.9-2.9-2.9h-6c-1.6,0-2.9,1.3-2.9,2.9v5.7 C-9.6-10.8-8.3-9.5-6.7-9.5z"></path> </g> </g> </g> </svg> 