<?xml version="1.0" encoding="UTF-8"?> <svg xmlns="http://www.w3.org/2000/svg" xmlns:xlink="http://www.w3.org/1999/xlink" width="535" height="303" viewBox="0 0 535 303"><defs><radialGradient id="69blmtaded" cx="50%" cy="49.947%" r="55.928%" fx="50%" fy="49.947%"><stop offset=".079%" stop-color="#FFF"></stop><stop offset="100%" stop-color="#2492C3"></stop></radialGradient><radialGradient id="y7ozbup6rf" cx="30.105%" cy="44.386%" r="112.122%" fx="30.105%" fy="44.386%" gradientTransform="matrix(.51863 0 0 1 .145 0)"><stop offset="0%" stop-color="#5F758B"></stop><stop offset="99.967%" stop-color="#363D45"></stop></radialGradient><linearGradient id="3rbnpfd85a" x1="50%" x2="95.16%" y1="42.553%" y2="45.649%"><stop offset="0%" stop-color="#2492C3"></stop><stop offset="100%" stop-color="#6DD400"></stop></linearGradient><linearGradient id="be4as7accb" x1="40.933%" x2="81.95%" y1="53.877%" y2="44.973%"><stop offset="0%" stop-color="#2492C3"></stop><stop offset="100%" stop-color="#6DD400"></stop></linearGradient><path id="51xm7w7c4c" d="M0 0H322V149H0z"></path></defs><g fill="none" fill-rule="evenodd"><g><g><path fill="#024F71" fill-rule="nonzero" d="M199.88 41.205c1.25 0 2.325-.224 3.224-.672.899-.447 1.586-1.086 2.061-1.917.475-.83.713-1.8.713-2.907v-9.7h-2.451v9.464c0 2.427-1.155 3.64-3.466 3.64-1.19 0-2.071-.294-2.645-.882-.575-.587-.862-1.5-.862-2.737v-9.485h-2.46v9.659c0 1.723.516 3.076 1.548 4.06 1.032.985 2.478 1.477 4.337 1.477zM218.51 41v-2.102h-6.347v-12.89h-2.45V41h8.797zm7.763 0V28.11h4.409V26.01h-11.27v2.102h4.41V41h2.45zm9.156 0V26.009h-2.45V41h2.45zm6.184 0v-7.29c0-1.627-.059-3.37-.175-5.23h.082L245.868 41h2.163l4.502-12.5h.082c-.027.253-.06.978-.097 2.174-.038 1.197-.057 2.167-.057 2.912V41h2.359V26.009h-3.466l-4.286 11.925h-.062l-4.163-11.925h-3.456V41h2.226zm17.76 0l1.466-4.163h5.732L268.068 41h2.604l-5.609-15.053h-2.666L256.788 41h2.584zm6.552-6.275h-4.369l1.354-3.907c.355-.998.625-1.918.81-2.758.068.273.193.704.374 1.292l.066.213c.15.48.27.84.36 1.079l1.405 4.08zm18.477 6.48c2.235 0 3.963-.677 5.183-2.03 1.22-1.354 1.83-3.25 1.83-5.691 0-2.447-.608-4.344-1.824-5.691-1.217-1.347-2.94-2.02-5.168-2.02-2.263 0-4.005.663-5.225 1.99-1.22 1.325-1.83 3.226-1.83 5.7 0 2.475.607 4.384 1.82 5.727s2.951 2.015 5.214 2.015zm0-2.092c-1.463 0-2.567-.477-3.312-1.43-.745-.954-1.118-2.353-1.118-4.2 0-1.838.375-3.233 1.123-4.183.749-.95 1.858-1.425 3.328-1.425 1.456 0 2.551.475 3.286 1.425.735.95 1.102 2.345 1.102 4.184 0 1.866-.37 3.27-1.112 4.214-.742.944-1.84 1.415-3.297 1.415zm12.9 1.887v-9.516h2.768V29.66h-2.768v-.738c0-.677.124-1.184.374-1.523.25-.338.647-.507 1.194-.507.54 0 1.108.095 1.703.287l.635-1.825c-.82-.28-1.654-.42-2.502-.42-1.292 0-2.252.322-2.881.968-.629.646-.943 1.639-.943 2.979v.738l-1.867.738v1.128h1.867V41h2.42zm7.618 0v-9.516h2.769V29.66h-2.769v-.738c0-.677.125-1.184.374-1.523.25-.338.648-.507 1.195-.507.54 0 1.107.095 1.702.287l.636-1.825c-.82-.28-1.654-.42-2.502-.42-1.292 0-2.252.322-2.881.968-.63.646-.944 1.639-.944 2.979v.738l-1.866.738v1.128h1.866V41h2.42zm7.116 0V25.045h-2.41V41h2.41zm8.111.205c1.696 0 3.018-.52 3.968-1.559.95-1.039 1.426-2.484 1.426-4.337 0-1.79-.479-3.215-1.436-4.27-.957-1.057-2.256-1.585-3.896-1.585-1.716 0-3.046.516-3.989 1.548-.943 1.033-1.415 2.468-1.415 4.307 0 1.183.219 2.222.656 3.117.438.896 1.063 1.583 1.877 2.061.813.479 1.75.718 2.81.718zm.041-1.969c-1.934 0-2.902-1.309-2.902-3.927 0-1.25.228-2.211.682-2.881.455-.67 1.188-1.005 2.2-1.005 1.927 0 2.891 1.295 2.891 3.886 0 2.618-.957 3.927-2.87 3.927zm10.87 1.97c.868 0 1.578-.126 2.132-.375.554-.25 1.104-.72 1.651-1.41h.082l.482 1.579h1.723v-7.64c0-1.346-.368-2.334-1.103-2.963-.734-.628-1.823-.943-3.265-.943-.65 0-1.34.084-2.072.251-.731.168-1.405.412-2.02.733l.78 1.723c.492-.232 1.004-.434 1.538-.605.533-.17 1.09-.256 1.671-.256.71 0 1.236.18 1.574.538.338.359.508.9.508 1.625v.605l-1.959.062c-1.777.055-3.1.38-3.968.974-.868.595-1.302 1.477-1.302 2.646 0 1.1.312 1.951.938 2.553.625.601 1.495.902 2.61.902zm.758-1.847c-.601 0-1.053-.138-1.353-.415-.301-.277-.452-.668-.452-1.174 0-.697.259-1.215.775-1.553.516-.339 1.341-.529 2.476-.57l1.456-.061v.984c0 .882-.265 1.567-.795 2.056-.53.489-1.232.733-2.107.733zm12.5 1.846c1.49 0 2.621-.564 3.394-1.692h.113l.42 1.487h1.887V25.045h-2.42v4.132c0 .472.058 1.115.174 1.928h-.123c-.78-1.1-1.914-1.65-3.404-1.65-1.422 0-2.535.517-3.338 1.553-.803 1.035-1.205 2.483-1.205 4.342 0 1.853.397 3.292 1.19 4.317.793 1.025 1.897 1.538 3.312 1.538zm.646-1.948c-.889 0-1.556-.33-2-.99-.444-.66-.666-1.618-.666-2.876 0-1.271.229-2.25.687-2.938.458-.687 1.11-1.03 1.958-1.03.991 0 1.72.3 2.184.902.465.602.698 1.617.698 3.046v.338c-.014 1.251-.247 2.155-.698 2.712-.45.557-1.172.836-2.163.836z" transform="translate(-532 -231) translate(532 231)"></path><g fill="url(#3rbnpfd85a)" fill-rule="nonzero" transform="translate(-532 -231) translate(532 231) translate(92.436 96.659)"><path d="M294.256 50.688c33.114 33.113 50.46 77.099 50.508 121.654H305.37c-.026-34.364-13.399-68.289-38.939-93.829-51.806-51.807-135.707-51.902-187.397-.212-25.565 25.566-38.854 59.588-38.726 94.04H.914C.764 127.671 18 83.56 51.146 50.414c67.058-67.058 175.902-66.935 243.11.274z"></path></g><path fill="url(#be4as7accb)" fill-rule="nonzero" d="M465 268.5l-.003-1.035-12 .061.003.974h12zm-.065-5.143l-.029-1.032-11.994.364.027.972 11.996-.304zm-.197-5.161l-.055-1.029-11.98.671.05.968 11.985-.61zm-.328-5.148l-.08-1.023-11.961.978.076.962 11.965-.917zm-.46-5.13l-.106-1.018-11.931 1.285.1.956 11.938-1.224zm-.593-5.133l-.135-1.028-11.893 1.594.127.966 11.901-1.532zm-.722-5.092l-.16-1.02-11.85 1.9.152.959 11.858-1.84zm-.857-5.089l-.186-1.01-11.795 2.207.175.95 11.806-2.147zm-.988-5.063l-.215-1.015-11.734 2.513.202.954 11.747-2.452zm-12.803-2.296l11.679-2.758-.24-1.003-11.664 2.819c.076.313.15.627.225.942zm10.428-7.763l-.264-.99-11.587 3.121.248.93 11.603-3.061zm-1.376-4.955l-.292-.99-11.502 3.422.274.93 11.52-3.362zm-1.506-4.92l-.315-.974-11.409 3.72.296.915 11.428-3.66zm-1.64-4.9l-.342-.972-11.308 4.016.321.913 11.329-3.957zm-1.763-4.843l-.37-.967-11.199 4.31.347.908 11.222-4.25zm-1.89-4.8l-.39-.949-11.084 4.6.366.89 11.108-4.542zm-2.018-4.757l-.416-.94-10.96 4.887.39.883 10.986-4.83zm-2.144-4.709l-.442-.93-10.828 5.17.414.875 10.856-5.115zm-2.262-4.642l-.466-.92-10.69 5.452.437.864 10.719-5.396zm-2.377-4.573l-.49-.908-10.545 5.727.46.853 10.575-5.672zm-2.5-4.52l-.513-.893-10.393 5.999.481.84 10.424-5.946zm-2.623-4.462l-.535-.878-10.233 6.267.502.825 10.266-6.214zm-2.714-4.355l-.561-.871-10.069 6.529.528.818 10.102-6.476zm-2.811-4.264l-.58-.852-9.899 6.784.546.801 9.933-6.733zm-2.949-4.231l-.606-.841-9.719 7.038.57.79 9.755-6.987zm-3.066-4.166l-.622-.818-9.534 7.287.585.77 9.571-7.239zm-3.158-4.066l-.645-.804-9.343 7.53.606.756 9.382-7.482zm-3.273-3.996l-.665-.787-9.145 7.77.625.74 9.185-7.723zm-3.372-3.908l-.684-.769-8.942 8.003.643.723 8.983-7.957zm-3.471-3.818l-.708-.756-8.732 8.232.665.71 8.775-8.186zm-3.568-3.727l-.724-.733-8.517 8.454.68.689 8.561-8.41zm-3.662-3.633l-.744-.715-8.296 8.67.7.673 8.34-8.628zm-3.755-3.537l-.762-.696-8.069 8.882.716.653 8.115-8.84zm-3.846-3.44l-.777-.674-7.837 9.087.73.633 7.884-9.046zm-3.934-3.34l-.796-.656-7.6 9.287.748.616 7.648-9.248zm-4.021-3.24l-.813-.634-7.357 9.48.764.597 7.406-9.442zm-4.106-3.135l-.826-.61-7.11 9.667.777.574 7.159-9.63zm-4.189-3.03l-.843-.59-6.855 9.85.792.554 6.906-9.814zm-4.254-2.912l-.861-.57-6.598 10.023.81.536 6.65-9.989zm-4.348-2.813l-.876-.548-6.334 10.192.823.515 6.387-10.16zm-4.41-2.693l-.886-.523-6.067 10.354.833.49 6.12-10.321zm-4.467-2.571l-.903-.501-5.795 10.508.849.47 5.85-10.477zm-4.556-2.466l-.914-.477-5.518 10.657.859.447 5.573-10.627zm-4.576-2.325l-.925-.452-5.24 10.796.87.425 5.295-10.769zm-4.643-2.208l-.94-.43-4.955 10.93.882.402 5.013-10.902zm-4.639-2.061l-.95-.405-4.674 11.052.893.38 4.731-11.027zm-4.77-1.974l-.959-.378-4.382 11.171.9.356 4.44-11.149zm-4.815-1.845l-.969-.353-4.087 11.282.909.332 4.147-11.26zm-4.874-1.722l-.979-.329-3.79 11.386.92.309 3.849-11.366zm-4.895-1.586l-.987-.304-3.49 11.482.927.284 3.55-11.462zm-4.967-1.468l-.994-.277-3.187 11.57.933.26 3.248-11.553zm-4.983-1.33l-1.002-.251-2.882 11.649.94.235 2.944-11.633zm-5.015-1.2l-1.007-.224-2.576 11.72.945.211 2.638-11.707zm-5.044-1.067l-1.012-.197-2.269 11.783.95.186 2.33-11.772zm-5.09-.938l-1.017-.171-1.96 11.839.956.16 2.021-11.828zm-5.096-.802l-1.02-.145-1.65 11.886.96.136 1.71-11.877zm-5.117-.67l-1.025-.117-1.339 11.925.963.11 1.4-11.918zm-5.138-.536l-1.027-.091-1.029 11.956.965.085 1.091-11.95zm-5.135-.402l-1.029-.065-.72 11.979.967.06.782-11.974zm-5.15-.27l-1.03-.038-.412 11.993.968.036.473-11.99zm-5.165-.137l-1.03-.011-.104 12 .97.01.164-11.999zm-5.148-.005l-1.023.015.202 11.998.962-.014-.141-11.999zm-5.166.127l-1.04.042.512 11.989.977-.04-.45-11.991zm-5.134.258l-1.034.068.819 11.972.972-.064-.757-11.976zm-5.158.393l-1.028.095 1.129 11.947.966-.09-1.067-11.952zm-5.121.525l-1.022.12 1.439 11.914.96-.114-1.377-11.92zm-5.14.661l-1.014.147 1.75 11.872.952-.138-1.688-11.88zm-5.08.79l-1.021.175 2.058 11.822.96-.165-1.997-11.833zm-5.074.924l-1.011.2 2.366 11.765.95-.189-2.305-11.776zm-5.048 1.057l-1 .225 2.674 11.699.938-.212-2.612-11.712zm-5.038 1.193l-1.002.254 2.98 11.624.942-.239-2.92-11.639zm-4.987 1.32l-.988.28 3.284 11.541.928-.261-3.224-11.56zm-4.917 1.441l-.988.307 3.584 11.452.928-.288-3.524-11.47zm-4.917 1.582l-.972.33 3.884 11.354.912-.31-3.824-11.374zm-4.879 1.712l-.968.357 4.181 11.248.909-.335-4.122-11.27zm-4.82 1.835l-.962.384 4.474 11.134.904-.36-4.415-11.158zm-4.776 1.963l-.942.404 4.764 11.014.885-.38-4.707-11.038zm-4.73 2.09l-.933.43 5.051 10.886.877-.405-4.995-10.91zm-4.664 2.21l-.924.455 5.335 10.749.867-.428-5.278-10.776zm-4.597 2.326l-.912.48 5.613 10.606.856-.45-5.557-10.636zm-4.56 2.459l-.898.503 5.888 10.456.844-.473-5.834-10.486zm-4.472 2.564l-.883.525 6.158 10.3.83-.494-6.105-10.33zm-4.397 2.676l-.877.553 6.423 10.136.824-.52-6.37-10.169zm-4.307 2.776l-.859.573 6.683 9.967.807-.538-6.63-10.002zm-4.26 2.905l-.84.591 6.94 9.791.788-.556-6.888-9.826zm-4.18 3.01l-.827.617 7.19 9.607.777-.578-7.14-9.645zm-4.112 3.128l-.813.639 7.436 9.418.765-.6-7.388-9.457zm-4.027 3.231l-.797.66 7.677 9.223.75-.62-7.63-9.263zm-3.941 3.333l-.78.68 7.914 9.021.732-.64-7.866-9.061zm-3.852 3.432l-.76.699 8.143 8.813.714-.656-8.097-8.856zm-3.762 3.53l-.739.715 8.368 8.601.694-.672-8.323-8.644zm-3.67 3.626l-.721.736 8.587 8.382.678-.691-8.544-8.427zm-3.575 3.72l-.703.754 8.8 8.158.662-.71-8.759-8.202zm-3.478 3.811l-.682.772 9.008 7.928.641-.725-8.967-7.975zm-3.38 3.902l-.665.792 9.21 7.692.625-.744-9.17-7.74zm-3.28 3.989l-.64.803 9.405 7.453.602-.756-9.367-7.5zm-3.178 4.075l-.623.825 9.596 7.206.585-.775-9.558-7.256zm-3.062 4.144l-.599.837 9.778 6.956.563-.786-9.742-7.007zm-2.968 4.24l-.576.852 9.955 6.7.541-.8-9.92-6.751zm-2.85 4.306l-.555.868 10.126 6.44.522-.815-10.092-6.493zm-2.73 4.367l-.531.88 10.288 6.177.5-.828-10.256-6.23zm-2.628 4.458l-.51.895 10.446 5.906.479-.84-10.415-5.961zm-2.507 4.515l-.487.909 10.596 5.633.457-.854-10.566-5.688zm-2.384 4.57l-.464.922 10.739 5.356.435-.867-10.71-5.412zm-2.26 4.62l-.44.936 10.873 5.076.413-.879-10.847-5.133zm-2.13 4.653l-.415.946 11.001 4.794.39-.889-10.975-4.85zm-2.004 4.7l-.39.953 11.121 4.509.366-.896-11.097-4.567zm-1.901 4.795l-.365.965 11.234 4.217.343-.906-11.212-4.276zm-1.773 4.838l-.34.974 11.34 3.923.32-.915-11.32-3.982zm-1.65 4.896l-.315.982 11.439 3.626.295-.923-11.42-3.685zm-1.522 4.933l-.289.992 11.53 3.326.271-.932-11.512-3.386zm-1.391 4.969l-.263.996 11.613 3.025.246-.936-11.596-3.085zm-1.261 5l-.237 1.004 11.688 2.721.222-.942-11.673-2.782zm-1.13 5.032l-.21 1.01 11.754 2.416.197-.948-11.741-2.478zm-1 5.06l-.183 1.015 11.813 2.11.173-.954-11.802-2.171zm-.867 5.085l-.157 1.019 11.864 1.803.148-.958-11.855-1.864zm-.735 5.108l-.131 1.022 11.906 1.496.123-.961-11.898-1.557zm-.604 5.13l-.105 1.025 11.941 1.187.099-.964-11.935-1.249zm-.47 5.127l-.078 1.028 11.967.88.074-.966-11.963-.942zm-.34 5.165l-.052 1.03 11.987.572.049-.969-11.984-.633zm-.206 5.138l-.025 1.03 11.997.268.024-.97-11.996-.328zm-.076 5.17v.393h12v-.369l-12-.023z" transform="translate(-532 -231) translate(532 231)"></path><g transform="translate(-532 -231) translate(532 231) translate(116 120)"><mask id="hlpklnvede" fill="#fff"><use xlink:href="#51xm7w7c4c"></use></mask><circle cx="149.5" cy="148.5" r="132.5" fill="url(#69blmtaded)" mask="url(#hlpklnvede)" opacity=".686"></circle><g mask="url(#hlpklnvede)"><g fill="#FFF"><path d="M342.952 167.089L111.276 167.089 62.028 117.841 24.497 117.841 12.353 129.984 11.293 128.923 23.876 116.341 62.649 116.341 111.897 165.589 342.331 165.589 387.794 120.127 462.977 120.127 462.977 121.627 388.415 121.627z" transform="matrix(0 -1 -1 0 231.896 515.5)"></path><path d="M462.837 118.057c1.557 0 2.819 1.263 2.819 2.82s-1.262 2.82-2.82 2.82c-1.557 0-2.82-1.263-2.82-2.82s1.263-2.82 2.82-2.82M159.183 166.869L158.121 165.808 185.084 138.846 310.24 138.846 342.866 106.219 441.582 106.219 441.582 107.719 343.488 107.719 310.861 140.346 185.706 140.346z" transform="matrix(0 -1 -1 0 231.896 515.5)"></path><path d="M441.442 109.789c1.557 0 2.82-1.263 2.82-2.82s-1.263-2.82-2.82-2.82c-1.558 0-2.82 1.263-2.82 2.82s1.262 2.82 2.82 2.82M149.336 139.275L83.773 139.275 83.773 137.775 148.715 137.775 178.131 108.359 289.915 108.359 332.438 65.838 491.86 65.838 491.86 67.338 333.059 67.338 290.536 109.859 178.752 109.859z" transform="matrix(0 -1 -1 0 231.896 515.5)"></path><path d="M491.719 69.408c1.558 0 2.82-1.263 2.82-2.82s-1.262-2.82-2.82-2.82c-1.557 0-2.82 1.263-2.82 2.82s1.263 2.82 2.82 2.82M154.118 80.474L153.057 79.413 184.819 47.652 240.175 47.652 259.295 28.533 416.446 28.533 416.446 30.033 259.916 30.033 240.796 49.152 185.44 49.152z" transform="matrix(0 -1 -1 0 231.896 515.5)"></path><path d="M416.305 32.103c1.558 0 2.82-1.263 2.82-2.82s-1.262-2.82-2.82-2.82c-1.557 0-2.82 1.263-2.82 2.82s1.263 2.82 2.82 2.82M306.581 122.161L241.243 122.161 228.94 109.855 230.001 108.795 241.864 120.661 305.96 120.661 346.608 80.013 405.749 80.013 405.749 81.513 347.229 81.513z" transform="matrix(0 -1 -1 0 231.896 515.5)"></path><path d="M405.607 83.582c1.558 0 2.82-1.263 2.82-2.82s-1.262-2.82-2.82-2.82c-1.557 0-2.819 1.263-2.819 2.82s1.262 2.82 2.82 2.82M335.464 156.391L225.734 156.391 209.485 140.141 210.545 139.08 226.355 154.891 334.843 154.891 362.947 126.784 364.008 127.844z" transform="matrix(0 -1 -1 0 231.896 515.5)"></path><path d="M365.371 129.408c1.101-1.101 1.101-2.887 0-3.987-1.101-1.102-2.887-1.102-3.988 0-1.101 1.1-1.101 2.886 0 3.987 1.101 1.102 2.887 1.102 3.988 0M380.076 47.282L296.335 47.282 278.999 29.947 280.059 28.886 296.956 45.782 380.076 45.782z" transform="matrix(0 -1 -1 0 231.896 515.5)"></path><path d="M379.935 49.352c1.557 0 2.82-1.263 2.82-2.82s-1.263-2.82-2.82-2.82-2.82 1.263-2.82 2.82 1.263 2.82 2.82 2.82M389.169 66.852L388.108 65.791 400.095 53.805 464.582 53.805 464.582 55.305 400.716 55.305z" transform="matrix(0 -1 -1 0 231.896 515.5)"></path><path d="M464.441 57.375c1.557 0 2.82-1.263 2.82-2.82s-1.263-2.82-2.82-2.82c-1.558 0-2.82 1.263-2.82 2.82s1.262 2.82 2.82 2.82M485.027 110.552L470.694 96.22 376.293 96.22 361.365 81.292 362.425 80.232 376.914 94.72 471.315 94.72 486.088 109.491z" transform="matrix(0 -1 -1 0 231.896 515.5)"></path><path d="M483.464 111.917c1.102 1.1 2.887 1.1 3.988-.001 1.1-1.101 1.1-2.887-.001-3.987-1.1-1.102-2.886-1.102-3.987 0-1.102 1.1-1.101 2.886 0 3.988M437.226 25.713L427.906 16.394 324.546 16.394 310.24 2.088 249.084 2.088 225.505 25.669 224.445 24.609 248.464.588 310.861.588 325.166 14.894 428.527 14.894 438.288 24.652z" transform="matrix(0 -1 -1 0 231.896 515.5)"></path><path d="M435.663 27.077c1.101 1.1 2.887 1.1 3.987 0 1.102-1.102 1.101-2.887 0-3.988s-2.886-1.101-3.988 0c-1.101 1.1-1.101 2.887.001 3.988M337.283 131.46L319.778 131.46 319.778 129.96 336.662 129.96 351.556 115.065 377.444 115.065 377.444 116.565 352.178 116.565z" transform="matrix(0 -1 -1 0 231.896 515.5)"></path><path d="M377.303 118.635c1.557 0 2.82-1.263 2.82-2.82 0-1.556-1.263-2.82-2.82-2.82s-2.82 1.263-2.82 2.82c0 1.558 1.263 2.82 2.82 2.82M369.229 56.44L331.842 56.44 322.669 47.267 323.73 46.206 332.463 54.94 369.229 54.94z" transform="matrix(0 -1 -1 0 231.896 515.5)"></path><path d="M369.089 58.509c1.557 0 2.82-1.263 2.82-2.82s-1.263-2.82-2.82-2.82-2.82 1.263-2.82 2.82 1.263 2.82 2.82 2.82M386.676 153.035L356.796 153.035 356.796 151.535 386.055 151.535 402.319 135.271 434.284 135.271 434.284 136.771 402.94 136.771z" transform="matrix(0 -1 -1 0 231.896 515.5)"></path><path d="M434.144 138.841c1.556 0 2.818-1.263 2.818-2.82 0-1.556-1.262-2.82-2.818-2.82-1.558 0-2.82 1.263-2.82 2.82 0 1.558 1.262 2.82 2.82 2.82" transform="matrix(0 -1 -1 0 231.896 515.5)"></path></g></g></g><g transform="translate(-532 -231) translate(532 231) translate(200 221)"><path fill="#2B2B2B" style="mix-blend-mode:multiply" d="M-38.118 38.546L42.516 38.546 42.516 42.578 -38.118 42.578z" transform="matrix(0 1 1 0 -38.363 38.363)"></path><rect width="127.914" height="66.339" x=".191" y="8.796" fill="#FFF" rx="2.69" transform="matrix(1 0 0 -1 0 83.932)"></rect><rect width="127.914" height="66.339" x=".191" y="8.796" fill="url(#y7ozbup6rf)" rx="2.69" transform="matrix(1 0 0 -1 0 83.932)"></rect><g fill="#F1F1F1" transform="translate(31.704 20.404)"><rect width="24.19" height="43.249" rx="4.86" transform="rotate(-180 12.095 21.624)"></rect><rect width="19.792" height="19.425" x="34.819" rx="4.86" transform="matrix(1 0 0 -1 0 19.425)"></rect><rect width="19.792" height="19.425" x="63.407" rx="4.86" transform="matrix(1 0 0 -1 0 19.425)"></rect><rect width="19.792" height="19.425" x="34.819" y="23.824" rx="4.86" transform="matrix(1 0 0 -1 0 67.072)"></rect><rect width="19.792" height="19.425" x="63.407" y="23.824" rx="4.86" transform="matrix(1 0 0 -1 0 67.072)"></rect></g></g></g></g></g></svg> 