<?xml version="1.0" encoding="UTF-8"?> <svg xmlns="http://www.w3.org/2000/svg" xmlns:xlink="http://www.w3.org/1999/xlink" width="535px" height="303px" viewBox="0 0 535 303" version="1.1"><title>Supercharge Performance Diagram</title><defs><linearGradient x1="50%" y1="42.5529409%" x2="95.1600844%" y2="45.6488197%" id="linearGradient-1"><stop stop-color="#2492C3" offset="0%"></stop><stop stop-color="#6DD400" offset="100%"></stop></linearGradient><linearGradient x1="40.9334416%" y1="53.8768404%" x2="81.9500812%" y2="44.9729219%" id="linearGradient-2"><stop stop-color="#2492C3" offset="0%"></stop><stop stop-color="#6DD400" offset="100%"></stop></linearGradient><rect id="path-3" x="0" y="0" width="322" height="149"></rect><radialGradient cx="50%" cy="49.9465304%" fx="50%" fy="49.9465304%" r="55.9282521%" id="radialGradient-5"><stop stop-color="#FFFFFF" offset="0.0792176573%"></stop><stop stop-color="#2492C3" offset="100%"></stop></radialGradient><radialGradient cx="30.1049963%" cy="44.385832%" fx="30.1049963%" fy="44.385832%" r="112.121627%" gradientTransform="translate(0.301050,0.443858),scale(0.518625,1.000000),translate(-0.301050,-0.443858)" id="radialGradient-6"><stop stop-color="#5F758B" offset="0%"></stop><stop stop-color="#363D45" offset="99.9672203%"></stop></radialGradient></defs><g id="Homepage-overview" stroke="none" stroke-width="1" fill="none" fill-rule="evenodd"><g id="Supercharged-Performance" transform="translate(-532.000000, -231.000000)"><g id="Supercharge-Performance-Diagram" transform="translate(532.000000, 231.000000)"><path d="M183.329102,43 C185.913086,43 187.89209,42.345459 189.266113,41.036377 C190.640137,39.7272949 191.327148,37.8354492 191.327148,35.3608398 C191.327148,33.0297852 190.664062,31.2216797 189.337891,29.9365234 C188.011719,28.6513672 186.155762,28.0087891 183.77002,28.0087891 L183.77002,28.0087891 L179.135254,28.0087891 L179.135254,43 L183.329102,43 Z M183.329102,40.9389648 L181.585938,40.9389648 L181.585938,30.0595703 L183.708496,30.0595703 C187.064941,30.0595703 188.743164,31.8540039 188.743164,35.4428711 C188.743164,39.1069336 186.938477,40.9389648 183.329102,40.9389648 L183.329102,40.9389648 Z M196.997559,43 L196.997559,28.0087891 L194.546875,28.0087891 L194.546875,43 L196.997559,43 Z M201.560547,43 L203.026855,38.8369141 L208.758789,38.8369141 L210.255859,43 L212.860352,43 L207.251465,27.9472656 L204.585449,27.9472656 L198.976562,43 L201.560547,43 Z M208.112793,36.7246094 L203.744629,36.7246094 L205.098145,32.8178711 C205.453613,31.8198242 205.723633,30.9003906 205.908203,30.0595703 C205.976562,30.3330078 206.101318,30.7636719 206.282471,31.3515625 C206.463623,31.9394531 206.605469,32.3701172 206.708008,32.6435547 L206.708008,32.6435547 L208.112793,36.7246094 Z M217.064453,43 L217.064453,35.7094727 C217.064453,34.0825195 217.006348,32.3393555 216.890137,30.4799805 L216.890137,30.4799805 L216.972168,30.4799805 L221.319824,43 L223.483398,43 L227.984863,30.5004883 L228.066895,30.5004883 C228.039551,30.753418 228.00708,31.4780273 227.969482,32.6743164 C227.931885,33.8706055 227.913086,34.8413086 227.913086,35.5864258 L227.913086,43 L230.271484,43 L230.271484,28.0087891 L226.805664,28.0087891 L222.519531,39.934082 L222.458008,39.934082 L218.294922,28.0087891 L214.839355,28.0087891 L214.839355,43 L217.064453,43 Z M234.824219,43 L236.290527,38.8369141 L242.022461,38.8369141 L243.519531,43 L246.124023,43 L240.515137,27.9472656 L237.849121,27.9472656 L232.240234,43 L234.824219,43 Z M241.376465,36.7246094 L237.008301,36.7246094 L238.361816,32.8178711 C238.717285,31.8198242 238.987305,30.9003906 239.171875,30.0595703 C239.240234,30.3330078 239.36499,30.7636719 239.546143,31.3515625 L239.612232,31.5646515 C239.762142,32.0446625 239.881958,32.4042969 239.97168,32.6435547 L239.97168,32.6435547 L241.376465,36.7246094 Z M250.328125,43 L250.328125,35.2070312 C250.328125,34.1542969 250.280273,32.9921875 250.18457,31.7207031 L250.18457,31.7207031 L250.133301,31.0541992 L250.215332,31.0541992 L257.587891,43 L260.592285,43 L260.592285,28.0087891 L258.34668,28.0087891 L258.34668,35.8632812 C258.34668,36.4169922 258.367188,37.1877441 258.408203,38.1755371 C258.449219,39.1633301 258.476562,39.7358398 258.490234,39.8930664 L258.490234,39.8930664 L258.428711,39.8930664 L251.07666,28.0087891 L248.103027,28.0087891 L248.103027,43 L250.328125,43 Z M269.728516,43 L269.728516,30.1108398 L274.137695,30.1108398 L274.137695,28.0087891 L262.868652,28.0087891 L262.868652,30.1108398 L267.277832,30.1108398 L267.277832,43 L269.728516,43 Z M278.885254,43 L278.885254,28.0087891 L276.43457,28.0087891 L276.43457,43 L278.885254,43 Z M294.050781,43.2050781 C295.301758,43.2050781 296.376709,42.9812012 297.275635,42.5334473 C298.174561,42.0856934 298.861572,41.4465332 299.33667,40.6159668 C299.811768,39.7854004 300.049316,38.8164062 300.049316,37.7089844 L300.049316,37.7089844 L300.049316,28.0087891 L297.598633,28.0087891 L297.598633,37.4731445 C297.598633,39.8999023 296.443359,41.1132812 294.132812,41.1132812 C292.943359,41.1132812 292.061523,40.8193359 291.487305,40.2314453 C290.913086,39.6435547 290.625977,38.730957 290.625977,37.4936523 L290.625977,37.4936523 L290.625977,28.0087891 L288.165039,28.0087891 L288.165039,37.6679688 C288.165039,39.390625 288.681152,40.7441406 289.713379,41.7285156 C290.745605,42.7128906 292.191406,43.2050781 294.050781,43.2050781 Z M312.682129,43 L312.682129,40.8979492 L306.334961,40.8979492 L306.334961,28.0087891 L303.884277,28.0087891 L303.884277,43 L312.682129,43 Z M320.444336,43 L320.444336,30.1108398 L324.853516,30.1108398 L324.853516,28.0087891 L313.584473,28.0087891 L313.584473,30.1108398 L317.993652,30.1108398 L317.993652,43 L320.444336,43 Z M329.601074,43 L329.601074,28.0087891 L327.150391,28.0087891 L327.150391,43 L329.601074,43 Z M335.78418,43 L335.78418,35.7094727 C335.78418,34.0825195 335.726074,32.3393555 335.609863,30.4799805 L335.609863,30.4799805 L335.691895,30.4799805 L340.039551,43 L342.203125,43 L346.70459,30.5004883 L346.786621,30.5004883 C346.759277,30.753418 346.726807,31.4780273 346.689209,32.6743164 C346.651611,33.8706055 346.632812,34.8413086 346.632812,35.5864258 L346.632812,35.5864258 L346.632812,43 L348.991211,43 L348.991211,28.0087891 L345.525391,28.0087891 L341.239258,39.934082 L341.177734,39.934082 L337.014648,28.0087891 L333.559082,28.0087891 L333.559082,43 L335.78418,43 Z M353.543945,43 L355.010254,38.8369141 L360.742188,38.8369141 L362.239258,43 L364.84375,43 L359.234863,27.9472656 L356.568848,27.9472656 L350.959961,43 L353.543945,43 Z M360.096191,36.7246094 L355.728027,36.7246094 L357.081543,32.8178711 C357.437012,31.8198242 357.707031,30.9003906 357.891602,30.0595703 C357.959961,30.3330078 358.084717,30.7636719 358.265869,31.3515625 C358.447021,31.9394531 358.588867,32.3701172 358.691406,32.6435547 L358.691406,32.6435547 L360.096191,36.7246094 Z" id="DIAMANTIULTIMA" fill="#024F71" fill-rule="nonzero"></path><g id="Oval-Copy-3" transform="translate(92.435877, 96.658868)" fill="url(#linearGradient-1)" fill-rule="nonzero"><path d="M294.256294,50.6880656 C327.369671,83.8014421 344.715218,127.786657 344.76433,172.34175 L305.369692,172.34121 C305.343963,137.977508 291.971439,104.052987 266.431406,78.5129536 C214.624676,26.7062239 130.724098,26.6114976 79.0342191,78.3013765 C53.4690628,103.866533 40.1802071,137.889181 40.3084047,172.341552 L0.913765215,172.341046 C0.763178675,127.670719 18.0002507,83.5597663 51.1464298,50.4135872 C118.20357,-16.6435529 227.047564,-16.5206648 294.256294,50.6880656 Z" id="Combined-Shape"></path></g><path d="M465,268.5 L464.99737,267.464957 L452.997525,267.525953 L453,268.5 L465,268.5 Z M464.934961,263.357019 L464.906187,262.324586 L452.911736,262.689477 L452.938805,263.660749 L464.934961,263.357019 Z M464.738339,258.195754 L464.683345,257.16716 L452.702135,257.838446 L452.753857,258.805821 L464.738339,258.195754 Z M464.410198,253.048472 L464.329117,252.024814 L452.369046,253.002914 L452.445281,253.965399 L464.410198,253.048472 Z M463.95064,247.917312 L463.843668,246.899681 L451.91267,248.184708 L452.013227,249.141313 L463.95064,247.917312 Z M463.357305,242.785009 L463.222212,241.756717 L451.328552,243.350723 L451.45552,244.317166 L463.357305,242.785009 Z M462.634889,237.692811 L462.474073,236.67316 L450.625481,238.573391 L450.776601,239.531561 L462.634889,237.692811 Z M461.778126,232.604254 L461.591892,231.594415 L449.796559,233.801248 L449.971542,234.750077 L461.778126,232.604254 Z M460.78979,227.541085 L460.575057,226.525619 L448.841216,229.038981 L449.042956,229.993002 L460.78979,227.541085 Z M447.986972,225.244768 L459.665757,222.486875 L459.426149,221.483891 L447.761879,224.302544 C447.837719,224.616387 447.91275,224.930462 447.986972,225.244768 Z M458.414768,217.481723 L458.150948,216.492144 L446.563966,219.613338 L446.811792,220.542924 L458.414768,217.481723 Z M457.038619,212.527484 L456.746801,211.537103 L445.24497,214.958781 L445.519088,215.889094 L457.038619,212.527484 Z M455.533285,207.607814 L455.218365,206.633186 L443.809244,210.352319 L444.105061,211.267828 L455.533285,207.607814 Z M453.892933,202.707196 L453.550569,201.735228 L442.242607,205.751445 L442.564206,206.664463 L453.892933,202.707196 Z M452.130154,197.864301 L451.760737,196.896748 L440.561306,201.20636 L440.908327,202.115252 L452.130154,197.864301 Z M450.239642,193.063475 L449.849098,192.115423 L438.765529,196.714826 L439.132408,197.605432 L450.239642,193.063475 Z M448.221952,188.307292 L447.805525,187.366846 L436.845734,192.253868 L437.236946,193.137369 L448.221952,188.307292 Z M446.077675,183.598361 L445.635987,182.6673 L434.807501,187.838749 L435.222466,188.713479 L446.077675,183.598361 Z M443.815907,178.956147 L443.349727,178.036083 L432.659489,183.487578 L433.097489,184.352027 L443.815907,178.956147 Z M441.438569,174.382573 L440.948755,173.475072 L430.403565,179.202108 L430.863799,180.054806 L441.438569,174.382573 Z M438.938287,169.863253 L438.425745,168.969962 L428.032827,174.9689 L428.514447,175.808298 L438.938287,169.863253 Z M436.31576,165.400907 L435.781495,164.523427 L425.548012,170.790471 L426.050077,171.615063 L436.31576,165.400907 Z M433.602039,161.045563 L433.040709,160.174984 L422.972328,166.703974 L423.499857,167.522129 L433.602039,161.045563 Z M430.79093,156.781999 L430.210178,155.930012 L420.312155,162.71449 L420.857966,163.515216 L430.79093,156.781999 Z M427.841992,152.550503 L427.236391,151.70964 L417.517205,158.747923 L418.086398,159.538233 L427.841992,152.550503 Z M424.776218,148.385407 L424.153724,147.566636 L414.619792,154.853896 L415.204887,155.623474 L424.776218,148.385407 Z M421.617696,144.31873 L420.973071,143.51474 L411.630171,151.045358 L412.236086,151.80107 L421.617696,144.31873 Z M418.345496,140.322957 L417.680247,139.53581 L408.535025,147.305296 L409.160343,148.045195 L418.345496,140.322957 Z M414.97284,136.414936 L414.288591,135.646453 L405.346919,143.649359 L405.990106,144.371725 L414.97284,136.414936 Z M411.501686,132.596625 L410.793503,131.841456 L402.061557,140.072684 L402.727245,140.782539 L411.501686,132.596625 Z M407.933992,128.869984 L407.210422,128.137221 L398.693485,136.590728 L399.373634,137.279518 L407.933992,128.869984 Z M404.271714,125.236975 L403.528139,124.521837 L395.232203,133.192331 L395.931146,133.864543 L404.271714,125.236975 Z M400.516807,121.69956 L399.755414,121.004204 L391.685986,129.88589 L392.401658,130.53949 L400.516807,121.69956 Z M396.671224,118.259703 L395.894335,117.586144 L388.056837,126.673147 L388.787048,127.306237 L396.671224,118.259703 Z M392.736918,114.919371 L391.940672,114.264312 L384.340822,123.550984 L385.089193,124.166657 L392.736918,114.919371 Z M388.715842,111.680531 L387.903037,111.046397 L380.546079,120.526649 L381.309971,121.122622 L388.715842,111.680531 Z M384.609949,108.545157 L383.783538,107.934183 L376.674631,117.601832 L377.45126,118.176002 L384.609949,108.545157 Z M380.421192,105.515222 L379.578354,104.925322 L372.722924,114.774336 L373.514935,115.328663 L380.421192,105.515222 Z M376.167085,102.603058 L375.30551,102.032749 L368.707934,112.056321 L369.517491,112.592197 L376.167085,102.603058 Z M371.818753,99.789538 L370.942568,99.2418647 L364.608608,109.434066 L365.431826,109.948631 L371.818753,99.789538 Z M367.409538,97.0969432 L366.522884,96.5743211 L360.456312,106.927906 L361.289297,107.418893 L367.409538,97.0969432 Z M362.942202,94.5260264 L362.038885,94.0247897 L356.243948,104.53282 L357.092515,105.003677 L362.942202,94.5260264 Z M358.386197,92.0600518 L357.471712,91.5834884 L351.953808,102.239601 L352.812795,102.687243 L358.386197,92.0600518 Z M353.810249,89.7354486 L352.88493,89.2833961 L347.645603,100.079203 L348.514695,100.503787 L353.810249,89.7354486 Z M349.167115,87.5267026 L348.227905,87.0978057 L343.271758,98.026511 L344.153831,98.4293162 L349.167115,87.5267026 Z M344.528145,85.4655024 L343.577242,85.0605214 L338.904194,96.1132417 L339.79719,96.4935605 L344.528145,85.4655024 Z M339.75726,83.4924374 L338.799235,83.1137603 L334.417315,94.2850978 L335.316947,94.6406938 L339.75726,83.4924374 Z M334.94269,81.6474957 L333.974417,81.2938068 L329.886708,92.5761219 L330.795922,92.9082377 L334.94269,81.6474957 Z M330.068974,79.9251231 L329.09008,79.5964485 L325.30038,90.9823246 L326.219538,91.2909423 L330.068974,79.9251231 Z M325.174477,78.3385025 L324.186727,78.0353745 L320.696291,89.5165268 L321.623753,89.801153 L325.174477,78.3385025 Z M320.207021,76.8711882 L319.212613,76.5944565 L316.025768,88.163554 L316.959487,88.4233968 L320.207021,76.8711882 Z M315.223773,75.5405738 L314.22196,75.289894 L311.339621,86.9385904 L312.280321,87.1739779 L315.223773,75.5405738 Z M310.20894,74.3414299 L309.202096,74.1173457 L306.625843,85.8375385 L307.571317,86.0479642 L310.20894,74.3414299 Z M305.164928,73.2741354 L304.152686,73.0765008 L301.883989,84.8600917 L302.834609,85.0456949 L305.164928,73.2741354 Z M300.074957,72.3357586 L299.057599,72.1647005 L297.098772,84.0037459 L298.054301,84.1644082 L300.074957,72.3357586 Z M294.979493,71.5336334 L293.959146,71.389337 L292.309778,83.2754458 L293.268249,83.4109919 L294.979493,71.5336334 Z M289.861854,70.8642658 L288.837299,70.7465044 L287.498036,82.6715359 L288.460628,82.7821753 L289.861854,70.8642658 Z M284.724303,70.3278785 L283.697491,70.2368244 L282.66848,82.1926237 L283.633395,82.278189 L284.724303,70.3278785 Z M279.588808,69.9259431 L278.56002,69.8614405 L277.840012,81.8398205 L278.807018,81.9004496 L279.588808,69.9259431 Z M274.438077,69.6563033 L273.408159,69.6183236 L272.996728,81.6112684 L273.965069,81.6469773 L274.438077,69.6563033 Z M269.27424,69.5190506 L268.243646,69.5075226 L268.140073,81.5070756 L269.10936,81.5179178 L269.27424,69.5190506 Z M264.125829,69.5139501 L263.103473,69.5285625 L263.305402,81.5268634 L264.266902,81.5131209 L264.125829,69.5139501 Z M258.959526,69.6410135 L257.920856,69.682619 L258.432221,81.6717185 L259.408756,81.6326019 L258.959526,69.6410135 Z M253.825942,69.8992982 L252.791806,69.9673483 L253.610816,81.9393667 L254.582819,81.8754051 L253.825942,69.8992982 Z M248.66794,70.2924632 L247.63962,70.3869739 L248.768893,82.33372 L249.735198,82.244909 L248.66794,70.2924632 Z M243.546951,70.8166311 L242.525445,70.9372694 L243.963743,82.8507617 L244.923449,82.737422 L243.546951,70.8166311 Z M238.406783,71.4783691 L237.39337,71.6250147 L239.142659,83.4968295 L240.094599,83.3590794 L238.406783,71.4783691 Z M233.327274,72.2674744 L232.305676,72.4425785 L234.363985,84.2647343 L235.323482,84.1002743 L233.327274,72.2674744 Z M228.252758,73.1919182 L227.241754,73.3925366 L229.6082,85.1568865 L230.557648,84.9684833 L228.252758,73.1919182 Z M223.204889,74.2486574 L222.205529,74.4742956 L224.878848,86.1727301 L225.817287,85.9608468 L223.204889,74.2486574 Z M218.167399,75.4420274 L217.165058,75.696253 L220.145797,87.3201593 L221.086987,87.0814434 L218.167399,75.4420274 Z M213.180149,76.7627747 L212.191975,77.0411718 L215.47619,88.5830058 L216.404054,88.3215997 L213.180149,76.7627747 Z M208.263256,78.203467 L207.275179,78.5098641 L210.859494,89.9620555 L211.787263,89.6743595 L208.263256,78.203467 Z M203.345794,79.7851619 L202.374324,80.1145984 L206.257729,91.4688558 L207.169919,91.1595219 L203.345794,79.7851619 Z M198.467163,81.4970834 L197.499345,81.8539246 L201.680143,93.1020768 L202.588933,92.7669995 L198.467163,81.4970834 Z M193.647518,83.3317341 L192.685093,83.7155323 L197.159391,94.8501925 L198.06316,94.4897853 L193.647518,83.3317341 Z M188.871379,85.2946312 L187.929152,85.6992821 L192.693151,96.7131059 L193.578005,96.3330942 L188.871379,85.2946312 Z M184.141341,87.3851885 L183.207664,87.8155174 L188.258976,98.7005643 L189.135862,98.2964104 L184.141341,87.3851885 Z M179.476942,89.5945052 L178.553447,90.0497854 L183.887657,100.799027 L184.755046,100.371407 L179.476942,89.5945052 Z M174.880103,91.9206493 L173.968374,92.4000645 L179.580938,103.006625 L180.437345,102.5563 L174.880103,91.9206493 Z M170.319952,94.3799261 L169.42179,94.8826479 L175.310018,105.338688 L176.153752,104.866431 L170.319952,94.3799261 Z M165.848372,96.9442828 L164.965136,97.4692735 L171.12322,107.768691 L171.953003,107.275472 L165.848372,96.9442828 Z M161.45064,99.6204742 L160.573521,100.173146 L166.997178,110.309054 L167.821282,109.789786 L161.45064,99.6204742 Z M157.144253,102.396228 L156.28517,102.968994 L162.967828,112.936043 L163.775051,112.397854 L157.144253,102.396228 Z M152.8844,105.300588 L152.044943,105.892244 L158.983388,115.682953 L159.77223,115.126971 L152.8844,105.300588 Z M148.704732,108.311732 L147.877222,108.927628 L155.066797,118.535437 L155.844466,117.956637 L148.704732,108.311732 Z M144.592488,111.439182 L143.779108,112.077982 L151.215368,121.496158 L151.979805,120.895796 L144.592488,111.439182 Z M140.564913,114.670247 L139.767618,115.330478 L147.445129,124.553049 L148.194491,123.932511 L140.564913,114.670247 Z M136.623961,118.002954 L135.84461,118.683033 L143.757873,127.704135 L144.490402,127.064913 L136.623961,118.002954 Z M132.771583,121.435334 L132.011941,122.133568 L140.155386,130.947438 L140.869415,130.29113 L132.771583,121.435334 Z M129.009733,124.965422 L128.271462,125.680011 L136.639449,134.280987 L137.333408,133.609289 L129.009733,124.965422 Z M125.340365,128.591253 L124.618564,129.326913 L133.205772,137.709028 L133.884259,137.017513 L125.340365,128.591253 Z M121.765432,132.310864 L121.06232,133.065468 L129.862922,141.223249 L130.523844,140.513925 L121.765432,132.310864 Z M118.28689,136.122294 L117.604546,136.893579 L126.612642,144.821644 L127.254038,144.096644 L118.28689,136.122294 Z M114.906698,140.023583 L114.24173,140.815533 L123.451661,148.508203 L124.076713,147.763791 L114.906698,140.023583 Z M111.626814,144.012771 L110.986691,144.816386 L120.392058,152.26884 L120.99374,151.513484 L111.626814,144.012771 Z M108.449201,148.0879 L107.826309,148.91282 L117.421522,156.119198 L118.006989,155.343842 L108.449201,148.0879 Z M105.38673,152.231844 L104.78799,153.068831 L114.565833,160.025395 L115.128573,159.238733 L105.38673,152.231844 Z M102.419171,156.472679 L101.84273,157.324343 L111.797739,164.024925 L112.339493,163.224508 L102.419171,156.472679 Z M99.5699041,160.777835 L99.014322,161.646327 L109.13961,168.086711 L109.661732,167.270524 L99.5699041,160.777835 Z M96.8397052,165.144517 L96.3075335,166.025802 L106.595926,172.202288 L107.096018,171.374127 L96.8397052,165.144517 Z M94.2106672,169.60254 L93.7014926,170.497552 L104.147068,176.404323 L104.62552,175.563315 L94.2106672,169.60254 Z M91.7037838,174.117665 L91.2173997,175.026791 L101.812949,180.660114 L102.269957,179.805897 L91.7037838,174.117665 Z M89.3197573,178.687171 L88.8564269,179.610022 L99.5946541,184.966371 L100.029974,184.099311 L89.3197573,178.687171 Z M87.0592547,183.308379 L86.6196272,184.243746 L97.4931526,189.319812 L97.9061787,188.441043 L87.0592547,183.308379 Z M84.9305479,187.961359 L84.5153891,188.907345 L95.5163017,193.701083 L95.9063194,192.812384 L84.9305479,187.961359 Z M82.9257268,192.660337 L82.5361965,193.614014 L93.6570142,198.122607 L94.0229394,197.226722 L82.9257268,192.660337 Z M81.0250311,197.455998 L80.6599278,198.420975 L91.894483,202.638174 L92.2374497,201.731705 L81.0250311,197.455998 Z M79.2519477,202.293907 L78.9120936,203.268062 L90.2526454,207.191311 L90.5718868,206.276241 L79.2519477,202.293907 Z M77.6011326,207.1897 L77.2868368,208.172385 L88.7259718,211.798153 L89.0212029,210.875076 L77.6011326,207.1897 Z M76.0798522,212.123111 L75.7910588,213.114514 L87.3209188,216.440522 L87.5921973,215.509246 L76.0798522,212.123111 Z M74.6885687,217.091656 L74.4262018,218.088397 L86.0388181,221.112821 L86.2852802,220.176503 L74.6885687,217.091656 Z M73.4277073,222.092884 L73.1913934,223.096096 L84.8788307,225.81709 L85.1008308,224.874644 L73.4277073,222.092884 Z M72.2976553,227.124384 L72.0874438,228.133764 L83.8417044,230.549826 L84.0391982,229.601513 L72.2976553,227.124384 Z M71.2987621,232.183776 L71.1146406,233.199411 L82.9277021,235.309287 L83.1007021,234.355 L71.2987621,232.183776 Z M70.4313388,237.268721 L70.273737,238.288034 L82.1375325,240.090909 L82.2856342,239.133039 L70.4313388,237.268721 Z M69.6956584,242.376911 L69.5645739,243.399377 L81.471056,244.894597 L81.5942588,243.933609 L69.6956584,242.376911 Z M69.0919551,247.506077 L68.9872684,248.53223 L80.9284026,249.719375 L81.0268139,248.754735 L69.0919551,247.506077 Z M68.6219755,252.634265 L68.5437197,253.662131 L80.5113891,254.542409 L80.5849705,253.575939 L68.6219755,252.634265 Z M68.2822715,257.798581 L68.2304666,258.82809 L80.2168042,259.40055 L80.2655275,258.43228 L68.2822715,257.798581 Z M68.0761008,262.937323 L68.050501,263.967584 L80.0475171,264.235172 L80.0716013,263.265908 L68.0761008,262.937323 Z M68.0003773,268.107949 L68,268.5 L80,268.5 L80.000355,268.131045 L68.0003773,268.107949 Z" id="Oval" fill="url(#linearGradient-2)" fill-rule="nonzero"></path><g id="Ultima:-blue-Oval" transform="translate(116.000000, 120.000000)"><mask id="mask-4" fill="white"><use xlink:href="#path-3"></use></mask><g id="Mask"></g><circle id="Oval" fill="url(#radialGradient-5)" opacity="0.686104911" mask="url(#mask-4)" cx="149.5" cy="148.5" r="132.5"></circle><g id="circuits" mask="url(#mask-4)"><g transform="translate(132.000000, 269.000000) scale(-1, 1) rotate(-90.000000) translate(-132.000000, -269.000000) translate(-116.500000, 168.500000)" id="Group-116"><g transform="translate(2.000000, 0.604000)"><polygon id="Fill-6" fill="#FFFFFF" points="342.9521 167.0886 111.2761 167.0886 62.0281 117.8406 24.4971 117.8406 12.3531 129.9836 11.2931 128.9226 23.8761 116.3406 62.6491 116.3406 111.8971 165.5886 342.3311 165.5886 387.7941 120.1266 462.9771 120.1266 462.9771 121.6266 388.4151 121.6266"></polygon><path d="M462.8368,118.0573 C464.3938,118.0573 465.6558,119.3203 465.6558,120.8763 C465.6558,122.4343 464.3938,123.6973 462.8368,123.6973 C461.2788,123.6973 460.0168,122.4343 460.0168,120.8763 C460.0168,119.3203 461.2788,118.0573 462.8368,118.0573" id="Fill-8" fill="#FFFFFF"></path><polygon id="Fill-12" fill="#FFFFFF" points="159.1825 166.8689 158.1215 165.8079 185.0845 138.8459 310.2405 138.8459 342.8665 106.2189 441.5825 106.2189 441.5825 107.7189 343.4875 107.7189 310.8615 140.3459 185.7055 140.3459"></polygon><path d="M441.4423,109.7888 C442.9993,109.7888 444.2613,108.5258 444.2613,106.9688 C444.2613,105.4118 442.9993,104.1488 441.4423,104.1488 C439.8843,104.1488 438.6223,105.4118 438.6223,106.9688 C438.6223,108.5258 439.8843,109.7888 441.4423,109.7888" id="Fill-14" fill="#FFFFFF"></path><polygon id="Fill-16" fill="#FFFFFF" points="149.3359 139.2751 83.7729 139.2751 83.7729 137.7751 148.7149 137.7751 178.1309 108.3591 289.9149 108.3591 332.4379 65.8381 491.8599 65.8381 491.8599 67.3381 333.0589 67.3381 290.5359 109.8591 178.7519 109.8591"></polygon><path d="M491.7187,69.4079 C493.2767,69.4079 494.5387,68.1449 494.5387,66.5879 C494.5387,65.0309 493.2767,63.7679 491.7187,63.7679 C490.1617,63.7679 488.8997,65.0309 488.8997,66.5879 C488.8997,68.1449 490.1617,69.4079 491.7187,69.4079" id="Fill-18" fill="#FFFFFF"></path><polygon id="Fill-24" fill="#FFFFFF" points="154.1181 80.4738 153.0571 79.4128 184.8191 47.6518 240.1751 47.6518 259.2951 28.5328 416.4461 28.5328 416.4461 30.0328 259.9161 30.0328 240.7961 49.1518 185.4401 49.1518"></polygon><path d="M416.3046,32.1027 C417.8626,32.1027 419.1246,30.8397 419.1246,29.2827 C419.1246,27.7257 417.8626,26.4627 416.3046,26.4627 C414.7476,26.4627 413.4856,27.7257 413.4856,29.2827 C413.4856,30.8397 414.7476,32.1027 416.3046,32.1027" id="Fill-26" fill="#FFFFFF"></path><polygon id="Fill-36" fill="#FFFFFF" points="306.581 122.1608 241.243 122.1608 228.94 109.8548 230.001 108.7948 241.864 120.6608 305.96 120.6608 346.608 80.0128 405.749 80.0128 405.749 81.5128 347.229 81.5128"></polygon><path d="M405.6073,83.5822 C407.1653,83.5822 408.4273,82.3192 408.4273,80.7622 C408.4273,79.2052 407.1653,77.9422 405.6073,77.9422 C404.0503,77.9422 402.7883,79.2052 402.7883,80.7622 C402.7883,82.3192 404.0503,83.5822 405.6073,83.5822" id="Fill-38" fill="#FFFFFF"></path><polygon id="Fill-40" fill="#FFFFFF" points="335.4638 156.3913 225.7338 156.3913 209.4848 140.1413 210.5448 139.0803 226.3548 154.8913 334.8428 154.8913 362.9468 126.7843 364.0078 127.8443"></polygon><path d="M365.371,129.4079 C366.472,128.3069 366.472,126.5209 365.371,125.4209 C364.27,124.3189 362.484,124.3189 361.383,125.4209 C360.282,126.5209 360.282,128.3069 361.383,129.4079 C362.484,130.5099 364.27,130.5099 365.371,129.4079" id="Fill-42" fill="#FFFFFF"></path><polygon id="Fill-44" fill="#FFFFFF" points="380.0761 47.2819 296.3351 47.2819 278.9991 29.9469 280.0591 28.8859 296.9561 45.7819 380.0761 45.7819"></polygon><path d="M379.935,49.3518 C381.492,49.3518 382.755,48.0888 382.755,46.5318 C382.755,44.9748 381.492,43.7118 379.935,43.7118 C378.378,43.7118 377.115,44.9748 377.115,46.5318 C377.115,48.0888 378.378,49.3518 379.935,49.3518" id="Fill-46" fill="#FFFFFF"></path><polygon id="Fill-48" fill="#FFFFFF" points="389.1689 66.8518 388.1079 65.7908 400.0949 53.8048 464.5819 53.8048 464.5819 55.3048 400.7159 55.3048"></polygon><path d="M464.4413,57.3747 C465.9983,57.3747 467.2603,56.1117 467.2603,54.5547 C467.2603,52.9977 465.9983,51.7347 464.4413,51.7347 C462.8833,51.7347 461.6213,52.9977 461.6213,54.5547 C461.6213,56.1117 462.8833,57.3747 464.4413,57.3747" id="Fill-50" fill="#FFFFFF"></path><polygon id="Fill-56" fill="#FFFFFF" points="485.0273 110.5524 470.6943 96.2204 376.2933 96.2204 361.3653 81.2924 362.4253 80.2324 376.9143 94.7204 471.3153 94.7204 486.0883 109.4914"></polygon><path d="M483.4638,111.9167 C484.5658,113.0177 486.3508,113.0177 487.4518,111.9157 C488.5528,110.8147 488.5528,109.0287 487.4508,107.9287 C486.3508,106.8267 484.5648,106.8267 483.4638,107.9287 C482.3618,109.0297 482.3628,110.8147 483.4638,111.9167" id="Fill-58" fill="#FFFFFF"></path><polygon id="Fill-79" fill="#FFFFFF" points="437.2265 25.7131 427.9065 16.3941 324.5455 16.3941 310.2405 2.0881 249.0845 2.0881 225.5045 25.6691 224.4445 24.6091 248.4635 0.5881 310.8615 0.5881 325.1665 14.8941 428.5275 14.8941 438.2875 24.6521"></polygon><path d="M435.663,27.0769 C436.764,28.1779 438.55,28.1779 439.65,27.0769 C440.752,25.9749 440.751,24.1899 439.65,23.0889 C438.549,21.9879 436.764,21.9879 435.662,23.0889 C434.561,24.1899 434.561,25.9759 435.663,27.0769" id="Fill-81" fill="#FFFFFF"></path><polygon id="Fill-98" fill="#FFFFFF" points="337.2831 131.4597 319.7781 131.4597 319.7781 129.9597 336.6621 129.9597 351.5561 115.0647 377.4441 115.0647 377.4441 116.5647 352.1781 116.5647"></polygon><path d="M377.3026,118.6355 C378.8596,118.6355 380.1226,117.3725 380.1226,115.8155 C380.1226,114.2585 378.8596,112.9955 377.3026,112.9955 C375.7456,112.9955 374.4826,114.2585 374.4826,115.8155 C374.4826,117.3725 375.7456,118.6355 377.3026,118.6355" id="Fill-99" fill="#FFFFFF"></path><polygon id="Fill-100" fill="#FFFFFF" points="369.2294 56.4397 331.8424 56.4397 322.6694 47.2667 323.7304 46.2057 332.4634 54.9397 369.2294 54.9397"></polygon><path d="M369.0888,58.509 C370.6458,58.509 371.9088,57.246 371.9088,55.689 C371.9088,54.132 370.6458,52.869 369.0888,52.869 C367.5318,52.869 366.2688,54.132 366.2688,55.689 C366.2688,57.246 367.5318,58.509 369.0888,58.509" id="Fill-101" fill="#FFFFFF"></path><polygon id="Fill-106" fill="#FFFFFF" points="386.6757 153.0349 356.7957 153.0349 356.7957 151.5349 386.0547 151.5349 402.3187 135.2709 434.2837 135.2709 434.2837 136.7709 402.9397 136.7709"></polygon><path d="M434.1435,138.8415 C435.7005,138.8415 436.9625,137.5785 436.9625,136.0215 C436.9625,134.4645 435.7005,133.2015 434.1435,133.2015 C432.5855,133.2015 431.3235,134.4645 431.3235,136.0215 C431.3235,137.5785 432.5855,138.8415 434.1435,138.8415" id="Fill-107" fill="#FFFFFF"></path></g></g></g></g><g id="chip" transform="translate(200.000000, 221.000000)"><polygon id="Rectangle" fill="#2B2B2B" style="mix-blend-mode: multiply;" transform="translate(2.199095, 40.562109) scale(-1, 1) rotate(90.000000) translate(-2.199095, -40.562109) " points="-38.1176471 38.5462714 42.5158371 38.5462714 42.5158371 42.5779456 -38.1176471 42.5779456"></polygon><rect id="Rectangle" fill="#FFFFFF" transform="translate(64.147676, 41.966063) scale(-1, 1) rotate(180.000000) translate(-64.147676, -41.966063) " x="0.190662279" y="8.79638009" width="127.914027" height="66.3393665" rx="2.69042006"></rect><rect id="Rectangle" fill="url(#radialGradient-6)" transform="translate(64.147676, 41.966063) scale(-1, 1) rotate(180.000000) translate(-64.147676, -41.966063) " x="0.190662279" y="8.79638009" width="127.914027" height="66.3393665" rx="2.69042006"></rect><g id="Group-32" transform="translate(31.703620, 20.403737)" fill="#F1F1F1"><rect id="Rectangle-Copy-27" transform="translate(12.095023, 21.624434) rotate(-180.000000) translate(-12.095023, -21.624434) " x="0" y="0" width="24.1900452" height="43.2488688" rx="4.86"></rect><rect id="Rectangle-Copy-28" transform="translate(44.714932, 9.712670) scale(-1, 1) rotate(180.000000) translate(-44.714932, -9.712670) " x="34.8190045" y="0" width="19.7918552" height="19.4253394" rx="4.86"></rect><rect id="Rectangle-Copy-37" transform="translate(73.303167, 9.712670) scale(-1, 1) rotate(180.000000) translate(-73.303167, -9.712670) " x="63.4072398" y="0" width="19.7918552" height="19.4253394" rx="4.86"></rect><rect id="Rectangle-Copy-36" transform="translate(44.714932, 33.536199) scale(-1, 1) rotate(180.000000) translate(-44.714932, -33.536199) " x="34.8190045" y="23.8235294" width="19.7918552" height="19.4253394" rx="4.86"></rect><rect id="Rectangle-Copy-38" transform="translate(73.303167, 33.536199) scale(-1, 1) rotate(180.000000) translate(-73.303167, -33.536199) " x="63.4072398" y="23.8235294" width="19.7918552" height="19.4253394" rx="4.86"></rect></g></g></g></g></g></svg> 