<?xml version="1.0" encoding="UTF-8"?> <svg xmlns="http://www.w3.org/2000/svg" width="54" height="49" viewBox="0 0 54 49"><g fill="none" fill-rule="evenodd"><g fill="#2492C3" fill-rule="nonzero"><g><g><g><path d="M37.652 17.91c-.367-.704-.612-.704-4.9-.704-2.819 0-6.495 0-9.068.118-.123 0-.245-.118-.245-.118 0-.117-.123-.234 0-.351l6.494-9.496c.49-.704.49-1.641.122-2.345-.367-.703-1.225-1.172-2.083-1.172h-11.64c-1.103-.117-1.96.469-2.328 1.407L8.123 21.66c-.246.704-.123 1.524.367 2.11.49.586 1.225.938 1.96.938h5.514c.123 0 .246.117.246.117s.122.118 0 .352l-4.534 11.84c-.245.704-.123 1.525.245 2.11.49.587 1.225 1.056 1.96 1.056.613 0 1.226-.235 1.716-.704 10.047-9.378 21.565-20.28 21.81-20.398.245-.352.368-.82.245-1.172z" transform="translate(-180 -5034) translate(86 5005) translate(94 29) translate(5 4.486)"></path></g></g></g></g></g></svg> 