<?xml version="1.0" encoding="UTF-8"?> <svg xmlns="http://www.w3.org/2000/svg" xmlns:xlink="http://www.w3.org/1999/xlink" width="332" height="240" viewBox="0 0 332 240"><defs><filter id="95tdbtyqma" width="116%" height="123.1%" x="-8%" y="-11.5%"><feOffset in="SourceAlpha" result="shadowOffsetOuter1"></feOffset><feGaussianBlur in="shadowOffsetOuter1" result="shadowBlurOuter1" stdDeviation="8"></feGaussianBlur><feColorMatrix in="shadowBlurOuter1" values="0 0 0 0 0.00886950528 0 0 0 0 0.310302045 0 0 0 0 0.44457654 0 0 0 0.58 0"></feColorMatrix></filter><filter id="6vpxvwr9fc" width="232.9%" height="232.9%" x="-66.4%" y="-66.4%"><feGaussianBlur in="SourceGraphic" stdDeviation="31"></feGaussianBlur></filter><filter id="3g3scny0zd" width="135.3%" height="200%" x="-17.6%" y="-50%"><feGaussianBlur in="SourceGraphic" stdDeviation="1"></feGaussianBlur></filter><filter id="6uwb46q39e" width="135.3%" height="200%" x="-17.6%" y="-50%"><feGaussianBlur in="SourceGraphic" stdDeviation="1"></feGaussianBlur></filter><filter id="24aqrarc0f" width="135.3%" height="200%" x="-17.6%" y="-50%"><feGaussianBlur in="SourceGraphic" stdDeviation="1"></feGaussianBlur></filter><filter id="rqg8gke3mg" width="135.3%" height="200%" x="-17.6%" y="-50%"><feGaussianBlur in="SourceGraphic" stdDeviation="1"></feGaussianBlur></filter><filter id="s4qwyoxwjh" width="135.3%" height="200%" x="-17.6%" y="-50%"><feGaussianBlur in="SourceGraphic" stdDeviation="1"></feGaussianBlur></filter><rect id="mfiplid58b" width="300" height="208" x="16" y="17" rx="6"></rect></defs><g fill="none" fill-rule="evenodd"><g><g><g opacity=".9" transform="translate(-636 -4340) translate(636 4340)"><use fill="#000" filter="url(#95tdbtyqma)" xlink:href="#mfiplid58b"></use><use fill="#FFF" xlink:href="#mfiplid58b"></use></g><g transform="translate(-636 -4340) translate(636 4340) translate(68 37)"><circle cx="99" cy="95" r="70" fill="#32C5FF" filter="url(#6vpxvwr9fc)" opacity=".287"></circle><path fill="#024F71" d="M34.342 36.748l99.641 25.906c2.8.727 4.989 2.91 5.724 5.708l26.319 100.123c.42 1.602-.537 3.242-2.139 3.664-.498.13-1.021.131-1.52.001l-98.59-25.713c-2.772-.723-4.945-2.872-5.7-5.635L30.694 40.44c-.436-1.599.506-3.248 2.104-3.684.506-.138 1.038-.141 1.545-.01z" opacity=".216" transform="rotate(135 98.33 104.444)"></path><path fill="#FFF" d="M34.342 30.748l99.641 25.906c2.8.727 4.989 2.91 5.724 5.708l26.319 100.123c.42 1.602-.537 3.242-2.139 3.664-.498.13-1.021.131-1.52.001l-98.59-25.713c-2.772-.723-4.945-2.872-5.7-5.635L30.694 34.44c-.436-1.599.506-3.248 2.104-3.684.506-.138 1.038-.141 1.545-.01z" opacity=".731" transform="rotate(135 98.33 98.444)"></path><g fill="#024F71" opacity=".358" transform="translate(45 81)"><ellipse cx="53.5" cy="54" filter="url(#3g3scny0zd)" rx="8.5" ry="3"></ellipse><ellipse cx="8.5" cy="30" filter="url(#6uwb46q39e)" rx="8.5" ry="3"></ellipse><ellipse cx="51.5" cy="3" filter="url(#24aqrarc0f)" rx="8.5" ry="3"></ellipse><ellipse cx="88.5" cy="17" filter="url(#rqg8gke3mg)" rx="8.5" ry="3"></ellipse><ellipse cx="104.5" cy="28" filter="url(#s4qwyoxwjh)" rx="8.5" ry="3"></ellipse></g><g fill="#024F71"><path d="M27.118 21.41v8.562H14.987V21.41H27.118zm-9.277-4.64c0-1.77 1.44-3.211 3.211-3.211 1.77 0 3.211 1.44 3.211 3.21v3.213h-6.422V16.77zm3.211-4.638c-2.557 0-4.638 2.08-4.638 4.638v3.212h-1.427c-.787 0-1.428.64-1.428 1.427v8.563c0 .787.64 1.428 1.428 1.428h12.131c.787 0 1.427-.64 1.427-1.428V21.41c0-.787-.64-1.427-1.427-1.427h-1.427V16.77c0-2.558-2.081-4.638-4.639-4.638z" transform="translate(85 50)"></path><path d="M12.132 1.427c6.126 0 10.704 1.884 10.704 3.569 0 1.684-4.578 3.567-10.704 3.567-6.127 0-10.705-1.883-10.705-3.567 0-1.685 4.578-3.569 10.705-3.569zM0 26.404C0 29.649 6.25 31.4 12.132 31.4v-1.428c-6.127 0-10.705-1.883-10.705-3.568v-4.7c2.179 1.672 6.53 2.56 10.705 2.56v-1.428c-6.127 0-10.705-1.884-10.705-3.568v-4.7c2.179 1.672 6.53 2.56 10.705 2.56.992 0 1.975-.048 2.923-.14l-.138-1.42c-.902.088-1.839.132-2.785.132-6.127 0-10.705-1.884-10.705-3.568V7.43c2.179 1.673 6.53 2.56 10.705 2.56s8.526-.887 10.704-2.56v3.273h1.427V4.996C24.263 1.75 18.013 0 12.132 0S0 1.75 0 4.996v7.136c0 .247.048.483.118.713H0v6.423c0 .248.048.484.118.714H0v6.422z" transform="translate(85 50)"></path></g><g fill="#024F71"><path d="M7.56 25.135H2.245v5.325h1.519v-2.956l1.095 1.098c3.266 3.271 7.552 4.908 11.836 4.908 4.267 0 8.53-1.625 11.773-4.873 4.907-4.916 6.29-12.422 3.442-18.68l-1.382.633c2.586 5.682 1.328 12.502-3.134 16.97-5.907 5.917-15.534 5.901-21.46-.034l-.869-.87h2.497v-1.521zM5.982 5.949c5.907-5.918 15.534-5.9 21.46.033l.892.893h-2.542v1.522h5.318V3.07h-1.52v2.91l-1.073-1.075c-6.519-6.528-17.11-6.544-23.61-.033C.002 9.786-1.381 17.293 1.467 23.55l1.382-.631C.262 17.236 1.521 10.416 5.982 5.949" transform="translate(82 99)"></path><path d="M10.6 23.613v-2.646c1.48.763 3.829 1.125 6.076 1.125 2.247 0 4.597-.362 6.078-1.125v2.646c0 .391-2.09 1.522-6.078 1.522-3.987 0-6.077-1.13-6.077-1.522zm0-7.21c1.48.762 3.829 1.123 6.076 1.123 2.247 0 4.597-.36 6.078-1.123v2.644c0 .392-2.09 1.524-6.078 1.524-3.987 0-6.077-1.132-6.077-1.524v-2.644zm0-4.565c1.48.763 3.829 1.124 6.076 1.124 2.247 0 4.597-.361 6.078-1.124v2.645c0 .39-2.09 1.522-6.078 1.522-3.987 0-6.077-1.131-6.077-1.522v-2.645zm6.076-3.441c3.988 0 6.078 1.13 6.078 1.52 0 .391-2.09 1.523-6.078 1.523-3.987 0-6.077-1.132-6.077-1.522 0-.39 2.09-1.521 6.077-1.521zm7.597 15.216V9.918c0-2.09-3.938-3.043-7.597-3.043-3.658 0-7.595.953-7.595 3.043v13.695c0 2.09 3.937 3.043 7.595 3.043 3.659 0 7.597-.952 7.597-3.043z" transform="translate(82 99)"></path></g><g fill="#024F71"><path d="M24.666 18.956c-4.136 0-7.227-1.601-7.227-3.033 0-1.434 2.958-3.033 7.204-3.033 4.245 0 7.203 1.599 7.203 3.033s-2.949 3.033-7.18 3.033zm-.023 15.923c-4.246 0-7.204-1.599-7.204-3.033v-2.714c1.558 1.188 4.177 1.956 7.204 1.956s5.645-.768 7.203-1.956v2.714c0 1.434-2.958 3.033-7.203 3.033zm0-10.616c-4.246 0-7.204-1.598-7.204-3.032v-2.717c1.562 1.19 4.189 1.959 7.227 1.959 3.017 0 5.626-.767 7.18-1.954v2.712c0 1.434-2.958 3.032-7.203 3.032zm-7.204-.44c1.558 1.19 4.177 1.957 7.204 1.957s5.645-.767 7.203-1.956v2.714c0 1.434-2.958 3.033-7.203 3.033-4.246 0-7.204-1.599-7.204-3.033v-2.714zm7.204-12.45c-4.89 0-8.72 2-8.72 4.55v5.308c0 .26.049.51.126.758h-.126v4.549c0 .26.049.512.126.758h-.126v4.55c0 2.55 3.83 4.55 8.72 4.55 4.889 0 8.72-2 8.72-4.55v-4.55h-.127c.077-.246.126-.498.126-.758v-4.55h-.126c.077-.246.126-.498.126-.757v-5.308c0-2.55-3.83-4.55-8.72-4.55z" transform="translate(126 71)"></path><path d="M8.72 1.517c4.245 0 7.203 1.599 7.203 3.032 0 1.434-2.949 3.033-7.18 3.033-4.136 0-7.227-1.6-7.227-3.033 0-1.433 2.958-3.032 7.203-3.032m0 11.373c-4.245 0-7.203-1.599-7.203-3.033V7.14c1.562 1.19 4.189 1.959 7.227 1.959 3.016 0 5.626-.767 7.18-1.953v2.711c0 1.434-2.958 3.033-7.204 3.033m0 1.516c4.89 0 8.72-1.997 8.72-4.549V4.549C17.44 2 13.61 0 8.72 0 3.83 0 0 2 0 4.55v5.307c0 .26.05.512.127.758H0v4.55c0 .259.05.511.126.758H0v4.55c0 2.55 3.83 4.548 8.72 4.548 2.662 0 5.13-.595 6.771-1.633l-.812-1.281c-1.382.876-3.61 1.398-5.96 1.398-4.245 0-7.203-1.599-7.203-3.033v-2.714c1.558 1.19 4.177 1.956 7.203 1.956 2.663 0 5.131-.595 6.772-1.634l-.81-1.28c-1.385.875-3.613 1.398-5.962 1.398-4.245 0-7.203-1.599-7.203-3.033V12.45c1.558 1.188 4.177 1.955 7.203 1.955M25.022 6.066c0-2.09-1.701-3.792-3.792-3.792h-1.516v1.517h1.516c1.255 0 2.275 1.02 2.275 2.275v1.202l-.98-.98-1.072 1.073 2.81 2.81 2.812-2.81-1.073-1.073-.98.98V6.066zM12.89 34.12h1.517v-1.516H12.89c-1.255 0-2.275-1.02-2.275-2.275v-1.202l.98.98 1.073-1.072-2.81-2.81-2.812 2.81 1.072 1.072.98-.98v1.202c0 2.09 1.702 3.792 3.792 3.792" transform="translate(126 71)"></path></g><g fill="#024F71"><path d="M11.282 26.29L12.48 26.29 12.48 25.09 11.282 25.09zM13.678 26.29L14.876 26.29 14.876 25.09 13.678 25.09zM16.072 26.29L17.27 26.29 17.27 25.09 16.072 25.09zM18.468 26.29L19.666 26.29 19.666 25.09 18.468 25.09zM20.863 26.29L22.061 26.29 22.061 25.09 20.863 25.09zM16.672 5.3c-6.276 0-11.376 5.109-11.376 11.394 0 1.571.317 3.073.893 4.437l1.104-.468c-.515-1.22-.8-2.56-.8-3.969 0-5.637 4.55-10.194 10.18-10.194 5.628 0 10.177 4.557 10.177 10.194 0 1.41-.284 2.75-.8 3.97l1.104.467c.577-1.364.894-2.865.894-4.437 0-6.285-5.1-11.394-11.376-11.394" transform="translate(37 75)"></path><path d="M18.169 16.695c0 .829-.67 1.5-1.497 1.5-.826 0-1.497-.671-1.497-1.5 0-.828.67-1.499 1.497-1.499.827 0 1.497.671 1.497 1.5" transform="translate(37 75)"></path><path d="M23.393 10.812L17.986 16.227 17.14 15.378 22.547 9.963z" transform="translate(37 75)"></path><path d="M16.67 1.69C8.408 1.69 1.688 8.42 1.688 16.694c0 8.275 6.72 15.007 14.982 15.007s14.982-6.732 14.982-15.007c0-8.274-6.72-15.006-14.982-15.006m0 31.702C7.478 33.391 0 25.901 0 16.695 0 7.49 7.478 0 16.67 0c9.192 0 16.67 7.49 16.67 16.695 0 9.207-7.478 16.696-16.67 16.696" transform="translate(37 75)"></path></g><path stroke="#024F71" d="M32.929 31.24c.42-.116.865-.118 1.287-.009h0l99.641 25.906c1.313.342 2.482 1.024 3.41 1.949.926.924 1.612 2.092 1.957 3.403h0l26.318 100.123c.176.667.064 1.343-.259 1.895-.322.553-.855.983-1.523 1.158-.415.11-.851.11-1.267.001h0l-98.59-25.713c-1.3-.339-2.458-1.012-3.38-1.924-.923-.913-1.61-2.064-1.963-3.359h0L31.175 34.31c-.182-.667-.076-1.344.241-1.9.318-.555.847-.99 1.513-1.17z" transform="rotate(135 98.33 98.444)"></path><path fill="#024F71" fill-rule="nonzero" d="M46.585 21.33c.676 0 1.256-.12 1.742-.362.485-.242.856-.587 1.113-1.035.256-.449.384-.972.384-1.57v-5.238h-1.323v5.11c0 1.31-.624 1.966-1.872 1.966-.642 0-1.118-.159-1.428-.476-.31-.317-.465-.81-.465-1.478v-5.122h-1.33v5.216c0 .93.28 1.66.837 2.192.557.532 1.338.798 2.342.798zm10.061-.11v-1.135H53.22v-6.96h-1.324v8.095h4.751zm4.192 0v-6.96h2.38v-1.135h-6.085v1.135h2.381v6.96h1.324zm4.944 0v-8.095H64.46v8.095h1.323zm3.34 0v-3.937c0-.878-.032-1.82-.095-2.824h.044l2.348 6.761h1.168l2.431-6.75h.045c-.015.137-.033.528-.053 1.174-.02.646-.03 1.17-.03 1.573v4.003h1.273v-8.095h-1.872l-2.314 6.44h-.033l-2.248-6.44H67.92v8.095h1.201zm9.59 0l.791-2.248H82.6l.808 2.248h1.406l-3.028-8.128h-1.44l-3.029 8.128h1.395zm3.538-3.389h-2.36l.732-2.11c.192-.538.338-1.035.437-1.489.037.148.105.38.202.698.098.317.175.55.23.698l.759 2.203zm8.842 3.389c1.396 0 2.464-.353 3.206-1.06.742-.707 1.113-1.729 1.113-3.065 0-1.259-.358-2.235-1.074-2.93-.716-.693-1.718-1.04-3.006-1.04h-2.503v8.095h2.264zm0-1.113h-.94v-5.875h1.145c1.813 0 2.72.97 2.72 2.907 0 1.979-.975 2.968-2.925 2.968zm6.385 1.113l.792-2.248h3.095l.808 2.248h1.407l-3.03-8.128H99.11l-3.029 8.128h1.396zm3.538-3.389h-2.359l.731-2.11c.192-.538.338-1.035.437-1.489.037.148.105.38.203.698.097.317.174.55.23.698l.758 2.203zm6.429 3.389v-6.96h2.38v-1.135h-6.085v1.135h2.381v6.96h1.324zm3.948 0l.791-2.248h3.096l.808 2.248h1.406l-3.028-8.128h-1.44l-3.029 8.128h1.396zm3.538-3.389h-2.36l.732-2.11c.192-.538.338-1.035.437-1.489.037.148.105.38.202.698.098.317.175.55.23.698l.759 2.203zm7.901 3.389v-3.029h.842c1.022 0 1.81-.225 2.364-.675.554-.45.83-1.099.83-1.944 0-.805-.251-1.414-.755-1.827-.504-.414-1.262-.62-2.273-.62h-2.331v8.095h1.323zm.703-4.142h-.703v-2.846h.92c.601 0 1.044.115 1.328.343.284.23.427.576.427 1.041 0 .502-.16.872-.477 1.108-.317.236-.815.354-1.495.354zm9.701 4.142v-1.135h-3.427v-6.96h-1.323v8.095h4.75zm1.722 0l.792-2.248h3.096l.808 2.248h1.406l-3.028-8.128h-1.44l-3.029 8.128h1.395zm3.539-3.389h-2.36l.732-2.11c.192-.538.338-1.035.437-1.489.037.148.104.38.202.698.098.317.175.55.23.698l.759 2.203zm4.834 3.389v-4.208c0-.569-.026-1.196-.078-1.883l-.028-.36h.045l3.98 6.451h1.623v-8.095h-1.212v4.241c0 .3.01.715.033 1.249.022.533.037.842.044.927h-.033l-3.97-6.417h-1.606v8.095h1.202zm12.259 0v-1.124h-3.256v-2.542h3.05v-1.107h-3.05v-2.204h3.256v-1.118h-4.58v8.095h4.58z"></path></g></g></g></g></svg> 