<?xml version="1.0" encoding="UTF-8"?> <svg xmlns="http://www.w3.org/2000/svg" xmlns:xlink="http://www.w3.org/1999/xlink" width="300px" height="208px" viewBox="0 0 300 208" version="1.1"><title>Turnkey Solution Diagram</title><defs><filter x="-16.3%" y="-46.0%" width="132.7%" height="191.9%" id="filter-1"><feGaussianBlur stdDeviation="1" in="SourceGraphic"></feGaussianBlur></filter><filter x="-16.3%" y="-46.0%" width="132.7%" height="191.9%" id="filter-2"><feGaussianBlur stdDeviation="1" in="SourceGraphic"></feGaussianBlur></filter><filter x="-16.3%" y="-46.0%" width="132.7%" height="191.9%" id="filter-3"><feGaussianBlur stdDeviation="1" in="SourceGraphic"></feGaussianBlur></filter><filter x="-16.3%" y="-46.0%" width="132.7%" height="191.9%" id="filter-4"><feGaussianBlur stdDeviation="1" in="SourceGraphic"></feGaussianBlur></filter><filter x="-16.3%" y="-46.0%" width="132.7%" height="191.9%" id="filter-5"><feGaussianBlur stdDeviation="1" in="SourceGraphic"></feGaussianBlur></filter></defs><g id="Product" stroke="none" stroke-width="1" fill="none" fill-rule="evenodd"><g id="/Products/Ultima-Hero" transform="translate(-652.000000, -4357.000000)"><g id="Turnkey-Solution-Diagram" transform="translate(652.000000, 4357.000000)"><g id="Group-25" transform="translate(43.000000, 11.000000)"><g id="Group-38" transform="translate(0.329473, 0.444320)"><path d="M36.3897321,38.9160096 L144.847431,67.22771 C147.641202,67.9569935 149.82521,70.1351456 150.561992,72.9269486 L179.321116,181.900621 C179.7439,183.502626 178.787952,185.144041 177.185947,185.566824 C176.68608,185.698744 176.160605,185.699248 175.660486,185.56829 L68.3463433,157.467534 C65.5810279,156.743422 63.412202,154.598838 62.6570537,151.841836 L32.7385787,42.6112566 C32.3008845,41.0132611 33.2414946,39.3630085 34.8394902,38.9253143 C35.3464973,38.786444 35.8810945,38.7832353 36.3897321,38.9160096 Z" id="Rectangle-Copy-15" fill="#024F71" opacity="0.215680804" transform="translate(106.000000, 112.237624) rotate(135.000000) translate(-106.000000, -112.237624) "></path><path d="M36.3897321,32.4407621 L144.847431,60.7524625 C147.641202,61.481746 149.82521,63.6598981 150.561992,66.451701 L179.321116,175.425373 C179.7439,177.027378 178.787952,178.668793 177.185947,179.091577 C176.68608,179.223496 176.160605,179.224001 175.660486,179.093042 L68.3463433,150.992286 C65.5810279,150.268175 63.412202,148.123591 62.6570537,145.366589 L32.7385787,36.1360091 C32.3008845,34.5380135 33.2414946,32.8877609 34.8394902,32.4500667 C35.3464973,32.3111965 35.8810945,32.3079878 36.3897321,32.4407621 Z" id="Rectangle" fill="#FFFFFF" opacity="0.730910528" transform="translate(106.000000, 105.762376) rotate(135.000000) translate(-106.000000, -105.762376) "></path><g id="shadows-under-icons" transform="translate(48.670527, 86.555680)" fill="#024F71" opacity="0.35781715"><ellipse id="Oval" filter="url(#filter-1)" cx="57.7610619" cy="58.7368421" rx="9.17699115" ry="3.26315789"></ellipse><ellipse id="Oval-Copy-11" filter="url(#filter-2)" cx="9.17699115" cy="32.6315789" rx="9.17699115" ry="3.26315789"></ellipse><ellipse id="Oval-Copy-8" filter="url(#filter-3)" cx="55.6017699" cy="3.26315789" rx="9.17699115" ry="3.26315789"></ellipse><ellipse id="Oval-Copy-9" filter="url(#filter-4)" cx="95.5486726" cy="18.4912281" rx="9.17699115" ry="3.26315789"></ellipse><ellipse id="Oval-Copy-10" filter="url(#filter-5)" cx="112.823009" cy="30.4561404" rx="9.17699115" ry="3.26315789"></ellipse></g><g id="Group-6" transform="translate(91.670527, 52.555680)" fill="#024F71"><path d="M28.9882293,23.4162277 L28.9882293,32.7822277 L16.0201316,32.7822277 L16.0201316,23.4162277 L17.5458645,23.4162277 L27.4624964,23.4162277 L28.9882293,23.4162277 Z M19.0709658,18.3419815 C19.0709658,16.4054585 20.6105919,14.8301354 22.5038647,14.8301354 C24.396506,14.8301354 25.9367636,16.4054585 25.9367636,18.3419815 L25.9367636,21.85512 L19.0709658,21.85512 L19.0709658,18.3419815 Z M22.5038647,13.2690277 C19.7700495,13.2690277 17.5458645,15.5447815 17.5458645,18.3419815 L17.5458645,21.85512 L16.0201316,21.85512 C15.1789578,21.85512 14.4943988,22.5555508 14.4943988,23.4162277 L14.4943988,32.7822277 C14.4943988,33.6429046 15.1789578,34.3433354 16.0201316,34.3433354 L28.9882293,34.3433354 C29.8294032,34.3433354 30.5139621,33.6429046 30.5139621,32.7822277 L30.5139621,23.4162277 C30.5139621,22.5555508 29.8294032,21.85512 28.9882293,21.85512 L27.4624964,21.85512 L27.4624964,18.3419815 C27.4624964,15.5447815 25.2383114,13.2690277 22.5038647,13.2690277 L22.5038647,13.2690277 Z" id="Fill-1"></path><path d="M12.9685397,1.56123692 C19.5173185,1.56123692 24.4109044,3.62117538 24.4109044,5.46400615 C24.4109044,7.30619077 19.5173185,9.36612923 12.9685397,9.36612923 C6.41912938,9.36612923 1.52554338,7.30619077 1.52554338,5.46400615 C1.52554338,3.62117538 6.41912938,1.56123692 12.9685397,1.56123692 L12.9685397,1.56123692 Z M-0.000189453581,28.8793292 C-0.000189453581,32.4286523 6.68183834,34.3432062 12.9685397,34.3432062 L12.9685397,32.7820985 C6.41912938,32.7820985 1.52554338,30.72216 1.52554338,28.8793292 L1.52554338,23.7378831 C3.85455941,25.5677908 8.50501331,26.5383138 12.9685397,26.5383138 L12.9685397,24.9772062 C6.41912938,24.9772062 1.52554338,22.9166215 1.52554338,21.0744369 L1.52554338,15.9329908 C3.85455941,17.7628985 8.50501331,18.7327754 12.9685397,18.7327754 C14.0294797,18.7327754 15.0803156,18.6817292 16.0932607,18.5815754 L15.9461185,17.0282215 C14.9817997,17.1232062 13.9802218,17.1716677 12.9685397,17.1716677 C6.41912938,17.1716677 1.52554338,15.1117292 1.52554338,13.2688985 L1.52554338,8.12745231 C3.85455941,9.95736 8.50501331,10.9272369 12.9685397,10.9272369 C17.432066,10.9272369 22.0825199,9.95736 24.4109044,8.12745231 L24.4109044,11.7077908 L25.9366373,11.7077908 L25.9366373,5.46400615 C25.9366373,1.91468308 19.255241,0.000129230769 12.9685397,0.000129230769 C6.68183834,0.000129230769 -0.000189453581,1.91468308 -0.000189453581,5.46400615 L-0.000189453581,13.2688985 C-0.000189453581,13.5396369 0.0509630133,13.7974523 0.126112934,14.0494523 L-0.000189453581,14.0494523 L-0.000189453581,21.0744369 C-0.000189453581,21.3451754 0.0509630133,21.6036369 0.126112934,21.8549908 L-0.000189453581,21.8549908 L-0.000189453581,28.8793292 Z" id="Fill-3"></path></g><g id="Group-3-Copy-11" transform="translate(87.670527, 106.555680)" fill="#024F71"><path d="M8.22807498,26.6133335 L2.44196589,26.6133335 L2.44196589,32.2518384 L4.0946511,32.2518384 L4.0946511,29.1219291 L5.28654623,30.2845303 C8.84056081,33.7478816 13.5054901,35.4806687 18.1669976,35.4806687 C22.8102561,35.4806687 27.4500928,33.7601078 30.9790149,30.321209 C36.3191613,25.1161788 37.824713,17.1691435 34.7246451,10.5436503 L33.2202339,11.2127573 C36.0351595,17.2291631 34.6653355,24.4504062 29.8099311,29.1819487 C23.3816814,35.4462131 12.9055505,35.429541 6.45562997,29.14527 L5.51123843,28.2238585 L8.22807498,28.2238585 L8.22807498,26.6133335 Z" id="Fill-28"></path><path d="M6.50992108,6.29859968 C12.9381708,0.033223801 23.4143017,0.0510073763 29.8642222,6.33416683 L30.8337063,7.27891927 L28.0678253,7.27891927 L28.0678253,8.89055578 L33.8550749,8.89055578 L33.8550749,3.25205093 L32.2012491,3.25205093 L32.2012491,6.33305536 L31.033306,5.19490654 C23.9389637,-1.71734689 12.4135088,-1.734019 5.34083734,5.15933939 C0.000690930955,10.3621466 -1.50372024,18.3102933 1.5952071,24.9357866 L3.09961827,24.2666796 C0.284692737,18.2502738 1.65565728,11.0290307 6.50992108,6.29859968" id="Fill-29"></path><path d="M11.5344719,25.0015858 L11.5344719,22.2006727 C13.1460966,23.0087139 15.7021129,23.3910608 18.1474939,23.3910608 C20.5928749,23.3910608 23.1500317,23.0087139 24.7616564,22.2006727 L24.7616564,25.0015858 C24.7616564,25.4161654 22.4873608,26.6132224 18.1474939,26.6132224 C13.8087675,26.6132224 11.5344719,25.4161654 11.5344719,25.0015858 L11.5344719,25.0015858 Z M11.5344719,17.3679861 C13.1460966,18.1749159 15.7021129,18.5572627 18.1474939,18.5572627 C20.5928749,18.5572627 23.1500317,18.1749159 24.7616564,17.3679861 L24.7616564,20.1677878 C24.7616564,20.5823674 22.4873608,21.7805358 18.1474939,21.7805358 C13.8087675,21.7805358 11.5344719,20.5823674 11.5344719,20.1677878 L11.5344719,17.3679861 Z M11.5344719,12.5341881 C13.1460966,13.3422293 15.7021129,13.7245761 18.1474939,13.7245761 C20.5928749,13.7245761 23.1500317,13.3422293 24.7616564,12.5341881 L24.7616564,15.3351012 C24.7616564,15.7485693 22.4873608,16.9467377 18.1474939,16.9467377 C13.8087675,16.9467377 11.5344719,15.7485693 11.5344719,15.3351012 L11.5344719,12.5341881 Z M18.1474939,8.89077808 C22.4873608,8.89077808 24.7616564,10.087835 24.7616564,10.5013031 C24.7616564,10.9147712 22.4873608,12.1129396 18.1474939,12.1129396 C13.8087675,12.1129396 11.5344719,10.9147712 11.5344719,10.5013031 C11.5344719,10.087835 13.8087675,8.89077808 18.1474939,8.89077808 L18.1474939,8.89077808 Z M26.4143416,25.0015858 L26.4143416,20.1677878 L26.4143416,15.3351012 L26.4143416,10.5013031 C26.4143416,8.28835946 22.129222,7.27914156 18.1474939,7.27914156 C14.1669063,7.27914156 9.8817867,8.28835946 9.8817867,10.5013031 L9.8817867,15.3351012 L9.8817867,20.1677878 L9.8817867,25.0015858 C9.8817867,27.215641 14.1669063,28.2237474 18.1474939,28.2237474 C22.129222,28.2237474 26.4143416,27.215641 26.4143416,25.0015858 L26.4143416,25.0015858 Z" id="Fill-30"></path></g><g id="Group-11" transform="translate(135.670527, 75.555680)" fill="#024F71"><path d="M26.8419175,20.493102 C22.3418068,20.493102 18.9776529,18.7620284 18.9776529,17.2141731 C18.9776529,15.6636035 22.1969945,13.9352442 26.8173268,13.9352442 C31.436976,13.9352442 34.6556345,15.6636035 34.6556345,17.2141731 C34.6556345,18.7647428 31.4472222,20.493102 26.8419175,20.493102 L26.8419175,20.493102 Z M26.8173268,37.7068002 C22.1969945,37.7068002 18.9776529,35.9784409 18.9776529,34.4278713 L18.9776529,31.4936642 C20.6730498,32.778228 23.5228468,33.608139 26.8173268,33.608139 C30.1111237,33.608139 32.9609206,32.778228 34.6556345,31.4936642 L34.6556345,34.4278713 C34.6556345,35.9784409 31.436976,37.7068002 26.8173268,37.7068002 L26.8173268,37.7068002 Z M26.8173268,26.230549 C22.1969945,26.230549 18.9776529,24.5021898 18.9776529,22.9522987 L18.9776529,20.0146987 C20.6771483,21.3012983 23.5358252,22.1325665 26.8419175,22.1325665 C30.1254683,22.1325665 32.9650191,21.3040126 34.6556345,20.020806 L34.6556345,22.9522987 C34.6556345,24.5021898 31.436976,26.230549 26.8173268,26.230549 L26.8173268,26.230549 Z M18.9776529,25.7555386 C20.6730498,27.040781 23.5228468,27.8700135 26.8173268,27.8700135 C30.1111237,27.8700135 32.9609206,27.040781 34.6556345,25.7555386 L34.6556345,28.6897457 C34.6556345,30.2403153 31.436976,31.9686746 26.8173268,31.9686746 C22.1969945,31.9686746 18.9776529,30.2403153 18.9776529,28.6897457 L18.9776529,25.7555386 Z M26.8173268,12.2957798 C21.4961575,12.2957798 17.3280222,14.4563985 17.3280222,17.2141731 L17.3280222,22.9522987 C17.3280222,23.2325548 17.3813022,23.5046679 17.4646375,23.7713523 L17.3280222,23.7713523 L17.3280222,28.6897457 C17.3280222,28.9706804 17.3813022,29.2434721 17.4646375,29.5094779 L17.3280222,29.5094779 L17.3280222,34.4278713 C17.3280222,37.1856459 21.4961575,39.3462646 26.8173268,39.3462646 C32.1378129,39.3462646 36.3059483,37.1856459 36.3059483,34.4278713 L36.3059483,29.5094779 L36.1686498,29.5094779 C36.2519852,29.2434721 36.3059483,28.9706804 36.3059483,28.6897457 L36.3059483,23.7713523 L36.1686498,23.7713523 C36.2519852,23.5046679 36.3059483,23.2325548 36.3059483,22.9522987 L36.3059483,17.2141731 C36.3059483,14.4563985 32.1378129,12.2957798 26.8173268,12.2957798 L26.8173268,12.2957798 Z" id="Fill-1"></path><path d="M9.48882646,1.63980374 C14.1091588,1.63980374 17.3285003,3.36816299 17.3285003,4.91805405 C17.3285003,6.4686237 14.1187218,8.19698295 9.51410031,8.19698295 C5.01330646,8.19698295 1.64983569,6.46658794 1.64983569,4.91805405 C1.64983569,3.36816299 4.86917723,1.63980374 9.48882646,1.63980374 M9.48882646,13.9351085 C4.86917723,13.9351085 1.64983569,12.2067493 1.64983569,10.6561796 L1.64983569,7.71857963 C3.34933108,9.0058578 6.208008,9.8364474 9.51410031,9.8364474 C12.796968,9.8364474 15.6372018,9.00789356 17.3285003,7.72536549 L17.3285003,10.6561796 C17.3285003,12.2067493 14.1091588,13.9351085 9.48882646,13.9351085 M9.48882646,15.574573 C14.8099957,15.574573 18.9781311,13.4146328 18.9781311,10.6561796 L18.9781311,4.91805405 C18.9781311,2.160958 14.8099957,0.000339293139 9.48882646,0.000339293139 C4.16834031,0.000339293139 -0.000478153846,2.160958 -0.000478153846,4.91805405 L-0.000478153846,10.6561796 C-0.000478153846,10.9371143 0.0534849231,11.209906 0.137503385,11.4759119 L-0.000478153846,11.4759119 L-0.000478153846,16.3943052 C-0.000478153846,16.6745613 0.0534849231,16.947353 0.137503385,17.2140374 L-0.000478153846,17.2140374 L-0.000478153846,22.1324308 C-0.000478153846,24.8902054 4.16834031,27.0501455 9.48882646,27.0501455 C12.3864388,27.0501455 15.0722972,26.4068457 16.8578603,25.2837854 L15.9746418,23.8994694 C14.4698234,24.8460973 12.0449003,25.4106811 9.48882646,25.4106811 C4.86917723,25.4106811 1.64983569,23.6823218 1.64983569,22.1324308 L1.64983569,19.1975451 C3.34523262,20.4834661 6.19502954,21.3126985 9.48882646,21.3126985 C12.3857557,21.3126985 15.0722972,20.6687202 16.8578603,19.5463385 L15.9766911,18.1613439 C14.4691403,19.1079717 12.0442172,19.6732341 9.48882646,19.6732341 C4.86917723,19.6732341 1.64983569,17.9448748 1.64983569,16.3943052 L1.64983569,13.4600981 C3.34523262,14.744662 6.19502954,15.574573 9.48882646,15.574573" id="Fill-4"></path><path d="M27.2294271,6.5575185 C27.2294271,4.2978262 25.3782886,2.45885738 23.1036425,2.45885738 L21.4533286,2.45885738 L21.4533286,4.09832183 L23.1036425,4.09832183 C24.4691132,4.09832183 25.5791132,5.20170312 25.5791132,6.5575185 L25.5791132,7.85768981 L24.5121471,6.79773805 L23.3454517,7.957442 L26.4042702,10.9954728 L29.4637717,7.957442 L28.2963932,6.79773805 L27.2294271,7.85768981 L27.2294271,6.5575185 Z" id="Fill-7"></path><path d="M14.0275311,36.8871358 L15.6778449,36.8871358 L15.6778449,35.2476714 L14.0275311,35.2476714 C12.6620603,35.2476714 11.5520603,34.1442901 11.5520603,32.7884747 L11.5520603,31.4883034 L12.6183434,32.5482551 L13.7857218,31.3892298 L10.7269034,28.3505204 L7.66740185,31.3892298 L8.83478031,32.5482551 L9.90174646,31.4883034 L9.90174646,32.7884747 C9.90174646,35.048167 11.7528849,36.8871358 14.0275311,36.8871358" id="Fill-9"></path></g><g id="Group-8-Copy-3" transform="translate(39.670527, 80.555680)" fill="#024F71"><polygon id="Fill-31" points="12.277756 27.836318 13.5817044 27.836318 13.5817044 26.5656335 12.277756 26.5656335"></polygon><polygon id="Fill-32" points="14.884543 27.836318 16.1884914 27.836318 16.1884914 26.5656335 14.884543 26.5656335"></polygon><polygon id="Fill-33" points="17.4902203 27.836318 18.7941686 27.836318 18.7941686 26.5656335 17.4902203 26.5656335"></polygon><polygon id="Fill-34" points="20.0970073 27.836318 21.4009556 27.836318 21.4009556 26.5656335 20.0970073 26.5656335"></polygon><polygon id="Fill-35" points="22.7037943 27.836318 24.0077427 27.836318 24.0077427 26.5656335 22.7037943 26.5656335"></polygon><path d="M18.1431932,5.61177541 C11.3138329,5.61177541 5.76289696,11.0211065 5.76289696,17.676249 C5.76289696,19.339494 6.10802712,20.9302828 6.73503209,22.3739967 L7.93688408,21.8787001 C7.37646371,20.5874684 7.06573559,19.1686275 7.06573559,17.676249 C7.06573559,11.7078168 12.0174102,6.88245993 18.1431932,6.88245993 C24.2689762,6.88245993 29.2195411,11.7078168 29.2195411,17.676249 C29.2195411,19.1686275 28.9099227,20.5874684 28.3495023,21.8787001 L29.5502446,22.3739967 C30.1783593,20.9302828 30.5223797,19.3405754 30.5223797,17.676249 C30.5223797,11.0211065 24.9725535,5.61177541 18.1431932,5.61177541" id="Fill-36"></path><path d="M19.7719635,17.6775468 C19.7719635,18.5545894 19.0428621,19.2650913 18.1428603,19.2650913 C17.2439682,19.2650913 16.5137571,18.5545894 16.5137571,17.6775468 C16.5137571,16.8005041 17.2439682,16.0900022 18.1428603,16.0900022 C19.0428621,16.0900022 19.7719635,16.8005041 19.7719635,17.6775468" id="Fill-37"></path><polygon id="Fill-38" points="25.4572894 11.447732 19.5734304 17.1814931 18.6523434 16.2828218 24.5362024 10.5490607"></polygon><path d="M18.1409737,1.78869123 C9.14983351,1.78869123 1.83662516,8.91642031 1.83662516,17.6771142 C1.83662516,26.4388895 9.14983351,33.5666186 18.1409737,33.5666186 C27.1321139,33.5666186 34.4453223,26.4388895 34.4453223,17.6771142 C34.4453223,8.91642031 27.1321139,1.78869123 18.1409737,1.78869123 M18.1409737,35.3553098 C8.13774762,35.3553098 0,27.425157 0,17.6771142 C0,7.93015284 8.13774762,-2.04636308e-13 18.1409737,-2.04636308e-13 C28.1441998,-2.04636308e-13 36.2819474,7.93015284 36.2819474,17.6771142 C36.2819474,27.425157 28.1441998,35.3553098 18.1409737,35.3553098" id="Fill-39"></path></g><path d="M34.9715761,32.9323046 C35.394082,32.8165793 35.8395796,32.8139054 36.2634443,32.9245507 L36.2634443,32.9245507 L144.721143,61.2362511 C146.030723,61.5781027 147.19739,62.2595329 148.123004,63.1826646 C149.048618,64.1057964 149.733178,65.2706296 150.078544,66.5792872 L150.078544,66.5792872 L178.837669,175.552959 C179.013828,176.220461 178.902752,176.896174 178.580761,177.449051 C178.25877,178.001928 177.725863,178.431969 177.058361,178.608129 C176.641805,178.718062 176.20391,178.718482 175.787144,178.60935 L175.787144,178.60935 L68.4730005,150.508594 C67.176759,150.169167 66.0203196,149.496816 65.0994467,148.586237 C64.1785737,147.675657 63.4932673,146.526848 63.1392915,145.234503 L63.1392915,145.234503 L33.2208165,36.0039232 C33.0384439,35.3380917 33.1432181,34.6613733 33.4600433,34.1055197 C33.7768684,33.5496661 34.3057446,33.1146771 34.9715761,32.9323046 Z" id="Rectangle" stroke="#024F71" transform="translate(106.000000, 105.762376) rotate(135.000000) translate(-106.000000, -105.762376) "></path></g><path d="M54.5851904,23.3307422 C55.2607178,23.3307422 55.8411914,23.2098486 56.3266113,22.9680615 C56.8120313,22.7262744 57.1830176,22.3811279 57.4395703,21.9326221 C57.696123,21.4841162 57.8243994,20.9608594 57.8243994,20.3628516 L57.8243994,20.3628516 L57.8243994,15.1247461 L56.5010303,15.1247461 L56.5010303,20.235498 C56.5010303,21.5459473 55.8771826,22.2011719 54.6294873,22.2011719 C53.9871826,22.2011719 53.5109912,22.0424414 53.2009131,21.7249805 C52.890835,21.4075195 52.7357959,20.9147168 52.7357959,20.2465723 L52.7357959,20.2465723 L52.7357959,15.1247461 L51.4068896,15.1247461 L51.4068896,20.3407031 C51.4068896,21.2709375 51.6855908,22.0018359 52.2429932,22.5333984 C52.8003955,23.0649609 53.5811279,23.3307422 54.5851904,23.3307422 Z M64.6461182,23.22 L64.6461182,22.0848926 L61.2186475,22.0848926 L61.2186475,15.1247461 L59.8952783,15.1247461 L59.8952783,23.22 L64.6461182,23.22 Z M68.83771,23.22 L68.83771,16.2598535 L71.218667,16.2598535 L71.218667,15.1247461 L65.1333838,15.1247461 L65.1333838,16.2598535 L67.5143408,16.2598535 L67.5143408,23.22 L68.83771,23.22 Z M73.7823486,23.22 L73.7823486,15.1247461 L72.4589795,15.1247461 L72.4589795,23.22 L73.7823486,23.22 Z M77.1212256,23.22 L77.1212256,19.2831152 C77.1212256,18.4045605 77.0898486,17.463252 77.0270947,16.4591895 L77.0270947,16.4591895 L77.0713916,16.4591895 L79.419126,23.22 L80.5874561,23.22 L83.0182471,16.4702637 L83.0625439,16.4702637 C83.0477783,16.6068457 83.0302441,16.9981348 83.0099414,17.6441309 C82.9896387,18.290127 82.9794873,18.8143066 82.9794873,19.2166699 L82.9794873,19.2166699 L82.9794873,23.22 L84.2530225,23.22 L84.2530225,15.1247461 L82.3814795,15.1247461 L80.0669678,21.5644043 L80.0337451,21.5644043 L77.7856787,15.1247461 L75.9196729,15.1247461 L75.9196729,23.22 L77.1212256,23.22 Z M86.711499,23.22 L87.5033057,20.9719336 L90.5985498,20.9719336 L91.4069678,23.22 L92.8133936,23.22 L89.7845947,15.0915234 L88.3449463,15.0915234 L85.3161475,23.22 L86.711499,23.22 Z M90.2497119,19.8312891 L87.8909033,19.8312891 L88.6218018,17.7216504 C88.8137549,17.1827051 88.9595654,16.6862109 89.0592334,16.232168 C89.0961475,16.3798242 89.1635156,16.6123828 89.2613379,16.9298437 C89.3591602,17.2473047 89.4357568,17.4798633 89.4911279,17.6275195 L89.4911279,17.6275195 L90.2497119,19.8312891 Z M99.0924756,23.22 C100.487827,23.22 101.556489,22.8665479 102.298462,22.1596436 C103.040435,21.4527393 103.411421,20.4311426 103.411421,19.0948535 C103.411421,17.836084 103.053354,16.859707 102.337222,16.1657227 C101.621089,15.4717383 100.618872,15.1247461 99.3305713,15.1247461 L99.3305713,15.1247461 L96.8277979,15.1247461 L96.8277979,23.22 L99.0924756,23.22 Z M99.0924756,22.107041 L98.151167,22.107041 L98.151167,16.232168 L99.2973486,16.232168 C101.109829,16.232168 102.016069,17.2011621 102.016069,19.1391504 C102.016069,21.1177441 101.041538,22.107041 99.0924756,22.107041 L99.0924756,22.107041 Z M105.476763,23.22 L106.268569,20.9719336 L109.363813,20.9719336 L110.172231,23.22 L111.578657,23.22 L108.549858,15.0915234 L107.11021,15.0915234 L104.081411,23.22 L105.476763,23.22 Z M109.014976,19.8312891 L106.656167,19.8312891 L107.387065,17.7216504 C107.579019,17.1827051 107.724829,16.6862109 107.824497,16.232168 C107.861411,16.3798242 107.928779,16.6123828 108.026602,16.9298437 C108.124424,17.2473047 108.201021,17.4798633 108.256392,17.6275195 L108.256392,17.6275195 L109.014976,19.8312891 Z M115.44356,23.22 L115.44356,16.2598535 L117.824517,16.2598535 L117.824517,15.1247461 L111.739233,15.1247461 L111.739233,16.2598535 L114.12019,16.2598535 L114.12019,23.22 L115.44356,23.22 Z M119.391519,23.22 L120.183325,20.9719336 L123.278569,20.9719336 L124.086987,23.22 L125.493413,23.22 L122.464614,15.0915234 L121.024966,15.0915234 L117.996167,23.22 L119.391519,23.22 Z M122.929731,19.8312891 L120.570923,19.8312891 L121.301821,17.7216504 C121.493774,17.1827051 121.639585,16.6862109 121.739253,16.232168 C121.776167,16.3798242 121.843535,16.6123828 121.941357,16.9298437 C122.03918,17.2473047 122.115776,17.4798633 122.171147,17.6275195 L122.171147,17.6275195 L122.929731,19.8312891 Z M130.831187,23.22 L130.831187,20.1912012 L131.672827,20.1912012 C132.695347,20.1912012 133.483462,19.9660254 134.037173,19.5156738 C134.590884,19.0653223 134.867739,18.4174805 134.867739,17.5721484 C134.867739,16.7674219 134.615801,16.1583398 134.111924,15.7449023 C133.608047,15.3314648 132.850386,15.1247461 131.83894,15.1247461 L131.83894,15.1247461 L129.507817,15.1247461 L129.507817,23.22 L130.831187,23.22 Z M131.534399,19.0782422 L130.831187,19.0782422 L130.831187,16.232168 L131.750347,16.232168 C132.352046,16.232168 132.795015,16.3466016 133.079253,16.5754687 C133.363491,16.8043359 133.50561,17.1513281 133.50561,17.6164453 C133.50561,18.1184766 133.34688,18.4876172 133.029419,18.7238672 C132.711958,18.9601172 132.213618,19.0782422 131.534399,19.0782422 L131.534399,19.0782422 Z M141.235415,23.22 L141.235415,22.0848926 L137.807944,22.0848926 L137.807944,15.1247461 L136.484575,15.1247461 L136.484575,23.22 L141.235415,23.22 Z M142.957456,23.22 L143.749263,20.9719336 L146.844507,20.9719336 L147.652925,23.22 L149.059351,23.22 L146.030552,15.0915234 L144.590903,15.0915234 L141.562104,23.22 L142.957456,23.22 Z M146.495669,19.8312891 L144.13686,19.8312891 L144.867759,17.7216504 C145.059712,17.1827051 145.205522,16.6862109 145.30519,16.232168 C145.342104,16.3798242 145.409473,16.6123828 145.507295,16.9298437 C145.605117,17.2473047 145.681714,17.4798633 145.737085,17.6275195 L145.737085,17.6275195 L146.495669,19.8312891 Z M151.329565,23.22 L151.329565,19.0117969 C151.329565,18.4433203 151.303726,17.8157812 151.252046,17.1291797 L151.252046,17.1291797 L151.22436,16.7692676 L151.268657,16.7692676 L155.249839,23.22 L156.872212,23.22 L156.872212,15.1247461 L155.659585,15.1247461 L155.659585,19.3661719 C155.659585,19.6651758 155.670659,20.0813818 155.692808,20.61479 C155.714956,21.1481982 155.729722,21.4573535 155.737104,21.5422559 L155.737104,21.5422559 L155.703882,21.5422559 L151.733774,15.1247461 L150.128013,15.1247461 L150.128013,23.22 L151.329565,23.22 Z M163.588726,23.22 L163.588726,22.0959668 L160.332905,22.0959668 L160.332905,19.5544336 L163.383853,19.5544336 L163.383853,18.4470117 L160.332905,18.4470117 L160.332905,16.2432422 L163.588726,16.2432422 L163.588726,15.1247461 L159.009536,15.1247461 L159.009536,23.22 L163.588726,23.22 Z" id="ULTIMADATAPLANE" fill="#024F71" fill-rule="nonzero"></path></g></g></g></g></svg> 