<?xml version="1.0" encoding="UTF-8"?> <!-- Generator: Adobe Illustrator 23.1.0, SVG Export Plug-In . SVG Version: 6.00 Build 0) --> <svg xmlns="http://www.w3.org/2000/svg" xmlns:xlink="http://www.w3.org/1999/xlink" version="1.1" id="Layer_1" x="0px" y="0px" viewBox="0 0 402 343" style="enable-background:new 0 0 402 343;" xml:space="preserve"> <style type="text/css"> .st0{opacity:0.216;fill:#055072;enable-background:new ;} .st1{opacity:0.731;fill:#FFFFFF;enable-background:new ;} .st2{opacity:0.358;} .st3{fill:#055072;} .st4{fill:none;stroke:#055072;} .st5{fill:none;} </style> <g transform="translate(-636 -4340) translate(636 4340) translate(68 37)"> <path class="st0" d="M321.6,172.2L143.3,277c-5,2.9-11.2,3-16.2,0L-52.6,172.1c-2.9-1.7-3.8-5.4-2.2-8.2c0.5-0.9,1.3-1.6,2.2-2.2 L124,58.2c5-2.9,11.1-2.9,16.1-0.1l181.5,103.7c2.9,1.7,3.9,5.3,2.2,8.2C323.3,170.9,322.5,171.7,321.6,172.2L321.6,172.2z"></path> <path class="st1" d="M321.6,160.1L143.3,264.9c-5,2.9-11.2,3-16.2,0L-52.6,160.1c-2.9-1.7-3.8-5.4-2.2-8.2c0.5-0.9,1.3-1.6,2.2-2.2 L124,46.1c5-2.9,11.1-2.9,16.1-0.1l181.5,103.7c2.9,1.7,3.9,5.3,2.2,8.2C323.3,158.9,322.5,159.6,321.6,160.1L321.6,160.1z"></path> <g transform="translate(45 81)" class="st2"> <ellipse class="st3" cx="89.9" cy="147.3" rx="17.1" ry="6"></ellipse> <ellipse class="st3" cx="-0.5" cy="99.1" rx="17.1" ry="6"></ellipse> <ellipse class="st3" cx="85.9" cy="44.9" rx="17.1" ry="6"></ellipse> <g> <ellipse class="st3" cx="160.2" cy="73" rx="17.1" ry="6"></ellipse> </g> <g> <ellipse class="st3" cx="192.3" cy="95.1" rx="17.1" ry="6"></ellipse> </g> </g> <g> <path class="st3" d="M162.2,100.6v17.2h-24.4v-17.2C137.8,100.6,162.2,100.6,162.2,100.6z M143.6,91.2c0-3.6,2.9-6.5,6.5-6.5 s6.5,2.9,6.5,6.5v6.5h-12.9v-6.5H143.6z M150.1,81.9c-5.1,0-9.3,4.2-9.3,9.3v6.5h-2.9c-1.6,0-2.9,1.3-2.9,2.9v17.2 c0,1.6,1.3,2.9,2.9,2.9h24.4c1.6,0,2.9-1.3,2.9-2.9v-17.2c0-1.6-1.3-2.9-2.9-2.9h-2.9v-6.5C159.4,86.1,155.2,81.9,150.1,81.9z"></path> <path class="st3" d="M132.1,60.4c12.3,0,21.5,3.8,21.5,7.2c0,3.4-9.2,7.2-21.5,7.2s-21.5-3.8-21.5-7.2 C110.6,64.2,119.8,60.4,132.1,60.4z M107.8,110.6c0,6.5,12.6,10,24.4,10v-2.9c-12.3,0-21.5-3.8-21.5-7.2v-9.4 c4.4,3.4,13.1,5.1,21.5,5.1v-2.9c-12.3,0-21.5-3.8-21.5-7.2v-9.4c4.4,3.4,13.1,5.1,21.5,5.1c2,0,4-0.1,5.9-0.3l-0.3-2.9 c-1.8,0.2-3.7,0.3-5.6,0.3c-12.3,0-21.5-3.8-21.5-7.2v-9.4c4.4,3.4,13.1,5.1,21.5,5.1s17.1-1.8,21.5-5.1v6.6h2.9V67.6 c0-6.5-12.6-10-24.4-10c-11.8,0-24.4,3.5-24.4,10v14.3c0,0.5,0.1,1,0.2,1.4h-0.2v12.9c0,0.5,0.1,1,0.2,1.4h-0.2L107.8,110.6 L107.8,110.6z"></path> </g> <g> <path class="st3" d="M116.9,206.5h-10.7v10.7h3.1v-5.9l2.2,2.2c6.6,6.6,15.2,9.9,23.8,9.9s17.1-3.3,23.7-9.8 c9.9-9.9,12.6-25,6.9-37.5l-2.8,1.3c5.2,11.4,2.7,25.1-6.3,34.1c-11.9,11.9-31.2,11.9-43.1-0.1l-1.7-1.7h5L116.9,206.5 L116.9,206.5z M113.8,168c11.9-11.9,31.2-11.9,43.1,0.1l1.8,1.8h-5.1v3.1h10.7v-10.7h-3.1v5.8l-2.2-2.2 c-13.1-13.1-34.4-13.1-47.4-0.1c-9.9,9.9-12.6,25-6.9,37.5l2.8-1.3C102.3,190.6,104.8,176.9,113.8,168"></path> <path class="st3" d="M123,203.4v-5.3c3,1.5,7.7,2.3,12.2,2.3s9.2-0.7,12.2-2.3v5.3c0,0.8-4.2,3.1-12.2,3.1S123,204.2,123,203.4 L123,203.4z M123,189c3,1.5,7.7,2.3,12.2,2.3s9.2-0.7,12.2-2.3v5.3c0,0.8-4.2,3.1-12.2,3.1s-12.2-2.3-12.2-3.1V189L123,189z M123,179.8c3,1.5,7.7,2.3,12.2,2.3s9.2-0.7,12.2-2.3v5.3c0,0.8-4.2,3.1-12.2,3.1s-12.2-2.3-12.2-3.1V179.8L123,179.8z M135.2,172.9c8,0,12.2,2.3,12.2,3.1s-4.2,3.1-12.2,3.1S123,176.8,123,176C123,175.1,127.2,172.9,135.2,172.9z M150.5,203.4v-27.5 c0-4.2-7.9-6.1-15.3-6.1c-7.3,0-15.3,1.9-15.3,6.1v27.5c0,4.2,7.9,6.1,15.3,6.1C142.6,209.6,150.5,207.6,150.5,203.4z"></path> </g> <g> <path class="st3" d="M239.7,137.8c-8.3,0-14.5-3.2-14.5-6.1c0-2.9,5.9-6.1,14.5-6.1c8.5,0,14.5,3.2,14.5,6.1 C254.1,134.6,248.2,137.8,239.7,137.8z M239.6,169.8c-8.5,0-14.5-3.2-14.5-6.1v-5.5c3.1,2.4,8.4,3.9,14.5,3.9s11.3-1.5,14.5-3.9 v5.5C254.1,166.6,248.2,169.8,239.6,169.8z M239.6,148.5c-8.5,0-14.5-3.2-14.5-6.1v-5.5c3.1,2.4,8.4,3.9,14.5,3.9 s11.3-1.5,14.4-3.9v5.4C254.1,145.3,248.2,148.5,239.6,148.5z M225.2,147.6c3.1,2.4,8.4,3.9,14.5,3.9s11.3-1.5,14.5-3.9v5.5 c0,2.9-5.9,6.1-14.5,6.1c-8.5,0-14.5-3.2-14.5-6.1V147.6L225.2,147.6z M239.6,122.6c-9.8,0-17.5,4-17.5,9.1v10.7 c0,0.5,0.1,1,0.3,1.5h-0.3v9.1c0,0.5,0.1,1,0.3,1.5h-0.3v9.1c0,5.1,7.7,9.1,17.5,9.1s17.5-4,17.5-9.1v-9.1h-0.3 c0.2-0.5,0.3-1,0.3-1.5v-9.1h-0.3c0.2-0.5,0.3-1,0.3-1.5v-10.7C257.2,126.6,249.5,122.6,239.6,122.6L239.6,122.6z"></path> <path class="st3" d="M207.7,102.8c8.5,0,14.5,3.2,14.5,6.1s-5.9,6.1-14.4,6.1c-8.3,0-14.5-3.2-14.5-6.1 C193.2,106,199.1,102.8,207.7,102.8 M207.6,125.6c-8.5,0-14.5-3.2-14.5-6.1V114c3.1,2.4,8.4,3.9,14.5,3.9s11.3-1.5,14.4-3.9v5.4 C222.1,122.4,216.2,125.6,207.6,125.6 M207.6,128.7c9.8,0,17.5-4,17.5-9.1v-10.7c0-5.1-7.7-9.1-17.5-9.1s-17.5,4-17.5,9.1v10.7 c0,0.5,0.1,1,0.3,1.5h-0.3v9.1c0,0.5,0.1,1,0.3,1.5h-0.3v9.1c0,5.1,7.7,9.1,17.5,9.1c5.3,0,10.3-1.2,13.6-3.3l-1.6-2.6 c-2.8,1.8-7.3,2.8-12,2.8c-8.5,0-14.5-3.2-14.5-6.1v-5.5c3.1,2.4,8.4,3.9,14.5,3.9c5.4,0,10.3-1.2,13.6-3.3l-1.6-2.6 c-2.8,1.8-7.3,2.8-12,2.8c-8.5,0-14.5-3.2-14.5-6.1v-5.5C196.3,127.1,201.6,128.7,207.6,128.7 M240.4,111.9c0-4.2-3.4-7.6-7.6-7.6 h-3v3h3c2.5,0,4.6,2,4.6,4.6v2.4l-2-2l-2.2,2.2l5.6,5.6l5.6-5.6l-2.2-2.2l-2,2L240.4,111.9L240.4,111.9z M216,168.3h3v-3h-3 c-2.5,0-4.6-2-4.6-4.6v-2.4l2,2l2.2-2.2l-5.6-5.6l-5.6,5.6l2.2,2.2l2-2v2.4C208.4,164.9,211.8,168.3,216,168.3"></path> </g> <g> <path class="st3" d="M34,160.6h2.4v-2.4H34V160.6z M38.8,160.6h2.4v-2.4h-2.4V160.6z M43.6,160.6H46v-2.4h-2.4V160.6z M48.4,160.6 h2.4v-2.4h-2.4V160.6z M53.2,160.6h2.4v-2.4h-2.4V160.6z M44.8,118.4c-12.6,0-22.9,10.3-22.9,22.9c0,3.2,0.6,6.2,1.8,8.9l2.2-0.9 c-1-2.5-1.6-5.1-1.6-8c0-11.3,9.1-20.5,20.5-20.5c11.3,0,20.4,9.2,20.4,20.5c0,2.8-0.6,5.5-1.6,8l2.2,0.9c1.2-2.7,1.8-5.8,1.8-8.9 C67.7,128.7,57.4,118.4,44.8,118.4"></path> <path class="st3" d="M47.8,141.3c0,1.7-1.3,3-3,3s-3-1.3-3-3s1.3-3,3-3S47.8,139.7,47.8,141.3"></path> <path class="st3" d="M58.3,129.5l-10.9,10.9l-1.7-1.7l10.9-10.9L58.3,129.5z"></path> <path class="st3" d="M44.8,111.2c-16.6,0-30.1,13.5-30.1,30.1s13.5,30.2,30.1,30.2s30.1-13.5,30.1-30.2 C74.9,124.7,61.4,111.2,44.8,111.2 M44.8,174.9c-18.5,0-33.5-15-33.5-33.5s15-33.5,33.5-33.5s33.5,15,33.5,33.5 C78.3,159.8,63.3,174.9,44.8,174.9"></path> </g> <path class="st4" d="M322.9,157.4c-0.4,0.8-1.1,1.4-1.8,1.8l0,0L142.8,264c-2.4,1.4-5,2.1-7.6,2.1s-5.3-0.7-7.6-2.1l0,0 L-52.1,159.2c-1.2-0.7-2-1.8-2.3-3.1c-0.3-1.2-0.2-2.6,0.5-3.8c0.4-0.7,1.1-1.4,1.8-1.8l0,0L124.5,47c2.3-1.4,4.9-2.1,7.5-2.1 s5.2,0.6,7.6,2l0,0l181.5,103.7c1.2,0.7,2,1.8,2.4,3C323.7,154.9,323.6,156.2,322.9,157.4L322.9,157.4z"></path> <path class="st3" d="M30.6,0c1.4,0,2.5-0.2,3.5-0.7s1.7-1.2,2.2-2.1s0.8-2,0.8-3.2v-10.5h-2.7v10.3c0,2.6-1.3,4-3.8,4 c-1.3,0-2.2-0.3-2.9-1c-0.6-0.6-0.9-1.6-0.9-3v-10.3h-2.7V-6c0,1.9,0.6,3.3,1.7,4.4C27-0.6,28.6,0,30.6,0L30.6,0z M50.8-0.3v-2.3 h-6.9v-14h-2.7v16.3L50.8-0.3L50.8-0.3z M59.2-0.3v-14H64v-2.3H51.8v2.3h4.8v14C56.6-0.3,59.2-0.3,59.2-0.3z M69.2-0.3v-16.3h-2.7 v16.3L69.2-0.3L69.2-0.3z M75.9-0.3v-7.9c0-1.8-0.1-3.7-0.2-5.7h0.1l4.7,13.6h2.3l4.9-13.6h0.1c0,0.3-0.1,1.1-0.1,2.4 s-0.1,2.4-0.1,3.2v8h2.6v-16.3h-3.8l-4.6,13h-0.1l-4.5-12.9h-3.7v16.3L75.9-0.3L75.9-0.3z M95.1-0.3l1.6-4.5h6.2l1.6,4.5h2.8 l-6.1-16.3h-2.9l-6,16.3H95.1z M102.2-7.1h-4.7l1.5-4.2c0.4-1.1,0.7-2.1,0.9-3c0.1,0.3,0.2,0.8,0.4,1.4c0.2,0.6,0.3,1.1,0.5,1.4 L102.2-7.1z M120-0.3c2.8,0,5-0.7,6.4-2.1c1.5-1.4,2.2-3.5,2.2-6.2c0-2.5-0.7-4.5-2.2-5.9c-1.4-1.4-3.5-2.1-6-2.1h-5v16.3 C115.4-0.3,120-0.3,120-0.3z M120-2.5h-1.9v-11.8h2.3c3.6,0,5.5,1.9,5.5,5.8C125.9-4.5,123.9-2.5,120-2.5z M132.8-0.3l1.6-4.5h6.2 l1.6,4.5h2.8l-6-16.3h-2.9L130-0.3H132.8L132.8-0.3z M139.9-7.1h-4.7l1.5-4.2c0.4-1.1,0.7-2.1,0.9-3c0.1,0.3,0.2,0.8,0.4,1.4 c0.2,0.6,0.3,1.1,0.5,1.4L139.9-7.1z M152.9-0.3v-14h4.8v-2.3h-12.2v2.3h4.8v14C150.3-0.3,152.9-0.3,152.9-0.3z M160.8-0.3l1.6-4.5 h6.2l1.6,4.5h2.8l-6-16.3h-2.9L158-0.3H160.8z M167.9-7.1h-4.7l1.5-4.2c0.4-1.1,0.7-2.1,0.9-3c0.1,0.3,0.2,0.8,0.4,1.4 c0.2,0.6,0.4,1.1,0.5,1.4L167.9-7.1z M183.8-0.3v-6.1h1.7c2.1,0,3.6-0.5,4.8-1.4c1.1-0.9,1.7-2.2,1.7-3.9c0-1.6-0.5-2.8-1.5-3.7 c-1-0.8-2.5-1.2-4.6-1.2h-4.7v16.3C181.2-0.3,183.8-0.3,183.8-0.3z M185.2-8.6h-1.4v-5.7h1.8c1.2,0,2.1,0.2,2.7,0.7 c0.6,0.5,0.9,1.2,0.9,2.1c0,1-0.3,1.8-1,2.2C187.5-8.8,186.5-8.6,185.2-8.6z M204.7-0.3v-2.3h-6.9v-14h-2.7v16.3 C195.1-0.3,204.7-0.3,204.7-0.3z M208.1-0.3l1.6-4.5h6.2l1.6,4.5h2.8l-6.1-16.3h-2.9l-6.1,16.3C205.2-0.3,208.1-0.3,208.1-0.3z M215.2-7.1h-4.7l1.5-4.2c0.4-1.1,0.7-2.1,0.9-3c0.1,0.3,0.2,0.8,0.4,1.4c0.2,0.6,0.4,1.1,0.5,1.4L215.2-7.1L215.2-7.1z M224.9-0.3 v-8.5c0-1.1-0.1-2.4-0.2-3.8l-0.1-0.7h0.1l8,13h3.3v-16.3h-2.4V-8c0,0.6,0,1.4,0.1,2.5c0,1.1,0.1,1.7,0.1,1.9h-0.1l-8-12.9h-3.2 v16.3L224.9-0.3L224.9-0.3z M249.6-0.3v-2.3H243v-5.1h6.1v-2.2H243v-4.4h6.5v-2.2h-9.2v16.3L249.6-0.3L249.6-0.3z"></path> </g> <polygon class="st5" points="402,171 399,171 399,171 "></polygon> </svg> 