<?xml version="1.0" encoding="UTF-8"?> <!-- Generator: Adobe Illustrator 23.1.0, SVG Export Plug-In . SVG Version: 6.00 Build 0) --> <svg xmlns="http://www.w3.org/2000/svg" xmlns:xlink="http://www.w3.org/1999/xlink" version="1.1" id="Layer_1" x="0px" y="0px" viewBox="0 0 541 364" style="enable-background:new 0 0 541 364;" xml:space="preserve"> <style type="text/css"> .st0{opacity:0.287;fill:#4EC1EF;enable-background:new ;} .st1{opacity:0.216;fill:#055072;enable-background:new ;} .st2{opacity:0.731;fill:#FFFFFF;enable-background:new ;} .st3{opacity:0.358;} .st4{fill:#055072;} .st5{fill:none;stroke:#055072;} </style> <g transform="translate(-636 -4340) translate(636 4340) translate(68 37)"> <circle class="st0" cx="203.9" cy="157" r="140.6"></circle> <path class="st1" d="M389.6,181.2L211.3,286c-5,2.9-11.2,3-16.2,0L15.4,181.1c-2.9-1.7-3.8-5.4-2.2-8.2c0.5-0.9,1.3-1.6,2.2-2.2 L192,67.2c5-2.9,11.1-2.9,16.1-0.1l181.5,103.7c2.9,1.7,3.9,5.3,2.2,8.2C391.3,179.9,390.5,180.7,389.6,181.2L389.6,181.2z"></path> <path class="st2" d="M389.6,169.1L211.3,273.9c-5,2.9-11.2,3-16.2,0L15.4,169.1c-2.9-1.7-3.8-5.4-2.2-8.2c0.5-0.9,1.3-1.6,2.2-2.2 L192,55.1c5-2.9,11.1-2.9,16.1-0.1l181.5,103.7c2.9,1.7,3.9,5.3,2.2,8.2C391.3,167.9,390.5,168.6,389.6,169.1L389.6,169.1z"></path> <g transform="translate(45 81)" class="st3"> <ellipse class="st4" cx="157.9" cy="156.3" rx="17.1" ry="6"></ellipse> <ellipse class="st4" cx="67.5" cy="108.1" rx="17.1" ry="6"></ellipse> <ellipse class="st4" cx="153.9" cy="53.9" rx="17.1" ry="6"></ellipse> <g> <ellipse class="st4" cx="228.2" cy="82" rx="17.1" ry="6"></ellipse> </g> <g> <ellipse class="st4" cx="260.3" cy="104.1" rx="17.1" ry="6"></ellipse> </g> </g> <g> <path class="st4" d="M230.2,109.6v17.2h-24.4v-17.2H230.2z M211.6,100.2c0-3.6,2.9-6.5,6.5-6.5c3.6,0,6.5,2.9,6.5,6.5v6.5h-12.9 V100.2z M218.1,90.9c-5.1,0-9.3,4.2-9.3,9.3v6.5h-2.9c-1.6,0-2.9,1.3-2.9,2.9v17.2c0,1.6,1.3,2.9,2.9,2.9h24.4 c1.6,0,2.9-1.3,2.9-2.9v-17.2c0-1.6-1.3-2.9-2.9-2.9h-2.9v-6.5C227.4,95.1,223.2,90.9,218.1,90.9z"></path> <path class="st4" d="M200.1,69.4c12.3,0,21.5,3.8,21.5,7.2c0,3.4-9.2,7.2-21.5,7.2c-12.3,0-21.5-3.8-21.5-7.2 C178.6,73.2,187.8,69.4,200.1,69.4z M175.8,119.6c0,6.5,12.6,10,24.4,10v-2.9c-12.3,0-21.5-3.8-21.5-7.2v-9.4 c4.4,3.4,13.1,5.1,21.5,5.1v-2.9c-12.3,0-21.5-3.8-21.5-7.2v-9.4c4.4,3.4,13.1,5.1,21.5,5.1c2,0,4-0.1,5.9-0.3l-0.3-2.9 c-1.8,0.2-3.7,0.3-5.6,0.3c-12.3,0-21.5-3.8-21.5-7.2v-9.4c4.4,3.4,13.1,5.1,21.5,5.1c8.4,0,17.1-1.8,21.5-5.1v6.6h2.9V76.6 c0-6.5-12.6-10-24.4-10c-11.8,0-24.4,3.5-24.4,10v14.3c0,0.5,0.1,1,0.2,1.4h-0.2v12.9c0,0.5,0.1,1,0.2,1.4h-0.2L175.8,119.6 L175.8,119.6z"></path> </g> <g> <path class="st4" d="M184.9,215.5h-10.7v10.7h3.1v-5.9l2.2,2.2c6.6,6.6,15.2,9.9,23.8,9.9c8.6,0,17.1-3.3,23.7-9.8 c9.9-9.9,12.6-25,6.9-37.5l-2.8,1.3c5.2,11.4,2.7,25.1-6.3,34.1c-11.9,11.9-31.2,11.9-43.1-0.1l-1.7-1.7h5L184.9,215.5 L184.9,215.5z M181.8,177c11.9-11.9,31.2-11.9,43.1,0.1l1.8,1.8h-5.1v3.1h10.7v-10.7h-3.1v5.8l-2.2-2.2 c-13.1-13.1-34.4-13.1-47.4-0.1c-9.9,9.9-12.6,25-6.9,37.5l2.8-1.3C170.3,199.6,172.8,185.9,181.8,177"></path> <path class="st4" d="M191,212.4v-5.3c3,1.5,7.7,2.3,12.2,2.3c4.5,0,9.2-0.7,12.2-2.3v5.3c0,0.8-4.2,3.1-12.2,3.1 C195.2,215.5,191,213.2,191,212.4L191,212.4z M191,198c3,1.5,7.7,2.3,12.2,2.3c4.5,0,9.2-0.7,12.2-2.3v5.3c0,0.8-4.2,3.1-12.2,3.1 c-8,0-12.2-2.3-12.2-3.1V198L191,198z M191,188.8c3,1.5,7.7,2.3,12.2,2.3c4.5,0,9.2-0.7,12.2-2.3v5.3c0,0.8-4.2,3.1-12.2,3.1 c-8,0-12.2-2.3-12.2-3.1V188.8L191,188.8z M203.2,181.9c8,0,12.2,2.3,12.2,3.1c0,0.8-4.2,3.1-12.2,3.1c-8,0-12.2-2.3-12.2-3.1 C191,184.1,195.2,181.9,203.2,181.9z M218.5,212.4v-27.5c0-4.2-7.9-6.1-15.3-6.1c-7.3,0-15.3,1.9-15.3,6.1v27.5 c0,4.2,7.9,6.1,15.3,6.1C210.6,218.6,218.5,216.6,218.5,212.4z"></path> </g> <g> <path class="st4" d="M307.7,146.8c-8.3,0-14.5-3.2-14.5-6.1c0-2.9,5.9-6.1,14.5-6.1c8.5,0,14.5,3.2,14.5,6.1 C322.1,143.6,316.2,146.8,307.7,146.8z M307.6,178.8c-8.5,0-14.5-3.2-14.5-6.1v-5.5c3.1,2.4,8.4,3.9,14.5,3.9 c6.1,0,11.3-1.5,14.5-3.9v5.5C322.1,175.6,316.2,178.8,307.6,178.8z M307.6,157.5c-8.5,0-14.5-3.2-14.5-6.1v-5.5 c3.1,2.4,8.4,3.9,14.5,3.9c6.1,0,11.3-1.5,14.4-3.9v5.4C322.1,154.3,316.2,157.5,307.6,157.5z M293.2,156.6 c3.1,2.4,8.4,3.9,14.5,3.9c6.1,0,11.3-1.5,14.5-3.9v5.5c0,2.9-5.9,6.1-14.5,6.1c-8.5,0-14.5-3.2-14.5-6.1V156.6L293.2,156.6z M307.6,131.6c-9.8,0-17.5,4-17.5,9.1v10.7c0,0.5,0.1,1,0.3,1.5h-0.3v9.1c0,0.5,0.1,1,0.3,1.5h-0.3v9.1c0,5.1,7.7,9.1,17.5,9.1 c9.8,0,17.5-4,17.5-9.1v-9.1h-0.3c0.2-0.5,0.3-1,0.3-1.5v-9.1h-0.3c0.2-0.5,0.3-1,0.3-1.5v-10.7 C325.2,135.6,317.5,131.6,307.6,131.6L307.6,131.6z"></path> <path class="st4" d="M275.7,111.8c8.5,0,14.5,3.2,14.5,6.1c0,2.9-5.9,6.1-14.4,6.1c-8.3,0-14.5-3.2-14.5-6.1 C261.2,115,267.1,111.8,275.7,111.8 M275.6,134.6c-8.5,0-14.5-3.2-14.5-6.1v-5.5c3.1,2.4,8.4,3.9,14.5,3.9 c6.1,0,11.3-1.5,14.4-3.9v5.4C290.1,131.4,284.2,134.6,275.6,134.6 M275.6,137.7c9.8,0,17.5-4,17.5-9.1v-10.7 c0-5.1-7.7-9.1-17.5-9.1c-9.8,0-17.5,4-17.5,9.1v10.7c0,0.5,0.1,1,0.3,1.5h-0.3v9.1c0,0.5,0.1,1,0.3,1.5h-0.3v9.1 c0,5.1,7.7,9.1,17.5,9.1c5.3,0,10.3-1.2,13.6-3.3l-1.6-2.6c-2.8,1.8-7.3,2.8-12,2.8c-8.5,0-14.5-3.2-14.5-6.1v-5.5 c3.1,2.4,8.4,3.9,14.5,3.9c5.4,0,10.3-1.2,13.6-3.3l-1.6-2.6c-2.8,1.8-7.3,2.8-12,2.8c-8.5,0-14.5-3.2-14.5-6.1v-5.5 C264.3,136.1,269.6,137.7,275.6,137.7 M308.4,120.9c0-4.2-3.4-7.6-7.6-7.6h-3v3h3c2.5,0,4.6,2,4.6,4.6v2.4l-2-2l-2.2,2.2l5.6,5.6 l5.6-5.6l-2.2-2.2l-2,2L308.4,120.9L308.4,120.9z M284,177.3h3v-3h-3c-2.5,0-4.6-2-4.6-4.6v-2.4l2,2l2.2-2.2l-5.6-5.6l-5.6,5.6 l2.2,2.2l2-2v2.4C276.4,173.9,279.8,177.3,284,177.3"></path> </g> <g> <path class="st4" d="M102,169.6h2.4v-2.4H102V169.6z M106.8,169.6h2.4v-2.4h-2.4V169.6z M111.6,169.6h2.4v-2.4h-2.4V169.6z M116.4,169.6h2.4v-2.4h-2.4V169.6z M121.2,169.6h2.4v-2.4h-2.4V169.6z M112.8,127.4c-12.6,0-22.9,10.3-22.9,22.9 c0,3.2,0.6,6.2,1.8,8.9l2.2-0.9c-1-2.5-1.6-5.1-1.6-8c0-11.3,9.1-20.5,20.5-20.5c11.3,0,20.4,9.2,20.4,20.5c0,2.8-0.6,5.5-1.6,8 l2.2,0.9c1.2-2.7,1.8-5.8,1.8-8.9C135.7,137.7,125.4,127.4,112.8,127.4"></path> <path class="st4" d="M115.8,150.3c0,1.7-1.3,3-3,3c-1.7,0-3-1.3-3-3c0-1.7,1.3-3,3-3C114.5,147.3,115.8,148.7,115.8,150.3"></path> <path class="st4" d="M126.3,138.5l-10.9,10.9l-1.7-1.7l10.9-10.9L126.3,138.5z"></path> <path class="st4" d="M112.8,120.2c-16.6,0-30.1,13.5-30.1,30.1c0,16.6,13.5,30.2,30.1,30.2s30.1-13.5,30.1-30.2 C142.9,133.7,129.4,120.2,112.8,120.2 M112.8,183.9c-18.5,0-33.5-15-33.5-33.5c0-18.5,15-33.5,33.5-33.5c18.5,0,33.5,15,33.5,33.5 C146.3,168.8,131.3,183.9,112.8,183.9"></path> </g> <path class="st5" d="M390.9,166.4c-0.4,0.8-1.1,1.4-1.8,1.8l0,0L210.8,273c-2.4,1.4-5,2.1-7.6,2.1c-2.6,0-5.3-0.7-7.6-2.1l0,0 L15.9,168.2c-1.2-0.7-2-1.8-2.3-3.1c-0.3-1.2-0.2-2.6,0.5-3.8c0.4-0.7,1.1-1.4,1.8-1.8l0,0L192.5,56c2.3-1.4,4.9-2.1,7.5-2.1 c2.6,0,5.2,0.6,7.6,2l0,0l181.5,103.7c1.2,0.7,2,1.8,2.4,3C391.7,163.9,391.6,165.2,390.9,166.4L390.9,166.4z"></path> <path class="st4" d="M98.6,9c1.4,0,2.5-0.2,3.5-0.7c1-0.5,1.7-1.2,2.2-2.1c0.5-0.9,0.8-2,0.8-3.2V-7.5h-2.7V2.7c0,2.6-1.3,4-3.8,4 c-1.3,0-2.2-0.3-2.9-1c-0.6-0.6-0.9-1.6-0.9-3V-7.5h-2.7V3c0,1.9,0.6,3.3,1.7,4.4C95,8.4,96.6,9,98.6,9L98.6,9z M118.8,8.7V6.5 h-6.9v-14h-2.7V8.7H118.8L118.8,8.7z M127.2,8.7v-14h4.8v-2.3h-12.2v2.3h4.8v14H127.2z M137.2,8.7V-7.5h-2.7V8.7H137.2L137.2,8.7z M143.9,8.7V0.8c0-1.8-0.1-3.7-0.2-5.7h0.1l4.7,13.6h2.3l4.9-13.6h0.1c0,0.3-0.1,1.1-0.1,2.4c0,1.3-0.1,2.4-0.1,3.2v8h2.6V-7.5 h-3.8l-4.6,12.9h-0.1l-4.5-12.9h-3.7V8.7H143.9L143.9,8.7z M163.1,8.7l1.6-4.5h6.2l1.6,4.5h2.8l-6.1-16.3h-2.9l-6.1,16.3H163.1z M170.2,1.9h-4.7l1.5-4.2c0.4-1.1,0.7-2.1,0.9-3c0.1,0.3,0.2,0.8,0.4,1.4c0.2,0.6,0.3,1.1,0.5,1.4L170.2,1.9z M188,8.7 c2.8,0,5-0.7,6.4-2.1c1.5-1.4,2.2-3.5,2.2-6.2c0-2.5-0.7-4.5-2.2-5.9c-1.4-1.4-3.5-2.1-6-2.1h-5V8.7H188z M188,6.5h-1.9V-5.3h2.3 c3.6,0,5.5,1.9,5.5,5.8C193.9,4.5,191.9,6.5,188,6.5z M200.8,8.7l1.6-4.5h6.2l1.6,4.5h2.8L207-7.6h-2.9L198,8.7L200.8,8.7 L200.8,8.7z M207.9,1.9h-4.7l1.5-4.2c0.4-1.1,0.7-2.1,0.9-3c0.1,0.3,0.2,0.8,0.4,1.4c0.2,0.6,0.3,1.1,0.5,1.4L207.9,1.9z M220.9,8.7v-14h4.8v-2.3h-12.2v2.3h4.8v14H220.9z M228.8,8.7l1.6-4.5h6.2l1.6,4.5h2.8L235-7.6h-2.9L226,8.7H228.8z M235.9,1.9 h-4.7l1.5-4.2c0.4-1.1,0.7-2.1,0.9-3c0.1,0.3,0.2,0.8,0.4,1.4c0.2,0.6,0.4,1.1,0.5,1.4L235.9,1.9z M251.8,8.7V2.7h1.7 c2.1,0,3.6-0.5,4.8-1.4c1.1-0.9,1.7-2.2,1.7-3.9c0-1.6-0.5-2.8-1.5-3.7c-1-0.8-2.5-1.2-4.6-1.2h-4.7V8.7H251.8z M253.2,0.4h-1.4 v-5.7h1.8c1.2,0,2.1,0.2,2.7,0.7c0.6,0.5,0.9,1.2,0.9,2.1c0,1-0.3,1.8-1,2.2C255.5,0.2,254.5,0.4,253.2,0.4z M272.7,8.7V6.5h-6.9 v-14h-2.7V8.7H272.7z M276.1,8.7l1.6-4.5h6.2l1.6,4.5h2.8l-6.1-16.3h-2.9l-6.1,16.3H276.1z M283.2,1.9h-4.7l1.5-4.2 c0.4-1.1,0.7-2.1,0.9-3c0.1,0.3,0.2,0.8,0.4,1.4c0.2,0.6,0.4,1.1,0.5,1.4L283.2,1.9L283.2,1.9z M292.9,8.7V0.3 c0-1.1-0.1-2.4-0.2-3.8l-0.1-0.7h0.1l8,13h3.3V-7.5h-2.4V1c0,0.6,0,1.4,0.1,2.5c0,1.1,0.1,1.7,0.1,1.9h-0.1l-8-12.9h-3.2V8.7H292.9 L292.9,8.7z M317.6,8.7V6.5H311V1.4h6.1v-2.2H311v-4.4h6.5v-2.2h-9.2V8.7H317.6z"></path> </g> </svg> 