<?xml version="1.0" encoding="UTF-8"?> <svg xmlns="http://www.w3.org/2000/svg" xmlns:xlink="http://www.w3.org/1999/xlink" width="534px" height="336px" viewBox="0 0 534 336" version="1.1"><title>Untima_plane</title><defs><linearGradient x1="51.0708023%" y1="37.3845659%" x2="49.1591687%" y2="59.6734127%" id="linearGradient-1"><stop stop-color="#3399CC" offset="0%"></stop><stop stop-color="#2F8FBF" offset="18%"></stop><stop stop-color="#25739D" offset="52%"></stop><stop stop-color="#164765" offset="98%"></stop><stop stop-color="#154563" offset="100%"></stop></linearGradient><linearGradient x1="50.2836462%" y1="13.961265%" x2="50.2836462%" y2="80.7029218%" id="linearGradient-2"><stop stop-color="#FAAF40" offset="0%"></stop><stop stop-color="#FABE3C" offset="23%"></stop><stop stop-color="#F9EC31" offset="100%"></stop></linearGradient><linearGradient x1="51.0106328%" y1="86.0346585%" x2="51.0106328%" y2="19.266055%" id="linearGradient-3"><stop stop-color="#FAAF40" offset="0%"></stop><stop stop-color="#FABE3C" offset="23%"></stop><stop stop-color="#F9EC31" offset="100%"></stop></linearGradient><linearGradient x1="50.6604017%" y1="13.929078%" x2="50.6604017%" y2="80.6524823%" id="linearGradient-4"><stop stop-color="#FAAF40" offset="0%"></stop><stop stop-color="#FABE3C" offset="23%"></stop><stop stop-color="#F9EC31" offset="100%"></stop></linearGradient><linearGradient x1="50.6154312%" y1="86.1461624%" x2="50.6154312%" y2="19.4236355%" id="linearGradient-5"><stop stop-color="#FAAF40" offset="0%"></stop><stop stop-color="#FABE3C" offset="23%"></stop><stop stop-color="#F9EC31" offset="100%"></stop></linearGradient><linearGradient x1="49.95254%" y1="13.9613083%" x2="49.95254%" y2="80.7031721%" id="linearGradient-6"><stop stop-color="#FAAF40" offset="0%"></stop><stop stop-color="#FABE3C" offset="23%"></stop><stop stop-color="#F9EC31" offset="100%"></stop></linearGradient><linearGradient x1="51.0587946%" y1="85.9375%" x2="51.0587946%" y2="19.1915761%" id="linearGradient-7"><stop stop-color="#FAAF40" offset="0%"></stop><stop stop-color="#FABE3C" offset="23%"></stop><stop stop-color="#F9EC31" offset="100%"></stop></linearGradient><linearGradient x1="-10.9018599%" y1="29.0300467%" x2="49.892775%" y2="50.9038785%" id="linearGradient-8"><stop stop-color="#FAAF40" offset="0%"></stop><stop stop-color="#FABE3C" offset="15%"></stop><stop stop-color="#F9EC31" offset="62%"></stop></linearGradient><linearGradient x1="0%" y1="50.023596%" x2="100%" y2="50.023596%" id="linearGradient-9"><stop stop-color="#175688" offset="0%"></stop><stop stop-color="#52B4FF" offset="100%"></stop></linearGradient><linearGradient x1="0%" y1="49.976404%" x2="100%" y2="49.976404%" id="linearGradient-10"><stop stop-color="#175688" offset="0%"></stop><stop stop-color="#52B4FF" offset="100%"></stop></linearGradient></defs><g id="Homepage-Rearrangement" stroke="none" stroke-width="1" fill="none" fill-rule="evenodd"><g id="Graphics" transform="translate(-146.000000, -657.000000)"><g id="Untima_plane" transform="translate(146.000000, 657.000000)"><polygon id="Path" fill="#154563" fill-rule="nonzero" points="267.493723 295.057297 39.8745985 162.330811 39.8745985 165.781622 267.493723 298.508108 491.851679 167.338378 491.851679 163.887568"></polygon><polygon id="Path" fill="url(#linearGradient-1)" fill-rule="nonzero" points="491.851679 163.848649 266.480292 33.132973 39.8745985 162.291892 267.493723 295.018378"></polygon><g id="mesh" opacity="0.2" stroke="#FFFFFF" stroke-width="0.6"><g id="Group"><polygon id="Path" points="531.609343 334.897297 532.791679 334.222703 532.791679 332.017297 531.609343 332.691892"></polygon><polygon id="Path" points="532.142044 333.859459 531.73927 334.092973 531.73927 334.676757 532.661752 334.157838 532.661752 334.157838"></polygon><polygon id="Path" points="531.73927 332.756757 531.73927 334.092973 532.142044 333.859459 532.142044 332.523243 532.012117 332.601081"></polygon><polygon id="Path" points="531.73927 332.964324 531.73927 333.898378 532.012117 333.742703 532.012117 332.808649"></polygon><polygon id="Path" points="532.661752 333.561081 532.661752 332.237838 532.142044 332.523243 532.142044 333.859459 532.661752 334.157838"></polygon><line x1="43.0318248" y1="167.584865" x2="331.443796" y2="334.352432" id="Path"></line><line x1="49.6581022" y1="156.752432" x2="340.746569" y2="325.063784" id="Path"></line><line x1="61.6243796" y1="149.020541" x2="350.03635" y2="315.788108" id="Path"></line><line x1="70.9271533" y1="139.731892" x2="359.339124" y2="306.499459" id="Path"></line><line x1="80.2169343" y1="130.456216" x2="368.628905" y2="297.223784" id="Path"></line><line x1="89.519708" y1="121.167568" x2="377.931679" y2="287.935135" id="Path"></line><line x1="98.8094891" y1="111.891892" x2="387.22146" y2="278.659459" id="Path"></line><line x1="108.112263" y1="102.603243" x2="396.524234" y2="269.370811" id="Path"></line><line x1="117.402044" y1="93.3275676" x2="405.814015" y2="260.095135" id="Path"></line><line x1="126.704818" y1="84.0389189" x2="415.116788" y2="250.806486" id="Path"></line><line x1="135.994599" y1="74.7632432" x2="424.406569" y2="241.530811" id="Path"></line><line x1="145.297372" y1="65.4745946" x2="433.709343" y2="232.242162" id="Path"></line><line x1="154.587153" y1="56.1859459" x2="442.999124" y2="222.966486" id="Path"></line><line x1="163.889927" y1="46.9102703" x2="452.301898" y2="213.677838" id="Path"></line><line x1="173.179708" y1="37.6216216" x2="461.604672" y2="204.389189" id="Path"></line><line x1="182.482482" y1="28.3459459" x2="470.894453" y2="195.113514" id="Path"></line><line x1="191.772263" y1="19.0572973" x2="480.197226" y2="185.824865" id="Path"></line><line x1="201.075036" y1="9.78162162" x2="489.487007" y2="176.549189" id="Path"></line><line x1="210.364818" y1="0.492972973" x2="498.789781" y2="167.260541" id="Path"></line><polygon id="Path" points="1.7020438 334.391351 0.519708029 333.716757 0.519708029 331.498378 1.7020438 332.172973"></polygon><polygon id="Path" points="1.16934307 333.353514 1.57211679 333.574054 1.57211679 334.170811 0.649635036 333.638919 0.649635036 333.638919"></polygon><polygon id="Path" points="1.57211679 332.250811 1.57211679 333.574054 1.16934307 333.353514 1.16934307 332.017297 1.29927007 332.095135"></polygon><polygon id="Path" points="1.57211679 332.445405 1.57211679 333.392432 1.29927007 333.236757 1.29927007 332.28973"></polygon><polygon id="Path" points="0.649635036 333.055135 0.649635036 331.718919 1.16934307 332.017297 1.16934307 333.353514 0.649635036 333.638919"></polygon><line x1="490.279562" y1="167.065946" x2="201.867591" y2="333.833514" id="Path"></line><line x1="480.976788" y1="157.79027" x2="192.564818" y2="324.557838" id="Path"></line><line x1="471.687007" y1="148.501622" x2="183.275036" y2="315.269189" id="Path"></line><line x1="462.384234" y1="139.225946" x2="173.972263" y2="305.993514" id="Path"></line><line x1="453.094453" y1="129.937297" x2="164.682482" y2="296.704865" id="Path"></line><line x1="443.791679" y1="120.661622" x2="155.379708" y2="287.429189" id="Path"></line><line x1="434.501898" y1="111.372973" x2="146.089927" y2="278.140541" id="Path"></line><line x1="425.199124" y1="102.097297" x2="136.787153" y2="268.864865" id="Path"></line><line x1="415.909343" y1="92.8086486" x2="127.48438" y2="259.576216" id="Path"></line><line x1="406.606569" y1="83.532973" x2="118.194599" y2="250.300541" id="Path"></line><line x1="397.316788" y1="74.2443243" x2="108.891825" y2="241.011892" id="Path"></line><line x1="388.014015" y1="64.9686486" x2="99.6020438" y2="231.736216" id="Path"></line><line x1="378.724234" y1="55.68" x2="90.2992701" y2="222.447568" id="Path"></line><line x1="369.42146" y1="46.4043243" x2="81.0094891" y2="213.171892" id="Path"></line><line x1="360.131679" y1="37.1156757" x2="71.7067153" y2="203.883243" id="Path"></line><line x1="350.828905" y1="27.84" x2="62.4169343" y2="194.607568" id="Path"></line><line x1="341.539124" y1="18.5513514" x2="53.1141606" y2="185.318919" id="Path"></line><line x1="332.23635" y1="9.27567568" x2="43.8243796" y2="176.043243" id="Path"></line></g><polygon id="Path" points="266.220438 32.7827027 491.851679 163.887568 267.493723 295.057297 39.8745985 162.330811"></polygon></g><polygon id="Path" fill="#FFFFFF" fill-rule="nonzero" points="108.385109 162.188108 112.062044 163.952432 111.113577 169.362162 83.2052555 171.100541 86.9341606 155.234595 96.7306569 155.014054 106.436204 160.942703 105.825547 166.041081 91.5725547 166.144865 91.559562 164.432432 102.031679 164.263784 102.395474 161.785946 95.2105109 157.388108 90.7540146 157.388108 88.1944526 167.987027 107.657518 167.312432"></polygon><path d="M249.87562,242.594595 L234.492263,262.196757 L230.204672,259.718919 L234.531241,254.361081 L225.09854,248.912432 L215.886715,251.507027 L211.638102,249.081081 L245.484088,240.12973 L249.87562,242.594595 Z M229.749927,247.589189 L236.934891,251.740541 L241.287445,246.551351 C241.573285,246.188108 242.041022,245.643243 242.690657,244.916757 C243.366277,244.19027 243.86,243.619459 244.19781,243.334054 C242.521752,243.956757 240.572847,244.631351 238.351095,245.189189 L229.749927,247.602162" id="Shape" fill="#FFFFFF" fill-rule="nonzero"></path><g id="Group" transform="translate(155.912409, 198.486486)" fill="#FFFFFF" fill-rule="nonzero"><polygon id="Path" points="36.2366423 10.9491892 32.7935766 12.947027 25.5176642 8.75675676 4.45649635 20.9772973 0.428759124 18.6551351 21.489927 6.43459459 14.24 2.2572973 17.6830657 0.246486486"></polygon><polygon id="Path" points="44.3830657 15.6454054 19.8788321 29.8637838 15.8381022 27.5416216 40.3553285 13.3232432"></polygon><path d="M76.6569343,34.2486486 L52.139708,48.5189189 L48.2418978,46.2745946 L60.3640876,39.2562162 C61.5854015,38.5427027 63.1964964,37.6345946 65.210365,36.5448649 C67.2242336,35.4551351 68.4715328,34.7935135 68.9262774,34.572973 L68.7963504,34.4821622 L40.9529927,42.0713514 L37.3929927,40.0216216 L50.6715328,23.9740541 L50.5286131,23.8962162 C47.6875426,25.7643243 44.93309,27.4940541 42.2652555,29.0854054 L30.3509489,36 L26.6870073,33.8854054 L51.2042336,19.6151351 L56.8950365,22.8972973 L44.2271533,38.1535135 L44.3440876,38.1535135 L70.8881752,30.9016216 L76.6569343,34.2486486 Z" id="Path"></path></g><path d="M150.62438,185.513514 L134.760292,194.711351 C132.933615,195.77143 130.92396,196.479902 128.83562,196.8 C126.67834,197.130071 124.479925,197.081779 122.33927,196.657297 C120.08479,196.21358 117.920049,195.398102 115.933869,194.244324 C112.880584,192.48 111.308467,190.624865 111.217518,188.717838 C111.126569,186.810811 112.516788,185.033514 115.310219,183.398919 L131.109343,174.227027 L135.124088,176.562162 L119.610803,185.513514 C117.583942,186.694054 116.570511,187.835676 116.544526,188.925405 C116.51854,190.015135 117.492993,191.156757 119.454891,192.272432 C123.053991,194.485993 127.609608,194.425344 131.148321,192.116757 L146.622628,183.126486 L150.62438,185.513514 Z" id="Path" fill="#FFFFFF" fill-rule="nonzero"></path><polygon id="Path" fill="#FFFFFF" fill-rule="nonzero" points="161.317372 191.662703 140.243212 203.883243 150.689343 209.915676 147.25927 211.900541 132.772409 203.558919 157.289635 189.327568"></polygon><g id="Group" opacity="0.37" style="mix-blend-mode: multiply;" transform="translate(220.875912, 62.270270)" fill="#336699" fill-rule="nonzero"><path d="M46.5918248,49.6605405 C45.1787275,50.3748908 43.5094477,50.3748908 42.0963504,49.6605405 L1.96189781,26.5167568 C1.39695327,26.3361609 1.01363362,25.8117505 1.01363362,25.2194595 C1.01363362,24.6271684 1.39695327,24.102758 1.96189781,23.9221622 L42.0963504,0.778378378 C43.5094477,0.0640280948 45.1787275,0.0640280948 46.5918248,0.778378378 L86.7392701,23.9221622 C87.2907208,24.1157402 87.6597147,24.6358092 87.6597147,25.2194595 C87.6597147,25.8031097 87.2907208,26.3231787 86.7392701,26.5167568 L46.5918248,49.6605405 Z" id="Path"></path></g><g id="Group" opacity="0.37" style="mix-blend-mode: multiply;" transform="translate(171.503650, 90.810811)" fill="#336699" fill-rule="nonzero"><path d="M45.6173723,49.6994595 C44.2042749,50.4138097 42.5349952,50.4138097 41.1218978,49.6994595 L0.987445255,26.5556757 C0.422500717,26.3750798 0.0391810636,25.8506695 0.0391810636,25.2583784 C0.0391810636,24.6660873 0.422500717,24.141677 0.987445255,23.9610811 L41.1218978,0.83027027 C42.5349952,0.115919987 44.2042749,0.115919987 45.6173723,0.83027027 L85.7518248,23.9610811 C86.3167694,24.141677 86.700089,24.6660873 86.700089,25.2583784 C86.700089,25.8506695 86.3167694,26.3750798 85.7518248,26.5556757 L45.6173723,49.6994595 Z" id="Path"></path></g><g id="Group" opacity="0.37" style="mix-blend-mode: multiply;" transform="translate(119.532847, 119.351351)" fill="#336699" fill-rule="nonzero"><path d="M45.5913869,50.2962162 C44.1782895,51.0105665 42.5090098,51.0105665 41.0959124,50.2962162 L0.948467153,27.1654054 C0.397016389,26.9718274 0.0280225486,26.4517584 0.0280225486,25.8681081 C0.0280225486,25.2844578 0.397016389,24.7643888 0.948467153,24.5708108 L41.0959124,1.42702703 C42.5090098,0.712676743 44.1782895,0.712676743 45.5913869,1.42702703 L85.7518248,24.5708108 C86.3167694,24.7514067 86.700089,25.275817 86.700089,25.8681081 C86.700089,26.4603992 86.3167694,26.9848095 85.7518248,27.1654054 L45.5913869,50.2962162 Z" id="Path"></path></g><path d="M261.737956,89.3448649 L260.009927,91.0702703 L260.009927,51.0875676 C260.009927,50.3710901 259.428224,49.7902703 258.710657,49.7902703 C257.99309,49.7902703 257.411387,50.3710901 257.411387,51.0875676 C257.411387,53.2540541 257.411387,82.8972973 257.411387,85.0637838 L257.411387,91.0702703 C256.839708,90.4994595 256.268029,89.9156757 255.683358,89.3448649 C255.170297,88.8325834 254.338462,88.8325834 253.825401,89.3448649 C253.312341,89.8571463 253.312341,90.6877186 253.825401,91.2 L257.801168,95.1697297 L257.801168,95.1697297 L257.801168,95.1697297 C258.023845,95.3939402 258.329581,95.5160491 258.645693,95.507027 L258.736642,95.507027 C259.04772,95.5095117 259.346967,95.3881271 259.568175,95.1697297 L259.568175,95.1697297 L259.568175,95.1697297 L263.543942,91.2 C263.993771,90.6916852 263.975475,89.9231723 263.501963,89.4367737 C263.028451,88.9503751 262.259598,88.9103161 261.737956,89.3448649 Z" id="Path" fill="url(#linearGradient-2)" fill-rule="nonzero"></path><g id="Group" opacity="0.37" style="mix-blend-mode: multiply;" transform="translate(278.043796, 210.162162)" fill="#336699" fill-rule="nonzero"><path d="M133.512993,78.252973 C131.958339,79.0453628 130.117428,79.0453628 128.562774,78.252973 L107.267737,65.9027027 C105.734522,65.0976667 103.902705,65.0976667 102.369489,65.9027027 L85.8817518,76.0735135 C84.3567862,76.903098 82.5210777,76.932192 80.9705109,76.1513514 L1.29927007,30.4605405 C0.694532684,30.2494238 0.289543825,29.6796623 0.289543825,29.04 C0.289543825,28.4003377 0.694532684,27.8305762 1.29927007,27.6194595 L46.539854,1.67351351 C48.0884,0.874828901 49.9285343,0.874828901 51.4770803,1.67351351 L155.106861,62.9059459 C155.711715,63.131153 156.112779,63.7078732 156.112779,64.3524324 C156.112779,64.9969917 155.711715,65.5737119 155.106861,65.7989189 L133.512993,78.252973 Z" id="Path"></path></g><path d="M267.467737,56.4843243 C266.05464,57.1986746 264.38536,57.1986746 262.972263,56.4843243 L222.83781,33.3405405 C222.272866,33.1599447 221.889546,32.6355343 221.889546,32.0432432 C221.889546,31.4509522 222.272866,30.9265418 222.83781,30.7459459 L262.972263,7.61513514 C264.38536,6.90078485 266.05464,6.90078485 267.467737,7.61513514 L307.615182,30.7459459 C308.166633,30.939524 308.535627,31.459593 308.535627,32.0432432 C308.535627,32.6268935 308.166633,33.1469625 307.615182,33.3405405 L267.467737,56.4843243 Z" id="Path" fill="#FFFFFF" fill-rule="nonzero"></path><path d="M267.467737,56.4843243 C266.05464,57.1986746 264.38536,57.1986746 262.972263,56.4843243 L222.83781,33.3405405 C222.272866,33.1599447 221.889546,32.6355343 221.889546,32.0432432 C221.889546,31.4509522 222.272866,30.9265418 222.83781,30.7459459 L262.972263,7.61513514 C264.38536,6.90078485 266.05464,6.90078485 267.467737,7.61513514 L307.615182,30.7459459 C308.166633,30.939524 308.535627,31.459593 308.535627,32.0432432 C308.535627,32.6268935 308.166633,33.1469625 307.615182,33.3405405 L267.467737,56.4843243 Z" id="Path" stroke="#5CA1FF" stroke-width="0.59"></path><polygon id="Path" fill="#CECDCA" fill-rule="nonzero" points="260.50365 39.8918919 255.592409 31.4075676 260.50365 22.9232432 270.300146 22.9232432 275.211387 31.4075676 270.300146 39.8918919"></polygon><path d="M261.335182,38.8151351 L256.969635,31.3816216 L254.578978,27.2432432 C254.40449,26.9031955 254.328023,26.5214397 254.358102,26.1405405 L251.850511,30.4735135 C251.551497,31.0695683 251.551497,31.7715128 251.850511,32.3675676 L257.892117,42.8237838 C258.256959,43.3803557 258.864153,43.731609 259.529197,43.7708108 L266.727153,43.7708108 C267.006506,43.6131571 267.239486,43.3850044 267.402774,43.1091892 L269.871387,38.7632432 L261.335182,38.8151351 Z" id="Path" fill="#F3B41A" fill-rule="nonzero"></path><polygon id="Path" fill="#DC462F" fill-rule="nonzero" points="279.304088 30.5254054 273.262482 20.0821622 275.718102 24.3243243"></polygon><path d="M279.343066,30.5254054 L275.75708,24.3243243 C275.462073,24.1335316 275.12088,24.0259501 274.769635,24.012973 L269.858394,24.012973 L274.068029,31.4205405 L269.871387,38.8151351 L267.402774,43.1610811 C267.239486,43.4368963 267.006506,43.665049 266.727153,43.8227027 L271.612409,43.8227027 C272.280915,43.783461 272.892056,43.4327088 273.262482,42.8756757 L275.666131,38.7113514 L279.343066,32.4324324 C279.646437,31.8328423 279.646437,31.1249955 279.343066,30.5254054 L279.343066,30.5254054 Z" id="Path" fill="#DC462F" fill-rule="nonzero"></path><path d="M273.262482,20.0821622 C272.892056,19.5251291 272.280915,19.1743769 271.612409,19.1351351 L259.529197,19.1351351 C258.864153,19.174337 258.256959,19.5255902 257.892117,20.0821622 L254.358102,26.1924324 C254.328023,26.5733316 254.40449,26.9550874 254.578978,27.2951351 L256.969635,31.3816216 L261.231241,24.012973 L274.730657,24.012973 C275.081902,24.0259501 275.423095,24.1335316 275.718102,24.3243243 L273.262482,20.0821622 Z" id="Path" fill="#517DBE" fill-rule="nonzero"></path><polygon id="Path" fill="#CECDCA" fill-rule="nonzero" points="256.969635 31.3816216 261.335182 38.8151351 269.871387 38.8151351 274.068029 31.4205405 269.858394 24.012973 261.231241 24.012973"></polygon><path d="M254.514015,25.9459459 L254.358102,26.2183784 C254.321437,26.5996402 254.398271,26.9832277 254.578978,27.3210811 L256.969635,31.4075676 L258.268905,29.2021622 L254.514015,25.9459459 Z" id="Path" fill="#4F71A8" fill-rule="nonzero"></path><path d="M275.874015,24.6486486 L275.718102,24.3632432 C275.423095,24.1724505 275.081902,24.064869 274.730657,24.0518919 L269.858394,24.0518919 L271.157664,26.2832432 L275.874015,24.6486486 Z" id="Path" fill="#C2432F" fill-rule="nonzero"></path><path d="M266.350365,43.8227027 L266.766131,43.8227027 C267.051778,43.668959 267.289899,43.4401725 267.454745,43.1610811 L269.923358,38.8151351 L267.324818,38.8151351 L266.350365,43.8227027 Z" id="Path" fill="#D09C2A" fill-rule="nonzero"></path><path d="M265.570803,35.2735135 C263.461156,35.2735135 261.750949,33.5659033 261.750949,31.4594595 C261.750949,29.3530156 263.461156,27.6454054 265.570803,27.6454054 C267.68045,27.6454054 269.390657,29.3530156 269.390657,31.4594595 C269.383528,33.5629477 267.67749,35.266395 265.570803,35.2735135 L265.570803,35.2735135 Z" id="Path" fill="#FFFFFF" fill-rule="nonzero"></path><path d="M265.570803,27.6972973 C267.651747,27.6972973 269.338686,29.3816747 269.338686,31.4594595 C269.338686,33.5372442 267.651747,35.2216216 265.570803,35.2216216 C263.489858,35.2216216 261.80292,33.5372442 261.80292,31.4594595 C261.80292,29.3816747 263.489858,27.6972973 265.570803,27.6972973 M265.570803,27.5935135 C263.418102,27.5935135 261.672993,29.3359729 261.672993,31.4854054 C261.672993,33.6348379 263.418102,35.3772973 265.570803,35.3772973 C267.723504,35.3772973 269.468613,33.6348379 269.468613,31.4854054 C269.468613,29.3359729 267.723504,27.5935135 265.570803,27.5935135 L265.570803,27.5935135 Z" id="Shape" fill="#C9C7C5" fill-rule="nonzero"></path><path d="M274.418832,62.892973 L272.690803,61.1675676 L272.690803,67.1740541 C272.690803,69.3405405 272.690803,91.4594595 272.690803,93.6259459 C272.690803,94.3424235 272.1091,94.9232432 271.391533,94.9232432 C270.673966,94.9232432 270.092263,94.3424235 270.092263,93.6259459 L270.092263,67.1740541 C270.092263,65.1762162 270.092263,63.1783784 270.092263,61.1675676 L268.377226,62.9059459 C267.860578,63.4218097 267.022926,63.4218096 266.506277,62.9059458 C265.989629,62.3900821 265.989629,61.5537017 266.506277,61.0378378 L270.443066,57.0810811 L270.443066,57.0810811 L270.443066,57.0810811 C270.667322,56.867345 270.964592,56.7467623 271.274599,56.7437838 L271.365547,56.7437838 C271.678563,56.7509413 271.978463,56.870719 272.210073,57.0810811 L272.210073,57.0810811 L272.210073,57.0810811 L276.185839,61.0508108 C276.550964,61.5583487 276.50182,62.2536694 276.068925,62.7049756 C275.636031,63.1562818 274.942422,63.2353057 274.418832,62.892973 L274.418832,62.892973 Z" id="Path" fill="url(#linearGradient-3)" fill-rule="nonzero"></path><path d="M211.573139,121.206486 C211.00146,121.777297 210.416788,122.348108 209.845109,122.931892 L209.845109,116.925405 C209.845109,114.758919 209.845109,85.1027027 209.845109,82.9491892 C209.845109,82.2327117 209.263406,81.6518919 208.545839,81.6518919 C207.828272,81.6518919 207.246569,82.2327117 207.246569,82.9491892 L207.246569,122.931892 C206.661898,122.361081 206.090219,121.79027 205.51854,121.206486 C205.00548,120.690623 204.170736,120.687719 203.654088,121.2 C203.137439,121.712281 203.134531,122.545758 203.647591,123.061622 L207.623358,127.031351 L207.623358,127.031351 L207.623358,127.031351 C207.843247,127.253297 208.142232,127.37924 208.454891,127.381622 L208.558832,127.381622 C208.869023,127.367824 209.164009,127.243566 209.390365,127.031351 L209.390365,127.031351 L213.366131,123.061622 C213.787049,122.552781 213.758286,121.809507 213.2993,121.334614 C212.840315,120.85972 212.097405,120.804576 211.573139,121.206486 L211.573139,121.206486 Z" id="Path" fill="url(#linearGradient-4)" fill-rule="nonzero"></path><path d="M224.254015,94.7027027 L222.525985,92.9772973 C222.525985,94.9751351 222.525985,96.972973 222.525985,98.9708108 L222.525985,125.435676 C222.525985,126.152153 221.944282,126.732973 221.226715,126.732973 C220.509148,126.732973 219.927445,126.152153 219.927445,125.435676 C219.927445,123.269189 219.927445,101.137297 219.927445,98.9837838 L219.927445,92.9772973 L218.173431,94.7027027 C217.66037,95.2149841 216.828535,95.2149841 216.315474,94.7027027 C215.802414,94.1904213 215.802414,93.359849 216.315474,92.8475676 L220.213285,88.8778378 L220.213285,88.8778378 L220.213285,88.8778378 C220.43475,88.6582285 220.732735,88.5327072 221.044818,88.5275676 L221.148759,88.5275676 C221.460967,88.5190211 221.762508,88.641336 221.980292,88.8648649 L221.980292,88.8648649 L221.980292,88.8648649 L225.969051,92.7567568 C226.470678,93.2378428 226.503891,94.0280437 226.044397,94.5494034 C225.584902,95.0707631 224.7957,95.1383377 224.254015,94.7027027 Z" id="Path" fill="url(#linearGradient-5)" fill-rule="nonzero"></path><path d="M159.57635,148.761081 C159.004672,149.344865 158.42,149.915676 157.848321,150.486486 L157.848321,144.48 C157.848321,142.326486 157.848321,112.67027 157.848321,110.503784 C157.848321,109.787306 157.266618,109.206486 156.549051,109.206486 C155.831484,109.206486 155.249781,109.787306 155.249781,110.503784 L155.249781,144.48 C155.249781,146.490811 155.249781,148.488649 155.249781,150.486486 L153.521752,148.761081 C153.008691,148.2488 152.176856,148.2488 151.663796,148.761081 C151.150735,149.273363 151.150735,150.103935 151.663796,150.616216 L155.639562,154.585946 L155.639562,154.585946 L155.639562,154.585946 C155.863105,154.808848 156.168252,154.930722 156.484088,154.923568 L156.575036,154.923568 C156.886114,154.925728 157.185361,154.804343 157.406569,154.585946 L157.406569,154.585946 L157.406569,154.585946 L161.382336,150.694054 C161.916923,150.196102 161.946008,149.359722 161.447299,148.825946 C160.94859,148.29217 160.110938,148.263129 159.57635,148.761081 Z" id="Path" fill="url(#linearGradient-6)" fill-rule="nonzero"></path><path d="M172.257226,122.309189 L170.529197,120.648649 C170.529197,122.659459 170.529197,124.657297 170.529197,126.655135 L170.529197,153.081081 C170.529197,153.797559 169.947494,154.378378 169.229927,154.378378 C168.51236,154.378378 167.930657,153.797559 167.930657,153.081081 L167.930657,120.648649 L166.202628,122.374054 C165.689567,122.889918 164.854823,122.892822 164.338175,122.380541 C163.821527,121.868259 163.818618,121.034783 164.331679,120.518919 L168.307445,116.536216 L168.307445,116.536216 L168.307445,116.536216 C168.527335,116.31427 168.826319,116.188328 169.138978,116.185946 L169.24292,116.185946 C169.555002,116.191086 169.852987,116.316607 170.074453,116.536216 L170.074453,116.536216 L174.050219,120.505946 C174.39077,121.018852 174.32357,121.700078 173.889343,122.136787 C173.455116,122.573497 172.773358,122.645511 172.257226,122.309189 L172.257226,122.309189 Z" id="Path" fill="url(#linearGradient-7)" fill-rule="nonzero"></path><path d="M165.124234,115.459459 C163.711136,116.17381 162.041856,116.17381 160.628759,115.459459 L120.481314,92.3286486 C119.929863,92.1350706 119.560869,91.6150016 119.560869,91.0313514 C119.560869,90.4477011 119.929863,89.9276321 120.481314,89.7340541 L160.628759,66.5902703 C162.041856,65.87592 163.711136,65.87592 165.124234,66.5902703 L205.284672,89.772973 C205.849616,89.9535688 206.232936,90.4779792 206.232936,91.0702703 C206.232936,91.6625613 205.849616,92.1869717 205.284672,92.3675676 L165.124234,115.459459 Z" id="Path" fill="#FFFFFF" fill-rule="nonzero"></path><path d="M165.124234,115.459459 C163.711136,116.17381 162.041856,116.17381 160.628759,115.459459 L120.481314,92.3286486 C119.929863,92.1350706 119.560869,91.6150016 119.560869,91.0313514 C119.560869,90.4477011 119.929863,89.9276321 120.481314,89.7340541 L160.628759,66.5902703 C162.041856,65.87592 163.711136,65.87592 165.124234,66.5902703 L205.284672,89.772973 C205.849616,89.9535688 206.232936,90.4779792 206.232936,91.0702703 C206.232936,91.6625613 205.849616,92.1869717 205.284672,92.3675676 L165.124234,115.459459 Z" id="Path" stroke="#5CA1FF" stroke-width="0.59"></path><g id="layer1" transform="translate(137.722628, 81.729730)" fill="#0089D6" fill-rule="nonzero"><g id="layer1-1"><path d="M9.61459854,13.8681081 L14.0970803,13.0767568 L14.0970803,13.0767568 L11.8363504,10.3783784 L9.53664234,7.62810811 C9.53664234,7.62810811 11.9143066,1.06378378 11.9272993,1.03783784 C11.940292,1.01189189 13.5513869,3.82702703 15.8251095,7.80972973 C17.9818978,11.5459459 19.7229197,14.6205405 19.7878832,14.6464865 L19.7878832,14.6464865 L5.19708029,14.6464865 L9.61459854,13.8681081 Z M37.7308029,13.2064865 C36.6822403,13.1931896 35.8295294,12.358916 35.7948905,11.3124324 C35.7311748,10.5223597 35.7311748,9.7284511 35.7948905,8.93837838 L35.7948905,6.95351351 L36.7823358,6.95351351 L36.7823358,8.87351351 C36.7468872,9.55629836 36.7468872,10.2404584 36.7823358,10.9232432 C36.8016502,11.3158319 36.9526687,11.6905202 37.2110949,11.987027 C37.3947822,12.1798961 37.6366207,12.3074659 37.899708,12.3502703 C38.1198161,12.3762764 38.3422277,12.3762764 38.5623358,12.3502703 C38.8479049,12.2937797 39.1102079,12.1537961 39.3159124,11.9481081 C39.5675715,11.6739197 39.7423545,11.3383089 39.8226277,10.9751351 L39.8226277,10.8454054 L39.8226277,6.95351351 L40.8230657,6.95351351 L40.8230657,13.0378378 L39.8226277,13.0378378 L39.8226277,12.0778378 C39.8226277,12.0778378 39.8226277,12.0778378 39.8226277,12.1686486 C39.6402323,12.4909986 39.3757877,12.759517 39.0560584,12.947027 C38.6557397,13.1522936 38.2046091,13.2378783 37.7567883,13.1935135 L37.7308029,13.2064865 Z M49.060438,13.2064865 C48.6497019,13.1787897 48.2523185,13.0495019 47.9040876,12.8302703 C47.1511856,12.3549223 46.6690077,11.5509079 46.6048175,10.6637838 C46.5726301,10.2969187 46.5726301,9.92794613 46.6048175,9.56108108 C46.6792553,8.91937565 46.9261776,8.30973123 47.3194161,7.79675676 C47.4490366,7.64136576 47.5925479,7.4980724 47.7481752,7.36864865 C48.0660588,7.11241772 48.4399706,6.93463481 48.839562,6.84972973 C49.1327321,6.81019025 49.4298957,6.81019025 49.7230657,6.84972973 C50.3288232,6.90151749 50.8893949,7.1907064 51.2821898,7.65405405 C51.7015101,8.20102516 51.9256066,8.87229404 51.9188321,9.56108108 L51.9188321,10.3135135 L47.5922628,10.3135135 L47.5922628,10.3783784 C47.601998,10.690321 47.668019,10.9979509 47.7871533,11.2864865 C47.8876757,11.5272134 48.0382469,11.7438835 48.2289051,11.9221622 C48.5342485,12.1888984 48.9162627,12.3523703 49.320292,12.3891892 C49.5581029,12.4084009 49.7970796,12.4084009 50.0348905,12.3891892 C50.5064451,12.3097256 50.9520129,12.1184224 51.3341606,11.8313514 L51.4381022,11.8313514 C51.4474521,11.9782302 51.4474521,12.1255536 51.4381022,12.2724324 L51.4381022,12.7394595 L51.3341606,12.7394595 C50.8887983,13.0032251 50.3931409,13.1711393 49.8789781,13.2324324 C49.5761341,13.2520727 49.272333,13.2520727 48.9694891,13.2324324 L49.060438,13.2064865 Z M50.9443796,9.31459459 C50.9440057,8.8340869 50.7631993,8.37118469 50.4376642,8.0172973 C50.2280121,7.81467824 49.9598266,7.68305839 49.6710949,7.64108108 C49.4770654,7.61521213 49.2804528,7.61521213 49.0864234,7.64108108 C48.7756967,7.6955204 48.4896301,7.84513728 48.2678832,8.06918919 C48.0272339,8.31028888 47.8450183,8.60316622 47.7351825,8.92540541 C47.6898903,9.06090761 47.6551399,9.19969816 47.6312409,9.34054054 L47.6312409,9.34054054 L50.9443796,9.34054054 L50.9443796,9.31459459 Z M21.619854,13.0248649 C21.619854,13.0248649 22.360438,11.0918919 23.2439416,8.75675676 L24.8810219,4.48864865 L25.920438,4.48864865 L25.920438,4.59243243 C26.0633577,4.9427027 29.1816058,13.0378378 29.1816058,13.0378378 L28.0642336,13.0378378 L27.6224818,11.8443243 L27.1677372,10.6508108 L23.5427737,10.6508108 L23.5427737,10.6508108 C23.5427737,10.6508108 23.3348905,11.2086486 23.1140146,11.8443243 L22.6982482,12.9989189 L22.139562,12.9989189 C21.9580961,13.0166185 21.7753345,13.0166185 21.5938686,12.9989189 L21.619854,13.0248649 Z M26.8818978,9.7427027 C26.8818978,9.7427027 26.570073,8.91243243 26.2062774,7.91351351 C25.893918,7.16996468 25.6291996,6.40734669 25.4137226,5.63027027 C25.4137226,5.48756757 25.4137226,5.48756757 25.4137226,5.63027027 C25.3941382,5.76652092 25.3637259,5.90099942 25.3227737,6.03243243 C25.3227737,6.03243243 24.9979562,6.95351351 24.6341606,7.93945946 L23.9715328,9.7427027 L26.9338686,9.7427027 L26.8818978,9.7427027 Z M29.5583942,12.8821622 L29.5583942,12.7264865 L31.3643796,10.2486486 L33.170365,7.78378378 L29.8832117,7.78378378 L29.8832117,6.96648649 L34.6125547,6.96648649 L34.6125547,7.23891892 L32.8065693,9.72972973 L31.0005839,12.2335135 L34.5605839,12.2335135 L34.5605839,13.0637838 L29.5454015,13.0637838 L29.5583942,12.8821622 Z M42.8109489,13.0378378 C42.8109489,13.0378378 42.8109489,11.6627027 42.8109489,9.97621622 L42.8109489,6.95351351 L43.7983942,6.95351351 L43.7983942,7.57621622 C43.7983942,7.92648649 43.7983942,8.19891892 43.7983942,8.19891892 L43.7983942,8.08216216 C43.914032,7.7565808 44.1055241,7.46310891 44.3570803,7.22594595 C44.5662112,7.01523328 44.8413514,6.88245077 45.1366423,6.84972973 C45.2443631,6.83429521 45.3537391,6.83429521 45.4614599,6.84972973 C45.6114389,6.81860589 45.7662254,6.81860589 45.9162044,6.84972973 L45.9162044,6.84972973 L45.9162044,7.86162162 L45.7992701,7.86162162 C45.5937051,7.76082384 45.3651089,7.71606912 45.1366423,7.73189189 C45.0026675,7.73005672 44.8698235,7.75658518 44.7468613,7.80972973 C44.4906575,7.90834224 44.2723291,8.08546465 44.1232117,8.31567568 C43.9049677,8.6754463 43.7675454,9.07823486 43.720438,9.49621622 C43.720438,9.57405405 43.720438,10.1578378 43.720438,11.3254054 L43.720438,13.0378378 L42.8759124,13.0378378 L42.8109489,13.0378378 Z M0.818540146,13.0378378 L3.23518248,8.86054054 L5.65182482,4.67027027 L8.47124088,2.32216216 L11.2906569,0 L11.2906569,0.103783784 C11.2906569,0.103783784 9.87445255,3.11351351 8.22437956,6.59027027 L5.19708029,12.972973 L0.831532847,12.972973 L0.818540146,13.0378378 Z" id="path21"></path></g></g><path d="M217.121022,86.3610811 C215.707925,87.0754314 214.038645,87.0754314 212.625547,86.3610811 L172.491095,63.2172973 C171.92615,63.0367014 171.542831,62.5122911 171.542831,61.92 C171.542831,61.3277089 171.92615,60.8032986 172.491095,60.6227027 L212.625547,37.4918919 C214.038645,36.7775416 215.707925,36.7775416 217.121022,37.4918919 L257.255474,60.6227027 C257.820419,60.8032986 258.203739,61.3277089 258.203739,61.92 C258.203739,62.5122911 257.820419,63.0367014 257.255474,63.2172973 L217.121022,86.3610811 Z" id="Path" fill="#FFFFFF" fill-rule="nonzero"></path><path d="M217.121022,86.3610811 C215.707925,87.0754314 214.038645,87.0754314 212.625547,86.3610811 L172.491095,63.2172973 C171.92615,63.0367014 171.542831,62.5122911 171.542831,61.92 C171.542831,61.3277089 171.92615,60.8032986 172.491095,60.6227027 L212.625547,37.4918919 C214.038645,36.7775416 215.707925,36.7775416 217.121022,37.4918919 L257.255474,60.6227027 C257.820419,60.8032986 258.203739,61.3277089 258.203739,61.92 C258.203739,62.5122911 257.820419,63.0367014 257.255474,63.2172973 L217.121022,86.3610811 Z" id="Path" stroke="#5CA1FF" stroke-width="0.59"></path><path d="M208.182044,60.972973 C208.175509,61.3190695 208.219273,61.6642832 208.311971,61.9978378 C208.415578,62.2777695 208.537094,62.5507644 208.675766,62.8151351 C208.731051,62.8949147 208.75845,62.9906678 208.753723,63.0875676 C208.737967,63.2252231 208.661812,63.3487878 208.545839,63.4248649 L207.818248,63.9048649 C207.732737,63.971254 207.627732,64.0077219 207.519416,64.0086486 C207.387169,64.0020926 207.262106,63.9465938 207.168613,63.852973 C207.014806,63.6834479 206.875716,63.5011695 206.752847,63.3081081 L206.402044,62.6335135 C205.579473,63.6514384 204.333747,64.2350834 203.023942,64.2162162 C202.176128,64.2636496 201.345609,63.9638046 200.724234,63.3859459 C199.528621,62.0663205 199.615411,60.0327412 200.919124,58.8194595 C201.718943,58.189242 202.721068,57.8710779 203.73854,57.9243243 C204.147675,57.9282951 204.555931,57.9629875 204.959854,58.0281081 C205.37562,58.0281081 205.817372,58.1708108 206.259124,58.2745946 L206.259124,57.4313514 C206.320261,56.7762366 206.129848,56.1223966 205.726423,55.6021622 C205.195269,55.1896783 204.524572,54.9990062 203.855474,55.0702703 C203.4176,55.0682501 202.981169,55.1205423 202.556204,55.2259459 C202.113061,55.3195014 201.678475,55.4496794 201.256934,55.6151351 L200.867153,55.7578378 L200.672263,55.7578378 C200.51635,55.7578378 200.438394,55.6410811 200.438394,55.3945946 L200.438394,54.8367568 C200.427953,54.6981575 200.45487,54.5592948 200.51635,54.4345946 C200.602001,54.3294088 200.714095,54.248824 200.841168,54.2010811 C201.298591,53.9693041 201.78301,53.7950036 202.283358,53.6821622 C202.868498,53.529144 203.471511,53.4549727 204.07635,53.4616216 C205.164415,53.3708741 206.245227,53.7057891 207.090657,54.3956757 C207.781469,55.1636667 208.124587,56.1820732 208.039124,57.2108108 L208.039124,60.972973 L208.182044,60.972973 Z M203.517664,62.7113514 C203.920635,62.708743 204.320306,62.6385779 204.7,62.5037838 C205.120029,62.3587929 205.495796,62.1086619 205.791387,61.7772973 C205.975945,61.5636162 206.109253,61.3107146 206.181168,61.0378378 C206.265372,60.7117074 206.304711,60.3756478 206.298102,60.0389189 L206.298102,59.5589189 C205.960292,59.4810811 205.609489,59.4162162 205.245693,59.3643243 C204.88666,59.3394693 204.526333,59.3394693 204.167299,59.3643243 C203.559973,59.3100756 202.952882,59.4708022 202.452263,59.8183784 C202.072508,60.1403703 201.861775,60.6185819 201.880584,61.1156757 C201.851199,61.5635039 202.006049,62.0039212 202.309343,62.3351351 C202.646471,62.6133395 203.083742,62.7400964 203.517664,62.6854054 L203.517664,62.7113514 Z M212.742482,64.0086486 C212.590052,64.023621 212.437434,63.9820611 212.313723,63.8918919 C212.189143,63.7675978 212.103384,63.6098618 212.066861,63.4378378 L209.36438,54.4864865 C209.31307,54.3349801 209.278222,54.1784047 209.260438,54.0194595 C209.247609,53.9428875 209.27166,53.8647555 209.325347,53.808597 C209.379035,53.7524386 209.456083,53.7248178 209.533285,53.7340541 L210.66365,53.7340541 C210.824249,53.7185774 210.985193,53.7599 211.118394,53.8508108 C211.233516,53.9782786 211.3101,54.1357128 211.33927,54.3048649 L213.275182,61.8940541 L215.068175,54.3048649 C215.089241,54.133217 215.166955,53.9734613 215.289051,53.8508108 C215.425342,53.7669231 215.583883,53.7262174 215.743796,53.7340541 L216.666277,53.7340541 C216.826877,53.7185774 216.987821,53.7599 217.121022,53.8508108 C217.245707,53.9716089 217.323891,54.1323305 217.341898,54.3048649 L219.160876,61.9848649 L221.148759,54.3048649 C221.178654,54.1332873 221.260238,53.9748916 221.382628,53.8508108 C221.514226,53.7671771 221.668575,53.726382 221.82438,53.7340541 L222.889781,53.7340541 C222.967838,53.7257782 223.045459,53.7531769 223.100964,53.8085975 C223.156469,53.8640182 223.183909,53.941521 223.17562,54.0194595 C223.181649,54.0841847 223.181649,54.1493288 223.17562,54.2140541 C223.153976,54.3117304 223.123536,54.407254 223.084672,54.4994595 L220.317226,63.36 C220.287332,63.5315775 220.205747,63.6899732 220.083358,63.8140541 C219.951094,63.8961591 219.797231,63.9368255 219.641606,63.9308108 L218.654161,63.9308108 C218.493561,63.9462875 218.332617,63.9049649 218.199416,63.8140541 C218.074702,63.6880157 217.996785,63.5232658 217.97854,63.347027 L216.19854,55.9524324 L214.379562,63.36 C214.347224,63.5281174 214.271034,63.6847398 214.158686,63.8140541 C214.019786,63.9030666 213.85546,63.9440858 213.690949,63.9308108 L212.742482,64.0086486 Z M227.515182,64.32 C226.920291,64.3164901 226.32764,64.2468723 225.748175,64.1124324 C225.295265,64.0184638 224.857876,63.8612426 224.448905,63.6454054 C224.302243,63.5807979 224.179557,63.4719084 224.098102,63.3340541 C224.047719,63.2332845 224.021055,63.1223549 224.020146,63.0097297 L224.020146,62.4259459 C224.020146,62.1794595 224.111095,62.0627027 224.292993,62.0627027 C224.357375,62.0504317 224.423501,62.0504317 224.487883,62.0627027 L224.786715,62.1794595 C225.203788,62.3605111 225.63948,62.4953705 226.085985,62.5816216 C226.514017,62.6656276 226.94904,62.7090638 227.385255,62.7113514 C227.975056,62.7305767 228.557625,62.5772646 229.061314,62.2702703 C229.433113,62.0320923 229.658242,61.6216114 229.658978,61.1805405 C229.667225,60.8815353 229.554878,60.5917465 229.347153,60.3762162 C229.013062,60.0907558 228.617256,59.8864926 228.190803,59.7794595 L226.527737,59.2605405 C225.802132,59.0816115 225.154543,58.6717906 224.682774,58.092973 C224.314758,57.6171605 224.113857,57.0336103 224.111095,56.4324324 C224.100009,55.9802535 224.207504,55.5330364 224.42292,55.1351351 C224.627429,54.7625603 224.911272,54.4392933 225.254453,54.1881081 C225.613196,53.9182023 226.018282,53.7159672 226.449781,53.5913514 C226.918991,53.4592695 227.40448,53.3937626 227.891971,53.3967568 C228.14711,53.3769725 228.403401,53.3769725 228.65854,53.3967568 C228.912066,53.425188 229.163694,53.4685063 229.412117,53.5264865 C229.632705,53.5715519 229.849799,53.6322459 230.061752,53.7081081 C230.231761,53.7521179 230.393924,53.8221359 230.542482,53.9156757 C230.681934,53.979294 230.802716,54.0775595 230.893285,54.2010811 C230.96579,54.3128591 231.00208,54.4442114 230.997226,54.5772973 L230.997226,55.1091892 C230.997226,55.3556757 230.906277,55.4854054 230.737372,55.4854054 C230.582196,55.467124 230.432114,55.418642 230.29562,55.3427027 C229.600515,55.0362181 228.846555,54.8856551 228.086861,54.9016216 C227.557705,54.8747681 227.030333,54.9818673 226.553723,55.212973 C226.2561,55.4120858 226.062312,55.7328012 226.024678,56.0885318 C225.987043,56.4442623 226.109444,56.7983272 226.358832,57.0551351 C226.742152,57.3561856 227.184944,57.5728242 227.658102,57.6908108 L229.28219,58.1967568 C229.973498,58.3762622 230.594101,58.7607232 231.06219,59.2994595 C231.415038,59.7610484 231.602611,60.3274799 231.594891,60.9081081 C231.594841,61.3575434 231.492666,61.8011099 231.296058,62.2054054 C231.090033,62.5952244 230.807187,62.9394194 230.464526,63.2172973 C230.077155,63.5118563 229.635758,63.7278127 229.165255,63.852973 C228.640276,64.0720152 228.082835,64.2034942 227.515182,64.2421622 L227.515182,64.32 Z" id="Shape" fill="#252F3E" fill-rule="nonzero"></path><path d="M229.684964,69.8205405 C225.553221,72.6190453 220.671471,74.1066678 215.678832,74.0886486 C209.3695,74.1265474 203.272793,71.8136864 198.580438,67.6021622 C198.229635,67.2778378 198.580438,66.8497297 198.970219,67.0962162 C208.172486,72.4068184 219.337147,73.098447 229.126277,68.9643243 C229.76292,68.652973 230.308613,69.3535135 229.684964,69.8205405 Z M231.270073,68.0302703 C230.789343,67.4075676 228.073869,67.7318919 226.852555,67.8745946 C226.475766,67.8745946 226.423796,67.6021622 226.761606,67.3556757 C228.918394,65.8508108 232.465401,66.2789189 232.881168,66.7848649 C233.296934,67.2908108 232.764234,70.8454054 230.750365,72.5448649 C230.43854,72.8043243 230.139708,72.6745946 230.269635,72.3243243 C230.72438,71.1956757 231.73781,68.627027 231.270073,68.0302703 Z" id="Shape" fill="#FF9900" fill-rule="nonzero"></path><path d="M303.210657,201.976216 C303.236538,201.68095 303.42049,201.422815 303.691387,201.301622 L303.886277,201.210811 C304.195755,201.08613 304.527045,201.024383 304.86073,201.028929 L305.029635,201.028929 L327.273139,201.028929 C328.182628,201.028929 328.910219,201.457297 328.897226,201.976216 C328.869524,202.26768 328.685395,202.521094 328.416496,202.637838 C328.066898,202.831086 327.672686,202.92949 327.273139,202.923243 L308.810511,202.923243 L386.039124,247.498378 C386.675766,247.861622 386.675766,248.471351 386.039124,248.795676 C385.491352,249.065949 384.865714,249.134848 384.272117,248.99027 C384.086872,248.942611 383.908026,248.872923 383.739416,248.782703 L306.49781,204.259459 L306.49781,214.923243 C306.46359,215.222337 306.276806,215.482456 306.004088,215.610811 C305.65628,215.795195 305.267473,215.888902 304.873723,215.883243 C304.65513,215.878848 304.437516,215.852774 304.224088,215.805405 C303.626423,215.662703 303.22365,215.325405 303.210657,214.936216 L303.210657,201.976216 Z" id="Path" fill="url(#linearGradient-8)" fill-rule="nonzero"></path><polygon id="Path" fill="#899BAF" fill-rule="nonzero" points="392.262628 263.584865 361.067153 281.695135 360.846277 164.03027 392.262628 145.907027"></polygon><polygon id="Path" fill="#A3B6C6" fill-rule="nonzero" points="329.63781 263.584865 361.067153 281.695135 361.067153 164.03027 329.63781 145.907027"></polygon><polygon id="Path" fill="#2D99D5" fill-rule="nonzero" points="392.210657 159.048649 360.963212 177.055135 360.963212 167.584865 392.210657 149.565405"></polygon><polygon id="Path" fill="#2D99D5" fill-rule="nonzero" points="392.210657 172.787027 360.963212 190.806486 360.963212 181.336216 392.210657 163.316757"></polygon><polygon id="Path" fill="#2D99D5" fill-rule="nonzero" points="392.210657 186.72 360.963212 204.726486 360.963212 195.256216 392.210657 177.236757"></polygon><polygon id="Path" fill="#2D99D5" fill-rule="nonzero" points="392.210657 200.367568 360.963212 218.387027 360.963212 208.903784 392.210657 190.897297"></polygon><polygon id="Path" fill="#2D99D5" fill-rule="nonzero" points="392.210657 214.300541 360.963212 232.307027 360.963212 222.836757 392.210657 204.817297"></polygon><polygon id="Path" fill="#2D99D5" fill-rule="nonzero" points="392.210657 228.038919 360.963212 246.058378 360.963212 236.575135 392.210657 218.568649"></polygon><polygon id="Path" fill="#2D99D5" fill-rule="nonzero" points="392.210657 241.958919 360.963212 259.978378 360.963212 250.495135 392.210657 232.488649"></polygon><polygon id="Path" fill="#2D99D5" fill-rule="nonzero" points="392.210657 255.619459 360.963212 273.638919 360.963212 264.155676 392.210657 246.149189"></polygon><polygon id="Path" fill="url(#linearGradient-9)" fill-rule="nonzero" points="329.715766 159.048649 360.963212 177.055135 360.963212 167.584865 329.715766 149.565405"></polygon><polygon id="Path" fill="url(#linearGradient-10)" fill-rule="nonzero" points="329.715766 172.787027 360.963212 190.806486 360.963212 181.336216 329.715766 163.316757"></polygon><polygon id="Path" fill="url(#linearGradient-9)" fill-rule="nonzero" points="329.715766 186.72 360.963212 204.726486 360.963212 195.256216 329.715766 177.236757"></polygon><polygon id="Path" fill="url(#linearGradient-10)" fill-rule="nonzero" points="329.715766 200.367568 360.963212 218.387027 360.963212 208.903784 329.715766 190.897297"></polygon><polygon id="Path" fill="url(#linearGradient-9)" fill-rule="nonzero" points="329.715766 214.300541 360.963212 232.307027 360.963212 222.836757 329.715766 204.817297"></polygon><polygon id="Path" fill="url(#linearGradient-10)" fill-rule="nonzero" points="329.715766 228.038919 360.963212 246.058378 360.963212 236.575135 329.715766 218.568649"></polygon><polygon id="Path" fill="url(#linearGradient-10)" fill-rule="nonzero" points="329.715766 241.958919 360.963212 259.978378 360.963212 250.495135 329.715766 232.488649"></polygon><polygon id="Path" fill="url(#linearGradient-10)" fill-rule="nonzero" points="329.715766 255.619459 360.963212 273.638919 360.963212 264.155676 329.715766 246.149189"></polygon><polygon id="Path" fill="#ABBCCE" fill-rule="nonzero" points="361.067153 164.082162 328.468467 145.297297 361.067153 126.512432 393.652847 145.297297"></polygon><polygon id="Path" fill="#BBBDBF" fill-rule="nonzero" points="328.520438 145.284324 361.015182 164.082162 361.015182 161.513514 328.520438 142.715676"></polygon><polygon id="Path" fill="#BBBDBF" fill-rule="nonzero" points="358.767445 127.80973 393.52292 147.904865 393.52292 145.336216 358.767445 125.241081"></polygon><polygon id="Path" fill="#929497" fill-rule="nonzero" points="381.673577 152.134054 361.067153 164.082162 361.067153 161.513514 381.673577 149.565405"></polygon><polygon id="Path" fill="#DCE9EF" fill-rule="nonzero" points="361.015182 161.513514 328.520438 142.702703 330.807153 141.392432 363.314891 160.203243"></polygon><polygon id="Path" fill="#DCE9EF" fill-rule="nonzero" points="330.807153 144.038919 363.314891 125.228108 361.015182 123.917838 328.520438 142.715676"></polygon><polygon id="Path" fill="#DCE9EF" fill-rule="nonzero" points="361.067153 161.513514 384.012263 148.242162 381.725547 146.918919 358.767445 160.203243"></polygon><polygon id="Path" fill="#DCE9EF" fill-rule="nonzero" points="393.574891 145.362162 358.767445 125.228108 361.067153 123.917838 395.861606 144.038919"></polygon><polygon id="Path" fill="#929497" fill-rule="nonzero" points="361.067153 129.081081 335.302628 143.987027 333.080876 142.702703 361.067153 126.512432"></polygon><polygon id="Path" fill="#D0D2D3" fill-rule="nonzero" style="mix-blend-mode: multiply;" points="361.067153 129.081081 335.302628 143.987027 336.848759 144.882162 362.574307 130.015135"></polygon><polygon id="Path" fill="#899BAF" fill-rule="nonzero" points="445.467737 268.722162 414.272263 286.832432 414.051387 170.88 445.467737 152.76973"></polygon><polygon id="Path" fill="#A3B6C6" fill-rule="nonzero" points="382.84292 268.722162 414.272263 286.832432 414.272263 170.88 382.84292 152.76973"></polygon><polygon id="Path" fill="#2D99D5" fill-rule="nonzero" points="445.415766 165.898378 414.168321 183.917838 414.168321 174.447568 445.415766 156.428108"></polygon><polygon id="Path" fill="#2D99D5" fill-rule="nonzero" points="445.415766 179.64973 414.168321 197.669189 414.168321 188.185946 445.415766 170.179459"></polygon><polygon id="Path" fill="#2D99D5" fill-rule="nonzero" points="445.415766 193.56973 414.168321 211.589189 414.168321 202.105946 445.415766 184.099459"></polygon><polygon id="Path" fill="#2D99D5" fill-rule="nonzero" points="445.415766 207.23027 414.168321 225.24973 414.168321 215.766486 445.415766 197.76"></polygon><polygon id="Path" fill="#2D99D5" fill-rule="nonzero" points="445.415766 221.15027 414.168321 239.16973 414.168321 229.686486 445.415766 211.68"></polygon><polygon id="Path" fill="#2D99D5" fill-rule="nonzero" points="445.415766 234.901622 414.168321 252.908108 414.168321 243.437838 445.415766 225.418378"></polygon><polygon id="Path" fill="#2D99D5" fill-rule="nonzero" points="445.415766 248.821622 414.168321 266.841081 414.168321 257.357838 445.415766 239.351351"></polygon><polygon id="Path" fill="#2D99D5" fill-rule="nonzero" points="445.415766 262.482162 414.168321 280.488649 414.168321 271.018378 445.415766 252.998919"></polygon><polygon id="Path" fill="url(#linearGradient-9)" fill-rule="nonzero" points="382.920876 165.898378 414.168321 183.917838 414.168321 174.447568 382.920876 156.428108"></polygon><polygon id="Path" fill="url(#linearGradient-10)" fill-rule="nonzero" points="382.920876 179.64973 414.168321 197.669189 414.168321 188.185946 382.920876 170.179459"></polygon><polygon id="Path" fill="url(#linearGradient-10)" fill-rule="nonzero" points="382.920876 193.56973 414.168321 211.589189 414.168321 202.105946 382.920876 184.099459"></polygon><polygon id="Path" fill="url(#linearGradient-10)" fill-rule="nonzero" points="382.920876 207.23027 414.168321 225.24973 414.168321 215.766486 382.920876 197.76"></polygon><polygon id="Path" fill="url(#linearGradient-10)" fill-rule="nonzero" points="382.920876 221.15027 414.168321 239.16973 414.168321 229.686486 382.920876 211.68"></polygon><polygon id="Path" fill="url(#linearGradient-9)" fill-rule="nonzero" points="382.920876 234.901622 414.168321 252.908108 414.168321 243.437838 382.920876 225.418378"></polygon><polygon id="Path" fill="url(#linearGradient-10)" fill-rule="nonzero" points="382.920876 248.821622 414.168321 266.841081 414.168321 257.357838 382.920876 239.351351"></polygon><polygon id="Path" fill="url(#linearGradient-9)" fill-rule="nonzero" points="382.920876 262.482162 414.168321 280.488649 414.168321 271.018378 382.920876 252.998919"></polygon><polygon id="Path" fill="#ABBCCE" fill-rule="nonzero" points="414.272263 170.944865 381.673577 152.16 391.340146 146.633514 393.52292 147.904865 393.52292 145.323243 414.272263 133.375135 446.857956 152.16"></polygon><polygon id="Path" fill="#BBBDBF" fill-rule="nonzero" points="381.725547 152.147027 414.220292 170.944865 414.220292 168.376216 381.725547 149.578378"></polygon><polygon id="Path" fill="#BBBDBF" fill-rule="nonzero" points="411.972555 134.672432 444.480292 153.47027 444.480292 150.901622 411.972555 132.103784"></polygon><polygon id="Path" fill="#929497" fill-rule="nonzero" points="446.767007 152.147027 414.272263 170.944865 414.272263 168.376216 446.767007 149.578378"></polygon><polygon id="Path" fill="#DCE9EF" fill-rule="nonzero" points="414.220292 168.376216 381.725547 149.565405 384.012263 148.242162 416.52 167.052973"></polygon><polygon id="Path" fill="#DCE9EF" fill-rule="nonzero" points="393.52292 145.336216 416.52 132.090811 414.220292 130.767568 391.236204 144.012973"></polygon><polygon id="Path" fill="#DCE9EF" fill-rule="nonzero" points="414.272263 168.376216 446.767007 149.565405 444.480292 148.242162 411.972555 167.052973"></polygon><polygon id="Path" fill="#DCE9EF" fill-rule="nonzero" points="444.480292 150.901622 411.972555 132.090811 414.272263 130.767568 446.767007 149.578378"></polygon><polygon id="Path" fill="#929497" fill-rule="nonzero" points="414.272263 135.943784 393.52292 147.904865 393.52292 145.336216 414.272263 133.375135"></polygon></g></g></g></svg> 