<?xml version="1.0" encoding="UTF-8"?> <svg xmlns="http://www.w3.org/2000/svg" xmlns:xlink="http://www.w3.org/1999/xlink" width="216px" height="50px" viewBox="0 0 216 50" version="1.1"><!-- Generator: Sketch 64 (93537) - https://sketch.com --><title>SPEKTRA-Announcement-Bnnr-B</title><desc>Created with Sketch.</desc><g id="SPEKTRA-Announcement-Bnnr-B" stroke="none" stroke-width="1" fill="none" fill-rule="evenodd"><g id="SPEKTRA-2.4-Copy" transform="translate(69.601959, 24.640368)" fill-rule="nonzero"><path d="M5.19156,15.766542 C6.22611,15.766542 7.12272,15.6113595 7.88139,15.3009945 C8.64006,14.9906295 9.2228565,14.5354275 9.6297795,13.9353885 C10.0367025,13.3353495 10.240164,12.62151 10.240164,11.79387 C10.240164,10.89726 9.9815265,10.1351415 9.4642515,9.5075145 C8.9469765,8.8798875 8.095197,8.352267 6.908913,7.924653 L6.908913,7.924653 L4.053555,6.890103 C2.370687,6.283167 1.529253,5.331381 1.529253,4.034745 C1.529253,3.027783 1.874103,2.248422 2.563803,1.696662 C3.253503,1.144902 4.170804,0.869022 5.315706,0.869022 C6.143346,0.869022 6.8778765,1.0242045 7.5192975,1.3345695 C8.1607185,1.6449345 8.702133,2.062203 9.143541,2.586375 C9.212511,2.669139 9.26079,2.717418 9.288378,2.731212 C9.315966,2.745006 9.357348,2.731212 9.412524,2.68983 L9.412524,2.68983 L9.867726,2.27601 C9.922902,2.234628 9.9470415,2.186349 9.9401445,2.131173 C9.9332475,2.075997 9.909108,2.027718 9.867726,1.986336 C9.246996,1.338018 8.5745385,0.8448825 7.8503535,0.5069295 C7.1261685,0.1689765 6.301977,-2.13162821e-14 5.377779,-2.13162821e-14 C4.425993,-2.13162821e-14 3.5880075,0.158631 2.8638225,0.475893 C2.1396375,0.793155 1.577532,1.2587025 1.177506,1.8725355 C0.77748,2.4863685 0.577467,3.214002 0.577467,4.055436 C0.577467,4.814106 0.7947225,5.5141515 1.2292335,6.1555725 C1.6637445,6.7969935 2.398275,7.31082 3.432825,7.697052 L3.432825,7.697052 L6.557166,8.89713 C7.619304,9.31095 8.3400405,9.738564 8.7193755,10.179972 C9.0987105,10.62138 9.288378,11.17314 9.288378,11.835252 C9.288378,12.89739 8.929734,13.6733025 8.212446,14.1629895 C7.495158,14.6526765 6.488196,14.89752 5.19156,14.89752 C4.143216,14.89752 3.308679,14.7216465 2.687949,14.3698995 C2.067219,14.0181525 1.446489,13.442253 0.825759,12.642201 C0.770583,12.573231 0.7119585,12.538746 0.6498855,12.538746 C0.5878125,12.538746 0.508497,12.573231 0.411939,12.642201 L0.411939,12.642201 L0.184338,12.807729 C0.08778,12.876699 0.0291555,12.945669 0.0084645,13.014639 C-0.0122265,13.083609 0.005016,13.152579 0.060192,13.221549 C0.667128,14.090571 1.3878645,14.731992 2.2224015,15.145812 C3.0569385,15.559632 4.046658,15.766542 5.19156,15.766542 Z M14.730111,15.559632 C14.785287,15.559632 14.826669,15.5423895 14.854257,15.5079045 C14.881845,15.4734195 14.895639,15.428589 14.895639,15.373413 L14.895639,15.373413 L14.895639,8.979894 C14.895639,8.855748 14.950815,8.793675 15.061167,8.793675 L15.061167,8.793675 L18.84762,8.793675 C19.923552,8.793675 20.861544,8.6453895 21.661596,8.3488185 C22.461648,8.0522475 23.089275,7.5832515 23.544477,6.9418305 C23.999679,6.3004095 24.22728,5.483115 24.22728,4.489947 C24.22728,3.496779 23.9962305,2.682933 23.5341315,2.048409 C23.0720325,1.413885 22.4306115,0.9483375 21.6098685,0.6517665 C20.7891255,0.3551955 19.826994,0.20691 18.723474,0.20691 L18.723474,0.20691 L14.130072,0.20691 C14.061102,0.20691 14.012823,0.220704 13.985235,0.248292 C13.957647,0.27588 13.943853,0.331056 13.943853,0.41382 L13.943853,0.41382 L13.943853,15.394104 C13.943853,15.44928 13.957647,15.490662 13.985235,15.51825 C14.012823,15.545838 14.054205,15.559632 14.109381,15.559632 L14.109381,15.559632 L14.730111,15.559632 Z M18.84762,7.966035 L15.040476,7.966035 C14.9853,7.966035 14.9473665,7.9487925 14.9266755,7.9143075 C14.9059845,7.8798225 14.895639,7.828095 14.895639,7.759125 L14.895639,7.759125 L14.895639,1.200078 C14.895639,1.144902 14.909433,1.10352 14.937021,1.075932 C14.964609,1.048344 15.012888,1.03455 15.081858,1.03455 L15.081858,1.03455 L18.702783,1.03455 C20.178741,1.03455 21.302952,1.2931875 22.075416,1.8104625 C22.84788,2.3277375 23.234112,3.200208 23.234112,4.427874 C23.234112,5.65554 22.8513285,6.55215 22.0857615,7.117704 C21.3201945,7.683258 20.240814,7.966035 18.84762,7.966035 L18.84762,7.966035 Z M36.972936,15.559632 C37.028112,15.559632 37.0660455,15.5492865 37.0867365,15.5285955 C37.1074275,15.5079045 37.117773,15.469971 37.117773,15.414795 L37.117773,15.414795 L37.117773,14.876829 C37.117773,14.821653 37.1074275,14.7837195 37.0867365,14.7630285 C37.0660455,14.7423375 37.021215,14.731992 36.952245,14.731992 L36.952245,14.731992 L29.027592,14.731992 C28.958622,14.731992 28.910343,14.7216465 28.882755,14.7009555 C28.855167,14.6802645 28.841373,14.628537 28.841373,14.545773 L28.841373,14.545773 L28.841373,8.400546 C28.841373,8.317782 28.855167,8.2660545 28.882755,8.2453635 C28.910343,8.2246725 28.958622,8.214327 29.027592,8.214327 L29.027592,8.214327 L34.9866,8.214327 C35.05557,8.214327 35.1004005,8.2039815 35.1210915,8.1832905 C35.1417825,8.1625995 35.152128,8.124666 35.152128,8.06949 L35.152128,8.06949 L35.152128,7.531524 C35.152128,7.434966 35.103849,7.386687 35.007291,7.386687 L35.007291,7.386687 L29.027592,7.386687 C28.958622,7.386687 28.910343,7.3763415 28.882755,7.3556505 C28.855167,7.3349595 28.841373,7.297026 28.841373,7.24185 L28.841373,7.24185 L28.841373,1.220769 C28.841373,1.138005 28.855167,1.0862775 28.882755,1.0655865 C28.910343,1.0448955 28.958622,1.03455 29.027592,1.03455 L29.027592,1.03455 L36.64188,1.03455 C36.71085,1.03455 36.7556805,1.0242045 36.7763715,1.0035135 C36.7970625,0.9828225 36.807408,0.944889 36.807408,0.889713 L36.807408,0.889713 L36.807408,0.351747 C36.807408,0.255189 36.759129,0.20691 36.662571,0.20691 L36.662571,0.20691 L28.075806,0.20691 C28.006836,0.20691 27.958557,0.220704 27.930969,0.248292 C27.903381,0.27588 27.889587,0.331056 27.889587,0.41382 L27.889587,0.41382 L27.889587,15.352722 C27.889587,15.435486 27.903381,15.490662 27.930969,15.51825 C27.958557,15.545838 28.006836,15.559632 28.075806,15.559632 L28.075806,15.559632 L36.972936,15.559632 Z M41.297355,15.559632 C41.366325,15.559632 41.4180525,15.545838 41.4525375,15.51825 C41.4870225,15.490662 41.504265,15.442383 41.504265,15.373413 L41.504265,15.373413 L41.504265,10.469646 C41.504265,10.386882 41.518059,10.3213605 41.545647,10.2730815 C41.573235,10.2248025 41.614617,10.173075 41.669793,10.117899 L41.669793,10.117899 L44.401005,7.097013 C44.456181,7.041837 44.5010115,7.014249 44.5354965,7.014249 C44.5699815,7.014249 44.607915,7.041837 44.649297,7.097013 L44.649297,7.097013 L49.987575,15.456177 C50.028957,15.525147 50.104824,15.559632 50.215176,15.559632 L50.215176,15.559632 L51.022125,15.559632 C51.063507,15.559632 51.091095,15.545838 51.104889,15.51825 C51.118683,15.490662 51.111786,15.456177 51.084198,15.414795 L51.084198,15.414795 L45.290718,6.352137 C45.276924,6.324549 45.270027,6.3004095 45.270027,6.2797185 C45.270027,6.2590275 45.276924,6.241785 45.290718,6.227991 L45.290718,6.227991 L50.649687,0.372438 C50.691069,0.331056 50.704863,0.2931225 50.691069,0.2586375 C50.677275,0.2241525 50.64279,0.20691 50.587614,0.20691 L50.587614,0.20691 L49.801356,0.20691 C49.74618,0.20691 49.7013495,0.213807 49.6668645,0.227601 C49.6323795,0.241395 49.601343,0.262086 49.573755,0.289674 L49.573755,0.289674 L41.649102,8.89713 C41.593926,8.952306 41.5559925,8.9764455 41.5353015,8.9695485 C41.5146105,8.9626515 41.504265,8.931615 41.504265,8.876439 L41.504265,8.876439 L41.504265,0.372438 C41.504265,0.262086 41.449089,0.20691 41.338737,0.20691 L41.338737,0.20691 L40.718007,0.20691 C40.662831,0.20691 40.621449,0.220704 40.593861,0.248292 C40.566273,0.27588 40.552479,0.317262 40.552479,0.372438 L40.552479,0.372438 L40.552479,15.373413 C40.552479,15.442383 40.5697215,15.490662 40.6042065,15.51825 C40.6386915,15.545838 40.690419,15.559632 40.759389,15.559632 L40.759389,15.559632 L41.297355,15.559632 Z M58.470885,15.559632 C58.539855,15.559632 58.588134,15.545838 58.615722,15.51825 C58.64331,15.490662 58.657104,15.435486 58.657104,15.352722 L58.657104,15.352722 L58.657104,1.220769 C58.657104,1.138005 58.670898,1.0862775 58.698486,1.0655865 C58.726074,1.0448955 58.78125,1.03455 58.864014,1.03455 L58.864014,1.03455 L63.271197,1.03455 C63.340167,1.03455 63.3849975,1.0242045 63.4056885,1.0035135 C63.4263795,0.9828225 63.436725,0.944889 63.436725,0.889713 L63.436725,0.889713 L63.436725,0.351747 C63.436725,0.296571 63.4263795,0.2586375 63.4056885,0.2379465 C63.3849975,0.2172555 63.347064,0.20691 63.291888,0.20691 L63.291888,0.20691 L52.636023,0.20691 C52.580847,0.20691 52.5429135,0.2172555 52.5222225,0.2379465 C52.5015315,0.2586375 52.491186,0.296571 52.491186,0.351747 L52.491186,0.351747 L52.491186,0.889713 C52.491186,0.944889 52.5015315,0.9828225 52.5222225,1.0035135 C52.5429135,1.0242045 52.587744,1.03455 52.656714,1.03455 L52.656714,1.03455 L57.498408,1.03455 C57.581172,1.03455 57.636348,1.0448955 57.663936,1.0655865 C57.691524,1.0862775 57.705318,1.138005 57.705318,1.220769 L57.705318,1.220769 L57.705318,15.352722 C57.705318,15.435486 57.719112,15.490662 57.7467,15.51825 C57.774288,15.545838 57.829464,15.559632 57.912228,15.559632 L57.912228,15.559632 L58.470885,15.559632 Z M67.512852,15.559632 C67.595616,15.559632 67.650792,15.5423895 67.67838,15.5079045 C67.705968,15.4734195 67.719762,15.414795 67.719762,15.332031 L67.719762,15.332031 L67.719762,8.441928 C67.719762,8.359164 67.740453,8.3005395 67.781835,8.2660545 C67.823217,8.2315695 67.88529,8.214327 67.968054,8.214327 L67.968054,8.214327 L72.43731,8.214327 C72.57525,8.214327 72.6752565,8.2315695 72.7373295,8.2660545 C72.7994025,8.3005395 72.844233,8.352267 72.871821,8.421237 L72.871821,8.421237 L75.809943,15.373413 C75.851325,15.442383 75.88581,15.490662 75.913398,15.51825 C75.940986,15.545838 75.989265,15.559632 76.058235,15.559632 L76.058235,15.559632 L76.637583,15.559632 C76.706553,15.559632 76.7582805,15.5285955 76.7927655,15.4665225 C76.8272505,15.4044495 76.830699,15.338928 76.803111,15.269958 L76.803111,15.269958 L73.782225,8.131563 C73.754637,8.048799 73.782225,8.00052 73.864989,7.986726 C74.734011,7.766022 75.4754385,7.338408 76.0892715,6.703884 C76.7031045,6.06936 77.010021,5.17275 77.010021,4.014054 C77.010021,2.772594 76.5996495,1.827705 75.7789065,1.179387 C74.9581635,0.531069 73.796019,0.20691 72.292473,0.20691 L72.292473,0.20691 L66.954195,0.20691 C66.885225,0.20691 66.836946,0.220704 66.809358,0.248292 C66.78177,0.27588 66.767976,0.331056 66.767976,0.41382 L66.767976,0.41382 L66.767976,15.373413 C66.767976,15.442383 66.78177,15.490662 66.809358,15.51825 C66.836946,15.545838 66.892122,15.559632 66.974886,15.559632 L66.974886,15.559632 L67.512852,15.559632 Z M71.568288,7.386687 L67.864599,7.386687 C67.809423,7.386687 67.7714895,7.372893 67.7507985,7.345305 C67.7301075,7.317717 67.719762,7.269438 67.719762,7.200468 L67.719762,7.200468 L67.719762,1.200078 C67.719762,1.144902 67.7370045,1.10352 67.7714895,1.075932 C67.8059745,1.048344 67.864599,1.03455 67.947363,1.03455 L67.947363,1.03455 L72.271782,1.03455 C73.527036,1.03455 74.465028,1.2931875 75.085758,1.8104625 C75.706488,2.3277375 76.016853,3.110547 76.016853,4.158891 C76.016853,5.289999 75.651312,6.110742 74.92023,6.62112 C74.189148,7.131498 73.071834,7.386687 71.568288,7.386687 L71.568288,7.386687 Z M79.803306,15.559632 C79.941246,15.559632 80.017113,15.511353 80.030907,15.414795 L80.030907,15.414795 L81.74826,10.780011 C81.789642,10.683453 81.858612,10.635174 81.95517,10.635174 L81.95517,10.635174 L88.617672,10.635174 C88.672848,10.635174 88.71423,10.6455195 88.741818,10.6662105 C88.769406,10.6869015 88.796994,10.724835 88.824582,10.780011 L88.824582,10.780011 L90.500553,15.394104 C90.541935,15.504456 90.631596,15.559632 90.769536,15.559632 L90.769536,15.559632 L91.26612,15.559632 C91.33509,15.559632 91.3868175,15.5423895 91.4213025,15.5079045 C91.4557875,15.4734195 91.459236,15.421692 91.431648,15.352722 L91.431648,15.352722 L86.010606,0.41382 C85.996812,0.34485 85.9588785,0.2931225 85.8968055,0.2586375 C85.8347325,0.2241525 85.74852,0.20691 85.638168,0.20691 L85.638168,0.20691 L84.955365,0.20691 C84.858807,0.20691 84.7863885,0.2241525 84.7381095,0.2586375 C84.6898305,0.2931225 84.651897,0.351747 84.624309,0.434511 L84.624309,0.434511 L79.141194,15.373413 C79.1274,15.428589 79.1308485,15.4734195 79.1515395,15.5079045 C79.1722305,15.5423895 79.217061,15.559632 79.286031,15.559632 L79.286031,15.559632 L79.803306,15.559632 Z M88.265925,9.807534 L82.244844,9.807534 C82.175874,9.807534 82.134492,9.7971885 82.120698,9.7764975 C82.106904,9.7558065 82.113801,9.710976 82.141389,9.642006 L82.141389,9.642006 L85.141584,1.551825 C85.19676,1.413885 85.2484875,1.3414665 85.2967665,1.3345695 C85.3450455,1.3276725 85.396773,1.393194 85.451949,1.531134 L85.451949,1.531134 L88.410762,9.600624 C88.452144,9.738564 88.403865,9.807534 88.265925,9.807534 L88.265925,9.807534 Z" id="SPEKTRA" fill="#FFFFFF"></path><path d="M107.363718,15.559632 C107.418894,15.559632 107.460276,15.545838 107.487864,15.51825 C107.515452,15.490662 107.529246,15.44928 107.529246,15.394104 L107.529246,15.394104 L107.529246,14.856138 C107.529246,14.787168 107.515452,14.7423375 107.487864,14.7216465 C107.460276,14.7009555 107.411997,14.69061 107.343027,14.69061 L107.343027,14.69061 L99.54252,14.69061 C99.432168,14.69061 99.3666465,14.6664705 99.3459555,14.6181915 C99.3252645,14.5699125 99.349404,14.511288 99.418374,14.442318 L99.418374,14.442318 L103.804866,9.973062 C104.71527,9.03507 105.418764,8.255709 105.915348,7.634979 C106.411932,7.014249 106.777473,6.4245555 107.011971,5.8658985 C107.246469,5.3072415 107.363718,4.717548 107.363718,4.096818 C107.363718,3.17262 107.160257,2.4036045 106.753333,1.7897715 C106.34641,1.1759385 105.811893,0.724185 105.149781,0.434511 C104.487669,0.144837 103.777278,-1.77635684e-14 103.018608,-1.77635684e-14 C102.135792,-1.77635684e-14 101.270218,0.1896675 100.421887,0.5690025 C99.5735565,0.9483375 98.880408,1.510443 98.342442,2.255319 C98.287266,2.338083 98.259678,2.3967075 98.259678,2.4311925 C98.259678,2.4656775 98.30106,2.517405 98.383824,2.586375 L98.383824,2.586375 L98.694189,2.855358 C98.763159,2.910534 98.825232,2.9346735 98.880408,2.9277765 C98.935584,2.9208795 98.983863,2.889843 99.025245,2.834667 C99.466653,2.186349 100.046001,1.696662 100.763289,1.365606 C101.480577,1.03455 102.184071,0.869022 102.873771,0.869022 C103.453119,0.869022 104.015225,0.986271 104.560087,1.220769 C105.10495,1.455267 105.549807,1.807014 105.894657,2.27601 C106.239507,2.745006 106.411932,3.31056 106.411932,3.972672 C106.411932,4.538226 106.30158,5.089986 106.080876,5.627952 C105.860172,6.165918 105.529116,6.7211265 105.087708,7.2935775 C104.6463,7.8660285 104.060055,8.524692 103.328973,9.269568 L103.328973,9.269568 L98.549352,14.214717 C98.439,14.325069 98.363133,14.428524 98.321751,14.525082 C98.280369,14.62164 98.259678,14.745786 98.259678,14.89752 L98.259678,14.89752 L98.259678,15.31134 C98.259678,15.407898 98.2769205,15.4734195 98.3114055,15.5079045 C98.3458905,15.5423895 98.411412,15.559632 98.50797,15.559632 L98.50797,15.559632 L107.363718,15.559632 Z M111.150171,15.559632 C111.246729,15.559632 111.315699,15.5423895 111.357081,15.5079045 C111.398463,15.4734195 111.419154,15.414795 111.419154,15.332031 L111.419154,15.332031 L111.419154,14.090571 C111.419154,13.980219 111.370875,13.925043 111.274317,13.925043 L111.274317,13.925043 L110.281149,13.925043 C110.239767,13.925043 110.205282,13.938837 110.177694,13.966425 C110.150106,13.994013 110.136312,14.042292 110.136312,14.111262 L110.136312,14.111262 L110.136312,15.352722 C110.136312,15.421692 110.150106,15.4734195 110.177694,15.5079045 C110.205282,15.5423895 110.260458,15.559632 110.343222,15.559632 L110.343222,15.559632 L111.150171,15.559632 Z M121.868109,15.559632 C121.937079,15.559632 121.988806,15.545838 122.023291,15.51825 C122.057776,15.490662 122.075019,15.442383 122.075019,15.373413 L122.075019,15.373413 L122.075019,11.317977 C122.075019,11.193831 122.130195,11.131758 122.240547,11.131758 L122.240547,11.131758 L124.330338,11.131758 C124.468278,11.131758 124.537248,11.062788 124.537248,10.924848 L124.537248,10.924848 L124.537248,10.407573 C124.537248,10.311015 124.468278,10.262736 124.330338,10.262736 L124.330338,10.262736 L122.219856,10.262736 C122.123298,10.262736 122.075019,10.20756 122.075019,10.097208 L122.075019,10.097208 L122.075019,0.393129 C122.075019,0.324159 122.061225,0.27588 122.033637,0.248292 C122.006049,0.220704 121.95777,0.20691 121.8888,0.20691 L121.8888,0.20691 L121.247379,0.20691 C121.178409,0.20691 121.119784,0.2172555 121.071505,0.2379465 C121.023226,0.2586375 120.985293,0.282777 120.957705,0.310365 L120.957705,0.310365 L113.922765,9.828225 C113.853795,9.924783 113.805516,10.007547 113.777928,10.076517 C113.75034,10.145487 113.736546,10.214457 113.736546,10.283427 L113.736546,10.283427 L113.736546,10.924848 C113.736546,11.007612 113.753788,11.062788 113.788273,11.090376 C113.822758,11.117964 113.881383,11.131758 113.964147,11.131758 L113.964147,11.131758 L120.957705,11.131758 C121.068057,11.131758 121.123233,11.17314 121.123233,11.255904 L121.123233,11.255904 L121.123233,15.373413 C121.123233,15.428589 121.137027,15.4734195 121.164615,15.5079045 C121.192203,15.5423895 121.233585,15.559632 121.288761,15.559632 L121.288761,15.559632 L121.868109,15.559632 Z M120.85425,10.262736 L114.998697,10.262736 C114.888345,10.262736 114.822823,10.2385965 114.802132,10.1903175 C114.781441,10.1420385 114.798684,10.076517 114.85386,9.993753 L114.85386,9.993753 L120.750795,2.027718 C120.847353,1.903572 120.919771,1.848396 120.96805,1.86219 C121.016329,1.875984 121.040469,1.958748 121.040469,2.110482 L121.040469,2.110482 L121.040469,10.117899 C121.040469,10.159281 121.023226,10.193766 120.988741,10.221354 C120.954256,10.248942 120.909426,10.262736 120.85425,10.262736 L120.85425,10.262736 Z" id="2.4" fill="#93D500"></path></g><g id="diamanti-logo-pms375-copy" transform="translate(120.100000, 9.000000)" fill="#FFFFFF" fill-rule="nonzero"><path d="M12.9773353,5.93685905 L10.192842,5.93685905 L11.0859159,1.24012332 L13.8322338,1.24012332 C15.0561615,1.24012332 15.9145304,1.5258607 16.3807335,2.09039445 C16.7092736,2.48718764 16.8237999,3.01238912 16.7104304,3.60700049 C16.4964166,4.73375433 15.4032109,5.93685905 12.9773353,5.93685905 Z M11.9257755,4.66665811 L13.1103709,4.66665811 C14.304221,4.66665811 14.9520466,4.30804036 15.0920232,3.56998189 C15.1463943,3.28424451 15.1082189,3.06791703 14.9740264,2.90711746 C14.7600126,2.64798721 14.283398,2.51726526 13.5569079,2.51726526 L12.334137,2.51726526 L11.9257755,4.66665811 Z" id="Shape"></path><polygon id="Path" points="18.3242103 5.93685905 16.8330546 5.93685905 17.7261285 1.24012332 19.2172842 1.24012332"></polygon><path d="M25.5567206,5.93685905 L23.8318849,5.93685905 L23.4848355,4.93157251 L20.9698839,4.93157251 L20.2341391,5.93685905 L18.53244,5.93685905 L21.9821114,1.23433917 L23.8966675,1.23433917 L25.5567206,5.93685905 Z M21.7333926,3.8279553 L23.1435702,3.8279553 L22.7271109,2.5114811 L22.6669556,2.5114811 L21.7333926,3.8279553 Z" id="Shape"></path><polygon id="Path" points="33.0159699 5.93685905 31.5375393 5.93685905 32.0754659 3.11187663 29.7930374 5.93685905 29.0121762 5.93685905 27.8102283 3.08295584 27.2676743 5.93685905 25.7961847 5.93685905 26.6892586 1.24012332 28.6952044 1.24012332 29.8127036 3.88116955 31.9285483 1.24012332 33.9102006 1.24012332"></polygon><path d="M40.2693031,5.93685905 L38.5444674,5.93685905 L38.197418,4.93157251 L35.6824664,4.93157251 L34.9467216,5.93685905 L33.2438657,5.93685905 L36.6935371,1.23433917 L38.6080931,1.23433917 L40.2693031,5.93685905 Z M36.4459751,3.8279553 L37.8561527,3.8279553 L37.4396934,2.5114811 L37.3795381,2.5114811 L36.4459751,3.8279553 Z" id="Shape"></path><polygon id="Path" points="46.4282738 5.93685905 44.8295327 5.93685905 42.5575157 2.9638022 41.9918252 5.93685905 40.5064536 5.93685905 41.3995275 1.24012332 43.1972435 1.24012332 45.3130883 4.02693031 45.8429171 1.24012332 47.3213477 1.24012332"></polygon><polygon id="Path" points="50.5639463 5.93685905 49.0658495 5.93685905 49.7159888 2.51726526 47.5203227 2.51726526 47.7632573 1.24012332 53.6596273 1.24012332 53.4166927 2.51726526 51.2140856 2.51726526"></polygon><polygon id="Path" points="54.6892073 5.93685905 53.1980515 5.93685905 54.0911254 1.24012332 55.5822812 1.24012332"></polygon><polygon id="Path" points="4.76267512 7.99139172 0.0555279101 2.15749067 1.71326739 0.101801168 5.75523651 0.101801168 7.36438907 2.07188514 4.73838166 5.31564056 3.96214775 4.35431361 5.77490265 2.10890375 5.17450712 1.338454 2.26738966 1.338454 1.6068389 2.15633384 4.76151829 6.06758101 7.91735451 2.15633384 6.27234018 0.101801168 7.81208285 0.101801168 9.46982233 2.15633384"></polygon></g><path d="M71.4965,15.1 C71.5551667,15.1 71.5936667,15.0761667 71.612,15.0285 L71.612,15.0285 L71.9035,14.2145 C71.9145,14.1778333 71.9383333,14.1595 71.975,14.1595 L71.975,14.1595 L73.317,14.1595 C73.339,14.1595 73.3545833,14.1631667 73.36375,14.1705 C73.3729167,14.1778333 73.3811667,14.1943333 73.3885,14.22 L73.3885,14.22 L73.6745,15.023 C73.6891667,15.0743333 73.724,15.1 73.779,15.1 L73.779,15.1 L74.5875,15.1 C74.6205,15.1 74.6425,15.0835 74.6535,15.0505 C74.6645,15.0175 74.6645,14.9845 74.6535,14.9515 L74.6535,14.9515 L73.295,11.14 C73.284,11.1033333 73.2629167,11.074 73.23175,11.052 C73.2005833,11.03 73.1666667,11.019 73.13,11.019 L73.13,11.019 L72.305,11.019 C72.261,11.019 72.2298333,11.02725 72.2115,11.04375 C72.1931667,11.06025 72.1766667,11.0886667 72.162,11.129 L72.162,11.129 L70.7925,14.9405 C70.7778333,14.9881667 70.7769167,15.0266667 70.78975,15.056 C70.8025833,15.0853333 70.8273333,15.1 70.864,15.1 L70.864,15.1 L71.4965,15.1 Z M73.0915,13.428 L72.1895,13.428 C72.1601667,13.428 72.1418333,13.4206667 72.1345,13.406 C72.1271667,13.3913333 72.129,13.3675 72.14,13.3345 L72.14,13.3345 L72.6075,12.053 C72.6185,12.0273333 72.6304167,12.0145 72.64325,12.0145 C72.6560833,12.0145 72.668,12.0255 72.679,12.0475 L72.679,12.0475 L73.141,13.3345 C73.1593333,13.3968333 73.1428333,13.428 73.0915,13.428 L73.0915,13.428 Z M76.4574785,15.1 C76.5014785,15.1 76.5317285,15.0926667 76.5482285,15.078 C76.5647285,15.0633333 76.5711452,15.0376667 76.5674785,15.001 L76.5674785,12.581 C76.5674785,12.5626667 76.5738952,12.5516667 76.5867285,12.548 C76.5995618,12.5443333 76.6133118,12.5516667 76.6279785,12.57 L76.6279785,12.57 L78.3824785,15.034 C78.4044785,15.0596667 78.4246452,15.0770833 78.4429785,15.08625 C78.4613118,15.0954167 78.4869785,15.1 78.5199785,15.1 L78.5199785,15.1 L79.0754785,15.1 C79.1084785,15.1 79.1341452,15.09175 79.1524785,15.07525 C79.1708118,15.05875 79.1799785,15.0376667 79.1799785,15.012 L79.1799785,15.012 L79.1799785,11.1015 C79.1799785,11.0758333 79.1744785,11.0556667 79.1634785,11.041 C79.1524785,11.0263333 79.1341452,11.019 79.1084785,11.019 L79.1084785,11.019 L78.4979785,11.019 C78.4319785,11.019 78.3989785,11.052 78.3989785,11.118 L78.3989785,11.118 L78.3989785,13.3895 C78.3989785,13.4225 78.3907285,13.4408333 78.3742285,13.4445 C78.3577285,13.4481667 78.3384785,13.4353333 78.3164785,13.406 L78.3164785,13.406 L76.6994785,11.1015 C76.6738118,11.0685 76.6508952,11.0465 76.6307285,11.0355 C76.6105618,11.0245 76.5803118,11.019 76.5399785,11.019 L76.5399785,11.019 L75.8744785,11.019 C75.8414785,11.019 75.8167285,11.02725 75.8002285,11.04375 C75.7837285,11.06025 75.7754785,11.0868333 75.7754785,11.1235 L75.7754785,11.1235 L75.7754785,15.0065 C75.7754785,15.0688333 75.8121452,15.1 75.8854785,15.1 L75.8854785,15.1 L76.4574785,15.1 Z M81.1819094,15.1 C81.2259094,15.1 81.2561594,15.0926667 81.2726594,15.078 C81.2891594,15.0633333 81.295576,15.0376667 81.2919094,15.001 L81.2919094,15.001 L81.2919094,12.581 C81.2919094,12.5626667 81.298326,12.5516667 81.3111594,12.548 C81.3239927,12.5443333 81.3377427,12.5516667 81.3524094,12.57 L81.3524094,12.57 L83.1069094,15.034 C83.1289094,15.0596667 83.149076,15.0770833 83.1674094,15.08625 C83.1857427,15.0954167 83.2114094,15.1 83.2444094,15.1 L83.2444094,15.1 L83.7999094,15.1 C83.8329094,15.1 83.858576,15.09175 83.8769094,15.07525 C83.8952427,15.05875 83.9044094,15.0376667 83.9044094,15.012 L83.9044094,15.012 L83.9044094,11.1015 C83.9044094,11.0758333 83.8989094,11.0556667 83.8879094,11.041 C83.8769094,11.0263333 83.858576,11.019 83.8329094,11.019 L83.8329094,11.019 L83.2224094,11.019 C83.1564094,11.019 83.1234094,11.052 83.1234094,11.118 L83.1234094,11.118 L83.1234094,13.3895 C83.1234094,13.4225 83.1151594,13.4408333 83.0986594,13.4445 C83.0821594,13.4481667 83.0629094,13.4353333 83.0409094,13.406 L83.0409094,13.406 L81.4239094,11.1015 C81.3982427,11.0685 81.375326,11.0465 81.3551594,11.0355 C81.3349927,11.0245 81.3047427,11.019 81.2644094,11.019 L81.2644094,11.019 L80.5989094,11.019 C80.5659094,11.019 80.5411594,11.02725 80.5246594,11.04375 C80.5081594,11.06025 80.4999094,11.0868333 80.4999094,11.1235 L80.4999094,11.1235 L80.4999094,15.0065 C80.4999094,15.0688333 80.536576,15.1 80.6099094,15.1 L80.6099094,15.1 L81.1819094,15.1 Z M86.9733402,15.155 C87.3546735,15.155 87.6865069,15.0715833 87.9688402,14.90475 C88.2511735,14.7379167 88.4684235,14.4968333 88.6205902,14.1815 C88.7727569,13.8661667 88.8488402,13.4958333 88.8488402,13.0705 C88.8488402,12.6415 88.7718402,12.2684167 88.6178402,11.95125 C88.4638402,11.6340833 88.2456735,11.39025 87.9633402,11.21975 C87.6810069,11.04925 87.3510069,10.964 86.9733402,10.964 C86.5920069,10.964 86.2592569,11.04925 85.9750902,11.21975 C85.6909235,11.39025 85.4718402,11.6340833 85.3178402,11.95125 C85.1638402,12.2684167 85.0868402,12.6433333 85.0868402,13.076 C85.0868402,13.505 85.1629235,13.8753333 85.3150902,14.187 C85.4672569,14.4986667 85.6854235,14.7379167 85.9695902,14.90475 C86.2537569,15.0715833 86.5883402,15.155 86.9733402,15.155 Z M86.9733402,14.4785 C86.7680069,14.4785 86.6011735,14.4308333 86.4728402,14.3355 C86.3445069,14.2401667 86.2491735,14.0898333 86.1868402,13.8845 C86.1245069,13.6791667 86.0933402,13.4115 86.0933402,13.0815 C86.0933402,12.5791667 86.1648402,12.2125 86.3078402,11.9815 C86.4508402,11.7505 86.6726735,11.635 86.9733402,11.635 C87.2703402,11.635 87.4894235,11.7505 87.6305902,11.9815 C87.7717569,12.2125 87.8423402,12.5791667 87.8423402,13.0815 C87.8423402,13.4115 87.8111735,13.6791667 87.7488402,13.8845 C87.6865069,14.0898333 87.5920902,14.2401667 87.4655902,14.3355 C87.3390902,14.4308333 87.1750069,14.4785 86.9733402,14.4785 Z M91.6262677,15.155 C92.161601,15.155 92.5695177,15.0330833 92.8500177,14.78925 C93.1305177,14.5454167 93.2707677,14.1448333 93.2707677,13.5875 L93.2707677,13.5875 L93.2707677,11.118 C93.2707677,11.052 93.2432677,11.019 93.1882677,11.019 L93.1882677,11.019 L92.5612677,11.019 C92.5062677,11.019 92.4787677,11.0538333 92.4787677,11.1235 L92.4787677,11.1235 L92.4787677,13.593 C92.4787677,13.8973333 92.4100177,14.1191667 92.2725177,14.2585 C92.1350177,14.3978333 91.9434344,14.4675 91.6977677,14.4675 C91.452101,14.4675 91.265101,14.39875 91.1367677,14.26125 C91.0084344,14.12375 90.9442677,13.9065 90.9442677,13.6095 L90.9442677,13.6095 L90.9442677,11.118 C90.9442677,11.085 90.937851,11.06025 90.9250177,11.04375 C90.9121844,11.02725 90.891101,11.019 90.8617677,11.019 L90.8617677,11.019 L90.0697677,11.019 C90.044101,11.019 90.0230177,11.0281667 90.0065177,11.0465 C89.9900177,11.0648333 89.9817677,11.0923333 89.9817677,11.129 L89.9817677,11.129 L89.9817677,13.4885 C89.9817677,14.0495 90.110101,14.4675 90.3667677,14.7425 C90.6234344,15.0175 91.0432677,15.155 91.6262677,15.155 Z M95.2287294,15.1 C95.2727294,15.1 95.3029794,15.0926667 95.3194794,15.078 C95.3359794,15.0633333 95.3423961,15.0376667 95.3387294,15.001 L95.3387294,15.001 L95.3387294,12.581 C95.3387294,12.5626667 95.3451461,12.5516667 95.3579794,12.548 C95.3708128,12.5443333 95.3845628,12.5516667 95.3992294,12.57 L95.3992294,12.57 L97.1537294,15.034 C97.1757294,15.0596667 97.1958961,15.0770833 97.2142294,15.08625 C97.2325628,15.0954167 97.2582294,15.1 97.2912294,15.1 L97.2912294,15.1 L97.8467294,15.1 C97.8797294,15.1 97.9053961,15.09175 97.9237294,15.07525 C97.9420628,15.05875 97.9512294,15.0376667 97.9512294,15.012 L97.9512294,15.012 L97.9512294,11.1015 C97.9512294,11.0758333 97.9457294,11.0556667 97.9347294,11.041 C97.9237294,11.0263333 97.9053961,11.019 97.8797294,11.019 L97.8797294,11.019 L97.2692294,11.019 C97.2032294,11.019 97.1702294,11.052 97.1702294,11.118 L97.1702294,11.118 L97.1702294,13.3895 C97.1702294,13.4225 97.1619794,13.4408333 97.1454794,13.4445 C97.1289794,13.4481667 97.1097294,13.4353333 97.0877294,13.406 L97.0877294,13.406 L95.4707294,11.1015 C95.4450628,11.0685 95.4221461,11.0465 95.4019794,11.0355 C95.3818128,11.0245 95.3515628,11.019 95.3112294,11.019 L95.3112294,11.019 L94.6457294,11.019 C94.6127294,11.019 94.5879794,11.02725 94.5714794,11.04375 C94.5549794,11.06025 94.5467294,11.0868333 94.5467294,11.1235 L94.5467294,11.1235 L94.5467294,15.0065 C94.5467294,15.0688333 94.5833961,15.1 94.6567294,15.1 L94.6567294,15.1 L95.2287294,15.1 Z M100.98716,15.155 C101.324494,15.155 101.61416,15.0871667 101.85616,14.9515 C102.09816,14.8158333 102.286077,14.6563333 102.41991,14.473 C102.553744,14.2896667 102.638994,14.1191667 102.67566,13.9615 C102.68666,13.8845 102.666494,13.8386667 102.61516,13.824 L102.61516,13.824 L102.07616,13.7085 C102.01016,13.6975 101.969827,13.7085 101.95516,13.7415 C101.859827,13.9908333 101.736077,14.1705 101.58391,14.2805 C101.431744,14.3905 101.24566,14.4455 101.02566,14.4455 C100.724994,14.4455 100.501327,14.3336667 100.35466,14.11 C100.207994,13.8863333 100.13466,13.5306667 100.13466,13.043 C100.13466,12.559 100.210744,12.2033333 100.36291,11.976 C100.515077,11.7486667 100.732327,11.635 101.01466,11.635 C101.216327,11.635 101.37766,11.6936667 101.49866,11.811 C101.61966,11.9283333 101.700327,12.0878333 101.74066,12.2895 C101.747994,12.3225 101.75716,12.3445 101.76816,12.3555 C101.77916,12.3665 101.799327,12.372 101.82866,12.372 L101.82866,12.372 L102.57116,12.3225 C102.60416,12.3188333 102.624327,12.3078333 102.63166,12.2895 C102.638994,12.2711667 102.63716,12.2326667 102.62616,12.174 C102.585827,11.9466667 102.489577,11.7413333 102.33741,11.558 C102.185244,11.3746667 101.992744,11.2298333 101.75991,11.1235 C101.527077,11.0171667 101.269494,10.964 100.98716,10.964 C100.609494,10.964 100.28041,11.0474167 99.9999103,11.21425 C99.7194103,11.3810833 99.5039936,11.6194167 99.3536603,11.92925 C99.2033269,12.2390833 99.1281603,12.6048333 99.1281603,13.0265 C99.1281603,13.4481667 99.2033269,13.8194167 99.3536603,14.14025 C99.5039936,14.4610833 99.7194103,14.7104167 99.9999103,14.88825 C100.28041,15.0660833 100.609494,15.155 100.98716,15.155 Z M104.62261,15.1 C104.673943,15.1 104.711527,15.0899167 104.73536,15.06975 C104.759193,15.0495833 104.77111,15.0156667 104.77111,14.968 L104.77111,14.968 L104.77111,11.118 C104.77111,11.085 104.763777,11.06025 104.74911,11.04375 C104.734443,11.02725 104.712443,11.019 104.68311,11.019 L104.68311,11.019 L103.89661,11.019 C103.867277,11.019 103.845277,11.0281667 103.83061,11.0465 C103.815943,11.0648333 103.80861,11.0905 103.80861,11.1235 L103.80861,11.1235 L103.80861,14.9845 C103.80861,15.0248333 103.817777,15.0541667 103.83611,15.0725 C103.854443,15.0908333 103.88561,15.1 103.92961,15.1 L103.92961,15.1 L104.62261,15.1 Z M106.773039,15.1 C106.817039,15.1 106.847289,15.0926667 106.863789,15.078 C106.880289,15.0633333 106.886706,15.0376667 106.883039,15.001 L106.883039,12.581 C106.883039,12.5626667 106.889456,12.5516667 106.902289,12.548 C106.915123,12.5443333 106.928873,12.5516667 106.943539,12.57 L106.943539,12.57 L108.698039,15.034 C108.720039,15.0596667 108.740206,15.0770833 108.758539,15.08625 C108.776873,15.0954167 108.802539,15.1 108.835539,15.1 L108.835539,15.1 L109.391039,15.1 C109.424039,15.1 109.449706,15.09175 109.468039,15.07525 C109.486373,15.05875 109.495539,15.0376667 109.495539,15.012 L109.495539,15.012 L109.495539,11.1015 C109.495539,11.0758333 109.490039,11.0556667 109.479039,11.041 C109.468039,11.0263333 109.449706,11.019 109.424039,11.019 L109.424039,11.019 L108.813539,11.019 C108.747539,11.019 108.714539,11.052 108.714539,11.118 L108.714539,11.118 L108.714539,13.3895 C108.714539,13.4225 108.706289,13.4408333 108.689789,13.4445 C108.673289,13.4481667 108.654039,13.4353333 108.632039,13.406 L108.632039,13.406 L107.015039,11.1015 C106.989373,11.0685 106.966456,11.0465 106.946289,11.0355 C106.926123,11.0245 106.895873,11.019 106.855539,11.019 L106.855539,11.019 L106.190039,11.019 C106.157039,11.019 106.132289,11.02725 106.115789,11.04375 C106.099289,11.06025 106.091039,11.0868333 106.091039,11.1235 L106.091039,11.1235 L106.091039,15.0065 C106.091039,15.0688333 106.127706,15.1 106.201039,15.1 L106.201039,15.1 L106.773039,15.1 Z M112.50947,15.155 C112.70747,15.155 112.879804,15.1293333 113.02647,15.078 C113.173137,15.0266667 113.294137,14.9643333 113.38947,14.891 C113.484804,14.8176667 113.57647,14.7296667 113.66447,14.627 C113.679137,14.6086667 113.691054,14.5995 113.70022,14.5995 C113.709387,14.5995 113.715804,14.605 113.71947,14.616 L113.71947,14.616 L113.87897,15.012 C113.897304,15.045 113.918387,15.0679167 113.94222,15.08075 C113.966054,15.0935833 113.992637,15.1 114.02197,15.1 L114.02197,15.1 L114.19797,15.1 C114.223637,15.1 114.243804,15.09175 114.25847,15.07525 C114.273137,15.05875 114.28047,15.0395 114.28047,15.0175 L114.28047,15.0175 L114.28047,13.164 C114.28047,13.1236667 114.26672,13.0915833 114.23922,13.06775 C114.21172,13.0439167 114.172304,13.032 114.12097,13.032 L114.12097,13.032 L112.65247,13.0265 C112.593804,13.0265 112.56447,13.0521667 112.56447,13.1035 L112.56447,13.1035 L112.56447,13.516 C112.56447,13.549 112.570887,13.5728333 112.58372,13.5875 C112.596554,13.6021667 112.61947,13.6095 112.65247,13.6095 L112.65247,13.6095 L113.31797,13.6095 C113.369304,13.6095 113.387637,13.637 113.37297,13.692 L113.37297,13.692 L113.36197,13.8515 C113.336304,13.9651667 113.291387,14.0696667 113.22722,14.165 C113.163054,14.2603333 113.07597,14.3364167 112.96597,14.39325 C112.85597,14.4500833 112.725804,14.4785 112.57547,14.4785 C112.282137,14.4785 112.059387,14.3666667 111.90722,14.143 C111.755054,13.9193333 111.67897,13.5526667 111.67897,13.043 C111.67897,12.5553333 111.752304,12.1996667 111.89897,11.976 C112.045637,11.7523333 112.260137,11.6405 112.54247,11.6405 C112.68547,11.6405 112.812887,11.6698333 112.92472,11.7285 C113.036554,11.7871667 113.126387,11.8669167 113.19422,11.96775 C113.262054,12.0685833 113.30697,12.1795 113.32897,12.3005 C113.336304,12.3371667 113.34547,12.361 113.35647,12.372 C113.36747,12.383 113.387637,12.3885 113.41697,12.3885 L113.41697,12.3885 L114.14297,12.2785 C114.17597,12.2711667 114.197054,12.2583333 114.20622,12.24 C114.215387,12.2216667 114.21447,12.185 114.20347,12.13 C114.163137,11.9283333 114.069637,11.7385833 113.92297,11.56075 C113.776304,11.3829167 113.58472,11.239 113.34822,11.129 C113.11172,11.019 112.85047,10.964 112.56447,10.964 C112.19047,10.964 111.86047,11.0501667 111.57447,11.2225 C111.28847,11.3948333 111.066637,11.6405 110.90897,11.9595 C110.751304,12.2785 110.67247,12.6506667 110.67247,13.076 C110.67247,13.4903333 110.747637,13.85425 110.89797,14.16775 C111.048304,14.48125 111.261887,14.7241667 111.53872,14.8965 C111.815554,15.0688333 112.139137,15.155 112.50947,15.155 Z" id="ANNOUNCING" fill="#93D500" fill-rule="nonzero"></path><g id="noun_Bullhorn_684415" transform="translate(20.000000, 9.000000)" fill-rule="nonzero" stroke="#FFFFFF"><path d="M3.53944348,29.1888324 C3.91332402,29.8080318 4.71915421,30.0174368 5.35226894,29.6599175 C5.98538367,29.3023982 6.21305295,28.5093772 5.86444219,27.8759079 L5.52777287,27.2919504 L10.0470634,26.4689231 L10.9382469,28.0091599 C12.2875364,30.3278137 15.1125112,31.3693687 17.6661888,30.4897207 C20.2198664,29.6100726 21.7804721,27.0578464 21.3829174,24.4113549 L31.1740533,22.6281291 L31.8553136,23.8038824 C32.0870927,24.2250539 32.5308236,24.4893829 33.0154516,24.4949725 C33.5000795,24.5005622 33.9499168,24.2465395 34.1915545,23.8308283 C34.4331923,23.4151172 34.4288924,22.9026419 34.1803123,22.4909579 L21.5651149,0.64546216 C21.1912344,0.0262627 20.3854042,-0.183142256 19.7522894,0.17437701 C19.1191747,0.531896276 18.8915054,1.32491737 19.2401162,1.95838664 L19.8065128,2.93818104 L2.72351549,22.4517661 L2.50567063,22.0598484 C2.26794003,21.6481933 1.82631931,21.3933028 1.34716272,21.3911917 C0.868006128,21.3890806 0.42410895,21.6400696 0.182682958,22.0496136 C-0.0587430347,22.4591575 -0.0610194907,22.965037 0.176711109,23.376692 L3.53944348,29.1888324 Z M17.1788546,27.5191791 C16.4916918,27.864936 15.6755138,27.9571954 14.9104849,27.7755918 C14.145456,27.5939882 13.4944819,27.1534543 13.1012595,26.5512342 L12.7018868,25.9117615 L18.6565336,24.9333333 C18.804298,25.9770357 18.2217895,26.9963891 17.1788546,27.5191791 Z M6.75334099,21.6786335 L20.0042012,6.75334402 C20.1008501,6.64467565 20.2453143,6.58831281 20.3920333,6.60203095 C20.5387523,6.61574908 20.6696403,6.69785717 20.7434183,6.82246036 L22.3162207,9.49111901 C22.5009215,9.80701672 22.4205976,10.2073887 22.1274845,10.4318692 L7.05610545,21.970458 C6.97012047,22.019695 6.86098924,22.0063837 6.79004772,21.9380055 C6.71910619,21.8696273 6.70404987,21.7632385 6.75334099,21.6786335 Z M31.2548264,8.60120164 L35.5230821,6.03665926 C35.9032742,5.80832614 36.3706991,5.81012712 36.7492823,6.04138378 C37.1278654,6.27264044 37.3600912,6.6982194 37.3584906,7.15780918 C37.3568733,7.61739895 37.1216742,8.04117693 36.7414821,8.26951004 L32.4693707,10.8300074 C32.0891786,11.0583405 31.6217538,11.0565395 31.2431706,10.8252829 C30.8645874,10.5940262 30.6323617,10.1684473 30.6339623,9.70885749 C30.6355795,9.24926772 30.8707786,8.82548974 31.2509707,8.59715662 L31.2548264,8.60120164 Z M28.0620438,7.01050497 C27.5636548,6.56834675 27.5044929,5.8293503 27.9265884,5.31851859 L31.280136,1.26092127 C31.5559446,0.883050342 32.0260234,0.683932891 32.5008249,0.743858056 C32.9756263,0.803783221 33.3768773,1.11287207 33.5427833,1.54649225 C33.7086894,1.98011243 33.6119002,2.46677974 33.2914436,2.81025774 L29.937896,6.86785506 C29.714794,7.13622605 29.3865227,7.30342008 29.0311088,7.32969691 C28.6756948,7.35597373 28.3248781,7.23898673 28.0620438,7.00654247 L28.0620438,7.01050497 Z M33.1141241,12.4186923 L38.1519961,11.7540174 C38.5931752,11.6744485 39.0454878,11.8280011 39.3284453,12.1534023 C39.6114027,12.4788034 39.6789422,12.9230808 39.5041131,13.3089522 C39.3292839,13.6948236 38.9405467,13.9594727 38.4930213,13.9972952 L33.4551493,14.6619701 C32.8095594,14.716532 32.2314218,14.2897477 32.1404707,13.6914672 C32.0495195,13.0931867 32.4776893,12.5334766 33.1141241,12.4186923 L33.1141241,12.4186923 Z" id="Shape"></path></g></g></svg> 