<?xml version="1.0" encoding="UTF-8"?> <svg xmlns="http://www.w3.org/2000/svg" xmlns:xlink="http://www.w3.org/1999/xlink" width="216px" height="50px" viewBox="0 0 216 50" version="1.1"><!-- Generator: Sketch 64 (93537) - https://sketch.com --><title>SPEKTRA-Announcement-Bnnr-A</title><desc>Created with Sketch.</desc><g id="SPEKTRA-Announcement-Bnnr-A" stroke="none" stroke-width="1" fill="none" fill-rule="evenodd"><text id="SPEKTRA-2.4-Copy-4" font-family="LibreFranklin-Regular, Libre Franklin" font-size="21.6" font-weight="normal"><tspan x="77" y="39.4" fill="#FFFFFF">SPEKTRA </tspan><tspan x="179.6" y="39.4" fill="#93D500">2.4</tspan></text><g id="diamanti-logo-pms375-copy-4" transform="translate(77.000000, 8.000000)" fill="#93D500" fill-rule="nonzero"><path d="M13.3677623,6.1154712 L10.4994966,6.1154712 L11.4194389,1.2774328 L14.2483806,1.2774328 C15.5091305,1.2774328 16.3933237,1.57176666 16.8735526,2.15328458 C17.211977,2.56201541 17.3299489,3.10301773 17.2131686,3.71551816 C16.9927162,4.87617072 15.866621,6.1154712 13.3677623,6.1154712 Z M12.284566,4.80705589 L13.5048003,4.80705589 C14.7345677,4.80705589 15.4018833,4.43764902 15.5460712,3.67738584 C15.602078,3.38305198 15.5627541,3.16021622 15.4245244,2.99457894 C15.2040719,2.72765268 14.7131183,2.59299792 13.9647714,2.59299792 L12.7052132,2.59299792 L12.284566,4.80705589 Z" id="Shape"></path><polygon id="Path" points="18.8754996 6.1154712 17.339482 6.1154712 18.2594242 1.2774328 19.7954418 1.2774328"></polygon><path d="M26.3256021,6.1154712 L24.5488742,6.1154712 L24.1913836,5.07994032 L21.600769,5.07994032 L20.8428891,6.1154712 L19.0899939,6.1154712 L22.6434497,1.27147462 L24.6156057,1.27147462 L26.3256021,6.1154712 Z M22.3872481,3.94312046 L23.8398513,3.94312046 L23.4108627,2.58703975 L23.3488976,2.58703975 L22.3872481,3.94312046 Z" id="Shape"></path><polygon id="Path" points="34.009265 6.1154712 32.4863554 6.1154712 33.0404657 3.20549835 30.6893697 6.1154712 29.885016 6.1154712 28.6469072 3.17570747 28.0880303 6.1154712 26.5722705 6.1154712 27.4922128 1.2774328 29.558508 1.2774328 30.7096275 3.99793567 32.889128 1.2774328 34.9303989 1.2774328"></polygon><path d="M41.4808169,6.1154712 L39.704089,6.1154712 L39.3465985,5.07994032 L36.7559839,5.07994032 L35.998104,6.1154712 L34.2440171,6.1154712 L37.7974729,1.27147462 L39.769629,1.27147462 L41.4808169,6.1154712 Z M37.542463,3.94312046 L38.9950662,3.94312046 L38.5660775,2.58703975 L38.5041125,2.58703975 L37.542463,3.94312046 Z" id="Shape"></path><polygon id="Path" points="47.8250821 6.1154712 46.1782424 6.1154712 43.8378711 3.05296906 43.2551616 6.1154712 41.7251021 6.1154712 42.6450444 1.2774328 44.4968453 1.2774328 46.6763458 4.14808169 47.2221147 1.2774328 48.7450243 1.2774328"></polygon><polygon id="Path" points="52.0851774 6.1154712 50.54201 6.1154712 51.2117089 2.59299792 48.9499856 2.59299792 49.2002289 1.2774328 55.2739929 1.2774328 55.0237495 2.59299792 52.7548764 2.59299792"></polygon><polygon id="Path" points="56.3345481 6.1154712 54.7985305 6.1154712 55.7184728 1.2774328 57.2544904 1.2774328"></polygon><polygon id="Path" points="4.9059616 8.23181509 0.0571984836 2.22239941 1.76481154 0.104863887 5.92838449 0.104863887 7.58594888 2.13421842 4.88093726 5.47556316 4.08135013 4.48531442 5.94864229 2.17235074 5.33018369 1.37872178 2.33560475 1.37872178 1.65518112 2.22120778 4.90476996 6.25012596 8.15555045 2.22120778 6.46104537 0.104863887 8.04711165 0.104863887 9.75472472 2.22120778"></polygon></g><polygon id="Rectangle-Copy-5" fill="#93D500" points="56.9414062 8 63 8 70.5 23.8145161 63 40 56.9414062 40 64.4414062 24.3487903"></polygon><text id="ANNOUNCING-Copy-3" font-family="LibreFranklin-Regular_Bold, Libre Franklin" font-size="6" font-weight="bold" letter-spacing="0.6" fill="#FFFFFF"><tspan x="7" y="26">ANNOUNCING</tspan></text></g></svg> 