<?xml version="1.0" encoding="UTF-8"?> <svg xmlns="http://www.w3.org/2000/svg" width="16" height="18" viewBox="0 0 16 18"><path fill="#2B2B2B" d="M7.457 12.962h1.086c.9-.002 1.628-.776 1.629-1.731h2.172c.777 0 1.536-.255 2.172-.73v5.922c0 .319-.243.577-.543.577H2.027c-.3 0-.543-.258-.543-.577v-5.921c.636.474 1.395.729 2.172.729h2.172c.001.955.73 1.73 1.629 1.73zM.941 7.192V4.885c0-.319.243-.577.543-.577h3.801V2.577c0-.319.243-.577.543-.577h4.344c.3 0 .543.258.543.577v1.73h3.8c.3 0 .544.259.544.578v2.307c-.002 1.593-1.216 2.883-2.715 2.885h-2.172c-.001-.956-.73-1.73-1.629-1.73H7.457c-.9 0-1.628.774-1.629 1.73H3.656C2.157 10.075.943 8.785.941 7.192zm5.43-2.884h3.258V3.154H6.371v1.154zm2.172 7.5c.3 0 .543-.259.543-.577v-1.154c0-.319-.243-.577-.543-.577H7.457c-.3 0-.543.258-.543.577v1.154c0 .318.243.577.543.577h1.086z"></path></svg> 