<?xml version="1.0" encoding="UTF-8"?> <svg xmlns="http://www.w3.org/2000/svg" width="16" height="18" viewBox="0 0 16 18"><g fill="#2492C3"><path d="M14.29 10.313c.067-.307.11-.628.11-.958 0-2.343-1.779-4.241-3.979-4.241-1.042 0-1.983.438-2.69 1.134-.395-.19-.833-.303-1.297-.303-1.757 0-3.183 1.52-3.183 3.391 0 .335.06.652.145.954-1 .303-1.736 1.275-1.736 2.437 0 1.407 1.068 2.546 2.387 2.546h9.544c1.32 0 2.388-1.14 2.388-2.546 0-1.139-.715-2.097-1.69-2.414z" transform="translate(0 2)"></path><path d="M6.434 4.255c.332 0 .664.036.992.113.893-.615 1.931-.945 3-.945.825 0 1.604.199 2.306.542C12.592 1.76 10.885.014 8.783.014 7.74.014 6.8.452 6.093 1.148 5.699.958 5.26.845 4.797.845c-1.758 0-3.183 1.52-3.183 3.391 0 .335.06.652.144.954-1 .303-1.736 1.275-1.736 2.437 0 .932.473 1.737 1.175 2.18.144-.159.298-.312.468-.448v-.014c0-2.812 2.14-5.09 4.77-5.09z" transform="translate(0 2)"></path></g></svg> 