<?xml version="1.0" encoding="UTF-8"?> <svg xmlns="http://www.w3.org/2000/svg" width="140" height="104" viewBox="0 0 140 104"><g fill="#FFF" opacity="1"><path d="M4.55 11.622c0 .508-.402.926-.892.926H1.872c-.492 0-.892-.418-.892-.926 0-.509.4-.927.892-.927h1.786c.49 0 .893.418.893.927zM12.486 11.622c0 .508-.402.926-.892.926H7.03c-.49 0-.893-.418-.893-.926 0-.509.403-.927.893-.927h4.563c.49 0 .892.418.892.927zM6.535 6.475c0 .508-.403.926-.893.926H3.856c-.492 0-.892-.418-.892-.926 0-.509.4-.927.892-.927h1.786c.49 0 .893.418.893.927zM14.47 6.475c0 .508-.402.926-.892.926H9.015c-.49 0-.893-.418-.893-.926 0-.509.403-.927.893-.927h4.563c.49 0 .892.418.892.927zM6.535 16.77c0 .51-.403.926-.893.926H3.856c-.492 0-.892-.416-.892-.927 0-.51.4-.926.892-.926h1.786c.49 0 .893.416.893.926zM14.47 16.77c0 .51-.402.926-.892.926H9.015c-.49 0-.893-.416-.893-.927 0-.51.403-.926.893-.926h4.563c.49 0 .892.416.892.926zM15.066 1.224c0 .453-.403.824-.893.824h-4.166c-.49 0-.893-.37-.893-.824 0-.453.402-.823.893-.823h4.166c.49 0 .893.37.893.823zM21.017 1.224c0 .453-.402.824-.892.824h-2.183c-.49 0-.893-.37-.893-.824 0-.453.403-.823.893-.823h2.183c.49 0 .892.37.892.823zM15.066 22.02c0 .452-.403.823-.893.823h-4.166c-.49 0-.893-.37-.893-.824 0-.453.402-.823.893-.823h4.166c.49 0 .893.37.893.823zM21.017 22.02c0 .452-.402.823-.892.823h-2.183c-.49 0-.893-.37-.893-.824 0-.453.403-.823.893-.823h2.183c.49 0 .892.37.892.823zM34.643 17.232c-3.093 0-5.61-2.157-5.61-4.809 0-2.651 2.517-4.809 5.61-4.809 3.093 0 5.61 2.158 5.61 4.81 0 2.651-2.517 4.808-5.61 4.808zm0-8.244c-2.305 0-4.182 1.541-4.182 3.435 0 1.895 1.877 3.435 4.182 3.435 2.305 0 4.182-1.54 4.182-3.435 0-1.894-1.877-3.435-4.182-3.435zM22.407 17.232c-2.975 0-5.397-2.157-5.397-4.809 0-2.651 2.422-4.809 5.397-4.809 1.531 0 2.995.581 4.018 1.594.269.267.27.703.004.972-.267.269-.703.27-.972.004-.767-.76-1.878-1.198-3.05-1.198-2.218 0-4.023 1.541-4.023 3.435 0 1.895 1.805 3.435 4.023 3.435 1.172 0 2.283-.435 3.05-1.195.27-.267.705-.265.972.004s.265.705-.004.972c-1.023 1.014-2.487 1.595-4.018 1.595zM51.541 17.232h-.008c-.394-.193-.71-.358-.706-.734l.004-.33c.057-5.058.036-5.926-1.007-6.574-1.43-.885-4.252-.632-5.736-.368v7.231c0 .374-.321.679-.715.679-.394 0-.715-.305-.715-.679V8.143l.545-.126c.2-.047 4.916-1.113 7.401.428 1.73 1.072 1.713 2.479 1.654 7.714l-.004.354c-.002.373-.32.72-.713.72zM61.864 1.698c-.113-.367-.515-.576-.895-.467-.19.056-4.685 1.393-4.685 4.573v9.932c0 .383.322.695.718.695.396 0 .718-.312.718-.695V9.578c0-.499.128-.872.38-1.108.201-.19.608-.412 1.398-.384l.07.002c.394 0 .71-.308.714-.689.004-.381-.316-.695-.71-.701h-.027c-.802-.026-1.394.133-1.825.347V5.804c0-.858.581-1.653 1.729-2.362.946-.584 1.917-.874 1.933-.878.38-.111.595-.498.482-.866zM65.902 17.232c-.442 0-.802-.31-.802-.69V4.297c0-.381.36-.691.802-.691.442 0 .801.31.801.69v12.244c0 .381-.36.691-.801.691zM76.135 16.43c-1.326 0-2.749-.19-3.78-.833-1.701-1.06-1.685-2.417-1.626-7.465l.006-.604c.004-.373.322-.715.713-.715h.008c.393 0 .709.353.704.728l-.006.583c-.057 4.852-.036 5.688.982 6.321 1.427.89 4.275.632 5.768.365V7.592c0-.375.32-.68.712-.68.393 0 .713.305.713.68v8.31l-.546.127c-.118.025-1.787.402-3.648.402zM106.845 17.232h-.008c-.394-.193-.71-.358-.706-.734l.004-.33c.057-5.058.037-5.926-1.007-6.574-1.43-.885-4.252-.632-5.736-.368v7.231c0 .374-.32.679-.715.679-.394 0-.715-.305-.715-.679V8.143l.546-.126c.2-.047 4.915-1.113 7.4.428 1.73 1.072 1.713 2.479 1.654 7.714l-.004.354c-.002.373-.32.72-.713.72zM90.383 16.43c-2.06 0-4.085-.343-5.403-1.416-.96-.78-1.445-1.85-1.445-3.183 0-1.67.653-3.02 1.891-3.908 1.729-1.24 4.24-1.315 5.957-.84 3.076.85 3.455 3.552 3.228 4.863l-.102.583h-7.014c-.403 0-.73-.312-.73-.696 0-.384.327-.697.73-.697H93.2c-.03-.807-.363-2.198-2.225-2.713-1.326-.367-3.355-.33-4.675.614-.867.623-1.307 1.562-1.307 2.794 0 .92.304 1.613.932 2.123.777.633 2.85 1.578 7.986.788.398-.062.773.197.836.577.064.38-.207.736-.605.798-1.155.177-2.465.314-3.76.314zM116.486 15.736c-3.474 0-3.474-1.137-3.474-1.816V9.859c0-.537.126-.939.376-1.193.2-.203.604-.443 1.386-.413.03 0 .053.003.069.003.39 0 .704-.332.708-.742.004-.41-.314-.748-.704-.755h-.027c-.795-.027-1.38.144-1.808.374V5.156c0-.412-.32-.748-.712-.748-.393 0-.712.336-.712.748v8.764c0 3.312 3.56 3.312 4.898 3.312.393 0 .712-.335.712-.748 0-.412-.317-.748-.712-.748z" transform="translate(11 63)"></path></g></svg> 