<?xml version="1.0" encoding="UTF-8"?> <svg xmlns="http://www.w3.org/2000/svg" width="140" height="54" viewBox="0 0 140 54"><g fill="none" fill-rule="evenodd" opacity="1"><path fill="#FFF" fill-rule="nonzero" d="M21.172 12.44c-.026-.076-.048-.146-.075-.213-.152-.396-.317-.785-.494-1.167-.467-1.004-1.019-1.963-1.614-2.9-.085-.133-.164-.268-.25-.4-.274-.419-.605-.79-.934-1.162-.287-.325-.573-.652-.815-1.014-.228-.341-.53-.635-.816-.932-.363-.378-.793-.67-1.309-.783-.052-.01-.105-.019-.157-.03.053.118.098.234.138.35.043.129.079.257.1.388.018.107.03.215.03.325-.001.117-.028.217-.084.3-.055.081-.137.144-.249.186-.145.053-.291.103-.483.17l-.288.142.114-.371-.156-.056c.124-.348.251-.681.585-.898-.019.06-.051.12-.054.18 0 .074.023.148.037.222.066-.017.142-.019.198-.054.107-.07.173-.165.126-.31-.014-.04-.022-.083-.031-.127-.005-.024-.012-.05-.016-.075l-.03-.158c-.236.152-.462.288-.609.498-.05.07-.09.148-.118.238-.008.025-.015.057-.034.073-.08.067-.165.13-.248.194-.047-.111-.146-.232-.128-.331.025-.142.136-.267.203-.385.195-.309.824-.475.962-.507-.419-.088-.842-.163-1.267-.188-1.513-.086-2.965.082-4.2 1.1-.2.166-.472.26-.726.344-.28.093-.389.29-.249.555.03.057.066.105.107.145.122.12.286.173.463.194.19.023.382.02.576.03-.009.017-.01.033-.02.04-.896.68-1.79 1.363-2.69 2.039-.327.246-.703.376-1.11.393h-.001c-.257.011-.515-.009-.772-.007-.387.001-.546.137-.607.472.09.01.13.103.14.205.008.103-.014.215-.05.265-.085.115-.287.168-.457.177-.058.002-.111 0-.156-.006-.004-.014.005-.027.004-.041-.046.03-.092.06-.137.092-.096.071-.145.147-.149.22-.003.075.039.147.126.209.141.1.31.128.47.098.16-.03.31-.119.413-.253l-.04.071.54-.378s-.125.27-.383.522c-.103.1-.228.198-.375.274-.073.039-.152.071-.236.096-.132-.004-.244-.021-.323-.038-.079-.016-.125-.032-.125-.032l-.04.124h-.011l.007.013c-.434 1.307-.56 2.243-.506 2.634.02.138.072.226.14.283.204.168.548.041.548.041.657-.186 1.249-.26 1.733-.282.16-.008.31-.008.445-.006.27.005.486.026.634.045.148.02.229.038.229.038.669.221 1.294.314 1.814.342.867.048 1.442-.08 1.442-.08s.087-.012.227-.04c.233-.047.611-.142.971-.307.144-.066.285-.144.413-.234.383-.271.645-.66.505-1.205-.034-.236-.199-.476-.4-.698-.117-.13-.244-.255-.374-.364-.177-.149-.35-.274-.478-.362-.13-.089-.214-.14-.214-.14.447-.032.916.14 1.288.426.167.128.31.282.429.45.146.205.252.433.288.671.045.285.022.582.023.872.002.326-.144.583-.411.753-.64.407-1.328.705-2.064.843-1.004.126-2.078-.043-3.146-.183-1.069-.14-2.131-.246-3.114.004-.03.007-.054.02-.073.035-.078.063-.078.18-.024.257.026.04.066.07.116.077.025.005.053.004.083-.004.152-.04.306-.069.462-.092.032-.005.066-.007.098-.011.124-.015.248-.03.373-.038.023-.002.047 0 .07-.002.136-.008.274-.012.412-.011h.001c2.05.016 4.244.831 6.129-.041.033-.016.068-.027.102-.043.226.015.452.027.694.042-.124.12-.249.272-.405.38-.13.09-.295.13-.447.186-.099.038-.184.088-.134.206.08.187.085.36-.067.53.138-.018.267-.025.369-.08.41-.223.817-.451 1.214-.697.163-.101.34-.225.437-.384.269-.446.496-.915.745-1.373.032-.06.081-.127.14-.151.123-.052.256-.077.396-.116.116.208.223.415.22.633 0 .009.003.016.003.025-.005.075-.023.154-.059.233-.15.327-.368.593-.793.522-.007-.001-.013.001-.02.001-.147.008-.247.056-.292.222-.02.073-.016.129 0 .175.024.061.074.107.149.149.09.05.177.102.264.156l.155.091c.103.057.206.104.309.139.103.034.207.056.313.065.21.016.423-.023.64-.134 1.11-.564 2.056-1.318 2.65-2.436.074-.137.145-.277.211-.419.066-.141.126-.285.178-.432.102-.293.167-.597.165-.916 0-.017-.003-.034-.004-.051-.008-.465-.093-.929-.143-1.397.028.066.063.125.103.175.122.147.299.213.546.152-.012.167-.022.3-.03.435-.017.25-.048.499-.044.748.002.153.015.305.028.456.013.152.026.304.03.456.009.71-.086 1.404-.38 2.106l.096-.07.072-.051c-.072.216-.152.418-.206.625-.07.266-.11.524-.12.77l.001.013c-.013.424.076.82.27 1.188.146.273.346.531.623.769.625.538 1.292 1.009 2.002 1.423l.44.25c-.106.043-.208.078-.305.114-.097.036-.19.073-.28.116-.689.332-1.4.628-2.054 1.017-.41.245-.702.61-.897 1.02-.065.137-.12.279-.164.423-.089.287-.138.582-.153.861-.016.279.002.543.046.768.002.01.007.016.01.025 2.927-1.548 5.14-4.254 6.044-7.508-.206-.245-.418-.485-.644-.715-.648-.661-1.275-1.358-2.05-1.87-.258-.172-.533-.323-.83-.446.181-.055.367-.113.564-.175M6.006 9.64c-.024-.204.108-.292.264-.347.161-.056.314-.029.42.061.036.03.067.067.09.11.013.02.016.044.025.066.088.21.058.458-.09.592-.069.061-.137.094-.21.093-.036 0-.073-.01-.111-.027-.038-.017-.078-.043-.119-.08l.194-.043c-.134-.086-.204-.188-.191-.323.005-.045.019-.093.042-.147-.06.01-.114.017-.164.024l-.15.02zm.878 1.336c-.195.018-.363.011-.51-.012-.145-.023-.268-.063-.372-.114-.207-.101-.337-.243-.416-.368-.101-.158-.123-.291-.123-.291l.009-.051c.102.16.256.288.448.376.111.051.232.091.37.107.13.015.26.021.385.015.253-.013.495-.072.726-.197.116-.063.228-.142.338-.24-.003.241.073.405.214.51-.424.158-.776.239-1.069.265M7.59 9c-.143-.25-.358-.406-.616-.508-.124-.05-.256-.091-.4-.117.122 0 .248-.015.372-.02.062-.003.123-.004.182 0 .06.005.118.014.174.031.102.033.202.052.299.06.097.007.192.003.286-.009.093-.013.184-.035.276-.065.09-.03.181-.067.272-.11l.172-.073-1.017.81m4.574-2.506s.005.627-.529.619c-.284-.035-.424-.274-.398-.416-.107.055-.277.16-.472.342 0 0 .579-1.132 1.698-.597 0 0-.161.015-.3.052" transform="translate(2 13)"></path><path fill="#FFF" fill-rule="nonzero" d="M5.337 19.086c.06.6.197 1.177.382 1.74.048.148.1.294.155.44.048.127.095.254.147.381.056.134.118.267.178.4.156.345.318.69.476 1.035l.064-.02.036-.113c.336-1.014.642-2.04 1.023-3.037.034-.09.057-.173.067-.25.02-.154-.009-.285-.083-.404-.038-.06-.086-.116-.147-.17-.067-.062-.151-.106-.24-.143-.09-.038-.185-.069-.274-.105-.038-.015-.08-.02-.129-.024-.04-.003-.084-.005-.133-.011.32-.172.637-.233.956-.221.106.003.213.015.32.033.14.023.202-.005.26-.134.318-.695.647-1.387.97-2.08.034-.07.063-.144.12-.277-.318-.018-.625-.044-.928-.066l-.1-.007c-.315-.02-.626-.036-.935-.027-.562.016-.768.037-.983.222-.086.073-.174.174-.287.31l-.191.233c-.416.505-.663 1.054-.724 1.664-.02.203-.02.414 0 .631M9.002 18.468c-.05.209.051.294.375.43l3.706.987c.662.174 1.33.326 2.02.334.346.005.665-.038.949-.14.189-.068.362-.162.517-.288.232-.189.423-.447.564-.787.005-.013.01-.025.018-.037.578-.998.703-2.108.773-3.229.013-.205.04-.394.161-.574.076-.11.096-.26.156-.436l-.061.043c-.014.008-.02.014-.025.02-.359.506-.856.796-1.45.943-.085.022-.167.081-.237.139-.467.38-.913.788-1.399 1.143-.295.217-.602.383-.918.508-.315.125-.64.209-.97.26-.33.053-.667.073-1.007.07h-.02c-.32-.003-.644-.027-.969-.063l-.044-.004-.03-.004c-.136-.015-.271-.038-.402-.07-.21-.052-.406-.131-.576-.26-.17-.13-.312-.307-.413-.555-.216.456-.42.883-.62 1.313-.047.105-.081.187-.098.257M8.946 20.098c-.14.07-.269.158-.387.266-.119.107-.228.234-.326.38-.195.29-.373.604-.493.93-.106.285-.202.571-.29.858-.087.288-.167.577-.24.867 1.576.742 3.33 1.17 5.188 1.17 1.454 0 2.842-.267 4.134-.734-.343-1.197-1.06-2.084-2.201-2.678-.697-.362-1.415-.642-2.153-.844-.739-.203-1.499-.33-2.278-.384-.358-.025-.676.033-.954.17" transform="translate(2 13)"></path><path d="M5.906 22.684c-.223-.455-.424-.917-.592-1.393-.183-.52-.33-1.054-.43-1.605" transform="translate(2 13)"></path><path stroke="#FFF" stroke-width=".5" d="M24.132 15.648c.167-.806.457-2.414.457-3.27 0-2.512-.762-4.847-2.066-6.788-.437-.645-.935-1.247-1.484-1.797-1.383-1.384-3.096-2.438-5.01-3.034C14.883.4 13.663.209 12.4.209c-3.792 0-7.187 1.735-9.43 4.453-.247.297-.478.607-.695.928C.969 7.53.208 9.866.208 12.379c0 4.15 3.274 8.45 6.443 10.65" transform="translate(2 13)"></path><path d="M4.884 19.686c-.046-.258-.077-.517-.086-.777-.008-.26.004-.52.042-.781.05-.347.167-.657.325-.95.158-.29.356-.561.57-.824l.141-.172c.004-.004.003-.013.01-.04-.552-.072-.95-.338-1.16-.848-.09-.218-.25-.311-.439-.357-.063-.016-.129-.025-.197-.034-.114-.014-.231-.008-.345-.025-.216-.034-.365-.15-.425-.331-.02-.06-.03-.128-.03-.201 0-.107-.006-.18-.136-.2-.2-.033-.362-.1-.49-.193-.064-.047-.12-.1-.167-.158-.06-.072-.105-.156-.143-.242-.078-.183-.11-.386-.102-.587v-.006c.003-.074.012-.148.025-.219.08-.452.2-.897.295-1.346.08-.376.15-.756.225-1.133.083-.413.35-.699.677-.93.09-.064.16-.134.213-.215.053-.08.09-.172.113-.277.08-.369.275-.576.578-.626.101-.016.215-.015.34.003.094.015.186.037.28.048.112.013.221.02.329.016.322-.008.628-.093.909-.297.405-.294.82-.575 1.225-.872.051-.038.08-.136.082-.206.006-.291-.013-.583-.003-.874.007-.171.033-.326.08-.465.139-.418.459-.695.953-.82.347-.087.632-.272.886-.51.02-.02.04-.052.052-.084.013-.032.018-.064.009-.081-.097-.177-.133-.345-.126-.506.005-.107.028-.212.065-.314.056-.154.142-.304.24-.452.03-.045.063-.088.11-.154.071.077.147.15.22.225.222.223.433.452.504.802.407-.087.823-.17 1.237-.266.306-.07.61-.117.913-.141.911-.072 1.811.057 2.697.34.249.08.48.195.697.329.183.112.36.235.52.381.116.106.226.22.33.343l.582.69c.385.463.763.93 1.127 1.406.182.239.36.48.534.724.348.487.677.988.981 1.506.305.517.583 1.053.828 1.61.277.632.529 1.276.8 1.912.043.1.113.2.195.27.832.697 1.612 1.444 2.316 2.257" transform="translate(2 13)"></path><path fill="#FFF" fill-rule="nonzero" d="M36.837 10.616h-2.48c-.222-.685-.832-1.13-1.72-1.13-1.352 0-2.166 1.056-2.166 2.61 0 1.462.814 2.628 2.24 2.628.961 0 1.517-.573 1.757-1.221h2.536c-.5 1.813-1.851 3.349-4.33 3.349-2.628 0-4.738-1.869-4.738-4.775 0-2.59 1.795-4.7 4.719-4.7 2.535 0 3.905 1.758 4.182 3.239M44.588 9.82c-.315-.056-.685-.112-1.184-.112-1.48 0-2.22.926-2.22 2.517v4.312h-2.5V7.674h2.443v1.369h.056c.48-.87 1.406-1.629 2.59-1.629.352 0 .574.019.815.074V9.82zM54.191 16.537h-2.48v-1.111h-.055c-.722 1.055-1.628 1.406-2.591 1.406-1.443 0-3.22-.888-3.22-3.904V7.672h2.498v4.941c0 1.296.611 1.999 1.573 1.999 1.092 0 1.776-.759 1.776-2.24v-4.7h2.5v8.865zM56.482 7.674h2.462v1.11h.073c.611-.98 1.61-1.388 2.629-1.388 1.998 0 3.386 1.332 3.386 4.053v5.089h-2.499v-4.923c0-1.332-.629-2.017-1.665-2.017-1.092 0-1.888.778-1.888 2.258v4.682h-2.498V7.674zM75.54 10.616h-2.479c-.222-.685-.832-1.13-1.721-1.13-1.35 0-2.165 1.056-2.165 2.61 0 1.462.815 2.628 2.24 2.628.962 0 1.518-.573 1.758-1.221h2.534c-.5 1.813-1.85 3.349-4.33 3.349-2.627 0-4.738-1.869-4.738-4.775 0-2.59 1.796-4.7 4.72-4.7 2.535 0 3.904 1.758 4.182 3.239M77.388 3.213h2.5v5.57h.073c.61-.98 1.61-1.388 2.61-1.388 1.979 0 3.367 1.314 3.367 4.053v5.089h-2.499v-4.941c0-1.313-.628-1.998-1.665-1.998-1.091 0-1.887.758-1.887 2.257v4.682h-2.5V3.213h.001zM90.691 20.886h-2.369l1.629-4.423-3.22-8.79h2.59l1.278 3.85c.203.646.462 1.46.592 2.182h.074c.167-.85.333-1.406.574-2.183l1.24-3.85h2.46l-4.848 13.214zM107.316 16.537h-1.462v-1.185h-.037c-.648.778-1.74 1.5-3.312 1.5-2.406 0-4.479-1.87-4.479-4.757 0-2.683 1.906-4.718 4.479-4.718 1.665 0 2.554.666 3.312 1.554h.037V3.213h1.462v13.324zm-4.553-.981c1.72 0 3.22-1.388 3.22-3.405 0-2.11-1.406-3.497-3.182-3.497-2.166 0-3.257 1.72-3.257 3.441 0 1.703 1.091 3.461 3.219 3.461M118.545 16.537h-1.462v-1.185h-.036c-.65.778-1.74 1.5-3.24 1.5-2.404 0-4.552-1.87-4.552-4.757 0-2.738 2-4.718 4.646-4.718 1.609 0 2.553.85 3.164 1.573h.018V7.673h1.462v8.864zm-4.533-.981c1.664 0 3.201-1.407 3.201-3.405 0-2.11-1.426-3.497-3.165-3.497-2.22 0-3.275 1.739-3.275 3.441 0 1.703 1.055 3.461 3.239 3.461M120.133 7.674h1.167V4.84h1.462v2.832h2.368v1.222h-2.368v4.682c0 1.442.444 1.832 1.387 1.832.37 0 .741-.056 1.073-.148v1.202c-.388.13-.85.186-1.369.186-2.146 0-2.553-1.444-2.553-3.128V8.895h-1.167V7.674zM135.51 16.537h-1.462v-1.185h-.036c-.648.778-1.74 1.5-3.239 1.5-2.405 0-4.552-1.87-4.552-4.757 0-2.738 1.999-4.718 4.645-4.718 1.61 0 2.554.85 3.164 1.573h.018V7.673h1.463v8.864zm-4.533-.981c1.665 0 3.2-1.407 3.2-3.405 0-2.11-1.424-3.497-3.164-3.497-2.22 0-3.275 1.739-3.275 3.441 0 1.703 1.055 3.461 3.24 3.461" transform="translate(2 13)"></path></g></svg> 