<?xml version="1.0" encoding="UTF-8"?> <svg xmlns="http://www.w3.org/2000/svg" width="16" height="18" viewBox="0 0 16 18"><g fill="#2B2B2B"><path d="M0 12.379v2.496C0 16.049 2.686 17 6 17s6-.951 6-2.125v-2.497c-1.513.831-3.76 1.222-6 1.222s-4.487-.391-6-1.221zM0 7.279v2.496C0 10.949 2.686 11.9 6 11.9s6-.951 6-2.125V7.279C10.487 8.109 8.24 8.5 6 8.5s-4.487-.391-6-1.221zM6 0C2.686 0 0 .951 0 2.125v2.55C0 5.849 2.686 6.8 6 6.8s6-.951 6-2.125v-2.55C12 .951 9.314 0 6 0z" transform="translate(1.882 1)"></path></g></svg> 