<?xml version="1.0" encoding="UTF-8"?> <svg xmlns="http://www.w3.org/2000/svg" width="140" height="104" viewBox="0 0 140 104"><g fill="#FFF" opacity="1"><path d="M19.967 0c5.24 0 9.513 4.29 9.513 9.568 0 .615-.057 1.216-.17 1.817 2.634.958 4.386 3.446 4.386 6.278 0 2.818-1.809 5.35-4.43 6.293.2.558.314 1.159.314 1.774 0 2.803-2.264 5.077-5.056 5.077-1.125 0-2.207-.386-3.09-1.087-1.78 2.489-4.629 3.976-7.705 3.976-5.24 0-9.5-4.276-9.5-9.54 0-.615.058-1.23.172-1.816C1.766 21.382 0 18.893 0 16.047c0-2.817 1.794-5.349 4.415-6.293-.2-.558-.313-1.158-.313-1.773 0-2.804 2.264-5.078 5.055-5.078 1.126 0 2.208.372 3.09 1.059C14.043 1.473 16.892 0 19.968 0zm-6.834 15.552l-7.147 6.413c-.112.53-.154 1.074-.154 1.631 0 4.503 3.686 8.156 8.212 8.156 2.719 0 5.255-1.338 6.783-3.569l1.205-6.26-1.612-3.067-7.287-3.304zm10.025 7.776l-1.126 5.663c.707.521 1.559.817 2.439.817 2.223 0 4.041-1.76 4.041-3.944 0-.48-.087-.944-.245-1.367l-5.11-1.169zm5.599-11.016L21.384 18.6l1.489 2.8 5.638 1.28c2.299-.732 3.889-2.87 3.889-5.233 0-2.28-1.46-4.333-3.643-5.135zM4.599 11.016c-2.32.732-3.951 2.87-3.951 5.22 0 2.292 1.483 4.332 3.701 5.148l7.315-6.33-1.337-2.744L4.6 11.016zm15.052-9.072c-2.714 0-5.23 1.33-6.764 3.556l-1.223 6.315 1.42 3.025 7.285 3.304 7.34-6.413c.113-.532.155-1.05.155-1.61 0-4.509-3.684-8.177-8.213-8.177zM9.216 4.536c-2.218 0-4.032 1.76-4.032 3.944 0 .465.086.93.245 1.353l5.112 1.183 1.123-5.677c-.691-.521-1.555-.803-2.448-.803zM46.245 23.663l.638-.07.04 1.321c-1.683.234-3.123.358-4.318.358-1.589 0-2.716-.468-3.382-1.403-.665-.935-.991-2.393-.991-4.36 0-3.934 1.548-5.901 4.631-5.901 1.494 0 2.608.426 3.341 1.265.733.84 1.1 2.174 1.1 3.976l-.095 1.279h-7.307c0 1.238.218 2.16.666 2.75.448.592 1.209.895 2.309.895 1.113.027 2.227-.014 3.368-.11zm-.598-4.856c0-1.375-.217-2.352-.652-2.916-.434-.564-1.14-.853-2.118-.853s-1.725.303-2.214.895c-.489.591-.747 1.554-.76 2.874h5.744zM49.896 25.272L49.896 7.776 52.488 7.776 52.488 25.272zM63.364 17.225v5.516c0 .564 1.436.674 1.436.674l-.085 1.486c-1.223 0-2.233.096-2.845-.468-1.394.591-2.773.839-4.167.839-1.067 0-1.877-.289-2.432-.88-.555-.578-.839-1.417-.839-2.517 0-1.087.284-1.899.853-2.407.57-.51 1.465-.84 2.688-.95l3.641-.33v-.963c0-.756-.17-1.306-.512-1.636-.341-.33-.81-.495-1.394-.495h-4.565v-1.486h4.452c1.308 0 2.261.289 2.858.88.612.578.91 1.5.91 2.737zm-7.14 4.567c0 1.376.583 2.063 1.764 2.063 1.052 0 2.09-.165 3.1-.509l.526-.178v-3.7l-3.427.316c-.697.055-1.195.247-1.508.578-.313.33-.455.811-.455 1.43zM70.212 15.095c-1.619 0-2.442.565-2.442 1.708 0 .523.192.895.562 1.115.37.22 1.221.441 2.552.675 1.331.234 2.264.55 2.813.978.549.413.823 1.198.823 2.355 0 1.156-.37 1.996-1.111 2.534-.741.537-1.811.812-3.238.812-.92 0-4.006-.344-4.006-.344l.096-1.46c1.77.165 3.06.303 3.924.303.864 0 1.522-.138 1.975-.413.453-.276.686-.744.686-1.391s-.192-1.088-.576-1.322c-.384-.234-1.235-.454-2.552-.661-1.317-.207-2.25-.51-2.799-.923-.549-.4-.823-1.156-.823-2.244 0-1.088.384-1.9 1.152-2.424.769-.523 1.73-.785 2.868-.785.905 0 4.061.234 4.061.234v1.474c-1.66-.097-3.018-.22-3.965-.22zM82.79 14.832h-3.642v5.6c0 1.336.098 2.226.281 2.643.197.416.647.632 1.364.632l2.039-.144.112 1.45c-1.026.173-1.8.259-2.334.259-1.195 0-2.01-.302-2.474-.89-.464-.59-.69-1.724-.69-3.39v-6.16h-1.63V13.31h1.63V9.72h1.702v3.576h3.641v1.536zM84.24 10.426V8.424h2.592v2.016l-2.592-.014zm0 14.198V13.053h2.592v11.571H84.24zM94.768 13.608c.497 0 1.34.096 2.528.275l.538.069-.069 1.362c-1.201-.138-2.085-.207-2.652-.207-1.27 0-2.14.303-2.596.908-.456.605-.69 1.733-.69 3.37s.206 2.778.634 3.425c.429.646 1.313.963 2.666.963l2.652-.207.069 1.39c-1.395.206-2.445.316-3.135.316-1.754 0-2.97-.454-3.633-1.348-.663-.894-1.008-2.407-1.008-4.539 0-2.132.36-3.631 1.077-4.484.732-.853 1.934-1.293 3.619-1.293z" transform="translate(21 52)"></path></g></svg> 