<?xml version="1.0" encoding="UTF-8"?> <svg xmlns="http://www.w3.org/2000/svg" width="16" height="18" viewBox="0 0 16 18"><g fill="none" fill-rule="evenodd"><path fill="#2492C3" d="M7.969 2c.104 0 .208.02.305.06l5.792 2.851c.183.106.317.28.372.484l1.493 6.21c.027.21-.03.422-.158.59l-3.984 4.9c-.151.196-.385.311-.633.311H4.781c-.247 0-.481-.115-.632-.312l-3.984-4.9c-.13-.167-.186-.379-.158-.588L1.5 5.395c.055-.204.188-.378.371-.484l5.793-2.85c.096-.04.2-.061.305-.061z"></path><path fill="#FFF" fill-rule="nonzero" d="M8.44 11.41c.01-.29.05-.44.21-.62.21-.23.58-.41 1.12-.83.39-.31.74-.77.74-1.52 0-1.21-.98-2.01-2.54-2.01-1.73 0-2.72 1.05-2.76 2.39h1.56c.01-.62.46-1.09 1.14-1.09.55 0 .95.29.95.75 0 .58-.61.84-1.06 1.23-.55.46-.76.86-.76 1.7h1.4zM8.55 14v-1.64H6.89V14h1.66z"></path></g></svg> 