<?xml version="1.0" encoding="UTF-8"?> <svg xmlns="http://www.w3.org/2000/svg" xmlns:xlink="http://www.w3.org/1999/xlink" width="140" height="53" viewBox="0 0 140 53"><defs><path id="prefix__a" d="M0 0.043L24.939 0.043 24.939 33.441 0 33.441z"></path><path id="prefix__c" d="M1.063 1.038L1.113 1.038 1.113 1.087 1.063 1.087z"></path><path id="prefix__d" d="M0.025 0.036L8.665 0.036 8.665 9.947 0.025 9.947z"></path></defs><g fill="none" fill-rule="evenodd" opacity="1"><g transform="translate(17 10) translate(1.044)"><mask id="prefix__b" fill="#fff"><use xlink:href="#prefix__a"></use></mask><path fill="#FFF" fill-rule="nonzero" d="M23.565 25.49c.195.877-.243 1.73-.94 1.9-.507.123-1.285.155-1.617-.005.406-.222 1.017-.224 1.487-.376-.674-.29-1.67-.017-2.481-.067-.098-1.001-.172-2.086-.409-2.876.473-.503 1.616-.623 2.265-1.039.399-.255.898.11 1.082.389.25.377.482 1.486.613 2.075zm-4.017 1.55c-.275.053-.454.21-.788.2-.085-1.044-.327-2.142-.427-3.136.212-.005.47-.053.693-.003.442.76.537 2.022.522 2.939zm-2.493-3.506c.705-1.222 1.472-2.377 2.162-3.614-.105-.245-.363-.35-.438-.623.485-.916.262-3.758-.975-3.158.173-.254.627-.464.839-.776.522.42.837.816 1.337 1.265.272.243.806.535.86.929.03.22-.105.758-.155 1.005-.219 1.084-.712 2.516-1.181 3.652-.17.412-.334.928-.56 1.018-.616.244-1.365-.024-1.889.302zm-.258 4.41c-.093-1.222-.164-2.426-.148-3.646.332-.111.625-.104.958-.107.288 1.04.27 2.364.412 3.54-.435.095-.753.142-1.222.213zm1.186 2.963c-.35.118-.551.222-1.02.22-.033-.739-.132-1.87-.102-2.574.23.015.57-.165.755-.115.091.794.406 1.6.367 2.47zM11.14 32.29c-.821-2.516-1.269-4.904-1.578-7.745 1.915-.359 4.674-.67 6.625-.264.179 1.162.112 2.308.243 3.447.172 1.515.043 3.244.339 4.664-1.61.5-3.807.45-5.63-.102zm-5.754-5.077c-.085-2.997-.562-6.107-1.745-8.646 1.24-.958 2.63-1.97 4.114-2.556.113-.045.933 1.023 1.055 1.11.665.472 1.49.845 2.264 1.214.047.354.156.814.348 1.428.213.68.388 1.638 1.285 1.148-.085.388-.584.628-.446 1.08.086.284 1.027.635 1.326.803.551.31 1.054.482 1.477.664-1.923.052-3.729.209-5.506.45-.213-.329-.127-.837-.15-1.362-.024-.57.213-1.857-.011-1.936-.253-.09-.301.423-.31.536-.047.603.287 1.878-.043 2.599-.36-.103-.538-.374-.876-.497-.133.418.275.438.233.703-.055.35-.72.057-.716.578.433.07 1.096-.134 1.558.06.12 1.419.315 2.762.528 4.268-1.84-.096-3.03-1.01-4.385-1.644zM3.93 24.904l.277-.27C2 22.375.785 19.373.785 16.181.785 12.989 2 9.987 4.207 7.73c.192-.196.39-.386.596-.569l.001.04c.01.281.163.634.11.9-.027.134-.21.306-.247.394-.467 1.113-.092 2.577.447 3.368.326.478.866.902 1.579 1.015.028.426.13.794.328 1.226.124.273.59.765.419 1.114-.087.175-.845.557-1.096.708-.85.51-1.465.822-2.25 1.386-.506.365-1.3.412-1.175 1.255.085.568.408 1.273.593 1.843.2.614.488 1.178.652 1.816.247.954.362 1.872.438 2.791-.135-.125-.267-.253-.394-.384l-.278.271zm13.422-5.316c.642-.3 1.192.068 1.455.49-.617 1.056-1.208 2.141-1.94 3.073.307-.902.439-2.412.485-3.563zm-2.482-.038c.084-.09.159-.189.241-.28.36.15.596-.198.873-.168.318.034.57.473 1.023.444-.072 1.182-.034 2.369-.364 3.452-.615-1.128-.977-2.489-1.773-3.448zm-.389.331c.73.927 1.175 2.12 1.665 3.271-1.157-.348-2.338-.914-3.352-1.487.2-.863.979-1.309 1.687-1.784zm1.222-2.465c-.677.033-1.046-.047-1.543-.436.008-.03.058-.017.06-.055.724.322 1.645-.132 2.376-.197-.317.207-.588.466-.893.688zm-.485 1.338c-.066-.376-.142-.484-.113-.813 1.005-.67 1.193 1.151.113.813zm-.43-.825l-.007.173c-.236.155-.618.153-.877.284.382.016.683.109.944.238l-.017.433c-.434.297-.83.739-1.34 1.017-.24.131-1.087.47-1.344.41-.145-.034-.158-.214-.216-.384-.124-.363-.409-.942-.434-1.49-.031-.691-.101-1.85.644-1.708.601.115 1.3.392 1.766.646.285.156.45.348.88.38zm3.62 1.238c-.757-.022-1.44-.112-2.04-.281.041-.246-.035-.487.026-.664.167-.12.447-.118.7-.146-.219-.107-.526-.15-.777-.088-.006-.17-.083-.276-.129-.41.426-.151 1.43-1.147 1.996-.817.27.157.384 1.053.405 1.488.017.362-.033.726-.18.918zM5.054 9.723c.042-.786.706-1.539 1.616-1.44.642.071.86.773.985 1.397.37.02.906-.016 1.081-.305-.025-.706-.352-1.271-.33-1.92.042-1.217.706-2.316.194-3.516.548-1.243 2.155-2.224 3.345-2.817 1.473-.734 3.818-.146 5.204.635.795.45 1.383 1.317 1.942 2.04-.785-.233-1.453.168-1.331.815.657-.602 1.78-.007 2.112.66.317.636.315 1.58.364 2.527.118 2.295-.42 4.663-1.573 6.323-.309.443-.568.927-1.001 1.232-1.045.734-2.634 1.4-3.994.943-1.798-.603-2.615-1.801-3.604-3.173.027.754.557 1.372 1.08 1.948.456.503 1.005 1.07 1.596 1.305-.493-.116-1.25-.153-1.455.29-1.151-.077-2.22-.194-2.765-.974-.429-.615-.865-1.66-1.06-2.468-.04-.165-.108-.52-.092-.61.065-.35.689-.504.443-.994-.452-.004-.555.413-.97.454-1.076.106-1.836-1.427-1.787-2.352zm.928-4.557c.544-.599 1.294-.972 2.207-1.04.47 1.196-.338 2.618-.037 3.926.092.401.41 1.023-.098 1.037.013-1.14-1.401-1.864-2.467-1.194-.071-.864-.195-2.08.395-2.729zm4.218-3.765c.074-.02.138.03.2.095-.009.211-.217.207-.358.275-.22.269-.54.395-.807.69-.274.303-.58 1.116-.942 1.206-.182.045-.39-.031-.548-.021-.419.026-.714.24-1.138.302.548-1.199 2.259-2.168 3.593-2.547zm11.093 5.78c-.205-.21-.421-.415-.642-.612.038.374.06.756.066 1.143l.015.018c2.208 2.257 3.423 5.259 3.423 8.452 0 2.187-.58 4.314-1.678 6.174h.001c-.003.003-.003.003-.001 0-.882-.123-2.024.402-2.747.762.525-1.382.977-2.815 1.44-4.364.138-.465.412-1.123.35-1.604-.057-.453-.763-.928-1.134-1.287-.206-.199-1.169-.93-1.224-1.203-.055-.264.392-.864.535-1.163.207-.43.354-.954.456-1.311.382-1.344.59-2.94.564-4.474l-.066-1.143c-.108-1.078-.349-2.081-.747-2.886-.41-.828-1.554-1.972-2.27-2.514-1.69-1.278-4.814-1.419-6.85-.67-.567.209-1.117.396-1.615.689-1.334.783-2.75 1.306-3.145 2.882-.716.32-1.064 1.08-1.18 2.033.004-.002.003.002 0 .01v-.01c-.42.333-.822.695-1.197 1.078C1.295 9.586 0 12.783 0 16.181c0 3.4 1.295 6.596 3.646 9 .291.299.707.674 1.035.948l.016.248c.035.544-.023 1.12.118 1.42.146.31.685.41 1.075.591 1.126.52 2.32 1.316 3.797 1.158.352 1.183.685 2.444 1.107 3.48 1.514.545 3.904.46 5.478.27.479-.057.984-.293 1.096-.708-.033-.256-.07-.509-.055-.811.493-.102 1.163-.186 1.27-.73.153-.765-.482-1.86-.27-2.698.285-.092.589-.165.544-.614.48-.25 1.05-.306 1.657-.283.078.152.19.297.29.38.852.172 1.677.186 2.383-.045.801-.261 1.183-1.898 1-2.677-.13-.552-.424-1.456-.674-1.99-.086-.183-.193-.328-.316-.442-.003.005-.004.004-.003-.001l.003.001c1.14-1.962 1.742-4.198 1.742-6.496 0-3.4-1.295-6.596-3.647-9z" mask="url(#prefix__b)"></path></g><path fill="#FFF" fill-rule="nonzero" d="M12.016 6.053c.136-.246.091-1.05.582-1.272.49-.224 1.296-.473 1.607-.058 0 0-.222-1.781-1.74-.746-.983.67-.893 1.607-.715 1.785.179.179.13.538.266.291M13.931 7.982c-.457.722.893.858 1.473.687.159-.047.433-.285.47-.391.162-.453-.163-.651-.33-.814-.37-.361-.455-.863-.716-1.341-.18.512.31 1.382.585 1.822-.358.348-1.002.059-1.482.037M16.638 12.01c1.43.141 2.403-.468 3.276-1.029-.035-.22.264-.616.18-.946-.028-.114-.287-.279-.444-.45-.64-.699-1.517-1.742-1.865-2.557-.039-.09-.062-.584-.332-.389-.033 1.205.863 2.202 1.53 3.006.326.393.719.617.357 1.227-.583.222-1.528.857-2.339.718-.43-.073-.333-.562-.488-.827-.297.39-.18.981.125 1.247M18.006 13.247c-.002-.276-.001-.556-.056-.782-1.034.03-2.43-.012-3.19-.412.348.932 1.918 1.26 3.246 1.194M18.297 13.2c1.191-.024 1.766-.875 2.172-1.649-.697.319-1.26.782-2.171.87-.044.15-.026.53-.001.78M14.615 12.798c-.672 0-.105.374.008.52.236.303.512.82.942 1.048.678.36 2.024.21 2.513.01.18-.073.326-.275.393-.447-1.524.037-3.33.189-3.856-1.131M7.238 9.335c-.232.453-.176 1.336.14 1.623-.002-.538-.086-1.458.373-1.43.321.02.386.707.66.863.301-1.452-1.513-2.186-1.702-.817.147-.096.265-.37.53-.24" transform="translate(17 10)"></path><g transform="translate(17 10) translate(0 32.398)"></g><path fill="#FFF" fill-rule="nonzero" d="M21.048 7.79c-.347-.504-.584-1.109-.86-1.68l-.057-.002c-.039.657.205 1.052.375 1.516-.293.185-.863.07-1.193.214-.024.971 1.503.493 1.735-.048M21.68 25.06c.57.047 1.231-.044 1.794-.104-.483-.167-1.525-.31-1.795.104M21.65 25.839c.6.05 1.387.063 2.02.049-.411-.191-1.665-.431-2.02-.05M21.32 24.642c.674.043 1.159-.629 1.85-.767-.831.024-1.48.245-1.85.767M17.462 20.064c0-.136-.11-.246-.245-.246-.136 0-.246.11-.246.246 0 .135.11.245.246.245.135 0 .245-.11.245-.245M17.707 21.201c0-.135-.11-.245-.245-.245s-.245.11-.246.245c0 .136.11.246.246.246.135 0 .245-.11.245-.246z" transform="translate(17 10)"></path><g transform="translate(17 10) translate(101.15 14.214)"><mask id="prefix__e" fill="#fff"><use xlink:href="#prefix__d"></use></mask><path fill="#FFF" fill-rule="nonzero" d="M7.886 4.803c-.52-.498-1.341-.892-2.462-1.18-.727-.189-1.292-.39-1.696-.603-.404-.213-.606-.559-.606-1.036 0-.357.138-.636.414-.837.276-.201.656-.301 1.139-.301.615 0 1.189.237 1.722.71.534.474.91 1.037 1.13 1.69h.659l-.15-3.21H7.32l-.198.555c-.326-.138-.73-.265-1.21-.38C5.432.093 4.907.035 4.336.035c-1.205 0-2.179.273-2.923.819C.67 1.4.298 2.116.298 3c0 .477.085.888.254 1.233.17.345.395.64.678.885.326.276.641.478.946.607.304.128.67.256 1.096.381.427.126.786.232 1.078.32.292.088.56.195.805.32.22.12.392.26.517.424.126.163.189.37.189.62 0 .465-.14.809-.42 1.032-.279.222-.704.334-1.275.334-.432 0-.839-.098-1.219-.292-.38-.195-.717-.433-1.011-.716-.283-.282-.534-.6-.753-.955-.22-.354-.377-.673-.471-.955H.025l.122 3.51h.734l.283-.64c.32.202.77.391 1.35.57.578.178 1.18.269 1.784.268 1.299 0 2.351-.282 3.158-.847.806-.564 1.21-1.361 1.21-2.39 0-.772-.26-1.408-.78-1.907" mask="url(#prefix__e)"></path></g><path fill="#FFF" fill-rule="nonzero" d="M100.213 23.154c-.188-.019-.356-.05-.503-.094-.148-.044-.272-.088-.372-.132-.188-.081-.317-.191-.386-.33-.07-.137-.103-.322-.103-.555v-4.612c0-.96-.256-1.73-.767-2.31-.512-.581-1.279-.871-2.302-.871-.427 0-.828.053-1.205.16-.376.106-.68.235-.913.386-.213.138-.445.317-.696.536-.214.187-.428.376-.64.565h-.038v-1.365l-.14-.141-4.49.245v.687c.207.019.396.053.569.103.172.05.315.113.428.188.163.12.295.273.395.462.1.188.151.38.151.574v5.478c0 .232-.038.42-.113.565-.075.144-.213.25-.414.32-.113.037-.25.067-.41.09-.158.021-.316.038-.475.051v.687h5.723v-.687c-.145-.019-.292-.05-.443-.094-.15-.044-.276-.094-.376-.15-.145-.076-.248-.187-.31-.335-.063-.147-.095-.33-.095-.55V16.97c.09-.118.183-.234.279-.348.11-.132.256-.26.438-.386.208-.144.42-.254.638-.33.217-.075.451-.112.703-.112.46 0 .807.161 1.043.484.236.324.354.805.354 1.445v4.405c0 .257-.029.452-.085.584-.056.131-.15.232-.282.3-.088.045-.217.076-.386.095l-.433.047v.687h5.657v-.687zM82.382 12.222c.367.335.805.503 1.313.503.502 0 .936-.168 1.303-.503.367-.336.551-.742.551-1.22 0-.476-.182-.884-.546-1.223-.364-.339-.8-.508-1.308-.508s-.946.17-1.313.508c-.367.339-.55.747-.55 1.224 0 .476.183.883.55 1.219M86.039 22.91c-.176-.076-.31-.19-.405-.344-.094-.154-.141-.34-.141-.56v-7.474l-.142-.141-4.612.245v.687c.189.018.397.063.626.132.23.069.4.14.513.216.15.1.276.234.377.4.1.166.15.36.15.579v5.478c0 .232-.04.419-.122.56-.082.141-.223.25-.424.325-.112.044-.248.075-.404.094-.157.019-.317.035-.48.047v.687h5.948v-.687c-.163-.019-.32-.05-.47-.094-.15-.044-.289-.094-.414-.15M43.428 10.485h-7.134v.734c.176.025.398.066.666.123.268.056.497.125.686.207.265.113.432.245.501.395.07.151.104.34.104.566v7.545c0 1.093-.215 1.909-.646 2.449-.431.54-1.024.81-1.78.81-.195 0-.387-.044-.575-.132-.189-.088-.312-.194-.368-.32v-.122c.357-.289.676-.604.955-.946.28-.342.419-.714.419-1.115 0-.471-.162-.866-.485-1.186-.323-.32-.758-.48-1.303-.48-.578 0-1.031.191-1.36.574-.33.383-.495.866-.495 1.45 0 .985.36 1.76 1.078 2.324.719.565 1.665.847 2.838.847.678 0 1.314-.096 1.91-.287.597-.191 1.136-.476 1.62-.853.476-.382.851-.857 1.124-1.422.273-.565.41-1.187.41-1.865v-7.366c0-.226.036-.427.108-.603.072-.175.237-.298.494-.367.196-.051.394-.095.593-.132.176-.031.39-.062.64-.094v-.734zM67.92 23.154c-.19-.019-.357-.05-.504-.094-.148-.044-.272-.088-.372-.132-.188-.081-.317-.191-.386-.33-.07-.137-.104-.322-.104-.555v-4.612c0-.96-.255-1.73-.767-2.31-.511-.581-1.278-.871-2.3-.871-.428 0-.83.053-1.206.16-.376.106-.68.235-.913.386-.213.138-.445.317-.696.536-.214.187-.428.376-.64.565h-.038v-1.365l-.141-.141-4.49.245v.687c.207.019.397.053.57.103.172.05.315.113.428.188.163.12.295.273.395.462.1.188.15.38.15.574v5.478c0 .232-.037.42-.112.565-.075.144-.214.25-.414.32-.113.037-.25.067-.41.09-.158.021-.316.038-.475.051v.687h5.723v-.687c-.145-.019-.292-.05-.443-.094-.15-.044-.276-.094-.376-.15-.145-.076-.248-.187-.31-.335-.064-.147-.095-.33-.095-.55V16.97c.09-.118.183-.234.278-.348.11-.132.257-.26.44-.386.207-.144.42-.254.637-.33.217-.075.45-.112.702-.112.46 0 .808.161 1.044.484.236.324.354.805.354 1.445v4.405c0 .257-.029.452-.085.584-.056.131-.15.232-.282.3-.088.045-.217.076-.386.095l-.433.047v.687h5.657v-.687zM80.871 23.154c-.288-.025-.577-.088-.865-.188-.288-.1-.53-.298-.724-.593-.57-.847-1.115-1.65-1.634-2.408-.52-.76-1.087-1.584-1.701-2.475.313-.277.59-.508.83-.694.243-.186.492-.364.747-.532.389-.257.747-.463 1.076-.617.329-.153.807-.318 1.433-.494v-.65h-4.781v.669c.398.056.696.122.894.198.198.075.297.17.297.282 0 .025-.01.093-.033.202-.022.11-.136.272-.343.485-.351.358-.816.81-1.396 1.355-.58.546-1.102 1.026-1.565 1.44V9.421l-.142-.15-4.687.244v.687c.195.013.411.044.65.094.238.05.417.113.536.189.176.113.31.28.4.503.091.223.137.438.137.645v10.495c0 .232-.036.42-.11.565-.072.144-.21.25-.411.32-.12.037-.26.067-.417.09-.158.021-.316.038-.474.05v.688h5.845v-.687c-.15-.012-.301-.038-.452-.075-.15-.038-.282-.082-.395-.132-.188-.069-.316-.176-.381-.32-.066-.144-.1-.33-.1-.555V20.02l.555-.47c.432.615.859 1.233 1.28 1.855.45.666.95 1.479 1.495 2.436h4.436v-.687zM48.445 15.728c.289-.49.675-.734 1.158-.734.282 0 .516.075.701.226.185.15.331.373.438.668.094.25.16.574.198.97.037.394.056.78.056 1.157l-3.022.038c.026-1.06.182-1.836.471-2.325m4.226 6.575c-.47.323-1 .484-1.59.484-1.08 0-1.867-.335-2.363-1.007-.495-.671-.743-1.65-.743-2.937h6.362v-.611c0-.534-.081-1.044-.244-1.53-.164-.486-.424-.908-.782-1.266-.37-.376-.837-.671-1.402-.885-.565-.213-1.286-.32-2.165-.32-.803 0-1.53.139-2.179.414-.65.277-1.187.637-1.614 1.083-.43.454-.77.986-1.003 1.567-.235.587-.353 1.2-.353 1.84 0 .71.109 1.367.325 1.972.217.606.544 1.131.984 1.577.439.445.996.8 1.67 1.063.675.264 1.477.395 2.405.395.559 0 1.053-.06 1.483-.183.43-.122.855-.303 1.275-.541.395-.226.749-.498 1.06-.814.31-.317.575-.655.795-1.012l-.716-.518c-.332.496-.734.905-1.205 1.229" transform="translate(17 10)"></path></g></svg> 