<?xml version="1.0" encoding="UTF-8"?> <svg xmlns="http://www.w3.org/2000/svg" width="140" height="104" viewBox="0 0 140 104"><path fill="#FFF" d="M43.386 57.71c-.331-.338-.791-.546-1.303-.546-.488-.002-.955.196-1.294.547h-.008c-.35.351-.544.827-.541 1.323-.004.493.189.967.535 1.319l.009.01c.34.348.806.543 1.293.54.512 0 .971-.205 1.303-.54l.004-.01c.331-.333.527-.799.527-1.32.003-.493-.189-.968-.534-1.322H43.386zm-1.303 25.591c.512 0 .971-.212 1.303-.545l.003-.009c.332-.332.528-.8.528-1.315 0-.527-.202-.988-.528-1.325h-.003c-.331-.342-.791-.549-1.303-.549-.488-.003-.956.196-1.294.549h-.008c-.346.354-.538.83-.535 1.325-.003.492.19.964.535 1.315l.008.01c.34.347.807.544 1.294.544zm10.009-5.663c.475-.126.879-.44 1.119-.869l.034-.065c.217-.417.269-.9.145-1.354-.12-.466-.41-.88-.856-1.137l-.026-.017c-.416-.235-.908-.295-1.368-.168-.457.116-.867.426-1.117.871-.244.432-.31.941-.186 1.421.127.476.434.885.856 1.138h.003c.44.258.936.303 1.396.176v.004zm-8.13-9.315c-.482-.49-1.148-.797-1.884-.797-.709.001-1.387.288-1.88.796-.481.489-.777 1.163-.777 1.913-.002.717.277 1.406.776 1.92.48.487 1.145.792 1.875.792s1.402-.305 1.884-.791c.5-.515.779-1.204.777-1.922.003-.715-.276-1.402-.777-1.913l.006.002zm-1.055-3.186c1.052.178 2.02.687 2.763 1.452h.006c.118.12.23.247.336.379l1.833-1.08c-.24-.743-.262-1.54-.06-2.295.262-.996.897-1.886 1.847-2.444l.031-.02c.9-.523 1.971-.663 2.975-.389 1.019.28 1.884.954 2.402 1.875v.003c.546.96.656 2.063.397 3.056-.26.996-.897 1.892-1.847 2.448l-.25.15h-.026c-.85.411-1.82.502-2.732.255-.743-.204-1.41-.62-1.92-1.198l-1.831 1.077c.217.583.328 1.2.327 1.823 0 .642-.116 1.262-.327 1.831l1.831 1.074c.523-.596 1.192-.996 1.92-1.198.978-.272 2.061-.156 3.008.406l.06.029v.003c.887.545 1.527 1.412 1.787 2.419.27 1.03.128 2.126-.397 3.053l-.033.067h-.004c-.524.891-1.373 1.545-2.368 1.823-.978.263-2.062.15-3.008-.403v-.007c-.916-.539-1.58-1.419-1.847-2.446-.203-.754-.182-1.55.06-2.292l-1.834-1.076c-.106.13-.218.254-.336.373l-.006.006c-.733.75-1.699 1.27-2.763 1.444v2.156c.753.162 1.441.542 1.979 1.094l.003.005c.716.726 1.16 1.737 1.16 2.848.002 1.062-.415 2.083-1.16 2.841l-.003.012c-.72.723-1.71 1.174-2.802 1.174-1.087 0-2.079-.451-2.798-1.18h-.003v-.012c-.746-.758-1.164-1.78-1.162-2.842 0-1.112.445-2.122 1.162-2.848v-.006h.003c.534-.553 1.223-.934 1.976-1.093v-2.156c-1.069-.174-2.027-.695-2.753-1.444l-.008-.006C37.537 72.905 37 71.595 37 70.23c0-1.424.573-2.712 1.488-3.646h.008c.742-.766 1.709-1.275 2.76-1.453v-2.147c-.751-.167-1.438-.548-1.977-1.097h-.003v-.005c-.746-.76-1.164-1.783-1.162-2.848 0-1.065.416-2.088 1.162-2.848l.009-.003c.733-.755 1.74-1.182 2.793-1.183 1.092 0 2.081.451 2.802 1.183v.003h.003c.717.73 1.16 1.742 1.16 2.848.001 1.064-.415 2.086-1.16 2.847l-.003.006c-.534.541-1.216.928-1.978 1.097v2.147l.005.006zm10.303-1.433l-.016-.023c-.243-.416-.639-.72-1.103-.848-.472-.13-.977-.063-1.399.186h.003c-.44.254-.735.67-.859 1.136-.126.48-.06.99.185 1.421l.009.012c.253.44.658.735 1.109.854.453.13.958.075 1.393-.183l.023-.012c.428-.26.715-.671.833-1.122.122-.466.074-.975-.178-1.42m8.138.63h2.047v6.358l2.951-3.322h2.461l-3.563 3.85 3.566 4.87h-2.343l-3.077-4.358v4.358h-2.047V64.33m9.83 7.437c0 1.082.764 2.656 2.608 2.656 1.14 0 1.891-.605 2.28-1.397.205-.385.298-.797.33-1.23.016-.422-.065-.842-.235-1.228-.359-.824-1.156-1.54-2.39-1.54-1.655 0-2.593 1.366-2.593 2.718V71.766zm7.248 4.325h-2.048v-1.255c-.545 1.015-1.686 1.525-2.89 1.525-2.749 0-4.358-2.18-4.358-4.642 0-2.75 1.952-4.624 4.358-4.624 1.562 0 2.515.842 2.89 1.542v-1.273h2.048v8.727m2.318-7.12h-1.055v-1.606h1.055v-.492c0-2.593 1.937-2.75 3.407-2.766v1.603c-.517 0-1.36 0-1.36 1.226v.428h1.36v1.605h-1.36v7.122H80.74v-7.12m4.804-4.642h2.046v6.358l2.952-3.322h2.461l-3.563 3.85 3.57 4.876h-2.344l-3.077-4.358v4.358h-2.046V64.33m9.831 7.437c0 1.082.765 2.656 2.609 2.656 1.139 0 1.89-.605 2.285-1.397.205-.385.293-.797.329-1.23.014-.415-.063-.845-.236-1.228-.352-.824-1.154-1.54-2.389-1.54-1.655 0-2.593 1.366-2.593 2.718v.015l-.005.006zm7.241 4.325h-2.047v-1.255c-.546 1.015-1.687 1.525-2.89 1.525-2.749 0-4.356-2.18-4.356-4.642 0-2.75 1.95-4.624 4.357-4.624 1.561 0 2.514.842 2.89 1.542v-1.273h2.046v8.727" opacity="1"></path></svg> 