<?xml version="1.0" encoding="UTF-8"?> <svg xmlns="http://www.w3.org/2000/svg" width="140" height="104" viewBox="0 0 140 104"><g fill="#FFF" opacity="1"><path d="M97.132 23.564c0-1.069-.368-1.971-1.07-2.707-.735-.735-1.604-1.103-2.673-1.103-1.037 0-1.906.368-2.641 1.136-.735.77-1.07 1.638-1.07 2.708 0 1.036.368 1.938 1.103 2.707.736.769 1.605 1.137 2.608 1.137 1.035 0 1.905-.368 2.64-1.103.735-.735 1.103-1.671 1.103-2.775m1.103-4.746v9.426h-1.17v-1.605c-1.07 1.304-2.306 1.939-3.676 1.939s-2.54-.501-3.51-1.47c-.936-1.003-1.404-2.173-1.404-3.544 0-1.37.468-2.54 1.437-3.51.97-.968 2.106-1.47 3.443-1.47 1.538 0 2.774.669 3.743 1.972v-1.705h1.137M102.18 27.007h1.47c1.537 0 2.64-.067 3.342-.234s1.304-.468 1.839-.902c.534-.468.902-1.003 1.203-1.671.267-.636.401-1.405.401-2.24 0-.836-.167-1.604-.468-2.306-.3-.702-.735-1.304-1.337-1.772-.568-.468-1.27-.769-2.072-.936-.769-.167-1.939-.234-3.443-.234h-.902l-.034 10.295m-1.237 1.204V15.476h2.64c1.806 0 3.143.133 3.979.4.835.268 1.57.67 2.206 1.271.601.568 1.103 1.27 1.403 2.106.335.835.502 1.804.502 2.908 0 1.103-.267 2.139-.769 3.108-.501.97-1.203 1.705-2.106 2.206-.869.501-2.139.736-3.777.736h-4.078M84.932 28.244h1.237v-9.426h-1.237v9.426zm-.401-12.066c0-.268.1-.502.267-.702.2-.2.435-.301.702-.301.268 0 .535.1.702.3.2.201.301.435.301.703 0 .267-.1.5-.3.701-.201.201-.435.268-.703.268-.267 0-.501-.1-.702-.301-.167-.167-.267-.401-.267-.668zM50.806 28.21L52.644 15.476 52.811 15.476 57.992 25.938 63.139 15.476 63.34 15.476 65.178 28.21 63.908 28.21 62.671 19.119 58.159 28.21 57.858 28.21 53.279 19.052 52.042 28.21zM75.673 23.564c0-1.069-.367-1.971-1.07-2.707-.735-.735-1.604-1.103-2.673-1.103-1.036 0-1.905.368-2.64 1.136-.736.77-1.07 1.638-1.07 2.708 0 1.036.367 1.938 1.103 2.707.735.769 1.604 1.137 2.607 1.137 1.036 0 1.905-.368 2.64-1.103.736-.735 1.103-1.671 1.103-2.775m1.137-4.746v9.426h-1.203v-1.605c-1.07 1.304-2.307 1.939-3.677 1.939s-2.54-.501-3.51-1.47c-.936-1.003-1.404-2.173-1.404-3.544 0-1.37.468-2.54 1.438-3.51.969-.968 2.105-1.47 3.442-1.47 1.538 0 2.775.669 3.744 1.972v-1.705h1.17M78.849 18.818h1.236v1.37c.335-.568.636-.969.97-1.236.334-.267.668-.401 1.036-.401.401 0 .769.1 1.17.334l-.635 1.036c-.167-.1-.368-.167-.535-.167-.368 0-.702.2-1.036.568-.334.368-.568.87-.702 1.47-.167.602-.234 1.672-.234 3.243v3.176h-1.237l-.033-9.393M115.583 22.094v4.88h1.57c.903 0 1.571-.1 2.006-.268.435-.2.802-.468 1.07-.835.267-.401.4-.803.4-1.204 0-.4-.066-.769-.234-1.07-.167-.3-.367-.567-.701-.801-.301-.235-.669-.402-1.07-.535-.401-.134-1.203-.167-2.34-.167h-.701m0-5.348v4.078h.735c1.103 0 1.939-.167 2.473-.535.535-.368.803-.903.803-1.671 0-1.237-.836-1.872-2.541-1.872h-1.47m-1.27-1.27h2.506c1.337 0 2.34.267 3.042.802s1.036 1.303 1.036 2.306c0 .568-.134 1.07-.434 1.538-.268.468-.669.835-1.204 1.102.87.268 1.538.703 1.972 1.27.468.569.702 1.237.702 2.006 0 1.037-.368 1.939-1.136 2.607-.769.702-1.772 1.037-2.975 1.037h-3.51V15.476M53.012 0c.735 0 1.17.435 1.17 1.17.033 2.507-1.07 3.543-2.273 4.646-1.204 1.07-2.574 1.738-3.844 3.677-.836 1.303-1.07 4.479-1.772 6.985-.635 2.34-1.27 5.181-1.905 6.953-.668 1.872-.134 6.116 1.872 6.685-2.273 1.67-5.95 1.17-7.287-.903-2.406.669-2.707 3.61-4.68 4.747-1.604.935-3.141 1.337-5.28 1.871-1.17.2-2.206.167-1.872-.2 1.136-1.638 2.507-3.008 3.209-5.08-4.646-.67-9.292-1.538-13.337-1.004-3.108.435-4.713 2.173-6.718 3.376-4.312 2.607-9.025 1.939-9.426.97-.368-.903 1.571-1.438 1.905-2.073-1.604.2-1.972 0-2.774-.835 2.54-2.975 8.089-1.07 9.96-3.008 1.772-1.805 1.806-3.076 3.477-4.513 2.172-1.872 4.78-3.41 7.153-4.144 3.61-1.137 7.654-1.337 11.631-3.577C37.57 12.735 38.74 4.312 44.622 1.838c1.939-.835 4.178-.701 6.016-1.136C52.443.267 52.176.033 53.012 0zM51.34 1.538c-.668.4-1.303.467-2.005.501-.602.033-1.304 0-2.106.067-6.819.702-7.688 8.222-12.066 12.467-.334.3-.669.602-1.036.87-1.538 1.136-3.41 1.971-5.148 2.606-2.807 1.07-5.448 1.137-8.089 2.073-1.938.668-3.877 1.67-5.481 2.74-.401.268-.769.535-1.103.836-.936.769-1.538 1.604-2.14 2.474-.601.902-1.203 1.804-2.105 2.674-1.437 1.437-6.852.4-8.757 1.737-.2.134-.368.335-.502.536 1.036.467 1.738.167 2.942.3.2 1.137-2.44 1.805-2.04 2.34 3.076.435 4.914 0 7.388-1.07 2.105-.902 4.11-2.774 6.584-3.576 3.61-1.17 7.588 0 11.465.234.936.067 1.872.067 2.808-.034 1.437-.902 1.403-4.21 2.807-4.512-.033 4.646-1.938 7.454-3.944 10.161 4.212-.735 6.718-3.175 8.423-6.417.502-.97.97-2.039 1.337-3.142.602.468.268 1.872.568 2.64 2.908-1.604 4.546-5.28 5.65-9.024 1.27-4.312 1.804-8.69 2.606-9.96.802-1.238 2.04-2.006 3.176-2.809 1.303-.902 2.44-1.838 2.64-3.576-1.37-.133-1.671-.435-1.872-1.136z" transform="translate(9 49)"></path><path d="M43.05 25.57c.068 1.303.837 3.877 1.505 4.512-1.304.334-3.576-.2-4.145-1.136.301-1.337 1.839-2.54 2.64-3.376M44.956 4.88c.97.836 3.008.167 2.64-1.504-1.503-.134-2.372.401-2.64 1.504M51.675 2.941c-.268.535-.736 1.237-.736 2.607 0 .234-.167.402-.167.034 0-1.337.368-1.905.735-2.674.168-.334.268-.2.168.033M51.44 2.74c-.3.502-1.036 1.438-1.17 2.808-.033.234-.2.368-.2.034.134-1.337.702-2.173 1.17-2.908.2-.3.3-.167.2.067M51.173 2.473c-.334.502-1.47 1.605-1.704 2.975-.034.234-.234.368-.201 0 .234-1.303 1.203-2.34 1.705-3.041.267-.301.334-.168.2.066" transform="translate(9 49)"></path><path d="M50.973 2.173c-.401.434-1.738 1.871-2.173 3.175-.067.234-.3.334-.167-.033.434-1.27 1.604-2.641 2.206-3.243.234-.267.3-.1.134.1" transform="translate(9 49)"></path></g></svg> 