<?xml version="1.0" encoding="UTF-8"?> <svg xmlns="http://www.w3.org/2000/svg" width="140" height="104" viewBox="0 0 140 104"><g fill="#FFF" opacity="1"><path d="M6.136.858l.027.595c.029.726.053 1.612.072 2.641l.035 2.54.04 6.319.006.273c.079 2.53.024 5.06-.164 7.583l.008.283c.047 1.39.223 2.44.61 3.096l.037.058-.095.018c-.133.017-.262.01-.371-.027l-.103-.043-.118-.085c-.219-.165-.616-.493-1.027-.881-.715-.675-1.414-1.47-2.043-2.36-1.705-2.415-2.649-5.17-2.504-8.211C.717 9.08 1.765 6.172 3.421 3.81c.5-.712 1.03-1.339 1.592-1.908.142-.143.282-.28.425-.414l.516-.467.182-.163zM7.175 1.753l-.014-.364.696.775c.717.806 1.644 1.882 2.116 2.614 1.023 1.583 1.828 3.514 2.383 5.966l.057.356c.783 5.32-1.367 10.065-4.591 12.561l-.134.101-.027-.037c-.288-.447-.48-1.492-.51-2.89.162-2.151.226-4.344.19-6.54l-.034-1.67-.037-6.002-.028-2.133c-.017-1.055-.04-1.97-.067-2.737zM108.37 21.95c-.913 0-1.655-.738-1.659-1.651-.004-.914.73-1.659 1.644-1.667.913-.008 1.661.723 1.674 1.636.012.446-.158.877-.471 1.194-.313.318-.742.494-1.188.488m0-3.168c-.611-.004-1.165.36-1.402.924-.237.564-.11 1.214.32 1.649.43.434 1.08.566 1.645.334.565-.232.935-.782.937-1.393.008-.401-.147-.789-.43-1.074-.282-.285-.668-.444-1.07-.44m.4 2.558l-.428-.923h-.345v.923h-.251v-2.1h.619c.461 0 .653.2.653.587 0 .308-.145.5-.415.559l.442.951-.275.003zm-.763-1.14h.363c.294 0 .406-.1.406-.368s-.107-.359-.438-.359h-.331v.727zM83.679 20.438c.449.359 1.346.507 2.137.507 1.025 0 2.03-.19 3.012-1.077 1-.909 1.688-2.3 1.688-4.521 0-2.134-.812-3.866-2.478-4.88-.94-.591-2.158-.824-3.547-.824-.4 0-.812.021-1.046.127-.096.076-.164.181-.193.3-.042.38-.042 3.274-.042 4.985 0 1.754 0 4.2.042 4.5.022.254.15.7.427.887M79.415 8.693c.363 0 1.743.063 2.385.063 1.2 0 2.029-.063 4.272-.063 1.88 0 3.462.507 4.593 1.478 1.368 1.184 2.1 2.831 2.1 4.838 0 2.852-1.3 4.5-2.607 5.429-1.3.972-2.991 1.521-5.4 1.521-1.282 0-3.483-.042-5.32-.063H79.4c-.086-.169.157-.828.307-.845.5-.056.632-.076.862-.171.388-.159.479-.357.522-1.054.064-1.31.043-2.873.043-4.648 0-1.267.021-3.739-.021-4.521-.065-.654-.341-.823-.9-.95-.396-.084-.797-.148-1.2-.19-.042-.127.286-.7.393-.824M98.06 9.765c-.085.021-.192.233-.192.338-.022.761-.043 2.746-.043 4.119.011.054.053.095.107.106.277.021.961.043 1.538.043.812 0 1.282-.106 1.538-.233.684-.338 1-1.078 1-1.88 0-1.838-1.282-2.535-3.183-2.535-.257-.003-.514.01-.769.042m4.85 8.45c0-1.859-1.368-2.915-3.868-2.915-.106 0-.9-.021-1.089.021-.064.021-.128.063-.128.106 0 1.331-.022 3.464.043 4.309.043.359.3.866.619 1.014.342.19 1.111.232 1.645.232 1.474 0 2.778-.823 2.778-2.767M94.2 8.73c.193 0 .761.063 2.214.063 1.367 0 2.478-.042 3.8-.042 1.645 0 3.909.592 3.909 3.042 0 1.2-.854 2.176-1.965 2.641-.064.021-.064.063 0 .084 1.581.4 2.969 1.373 2.969 3.232 0 1.817-1.132 2.958-2.777 3.676-1 .444-2.243.591-3.5.591-.961 0-3.537-.1-4.969-.084-.15-.063.137-.74.265-.845.328-.01.654-.061.969-.152.512-.126.573-.291.637-1.052.043-.655.043-3 .043-4.669 0-2.282.022-3.823 0-4.584-.021-.591-.235-.782-.641-.887-.32-.064-.854-.127-1.281-.19-.107-.106.222-.74.328-.824M17.575 21.95c-.055-.135-.077-.282-.065-.427-.005-.1.018-.198.065-.285.276-.04.55-.096.82-.167.378-.094.52-.3.542-.782.062-1.139.066-3.276.044-4.778v-.044c0-.162 0-.382-.2-.537-.352-.22-.733-.389-1.133-.5-.179-.053-.278-.147-.273-.257.005-.11.118-.24.351-.286.619-.063 2.241-.45 2.878-.744.066.085.096.193.085.3 0 .066-.01.136-.017.208-.018.212-.038.453-.038.693.008.06.049.11.106.129.057.019.12.004.162-.038 1.213-.951 2.3-1.29 2.857-1.29.917 0 1.631.438 2.184 1.34.026.044.073.072.124.073.046 0 .09-.024.116-.062 1.115-.846 2.22-1.351 2.96-1.351 1.748 0 2.793 1.309 2.793 3.5 0 .63-.006 1.429-.012 2.174-.005.654-.01 1.267-.01 1.691 0 .1.138.388.345.445.256.125.625.189 1.092.269h.018c.035.126-.039.615-.11.715-.116 0-.276-.01-.476-.02-.363-.018-.861-.043-1.44-.043-1.162 0-1.769.022-2.349.06-.044-.145-.059-.613-.006-.711.24-.038.478-.09.712-.155.37-.122.477-.29.5-.781.009-.349.076-3.424-.043-4.154-.11-.757-.68-1.643-1.927-1.643-.463 0-1.21.193-1.922.733-.044.05-.069.114-.07.181v.015c.084.394.084.854.084 1.549 0 .4 0 .817-.005 1.234-.005.848-.009 1.648.005 2.253 0 .412.249.511.45.59.109.024.195.045.282.065.167.041.341.083.6.124.038.176.035.358-.01.532-.01.065-.036.127-.075.181-.646-.022-1.309-.041-2.266-.041-.29 0-.763.012-1.181.023-.339.009-.659.018-.841.019-.05-.116-.071-.242-.064-.368-.01-.119.013-.238.067-.344l.257-.047c.224-.04.418-.074.6-.12.316-.1.435-.272.458-.675.062-.94.11-3.649-.023-4.327-.226-1.088-.845-1.64-1.841-1.64-.583 0-1.32.281-1.922.732-.117.114-.181.272-.177.435v1.119c0 1.36-.009 3.053.024 3.785.02.226.1.494.523.592.093.027.253.053.439.084.107.018.224.037.345.059.038.24.019.485-.057.715-.186 0-.415-.012-.677-.023-.4-.018-.9-.04-1.465-.04-.668 0-1.133.022-1.506.04-.251.012-.468.022-.685.023M39.02 14.049c-.36-.007-.716.092-1.02.287-.742.451-1.12 1.352-1.12 2.676 0 2.478 1.241 4.209 3.018 4.209.476.015.941-.15 1.302-.461.546-.445.836-1.355.836-2.629 0-2.441-1.213-4.082-3.018-4.082m.342 8.091c-3.21 0-4.353-2.355-4.353-4.558 0-1.539.629-2.742 1.87-3.577.87-.538 1.867-.833 2.889-.854 2.449 0 4.16 1.761 4.16 4.284 0 1.714-.683 3.068-1.976 3.914-.621.38-1.7.791-2.59.791M71.7 14.049c-.362-.008-.717.092-1.022.287-.742.451-1.12 1.352-1.12 2.676 0 2.478 1.241 4.209 3.018 4.209.478.016.944-.148 1.306-.461.546-.445.835-1.355.835-2.629 0-2.441-1.212-4.082-3.017-4.082m.342 8.091c-3.21 0-4.353-2.355-4.353-4.557 0-1.541.629-2.743 1.871-3.578.869-.538 1.866-.833 2.888-.854 2.449 0 4.16 1.762 4.16 4.283 0 1.716-.683 3.069-1.976 3.914-.621.381-1.7.792-2.59.792M60.892 13.965c-.989 0-1.629.781-1.629 1.99s.551 2.646 2.1 2.646c.266 0 .748-.118.987-.381.36-.331.6-1.015.6-1.737 0-1.577-.768-2.518-2.053-2.518m-.128 8.344c-.28-.003-.555.066-.8.2-.783.5-1.146 1-1.146 1.581 0 .544.211.977.665 1.361.55.466 1.292.693 2.267.693 1.919 0 2.779-1.032 2.779-2.054 0-.712-.357-1.189-1.092-1.459-.566-.207-1.512-.321-2.67-.321m.128 4.9c-1.152 0-1.982-.243-2.691-.789-.69-.532-1-1.322-1-1.868.007-.352.142-.69.378-.95.2-.228.665-.655 1.74-1.394.034-.014.056-.048.056-.085 0-.042-.028-.078-.068-.088-.885-.339-1.152-.9-1.233-1.2 0-.011 0-.028-.009-.047-.025-.118-.049-.23.112-.345.124-.088.322-.206.534-.331.3-.166.586-.352.859-.559.03-.032.043-.076.036-.119-.007-.043-.034-.08-.072-.101-1.31-.44-1.97-1.413-1.97-2.9-.008-.941.444-1.827 1.21-2.373.527-.417 1.85-.918 2.707-.918h.05c.881.021 1.378.206 2.066.46.391.142.806.207 1.222.194.729 0 1.048-.231 1.322-.5.044.121.068.249.07.378.017.307-.067.612-.238.868-.149.207-.5.357-.821.357-.033 0-.065 0-.1-.005-.169-.012-.336-.04-.5-.083l-.082.029c-.026.038-.009.08.012.134.005.01.01.022.012.033.059.267.098.538.119.81 0 1.555-.613 2.232-1.276 2.734-.641.481-1.402.776-2.2.852-.017 0-.1.007-.256.021-.1.009-.23.021-.249.021h-.019c-.144.04-.52.219-.52.552 0 .276.17.619.983.681l.526.037c1.072.075 2.411.168 3.041.381.857.301 1.424 1.119 1.407 2.027 0 1.395-.992 2.707-2.653 3.509-.783.374-1.64.567-2.509.563M55.986 21.206c-.47-.063-.813-.127-1.218-.317-.08-.082-.132-.187-.15-.3-.043-.655-.043-2.556-.043-3.8 0-1.015-.17-1.9-.6-2.535-.513-.719-1.239-1.141-2.179-1.141-.833 0-1.944.57-2.862 1.352-.022.021-.163.155-.16-.053.003-.208.035-.63.055-.9.018-.145-.034-.29-.14-.392-.6.3-2.283.7-2.906.761-.454.088-.569.525-.084.676h.007c.388.107.759.27 1.1.484.192.148.171.359.171.528.021 1.415.021 3.591-.043 4.774-.021.465-.15.634-.492.719l.032-.011c-.26.065-.525.115-.791.148-.107.105-.107.718 0 .845.214 0 1.3-.063 2.2-.063 1.238 0 1.879.063 2.2.063.129-.148.171-.718.086-.845-.296-.013-.59-.056-.877-.127-.341-.084-.427-.254-.448-.633-.042-.994-.042-3.106-.042-4.543 0-.4.106-.591.234-.7.427-.38 1.133-.633 1.752-.633.6 0 1 .19 1.3.443.35.305.568.732.612 1.194.085.8.063 2.409.063 3.8 0 .761-.063.952-.341 1.036-.128.063-.47.127-.876.169-.128.127-.086.718 0 .845.555 0 1.2-.063 2.136-.063 1.175 0 1.923.063 2.222.063.128-.148.171-.7.086-.845" transform="translate(15 57)"></path></g></svg> 