<?xml version="1.0" encoding="UTF-8"?> <svg xmlns="http://www.w3.org/2000/svg" width="135" height="17" viewBox="0 0 135 17"><g fill-rule="evenodd"><path d="M0 14.717l.808-.809c.197-.196.295-.42.295-.669V.493H1.3L10.954 9.2V2.798c0-.25-.099-.473-.296-.67L9.85 1.32v-.197h5.103v.197l-.808.808c-.197.197-.295.42-.295.67v12.648h-.197L3.999 6.718v6.521c0 .249.099.473.296.669l.808.809v.196H0v-.196zM16.37 14.717l.809-.809c.196-.196.295-.42.295-.669V2.798c0-.25-.1-.473-.295-.67l-.808-.808v-.197h8.136c1.419 0 2.506.322 3.26.966.756.643 1.133 1.497 1.133 2.561 0 1.602-.827 2.607-2.482 3.014v.039c2.036.355 3.054 1.478 3.054 3.369 0 1.261-.444 2.216-1.33 2.867-.887.649-2.125.974-3.714.974H16.37v-.196zm7.743-8.137c1.116 0 1.675-.486 1.675-1.458 0-.459-.142-.827-.424-1.103-.282-.276-.7-.414-1.251-.414h-3.487V6.58h3.487zm-.06 5.812c1.485 0 2.227-.584 2.227-1.753 0-1.104-.742-1.655-2.226-1.655h-3.428v3.408h3.428zM33.253 13.25c-1.366-1.295-2.049-3.025-2.049-5.192 0-2.18.69-3.92 2.07-5.22 1.378-1.3 3.125-1.952 5.24-1.952.472 0 1.05.043 1.733.13.683.084 1.11.127 1.28.127.5 0 .96-.165 1.38-.493l.196.08-1.182 4.668-.216-.059c-.145-.499-.47-.933-.975-1.3-.506-.368-1.18-.552-2.02-.552-1.195 0-2.184.417-2.965 1.251-.78.834-1.172 1.947-1.172 3.34 0 1.352.367 2.445 1.103 3.28.736.833 1.701 1.25 2.896 1.25 1.392 0 2.49-.545 3.29-1.634l1.852 2.147c-1.287 1.38-3.04 2.068-5.26 2.068-2.1 0-3.835-.647-5.2-1.94M47.575 13.732c-1.077-.973-1.615-2.384-1.615-4.235v-6.7c0-.25-.1-.472-.296-.67l-.807-.807v-.196h5.319v.196l-.808.808c-.197.197-.295.42-.295.67v6.777c0 .998.242 1.747.729 2.246.485.499 1.18.749 2.087.749.894 0 1.58-.253 2.06-.76.479-.505.718-1.25.718-2.235V2.798c0-.25-.098-.473-.295-.67l-.808-.808v-.196h5.359v.196l-.808.808c-.197.197-.295.42-.295.67v6.699c0 1.85-.542 3.263-1.626 4.235-1.083.972-2.518 1.458-4.305 1.458-1.8 0-3.237-.486-4.314-1.458M60.36 14.717l.808-.809c.197-.196.295-.499.295-.906V7.368c0-.407-.098-.709-.295-.906l-.808-.808v-.197h3.979v1.695c.224-.539.634-.985 1.232-1.34.598-.355 1.244-.532 1.94-.532 1.024 0 1.819.328 2.384.985s.847 1.576.847 2.758v3.98c0 .406.099.709.296.906l.808.808v.196h-4.06v-5.24c0-.564-.13-1.015-.393-1.349-.262-.335-.65-.503-1.162-.503-.604 0-1.058.188-1.36.562-.302.374-.453.856-.453 1.448v3.171c0 .407.099.71.296.906l.808.809v.196H60.36v-.196zM72.731 14.717l.808-.809c.197-.196.296-.499.296-.906V7.368c0-.407-.099-.709-.296-.906l-.808-.808v-.197h4.06v7.546c0 .406.096.709.294.906l.807.808v.196h-5.16v-.196zm1.33-11.151c-.349-.328-.522-.736-.522-1.222 0-.485.173-.893.522-1.221.348-.328.758-.492 1.232-.492.472 0 .882.164 1.23.492.35.328.522.736.522 1.221 0 .486-.173.894-.522 1.222-.348.328-.758.492-1.23.492-.474 0-.884-.164-1.232-.492zM79.587 7.565c-.446-.867-.945-1.497-1.497-1.89v-.218h3.625l1.95 4.57h.039l1.714-4.57h3.685v.217c-.565.394-1.064 1.024-1.497 1.891l-3.902 7.782h-.197l-3.92-7.782zM90.796 13.88c-.933-.874-1.398-2.053-1.398-3.537 0-1.497.46-2.715 1.378-3.654.919-.939 2.167-1.409 3.744-1.409 1.523 0 2.666.443 3.427 1.33.762.886 1.143 2.078 1.143 3.576 0 .301-.013.584-.04.846h-6.618c.065.5.308.92.728 1.261.42.342.979.513 1.675.513.88 0 1.556-.263 2.029-.788l1.635 1.93c-.892.827-2.2 1.242-3.92 1.242-1.59 0-2.85-.437-3.783-1.31m2.167-5.862c-.341.355-.531.788-.571 1.3h3.704c-.027-.538-.191-.978-.493-1.319-.302-.342-.73-.513-1.281-.513-.564 0-1.017.178-1.36.532M100.45 14.717l.807-.809c.197-.196.295-.499.295-.906V7.368c0-.407-.098-.709-.295-.906l-.808-.808v-.197h3.98v1.911c.222-.604.59-1.103 1.102-1.497.513-.394 1.104-.591 1.773-.591.486 0 .9.092 1.242.276l-.769 2.955c-.42-.368-.893-.552-1.418-.552-.578 0-1.03.191-1.359.571-.329.382-.493.92-.493 1.616v2.856c0 .407.098.71.296.906l.807.809v.196h-5.162v-.196h.001zM108.86 13.908l1.38-2.009c.88.722 1.936 1.083 3.171 1.083.841 0 1.261-.262 1.261-.788 0-.249-.109-.439-.326-.57-.215-.132-.502-.224-.856-.277-.355-.052-.755-.118-1.202-.197-1.93-.328-2.896-1.254-2.896-2.778 0-1.089.384-1.878 1.153-2.363.768-.487 1.743-.729 2.925-.729.46 0 .943.042 1.45.128.503.085.842.127 1.012.127.434 0 .867-.164 1.301-.492l.197.08-.926 3.604-.197-.059c-.394-.84-1.28-1.26-2.66-1.26-.827 0-1.24.242-1.24.728 0 .223.101.401.305.532s.476.22.817.266c.342.046.73.11 1.163.187.854.144 1.565.433 2.137.867.571.434.857 1.064.857 1.891 0 1.05-.397 1.865-1.192 2.443-.794.578-1.888.867-3.28.867-1.865 0-3.316-.427-4.354-1.28M119.715 14.43c-.578-.505-.866-1.171-.866-2 0-1.036.377-1.812 1.132-2.323.755-.513 1.934-.781 3.537-.808.499-.014.84-.075 1.024-.187.184-.112.276-.306.276-.581 0-.276-.142-.506-.423-.69-.284-.183-.713-.276-1.291-.276-.88 0-1.681.329-2.404.986l-1.537-1.813c.973-.972 2.384-1.458 4.237-1.458 1.497 0 2.596.302 3.299.906.703.605 1.054 1.524 1.054 2.759v4.058c0 .407.099.709.296.907l.808.807v.197h-3.98v-1.281c-.236.46-.618.834-1.142 1.123-.526.289-1.137.434-1.832.434-.881 0-1.61-.253-2.188-.76m4.59-1.851c.342-.348.513-.765.513-1.251v-.65c-.171.065-.584.118-1.242.157-1.181.067-1.772.474-1.772 1.222 0 .303.099.552.295.749.197.196.493.295.887.295.539 0 .978-.174 1.32-.522M129.663 14.717l.808-.809c.197-.196.296-.499.296-.906V1.911c0-.407-.099-.709-.296-.906l-.808-.808V0h4.06v13.002c0 .407.097.71.294.906l.808.809v.196h-5.162v-.196z"></path></g></svg> 