<?xml version="1.0" encoding="UTF-8"?> <svg xmlns="http://www.w3.org/2000/svg" width="16" height="18" viewBox="0 0 16 18"><g fill="none" fill-rule="evenodd"><path fill="#2B2B2B" fill-rule="nonzero" d="M15.72 9.083c.154 0 .28.13.28.296v4.513c0 1.179-.901 2.139-2.01 2.139-1.11 0-2.014-.96-2.014-2.14V9.38c0-.166.125-.296.279-.296zm-4.58-6.077c.154 0 .278.133.278.297v10.589c0 .865.382 1.636.975 2.137h-9.44c-1.109 0-2.012-.959-2.012-2.137V3.302c0-.163.125-.296.28-.296z"></path><rect width="6.588" height="2" x="2.824" y="6" fill="#FFF" rx="1"></rect></g></svg> 