<?xml version="1.0" encoding="UTF-8"?> <svg xmlns="http://www.w3.org/2000/svg" width="140" height="53" viewBox="0 0 140 53"><g fill="#FFF" opacity="1"><path d="M56.46 26.01h-.68v-.933h1.607v-.417h-2.049v1.762h1.103c.393 0 .62.18.62.508v.358c0 .368-.252.574-.706.574-.433 0-.685-.206-.685-.574v-.332h-.443v.322c0 .605.453.997 1.128.997.69 0 1.143-.392 1.143-.997v-.338c0-.564-.407-.93-1.037-.93M54.832 25.077L54.832 24.66 52.662 24.66 52.662 28.209 53.105 28.209 53.105 26.779 54.656 26.779 54.656 26.357 53.105 26.357 53.105 25.077zM50.85 24.74h.22v-.408H50.8c-.58 0-.906.357-.906.967v.368h-.297v.402h.297v2.14h.427v-2.14h.705v-.402h-.705v-.333c0-.423.167-.594.53-.594M45.265 27.802c-.347 0-.519-.161-.519-.57V26.07h.695v-.402h-.695v-.745h-.427v.745h-.342v.402h.342v1.26c0 .609.287.88.855.88h.313v-.407h-.222zM43.497 25.621c-.293-.009-.576.102-.786.307l-.085-.261h-.297v2.542h.428v-1.6c0-.42.307-.616.67-.616.072.001.145.01.216.026v-.392c-.049-.005-.097-.006-.146-.006M76.433 10.408L74.345 10.408 72.045 14.054 69.806 10.408 67.643 10.408 70.865 15.673 67.612 21.12 69.67 21.12 71.954 17.443 74.193 21.12 76.357 21.12 73.104 15.809zM64.946 10.408L64.946 17.701 60.74 10.408 59 10.408 59 21.12 60.74 21.12 60.74 13.873 64.946 21.12 66.701 21.12 66.701 10.408zM55.708 10.408H57.568999999999996V21.119H55.708zM54.277 14.22v-.604c0-2.073-1.528-3.42-4.206-3.42-2.663 0-4.191 1.347-4.191 3.42v4.296c0 2.073 1.543 3.42 4.206 3.42 2.663 0 4.19-1.347 4.19-3.42v-2.511H50.01v1.725h2.406v.68c0 1.12-.847 1.8-2.345 1.8-1.483 0-2.33-.68-2.33-1.8v-4.084c0-1.12.847-1.8 2.345-1.8 1.483 0 2.33.68 2.33 1.8v.499h1.86zM42.685 10.408L42.685 17.701 38.479 10.408 36.739 10.408 36.739 21.12 38.479 21.12 38.479 13.873 42.685 21.12 44.44 21.12 44.44 10.408zM48.15 25.601c-.71 0-1.082.398-1.082 1.052v.565c0 .654.373 1.057 1.088 1.057.71 0 1.082-.403 1.082-1.057v-.565c0-.654-.372-1.052-1.087-1.052zm.66 1.591c0 .449-.2.675-.66.675-.458 0-.654-.226-.654-.675v-.513c0-.449.201-.67.66-.67.458 0 .655.221.655.67v.513zM41.456 25.667l-.08.256c-.203-.222-.496-.34-.796-.322-.625 0-.992.312-.992 1.073v.529c0 .755.367 1.072.992 1.072.3.018.593-.1.796-.322l.08.256h.297v-2.542h-.297zm-.8 2.2c-.429 0-.64-.211-.64-.695V26.7c0-.484.211-.69.64-.69.393 0 .634.191.67.61v.634c-.036.423-.282.614-.67.614M38.129 24.66h-1.39v3.55h.443v-1.29h.952c.69 0 1.082-.357 1.082-.936v-.388c0-.584-.392-.936-1.087-.936m.65 1.324c0 .337-.202.514-.625.514h-.972v-1.421h.977c.418 0 .62.181.62.519v.388zM13.134.223c.505-.297 1.13-.297 1.636 0l12.315 7.11c.51.289.823.831.818 1.417v14.22c.005.586-.308 1.129-.817 1.418l-12.315 7.11c-.506.296-1.132.296-1.637 0L.817 24.388c-.25-.141-.458-.348-.602-.597-.144-.25-.219-.533-.216-.82V8.75l.007-.16c.048-.523.349-.995.812-1.258L13.134.223zm7.136 8.852c-.49-.283-1.093-.283-1.583 0s-.792.806-.792 1.371v7.874L11.28 10.4l-.478-.572c-.534-.661-1.405-.966-2.16-.966-1.053 0-1.798.697-1.798 1.54l-.001 10.871c0 .874.709 1.583 1.583 1.583.875 0 1.584-.709 1.584-1.583V13.4l7.094 8.491c.533.661 1.404.965 2.16.965 1.053 0 1.797-.696 1.797-1.538l.002-10.872-.007-.153c-.05-.505-.34-.96-.785-1.218zM26.418 28.775h.202v-.451h.16c.077-.007.154.006.225.038.08.061.12.161.107.262v.092l.004.035c.002.004.003.01.003.014.001.006.002.007.005.01h.187l-.006-.013c-.008-.019-.011-.039-.01-.059-.002-.032-.002-.06-.002-.085v-.086c-.003-.064-.025-.126-.063-.178-.048-.063-.12-.104-.2-.113.059-.007.115-.026.167-.054.076-.05.118-.136.112-.227.013-.125-.06-.244-.177-.29-.102-.033-.208-.047-.314-.042h-.4v1.147zm.575-.618c-.062.02-.127.029-.192.025h-.181v-.417h.172c.084-.005.167.01.244.045.055.036.084.101.076.167.005.08-.043.154-.119.18m.588-.69c-.196-.198-.465-.308-.744-.303-.576.001-1.042.469-1.042 1.045 0 .577.466 1.044 1.042 1.046.424 0 .807-.254.97-.645.162-.392.073-.842-.226-1.142m-.106.103c.172.166.267.397.262.636.002.365-.216.695-.553.836-.337.14-.725.062-.983-.197-.17-.169-.264-.399-.26-.639-.002-.496.4-.9.896-.902.24-.005.472.092.638.266" transform="translate(29 12)"></path></g></svg> 