<?xml version="1.0" encoding="UTF-8"?> <svg xmlns="http://www.w3.org/2000/svg" width="16" height="18" viewBox="0 0 16 18"><path fill="#2492C3" d="M13.302 9.817L16 6.952l-4.64-4.93-2.897 3.06h-.939L4.64 2.022 0 6.95l2.683 2.866-.982 1.056c-.548.583-.548 1.53 0 2.113.255.27.583.415.916.435.02.368.163.711.41.974.247.263.57.415.917.435.019.355.155.704.409.974s.583.415.917.434c.018.355.154.704.409.974.548.583 1.44.583 1.989 0l.33-.351.332.351c.549.583 1.44.583 1.99 0 .246-.262.39-.606.409-.974.334-.02.662-.164.916-.434.255-.27.39-.62.409-.974.334-.02.662-.165.917-.435.247-.263.39-.606.41-.974.333-.02.661-.164.916-.435.548-.582.548-1.53 0-2.113l-.995-1.056zm.332 2.465c-.183.194-.48.194-.663 0l-1.326-1.409-.663.705 1.326 1.408c.183.195.183.51 0 .705-.183.194-.48.194-.663 0l-1.326-1.409-.663.704 1.326 1.41c.183.193.183.51 0 .703-.183.195-.48.195-.663 0l-1.326-1.408-.663.704 1.326 1.409c.183.194.183.51 0 .704-.183.194-.48.194-.663 0l-5.181-5.49V9.61L1.324 6.953 4.64 3.43l2.028 2.152-1.652 1.77c-.55.583-.55 1.529 0 2.113.548.582 1.44.582 1.989 0l1.018-1.082c.892.71 2.05.874 3.066.491l2.545 2.704c.183.194.183.51 0 .704z"></path></svg> 