<?xml version="1.0" encoding="UTF-8"?> <svg xmlns="http://www.w3.org/2000/svg" xmlns:xlink="http://www.w3.org/1999/xlink" width="140" height="53" viewBox="0 0 140 53"><defs><path id="prefix__a" d="M0.092 0.062L35.224 0.062 35.224 36.511 0.092 36.511z"></path><path id="prefix__c" d="M0.001 0.018L7.907 0.018 7.907 8.377 0.001 8.377z"></path><path id="prefix__e" d="M0 0.063L7.158 0.063 7.158 8.045 0 8.045z"></path></defs><g fill="none" fill-rule="evenodd" opacity="1"><g transform="translate(34) translate(14.251 15.32)"><mask id="prefix__b" fill="#fff"><use xlink:href="#prefix__a"></use></mask><path fill="#FFF" fill-rule="nonzero" d="M14.174 24.685c-.827.489-1.83.457-2.687.855 1.738.886 4.145.575 5.347-1.053.616-.573.02-1.784-.794-1.668-.748.487-1.065 1.436-1.866 1.866m14.038-1.707c-.357.33-.332.859-.336 1.305.788.27 1.637.242 2.454.144 1.234-.133 2.489-.546 3.394-1.427-1.482.18-3.102.538-4.496-.196-.329-.228-.732-.035-1.016.174M10.954 11.473c.024 1.169.106 2.339.026 3.507-.035 1.033-.338 2.07-.106 3.1.34 1.823 1.968 3.441 3.884 3.422.28-.919.606-1.825 1.008-2.7 1.151-2.266.965-4.93.364-7.323-.164-.675-.797-1.16-1.482-1.19-1.324-.076-2.6.478-3.694 1.184m14.773-.897c-.687.538-.651 1.516-.511 2.29.493 2.43 1.912 4.514 3.009 6.697.818-1.645.315-3.51.188-5.245-.14-1.402.29-2.768.333-4.16-1.007-.062-2.147-.2-3.019.418M5.823 1.812c-1.48.277-2.889 1.124-3.643 2.453-1.009 1.754-1.119 3.868-.942 5.839.354 2.59.97 5.137 1.7 7.644C3.59 19.867 4.303 22 5.483 23.89c.437.643.937 1.36 1.721 1.586.67.139 1.203-.414 1.596-.878.892-1.1 1.868-2.127 2.788-3.203-1.352-1.229-2.082-3.1-1.836-4.92.195-1.394.232-2.806.147-4.21-.149-1.995.135-4.014.756-5.912.456-1.42 1.236-2.718 2.24-3.82-2.274-.694-4.704-1.177-7.072-.721m11.337-.18c-1.612.211-3.123 1.082-4.096 2.388-1.325 1.755-1.903 3.968-2.071 6.13 1.331-.622 2.83-1.204 4.318-.83.967.233 1.693 1.077 1.905 2.031.434 1.912.669 3.928.244 5.865-.327 1.565-1.281 2.918-1.598 4.486.403.032.824.06 1.184.262.742.404 1.17 1.271 1.124 2.105-.056 2.133-.053 4.268.06 6.4.066.881.09 1.777.324 2.635.319 1.024 1.029 2.073 2.155 2.271 1.187.182 2.412-.155 3.467-.691 1.03-.543 1.493-1.702 1.67-2.792.372-2.275.63-4.567.892-6.857.113-.817-.047-1.714.409-2.45.26-.472.772-.693 1.231-.926-.384-.492-.79-.971-1.091-1.52-1.135-2.344-2.671-4.559-3.145-7.165-.204-1.096-.087-2.4.82-3.165.999-.86 2.4-.809 3.637-.765-.744-2.103-2.124-3.973-3.87-5.354-2.114-1.664-4.909-2.395-7.569-2.057m6.007-.204c.494.342 1.05.58 1.545.92 2.033 1.362 3.618 3.345 4.615 5.572.275.643.559 1.32.502 2.037.012 1.463-.489 2.89-.34 4.357.143 1.554.478 3.144.082 4.688-.111.547-.398 1.033-.594 1.55l.058.296c.187-.241.357-.496.513-.76 1.58-2.676 2.837-5.551 3.665-8.55.433-1.621.772-3.287.752-4.971-.03-.707-.089-1.48-.548-2.055-.962-1.205-2.243-2.157-3.686-2.704-2.083-.784-4.402-.844-6.564-.38M21.301.778c2.526-.78 5.281-.988 7.85-.292 2.055.552 3.92 1.789 5.207 3.485.52.705.638 1.61.676 2.461.049 1.52-.214 3.03-.556 4.506-.94 3.885-2.62 7.566-4.756 10.936 1.197.513 2.54.257 3.774.037.515-.102 1.178-.226 1.568.225.379.491.015 1.117-.37 1.478-1.795 1.755-4.514 2.215-6.917 1.81-.243 2.147-.498 4.295-.834 6.432-.186 1.193-.583 2.436-1.517 3.258-.878.769-2.035 1.106-3.159 1.32-1.145.2-2.432.035-3.334-.752-.957-.847-1.502-2.101-1.622-3.36-.243-2.151-.254-4.318-.247-6.48-1.033.89-2.407 1.347-3.767 1.244-.96-.08-2.022-.23-2.743-.931-.399-.365-.377-1.058.067-1.375.77-.58 1.792-.536 2.665-.873.648-.19.983-.82 1.39-1.303-.752-.055-1.488-.247-2.165-.58-1.037 1.105-2.037 2.247-3.009 3.411-.562.674-1.391 1.242-2.309 1.131-1.031-.126-1.798-.935-2.375-1.737-1.136-1.633-1.838-3.517-2.477-5.387-.969-3-1.73-6.076-2.171-9.2C-.05 7.889.137 5.325 1.508 3.317 2.592 1.707 4.49.831 6.379.634c2.54-.266 5.108.252 7.494 1.112C15.86.418 18.39.235 20.683.7c.204.026.41.12.618.078" mask="url(#prefix__b)"></path></g><path fill="#FFF" fill-rule="nonzero" d="M40.3 26.221c.494-.352 1.18-.378 1.726-.124-.02.69-.849 1.187-1.453.831-.25-.112-.563-.468-.273-.707M28.276 26.262c.516-.138 1.134-.072 1.558.273.298.242.026.642-.232.787-.585.432-1.515.01-1.634-.684-.034-.204.141-.318.308-.376" transform="translate(34)"></path><g transform="translate(34) translate(42.212 .118)"><mask id="prefix__d" fill="#fff"><use xlink:href="#prefix__c"></use></mask><path fill="#FFF" fill-rule="nonzero" d="M1.17.53C2.009.064 3.002.033 3.939.017 4.95.03 6.06.113 6.889.764c.519.4.739 1.063.74 1.7h-.962C6.55 1.838 6.276 1.166 5.626.935 4.539.524 3.29.55 2.182.873c-.887.245-1.212 1.53-.528 2.15.49.39 1.143.443 1.734.575 1.21.258 2.494.3 3.622.852 1.203.603 1.157 2.526.097 3.248-.88.604-1.998.671-3.033.68-1.126-.019-2.355-.124-3.27-.852C.216 7.062.034 6.29 0 5.577c.329-.016.657-.022.987-.023.072.757.428 1.545 1.182 1.832 1.18.46 2.546.454 3.752.089.842-.238 1.17-1.312.787-2.047-.182-.333-.539-.513-.889-.61-1.473-.397-3.032-.42-4.471-.95C-.008 3.37-.053 1.207 1.169.53" mask="url(#prefix__d)"></path></g><path fill="#FFF" fill-rule="nonzero" d="M54.074.916c-1.098.255-2.121 1.02-2.477 2.12-.376 1.184-.246 2.61.612 3.56.755.856 1.917 1.241 3.034 1.259 1.235.04 2.587-.314 3.4-1.3 1.11-1.429.982-3.808-.504-4.934-1.122-.914-2.702-.997-4.065-.705M52.54.733c1.124-.573 2.425-.662 3.663-.56 1.176.097 2.373.531 3.168 1.433.987 1.062 1.163 2.67.793 4.025-.201.76-.734 1.36-1.307 1.87.452.33.921.632 1.374.963-.203.196-.41.384-.624.567-.477-.306-.916-.673-1.41-.951-.381 0-.73.23-1.11.284-1.059.187-2.16.2-3.217-.007-1.152-.23-2.26-.877-2.881-1.895-.615-.995-.695-2.25-.413-3.365.26-1.031 1.022-1.892 1.964-2.364M60.99.34c.313-.007.625-.016.939-.025.025 2.435.005 4.87.01 7.305 1.975.034 3.953-.015 5.93.024l-.005.65c-2.291.002-4.583.01-6.876-.005.004-2.65-.001-5.3.003-7.95" transform="translate(34)"></path><g transform="translate(34) translate(0 .254)"><mask id="prefix__f" fill="#fff"><use xlink:href="#prefix__e"></use></mask><path fill="#FFF" fill-rule="nonzero" d="M.807.722C.806 1.827.802 2.932.81 4.037c1.18-.003 2.36.017 3.539-.01.658-.02 1.429-.247 1.704-.91.218-.592.184-1.33-.218-1.838C5.444.81 4.79.723 4.215.72 3.08.719 1.944.719.808.722m-.8-.636C1.5.09 2.993.073 4.487.064c.692-.008 1.437.12 1.972.593.725.627.851 1.732.54 2.598-.368.936-1.422 1.375-2.37 1.398-1.277.016-2.555-.007-3.832.01C.783 5.79.816 6.916.803 8.044c-.266-.002-.532-.002-.796 0-.009-2.654-.01-5.306 0-7.96" mask="url(#prefix__f)"></path></g><path fill="#FFF" fill-rule="nonzero" d="M21.283 1.361h.82c0 .569-.001 1.136.004 1.705.466.006.931.006 1.397 0l.022.553c-.471.009-.942.009-1.413-.002-.02 1.117-.004 2.233-.011 3.349.008.253-.016.59.243.735.362.182.782.116 1.17.094l.003.532c-.599.068-1.244.113-1.799-.163-.335-.175-.446-.575-.44-.928-.006-1.208.003-2.415-.002-3.623-.352.001-.702 0-1.054-.004l.007-.54c.348.004.694.001 1.041-.014.004-.564.006-1.129.012-1.694M9.692 3.506c-.767.09-1.521.573-1.772 1.329-.281.84-.162 1.888.52 2.508.541.495 1.313.61 2.019.577.64-.026 1.32-.196 1.778-.675.5-.491.584-1.247.519-1.912-.05-.576-.328-1.16-.835-1.466-.661-.403-1.477-.448-2.229-.361m-.4-.53c1.038-.153 2.173-.118 3.107.41 1.403.79 1.6 2.91.623 4.105-.84.93-2.213 1.057-3.39.958-.955-.058-1.934-.532-2.386-1.409-.41-.81-.415-1.819-.032-2.64.385-.8 1.226-1.281 2.078-1.424M14.73 3.36c.54-.345 1.204-.4 1.829-.443.88-.02 1.844-.026 2.607.48.425.266.578.77.638 1.24-.286.01-.574.013-.86.013-.06-.39-.22-.802-.61-.965-.703-.323-1.516-.288-2.265-.18-.466.066-1.035.33-1.048.872-.04.384.31.654.646.737.988.249 2.021.224 3.016.437.444.105.923.283 1.175.688.345.59.13 1.435-.467 1.776-.724.429-1.601.45-2.421.454-.798-.03-1.667-.044-2.348-.52-.418-.288-.562-.806-.64-1.28.297-.005.594 0 .891.005.015.647.56 1.106 1.17 1.183.888.128 1.869.201 2.696-.211.572-.288.517-1.215-.089-1.43-1.228-.358-2.566-.24-3.777-.68C14 5.19 13.987 3.85 14.73 3.36M26.664 3.529c-.59.092-1.183.38-1.511.897-.381.615-.387 1.418-.13 2.082.273.688 1.015 1.04 1.714 1.112.888.127 1.923.012 2.557-.688.71-.864.633-2.362-.318-3.027-.67-.455-1.535-.482-2.312-.376m-.687-.485c.845-.188 1.75-.202 2.586.05.476.13.808.51 1.168.82.016-.28.023-.557.038-.834.262.001.524-.002.787-.007.07 1.608.01 3.222.032 4.833.02.667-.11 1.4-.63 1.865-.683.619-1.656.72-2.537.737-.783-.016-1.608-.034-2.317-.406-.495-.256-.733-.8-.83-1.32.267-.006.534-.008.803-.017.17.346.3.766.673.948.56.269 1.2.277 1.808.273.677-.023 1.454-.154 1.88-.742.411-.561.318-1.296.318-1.949-.849.86-2.131 1.02-3.278.881-.72-.082-1.472-.339-1.941-.919-.57-.704-.64-1.699-.43-2.551.222-.87 1.023-1.47 1.87-1.662M33.082 3.124c.595-.26 1.26-.211 1.894-.21 0 .221.001.443.004.664-.652-.01-1.378-.097-1.938.31-.547.375-.736 1.073-.745 1.704-.01.901.005 1.804-.005 2.706l-.805-.002c-.025-1.739-.03-3.478-.006-5.216.268.001.539.001.807-.003.006.3.007.601.015.901.2-.33.41-.69.78-.854M36.728 3.779c-.59.305-.867.954-1.009 1.57 1.652.012 3.306.01 4.959 0-.056-.376-.166-.757-.426-1.045-.835-1.011-2.415-1.117-3.524-.525m-1.47.427c.547-.882 1.617-1.258 2.611-1.29 1.018-.05 2.167.089 2.91.86.552.535.732 1.32.762 2.062-1.944.017-3.887-.014-5.83.016.045.525.204 1.07.613 1.43.754.694 1.893.757 2.85.542.635-.137 1.124-.631 1.357-1.223.296-.001.592 0 .889.003-.254.882-1.031 1.521-1.911 1.72-1.192.276-2.565.229-3.593-.503-1.122-.788-1.334-2.475-.658-3.617" transform="translate(34)"></path></g></svg> 