<?xml version="1.0" encoding="UTF-8"?> <svg xmlns="http://www.w3.org/2000/svg" width="139" height="52" viewBox="0 0 139 52"><g fill="#FFF" opacity="1"><path d="M19.477.382C20.941.916 28.52 3.93 29.95 4.464c.786.281 1.16.541 1.104.842l-.001 2.724c0 .275-.327.55-1.068.947-.069.036-.15.076-.243.122.087.034.162.062.226.085.788.285 1.158.549 1.084.856v2.692c0 .293-.326.568-1.067.964l-.062.035.045.017c.788.285 1.158.544 1.084.849v2.7c0 .275-.326.568-1.067.964-1.482.775-9.112 3.91-10.748 4.77-1.636.862-2.532.845-3.807.225-1.291-.62-9.387-3.91-10.868-4.616-.74-.345-1.12-.638-1.12-.93v-2.75c-.045-.292.312-.562 1.069-.85l.048-.02-.161-.076c-.632-.313-.955-.597-.955-.852l-.001-2.766c-.045-.293.312-.562 1.069-.85l.25-.097-.199-.093c-.74-.345-1.12-.637-1.12-.93V5.742c-.113-.318.238-.606 1.051-.916 1.447-.551 9.525-3.738 11.23-4.34 1.706-.62 2.291-.638 3.755-.104zm.259 6.545l-6.408.982 4.478 1.843 1.93-2.825zm-8.13-2.704c-1.895 0-3.428.603-3.428 1.326 0 .724 1.533 1.327 3.428 1.327 1.894 0 3.427-.603 3.427-1.327 0-.723-1.533-1.326-3.427-1.326zm7.906 1.292l3.772 1.498.413-.172 3.79-1.498-3.79-1.481-4.185 1.653zm-3.755-4.048l.62 1.137-2.067.74 2.773.26.861 1.429.534-1.275 2.394-.258-1.86-.69.5-1.188-1.826.603-1.93-.758z" transform="translate(53 6)"></path><g><path d="M2.188 5.219c.34-.377.753-.664 1.22-.861.448-.197.932-.305 1.434-.323.359-.036.7.09.969.323.197.197.305.466.305.753 0 .27-.108.538-.305.753-.198.216-.467.323-.754.323-1.22.108-2.923 1.327-2.923 2.995v3.766c-.018.574-.484 1.04-1.058 1.059-.287.018-.574-.108-.753-.323C.126 13.486 0 13.217 0 12.93V5.075c0-.287.126-.556.323-.753.233-.161.52-.25.807-.269.287 0 .556.108.753.323.215.197.323.466.323.753v.09h-.018zM10.348 5.847c-.664.017-1.291.25-1.793.699-.43.359-.718.843-.843 1.38h5.577c-.161-.537-.502-1.003-.968-1.326-.538-.449-1.238-.718-1.973-.753zm4.735 2.833c0 .251-.09.502-.27.7-.197.197-.466.304-.753.322H7.783c.054.503.305.95.682 1.292.484.52 1.148.843 1.865.896.735.126 1.47-.053 2.08-.484.216-.215.503-.323.807-.323.252-.018.503.09.7.27.359.322.377.878.054 1.219l-.054.054c-.933.86-2.188 1.327-3.461 1.273-1.31.036-2.583-.52-3.462-1.489-.896-.95-1.416-2.205-1.434-3.515-.018-1.327.484-2.582 1.434-3.515.861-.932 2.08-1.452 3.354-1.434 1.237-.054 2.439.43 3.282 1.327.897.86 1.435 2.044 1.488 3.282v.107l-.035.018zM20.32 11.765c.717.018 1.398-.305 1.865-.843 1.058-1.094 1.058-2.834 0-3.946-.467-.538-1.148-.843-1.866-.86-.717-.018-1.416.286-1.865.86-1.058 1.094-1.058 2.834 0 3.946.467.52 1.148.843 1.865.843zm4.77 1.058c0 .287-.126.556-.323.753-.197.197-.466.323-.753.323-.502-.018-.933-.359-1.058-.86-.79.573-1.74.86-2.708.86-1.292.018-2.511-.502-3.408-1.435-.932-.932-1.435-2.206-1.38-3.515-.019-1.31.483-2.564 1.38-3.515.879-.95 2.116-1.488 3.408-1.488.95-.018 1.883.286 2.654.86v-3.73c0-.287.108-.556.323-.753.197-.197.466-.323.753-.323s.556.108.753.323c.197.197.323.466.323.753v11.747h.036zM26.453 4.322c.197-.197.466-.323.753-.323s.556.108.753.323c.198.215.323.502.305.79v7.765c.018.287-.107.556-.323.753-.197.197-.466.323-.753.323s-.556-.108-.753-.323c-.197-.197-.323-.466-.323-.753V5.11c0-.305.108-.592.34-.789m1.794-3.246v.43c.018.305-.107.592-.323.808-.197.197-.466.286-.753.269-.287 0-.556-.108-.753-.323-.215-.216-.323-.502-.323-.807v-.377c0-.287.126-.556.323-.753.197-.197.466-.323.753-.323s.556.108.753.323c.198.197.323.466.323.753M35.779 5.057c.215.144.376.377.43.646.036.27 0 .556-.108.807-.161.215-.376.377-.645.43-.27.054-.556 0-.807-.16-.753-.485-1.327-.754-1.811-.754-.431-.018-.844.107-1.166.377-.216.16-.323.269-.323.376-.018.09 0 .18.054.27.053.07.125.125.215.16.43.27.932.431 1.435.485.663.107 1.309.305 1.919.592.538.215.986.61 1.273 1.112.27.412.412.896.43 1.38 0 .915-.466 1.776-1.22 2.296-.734.538-1.631.807-2.546.807-1.22 0-2.385-.484-3.515-1.38-.197-.18-.34-.431-.377-.7-.053-.556.36-1.058.933-1.112.269-.018.52.054.717.215.592.556 1.364.86 2.188.86.467.019.933-.107 1.328-.376.215-.215.376-.376.376-.538 0-.161 0-.215-.054-.269 0-.054-.107-.161-.269-.215-.484-.305-1.022-.484-1.596-.556-.628-.09-1.237-.287-1.811-.592-.52-.25-.95-.645-1.274-1.112-.215-.376-.322-.789-.322-1.22 0-.878.43-1.703 1.165-2.187.718-.484 1.579-.753 2.44-.753.896.053 1.865.43 2.923 1.111" transform="translate(53 6) translate(0 23.085)"></path></g></g></svg> 