<?xml version="1.0" encoding="UTF-8"?> <svg xmlns="http://www.w3.org/2000/svg" width="16" height="18" viewBox="0 0 16 18"><g fill="#2B2B2B"><path d="M0 14.609l.076-.244c.015-.06.44-1.505.988-2.068.304-.304.668-.47 1.003-.47.212 0 .38.06.516.197.35.35.228 1.019-.273 1.52-.593.593-2.006.973-2.067 1.004l-.243.06z" transform="translate(0 2)"></path><g><path d="M15.096.023l-.024.325c-.139 3.57-.904 6.26-4.29 9.275L5.218 3.548C8.278.603 10.783 0 13.797 0c.302 0 .626 0 .997.023h.302zM11.71 5.31c.65-.603.696-1.623.093-2.296-.603-.672-1.623-.695-2.296-.092-.649.603-.695 1.623-.093 2.295.603.65 1.624.696 2.296.093zM4.035 3.826l6.353 6.933c-.208 1.345-.858 2.574-1.855 3.502l-.232.209-2.156-2.342c-.487.347-1.067.556-1.693.556-.394 0-.788-.093-1.136-.232-.348-.162-.673-.394-.95-.672-.51-.557-.79-1.276-.743-2.04.023-.65.278-1.253.696-1.74L.162 5.658l.232-.209c.974-.974 2.273-1.53 3.64-1.623z" transform="translate(0 2) translate(.696)"></path></g></g></svg> 