<?xml version="1.0" encoding="UTF-8"?> <svg xmlns="http://www.w3.org/2000/svg" width="16" height="18" viewBox="0 0 16 18"><path fill="#2492C3" d="M2.067 13.826c.212 0 .38.06.516.198.35.35.228 1.019-.273 1.52-.593.593-2.006.973-2.067 1.004l-.243.06.076-.243c.015-.06.44-1.505.988-2.068.304-.304.668-.47 1.003-.47zm2.663-8l6.354 6.933c-.209 1.345-.858 2.574-1.855 3.502l-.232.209-2.156-2.342c-.487.347-1.067.556-1.693.556-.394 0-.789-.093-1.136-.232-.348-.162-.673-.394-.951-.672-.51-.557-.789-1.276-.742-2.04.023-.65.278-1.253.695-1.74L.858 7.658l.232-.209c.974-.974 2.272-1.53 3.64-1.623zm10.76-3.803h.301l-.023.325c-.139 3.57-.904 6.26-4.29 9.275L5.913 5.548C8.973 2.603 11.478 2 14.493 2c.301 0 .626 0 .997.023zm-5.287 2.899c-.65.603-.696 1.623-.093 2.295.603.65 1.623.696 2.296.093.65-.603.695-1.623.093-2.296-.603-.672-1.624-.695-2.296-.092z"></path></svg> 