<?xml version="1.0" encoding="UTF-8"?> <svg xmlns="http://www.w3.org/2000/svg" xmlns:xlink="http://www.w3.org/1999/xlink" width="44" height="44" viewBox="0 0 44 44"><defs><path id="prefix__a" d="M0 0L37 0 37 37 0 37z"></path></defs><g fill="none" fill-rule="evenodd" transform="translate(3 4)"><g transform="translate(1)"><path fill="#2492C3" d="M35 25.966C35 27.105 34.064 28 32.966 28h-14.16v-5.086c0-.814-.244-1.546-.57-2.238l9.766-9.765v4.679c0 .732.61 1.343 1.342 1.343.732 0 1.343-.61 1.343-1.343V7.656c0-.733-.61-1.343-1.343-1.343H21.41c-.732 0-1.343.61-1.343 1.343 0 .732.61 1.342 1.343 1.342h4.68l-9.766 9.766c-.651-.367-1.424-.57-2.238-.57H9V4.034C9 2.895 9.895 2 11.034 2h21.932C34.064 2 35 2.895 35 4.034v21.932z"></path></g><rect width="18" height="15" y="20" fill="#2492C3" rx="4"></rect></g></svg> 