<?xml version="1.0" encoding="UTF-8"?> <svg xmlns="http://www.w3.org/2000/svg" width="140" height="52" viewBox="0 0 140 52"><g fill="#FFF" opacity="1"><path d="M58.17 16.685c-.053-.117-.085-.18-.106-.233-.794-1.517-1.589-3.033-2.393-4.539-.085-.148-.075-.244.042-.371 1.27-1.485 2.53-2.97 3.791-4.454.042-.053.085-.106.106-.201-.37.095-.741.19-1.101.286-1.525.403-3.06.806-4.586 1.22-.148.042-.211 0-.275-.117-.868-1.453-1.747-2.906-2.616-4.359-.042-.074-.095-.148-.19-.212-.074.393-.138.775-.212 1.167l-.73 4.104c-.022.148-.064.297-.075.445-.01.138-.084.191-.211.233-1.8.562-3.6 1.135-5.401 1.708-.074.02-.159.053-.244.138 1.472.583 2.944 1.177 4.448 1.77-.053.043-.085.075-.127.106-.921.594-1.843 1.188-2.764 1.793-.106.074-.201.084-.318.02-1.101-.498-2.202-.985-3.304-1.473-.497-.223-.942-.52-1.291-.944-.784-.965-.625-2.047.413-2.715.338-.222.73-.381 1.111-.509 1.769-.572 3.537-1.134 5.306-1.686.148-.042.222-.116.243-.275.233-1.368.477-2.736.73-4.104.128-.732.202-1.485.562-2.153.138-.254.297-.509.498-.721.699-.785 1.684-.817 2.425-.064.254.255.466.552.656.849.816 1.336 1.62 2.683 2.425 4.03.096.158.18.19.36.148 1.98-.53 3.95-1.05 5.93-1.58.403-.106.816-.149 1.24-.075.91.17 1.312.87 1.005 1.75-.137.403-.38.742-.656 1.06-1.377 1.623-2.753 3.256-4.14 4.879-.117.127-.117.233-.043.37.826 1.56 1.641 3.118 2.467 4.688.202.37.35.763.35 1.187.01.976-.7 1.771-1.673 1.92-.54.074-1.049-.032-1.557-.191-1.239-.382-2.478-.764-3.717-1.135-.116-.032-.159-.085-.18-.201-.138-.87-.296-1.75-.445-2.62 0-.02 0-.052.011-.105 1.377.381 2.774.763 4.236 1.166" transform="translate(42 9)"></path><path d="M55.68 29.534c-1.119 0-2.227-.011-3.346 0-.148 0-.233-.043-.317-.17-1.32-2.024-2.64-4.047-3.97-6.07-.042-.065-.084-.129-.158-.235-.285 2.183-.56 4.323-.844 6.464h-2.903c.031-.288.063-.564.095-.841l.855-6.582.823-6.283c.01-.064.053-.138.106-.17 1.003-.66 2.006-1.31 3.019-1.97.01-.011.032-.011.084-.022-.306 2.343-.612 4.665-.907 6.997.01.01.02.021.031.021 1.584-1.767 3.157-3.535 4.772-5.335.042.277.084.5.126.735.117.67.222 1.331.338 2.002.021.138-.01.213-.095.309-1.024 1.075-2.037 2.162-3.061 3.237-.042.043-.085.096-.137.15.031.052.063.106.095.148 1.752 2.492 3.515 4.974 5.278 7.466.032.042.074.085.116.117v.032zM13.284 28.754c-.085.65-.17 1.267-.255 1.885L12.71 33.1c-.01.096-.042.139-.148.139h-2.42c-.022 0-.033-.011-.086-.022.053-.383.096-.777.149-1.16.18-1.364.35-2.717.53-4.08.202-1.556.372-3.122.638-4.667.467-2.738 2.781-5.092 5.5-5.678 1.57-.34 3.078-.18 4.458.703 1.37.885 2.155 2.174 2.336 3.793.254 2.29-.584 4.186-2.209 5.752-1.061 1.034-2.335 1.683-3.8 1.907-1.508.224-2.93-.021-4.204-.916-.043-.032-.096-.064-.17-.117m7.75-5.646c-.043-.235-.075-.565-.18-.884-.49-1.524-2.05-2.355-3.653-1.982-1.762.416-3.026 1.8-3.206 3.612-.138 1.342.584 2.62 1.922 3.11 1.072.394 2.112.224 3.068-.351 1.274-.767 1.964-1.897 2.049-3.505M11.962 15.767c-.899.67-1.765 1.319-2.642 1.978-.137-.223-.264-.447-.412-.649-.38-.531-.845-.925-1.532-.978-.571-.042-1.057.15-1.437.564-.35.372-.391.914-.064 1.34.36.467.74.914 1.141 1.35.656.722 1.353 1.414 1.998 2.126.591.659 1.067 1.393 1.215 2.296.169 1.063-.043 2.084-.54 3.02-.93 1.733-2.387 2.743-4.321 3.062-.856.138-1.701.106-2.536-.139-1.11-.33-1.87-1.052-2.367-2.083-.18-.362-.306-.745-.465-1.138.972-.521 1.902-1.031 2.864-1.542.031.085.052.15.084.213.159.33.296.68.497.978.602.893 1.564 1.17 2.536.723.253-.117.496-.276.697-.457.634-.564.75-1.35.286-2.052-.265-.404-.603-.776-.93-1.138-.782-.871-1.596-1.711-2.357-2.604-.528-.617-.877-1.33-.993-2.148-.127-.893.053-1.744.518-2.488 1.152-1.87 2.821-2.849 5.03-2.764 1.257.043 2.26.638 3.043 1.627.232.287.454.584.687.903M33.424 25.81c-.148 1.129-.285 2.204-.433 3.279-.01.053-.053.127-.095.149-2.175 1.01-5.036.872-6.82-1.171-.962-1.096-1.363-2.405-1.3-3.853.138-3.352 2.904-6.29 6.198-6.694 1.932-.234 3.622.287 4.93 1.798.888 1.033 1.3 2.257 1.247 3.608-.042.894-.18 1.788-.296 2.682-.158 1.267-.327 2.523-.496 3.79-.01.042-.01.084-.021.148H33.74c.031-.287.063-.574.105-.862.19-1.458.39-2.916.56-4.374.105-.905.042-1.81-.37-2.65-.433-.894-1.172-1.373-2.143-1.469-2.006-.213-3.907 1.192-4.34 3.172-.285 1.309.159 2.565 1.204 3.267 1.014.681 2.09.681 3.189.245.549-.234 1.024-.585 1.478-1.064M44.353 17.802c-.116.902-.232 1.805-.359 2.707h-1.628c-.433 0-.834.287-.972.7-.053.16-.074.33-.095.5-.275 2.08-.55 4.162-.814 6.243-.074.52-.137 1.05-.2 1.582h-2.706c.053-.404.095-.786.148-1.179.18-1.348.348-2.697.528-4.045.159-1.168.296-2.336.476-3.504.243-1.56 1.786-2.94 3.35-3.015.75-.021 1.5.01 2.272.01M56.969 28.338v1.185h-.221v-1.185h-.433v-.18h1.086v.18h-.432zm1.983 1.196V28.39h-.01l-.454 1.144h-.148l-.443-1.144h-.01v1.144h-.222v-1.376h.348l.411 1.048.401-1.048h.348v1.376h-.221zM16.437 14.436h-1.11l-.357.701h-.785l1.728-3.281h.755l.586 3.281h-.722l-.095-.7zm-.765-.658h.67l-.156-1.02-.514 1.02zM19.412 11.856h1.043c.548 0 .928.329.928.892 0 .711-.496 1.19-1.202 1.19h-.453l-.211 1.2h-.675l.57-3.282zm.97.658h-.401l-.137.754h.4c.243 0 .433-.159.433-.456 0-.192-.127-.298-.296-.298M24.482 14.436h-1.11l-.357.701h-.785l1.728-3.281h.755l.586 3.281h-.722l-.095-.7zm-.775-.658h.67l-.157-1.02-.513 1.02zM28.965 15.073c-.236.106-.495.17-.753.17-.882 0-1.43-.648-1.43-1.465 0-1.04.892-1.922 1.947-1.922.269 0 .505.064.699.17l-.097.786c-.15-.16-.377-.266-.678-.266-.602 0-1.14.542-1.14 1.168 0 .478.301.85.785.85.29 0 .581-.107.764-.266l-.097.775zM33.158 13.81L31.731 13.81 31.496 15.137 30.804 15.137 31.39 11.856 32.072 11.856 31.848 13.151 33.275 13.151 33.51 11.856 34.191 11.856 33.616 15.137 32.924 15.137zM35.567 15.137L36.16 11.856 38.002 11.856 37.884 12.514 36.731 12.514 36.623 13.151 37.679 13.151 37.56 13.81 36.505 13.81 36.386 14.479 37.539 14.479 37.42 15.137z" transform="translate(42 9)"></path></g></svg> 