<?xml version="1.0" encoding="UTF-8"?> <svg xmlns="http://www.w3.org/2000/svg" width="140" height="104" viewBox="0 0 140 104"><path fill="#FFF" d="M46.69 65.77c.76 0 1.52.152 2.203.456.683.304 1.214.683 1.746 1.215.531.531.911 1.215 1.139 1.974.076.91.228 1.746.228 2.581 0 .911-.152 1.823-.456 2.658-.304.759-.683 1.518-1.215 2.126-1.063 1.214-2.581 1.898-4.176 1.898-.38 0-.683 0-1.063-.076-.303-.076-.607-.152-.91-.304-.305-.152-.608-.38-.836-.607l-.911-.911v7.744H39.25V66.15h3.189v1.746c.531-.683 1.139-1.215 1.898-1.594.76-.38 1.519-.532 2.354-.532zm-12.755.152c.608 0 1.29.076 1.898.228.608.152 1.14.456 1.67.76l-.986 1.518c-.608-.456-1.291-.684-2.05-.684-.38 0-.76.076-1.063.304-.304.228-.456.532-.456.835 0 .304.152.684.38.911.38.38.835.76 1.29 1.063.608.456 1.14.836 1.519 1.215.38.304.683.608.987.987.228.304.38.608.456.911.151.38.227.76.151 1.063 0 .532-.075 1.063-.303 1.519-.228.455-.532.835-.987 1.139-.456.303-.911.607-1.443.759-.607.152-1.215.304-1.822.304-.76 0-1.443-.076-2.126-.304-.683-.228-1.367-.607-1.898-1.139l1.063-1.746c.455.38.91.683 1.366.91.304.229.76.38 1.215.305.456 0 .911-.152 1.291-.38.304-.304.532-.683.456-1.063 0-.152 0-.38-.076-.531-.076-.228-.152-.38-.304-.532-.228-.228-.456-.38-.683-.607-.304-.228-.608-.456-1.063-.76-.304-.227-.684-.531-.987-.759-.304-.228-.608-.455-.836-.76-.227-.303-.455-.607-.607-.91-.152-.38-.228-.76-.228-1.215 0-.456.076-.987.304-1.367.228-.38.531-.759.911-1.063.38-.303.835-.531 1.29-.683.532-.152 1.14-.228 1.671-.228zm28.017.228v6.985c0 .456 0 .987.076 1.443.076.303.152.607.303.91.38.684 1.215 1.14 1.975 1.064 1.063.076 2.125-.532 2.505-1.519.152-.303.228-.607.228-.835.076-.455.076-.911.076-1.367V66.15h3.189v12.3H67.19v-1.67c-.532.607-1.215 1.139-1.898 1.518-.684.304-1.519.456-2.278.456-.835 0-1.67-.152-2.43-.608-.683-.38-1.139-.987-1.442-1.67-.076-.152-.152-.38-.152-.532-.076-.227-.076-.455-.152-.683 0-.304-.076-.607-.076-.835V66.15h3.189zm27.94-5.694v10.553h.304L94.524 66l2.43 1.062-4.1 4.404 4.859 6.15-2.961 1.063-4.86-6.758v6.53h-3.264V60.456h3.265zm-33.255 0V78.45h-3.189V60.456h3.189zm23.461 5.39c.835 0 1.67.152 2.43.608.683.38 1.139.987 1.442 1.67.076.152.152.38.152.532.076.227.076.455.152.683 0 .304.076.607.076.835v8.2l-3.189.076v-7.061c0-.456 0-.987-.076-1.443-.076-.303-.152-.607-.304-.91-.38-.684-1.214-1.14-1.974-1.064-.531 0-1.063.152-1.594.38-.456.228-.76.683-.987 1.139-.152.303-.228.607-.228.91-.076.456-.076.912-.076 1.368v6.605h-3.265V66.15h3.265v1.67c.532-.607 1.215-1.139 1.898-1.518.684-.304 1.519-.456 2.278-.456zm20.424.456l9.795 4.935v1.974l-9.795 4.86v-2.127l7.593-3.72-7.593-3.72v-2.202zm-54.97 1.518c-.911 0-1.822.456-2.354 1.215-.607.987-.911 2.202-.835 3.34-.076 1.14.228 2.279.835 3.266.532.759 1.367 1.215 2.354 1.139.531 0 1.063-.152 1.442-.456.38-.304.684-.683.912-1.139.227-.455.38-.987.531-1.518.076-.532.152-.987.152-1.519.076-1.139-.228-2.202-.835-3.189-.456-.759-1.291-1.215-2.202-1.139zm55.957-4.707c.608 0 1.063.531 1.063 1.139 0 .607-.531 1.063-1.139 1.063-.607 0-1.063-.456-1.063-1.063 0-.567.397-1.068 1.006-1.132l.133-.007zm0 .152c-.493 0-.856.393-.905.813l-.006.098c0 .455.38.911.911.911.423 0 .846-.327.905-.8l.006-.111c0-.456-.455-.835-.91-.911zm-.076.38c.152 0 .228 0 .38.075.076.076.152.152.076.228 0 .13-.056.26-.167.295l-.06.009c.151 0 .227.152.227.304 0 .075 0 .227.076.303h-.228c-.076-.076-.076-.228-.076-.303 0-.127-.053-.2-.158-.222l-.07-.006h-.152v.531h-.227v-1.215h.38zm0 .151h-.152v.38h.152c.152 0 .304-.076.304-.228 0-.152-.076-.152-.304-.152z" opacity="1"></path></svg> 