<?xml version="1.0" encoding="UTF-8"?> <svg xmlns="http://www.w3.org/2000/svg" width="140" height="104" viewBox="0 0 140 104"><path fill="#FFF" d="M24.602 52c.35 1.453 1.187 3.193 2.294 5.118l-.117-.205c.755.117 1.397.218 1.995.328 7.013 1.296 9.37 3.516 10.897 5.934l.105.163c-2.74.384-6.805 1.395-10.292 2.443.483 2.584.232 5.27-.107 7.273-.523 3.055-2.459 6.673-2.6 6.927-.01.012-.076.137-.087.159h-.88c-1.763-.095-4.513-.489-5.947-.902-1.471-.425-2.75-.854-3.97-1.718-1.105-.78-2.155-1.877-1.834-3.253.213-.929 1.08-1.955 1.861-2.612l.046-.034c.152-.127.302-.251.449-.367 3.073-2.556 6.144-5.717 6.144-9.128 0-3.711-2.303-4.78-3.905-6.603-.138-.14-.308-.394-.09-.652l-.008.017c.85-1.118 5.245-2.646 6.046-2.888zm2.932 25.186c-2.484 1.19-3.937 1.42-6.14 1.93 1.59.337 3.964.702 5.122.837.216-.468.615-1.558 1.018-2.767zM57.12 63.091c1.78 0 3.225.61 4.338 1.834 1.112 1.22 1.666 2.82 1.666 4.793 0 1.808-.407 3.306-1.227 4.492-.817 1.186-1.98 1.945-3.483 2.283l3.064 3.187h-2.129l-2.585-2.996c-1.827-.01-3.297-.64-4.407-1.877-1.108-1.225-1.661-2.814-1.661-4.768 0-2.04.53-3.685 1.596-4.933 1.147-1.342 2.758-2.015 4.828-2.015zM22.982 75.947c-.62.98-1.36 1.994-2.241 3.019.067.017.138.033.211.05l.037-.012c.257-.075 5.542-1.58 6.556-1.972-.278-.03-2.422-.192-4.563-1.085zm-.725.019c-1.462.47-4.458 1.256-5.144 1.449.897.612 1.575.895 3.064 1.394l.263.08c.269-.529.997-1.583 1.817-2.923zm-2.656-2.43c-.955 1.168-2.005 2.337-2.872 3.611.06.044.118.082.173.121 1.663-.564 3.407-1.189 5.088-1.793-.577-.312-1.13-.685-1.619-1.132-.277-.25-.535-.522-.77-.808zm-.521-.212c-1.444.356-2.912.673-4.29 1.012.05 1.01.929 2.023 1.74 2.66.55-.906 1.48-2.076 2.55-3.672zm9.654-.354c-.857.57-3.926 1.96-5.4 2.587 1.346.652 2.883 1.085 4.297 1.326.425-1.285.832-2.65 1.022-3.51.029-.13.053-.263.08-.403zm17.63-9.88c1.18 0 2.04.155 2.586.468v1.724c-.691-.538-1.58-.808-2.67-.808-.765 0-1.38.196-1.83.589-.428.365-.643.832-.643 1.4 0 .613.196 1.121.588 1.533.331.34.987.784 1.97 1.327 1.075.593 1.85 1.165 2.329 1.715.536.617.805 1.317.805 2.1 0 1.019-.338 1.846-1.015 2.474-.772.714-1.888 1.072-3.348 1.072-.488 0-1.032-.074-1.63-.228-.602-.153-1.046-.327-1.331-.522v-1.826c.409.366.923.659 1.54.88.576.202 1.118.304 1.632.304 1.687 0 2.528-.658 2.528-1.972 0-.568-.212-1.073-.64-1.512-.379-.384-1.085-.872-2.117-1.456-1.08-.611-1.84-1.2-2.274-1.763-.433-.56-.65-1.223-.65-1.988 0-1.007.368-1.84 1.107-2.492.777-.68 1.8-1.018 3.064-1.018zm66.197 3.751c1.271 0 2.243.423 2.916 1.274.637.793.952 1.873.952 3.234v.789h-6.624c.02 1.051.303 1.857.84 2.42.539.56 1.278.845 2.22.845 1.055 0 2.026-.343 2.903-1.029v1.401c-.817.607-1.904.909-3.262.909-1.285 0-2.301-.403-3.053-1.21-.807-.856-1.209-2.081-1.209-3.675 0-1.508.437-2.73 1.311-3.659.819-.866 1.82-1.299 3.006-1.299zm-24.259 0c1.27 0 2.244.423 2.912 1.274.636.793.955 1.873.955 3.234v.789h-6.627c.025 1.051.306 1.857.845 2.42.535.56 1.276.845 2.217.845 1.058 0 2.025-.343 2.905-1.029v1.401c-.818.607-1.906.909-3.266.909-1.282 0-2.298-.403-3.05-1.21-.805-.856-1.21-2.081-1.21-3.675 0-1.508.436-2.73 1.31-3.659.821-.866 1.824-1.299 3.009-1.299zm-8.594-3.75c1.18 0 2.04.154 2.583.467v1.724c-.689-.538-1.58-.808-2.664-.808-.77 0-1.386.196-1.833.589-.43.365-.643.832-.643 1.4 0 .613.195 1.121.584 1.533.331.34.987.784 1.973 1.327 1.074.593 1.852 1.165 2.327 1.715.536.617.806 1.317.806 2.1 0 1.019-.339 1.846-1.015 2.474-.771.714-1.887 1.072-3.346 1.072-.49 0-1.034-.074-1.632-.228-.6-.153-1.044-.327-1.33-.522v-1.826c.41.366.921.659 1.54.88.574.202 1.117.304 1.63.304 1.688 0 2.53-.658 2.53-1.972 0-.568-.214-1.073-.641-1.512-.38-.384-1.085-.872-2.118-1.456-1.081-.611-1.839-1.2-2.273-1.763-.433-.56-.65-1.223-.65-1.988 0-1.007.369-1.84 1.109-2.492.778-.68 1.798-1.018 3.063-1.018zm-13.02.219v11.75h5.28v1.396h-6.82V63.31h1.54zm31.115 3.594c.398 0 .695.043.898.127v1.56c-.263-.202-.644-.303-1.145-.303-.611 0-1.125.273-1.543.825-.469.617-.704 1.47-.704 2.558v4.785h-1.503V67.07h1.503v1.933h.039c.217-.685.557-1.212 1.013-1.587.43-.34.912-.512 1.442-.512zm24.26 0c.396 0 .698.043.9.127v1.56c-.264-.202-.647-.303-1.148-.303-.611 0-1.124.273-1.54.825-.47.617-.705 1.47-.705 2.558v4.785h-1.504V67.07h1.504v1.933h.037c.219-.685.558-1.212 1.016-1.587.429-.34.908-.512 1.44-.512zm-21.265.164l2.38 6.81c.167.49.272.933.313 1.323h.046c.053-.465.152-.89.293-1.277l2.503-6.856h1.575l-3.739 9.388h-1.486l-3.545-9.388h1.66zm-43.83-2.594c-1.374 0-2.498.503-3.36 1.503-.866 1.005-1.3 2.31-1.3 3.923 0 1.642.43 2.955 1.286 3.943.831.965 1.917 1.447 3.26 1.447 1.417 0 2.54-.454 3.366-1.365.861-.948 1.292-2.283 1.292-4.005 0-1.754-.415-3.113-1.247-4.07-.8-.918-1.9-1.376-3.298-1.376zm-32.416 7.052c-.668.3-1.394.592-2.166.855-.735.254-1.502.476-2.282.683.441.579 1.02 1.1 1.651 1.564.292.21.606.41.933.595.004-.003.012-.005.015-.007.66-1.124 1.336-2.391 1.85-3.69zm.648-.214c-.359 1.087-.872 2.294-1.585 3.57 1.364-.504 4.286-1.618 5.162-2.143-.484-.11-2.065-.499-3.577-1.427zm-6.57-1.206l-.162.087c-.394.212-.802.44-1.229.686-1.175.702-2.222 2-2.423 3.035-.01.048-.016.097-.02.147 1.438-.386 2.965-.837 4.292-1.243-.34-.562-.555-1.157-.56-1.758-.003-.269.022-.536.074-.794.012-.059.018-.112.028-.16zm10.468-1.22c-.152.158-1.484 1.144-3.533 2.162.986.647 2.08 1.208 3.24 1.529.184-1.064.304-2.331.293-3.69zm-7.27-.322l-.11.047c-.756.33-1.525.689-2.35 1.11-.28.997-.119 1.894.312 2.69.023-.039.05-.074.074-.115.412-.653 1.383-2.192 2.074-3.732zm.829-.352l-.153.063c-.48 1.404-1.529 3.42-2.003 4.097.559-.176 1.037-.333 1.4-.453 1.025-.34 1.935-.673 2.737-.996-.684-.546-1.665-1.573-2.028-2.855l.047.144zm65.627-.09c-.712 0-1.311.254-1.806.757-.496.505-.803 1.164-.918 1.985h5.069c-.012-.857-.213-1.523-.605-1.998-.407-.495-.99-.744-1.74-.744zm24.26 0c-.71 0-1.311.254-1.808.757-.493.505-.8 1.164-.915 1.985h5.07c-.014-.857-.217-1.523-.605-1.998-.412-.495-.992-.744-1.743-.744zm-86.535-1.213l-.07.024c.048.784-.064 2.068-.52 3.67 1.661-.71 2.832-1.37 3.658-1.98-.64-.244-2.446-1.3-3.144-1.765l.076.05zm-.595.215l-.206.077-.386.147c-.589.23-1.154.452-1.713.68l-.028.01c.274.91 1.015 1.843 1.824 2.52.41-1.268.63-2.53.488-3.674l.02.24zm99.06-.34c.268 0 .492.087.673.263.186.178.28.405.28.678 0 .268-.094.492-.28.674-.182.18-.412.272-.681.272-.272 0-.5-.086-.68-.265-.181-.178-.272-.405-.272-.675 0-.266.093-.491.278-.672.182-.183.408-.275.682-.275zm-100.4-1.565l-.23.284c-.867 1.043-2.002 2.087-3.455 3.098l.388-.197c1.172-.581 2.413-1.076 3.932-1.66-.047-.47-.236-1.017-.636-1.525zm-.653.164l-.32.208c-.834.546-1.513 1.026-2.011 1.391-.39.532-.852 1.066-1.385 1.603l.409-.255c1.34-.866 2.443-1.873 3.307-2.947zm101.05 1.503c-.243 0-.442.086-.604.245-.16.162-.238.362-.238.598 0 .24.082.442.245.607.164.16.361.239.596.239s.43-.081.596-.244c.165-.16.248-.362.248-.602 0-.238-.083-.442-.245-.6-.165-.16-.364-.243-.599-.243zm-95.602-.917c-.865.266-1.686.533-2.43.79.627.463 1.928 1.296 2.65 1.671-.021-.878-.104-1.794-.258-2.716l.038.255zm95.568 1.138c.153 0 .268.037.345.105.067.057.1.133.1.228 0 .082-.029.153-.08.214-.057.06-.131.097-.23.118v.004c.07.015.136.09.204.223l.157.327h-.206l-.13-.292c-.069-.147-.141-.22-.22-.22h-.113v.512h-.169v-1.219h.342zm-.021.147h-.152v.416h.185c.167 0 .251-.07.251-.208 0-.07-.02-.122-.06-.153-.043-.035-.117-.055-.224-.055zm-96.417-4.462l-.548.275c-1.081.552-2.066 1.11-2.936 1.636.293.487.495 1.117.49 1.928 1.23-1.423 2.223-2.708 2.994-3.84zm.88-.21l-.183.28c-.756 1.125-1.8 2.334-3.22 3.588l.592-.218c1.957-.712 3.74-1.255 5.324-1.675-.747-.737-1.609-1.398-2.513-1.976zm-6.246 1.527l-.098.308c-.211.615-.512 1.226-.928 1.818l.296-.237c.505-.401 1.069-.832 1.692-1.271-.263-.231-.584-.44-.962-.618zm12.54-4.072l-.666.19c-1.763.52-3.411 1.15-4.917 1.817.841.63 1.607 1.408 2.233 2.395l.25-.321c1.48-1.887 2.481-3.021 3.1-4.081zm.325.079l-.149.316c-.789 1.636-1.537 2.52-3 3.88l.377-.092c3.48-.83 5.796-1.006 6.626-1.053-.072-.048-.134-.1-.169-.14-.639-.745-1.892-1.93-3.685-2.911zm-9.988 1.079l-.239.184c-1.09.849-1.874 1.57-2.293 1.977.333.149.819.436 1.232.924l.203-.337c.523-.902.89-1.832 1.097-2.748zm.538-.11l-.067.323c-.174.757-.475 1.543-.927 2.345l.46-.281c.78-.468 1.631-.932 2.558-1.377-.676-.385-1.362-.72-2.024-1.01zm-3.252-1.06l.052.335c.112.79.146 1.645.038 2.516l.323-.317c.743-.72 1.404-1.31 2.02-1.806-.92-.354-1.765-.597-2.433-.728zm34.494-1.741c.508 0 .898.157 1.183.466.283.313.427.746.427 1.298 0 .539-.154.973-.458 1.3-.304.327-.718.488-1.23.488s-.916-.161-1.215-.488c-.289-.317-.437-.73-.437-1.247 0-.59.167-1.046.497-1.37.31-.3.718-.447 1.233-.447zm6.563 0c.507 0 .902.157 1.185.466.282.313.426.746.426 1.298 0 .539-.153.973-.46 1.3-.303.327-.714.488-1.23.488-.51 0-.912-.161-1.212-.488-.292-.317-.436-.73-.436-1.247 0-.59.165-1.046.495-1.37.308-.3.717-.447 1.232-.447zm-11.903 0c.297 0 .558.056.787.17v.556c-.253-.178-.523-.262-.808-.262-.345 0-.627.116-.845.358-.229.245-.342.576-.342.988 0 .393.105.706.314.934.208.23.488.347.836.347.298 0 .575-.098.837-.293v.515c-.262.16-.573.239-.93.239-.485 0-.877-.16-1.176-.482-.292-.314-.439-.718-.439-1.213 0-.556.161-1.006.48-1.345.32-.342.748-.512 1.286-.512zm8.76 0c.266 0 .508.05.723.158v.544c-.223-.16-.476-.24-.766-.24-.182 0-.326.042-.436.133-.105.087-.161.202-.161.341 0 .15.048.265.136.349.084.079.253.172.51.282.29.121.497.245.626.373.165.164.25.373.25.624 0 .278-.106.506-.313.689-.228.202-.538.299-.93.299-.322 0-.602-.068-.842-.203v-.583c.266.215.559.325.881.325.43 0 .646-.159.646-.473 0-.135-.049-.245-.142-.33-.094-.087-.28-.19-.556-.311-.287-.127-.486-.252-.607-.383-.142-.156-.216-.362-.216-.614 0-.284.113-.516.337-.704.22-.186.507-.276.86-.276zm8.432-.923v1.003h.854v.46h-.854v1.912c0 .23.038.39.115.487.08.097.208.144.386.144.137 0 .252-.034.353-.108v.463c-.128.073-.299.108-.508.108-.59 0-.887-.33-.887-1v-2.006h-.583v-.46h.583v-.827c.174-.057.353-.113.541-.176zm-25.618-.353l1.455 3.31c.11.251.182.437.215.568h.024c.094-.26.171-.452.227-.582l1.487-3.296h.698v4.746h-.556v-3.188c0-.251.015-.558.048-.92h-.015c-.052.213-.098.366-.142.459l-1.62 3.649h-.271l-1.62-3.622c-.046-.101-.093-.264-.144-.485h-.01c.014.162.022.412.024.75l.001 3.357h-.538v-4.746h.737zm5.821 1.356v3.39h-.544v-3.39h.544zm18.118-1.7c.164 0 .297.018.392.059v.489c-.106-.06-.228-.09-.361-.09-.377 0-.568.24-.568.721v.52h.796v.461h-.796v2.929h-.544v-2.929h-.577v-.46h.577v-.55c0-.374.116-.665.347-.874.199-.184.441-.277.734-.277zm-12.472 1.641c.145 0 .252.015.326.047v.561c-.095-.07-.234-.11-.415-.11-.22 0-.405.101-.555.3-.17.222-.253.531-.253.922v1.728h-.545v-3.387h.545v.697h.01c.08-.246.203-.437.37-.573.154-.122.325-.185.517-.185zm-24.838-.096l-.5.27c-1.152.632-2.19 1.301-3.092 1.94.773.3 1.533.657 2.256 1.1l.16-.277c.728-1.274 1.107-2.291 1.176-3.033zm.304.054l-.02.23c-.093.854-.366 1.85-.913 2.956l.535-.216c1.445-.568 3.044-1.066 4.807-1.443-.383-.182-.786-.358-1.207-.513-1.047-.414-2.116-.74-3.202-1.014zm26.793.482c-.338 0-.607.111-.812.331-.213.237-.32.57-.32 1.004 0 .407.103.724.308.95.204.23.48.345.824.345.358 0 .63-.117.818-.348.183-.225.275-.545.275-.961 0-.434-.098-.765-.295-.994-.19-.218-.455-.327-.798-.327zm6.565 0c-.34 0-.61.111-.814.331-.21.237-.319.57-.319 1.004 0 .407.104.724.307.95.204.23.48.345.826.345.356 0 .628-.117.816-.348.185-.225.275-.545.275-.961 0-.434-.099-.765-.295-.994-.19-.218-.454-.327-.796-.327zm-38.468-1.468l-.313.234c-.821.62-1.551 1.208-2.06 1.8.87.235 1.79.483 2.709.792l.02-.326c.039-.868-.07-1.708-.332-2.496h-.013l-.011-.004zm.303.05l.113.265c.284.72.434 1.548.403 2.447l.397-.274c1.048-.7 2.027-1.18 3.159-1.676-1.345-.307-2.707-.54-4.072-.762zm45.731.322c.267 0 .49.09.672.261.187.181.279.409.279.681 0 .268-.092.492-.277.673-.184.185-.412.275-.682.275-.273 0-.5-.088-.68-.265-.18-.182-.271-.403-.271-.678 0-.262.091-.488.276-.67.183-.185.41-.277.683-.277zm-.002.108c-.242 0-.444.078-.605.24-.16.164-.238.362-.238.598 0 .244.083.446.247.608.161.157.36.239.596.239.233 0 .43-.082.593-.24.166-.163.248-.366.248-.607 0-.239-.082-.44-.246-.6-.165-.16-.361-.238-.595-.238zm-.034.22c.15 0 .267.035.343.102.067.059.103.131.103.228 0 .081-.03.154-.084.21-.054.063-.13.1-.228.121v.003c.07.02.134.092.203.228l.159.324h-.207l-.132-.294c-.067-.146-.137-.219-.217-.219h-.111v.513h-.171v-1.215h.342zM21.68 56.582l.05.103c.214.446.575 1.286.852 2.343l.151-.172c.647-.69 1.78-1.37 2.296-1.63-.771-.128-2.098-.361-3.349-.644zm-2.083-.573l.286.22c.938.75 1.702 1.63 2.228 2.606l-.097-.356c-.167-.603-.37-1.255-.618-1.961-.667-.161-1.301-.33-1.8-.51zm51.728 2.116h-.15v.41h.182c.169 0 .25-.067.25-.205 0-.072-.018-.123-.059-.152-.043-.037-.119-.053-.223-.053zM49.08 56.8c.1 0 .184.034.252.102.07.067.106.148.106.248s-.037.184-.106.252c-.068.07-.153.104-.252.104-.095 0-.177-.034-.25-.102-.07-.064-.105-.151-.105-.254 0-.1.034-.18.105-.248.073-.068.155-.102.25-.102zm-23.744-1.55c-.552.49-1.068.864-1.794 1.238l.128-.068c.953.159 1.764.286 2.477.396-.323-.555-.588-1.07-.811-1.567zm-4.906-1.113s-.007.002-.013.007c.384.34 1.558 1.495 2.186 2.095l.417.071c.92-.596 1.764-1.008 2.237-1.24-.002-.01-.01-.024-.01-.024-1.39-.084-4.037-.606-4.817-.909zm-.177.117c-.163.111-.313.223-.444.334-.245.205-.606.562-.601.903h-.001l.042.016c.653.236 1.627.43 2.392.565l.09.016c-.496-.593-1.165-1.445-1.478-1.834zm4.263-2.037c-.25.106-2.323.86-3.815 1.753.866.107 3.381.481 4.414.749-.331-.85-.524-1.66-.6-2.502z" opacity="1"></path></svg> 