<?xml version="1.0" encoding="UTF-8"?> <svg xmlns="http://www.w3.org/2000/svg" width="44" height="44" viewBox="0 0 44 44" fill="none"><path fill-rule="evenodd" clip-rule="evenodd" d="M22 12.8333C24.5313 12.8333 26.5833 10.7813 26.5833 8.24999C26.5833 5.71868 24.5313 3.66666 22 3.66666C19.4687 3.66666 17.4167 5.71868 17.4167 8.24999C17.4167 10.7813 19.4687 12.8333 22 12.8333Z" fill="white"></path><path fill-rule="evenodd" clip-rule="evenodd" d="M8.24999 12.8333C10.7813 12.8333 12.8333 10.7813 12.8333 8.24999C12.8333 5.71868 10.7813 3.66666 8.24999 3.66666C5.71868 3.66666 3.66666 5.71868 3.66666 8.24999C3.66666 10.7813 5.71868 12.8333 8.24999 12.8333Z" fill="white"></path><path fill-rule="evenodd" clip-rule="evenodd" d="M35.75 12.8333C38.2813 12.8333 40.3333 10.7813 40.3333 8.24999C40.3333 5.71868 38.2813 3.66666 35.75 3.66666C33.2187 3.66666 31.1667 5.71868 31.1667 8.24999C31.1667 10.7813 33.2187 12.8333 35.75 12.8333Z" fill="white"></path><path fill-rule="evenodd" clip-rule="evenodd" d="M22 26.5833C24.5313 26.5833 26.5833 24.5313 26.5833 22C26.5833 19.4687 24.5313 17.4167 22 17.4167C19.4687 17.4167 17.4167 19.4687 17.4167 22C17.4167 24.5313 19.4687 26.5833 22 26.5833Z" fill="white"></path><path fill-rule="evenodd" clip-rule="evenodd" d="M8.24999 26.5833C10.7813 26.5833 12.8333 24.5313 12.8333 22C12.8333 19.4687 10.7813 17.4167 8.24999 17.4167C5.71868 17.4167 3.66666 19.4687 3.66666 22C3.66666 24.5313 5.71868 26.5833 8.24999 26.5833Z" fill="white"></path><path fill-rule="evenodd" clip-rule="evenodd" d="M35.75 26.5833C38.2813 26.5833 40.3333 24.5313 40.3333 22C40.3333 19.4687 38.2813 17.4167 35.75 17.4167C33.2187 17.4167 31.1667 19.4687 31.1667 22C31.1667 24.5313 33.2187 26.5833 35.75 26.5833Z" fill="white"></path><path fill-rule="evenodd" clip-rule="evenodd" d="M22 40.3333C24.5313 40.3333 26.5833 38.2813 26.5833 35.75C26.5833 33.2187 24.5313 31.1667 22 31.1667C19.4687 31.1667 17.4167 33.2187 17.4167 35.75C17.4167 38.2813 19.4687 40.3333 22 40.3333Z" fill="white"></path><path fill-rule="evenodd" clip-rule="evenodd" d="M8.24999 40.3333C10.7813 40.3333 12.8333 38.2813 12.8333 35.75C12.8333 33.2187 10.7813 31.1667 8.24999 31.1667C5.71868 31.1667 3.66666 33.2187 3.66666 35.75C3.66666 38.2813 5.71868 40.3333 8.24999 40.3333Z" fill="white"></path><path fill-rule="evenodd" clip-rule="evenodd" d="M35.75 40.3333C38.2813 40.3333 40.3333 38.2813 40.3333 35.75C40.3333 33.2187 38.2813 31.1667 35.75 31.1667C33.2187 31.1667 31.1667 33.2187 31.1667 35.75C31.1667 38.2813 33.2187 40.3333 35.75 40.3333Z" fill="white"></path></svg> 