<?xml version="1.0" encoding="UTF-8"?> <svg xmlns="http://www.w3.org/2000/svg" width="44" height="45" viewBox="0 0 44 45" fill="none"><g id="Group 3"><g id="Ico/application white Copy 2"><path id="Path 20" d="M22.1062 10.4067L16.1423 4.83587L16.0103 4.73143C15.3743 4.31044 14.4868 4.80504 14.5484 5.62262L15.1867 14.0971L3.0624 12.7028L2.89122 12.6974C2.06294 12.7426 1.664 13.8365 2.34901 14.4114L11.9394 22.4597L6.44492 27.8532L6.33467 27.981C5.91592 28.5591 6.25525 29.4246 6.99744 29.5115L13.7602 30.3014L9.09896 41.6534L9.04761 41.8122C8.84814 42.6516 9.80958 43.3535 10.5417 42.8066L21.2606 34.7973L22.7053 36.4999C24.3508 38.4057 24.9126 38.8799 25.4385 38.8799C26.3061 38.8799 26.6226 38.3002 28.3212 33.9528L39.4668 39.2009L39.6199 39.2588C40.4328 39.4929 41.1592 38.5551 40.6618 37.7891L34.0825 27.6585L41.4113 24.5812L41.5743 24.4943C42.1739 24.0977 42.1448 23.145 41.4568 22.8122L33.9511 19.1817L40.7117 5.996L40.7774 5.83856C41.0497 5.00052 40.1019 4.21574 39.3316 4.74813L29.6733 11.4232L28.2157 3.78436C28.0519 2.92591 26.9411 2.71065 26.4782 3.44763L22.1062 10.4067Z" fill="white"></path></g></g></svg> 