<?xml version="1.0" encoding="UTF-8"?> <svg xmlns="http://www.w3.org/2000/svg" width="44" height="43" viewBox="0 0 44 43" fill="none"><g id="Group 6"><g id="Ico/application white Copy 4"><g id="Group 3"><path id="Fill 1" fill-rule="evenodd" clip-rule="evenodd" d="M16.2151 2.00031C19.5011 2.00031 22.1651 4.6643 22.1651 7.9503C22.1651 10.0343 21.0941 11.8683 19.4721 12.9313L25.9951 29.4163C26.5601 29.2383 27.1611 29.1423 27.7851 29.1423C28.0721 29.1423 28.3541 29.1623 28.6301 29.2013L32.1871 23.9603C30.9091 22.8693 30.0991 21.2463 30.0991 19.4343C30.0991 16.1473 32.7631 13.4833 36.0491 13.4833C39.3361 13.4833 42.0001 16.1473 42.0001 19.4343C42.0001 22.7203 39.3361 25.3843 36.0491 25.3843C35.2521 25.3843 34.4921 25.2283 33.7971 24.9423L30.5041 29.7983C32.4231 30.7853 33.7361 32.7853 33.7361 35.0933C33.7361 38.3793 31.0711 41.0433 27.7851 41.0433C24.4991 41.0433 21.8351 38.3793 21.8351 35.0933C21.8351 33.0813 22.8331 31.3023 24.3611 30.2263L17.8151 13.6833C17.3061 13.8253 16.7691 13.9003 16.2151 13.9003C16.0271 13.9003 15.8401 13.8923 15.6561 13.8753L11.5791 22.3723C12.9911 23.4603 13.9011 25.1683 13.9011 27.0893C13.9011 30.3753 11.2361 33.0393 7.95012 33.0393C4.66412 33.0393 2.00012 30.3753 2.00012 27.0893C2.00012 23.8033 4.66412 21.1393 7.95012 21.1393C8.65912 21.1393 9.34012 21.2633 9.97012 21.4903L13.8411 13.4083C11.7361 12.4913 10.2641 10.3933 10.2641 7.9503C10.2641 4.6643 12.9281 2.00031 16.2151 2.00031Z" fill="white"></path></g></g></g></svg> 