<?xml version="1.0" encoding="UTF-8"?> <svg xmlns="http://www.w3.org/2000/svg" width="44" height="44" viewBox="0 0 44 44" fill="none"><g id="Group 5"><g id="Ico/application white Copy 3"><g id="avatar"><path id="Shape" d="M22.469 24.037C22.5094 24.037 22.5498 24.037 22.5983 24.037C22.6145 24.037 22.6307 24.037 22.6468 24.037C22.6711 24.037 22.7034 24.037 22.7277 24.037C25.0966 23.9965 27.0127 23.1638 28.4276 21.5711C31.5403 18.0622 31.0228 12.047 30.9662 11.473C30.7641 7.16374 28.7267 5.10208 27.045 4.13997C25.7919 3.42042 24.3285 3.03234 22.6954 3H22.6388C22.6307 3 22.6145 3 22.6064 3H22.5579C21.6605 3 19.898 3.14553 18.2082 4.10763C16.5104 5.06974 14.4407 7.1314 14.2385 11.473C14.1819 12.047 13.6645 18.0622 16.7772 21.5711C18.184 23.1638 20.1001 23.9965 22.469 24.037Z" fill="white"></path><path id="Path" d="M39.2128 34.0138C39.2128 34.0057 39.2128 33.9976 39.2128 33.9895C39.2128 33.9248 39.2048 33.8602 39.2048 33.7874C39.1563 32.1866 39.0511 28.4433 35.5423 27.2467C35.518 27.2386 35.4857 27.2305 35.4614 27.2224C31.8151 26.2927 28.7833 24.1906 28.751 24.1663C28.2578 23.8187 27.7588 26.074 22.6226 26.074C17.4863 26.074 16.9631 23.8106 16.47 24.1583C16.4376 24.1825 13.4219 26.2846 9.75946 27.2144C9.72713 27.2224 9.70287 27.2305 9.67862 27.2386C6.16976 28.4433 6.06465 32.1866 6.01614 33.7793C6.01614 33.8521 6.01614 33.9168 6.00806 33.9814C6.00806 33.9895 6.00806 33.9976 6.00806 34.0057C5.99997 34.4261 5.99189 36.5848 6.42039 37.6682C6.50124 37.8784 6.64677 38.0562 6.84081 38.1775C7.08335 38.3392 12.8964 42.0421 22.6226 42.0421C32.3487 42.0421 38.1618 38.3311 38.4044 38.1775C38.5903 38.0562 38.7439 37.8784 38.8248 37.6682C39.229 36.5929 39.2209 34.4342 39.2128 34.0138Z" fill="white"></path></g></g></g></svg> 