<?xml version="1.0" encoding="UTF-8"?> <svg xmlns="http://www.w3.org/2000/svg" width="44" height="45" viewBox="0 0 44 45" fill="none"><g id="Group 2 Copy"><g id="Ico/application white"><g id="ico/object/application"><path id="Shape Copy" fill-rule="evenodd" clip-rule="evenodd" d="M21.8271 3.01084C21.6876 3.0351 21.5527 3.08474 21.4279 3.15772L2.69625 13.4982C2.26895 13.7392 2.00003 14.2242 2.00003 14.754C2.00003 15.2838 2.26895 15.7688 2.69625 16.0098L7.65857 18.7565L2.69625 21.4885C2.26897 21.7295 2.00006 22.2146 2.00006 22.7443C2.00006 23.2741 2.26897 23.7591 2.69625 24.0001L7.65857 26.7468L2.69625 29.4788C2.26893 29.7198 2 30.2049 2 30.7346C2 31.2644 2.26893 31.7495 2.69625 31.9905L21.4279 42.3309C21.788 42.5301 22.212 42.5301 22.5721 42.3309L41.3037 31.9905C41.7311 31.7495 42 31.2644 42 30.7346C42 30.2049 41.7311 29.7198 41.3037 29.4788L36.3414 26.7468L41.3037 24.0001C41.731 23.7591 41.9999 23.2741 41.9999 22.7443C41.9999 22.2146 41.731 21.7295 41.3037 21.4885L36.3414 18.7565L41.3037 16.0098C41.7311 15.7688 42 15.2838 42 14.754C42 14.2242 41.7311 13.7392 41.3037 13.4982L22.5721 3.15772C22.3429 3.02679 22.0831 2.97558 21.8271 3.01084ZM10.5056 20.3281L21.4279 26.3502C21.788 26.5494 22.212 26.5494 22.5721 26.3502L33.4944 20.3281L37.8847 22.7517L22 31.5057L6.11534 22.7517L10.5056 20.3281ZM21.4279 34.3406L10.5056 28.3184L6.11534 30.742L22 39.4961L37.8847 30.742L33.4944 28.3184L22.5721 34.3406C22.212 34.5397 21.788 34.5397 21.4279 34.3406Z" fill="white"></path></g></g></g></svg> 