<?xml version="1.0" encoding="UTF-8"?> <svg xmlns="http://www.w3.org/2000/svg" width="44" height="45" viewBox="0 0 44 45" fill="none"><mask id="mask0" maskUnits="userSpaceOnUse" x="0" y="0" width="44" height="45"><rect width="44" height="45" transform="matrix(-1 0 0 1 44 0)" fill="white"></rect></mask><g mask="url(#mask0)"><path d="M26.9625 63.9075C26.9768 64.627 26.4058 65.2091 25.687 65.211L17.8899 65.2312C17.1699 65.233 16.6031 64.6524 16.6211 63.9342L17.7497 18.9844C17.7677 18.2673 17.2021 17.6875 16.4843 17.6894L11.7316 17.7017C9.03458 17.7087 6.67308 19.1664 5.38851 21.3344C5.11255 21.894 4.89034 21.7658 4.89219 21.0497L4.90072 17.7542C4.91121 13.6947 8.20927 10.397 12.2671 10.3865L16.6657 10.3751C17.3838 10.3733 17.9805 9.79095 17.9986 9.06951L18.0051 8.81193C18.0232 8.09231 18.6203 7.51014 19.3389 7.50828L24.5365 7.49484C25.2578 7.49297 25.8493 8.07356 25.8636 8.79161L25.8687 9.04915C25.8831 9.7683 26.4761 10.3498 27.1955 10.3479L31.9582 10.3356C32.6769 10.3337 33.261 9.75136 33.2629 9.02986L33.2635 8.77226C33.2654 8.0561 33.8489 7.47076 34.5668 7.4689L37.6484 7.46093C38.367 7.45907 38.9468 8.0396 38.945 8.75757L38.9181 19.1575C38.9162 19.8736 38.3327 20.459 37.6148 20.4608L34.5331 20.4688C33.8146 20.4707 33.2348 19.8901 33.2366 19.1722L33.2372 18.947C33.2391 18.2285 32.6597 17.6476 31.9395 17.6494L27.3424 17.6613C26.6234 17.6632 26.0521 18.2468 26.0664 18.9618L26.9625 63.9075Z" fill="#2492C3"></path></g></svg> 