<?xml version="1.0" encoding="UTF-8"?> <svg xmlns="http://www.w3.org/2000/svg" width="380" height="335" viewBox="0 0 380 335" fill="none"><path d="M192.314 65.036C191.696 64.6757 190.933 64.6728 190.312 65.0284L7.56825 169.741C4.90401 171.267 4.88221 175.102 7.52893 176.659L189.475 283.679C190.724 284.414 192.273 284.415 193.524 283.683L374.094 177.937C376.735 176.39 376.731 172.572 374.087 171.03L192.314 65.036Z" fill="black" fill-opacity="0.0482"></path><path d="M190.307 222.482L0 109.81V125.264L188.898 237.922L379.205 126.587V111.133L190.307 222.482Z" fill="#3BAB24"></path><path d="M379.205 111.216L190.124 0L0 109.89L190.307 222.803L379.205 111.216Z" fill="url(#paint0_linear)"></path><path d="M109.751 73.2066C101.59 76.7806 90.6275 81.5563 90.6275 91.105" stroke="#173D7A" stroke-opacity="0.1" stroke-width="5" stroke-linecap="round" stroke-dasharray="8 11"></path><path opacity="0.0567412" fill-rule="evenodd" clip-rule="evenodd" d="M103.408 141.848L78.9217 127.695C77.4197 126.827 77.608 125.308 79.3431 124.306L102.986 110.639C104.722 109.637 107.348 109.528 108.85 110.396L133.337 124.549C134.839 125.418 134.651 126.936 132.915 127.939L109.272 141.605C107.537 142.608 104.911 142.717 103.408 141.848Z" fill="#173D7A"></path><path opacity="0.092124" fill-rule="evenodd" clip-rule="evenodd" d="M134.753 123.19L95.4357 100.405C93.024 99.0079 93.3263 96.5641 96.1124 94.9499L134.074 72.9504C136.862 71.3362 141.078 71.1613 143.489 72.5588L182.806 95.3415C185.219 96.7404 184.917 99.1842 182.129 100.798L144.167 122.798C141.381 124.412 137.166 124.587 134.753 123.19Z" fill="#173D7A"></path><path fill-rule="evenodd" clip-rule="evenodd" d="M189.992 53.1043V37.5167L155.299 37.4968L143.307 30.5219C140.557 28.9221 135.749 29.1223 132.57 30.9703L121.384 37.4786L86.6589 37.4588V53.4881C86.5817 54.5734 87.1827 55.619 88.503 56.3866L133.343 82.4697C136.095 84.0711 140.902 83.8709 144.081 82.0213L187.376 56.8366C189.208 55.7695 190.094 54.3881 189.992 53.1043Z" fill="#4D4D4D"></path><path fill-rule="evenodd" clip-rule="evenodd" d="M138.326 29.4418C136.311 29.4898 134.222 30.0011 132.57 30.9625L121.384 37.4725L86.6589 37.4526V53.486C86.5818 54.5715 87.1811 55.6157 88.503 56.3852L133.344 82.4747C134.666 83.2442 136.464 83.5933 138.326 83.547V29.4418Z" fill="#4D4D4D"></path><path fill-rule="evenodd" clip-rule="evenodd" d="M133.556 82.813C135.974 83.8404 139.472 83.7839 142.301 82.7134V64.4536H133.556V82.813Z" fill="#8D8D8D"></path><mask id="mask0" maskUnits="userSpaceOnUse" x="86" y="6" width="104" height="61"><path fill-rule="evenodd" clip-rule="evenodd" d="M86.6538 6.83826H189.909V66.7264H86.6538V6.83826Z" fill="white"></path></mask><g mask="url(#mask0)"><path fill-rule="evenodd" clip-rule="evenodd" d="M133.304 65.649L88.5087 39.6688C85.761 38.0752 86.1055 35.2885 89.2797 33.4477L132.531 8.36064C135.707 6.51985 140.51 6.3188 143.258 7.91404L188.053 33.8943C190.803 35.4895 190.458 38.2762 187.282 40.117L144.031 65.2024C140.857 67.0448 136.053 67.2442 133.304 65.649Z" fill="#D4ECFF"></path></g><path fill-rule="evenodd" clip-rule="evenodd" d="M173.305 56.8004C173.305 57.7825 172.415 58.9783 171.316 59.4686C170.22 59.9603 169.33 59.5622 169.33 58.5787C169.33 57.5967 170.22 56.4023 171.316 55.9105C172.415 55.4202 173.305 55.8183 173.305 56.8004Z" fill="#D4ECFF"></path><path fill-rule="evenodd" clip-rule="evenodd" d="M178.87 53.6175C178.87 54.5996 177.981 55.7954 176.882 56.2857C175.784 56.7775 174.895 56.3793 174.895 55.3959C174.895 54.4138 175.784 53.2194 176.882 52.7277C177.981 52.2373 178.87 52.6355 178.87 53.6175Z" fill="#D4ECFF"></path><path fill-rule="evenodd" clip-rule="evenodd" d="M105.732 58.9158C105.732 61.0764 107.687 63.7071 110.106 64.7858C112.521 65.8676 114.477 64.9918 114.477 62.8281C114.477 60.6676 112.521 58.0399 110.106 56.9581C107.687 55.8794 105.732 56.7553 105.732 58.9158Z" fill="#6E8145"></path><path fill-rule="evenodd" clip-rule="evenodd" d="M184.435 50.4346C184.435 51.4166 183.547 52.6124 182.447 53.1027C181.35 53.5945 180.46 53.1963 180.46 52.2129C180.46 51.2308 181.35 50.0364 182.447 49.5447C183.547 49.0544 184.435 49.4525 184.435 50.4346Z" fill="#D4ECFF"></path><path fill-rule="evenodd" clip-rule="evenodd" d="M135.736 54.2467L108.835 38.3683C107.183 37.3932 107.389 35.6907 109.296 34.565L135.271 19.2311C137.178 18.1076 140.062 17.9849 141.713 18.9599L168.613 34.8383C170.264 35.8155 170.057 37.5181 168.15 38.6416L142.178 53.9755C140.268 55.099 137.386 55.2217 135.736 54.2467Z" fill="#93D500"></path><path fill-rule="evenodd" clip-rule="evenodd" d="M90.6272 40.3513L86.6587 37.7969V53.628C86.5825 54.6999 87.1875 55.7325 88.5203 56.4907L90.6272 57.69V40.3513Z" fill="#8D8D8D"></path><path fill-rule="evenodd" clip-rule="evenodd" d="M108.835 37.3561L108.91 37.399C109.037 37.3132 109.15 37.2233 109.298 37.1415L135.276 22.5811C137.181 21.5122 140.066 21.3957 141.717 22.3236L168.545 37.3582C170.068 36.2994 170.148 34.8606 168.623 34.0042L141.717 18.9267C140.066 18.0009 137.181 18.1174 135.276 19.1843L109.298 33.7446C107.388 34.8136 107.184 36.4302 108.835 37.3561Z" fill="#349401"></path><path fill-rule="evenodd" clip-rule="evenodd" d="M187.377 37.7151L144.084 62.3461C140.905 64.1534 136.099 64.3508 133.347 62.7846L88.5093 37.2766C87.8969 36.9272 87.4453 36.5178 87.1366 36.0745C86.1908 37.5744 86.621 39.2005 88.5093 40.2748L133.347 65.7843C136.099 67.349 140.905 67.1532 144.084 65.3459L187.377 40.7149C189.847 39.3105 190.597 37.3478 189.522 35.8075C189.09 36.4919 188.372 37.1488 187.377 37.7151Z" fill="white"></path><path fill-rule="evenodd" clip-rule="evenodd" d="M159.069 130.107L153.138 130.098C152.04 130.092 151.155 129.197 151.16 128.098C151.166 126.999 152.061 126.113 153.158 126.119C153.565 126.121 153.972 126.123 154.388 126.124L159.506 126.128C160.604 126.127 161.494 127.017 161.495 128.115C161.496 129.214 160.607 130.105 159.51 130.107L159.069 130.107ZM137.921 129.674C139.935 129.798 142.06 129.892 144.34 129.96C145.437 129.992 146.352 129.128 146.385 128.03C146.417 126.932 145.554 126.015 144.457 125.983C142.218 125.917 140.136 125.825 138.167 125.703C137.072 125.635 136.129 126.468 136.061 127.565C135.993 128.661 136.826 129.606 137.921 129.674ZM129.069 128.82C126.767 128.501 124.626 128.113 122.633 127.648C121.564 127.398 120.9 126.329 121.149 125.259C121.399 124.189 122.467 123.524 123.536 123.773C125.405 124.21 127.427 124.576 129.614 124.879C130.701 125.029 131.46 126.034 131.31 127.122C131.16 128.21 130.156 128.97 129.069 128.82ZM108.174 121.788C109.982 122.78 111.917 123.752 113.983 124.704C114.98 125.164 116.161 124.727 116.62 123.729C117.079 122.731 116.643 121.55 115.646 121.09C113.662 120.176 111.809 119.245 110.085 118.299C109.122 117.771 107.914 118.124 107.387 119.087C106.859 120.051 107.212 121.26 108.174 121.788ZM100.546 116.939C98.6454 115.522 96.9676 114.071 95.5022 112.585C94.7309 111.804 94.7387 110.544 95.5197 109.772C96.3006 109 97.559 109.008 98.3303 109.79C99.6514 111.129 101.178 112.448 102.921 113.748C103.801 114.405 103.983 115.651 103.327 116.532C102.672 117.413 101.426 117.595 100.546 116.939ZM87.8222 98.4361C88.2023 100.686 88.9079 102.883 89.9855 105.042C90.476 106.025 91.6696 106.424 92.6516 105.933C93.6335 105.442 94.032 104.247 93.5415 103.265C92.642 101.462 92.057 99.6405 91.7415 97.7727C91.5584 96.6894 90.5327 95.9597 89.4504 96.1429C88.3682 96.3261 87.6392 97.3528 87.8222 98.4361ZM88.6927 83.2687L88.7008 82.9908C88.7431 81.893 89.6665 81.0373 90.7633 81.0796C91.8602 81.122 92.715 82.0463 92.6727 83.1442C92.6675 83.2791 92.6649 83.4137 92.6648 83.547L92.6622 83.773C92.6482 84.3827 92.5783 85.0541 92.454 85.8881L92.4307 86.0417C92.399 86.2488 92.3639 86.4671 92.3221 86.7191L91.9062 89.1984L91.8335 89.6733C91.6718 90.7599 90.6606 91.5097 89.5749 91.3478C88.4893 91.186 87.7403 90.1738 87.902 89.0872C87.939 88.8379 87.9782 88.5863 88.021 88.3205L88.4553 85.7076C88.6347 84.6123 88.6773 84.2786 88.6871 83.9514L88.6927 83.2687ZM96.0409 68.4879C94.3765 70.1881 92.9457 71.9675 91.8017 73.7897C91.2177 74.72 91.4977 75.948 92.4271 76.5325C93.3565 77.117 94.5834 76.8368 95.1673 75.9065C96.1528 74.3368 97.4063 72.7778 98.88 71.2725C99.6482 70.4877 99.6355 69.2282 98.8515 68.4593C98.0675 67.6904 96.8092 67.7032 96.0409 68.4879ZM109.004 59.4495C107.098 60.2841 105.095 61.3841 103.134 62.6764C102.218 63.2807 101.964 64.5144 102.568 65.432C103.172 66.3495 104.404 66.6034 105.321 65.9991C107.097 64.8279 108.903 63.8363 110.597 63.0945C111.603 62.6542 112.061 61.4812 111.621 60.4746C111.181 59.4681 110.01 59.0091 109.004 59.4495ZM168.293 130.072C170.445 130.039 172.583 129.979 174.703 129.892C175.799 129.847 176.652 128.92 176.607 127.823C176.562 126.725 175.636 125.872 174.539 125.917C172.454 126.002 170.35 126.062 168.232 126.094C167.135 126.111 166.259 127.015 166.276 128.114C166.293 129.212 167.196 130.089 168.293 130.072ZM189.899 128.773C187.802 128.999 185.67 129.198 183.509 129.367C182.414 129.453 181.458 128.635 181.372 127.54C181.286 126.444 182.104 125.487 183.198 125.401C185.321 125.234 187.414 125.039 189.473 124.817C190.564 124.699 191.544 125.489 191.662 126.582C191.779 127.674 190.99 128.655 189.899 128.773Z" fill="#FF8700"></path><path fill-rule="evenodd" clip-rule="evenodd" d="M176.17 146.84C174.034 146.507 171.927 146.149 169.848 145.768C168.768 145.57 168.053 144.533 168.251 143.453C168.449 142.372 169.484 141.656 170.564 141.854C172.609 142.229 174.681 142.581 176.782 142.909C177.867 143.079 178.609 144.096 178.44 145.181C178.271 146.267 177.254 147.01 176.17 146.84ZM154.96 142.522C157.009 143.043 159.089 143.54 161.202 144.012C162.274 144.251 163.336 143.576 163.575 142.504C163.814 141.431 163.139 140.368 162.068 140.129C159.993 139.665 157.95 139.177 155.938 138.666C154.874 138.395 153.793 139.039 153.523 140.104C153.252 141.169 153.896 142.251 154.96 142.522ZM146.45 140.169C144.375 139.548 142.335 138.902 140.326 138.232C139.285 137.885 138.722 136.758 139.069 135.716C139.416 134.673 140.542 134.11 141.583 134.457C143.553 135.115 145.553 135.748 147.589 136.357C148.64 136.672 149.238 137.78 148.924 138.833C148.609 139.885 147.502 140.484 146.45 140.169ZM126.049 132.876C128.026 133.699 130.002 134.49 132.011 135.258C133.036 135.649 134.185 135.135 134.577 134.108C134.968 133.082 134.454 131.932 133.428 131.541C131.457 130.787 129.517 130.011 127.576 129.203C126.562 128.781 125.399 129.261 124.977 130.276C124.556 131.29 125.035 132.454 126.049 132.876ZM112.192 126.714L117.975 129.352C118.975 129.805 120.153 129.361 120.606 128.36C121.058 127.359 120.615 126.181 119.615 125.727L113.824 123.087C112.823 122.635 111.647 123.082 111.196 124.084C110.745 125.085 111.191 126.263 112.192 126.714Z" fill="#173D7A" fill-opacity="0.1"></path><mask id="mask1" maskUnits="userSpaceOnUse" x="77" y="101" width="57" height="33"><path fill-rule="evenodd" clip-rule="evenodd" d="M104.188 101.64L80.3279 115.375L80.1209 115.059L77.9093 114.962V117.458C77.9054 117.758 78.0511 118.058 78.3481 118.228L104.188 133.105C105.037 133.594 106.084 133.594 106.935 133.105L132.775 118.228C133.072 118.058 133.216 117.758 133.214 117.458V114.964L131.268 115.17L131.008 115.499L106.935 101.64C106.509 101.395 106.036 101.273 105.56 101.273C105.087 101.273 104.614 101.395 104.188 101.64Z" fill="white"></path></mask><g mask="url(#mask1)"><path fill-rule="evenodd" clip-rule="evenodd" d="M104.188 101.64L80.3279 115.375L80.1209 115.059L77.9093 114.962V117.458C77.9054 117.758 78.0511 118.058 78.3481 118.228L104.188 133.105C105.037 133.594 106.084 133.594 106.935 133.105L132.775 118.228C133.072 118.058 133.216 117.758 133.214 117.458V114.964L131.268 115.17L131.008 115.499L106.935 101.64C106.509 101.395 106.036 101.273 105.56 101.273C105.087 101.273 104.614 101.395 104.188 101.64Z" fill="url(#paint1_linear)"></path></g><mask id="mask2" maskUnits="userSpaceOnUse" x="77" y="98" width="57" height="33"><path fill-rule="evenodd" clip-rule="evenodd" d="M105.561 98.9607C105.087 98.9607 104.614 99.083 104.189 99.3257L78.3485 114.203C77.7621 114.54 77.7621 115.384 78.3485 115.721L104.189 130.598C105.038 131.087 106.084 131.087 106.935 130.598L132.775 115.721C133.068 115.552 133.216 115.256 133.216 114.962C133.216 114.666 133.068 114.371 132.775 114.203L106.935 99.3257C106.51 99.083 106.036 98.9607 105.561 98.9607Z" fill="white"></path></mask><g mask="url(#mask2)"><path fill-rule="evenodd" clip-rule="evenodd" d="M105.561 98.9607C105.087 98.9607 104.614 99.083 104.189 99.3257L78.3485 114.203C77.7621 114.54 77.7621 115.384 78.3485 115.721L104.189 130.598C105.038 131.087 106.084 131.087 106.935 130.598L132.775 115.721C133.068 115.552 133.216 115.256 133.216 114.962C133.216 114.666 133.068 114.371 132.775 114.203L106.935 99.3257C106.51 99.083 106.036 98.9607 105.561 98.9607Z" fill="url(#paint2_linear)"></path></g><path fill-rule="evenodd" clip-rule="evenodd" d="M108.616 113.517L112.089 111.185C113.327 111.973 114.103 112.973 114.193 114.049C111.517 113.82 108.616 113.517 108.616 113.517ZM110.699 118.037C109.565 116.739 108.422 115.4 108.422 115.4L113.948 115.367C113.456 116.437 112.282 117.376 110.699 118.037ZM105.39 119.037C104.553 119.037 103.739 118.966 102.967 118.84L105.39 116.173H106.266L109.069 118.578C107.942 118.867 106.696 119.037 105.39 119.037ZM101.432 118.503C99.8351 118.055 98.5022 117.353 97.6396 116.499C100.242 116.031 102.782 115.565 102.782 115.565L101.432 118.503ZM96.567 114.253C96.567 113.565 96.8575 112.909 97.3652 112.31L101.566 114.253C101.566 114.253 99.1908 114.803 96.8216 115.348C96.6613 114.994 96.567 114.628 96.567 114.253ZM103.307 109.618L103.337 112.631L98.7569 111.146C99.9431 110.408 101.528 109.863 103.307 109.618ZM105.536 113.589C106.224 113.589 106.781 113.923 106.781 114.336C106.781 114.748 106.224 115.082 105.536 115.082C104.85 115.082 104.293 114.748 104.293 114.336C104.293 113.923 104.85 113.589 105.536 113.589ZM110.33 110.32L106.321 112.352C106.321 112.352 105.923 110.897 105.555 109.477C107.305 109.495 108.953 109.804 110.33 110.32ZM120.144 115.012C119.869 114.679 119.039 114.016 118.596 114.265C118.445 114.351 117.23 114.289 115.702 114.172C115.674 112.684 114.835 111.338 113.437 110.281L114.96 109.255C114.96 109.255 115.72 109.2 115.997 109.146C116.273 109.091 116.496 108.813 116.55 108.427C116.605 108.04 115.556 107.541 114.96 107.596C114.367 107.652 114.393 108.26 114.393 108.26L112.075 109.435C110.286 108.521 107.963 107.974 105.39 107.974C105.318 107.974 105.248 107.98 105.174 107.98C105.024 107.361 104.924 106.897 104.939 106.821C104.994 106.545 105.215 106.102 104.939 105.604C104.662 105.106 103.113 105.327 102.782 105.991C102.451 106.655 103.28 106.766 103.28 106.766L103.292 108.098C100.681 108.415 98.4633 109.314 96.9881 110.572L95.152 109.976C95.152 109.976 93.4373 109.091 92.7753 109.255C92.1104 109.423 92.5522 110.086 92.5522 110.086L95.9653 111.664C95.3932 112.45 95.0697 113.324 95.0697 114.253C95.0697 114.748 95.1685 115.228 95.3392 115.686C93.6215 116.078 92.1957 116.395 92.1104 116.395C91.8902 116.395 90.785 116.451 90.8943 116.948C91.0051 117.448 91.2268 117.557 92.1673 117.448C92.5192 117.406 94.0977 117.131 95.9338 116.803C96.8998 118.16 98.622 119.248 100.794 119.893L100.239 121.101C100.239 121.101 99.576 121.101 99.6314 121.598C99.6853 122.096 100.073 122.595 100.406 122.483C100.737 122.372 101.677 122.427 101.456 121.819C101.234 121.21 101.165 120.822 101.165 120.822L101.781 120.146C102.901 120.393 104.111 120.536 105.39 120.536C107.238 120.536 108.956 120.251 110.44 119.753L111.684 120.822C111.684 120.822 111.795 121.486 112.238 121.709C112.68 121.93 113.565 122.042 113.51 121.543C113.453 121.044 113.177 120.546 112.9 120.435C112.815 120.402 112.349 119.9 111.749 119.228C113.721 118.298 115.102 116.939 115.547 115.36L118.099 115.345C118.099 115.345 118.651 115.787 118.984 115.733C119.316 115.676 120.421 115.345 120.144 115.012Z" fill="#003199"></path><g style="mix-blend-mode:multiply"><path fill-rule="evenodd" clip-rule="evenodd" d="M304.447 128.077C301.878 126.143 298.401 125.937 295.621 127.555L274.877 139.622C272.763 137.862 269.693 137.509 267.172 138.966L183.183 187.502C179.95 189.371 178.841 193.508 180.707 196.743C182.573 199.978 186.707 201.086 189.941 199.217L218.002 183.001L218.805 184.994C220.621 189.506 226.009 191.363 230.22 188.93L307.469 144.288C312.433 141.419 312.86 134.41 308.28 130.962L304.447 128.077Z" fill="#173D7A" fill-opacity="0.05"></path></g><path fill-rule="evenodd" clip-rule="evenodd" d="M294.293 67.0262C292.402 68.1178 290.575 69.4861 288.827 71.0287C288.07 46.4386 270.301 36.661 248.434 49.281C230.624 59.5562 215.536 81.5588 210.125 103.126C205.729 102.535 200.564 103.68 195.019 106.88C179.076 116.079 166.151 138.452 166.151 156.85C166.151 175.248 179.076 182.706 195.019 173.506L294.293 116.219C306.064 109.427 315.607 92.9069 315.607 79.3228C315.607 65.7387 306.064 60.2342 294.293 67.0262Z" fill="url(#paint3_linear)"></path><path fill-rule="evenodd" clip-rule="evenodd" d="M300.653 70.2091C298.761 71.3006 296.935 72.669 295.186 74.2115C294.43 49.6214 276.66 39.8439 254.793 52.4639C236.983 62.7391 221.895 84.7417 216.485 106.309C212.088 105.718 206.923 106.862 201.378 110.063C185.435 119.262 172.51 141.634 172.51 160.033C172.51 178.431 185.435 185.888 201.378 176.689L300.653 119.402C312.423 112.61 321.966 96.0897 321.966 82.5056C321.966 68.9216 312.423 63.417 300.653 70.2091Z" fill="url(#paint4_radial)"></path><path fill-rule="evenodd" clip-rule="evenodd" d="M305.3 83.3527C303.891 84.1649 302.531 85.183 301.229 86.3307C300.666 68.0345 287.433 60.7596 271.149 70.1494C257.886 77.7946 246.651 94.1656 242.621 110.213C239.347 109.773 235.501 110.625 231.372 113.006C219.5 119.85 209.875 136.497 209.875 150.186C209.875 163.875 219.5 169.424 231.372 162.579L305.3 119.954C314.065 114.901 321.172 102.609 321.172 92.5019C321.172 82.3947 314.065 78.2991 305.3 83.3527Z" fill="url(#paint5_linear)"></path><path fill-rule="evenodd" clip-rule="evenodd" d="M310.07 85.7399C308.661 86.5521 307.301 87.5702 305.999 88.7179C305.436 70.4217 292.203 63.1468 275.919 72.5367C262.656 80.1819 251.421 96.5529 247.391 112.6C244.117 112.16 240.271 113.012 236.142 115.393C224.27 122.237 214.645 138.884 214.645 152.573C214.645 166.262 224.27 171.811 236.142 164.966L310.07 122.342C318.835 117.288 325.942 104.996 325.942 94.8891C325.942 84.7819 318.835 80.6863 310.07 85.7399Z" fill="url(#paint6_radial)"></path><path opacity="0.563756" d="M283.636 120.65C281.419 123.875 277.931 125.241 275.103 124.154C271.662 122.832 269.909 118.096 271.754 113.285C273.599 108.474 278.068 106.128 281.509 107.45C284.454 108.582 286.155 112.177 285.433 116.252C285.416 116.348 285.338 116.62 285.186 117.052C285.044 117.459 284.858 117.948 284.659 118.441C284.46 118.934 284.251 119.423 284.062 119.83C283.863 120.258 283.714 120.536 283.636 120.65Z" stroke="#8DDCFE" stroke-width="2"></path><path opacity="0.196415" d="M292.503 120.859C288.643 130.922 279.105 136.35 271.344 133.368C263.584 130.387 260.123 119.964 263.983 109.901C267.842 99.8377 277.381 94.41 285.141 97.3918C292.902 100.374 296.362 110.796 292.503 120.859Z" stroke="#8DDCFE" stroke-width="1.25"></path><path d="M276.558 115.443C277.128 113.643 278.95 112.683 280.629 113.297L281.686 113.69C283.58 114.402 285.233 115.077 286.647 115.717C311.208 126.823 331.785 155.408 332.157 176.761C332.481 195.332 321.107 212.61 301.427 225.065L300.109 225.888C288.83 232.904 271.356 243.637 247.685 258.089C246.146 259.029 244.186 258.45 243.306 256.797C242.426 255.143 242.961 253.041 244.5 252.101L260.915 242.068C276.857 232.31 289.084 224.781 297.596 219.482C315.81 208.142 326.017 192.808 325.739 176.873C325.418 158.432 306.51 132.166 284.166 122.062L283.493 121.764C282.105 121.159 280.462 120.509 278.568 119.815C276.889 119.2 275.989 117.243 276.558 115.443Z" fill="url(#paint7_linear)"></path><path d="M286.893 156.23C286.893 156.23 288.181 156.829 288.697 157.047C291.051 158.038 295.642 160.446 295.642 160.446L289.395 164.355C289.395 164.355 287.293 163.362 286.231 162.915C284.726 162.281 282.876 161.59 280.687 160.844C280.341 160.726 279.538 160.477 279.538 160.477L286.893 156.23Z" fill="#173D7A" fill-opacity="0.06"></path><path opacity="0.05" fill-rule="evenodd" clip-rule="evenodd" d="M273.825 333.885L226.921 306.958C224.044 305.307 224.404 302.419 227.728 300.511L273.016 274.511C276.341 272.604 281.371 272.397 284.248 274.049L331.152 300.974C334.031 302.627 333.67 305.515 330.345 307.423L285.057 333.422C281.733 335.33 276.704 335.536 273.825 333.885Z" fill="black"></path><mask id="mask3" maskUnits="userSpaceOnUse" x="223" y="236" width="110" height="64"><path fill-rule="evenodd" clip-rule="evenodd" d="M275.161 237.023L228.157 263.925L227.75 263.308L223.393 263.117V268.006C223.385 268.593 223.672 269.181 224.257 269.514L275.161 298.655C276.834 299.613 278.895 299.613 280.572 298.655L331.476 269.514C332.061 269.181 332.344 268.593 332.34 268.006V263.121L328.508 263.525L327.995 264.169L280.572 237.023C279.734 236.544 278.801 236.304 277.865 236.304C276.932 236.304 276 236.544 275.161 237.023Z" fill="white"></path></mask><g mask="url(#mask3)"><path fill-rule="evenodd" clip-rule="evenodd" d="M275.161 237.023L228.157 263.925L227.75 263.308L223.393 263.117V268.006C223.385 268.593 223.672 269.181 224.257 269.514L275.161 298.655C276.834 299.613 278.895 299.613 280.572 298.655L331.476 269.514C332.061 269.181 332.344 268.593 332.34 268.006V263.121L328.508 263.525L327.995 264.169L280.572 237.023C279.734 236.544 278.801 236.304 277.865 236.304C276.932 236.304 276 236.544 275.161 237.023Z" fill="url(#paint8_linear)"></path></g><mask id="mask4" maskUnits="userSpaceOnUse" x="223" y="231" width="110" height="64"><path fill-rule="evenodd" clip-rule="evenodd" d="M277.865 231.775C276.932 231.775 275.999 232.015 275.161 232.49L224.257 261.631C223.102 262.29 223.102 263.944 224.257 264.603L275.161 293.744C276.834 294.702 278.895 294.702 280.571 293.744L331.476 264.603C332.053 264.274 332.344 263.693 332.344 263.117C332.344 262.537 332.053 261.96 331.476 261.631L280.571 232.49C279.733 232.015 278.801 231.775 277.865 231.775Z" fill="white"></path></mask><g mask="url(#mask4)"><path fill-rule="evenodd" clip-rule="evenodd" d="M277.865 231.775C276.932 231.775 275.999 232.015 275.161 232.49L224.257 261.631C223.102 262.29 223.102 263.944 224.257 264.603L275.161 293.744C276.834 294.702 278.895 294.702 280.571 293.744L331.476 264.603C332.053 264.274 332.344 263.693 332.344 263.117C332.344 262.537 332.053 261.96 331.476 261.631L280.571 232.49C279.733 232.015 278.801 231.775 277.865 231.775Z" fill="url(#paint9_linear)"></path></g><mask id="mask5" maskUnits="userSpaceOnUse" x="223" y="219" width="110" height="64"><path fill-rule="evenodd" clip-rule="evenodd" d="M275.161 220.058L228.157 246.961L227.75 246.343L223.393 246.152V251.041C223.385 251.629 223.672 252.216 224.257 252.549L275.161 281.69C276.834 282.649 278.895 282.649 280.572 281.69L331.476 252.549C332.061 252.216 332.344 251.629 332.34 251.041V246.156L328.508 246.56L327.995 247.204L280.572 220.058C279.734 219.579 278.801 219.34 277.865 219.34C276.932 219.34 276 219.579 275.161 220.058Z" fill="white"></path></mask><g mask="url(#mask5)"><path fill-rule="evenodd" clip-rule="evenodd" d="M275.161 220.058L228.157 246.961L227.75 246.343L223.393 246.152V251.041C223.385 251.629 223.672 252.216 224.257 252.549L275.161 281.69C276.834 282.649 278.895 282.649 280.572 281.69L331.476 252.549C332.061 252.216 332.344 251.629 332.34 251.041V246.156L328.508 246.56L327.995 247.204L280.572 220.058C279.734 219.579 278.801 219.34 277.865 219.34C276.932 219.34 276 219.579 275.161 220.058Z" fill="url(#paint10_linear)"></path></g><mask id="mask6" maskUnits="userSpaceOnUse" x="223" y="214" width="110" height="64"><path fill-rule="evenodd" clip-rule="evenodd" d="M277.865 214.81C276.932 214.81 275.999 215.05 275.161 215.525L224.257 244.666C223.102 245.325 223.102 246.98 224.257 247.638L275.161 276.779C276.834 277.738 278.895 277.738 280.571 276.779L331.476 247.638C332.053 247.309 332.344 246.729 332.344 246.152C332.344 245.572 332.053 244.996 331.476 244.666L280.571 215.525C279.733 215.05 278.801 214.81 277.865 214.81Z" fill="white"></path></mask><g mask="url(#mask6)"><path fill-rule="evenodd" clip-rule="evenodd" d="M277.865 214.81C276.932 214.81 275.999 215.05 275.161 215.525L224.257 244.666C223.102 245.325 223.102 246.98 224.257 247.638L275.161 276.779C276.834 277.738 278.895 277.738 280.571 276.779L331.476 247.638C332.053 247.309 332.344 246.729 332.344 246.152C332.344 245.572 332.053 244.996 331.476 244.666L280.571 215.525C279.733 215.05 278.801 214.81 277.865 214.81Z" fill="url(#paint11_linear)"></path></g><mask id="mask7" maskUnits="userSpaceOnUse" x="223" y="198" width="110" height="64"><path fill-rule="evenodd" clip-rule="evenodd" d="M275.161 199.179L228.157 226.081L227.75 225.464L223.393 225.273V230.161C223.385 230.749 223.672 231.337 224.257 231.67L275.161 260.811C276.834 261.769 278.895 261.769 280.572 260.811L331.476 231.67C332.061 231.337 332.344 230.749 332.34 230.161V225.276L328.508 225.681L327.995 226.324L280.572 199.179C279.734 198.7 278.801 198.46 277.865 198.46C276.932 198.46 276 198.7 275.161 199.179Z" fill="white"></path></mask><g mask="url(#mask7)"><path fill-rule="evenodd" clip-rule="evenodd" d="M275.161 199.179L228.157 226.081L227.75 225.464L223.393 225.273V230.161C223.385 230.749 223.672 231.337 224.257 231.67L275.161 260.811C276.834 261.769 278.895 261.769 280.572 260.811L331.476 231.67C332.061 231.337 332.344 230.749 332.34 230.161V225.276L328.508 225.681L327.995 226.324L280.572 199.179C279.734 198.7 278.801 198.46 277.865 198.46C276.932 198.46 276 198.7 275.161 199.179Z" fill="url(#paint12_linear)"></path></g><mask id="mask8" maskUnits="userSpaceOnUse" x="223" y="193" width="110" height="64"><path fill-rule="evenodd" clip-rule="evenodd" d="M277.865 193.931C276.932 193.931 276 194.17 275.162 194.646L224.258 223.787C223.102 224.445 223.102 226.1 224.258 226.759L275.162 255.9C276.834 256.858 278.896 256.858 280.572 255.9L331.476 226.759C332.054 226.429 332.345 225.849 332.345 225.273C332.345 224.692 332.054 224.116 331.476 223.787L280.572 194.646C279.734 194.17 278.801 193.931 277.865 193.931Z" fill="white"></path></mask><g mask="url(#mask8)"><path fill-rule="evenodd" clip-rule="evenodd" d="M277.865 193.931C276.932 193.931 276 194.17 275.162 194.646L224.258 223.787C223.102 224.445 223.102 226.1 224.258 226.759L275.162 255.9C276.834 256.858 278.896 256.858 280.572 255.9L331.476 226.759C332.054 226.429 332.345 225.849 332.345 225.273C332.345 224.692 332.054 224.116 331.476 223.787L280.572 194.646C279.734 194.17 278.801 193.931 277.865 193.931Z" fill="url(#paint13_linear)"></path></g><mask id="mask9" maskUnits="userSpaceOnUse" x="248" y="206" width="59" height="35"><path fill-rule="evenodd" clip-rule="evenodd" d="M248.958 206.411H306.679V240.036H248.958V206.411Z" fill="white"></path></mask><g mask="url(#mask9)"><path fill-rule="evenodd" clip-rule="evenodd" d="M283.882 222.443L290.724 217.874C293.164 219.419 294.692 221.377 294.869 223.485C289.597 223.036 283.882 222.443 283.882 222.443ZM287.986 231.296C285.753 228.753 283.502 226.131 283.502 226.131L294.388 226.066C293.417 228.163 291.104 230.001 287.986 231.296ZM277.528 233.254C275.878 233.254 274.276 233.116 272.754 232.869L277.528 227.646H279.254L284.776 232.356C282.555 232.922 280.1 233.254 277.528 233.254ZM269.73 232.209C266.585 231.331 263.959 229.957 262.26 228.283C267.387 227.367 272.391 226.454 272.391 226.454L269.73 232.209ZM260.148 223.885C260.148 222.537 260.72 221.251 261.72 220.079L269.996 223.885C269.996 223.885 265.316 224.962 260.649 226.028C260.333 225.335 260.148 224.619 260.148 223.885ZM273.424 214.806L273.483 220.708L264.461 217.798C266.798 216.353 269.919 215.285 273.424 214.806ZM277.817 222.584C279.171 222.584 280.268 223.239 280.268 224.046C280.268 224.854 279.171 225.508 277.817 225.508C276.466 225.508 275.368 224.854 275.368 224.046C275.368 223.239 276.466 222.584 277.817 222.584ZM287.261 216.18L279.363 220.162C279.363 220.162 278.578 217.311 277.852 214.53C281.301 214.565 284.546 215.17 287.261 216.18ZM306.594 225.37C306.051 224.719 304.416 223.421 303.543 223.908C303.245 224.076 300.852 223.955 297.843 223.726C297.787 220.81 296.135 218.174 293.379 216.104L296.38 214.095C296.38 214.095 297.879 213.987 298.424 213.881C298.967 213.772 299.407 213.229 299.513 212.472C299.622 211.714 297.554 210.736 296.38 210.845C295.211 210.954 295.265 212.146 295.265 212.146L290.698 214.448C287.172 212.657 282.596 211.585 277.528 211.585C277.386 211.585 277.247 211.597 277.103 211.597C276.808 210.384 276.61 209.477 276.64 209.327C276.749 208.787 277.182 207.918 276.64 206.943C276.094 205.968 273.043 206.4 272.391 207.7C271.739 209.001 273.371 209.218 273.371 209.218L273.394 211.829C268.252 212.448 263.883 214.21 260.977 216.673L257.36 215.508C257.36 215.508 253.982 213.772 252.678 214.095C251.368 214.424 252.238 215.722 252.238 215.722L258.962 218.814C257.835 220.352 257.197 222.064 257.197 223.885C257.197 224.854 257.392 225.793 257.728 226.692C254.344 227.458 251.536 228.08 251.368 228.08C250.934 228.08 248.757 228.189 248.972 229.164C249.19 230.142 249.627 230.356 251.48 230.142C252.173 230.059 255.283 229.522 258.9 228.879C260.803 231.536 264.195 233.668 268.473 234.931L267.382 237.297C267.382 237.297 266.075 237.297 266.184 238.272C266.29 239.247 267.054 240.225 267.709 240.004C268.361 239.787 270.214 239.896 269.777 238.704C269.341 237.512 269.205 236.751 269.205 236.751L270.417 235.427C272.624 235.911 275.008 236.19 277.528 236.19C281.168 236.19 284.552 235.632 287.476 234.658L289.928 236.751C289.928 236.751 290.146 238.052 291.019 238.489C291.889 238.921 293.633 239.141 293.524 238.163C293.412 237.186 292.869 236.211 292.323 235.994C292.155 235.929 291.237 234.945 290.054 233.63C293.94 231.807 296.66 229.146 297.536 226.052L302.564 226.022C302.564 226.022 303.652 226.888 304.307 226.783C304.962 226.671 307.139 226.022 306.594 225.37Z" fill="#003199"></path></g><path opacity="0.710472" fill-rule="evenodd" clip-rule="evenodd" d="M133.856 30.2218L137.925 27.8503L148.393 29.0036L151.553 45.088L123.948 43.0111L122.038 36.7823L132.57 30.9703L142.524 31.8433L144.43 41.0903L139.773 40.7901L138.724 34.4077L134.897 33.9092L127.231 38.1477L127.749 40.5651L146.532 42.1788L144.19 31.1659L133.856 30.2218Z" fill="white"></path><path opacity="0.544457" fill-rule="evenodd" clip-rule="evenodd" d="M34.5192 97.1796L40.1086 93.8955L54.4875 95.4926L58.8286 117.767L20.9081 114.891L18.2847 106.265L32.7522 98.2162L46.425 99.4253L49.0434 112.231L42.6471 111.815L41.2053 102.977L35.9482 102.286L25.4176 108.156L26.1296 111.504L51.9311 113.738L48.714 98.4871L34.5192 97.1796Z" fill="white"></path><defs><linearGradient id="paint0_linear" x1="73.1232" y1="8.10596" x2="72.2576" y2="147.143" gradientUnits="userSpaceOnUse"><stop stop-color="#00814B"></stop><stop offset="1" stop-color="#8FDF00"></stop></linearGradient><linearGradient id="paint1_linear" x1="77.9087" y1="133.472" x2="133.213" y2="133.472" gradientUnits="userSpaceOnUse"><stop stop-color="#003BDA"></stop><stop offset="1" stop-color="#002859"></stop></linearGradient><linearGradient id="paint2_linear" x1="77.9077" y1="130.964" x2="133.215" y2="130.964" gradientUnits="userSpaceOnUse"><stop stop-color="white"></stop><stop offset="1" stop-color="#A3D6FF"></stop></linearGradient><linearGradient id="paint3_linear" x1="155.447" y1="103.663" x2="203.502" y2="158.756" gradientUnits="userSpaceOnUse"><stop stop-color="white"></stop><stop offset="1" stop-color="#BBE5FB"></stop></linearGradient><radialGradient id="paint4_radial" cx="0" cy="0" r="1" gradientUnits="userSpaceOnUse" gradientTransform="translate(260.771 131.709) rotate(100.623) scale(73.4093 81.5139)"><stop stop-color="white"></stop><stop offset="1" stop-color="#EBF8FF"></stop></radialGradient><linearGradient id="paint5_linear" x1="201.903" y1="110.612" x2="237.655" y2="151.634" gradientUnits="userSpaceOnUse"><stop stop-color="white"></stop><stop offset="1" stop-color="#BBE5FB"></stop></linearGradient><radialGradient id="paint6_radial" cx="0" cy="0" r="1" gradientUnits="userSpaceOnUse" gradientTransform="translate(280.37 131.499) rotate(100.632) scale(54.6216 60.7001)"><stop stop-color="white"></stop><stop offset="1" stop-color="#EBF8FF"></stop></radialGradient><linearGradient id="paint7_linear" x1="254.39" y1="120.831" x2="278.631" y2="217.882" gradientUnits="userSpaceOnUse"><stop stop-color="#51C2FD"></stop><stop offset="1" stop-color="#0F62B7"></stop></linearGradient><linearGradient id="paint8_linear" x1="223.392" y1="299.374" x2="332.339" y2="299.374" gradientUnits="userSpaceOnUse"><stop stop-color="#003BDA"></stop><stop offset="1" stop-color="#002859"></stop></linearGradient><linearGradient id="paint9_linear" x1="223.389" y1="294.461" x2="332.342" y2="294.461" gradientUnits="userSpaceOnUse"><stop stop-color="white"></stop><stop offset="1" stop-color="#A3D6FF"></stop></linearGradient><linearGradient id="paint10_linear" x1="223.392" y1="282.409" x2="332.339" y2="282.409" gradientUnits="userSpaceOnUse"><stop stop-color="#003BDA"></stop><stop offset="1" stop-color="#002859"></stop></linearGradient><linearGradient id="paint11_linear" x1="223.389" y1="277.496" x2="332.342" y2="277.496" gradientUnits="userSpaceOnUse"><stop stop-color="white"></stop><stop offset="1" stop-color="#A3D6FF"></stop></linearGradient><linearGradient id="paint12_linear" x1="223.392" y1="261.529" x2="332.339" y2="261.529" gradientUnits="userSpaceOnUse"><stop stop-color="#003BDA"></stop><stop offset="1" stop-color="#002859"></stop></linearGradient><linearGradient id="paint13_linear" x1="223.389" y1="256.617" x2="332.342" y2="256.617" gradientUnits="userSpaceOnUse"><stop stop-color="white"></stop><stop offset="1" stop-color="#A3D6FF"></stop></linearGradient></defs></svg> 