<?xml version="1.0" encoding="UTF-8"?> <svg xmlns="http://www.w3.org/2000/svg" width="37" height="37" viewBox="0 0 37 37" fill="none"><path d="M1.14224 26.4912C1.20596 26.3724 1.27256 26.2531 1.34327 26.1347C1.61789 25.657 1.94514 25.1838 2.31966 24.7308C3.06541 23.819 4.01755 23.0193 5.05026 22.3558C6.0879 21.6972 7.21311 21.1841 8.34573 20.7484C9.47916 20.3085 10.6336 19.9603 11.769 19.6182C12.9045 19.2758 14.0318 18.967 15.1184 18.6237C16.2082 18.2895 17.2615 17.9331 18.2593 17.5409C19.257 17.1507 20.1976 16.7224 21.0618 16.2631C21.9251 15.8015 22.7145 15.3127 23.415 14.8156C24.1151 14.3182 24.7334 13.8216 25.2572 13.35C25.3867 13.2308 25.5129 13.1157 25.6346 13.0043C25.7522 12.8883 25.8656 12.7765 25.9746 12.6696C26.199 12.46 26.3873 12.2503 26.5674 12.0686C26.9148 11.6969 27.1791 11.3952 27.3584 11.1814C27.5384 10.9701 27.6346 10.8579 27.6346 10.8579C27.6716 10.8151 27.7362 10.8102 27.7794 10.8472C27.8168 10.8788 27.8254 10.9327 27.8028 10.9746C27.8028 10.9746 27.7308 11.1037 27.5964 11.3467C27.4681 11.5905 27.2507 11.9399 26.9682 12.3831C26.6805 12.8201 26.3187 13.348 25.848 13.912C25.3813 14.4785 24.828 15.103 24.1616 15.7258C23.4972 16.3503 22.7293 16.9797 21.8676 17.5775C21.0104 18.1839 20.0517 18.7376 19.042 19.2663C18.0278 19.7839 16.956 20.2633 15.8617 20.7052C14.7656 21.1434 13.6528 21.562 12.5547 21.9669C11.457 22.3718 10.3836 22.792 9.3735 23.2364C8.36258 23.6808 7.43388 24.1861 6.62399 24.7382C6.39171 24.901 6.17054 25.0691 5.96005 25.2414C5.83877 25.3133 5.71831 25.3865 5.59909 25.4618C4.56638 26.1253 3.61507 26.9253 2.8689 27.8372C2.49438 28.2898 2.16714 28.763 1.89251 29.2407C1.60926 29.7151 1.38726 30.1965 1.1891 30.6611C0.806769 31.5959 0.578192 32.4778 0.428958 33.256C0.279725 34.0355 0.212714 34.7118 0.164203 35.2668C0.125558 35.8209 0.105003 36.2542 0.103358 36.5482C0.10048 36.6954 0.0980138 36.8084 0.0971916 36.8841C0.102125 36.903 0.084036 36.9198 0.10788 36.9342C0.151047 36.9486 0.348792 36.9609 0.586003 36.9708C0.705636 36.9757 0.810469 36.9794 0.900503 36.9831C1.04234 36.9868 1.16115 36.9901 1.2557 36.9922C1.44564 36.9967 1.54101 36.9992 1.54101 36.9992C1.60227 37.0004 1.67915 37.0008 1.74122 36.9992H1.74451C1.74451 36.9992 1.8403 36.9971 2.03024 36.9922C2.1252 36.9901 2.24401 36.9873 2.38585 36.984C2.47588 36.9807 2.58112 36.9766 2.70076 36.9729C2.93797 36.9642 3.13654 36.9544 3.18011 36.942C3.20437 36.9297 3.1871 36.9149 3.19286 36.8985C3.19368 36.8319 3.19491 36.7332 3.19656 36.6041C3.19615 36.3455 3.21136 35.9706 3.24055 35.497C3.27837 35.0258 3.33058 34.4544 3.44734 33.8225C3.56697 33.1923 3.73676 32.4971 4.0048 31.7883C4.14705 31.4385 4.30121 31.0779 4.49978 30.7306C4.51253 30.7071 4.5265 30.6841 4.54007 30.6603C33.3622 39.9135 36.0826 0 36.0826 0C32.5339 11.0519 2.49438 3.54953 1.14224 26.4912Z" fill="#2492C3"></path></svg> 