<?xml version="1.0" encoding="UTF-8"?> <svg xmlns="http://www.w3.org/2000/svg" width="39" height="39" viewBox="0 0 39 39" fill="none"><path fill-rule="evenodd" clip-rule="evenodd" d="M33.8245 5.17552C26.9238 -1.72517 15.7336 -1.72517 8.83292 5.17552C2.64279 11.3656 2.02378 20.9952 6.93665 27.9003L0.859863 33.9727C-0.286617 35.1192 -0.286617 36.9937 0.859863 38.1401C2.00634 39.2866 3.88082 39.2866 5.0273 38.1401L11.1041 32.0634C18.0048 36.9762 27.6344 36.3572 33.8245 30.1671C40.7252 23.2664 40.7252 12.0762 33.8245 5.17552ZM14.2934 12.2818C14.2681 12.2979 14.2681 12.335 14.2934 12.3511L21.0117 16.6192C21.0249 16.6276 21.0417 16.6278 21.055 16.6197L28.1457 12.3169C28.1721 12.3009 28.1719 12.2625 28.1454 12.2467L21.0549 8.01295C21.0416 8.00501 21.025 8.00524 21.0119 8.01355L14.2934 12.2818ZM12.8898 14.7249C12.8625 14.709 12.8282 14.7287 12.8282 14.7603V22.8161C12.8282 22.8306 12.8358 22.8439 12.8482 22.8513L19.5371 26.8398C19.5644 26.8561 19.5991 26.8364 19.5991 26.8045V18.6431C19.5991 18.6285 19.5913 18.615 19.5787 18.6076L12.8898 14.7249ZM29.5 14.7603C29.5 14.7287 29.4657 14.709 29.4384 14.7249L22.7495 18.6076C22.7369 18.615 22.7291 18.6285 22.7291 18.6431V26.8045C22.7291 26.8364 22.7638 26.8561 22.7911 26.8398L29.48 22.8513C29.4924 22.8439 29.5 22.8306 29.5 22.8161V14.7603Z" fill="#2492C3"></path></svg> 