<?xml version="1.0" encoding="UTF-8"?> <svg xmlns="http://www.w3.org/2000/svg" width="44" height="44" viewBox="0 0 44 44" fill="none"><mask id="mask0" maskUnits="userSpaceOnUse" x="2" y="3" width="39" height="26"><path fill-rule="evenodd" clip-rule="evenodd" d="M2 3H41V28.7045H2V3Z" fill="white"></path></mask><g mask="url(#mask0)"><path fill-rule="evenodd" clip-rule="evenodd" d="M25.3786 7.21035C30.7037 5.71075 36.1292 9.50973 36.3301 15.1082C43.6646 17.5076 41.9566 28.7045 34.0193 28.7045H32.3589C30.791 24.2182 26.5213 21 21.5 21C16.4787 21 12.209 24.2182 10.6411 28.7045H10.5087C0.561933 28.7045 -1.24657 14.5084 8.19784 11.9091C8.59973 2.81154 20.355 -0.287628 25.3786 7.21035Z" fill="#2492C3"></path></g><path fill-rule="evenodd" clip-rule="evenodd" d="M17.3123 32.7796C17.3455 32.7017 17.4036 32.6317 17.4618 32.5694C17.4701 32.5538 17.4784 32.5382 17.4867 32.5226H17.495L19.812 30.3346C20.1359 30.0231 20.6591 30.0231 20.983 30.3268C21.3069 30.6305 21.3152 31.121 20.9913 31.4325L20.0695 32.2968H24.9195C25.3763 32.2968 25.75 32.6472 25.75 33.0755C25.75 33.5038 25.3763 33.8542 24.9195 33.8542H20.0695L20.9913 34.7185C21.3152 35.0299 21.3069 35.5205 20.983 35.8242C20.8252 35.9721 20.6093 36.05 20.4017 36.05C20.1858 36.05 19.9698 35.9721 19.812 35.8164L17.4867 33.6206C17.4701 33.605 17.4618 33.5816 17.4452 33.5583C17.3953 33.5038 17.3455 33.4415 17.3123 33.3714C17.2292 33.1845 17.2292 32.9665 17.3123 32.7796ZM21.4959 42C26.1847 42 30 38.1911 30 33.5C30 28.8089 26.1847 25 21.4959 25C16.8153 25 13 28.8089 13 33.5C13 38.1911 16.8153 42 21.4959 42Z" fill="#2492C3"></path></svg> 