<?xml version="1.0" encoding="UTF-8"?> <svg xmlns="http://www.w3.org/2000/svg" width="44" height="44" viewBox="0 0 44 44" fill="none"><path fill-rule="evenodd" clip-rule="evenodd" d="M29.8414 2C30.889 2 31.7473 2.81063 31.8231 3.83884L31.8286 3.98715L31.8281 8.66667H33.3571C34.4617 8.66667 35.3571 9.5621 35.3571 10.6667V11.796L39.5129 11.7964C40.6103 11.7964 41.5 12.6861 41.5 13.7835C41.5 14.8311 40.6894 15.6894 39.6612 15.7652L39.5129 15.7707L35.3571 15.7703V20.0027L39.5129 20.0029C40.6103 20.0029 41.5 20.8926 41.5 21.99C41.5 23.0376 40.6894 23.8959 39.6612 23.9717L39.5129 23.9772L35.3571 23.977V27.9264L39.5129 27.9264C40.6103 27.9264 41.5 28.8161 41.5 29.9135C41.5 30.9611 40.6894 31.8194 39.6612 31.8952L39.5129 31.9007L35.3571 31.9006V33.3333C35.3571 34.4379 34.4617 35.3333 33.3571 35.3333H31.8281L31.8286 40.0129C31.8286 41.1103 30.9389 42 29.8414 42C28.7939 42 27.9356 41.1894 27.8597 40.1612L27.8543 40.0129L27.8538 35.3333H23.905L23.9051 40.0129C23.9051 41.1103 23.0154 42 21.9179 42C20.8703 42 20.0121 41.1894 19.9362 40.1612L19.9308 40.0129L19.9307 35.3333H15.6983L15.6986 40.0129C15.6986 41.1103 14.8089 42 13.7114 42C12.6639 42 11.8056 41.1894 11.7297 40.1612L11.7243 40.0129L11.724 35.3333H10.6905C9.5859 35.3333 8.69048 34.4379 8.69048 33.3333V31.9006L4.48715 31.9007C3.38968 31.9007 2.5 31.011 2.5 29.9135C2.5 28.866 3.31063 28.0077 4.33884 27.9318L4.48715 27.9264L8.69048 27.9263V23.977L4.48715 23.9772C3.38968 23.9772 2.5 23.0875 2.5 21.99C2.5 20.9424 3.31063 20.0842 4.33884 20.0083L4.48715 20.0029L8.69048 20.0027V15.7703L4.48715 15.7707C3.38968 15.7707 2.5 14.881 2.5 13.7835C2.5 12.736 3.31063 11.8777 4.33884 11.8019L4.48715 11.7964L8.69048 11.796V10.6667C8.69048 9.5621 9.58591 8.66667 10.6905 8.66667H11.724L11.7243 3.98715C11.7243 2.88968 12.614 2 13.7114 2C14.759 2 15.6173 2.81063 15.6931 3.83884L15.6986 3.98715L15.6983 8.66667H19.9307L19.9308 3.98715C19.9308 2.88968 20.8205 2 21.9179 2C22.9655 2 23.8238 2.81063 23.8996 3.83884L23.9051 3.98715L23.905 8.66667H27.8538L27.8543 3.98715C27.8543 2.88968 28.744 2 29.8414 2ZM32.0238 12H12.0238V32H32.0238V12Z" fill="#2492C3"></path></svg> 