<?xml version="1.0" encoding="UTF-8"?> <svg xmlns="http://www.w3.org/2000/svg" width="44" height="44" viewBox="0 0 44 44" fill="none"><path fill-rule="evenodd" clip-rule="evenodd" d="M22.6159 13.0207C24.6386 13.1574 26.4781 13.9625 27.9153 15.2168L29.5506 13.5815C28.2585 11.8678 28.3938 9.42025 29.955 7.859C31.6638 6.15022 34.4335 6.15022 36.1422 7.859C37.851 9.56777 37.851 12.3375 36.1422 14.0462C34.581 15.6075 32.1334 15.7415 30.4197 14.4507L28.7843 16.086C30.0385 17.5236 30.8432 19.3635 30.9794 21.3866H33.2926C33.5914 19.261 35.4169 17.626 37.6248 17.626C40.0417 17.626 42 19.5844 42 22.0012C42 24.4169 40.0417 26.3764 37.6248 26.3764C35.4169 26.3764 33.5914 24.7414 33.2926 22.6159H30.9793C30.8426 24.6386 30.0375 26.4781 28.7832 27.9153L30.4185 29.5506C32.1322 28.2585 34.5798 28.3938 36.141 29.955C37.8498 31.6638 37.8498 34.4335 36.141 36.1422C34.4322 37.851 31.6625 37.851 29.9538 36.1422C28.3925 34.581 28.2585 32.1334 29.5493 30.4197L27.914 28.7843C26.4764 30.0385 24.6365 30.8432 22.6134 30.9794V33.2926C24.739 33.5914 26.374 35.4169 26.374 37.6248C26.374 40.0417 24.4156 42 21.9988 42C19.5831 42 17.6236 40.0417 17.6236 37.6248C17.6236 35.4169 19.2586 33.5914 21.3841 33.2926V30.9793C19.3614 30.8426 17.5219 30.0375 16.0847 28.7832L14.4494 30.4185C15.7415 32.1322 15.6062 34.5798 14.045 36.141C12.3362 37.8498 9.56654 37.8498 7.85777 36.141C6.14899 34.4322 6.14899 31.6625 7.85777 29.9538C9.41902 28.3925 11.8666 28.2585 13.5803 29.5493L15.2157 27.914C13.9615 26.4764 13.1568 24.6365 13.0206 22.6134H10.7074C10.4086 24.739 8.58307 26.374 6.37519 26.374C3.95833 26.374 2 24.4156 2 21.9988C2 19.5831 3.95833 17.6236 6.37519 17.6236C8.58307 17.6236 10.4086 19.2586 10.7074 21.3841H13.0207C13.1574 19.3614 13.9625 17.5219 15.2168 16.0847L13.5815 14.4494C11.8678 15.7415 9.42025 15.6062 7.859 14.045C6.15022 12.3362 6.15022 9.56654 7.859 7.85777C9.56777 6.14899 12.3375 6.14899 14.0462 7.85777C15.6075 9.41902 15.7415 11.8666 14.4507 13.5803L16.086 15.2157C17.5236 13.9615 19.3635 13.1568 21.3866 13.0206V10.7074C19.261 10.4086 17.626 8.58307 17.626 6.37519C17.626 3.95833 19.5844 2 22.0012 2C24.4169 2 26.3764 3.95833 26.3764 6.37519C26.3764 8.58307 24.7414 10.4086 22.6159 10.7074V13.0207Z" fill="#2492C3"></path></svg> 