<?xml version="1.0" encoding="UTF-8"?> <svg xmlns="http://www.w3.org/2000/svg" xmlns:xlink="http://www.w3.org/1999/xlink" width="44px" height="44px" viewBox="0 0 44 44" version="1.1"><title>Ico/simple</title><g id="Ico/simple" stroke="none" stroke-width="1" fill="none" fill-rule="evenodd"><g id="Group-Copy" transform="translate(7.000000, 3.000000)" fill="#2492C3" fill-rule="nonzero"><path d="M19.7627589,6.58039461 L24.3043099,12.0766422 L27.0443431,3.83496768 C27.4057254,2.49191993 26.7261109,0.620283099 25.318338,0.15102545 C21.4725828,-0.911546467 20.6149739,3.9266617 19.7627589,6.58039461 Z" id="Path"></path><path d="M26.7207171,16.8663065 L13.9536728,1.41856048 C11.4186028,-1.58576723 6.80693279,2.23301916 9.30964025,5.27510322 C13.5545342,10.4099685 17.7940343,15.5448338 22.0389282,20.6796991 C22.5351547,21.2838009 21.6182144,22.0389282 21.121988,21.4402202 C18.8727875,18.7163683 16.6235871,15.9925164 14.3743866,13.2686646 C13.8565851,12.6429877 13.1014578,12.3031804 12.3193617,12.2492428 C9.64944751,12.0604609 7.82635458,15.0432136 9.53078466,17.1467824 C10.9601327,18.7756997 12.3193617,20.3291043 13.7163471,22.0173531 C14.2071798,22.6214549 13.2902396,23.3711884 12.7994069,22.7724804 C11.5696282,21.2838009 10.2427618,19.8976031 9.01298312,18.3981361 C6.1381058,16.5264993 2.84251472,20.199654 5.02698998,22.8479931 L5.87381126,23.8728087 C6.66130111,24.5847858 7.57284757,25.8577146 8.27403716,26.7099296 C8.79723247,27.3517878 7.81556705,28.0961275 7.22764654,27.3733628 L5.01620245,24.6980549 C2.26538175,22.3247978 -1.60734229,26.0518902 0.717370888,28.9105862 C7.06583356,36.6991844 13.5599279,41.1328601 23.5761515,34.126358 C29.6225633,29.8976454 31.7261321,23.0475625 26.7207171,16.8663065 Z" id="Path"></path></g></g></svg> 