<svg xmlns="http://www.w3.org/2000/svg" width="15" height="13" viewBox="0 0 15 13">
    <path fill="#93D500" fill-rule="evenodd" d="M14.682 7.232l.027-.038.023-.038.02-.035.018-.04.017-.037.014-.04.014-.04.01-.041.01-.043.007-.048.005-.036c.006-.057.006-.115 0-.172l-.005-.036-.007-.049-.01-.042-.01-.04-.014-.041-.014-.04c-.005-.012-.01-.025-.017-.037l-.019-.04-.02-.035-.022-.039-.027-.037-.022-.031c-.018-.022-.037-.044-.056-.064L9.405.73c-.33-.34-.866-.34-1.196 0-.33.341-.33.893 0 1.234l3.755 3.874H1.402c-.467 0-.846.391-.846.873s.379.872.846.872h10.562L8.21 11.457c-.33.34-.33.893 0 1.234.165.17.382.255.598.255.216 0 .433-.085.598-.255l5.199-5.364c.02-.02.038-.042.056-.064l.022-.031"/>
</svg>
