<svg xmlns="http://www.w3.org/2000/svg" width="18" height="24" viewBox="0 0 18 24">
    <g>
        <path d="M16.371 20.659H1.882c-.9 0-1.63.722-1.63 1.608 0 .886.73 1.608 1.63 1.608h14.49c.9 0 1.63-.722 1.63-1.608 0-.886-.73-1.608-1.63-1.608zM7.872 17.142c.693.637 1.816.637 2.51 0l5.017-4.618c.692-.638.692-1.672 0-2.31-.693-.637-1.816-.637-2.509 0l-1.99 1.831V1.757c0-.901-.793-1.632-1.773-1.632-.98 0-1.774.73-1.774 1.632v10.288l-1.99-1.83c-.692-.638-1.815-.638-2.508 0-.693.637-.693 1.671 0 2.309l5.017 4.618z"/>
    </g>
</svg>
