<svg width="15" height="14" viewBox="0 0 15 14" fill="none" xmlns="http://www.w3.org/2000/svg">
<path fill-rule="evenodd" clip-rule="evenodd" d="M12.4711 1.38203H11.0972V0.627221C11.0972 0.280802 10.8137 0 10.4639 0H10.3634C10.0137 0 9.73029 0.280802 9.73029 0.627221V1.38203H4.88289V0.627221C4.88289 0.280802 4.59939 0 4.24975 0H4.14922C3.79947 0 3.51607 0.280802 3.51607 0.627221V1.38203H2.15818C1.43965 1.38203 0.854874 1.96103 0.854874 2.67293V11.7091C0.854874 12.4206 1.43965 13 2.15818 13H12.4712C13.1896 13 13.7745 12.4207 13.7745 11.7091V2.67293C13.7744 1.96103 13.1895 1.38203 12.4711 1.38203ZM12.3011 11.5407H2.32822V4.50658H12.3011V11.5407ZM5.607 9.55403L5.80837 8.36937L4.9421 7.52811C4.82348 7.41344 4.78142 7.24179 4.83252 7.08577C4.88363 6.92985 5.01949 6.81569 5.18364 6.79174L6.38348 6.61561L6.92335 5.5398C6.99727 5.39294 7.14901 5.29993 7.31432 5.29993C7.47994 5.29993 7.63179 5.39294 7.70508 5.5398L8.24548 6.61561L9.44532 6.79184C9.60915 6.8158 9.74564 6.92995 9.79664 7.08587C9.84743 7.2419 9.80527 7.41333 9.68686 7.52822L8.821 8.36948L9.02217 9.55414C9.04982 9.7161 8.98252 9.87931 8.84855 9.97596C8.77252 10.0304 8.68241 10.0585 8.59208 10.0585C8.52309 10.0585 8.45338 10.042 8.38976 10.0093L7.31443 9.45321L6.2391 10.0092C6.09261 10.0852 5.91458 10.0723 5.78051 9.97586C5.64664 9.8792 5.57955 9.71599 5.607 9.55403Z" fill="#064B9D"/>
</svg>
