<svg width="15" height="16" viewBox="0 0 15 16" fill="none" xmlns="http://www.w3.org/2000/svg">
<path d="M12.2633 12.9749C12.7075 12.7687 13.0164 12.3199 13.0164 11.7981C13.0164 11.0812 12.4351 10.5 11.7183 10.5C11.0014 10.5 10.4203 11.0812 10.4203 11.7981C10.4203 12.3199 10.729 12.7687 11.1733 12.9751C10.1048 13.2223 9.30762 14.1778 9.30762 15.3214H14.129C14.129 14.1778 13.3318 13.2223 12.2633 12.9749Z" fill="#B620E0"/>
<path d="M8.10953 12.9749C8.55366 12.7687 8.8626 12.3199 8.8626 11.7981C8.8626 11.0812 8.28125 10.5 7.56452 10.5C6.84761 10.5 6.26645 11.0812 6.26645 11.7981C6.26645 12.3199 6.5752 12.7687 7.01952 12.9751C5.95101 13.2223 5.15381 14.1778 5.15381 15.3214H9.97524C9.97524 14.1778 9.17803 13.2223 8.10953 12.9749Z" fill="#B620E0"/>
<path d="M3.95572 12.9749C4.39985 12.7687 4.70879 12.3199 4.70879 11.7981C4.70879 11.0812 4.12744 10.5 3.41071 10.5C2.6938 10.5 2.11264 11.0812 2.11264 11.7981C2.11264 12.3199 2.42139 12.7687 2.86571 12.9751C1.7972 13.2223 1 14.1778 1 15.3214H5.82143C5.82143 14.1778 5.02422 13.2223 3.95572 12.9749Z" fill="#B620E0"/>
<path d="M4.97461 4.8125C4.50862 4.8125 4.13086 5.19026 4.13086 5.65625C4.13086 6.12224 4.50862 6.5 4.97461 6.5C5.4406 6.5 5.81836 6.12224 5.81836 5.65625C5.81836 5.19026 5.4406 4.8125 4.97461 4.8125Z" fill="#B620E0"/>
<path d="M7.56543 4.8125C7.09944 4.8125 6.72168 5.19026 6.72168 5.65625C6.72168 6.12224 7.09944 6.5 7.56543 6.5C8.03142 6.5 8.40918 6.12224 8.40918 5.65625C8.40918 5.19026 8.03142 4.8125 7.56543 4.8125Z" fill="#B620E0"/>
<path d="M10.1562 4.8125C9.69026 4.8125 9.3125 5.19026 9.3125 5.65625C9.3125 6.12224 9.69026 6.5 10.1562 6.5C10.6222 6.5 11 6.12224 11 5.65625C11 5.19026 10.6222 4.8125 10.1562 4.8125Z" fill="#B620E0"/>
<path d="M3 0L6 3H3V0Z" fill="#B620E0"/>
<rect x="1.5" y="2.5" width="12" height="6.5" rx="0.5" stroke="#B620E0"/>
</svg>
