<svg width="15" height="14" viewBox="0 0 15 14" fill="none" xmlns="http://www.w3.org/2000/svg">
<path fill-rule="evenodd" clip-rule="evenodd" d="M15 11.0268V0.133911H0V11.0268H5.89286V12.1875H4.46429C4.31643 12.1875 4.19643 12.3075 4.19643 12.4553C4.19643 12.6032 4.31643 12.7232 4.46429 12.7232H10.7143C10.8621 12.7232 10.9821 12.6032 10.9821 12.4553C10.9821 12.3075 10.8621 12.1875 10.7143 12.1875H9.10714V11.0268H15ZM13.75 1.38391V8.50784H1.25V1.38391H13.75ZM8.75 3.88391C8.75 4.38641 8.4525 4.81855 8.02482 5.01713C9.05375 5.25534 9.82143 6.17552 9.82143 7.27677H5.17857C5.17857 6.17552 5.94625 5.25534 6.97518 5.0173C6.54732 4.81855 6.25 4.38641 6.25 3.88391C6.25 3.19355 6.80964 2.63391 7.5 2.63391C8.19018 2.63391 8.75 3.19355 8.75 3.88391Z" fill="#2492C3"/>
</svg>
