<svg xmlns="http://www.w3.org/2000/svg" width="15" height="14" viewBox="0 0 15 14">
    <path fill="#93d500" fill-rule="evenodd" d="M14.682 7.01l.027-.037.023-.037.02-.034.018-.04.017-.035.014-.038.014-.04.01-.04.01-.04.007-.047.005-.035c.006-.056.006-.112 0-.167l-.005-.035-.007-.047-.01-.04-.01-.04-.014-.04-.014-.038c-.005-.012-.01-.024-.017-.036l-.019-.04-.02-.033-.022-.037-.027-.036-.022-.03c-.018-.022-.037-.043-.056-.062L9.405.706c-.33-.33-.866-.33-1.196 0-.33.331-.33.867 0 1.197l3.755 3.755H1.402c-.467 0-.846.379-.846.845 0 .467.379.846.846.846h10.562L8.21 11.104c-.33.33-.33.866 0 1.196.165.165.382.248.598.248.216 0 .433-.083.598-.248l5.199-5.199c.02-.02.038-.04.056-.062l.022-.03"/>
</svg>
