<svg xmlns="http://www.w3.org/2000/svg" width="15" height="13" viewBox="0 0 15 13">
    <path fill="#2492C3" fill-rule="evenodd" d="M.318 7.01L.29 6.972l-.023-.037-.02-.034-.018-.04-.017-.035-.014-.038-.014-.04-.01-.04-.01-.04-.007-.047-.005-.035c-.006-.056-.006-.112 0-.167l.005-.035.007-.047.01-.04.01-.04.014-.04.014-.038c.005-.012.01-.024.017-.036l.019-.04.02-.033.022-.037.027-.036.022-.03c.018-.022.037-.043.056-.062l5.199-5.2c.33-.33.866-.33 1.196 0 .33.331.33.867 0 1.197L3.036 5.658h10.562c.467 0 .846.379.846.845 0 .467-.379.846-.846.846H3.036l3.755 3.755c.33.33.33.866 0 1.196-.165.165-.382.248-.598.248-.216 0-.433-.083-.598-.248L.396 7.101c-.02-.02-.038-.04-.056-.062l-.022-.03"/>
</svg>
