<svg width="3000" height="687" viewBox="0 0 3000 687" fill="none" xmlns="http://www.w3.org/2000/svg">
<g clip-path="url(#clip0)">
<path fill-rule="evenodd" clip-rule="evenodd" d="M336.57 -739.769L191.004 -694.718L190.931 -694.959L190.723 -694.673L40.3834 -715.929L40.2604 -716.275L40.0722 -715.973L39.8251 -716.008L39.9226 -715.732L-37.6514 -591.044L-158.171 -675.354L-158.725 -675.741L-158.556 -675.086L-106.726 -473.829L-276.141 -715.846L-276.637 -716.553L-276.596 -715.69L-263.7 -443.063L-263.686 -442.776L-263.604 -442.791L-175.889 -228.922L-175.932 -228.892L-175.9 -228.847L-276.447 -115.776L-276.846 -115.82L-276.555 -115.377L-146.72 82.3218L-147.085 82.7327L-146.796 82.676L-302.342 274.263L-302.552 274.104L-302.551 274.52L-303 275.073L-302.55 274.942L-301.533 672.361L-301.531 673.105L-301.083 672.511L-110.802 420.242L49.4208 379.143L49.6974 379.072L49.6702 379.005L209.909 281.808L210.013 282.301L210.266 281.63L412.428 242.711L412.739 243.206L413.036 243.681L413.115 243.405L660.983 347.355L661.188 347.716L661.316 347.422L894.644 366.589L894.916 366.611L894.914 366.338L892.88 48.3489L893.068 48.1826L892.823 48.056L760.297 -261.342L760.586 -261.259L760.434 -261.437L895.665 -252.087L896.236 -252.048L895.877 -252.493L820.835 -345.727L895.827 -503.324L896.162 -503.268L895.899 -503.726L791.258 -685.675L791.458 -685.944L791.103 -685.943L790.986 -686.147L790.833 -685.943L557.37 -685.434L556.987 -685.884L556.996 -685.505L337.231 -739.782L337.316 -740L336.888 -739.867L336.499 -739.963L336.57 -739.769ZM209.8 281.289L49.9545 378.247L175.756 119.426L209.8 281.289ZM412.142 242.257L210.473 281.081L295.22 56.0319L412.142 242.257ZM412.853 242.12L413.004 241.979L452.84 102.9L295.729 55.9022L412.669 242.155L412.853 242.12ZM413.254 242.921L413.446 242.249L535.79 127.713L536.215 127.84L660.578 346.643L413.254 242.921ZM413.714 241.313L535.235 127.547L453.319 103.043L413.714 241.313ZM535.895 126.93L536.032 126.751L509.647 -93.6118L453.457 102.562L535.658 127.152L535.895 126.93ZM536.553 126.893L536.565 127.001L727.742 193.189L680.269 -61.0818L536.553 126.893ZM536.632 127.553L536.633 127.563L661.128 346.6L727.729 193.714L536.632 127.553ZM510.037 -94.5612L536.467 126.181L679.968 -61.5117L510.037 -94.5612ZM759.501 -261.502L680.354 -62.2107L492.787 -338.373L759.449 -261.586L759.394 -261.509L759.501 -261.502ZM759.851 -262.383L759.916 -262.232L820.072 -345.469L682.398 -353.418L759.781 -262.207L759.851 -262.383ZM-111.064 419.62L-25.8014 194.162L-26.1367 194.287L-26.065 194.198L-301.755 274.71L-111.064 419.62ZM-25.3804 193.049L-25.3007 193.247L102.713 33.8469L-145.708 82.4631L-25.4757 193.301L-25.3804 193.049ZM49.38 378.285L-25.0378 193.898L-24.8783 193.852L-24.9043 193.828L175.352 119.112L49.38 378.285ZM492.006 -337.91L388.799 -141.079L509.471 -95.2448L492.006 -337.91ZM388.574 -140.63L295.576 54.6392L509.218 -94.806L388.574 -140.63ZM509.984 -95.0809L492.508 -337.894L679.864 -62.0413L509.984 -95.0809ZM509.314 -94.2629L295.493 55.3076L295.492 55.3094L452.978 102.419L509.314 -94.2629ZM294.651 55.4186L294.624 55.4751L176.053 118.27L143.362 -140.068L294.651 55.4186ZM294.892 54.913L388.051 -140.695H143.509L294.892 54.913ZM388.414 -141.421L491.779 -338.555L247.067 -339.11V-339.063L247.014 -339.063L388.414 -141.421ZM-146.337 82.9043L-146.258 83.0244L-146.216 82.7554L-146.179 82.7091L-25.8676 193.62L-301.601 274.144L-146.337 82.9043ZM-275.837 -115.71L-175.66 -228.365L-175.538 -228.067L-175.483 -228.262L-112.097 -139.358L-118.468 -98.4926L-275.837 -115.71ZM-146.028 81.5446L2.09076 -84.7999L-118.047 -97.9436L-146.028 81.5446ZM2.20291 -85.4613L-62.3592 -305.579L-111.534 -139.554L2.20291 -85.4613ZM103.469 33.1896L3.01569 -84.893L142.762 -140.827L175.497 117.859L103.681 33.4395L103.959 33.0935L103.469 33.1896ZM387.961 -141.195H143.466L246.526 -338.885L387.961 -141.195ZM759.134 -262.197L493.586 -338.663L681.722 -353.442L759.134 -262.197ZM681.58 -538.883V-354.43L562.264 -508.033L681.58 -538.883ZM681.58 -539.984L681.813 -539.658L790.46 -685.442L557.796 -684.935L681.58 -539.884V-539.984ZM820.498 -346.182L682.391 -538.852L895.314 -503.41L820.498 -346.182ZM561.9 -507.686L492.578 -339.085L681.348 -353.914L561.9 -507.686ZM561.494 -508.012L406.401 -549.646L492.193 -339.464L561.494 -508.012ZM895.202 -503.935L682.233 -539.385L790.932 -685.238L895.202 -503.935ZM557.523 -684.485L562.075 -508.5L681.346 -539.339L557.523 -684.485ZM557.019 -684.638L561.575 -508.508L406.49 -550.14L557.019 -684.638ZM491.819 -339.055L405.913 -549.517L247.067 -339.706V-339.61L491.819 -339.055ZM405.65 -550.19L336.887 -738.899L247.228 -508.546L405.65 -550.19ZM247.199 -507.778L247.131 -508.004L405.343 -549.592L247.067 -340.535V-507.825L247.199 -507.778ZM246.567 -507.595V-339.874L246.498 -339.783L246.459 -339.838L246.316 -339.563L70.7113 -339.706L246.567 -507.595ZM70.433 -339.206L246.055 -339.064L143.094 -141.562L70.433 -339.206ZM-105.714 -471.921L69.541 -339.478L-62.1791 -306.766L-105.714 -471.921ZM-263.102 -442.885L-106.491 -472.236L-175.624 -229.593L-263.102 -442.885ZM69.9523 -339.065L142.403 -141.992L-61.8087 -306.342L69.9523 -339.065ZM-106.149 -471.611L-62.6447 -306.57L-175.151 -229.428L-106.149 -471.611ZM93.8521 -562.187L-105.535 -473.1L-37.4535 -590.405L93.8521 -562.187ZM-37.9785 -590.518L-37.9159 -590.618L-157.903 -674.556L-106.05 -473.209L-37.9674 -590.515L-37.9785 -590.518ZM94.7292 -562.801L40.5715 -715.397L190.39 -694.215L190.374 -694.193L94.7292 -562.801ZM40.1361 -715.129L-37.1784 -590.857L94.0913 -562.647L40.1361 -715.129ZM246.351 -508.08L70.4475 -340.146L94.8661 -561.929L246.351 -508.08ZM336.474 -739.216L246.848 -508.947L191.148 -694.239L336.474 -739.216ZM190.742 -693.85L246.436 -508.58L95.0732 -562.386L190.742 -693.85ZM94.356 -561.864L-105.651 -472.5L69.9093 -339.826L94.356 -561.864ZM-106.567 -472.73L-276.055 -714.851L-263.214 -443.373L-106.567 -472.73ZM-175.23 -228.768L-62.7979 -305.859L-111.929 -139.982L-175.23 -228.768ZM142.509 -141.265L-61.8938 -305.769L2.76239 -85.3302L142.509 -141.265ZM556.735 -685.055L406.088 -550.45L337.29 -739.253L556.735 -685.055ZM820.552 -345.28L760.326 -261.946L895.129 -252.625L820.552 -345.28ZM175.429 118.55L103.363 33.8364L-24.609 193.184L175.429 118.55ZM102.906 33.2997L2.59564 -84.6151L-145.725 81.957L102.906 33.2997ZM176.134 118.793L210.15 280.52L294.697 56.0022L176.134 118.793ZM682.08 -353.937L820.033 -345.972L682.08 -538.428V-353.937ZM1.15717 -85.405L-117.97 -98.4382L-111.639 -139.05L1.15717 -85.405ZM-275.846 -115.208L-118.545 -97.998L-146.552 81.6655L-275.846 -115.208ZM-25.3653 194.422L-110.545 419.66L49.0201 378.73L-25.3653 194.422ZM-302.049 275.114L-111.299 420.07L-301.035 671.616L-302.049 275.114ZM892.124 47.694L759.869 -261.072L680.728 -61.7979L892.124 47.694ZM894.411 365.716L728.428 193.581L892.382 48.788L894.411 365.716ZM894.025 366.036L728.146 194.009L661.527 346.937L894.025 366.036ZM728.231 193.087L892.19 48.2909L680.751 -61.2224L728.231 193.087Z" fill="url(#paint0_linear)"/>
<path fill-rule="evenodd" clip-rule="evenodd" d="M1535.89 -739.769L1390.32 -694.718L1390.25 -694.959L1390.04 -694.673L1239.7 -715.929L1239.58 -716.275L1239.39 -715.973L1239.14 -716.008L1239.24 -715.732L1161.67 -591.044L1041.15 -675.354L1040.59 -675.741L1040.76 -675.086L1092.59 -473.829L923.177 -715.846L922.681 -716.553L922.722 -715.69L935.618 -443.063L935.632 -442.776L935.714 -442.791L1023.43 -228.922L1023.39 -228.892L1023.42 -228.847L922.871 -115.776L922.472 -115.82L922.763 -115.377L1052.6 82.3218L1052.23 82.7327L1052.52 82.676L896.976 274.263L896.766 274.104L896.767 274.52L896.318 275.073L896.768 274.942L897.785 672.361L897.787 673.105L898.235 672.511L1088.52 420.242L1248.74 379.143L1249.02 379.072L1248.99 379.005L1409.23 281.808L1409.33 282.301L1409.58 281.63L1611.75 242.711L1612.06 243.206L1612.35 243.681L1612.43 243.405L1860.3 347.355L1860.51 347.716L1860.63 347.422L2093.96 366.589L2094.23 366.611L2094.23 366.338L2092.2 48.3489L2092.39 48.1826L2092.14 48.056L1959.61 -261.342L1959.9 -261.259L1959.75 -261.437L2094.98 -252.087L2095.55 -252.048L2095.19 -252.493L2020.15 -345.727L2095.14 -503.324L2095.48 -503.268L2095.22 -503.726L1990.58 -685.675L1990.78 -685.944L1990.42 -685.943L1990.3 -686.147L1990.15 -685.943L1756.69 -685.434L1756.3 -685.884L1756.31 -685.505L1536.55 -739.782L1536.63 -740L1536.21 -739.867L1535.82 -739.963L1535.89 -739.769ZM1409.12 281.289L1249.27 378.247L1375.07 119.426L1409.12 281.289ZM1611.46 242.257L1409.79 281.081L1494.54 56.0319L1611.46 242.257ZM1612.17 242.12L1612.32 241.979L1652.16 102.9L1495.05 55.9022L1611.99 242.155L1612.17 242.12ZM1612.57 242.921L1612.76 242.249L1735.11 127.713L1735.53 127.84L1859.9 346.643L1612.57 242.921ZM1613.03 241.313L1734.55 127.547L1652.64 103.043L1613.03 241.313ZM1735.21 126.93L1735.35 126.751L1708.97 -93.6118L1652.77 102.562L1734.98 127.152L1735.21 126.93ZM1735.87 126.893L1735.88 127.001L1927.06 193.189L1879.59 -61.0818L1735.87 126.893ZM1735.95 127.553L1735.95 127.563L1860.45 346.6L1927.05 193.714L1735.95 127.553ZM1709.35 -94.5612L1735.79 126.181L1879.29 -61.5117L1709.35 -94.5612ZM1958.82 -261.502L1879.67 -62.2107L1692.1 -338.373L1958.77 -261.586L1958.71 -261.509L1958.82 -261.502ZM1959.17 -262.383L1959.23 -262.232L2019.39 -345.469L1881.72 -353.418L1959.1 -262.207L1959.17 -262.383ZM1088.25 419.62L1173.52 194.162L1173.18 194.287L1173.25 194.198L897.563 274.71L1088.25 419.62ZM1173.94 193.049L1174.02 193.247L1302.03 33.8469L1053.61 82.4631L1173.84 193.301L1173.94 193.049ZM1248.7 378.285L1174.28 193.898L1174.44 193.852L1174.41 193.828L1374.67 119.112L1248.7 378.285ZM1691.32 -337.91L1588.12 -141.079L1708.79 -95.2448L1691.32 -337.91ZM1587.89 -140.63L1494.89 54.6392L1708.54 -94.806L1587.89 -140.63ZM1709.3 -95.0809L1691.83 -337.894L1879.18 -62.0413L1709.3 -95.0809ZM1708.63 -94.2629L1494.81 55.3076L1494.81 55.3094L1652.3 102.419L1708.63 -94.2629ZM1493.97 55.4186L1493.94 55.4751L1375.37 118.27L1342.68 -140.068L1493.97 55.4186ZM1494.21 54.913L1587.37 -140.695H1342.83L1494.21 54.913ZM1587.73 -141.421L1691.1 -338.555L1446.39 -339.11V-339.063L1446.33 -339.063L1587.73 -141.421ZM1052.98 82.9043L1053.06 83.0244L1053.1 82.7554L1053.14 82.7091L1173.45 193.62L897.716 274.144L1052.98 82.9043ZM923.48 -115.71L1023.66 -228.365L1023.78 -228.067L1023.83 -228.262L1087.22 -139.358L1080.85 -98.4926L923.48 -115.71ZM1053.29 81.5446L1201.41 -84.7999L1081.27 -97.9436L1053.29 81.5446ZM1201.52 -85.4613L1136.96 -305.579L1087.78 -139.554L1201.52 -85.4613ZM1302.79 33.1896L1202.33 -84.893L1342.08 -140.827L1374.81 117.859L1303 33.4395L1303.28 33.0935L1302.79 33.1896ZM1587.28 -141.195H1342.78L1445.84 -338.885L1587.28 -141.195ZM1958.45 -262.197L1692.9 -338.663L1881.04 -353.442L1958.45 -262.197ZM1880.9 -538.883V-354.43L1761.58 -508.033L1880.9 -538.883ZM1880.9 -539.984L1881.13 -539.658L1989.78 -685.442L1757.11 -684.935L1880.9 -539.884V-539.984ZM2019.82 -346.182L1881.71 -538.852L2094.63 -503.41L2019.82 -346.182ZM1761.22 -507.686L1691.9 -339.085L1880.67 -353.914L1761.22 -507.686ZM1760.81 -508.012L1605.72 -549.646L1691.51 -339.464L1760.81 -508.012ZM2094.52 -503.935L1881.55 -539.385L1990.25 -685.238L2094.52 -503.935ZM1756.84 -684.485L1761.39 -508.5L1880.66 -539.339L1756.84 -684.485ZM1756.34 -684.638L1760.89 -508.508L1605.81 -550.14L1756.34 -684.638ZM1691.14 -339.055L1605.23 -549.517L1446.39 -339.706V-339.61L1691.14 -339.055ZM1604.97 -550.19L1536.21 -738.899L1446.55 -508.546L1604.97 -550.19ZM1446.52 -507.778L1446.45 -508.004L1604.66 -549.592L1446.39 -340.535V-507.825L1446.52 -507.778ZM1445.89 -507.595V-339.874L1445.82 -339.783L1445.78 -339.838L1445.63 -339.563L1270.03 -339.706L1445.89 -507.595ZM1269.75 -339.206L1445.37 -339.064L1342.41 -141.562L1269.75 -339.206ZM1093.6 -471.921L1268.86 -339.478L1137.14 -306.766L1093.6 -471.921ZM936.216 -442.885L1092.83 -472.236L1023.69 -229.593L936.216 -442.885ZM1269.27 -339.065L1341.72 -141.992L1137.51 -306.342L1269.27 -339.065ZM1093.17 -471.611L1136.67 -306.57L1024.17 -229.428L1093.17 -471.611ZM1293.17 -562.187L1093.78 -473.1L1161.86 -590.405L1293.17 -562.187ZM1161.34 -590.518L1161.4 -590.618L1041.41 -674.556L1093.27 -473.209L1161.35 -590.515L1161.34 -590.518ZM1294.05 -562.801L1239.89 -715.397L1389.71 -694.215L1389.69 -694.193L1294.05 -562.801ZM1239.45 -715.129L1162.14 -590.857L1293.41 -562.647L1239.45 -715.129ZM1445.67 -508.08L1269.77 -340.146L1294.18 -561.929L1445.67 -508.08ZM1535.79 -739.216L1446.17 -508.947L1390.47 -694.239L1535.79 -739.216ZM1390.06 -693.85L1445.75 -508.58L1294.39 -562.386L1390.06 -693.85ZM1293.67 -561.864L1093.67 -472.5L1269.23 -339.826L1293.67 -561.864ZM1092.75 -472.73L923.262 -714.851L936.104 -443.373L1092.75 -472.73ZM1024.09 -228.768L1136.52 -305.859L1087.39 -139.982L1024.09 -228.768ZM1341.83 -141.265L1137.42 -305.769L1202.08 -85.3302L1341.83 -141.265ZM1756.05 -685.055L1605.41 -550.45L1536.61 -739.253L1756.05 -685.055ZM2019.87 -345.28L1959.64 -261.946L2094.45 -252.625L2019.87 -345.28ZM1374.75 118.55L1302.68 33.8364L1174.71 193.184L1374.75 118.55ZM1302.22 33.2997L1201.91 -84.6151L1053.59 81.957L1302.22 33.2997ZM1375.45 118.793L1409.47 280.52L1494.02 56.0022L1375.45 118.793ZM1881.4 -353.937L2019.35 -345.972L1881.4 -538.428V-353.937ZM1200.47 -85.405L1081.35 -98.4382L1087.68 -139.05L1200.47 -85.405ZM923.472 -115.208L1080.77 -97.998L1052.77 81.6655L923.472 -115.208ZM1173.95 194.422L1088.77 419.66L1248.34 378.73L1173.95 194.422ZM897.268 275.114L1088.02 420.07L898.283 671.616L897.268 275.114ZM2091.44 47.694L1959.19 -261.072L1880.05 -61.7979L2091.44 47.694ZM2093.73 365.716L1927.75 193.581L2091.7 48.788L2093.73 365.716ZM2093.34 366.036L1927.46 194.009L1860.84 346.937L2093.34 366.036ZM1927.55 193.087L2091.51 48.2909L1880.07 -61.2224L1927.55 193.087Z" fill="url(#paint1_linear)"/>
<path fill-rule="evenodd" clip-rule="evenodd" d="M2735.57 -739.769L2590 -694.718L2589.93 -694.959L2589.72 -694.673L2439.38 -715.929L2439.26 -716.275L2439.07 -715.973L2438.83 -716.008L2438.92 -715.732L2361.35 -591.044L2240.83 -675.354L2240.28 -675.741L2240.44 -675.086L2292.27 -473.829L2122.86 -715.846L2122.36 -716.553L2122.4 -715.69L2135.3 -443.063L2135.31 -442.776L2135.4 -442.791L2223.11 -228.922L2223.07 -228.892L2223.1 -228.847L2122.55 -115.776L2122.15 -115.82L2122.45 -115.377L2252.28 82.3218L2251.91 82.7327L2252.2 82.676L2096.66 274.263L2096.45 274.104L2096.45 274.52L2096 275.073L2096.45 274.942L2097.47 672.361L2097.47 673.105L2097.92 672.511L2288.2 420.242L2448.42 379.143L2448.7 379.072L2448.67 379.005L2608.91 281.808L2609.01 282.301L2609.27 281.63L2811.43 242.711L2811.74 243.206L2812.04 243.681L2812.12 243.405L3059.98 347.355L3060.19 347.716L3060.32 347.422L3293.64 366.589L3293.92 366.611L3293.91 366.338L3291.88 48.3489L3292.07 48.1826L3291.82 48.056L3159.3 -261.342L3159.59 -261.259L3159.43 -261.437L3294.67 -252.087L3295.24 -252.048L3294.88 -252.493L3219.83 -345.727L3294.83 -503.324L3295.16 -503.268L3294.9 -503.726L3190.26 -685.675L3190.46 -685.944L3190.1 -685.943L3189.99 -686.147L3189.83 -685.943L2956.37 -685.434L2955.99 -685.884L2956 -685.505L2736.23 -739.782L2736.32 -740L2735.89 -739.867L2735.5 -739.963L2735.57 -739.769ZM2608.8 281.289L2448.95 378.247L2574.76 119.426L2608.8 281.289ZM2811.14 242.257L2609.47 281.081L2694.22 56.0319L2811.14 242.257ZM2811.85 242.12L2812 241.979L2851.84 102.9L2694.73 55.9022L2811.67 242.155L2811.85 242.12ZM2812.25 242.921L2812.45 242.249L2934.79 127.713L2935.22 127.84L3059.58 346.643L2812.25 242.921ZM2812.71 241.313L2934.24 127.547L2852.32 103.043L2812.71 241.313ZM2934.9 126.93L2935.03 126.751L2908.65 -93.6118L2852.46 102.562L2934.66 127.152L2934.9 126.93ZM2935.55 126.893L2935.57 127.001L3126.74 193.189L3079.27 -61.0818L2935.55 126.893ZM2935.63 127.553L2935.63 127.563L3060.13 346.6L3126.73 193.714L2935.63 127.553ZM2909.04 -94.5612L2935.47 126.181L3078.97 -61.5117L2909.04 -94.5612ZM3158.5 -261.502L3079.35 -62.2107L2891.79 -338.373L3158.45 -261.586L3158.39 -261.509L3158.5 -261.502ZM3158.85 -262.383L3158.92 -262.232L3219.07 -345.469L3081.4 -353.418L3158.78 -262.207L3158.85 -262.383ZM2287.94 419.62L2373.2 194.162L2372.86 194.287L2372.93 194.198L2097.25 274.71L2287.94 419.62ZM2373.62 193.049L2373.7 193.247L2501.71 33.8469L2253.29 82.4631L2373.52 193.301L2373.62 193.049ZM2448.38 378.285L2373.96 193.898L2374.12 193.852L2374.1 193.828L2574.35 119.112L2448.38 378.285ZM2891.01 -337.91L2787.8 -141.079L2908.47 -95.2448L2891.01 -337.91ZM2787.57 -140.63L2694.58 54.6392L2908.22 -94.806L2787.57 -140.63ZM2908.98 -95.0809L2891.51 -337.894L3078.86 -62.0413L2908.98 -95.0809ZM2908.31 -94.2629L2694.49 55.3076L2694.49 55.3094L2851.98 102.419L2908.31 -94.2629ZM2693.65 55.4186L2693.62 55.4751L2575.05 118.27L2542.36 -140.068L2693.65 55.4186ZM2693.89 54.913L2787.05 -140.695H2542.51L2693.89 54.913ZM2787.41 -141.421L2890.78 -338.555L2646.07 -339.11V-339.063L2646.01 -339.063L2787.41 -141.421ZM2252.66 82.9043L2252.74 83.0244L2252.78 82.7554L2252.82 82.7091L2373.13 193.62L2097.4 274.144L2252.66 82.9043ZM2123.16 -115.71L2223.34 -228.365L2223.46 -228.067L2223.52 -228.262L2286.9 -139.358L2280.53 -98.4926L2123.16 -115.71ZM2252.97 81.5446L2401.09 -84.7999L2280.95 -97.9436L2252.97 81.5446ZM2401.2 -85.4613L2336.64 -305.579L2287.47 -139.554L2401.2 -85.4613ZM2502.47 33.1896L2402.02 -84.893L2541.76 -140.827L2574.5 117.859L2502.68 33.4395L2502.96 33.0935L2502.47 33.1896ZM2786.96 -141.195H2542.47L2645.53 -338.885L2786.96 -141.195ZM3158.13 -262.197L2892.59 -338.663L3080.72 -353.442L3158.13 -262.197ZM3080.58 -538.883V-354.43L2961.26 -508.033L3080.58 -538.883ZM3080.58 -539.984L3080.81 -539.658L3189.46 -685.442L2956.8 -684.935L3080.58 -539.884V-539.984ZM3219.5 -346.182L3081.39 -538.852L3294.31 -503.41L3219.5 -346.182ZM2960.9 -507.686L2891.58 -339.085L3080.35 -353.914L2960.9 -507.686ZM2960.49 -508.012L2805.4 -549.646L2891.19 -339.464L2960.49 -508.012ZM3294.2 -503.935L3081.23 -539.385L3189.93 -685.238L3294.2 -503.935ZM2956.52 -684.485L2961.07 -508.5L3080.35 -539.339L2956.52 -684.485ZM2956.02 -684.638L2960.57 -508.508L2805.49 -550.14L2956.02 -684.638ZM2890.82 -339.055L2804.91 -549.517L2646.07 -339.706V-339.61L2890.82 -339.055ZM2804.65 -550.19L2735.89 -738.899L2646.23 -508.546L2804.65 -550.19ZM2646.2 -507.778L2646.13 -508.004L2804.34 -549.592L2646.07 -340.535V-507.825L2646.2 -507.778ZM2645.57 -507.595V-339.874L2645.5 -339.783L2645.46 -339.838L2645.32 -339.563L2469.71 -339.706L2645.57 -507.595ZM2469.43 -339.206L2645.06 -339.064L2542.09 -141.562L2469.43 -339.206ZM2293.29 -471.921L2468.54 -339.478L2336.82 -306.766L2293.29 -471.921ZM2135.9 -442.885L2292.51 -472.236L2223.38 -229.593L2135.9 -442.885ZM2468.95 -339.065L2541.4 -141.992L2337.19 -306.342L2468.95 -339.065ZM2292.85 -471.611L2336.36 -306.57L2223.85 -229.428L2292.85 -471.611ZM2492.85 -562.187L2293.47 -473.1L2361.55 -590.405L2492.85 -562.187ZM2361.02 -590.518L2361.08 -590.618L2241.1 -674.556L2292.95 -473.209L2361.03 -590.515L2361.02 -590.518ZM2493.73 -562.801L2439.57 -715.397L2589.39 -694.215L2589.37 -694.193L2493.73 -562.801ZM2439.14 -715.129L2361.82 -590.857L2493.09 -562.647L2439.14 -715.129ZM2645.35 -508.08L2469.45 -340.146L2493.87 -561.929L2645.35 -508.08ZM2735.47 -739.216L2645.85 -508.947L2590.15 -694.239L2735.47 -739.216ZM2589.74 -693.85L2645.44 -508.58L2494.07 -562.386L2589.74 -693.85ZM2493.36 -561.864L2293.35 -472.5L2468.91 -339.826L2493.36 -561.864ZM2292.43 -472.73L2122.94 -714.851L2135.79 -443.373L2292.43 -472.73ZM2223.77 -228.768L2336.2 -305.859L2287.07 -139.982L2223.77 -228.768ZM2541.51 -141.265L2337.11 -305.769L2401.76 -85.3302L2541.51 -141.265ZM2955.73 -685.055L2805.09 -550.45L2736.29 -739.253L2955.73 -685.055ZM3219.55 -345.28L3159.33 -261.946L3294.13 -252.625L3219.55 -345.28ZM2574.43 118.55L2502.36 33.8364L2374.39 193.184L2574.43 118.55ZM2501.91 33.2997L2401.6 -84.6151L2253.27 81.957L2501.91 33.2997ZM2575.13 118.793L2609.15 280.52L2693.7 56.0022L2575.13 118.793ZM3081.08 -353.937L3219.03 -345.972L3081.08 -538.428V-353.937ZM2400.16 -85.405L2281.03 -98.4382L2287.36 -139.05L2400.16 -85.405ZM2123.15 -115.208L2280.46 -97.998L2252.45 81.6655L2123.15 -115.208ZM2373.63 194.422L2288.46 419.66L2448.02 378.73L2373.63 194.422ZM2096.95 275.114L2287.7 420.07L2097.97 671.616L2096.95 275.114ZM3291.12 47.694L3158.87 -261.072L3079.73 -61.7979L3291.12 47.694ZM3293.41 365.716L3127.43 193.581L3291.38 48.788L3293.41 365.716ZM3293.02 366.036L3127.15 194.009L3060.53 346.937L3293.02 366.036ZM3127.23 193.087L3291.19 48.2909L3079.75 -61.2224L3127.23 193.087Z" fill="url(#paint2_linear)"/>
</g>
<defs>
<linearGradient id="paint0_linear" x1="296.618" y1="-740" x2="296.618" y2="673.105" gradientUnits="userSpaceOnUse">
<stop stop-color="white"/>
<stop offset="0.900295" stop-color="white" stop-opacity="0.04"/>
<stop offset="1" stop-color="white" stop-opacity="0.4"/>
</linearGradient>
<linearGradient id="paint1_linear" x1="1495.94" y1="-740" x2="1495.94" y2="673.105" gradientUnits="userSpaceOnUse">
<stop stop-color="white"/>
<stop offset="0.900295" stop-color="white" stop-opacity="0.04"/>
<stop offset="1" stop-color="white" stop-opacity="0.4"/>
</linearGradient>
<linearGradient id="paint2_linear" x1="2695.62" y1="-740" x2="2695.62" y2="673.105" gradientUnits="userSpaceOnUse">
<stop stop-color="white"/>
<stop offset="0.900295" stop-color="white" stop-opacity="0.04"/>
<stop offset="1" stop-color="white" stop-opacity="0.4"/>
</linearGradient>
<clipPath id="clip0">
<rect width="3000" height="687" fill="white"/>
</clipPath>
</defs>
</svg>
