<svg width="1200" height="1200" viewBox="0 0 1200 1200" fill="none" xmlns="http://www.w3.org/2000/svg">
<g opacity="0.5">
<path fill-rule="evenodd" clip-rule="evenodd" d="M-60.7963 705.458L71.5133 801.69L-82.0942 856.014L-60.7963 705.458V705.458Z" stroke="white" stroke-width="0.5"/>
<path fill-rule="evenodd" clip-rule="evenodd" d="M71.3372 801.59L-60.7964 705.458L125.428 649.509L71.3372 801.59Z" stroke="white" stroke-width="0.5"/>
<path fill-rule="evenodd" clip-rule="evenodd" d="M125.429 649.509L-60.7962 705.458L-106 559.48L125.429 649.509Z" stroke="white" stroke-width="0.5"/>
<path fill-rule="evenodd" clip-rule="evenodd" d="M125.429 649.509L294.152 826.141L294.295 649.509H125.429Z" stroke="white" stroke-width="0.5"/>
<path fill-rule="evenodd" clip-rule="evenodd" d="M71.3374 801.59L161.052 1002.27L294.247 826.119L71.3374 801.59Z" stroke="white" stroke-width="0.5"/>
<path fill-rule="evenodd" clip-rule="evenodd" d="M-82.0942 856.014L42.9206 933.748L71.3373 801.59L-82.0942 856.014Z" stroke="white" stroke-width="0.5"/>
<path fill-rule="evenodd" clip-rule="evenodd" d="M42.9206 933.748L-41.5407 1054.42L161.052 1002.27L190.534 1159.5L-82.0942 1172.38L161.052 1002.27L42.9206 933.748Z" stroke="white" stroke-width="0.5"/>
<path fill-rule="evenodd" clip-rule="evenodd" d="M494.188 1007.96L404.778 1071.68L327.145 958.514L492.417 753.27L548.612 893.592L327.145 958.514L494.188 1007.96Z" stroke="white" stroke-width="0.5"/>
<path d="M125.428 649.509L83.5898 490.434L294.246 649.833L294.804 404.269L492.662 507.957L294.246 649.833L492.662 753.215L294.246 826.119L327.144 958.514L161.052 1002.27L404.778 1071.68L190.534 1159.5" stroke="white" stroke-width="0.5"/>
<path fill-rule="evenodd" clip-rule="evenodd" d="M-51.5761 339.242L-106 559.48L83.5901 490.434L294.804 404.269L125.429 334.666L83.5901 490.434L-51.5761 339.242Z" stroke="white" stroke-width="0.5"/>
<path fill-rule="evenodd" clip-rule="evenodd" d="M-51.5762 339.242L94.4019 214.735L125.429 334.666L-51.5762 339.242Z" stroke="white" stroke-width="0.5"/>
<path fill-rule="evenodd" clip-rule="evenodd" d="M94.4017 214.777L-51.5763 339.242L-52.085 105.666L94.4017 214.777Z" stroke="white" stroke-width="0.5"/>
<path fill-rule="evenodd" clip-rule="evenodd" d="M94.4017 214.777L-52.085 105.666L130.006 1L94.4017 214.777Z" stroke="white" stroke-width="0.5"/>
<path fill-rule="evenodd" clip-rule="evenodd" d="M125.429 334.666L294.804 404.269L279.907 214.735L125.429 334.666Z" stroke="white" stroke-width="0.5"/>
<path d="M130.006 1L287.916 76.0996L381.272 1L371.88 136.748L287.916 76.0996" stroke="white" stroke-width="0.5"/>
<path fill-rule="evenodd" clip-rule="evenodd" d="M492.663 507.957L688.995 601.409L492.663 753.27L492.663 507.957Z" stroke="white" stroke-width="0.5"/>
<path d="M279.907 214.735L287.916 76.0996L94.4019 214.735H279.907L371.88 136.748L294.804 404.269L538.736 386.722L492.662 507.957V753.27L752.268 720.437L548.612 893.592L715.953 1042.52L667.078 792.911L827.344 921.549L752.268 720.437L915.019 686.224L689.08 601.188L752.268 720.437L1012.51 846.859" stroke="white" stroke-width="0.5"/>
<path fill-rule="evenodd" clip-rule="evenodd" d="M548.612 893.592L494.188 1007.96L715.953 1042.52L518.094 1172.38L548.612 893.592Z" stroke="white" stroke-width="0.5"/>
<path d="M404.778 1071.68L518.094 1172.38" stroke="white" stroke-width="0.5"/>
<path fill-rule="evenodd" clip-rule="evenodd" d="M715.953 1042.31L827.344 921.549L908.217 1198.33L715.953 1042.31Z" stroke="white" stroke-width="0.5"/>
<path fill-rule="evenodd" clip-rule="evenodd" d="M689.08 601.188L761.24 360.096L538.736 386.722L876.682 483.467L689.08 601.188Z" stroke="white" stroke-width="0.5"/>
<path fill-rule="evenodd" clip-rule="evenodd" d="M688.995 601.409L538.736 386.722L571.928 216.152L294.804 404.269L492.662 507.957L688.995 601.409Z" stroke="white" stroke-width="0.5"/>
<path fill-rule="evenodd" clip-rule="evenodd" d="M1053.63 1007.08L827.344 921.549L1012.51 846.859L1053.63 1007.08Z" stroke="white" stroke-width="0.5"/>
<path fill-rule="evenodd" clip-rule="evenodd" d="M908.217 1198.33L1053.63 1007.08L1305.97 1197.31L908.217 1198.33Z" stroke="white" stroke-width="0.5"/>
<path d="M1012.51 846.859L915.019 686.224L875.96 483.446L760.706 360.404L980.766 235.395L827.174 168.524L681.845 4.05175L571.928 216.152L827.174 168.524L760.706 360.404L571.928 216.152L371.88 136.748L681.845 4.05175L999.947 2.01721L980.766 235.395L876.681 483.446" stroke="white" stroke-width="0.5"/>
<path d="M827.174 168.524L999.947 2.01721" stroke="white" stroke-width="0.5"/>
</g>
</svg>
