<svg xmlns="http://www.w3.org/2000/svg" width="1179" height="1389" viewBox="0 0 1179 1389">
    <g fill="none" fill-rule="evenodd" stroke="#fff" stroke-width=".25">
        <path d="M44.936 693L175 787.598 24 841z" transform="rotate(90 589 589.5)"/>
        <path d="M174.827 787.5L44.936 693 228 638z" transform="rotate(90 589 589.5)"/>
        <path d="M228 638L44.936 693 .5 549.5zM228 638L393.859 811.634 394 638z" transform="rotate(90 589 589.5)"/>
        <path d="M174.827 787.5L263.019 984.775 393.952 811.613z" transform="rotate(90 589 589.5)"/>
        <path d="M24 841L146.893 917.415 174.827 787.5 263.019 984.775 146.893 917.415z" transform="rotate(90 589 589.5)"/>
        <path d="M146.893 917.415L63.865 1036.035 263.019 984.775 292 1139.33 24 1152 263.019 984.775zM590.5 990.37L502.607 1053 426.292 941.76 588.758 740 644 877.94 426.292 941.76z" transform="rotate(90 589 589.5)"/>
        <path d="M228 638L186.872 481.626 393.952 638.319 394.5 396.923 589 498.851 393.952 638.319 589 739.946 393.952 811.613 426.292 941.76 263.019 984.775 502.607 1053 292 1139.33" transform="rotate(90 589 589.5)"/>
        <path d="M54 333L0.5 549.5 186.872 481.626 394.5 396.923 228 328.502 186.872 481.626z" transform="rotate(90 589 589.5)"/>
        <path d="M54 333L197.5 210.607 228 328.502z" transform="rotate(90 589 589.5)"/>
        <path d="M197.5 210.648L54 333 53.5 103.389z" transform="rotate(90 589 589.5)"/>
        <path d="M197.5 210.648L53.5 103.389 232.5.5zM228 328.502L394.5 396.923 379.856 210.607zM232.5.5L387.729 74.325 479.5.5 470.268 133.943 387.729 74.325M589 498.851L782 590.717 589 740z" transform="rotate(90 589 589.5)"/>
        <path d="M379.856 210.607L387.729 74.325 197.5 210.607 379.856 210.607 470.268 133.943 394.5 396.923 634.292 379.674 589 498.851 589 740 844.198 707.724 644 877.94 808.5 1024.335 760.455 778.968 918 905.423 844.198 707.724 1004.187 674.092 782.083 590.5 844.198 707.724 1100.022 832" transform="rotate(90 589 589.5)"/>
        <path d="M644 877.94L590.5 990.37 808.5 1024.335 614 1152z" transform="rotate(90 589 589.5)"/>
        <path d="M502.607 1053L614 1152 590.5 990.37zM808.5 1024.138L918 905.423 997.5 1177.5zM782.083 590.5L853.018 353.5 634.292 379.674 966.5 474.777z" transform="rotate(90 589 589.5)"/>
        <path d="M782 590.717L634.292 379.674 666.92 212 394.5 396.923 589 498.851zM1140.444 989.5L918 905.423 1100.022 832zM997.5 1177.5L1140.444 989.5 1388.5 1176.5z" transform="rotate(90 589 589.5)"/>
        <path d="M1100.022 832L1004.187 674.092 965.791 474.757 852.493 353.803 1068.818 230.917 917.833 165.18 774.971 3.5 666.92 212 917.833 165.18 852.493 353.803 666.92 212 470.268 133.943 774.971 3.5 965.791 474.757z" transform="rotate(90 589 589.5)"/>
    </g>
</svg>
