<svg width="1198" height="906" viewBox="0 0 1198 906" fill="none" xmlns="http://www.w3.org/2000/svg">
<g opacity="0.4">
<path fill-rule="evenodd" clip-rule="evenodd" d="M1005.96 93.1884L1069.68 3.77802L956.514 -73.8553L751.27 91.4168L891.592 147.612L956.514 -73.8553L1005.96 93.1884Z" stroke="white" stroke-width="0.5"/>
<path d="M647.508 -275.571L488.434 -317.41L647.833 -106.753L402.269 -106.196L505.956 91.6625L647.833 -106.753L751.215 91.6625L824.119 -106.753L956.514 -73.8554L1000.27 -239.948L1069.67 3.77798L1157.5 -210.466" stroke="white" stroke-width="0.5"/>
<path fill-rule="evenodd" clip-rule="evenodd" d="M505.957 91.6626L599.409 287.995L751.27 91.6626L505.957 91.6626Z" stroke="white" stroke-width="0.5"/>
<path d="M212.735 -121.093L74.0996 -113.084L212.735 -306.598V-121.093L134.748 -29.1198L402.269 -106.196L384.722 137.736L505.957 91.6624L751.27 91.6624L718.437 351.268L891.592 147.612L1040.52 314.953L790.911 266.078L919.549 426.344L718.437 351.268L684.224 514.019L599.188 288.08L718.437 351.268L844.859 611.509" stroke="white" stroke-width="0.5"/>
<path fill-rule="evenodd" clip-rule="evenodd" d="M891.592 147.612L1005.96 93.1885L1040.52 314.953L1170.38 117.094L891.592 147.612Z" stroke="white" stroke-width="0.5"/>
<path d="M1069.67 3.77795L1170.38 117.094" stroke="white" stroke-width="0.5"/>
<path fill-rule="evenodd" clip-rule="evenodd" d="M1040.31 314.953L919.549 426.344L1196.33 507.217L1040.31 314.953Z" stroke="white" stroke-width="0.5"/>
<path fill-rule="evenodd" clip-rule="evenodd" d="M599.188 288.08L358.096 360.239L384.722 137.736L481.467 475.681L599.188 288.08Z" stroke="white" stroke-width="0.5"/>
<path fill-rule="evenodd" clip-rule="evenodd" d="M599.409 287.995L384.722 137.736L214.152 170.928L402.269 -106.196L505.957 91.6624L599.409 287.995Z" stroke="white" stroke-width="0.5"/>
<path fill-rule="evenodd" clip-rule="evenodd" d="M1005.08 652.629L919.549 426.344L844.859 611.509L1005.08 652.629Z" stroke="white" stroke-width="0.5"/>
<path fill-rule="evenodd" clip-rule="evenodd" d="M1196.33 507.217L1005.08 652.629L1195.31 904.969L1196.33 507.217Z" stroke="white" stroke-width="0.5"/>
<path d="M844.859 611.509L684.224 514.019L481.446 474.96L358.404 359.706L233.395 579.766L166.523 426.174L2.05163 280.845L214.152 170.928L166.523 426.174L358.404 359.706L214.152 170.928L134.748 -29.1198L2.05163 280.845L0.0170898 598.947L233.395 579.766L481.446 475.681" stroke="white" stroke-width="0.5"/>
<path d="M166.523 426.174L0.0170898 598.947" stroke="white" stroke-width="0.5"/>
</g>
</svg>
