<svg xmlns="http://www.w3.org/2000/svg" width="1200" height="1414" viewBox="0 0 1200 1414">
    <g fill="none" fill-rule="evenodd" stroke="#5F5F5F" stroke-width=".5" opacity=".2">
        <path d="M45.712 704.967L178.022 801.199 24.414 855.523z" transform="rotate(90 599.171 599.68)"/>
        <path d="M177.846 801.099L45.712 704.967 231.937 649.017z" transform="rotate(90 599.171 599.68)"/>
        <path d="M231.937 649.017L45.712 704.967.509 558.989zM231.937 649.017L400.66 825.65 400.804 649.017z" transform="rotate(90 599.171 599.68)"/>
        <path d="M177.846 801.099L267.561 1001.78 400.755 825.628zM24.414 855.523L149.429 933.257 177.846 801.099zM149.429 933.257L64.968 1053.926 267.561 1001.78 297.042 1159.004 24.414 1171.893 267.561 1001.78zM600.697 1007.472L511.287 1071.184 433.653 958.023 598.925 752.779 655.121 893.101 433.653 958.023z" transform="rotate(90 599.171 599.68)"/>
        <path d="M231.937 649.017L190.099 489.943 400.755 649.342 401.312 403.777 599.171 507.465 400.755 649.342 599.171 752.723 400.755 825.628 433.653 958.023 267.561 1001.78 511.287 1071.184 297.042 1159.004" transform="rotate(90 599.171 599.68)"/>
        <path d="M54.932 338.75L0.509 558.989 190.099 489.943 401.312 403.777 231.937 334.174 190.099 489.943z" transform="rotate(90 599.171 599.68)"/>
        <path d="M54.932 338.75L200.911 214.244 231.937 334.174z" transform="rotate(90 599.171 599.68)"/>
        <path d="M200.911 214.285L54.932 338.75 54.424 105.174z" transform="rotate(90 599.171 599.68)"/>
        <path d="M200.911 214.285L54.424 105.174 236.515.509zM231.937 334.174L401.312 403.777 386.416 214.244zM236.515.509L394.424 75.608 487.78.509 478.389 136.256 394.424 75.608M599.171 507.465L795.504 600.918 599.171 752.779z" transform="rotate(90 599.171 599.68)"/>
        <path d="M386.416 214.244L394.424 75.608 200.911 214.244 386.416 214.244 478.389 136.256 401.312 403.777 645.245 386.231 599.171 507.465 599.171 752.779 858.776 719.945 655.121 893.101 822.462 1042.024 773.587 792.42 933.852 921.058 858.776 719.945 1021.527 685.733 795.589 600.697 858.776 719.945 1119.018 846.367" transform="rotate(90 599.171 599.68)"/>
        <path d="M655.121 893.101L600.697 1007.472 822.462 1042.024 624.603 1171.893zM511.287 1071.184L624.603 1171.893M822.462 1041.824L933.852 921.058 1014.725 1197.834zM795.589 600.697L867.748 359.604 645.245 386.231 983.19 482.975z" transform="rotate(90 599.171 599.68)"/>
        <path d="M795.504 600.918L645.245 386.231 678.437 215.661 401.312 403.777 599.171 507.465zM1160.138 1006.587L933.852 921.058 1119.018 846.367zM1014.725 1197.834L1160.138 1006.587 1412.477 1196.816z" transform="rotate(90 599.171 599.68)"/>
        <path d="M1119.018 846.367L1021.527 685.733 982.468 482.955 867.215 359.912 1087.274 234.904 933.683 168.032 788.353 3.56 678.437 215.661 933.683 168.032 867.215 359.912 678.437 215.661 478.389 136.256 788.353 3.56 1106.456 1.526 1087.274 234.904 983.19 482.955M933.683 168.032L1106.456 1.526" transform="rotate(90 599.171 599.68)"/>
    </g>
</svg>
