<svg width="66" height="54" viewBox="0 0 66 54" fill="none" xmlns="http://www.w3.org/2000/svg">
<path fill-rule="evenodd" clip-rule="evenodd" d="M7.37887 2.5811C6.11129 3.06236 4.85029 3.54111 3.66494 3.49226C1.60904 3.34332 1.40778 2.03413 1.23466 0.907938C1.1901 0.618077 1.1474 0.340339 1.07543 0.0976278C0.96777 -0.265292 0.252788 0.402527 0.394 1.74546C0.433328 4.87954 2.71067 6.96934 5.41523 5.92047C9.84327 4.34198 10.3516 6.15091 11.0815 8.7483C11.3286 9.62753 11.6011 10.5971 12.0596 11.5562C13.0554 13.6512 15.2661 14.1737 17.4216 13.7012C18.6123 13.4331 19.5755 12.3187 19.789 11.9336C19.9349 11.6704 19.6678 11.7284 19.2524 11.8185C19.06 11.8602 18.8357 11.9089 18.6059 11.9357C15.3749 12.5346 15.0164 9.81055 14.6494 7.02153C14.3581 4.80805 14.0614 2.55361 12.319 1.88677C10.7696 1.29377 9.06839 1.93966 7.37887 2.5811ZM28.3043 41.2848L49.4027 18.2438C48.7097 13.7743 46.5536 9.69008 43.2426 6.60767L42.4726 5.91413L35.3114 13.6972C33.6944 12.5413 31.7694 11.8478 29.6903 11.8478C28.3813 11.8478 27.0723 12.156 25.9173 12.6184C24.7623 13.1578 23.6842 13.9284 22.7602 14.8531C21.0662 16.7026 20.1422 19.0914 20.2962 21.6344C20.3732 23.7921 21.2202 25.7957 22.6062 27.414L15.4451 35.197L16.2151 35.8906C19.4492 39.1271 23.7612 40.9766 28.3043 41.2848ZM64.957 52.8438L65.034 53.9227H64.0329C62.8009 53.9998 61.7229 53.9998 60.7219 53.9998C50.7117 53.9998 42.3956 51.9962 32.2314 42.2095L50.7117 22.0197C61.9539 32.0376 64.4949 40.9766 64.957 52.8438ZM54.0997 43.9819C56.1017 41.7472 55.9477 38.3565 53.7917 36.353C51.5587 34.3494 48.1706 34.5035 46.1686 36.6612C44.1666 38.8959 44.3206 42.2866 46.4766 44.2902C48.7096 46.2937 52.0977 46.2167 54.0997 43.9819Z" fill="white"/>
</svg>
