<svg width="3000" height="500" viewBox="0 0 3000 500" fill="none" xmlns="http://www.w3.org/2000/svg">
<g clip-path="url(#clip0)">
<g opacity="0.4">
<path fill-rule="evenodd" clip-rule="evenodd" d="M1396.74 -31.3L1209.22 147.828L1396.74 147.98V-31.3Z" stroke="white" stroke-opacity="0.4" stroke-width="0.5"/>
<path fill-rule="evenodd" clip-rule="evenodd" d="M1235.28 -88.7268L1022.22 6.52047L1209.24 147.928L1235.28 -88.7268Z" stroke="white" stroke-opacity="0.4" stroke-width="0.5"/>
<path fill-rule="evenodd" clip-rule="evenodd" d="M1094.97 -118.896L966.862 -208.566L1022.22 6.52042L855.304 37.82L841.62 -251.62L1022.22 6.52042L1094.97 -118.896Z" stroke="white" stroke-opacity="0.4" stroke-width="0.5"/>
<path fill-rule="evenodd" clip-rule="evenodd" d="M1016.18 360.2L948.54 265.276L1068.68 182.855L1286.58 358.319L1137.6 417.98L1068.68 182.855L1016.18 360.2Z" stroke="white" stroke-opacity="0.4" stroke-width="0.5"/>
<path d="M1396.74 -31.3L1565.62 -75.7185L1396.4 147.928L1657.1 148.52L1547.02 358.58L1396.4 147.928L1286.64 358.58L1209.24 147.928L1068.68 182.855L1022.22 6.52042L948.54 265.276L855.304 37.82" stroke="white" stroke-opacity="0.4" stroke-width="0.5"/>
<path fill-rule="evenodd" clip-rule="evenodd" d="M1726.14 -219.22L1492.32 -277L1565.62 -75.7185L1657.1 148.52L1731 -31.3L1565.62 -75.7185L1726.14 -219.22Z" stroke="white" stroke-opacity="0.4" stroke-width="0.5"/>
<path fill-rule="evenodd" clip-rule="evenodd" d="M1731 -31.3L1657.1 148.52L1858.32 132.705L1731 -31.3Z" stroke="white" stroke-opacity="0.4" stroke-width="0.5"/>
<path d="M2085.24 -26.4399L2005.51 141.207L2085.24 240.32L1941.12 230.35L2005.51 141.207" stroke="white" stroke-opacity="0.4" stroke-width="0.5"/>
<path fill-rule="evenodd" clip-rule="evenodd" d="M1547.02 358.58L1447.81 567.02L1286.58 358.58L1547.02 358.58Z" stroke="white" stroke-opacity="0.4" stroke-width="0.5"/>
<path d="M1858.32 132.705L2005.51 141.207L1858.32 -64.24V132.705L1941.12 230.35L1657.1 148.52L1675.73 407.495L1547.02 358.58L1286.58 358.58L1321.44 634.194L1137.6 417.98L979.498 595.64L1244.49 543.752L1107.92 713.9L1321.44 634.194L1357.76 806.982L1448.04 567.11L1321.44 634.194L1187.22 910.484" stroke="white" stroke-opacity="0.4" stroke-width="0.5"/>
<path fill-rule="evenodd" clip-rule="evenodd" d="M1137.6 417.98L1016.18 360.2L979.498 595.64L841.62 385.58L1137.6 417.98Z" stroke="white" stroke-opacity="0.4" stroke-width="0.5"/>
<path d="M948.54 265.276L841.62 385.58" stroke="white" stroke-opacity="0.4" stroke-width="0.5"/>
<path fill-rule="evenodd" clip-rule="evenodd" d="M1448.04 567.11L1704 643.719L1675.73 407.495L1573.02 766.28L1448.04 567.11Z" stroke="white" stroke-opacity="0.4" stroke-width="0.5"/>
<path fill-rule="evenodd" clip-rule="evenodd" d="M1447.81 567.02L1675.73 407.495L1856.82 442.734L1657.1 148.52L1547.02 358.58L1447.81 567.02Z" stroke="white" stroke-opacity="0.4" stroke-width="0.5"/>
<path d="M1187.22 910.484L1357.76 806.982L1573.04 765.514L1703.67 643.153L1836.39 876.783L1907.39 713.72L2082 559.429L1856.82 442.734L1907.39 713.72L1703.67 643.153L1856.82 442.734L1941.12 230.35L2082 559.429L2084.16 897.147L1836.39 876.783L1573.04 766.28" stroke="white" stroke-opacity="0.4" stroke-width="0.5"/>
<path fill-rule="evenodd" clip-rule="evenodd" d="M166.66 -31.3L-20.8646 147.828L166.66 147.98V-31.3Z" stroke="white" stroke-opacity="0.4" stroke-width="0.5"/>
<path fill-rule="evenodd" clip-rule="evenodd" d="M5.19995 -88.7268L-207.857 6.52047L-20.8417 147.928L5.19995 -88.7268Z" stroke="white" stroke-opacity="0.4" stroke-width="0.5"/>
<path fill-rule="evenodd" clip-rule="evenodd" d="M-213.9 360.2L-281.54 265.276L-161.401 182.855L56.5 358.319L-92.475 417.98L-161.401 182.855L-213.9 360.2Z" stroke="white" stroke-opacity="0.4" stroke-width="0.5"/>
<path d="M166.66 -31.3L335.544 -75.7185L166.316 147.928L427.023 148.52L316.941 358.58L166.316 147.928L56.5587 358.58L-20.8416 147.928L-161.401 182.855L-207.857 6.52042L-281.54 265.276L-374.776 37.82" stroke="white" stroke-opacity="0.4" stroke-width="0.5"/>
<path fill-rule="evenodd" clip-rule="evenodd" d="M496.06 -219.22L262.24 -277L335.544 -75.7185L427.023 148.52L500.918 -31.3L335.544 -75.7185L496.06 -219.22Z" stroke="white" stroke-opacity="0.4" stroke-width="0.5"/>
<path fill-rule="evenodd" clip-rule="evenodd" d="M500.918 -31.3L427.023 148.52L628.245 132.705L500.918 -31.3Z" stroke="white" stroke-opacity="0.4" stroke-width="0.5"/>
<path d="M855.16 -26.4399L775.429 141.207L855.16 240.32L711.041 230.35L775.429 141.207" stroke="white" stroke-opacity="0.4" stroke-width="0.5"/>
<path fill-rule="evenodd" clip-rule="evenodd" d="M316.941 358.58L217.726 567.02L56.5 358.58L316.941 358.58Z" stroke="white" stroke-opacity="0.4" stroke-width="0.5"/>
<path d="M628.245 132.705L775.429 141.207L628.245 -64.24V132.705L711.041 230.35L427.023 148.52L445.652 407.495L316.941 358.58L56.5001 358.58L91.3582 634.194L-92.475 417.98L-250.582 595.64L14.4146 543.752L-122.156 713.9L91.3582 634.194L127.68 806.982L217.96 567.11L91.3582 634.194L-42.8599 910.484" stroke="white" stroke-opacity="0.4" stroke-width="0.5"/>
<path fill-rule="evenodd" clip-rule="evenodd" d="M217.96 567.11L473.92 643.719L445.652 407.495L342.941 766.28L217.96 567.11Z" stroke="white" stroke-opacity="0.4" stroke-width="0.5"/>
<path fill-rule="evenodd" clip-rule="evenodd" d="M217.726 567.02L445.652 407.495L626.74 442.734L427.023 148.52L316.941 358.58L217.726 567.02Z" stroke="white" stroke-opacity="0.4" stroke-width="0.5"/>
<path d="M-42.86 910.484L127.68 806.982L342.963 765.514L473.593 643.153L606.31 876.783L677.306 713.72L851.92 559.429L626.74 442.734L677.306 713.72L473.593 643.153L626.74 442.734L711.041 230.35L851.92 559.429L854.08 897.147L606.31 876.783L342.963 766.28" stroke="white" stroke-opacity="0.4" stroke-width="0.5"/>
<path fill-rule="evenodd" clip-rule="evenodd" d="M2618.66 -26.3L2431.14 152.828L2618.66 152.98V-26.3Z" stroke="white" stroke-opacity="0.4" stroke-width="0.5"/>
<path fill-rule="evenodd" clip-rule="evenodd" d="M2457.2 -83.7268L2244.14 11.5205L2431.16 152.928L2457.2 -83.7268Z" stroke="white" stroke-opacity="0.4" stroke-width="0.5"/>
<path fill-rule="evenodd" clip-rule="evenodd" d="M2316.89 -113.896L2188.78 -203.566L2244.14 11.5204L2077.22 42.82L2063.54 -246.62L2244.14 11.5204L2316.89 -113.896Z" stroke="white" stroke-opacity="0.4" stroke-width="0.5"/>
<path fill-rule="evenodd" clip-rule="evenodd" d="M2238.1 365.2L2170.46 270.276L2290.6 187.855L2508.5 363.319L2359.52 422.98L2290.6 187.855L2238.1 365.2Z" stroke="white" stroke-opacity="0.4" stroke-width="0.5"/>
<path d="M2618.66 -26.3L2787.54 -70.7185L2618.32 152.928L2879.02 153.52L2768.94 363.58L2618.32 152.928L2508.56 363.58L2431.16 152.928L2290.6 187.855L2244.14 11.5204L2170.46 270.276L2077.22 42.82" stroke="white" stroke-opacity="0.4" stroke-width="0.5"/>
<path fill-rule="evenodd" clip-rule="evenodd" d="M2948.06 -214.22L2714.24 -272L2787.54 -70.7185L2879.02 153.52L2952.92 -26.3L2787.54 -70.7185L2948.06 -214.22Z" stroke="white" stroke-opacity="0.4" stroke-width="0.5"/>
<path fill-rule="evenodd" clip-rule="evenodd" d="M2952.92 -26.3L2879.02 153.52L3080.24 137.705L2952.92 -26.3Z" stroke="white" stroke-opacity="0.4" stroke-width="0.5"/>
<path fill-rule="evenodd" clip-rule="evenodd" d="M2768.94 363.58L2669.73 572.02L2508.5 363.58L2768.94 363.58Z" stroke="white" stroke-opacity="0.4" stroke-width="0.5"/>
<path d="M3080.24 137.705L3227.43 146.207L3080.24 -59.24V137.705L3163.04 235.35L2879.02 153.52L2897.65 412.495L2768.94 363.58L2508.5 363.58L2543.36 639.194L2359.53 422.98L2201.42 600.64L2466.41 548.752L2329.84 718.9L2543.36 639.194L2579.68 811.982L2669.96 572.11L2543.36 639.194L2409.14 915.484" stroke="white" stroke-opacity="0.4" stroke-width="0.5"/>
<path fill-rule="evenodd" clip-rule="evenodd" d="M2359.52 422.98L2238.1 365.2L2201.42 600.64L2063.54 390.58L2359.52 422.98Z" stroke="white" stroke-opacity="0.4" stroke-width="0.5"/>
<path d="M2170.46 270.276L2063.54 390.58" stroke="white" stroke-opacity="0.4" stroke-width="0.5"/>
<path fill-rule="evenodd" clip-rule="evenodd" d="M2669.96 572.11L2925.92 648.719L2897.65 412.495L2794.94 771.28L2669.96 572.11Z" stroke="white" stroke-opacity="0.4" stroke-width="0.5"/>
<path fill-rule="evenodd" clip-rule="evenodd" d="M2669.73 572.02L2897.65 412.495L3078.74 447.734L2879.02 153.52L2768.94 363.58L2669.73 572.02Z" stroke="white" stroke-opacity="0.4" stroke-width="0.5"/>
<path d="M2409.14 915.484L2579.68 811.982L2794.96 770.514L2925.59 648.153L3058.31 881.783L3129.31 718.72L3303.92 564.429L3078.74 447.734L3129.31 718.72L2925.59 648.153L3078.74 447.734L3163.04 235.35L3303.92 564.429L3306.08 902.147L3058.31 881.783L2794.96 771.28" stroke="white" stroke-opacity="0.4" stroke-width="0.5"/>
</g>
</g>
<defs>
<clipPath id="clip0">
<rect width="3000" height="500" fill="white"/>
</clipPath>
</defs>
</svg>
