<svg width="438" height="500" viewBox="0 0 438 500" fill="none" xmlns="http://www.w3.org/2000/svg">
<mask id="mask0" mask-type="alpha" maskUnits="userSpaceOnUse" x="0" y="0" width="438" height="500">
<path d="M0 4.00001C0 1.79087 1.79086 0 4 0H438V500H4.00001C1.79087 500 0 498.209 0 496V4.00001Z" fill="white"/>
</mask>
<g mask="url(#mask0)">
<rect x="-606.995" y="-86" width="1076.31" height="1076.31" fill="#E7FFDB"/>
<path d="M467.309 504.127L386.425 455.101V583.074L467.309 575.755V504.127V504.127Z" fill="#D5FFBF"/>
<path d="M-28.1025 435.566L151.009 511.513L80.1876 481.471L-28.1025 435.566V435.566Z" fill="#E1EAF2"/>
<path d="M281.431 601.627C281.431 601.627 294.548 411.134 294.548 408.201L151.009 511.513L281.431 601.627Z" fill="#B6FF8A"/>
<path d="M281.431 601.627L386.371 454.119L294.494 408.201C294.548 411.134 281.431 601.627 281.431 601.627Z" fill="#C9FFA7"/>
<path d="M386.425 583.316V583.074V455.101V454.119L281.431 601.627L386.425 583.316V583.316Z" fill="#E7FFDB"/>
<path d="M386.425 454.119V303.678C386.425 304.66 294.548 408.201 294.548 408.201L386.425 454.119Z" fill="#E3FFD6"/>
<path d="M-28.1024 435.566L-90.932 587.595C-90.9361 587.639 -90.9361 587.684 -90.932 587.729L69.8551 588.456L151.063 511.527L-28.1024 435.566Z" fill="#D8FFC0"/>
<path d="M294.548 408.201L251.899 247.024L151.009 511.513L294.548 408.201V408.201Z" fill="#E3FFD6"/>
<path d="M1.6439 270.03L2.00715 271.012V271.012C1.80534 270.622 1.80534 270.285 1.6439 270.03Z" fill="#7EA7C9"/>
<path d="M1.64411 270.03L1.42885 269.491C1.53282 270.028 1.72853 270.542 2.00736 271.012L1.64411 270.03Z" fill="#E6EEF5"/>
<path d="M294.548 408.201C294.548 408.201 386.424 304.606 386.424 303.678L251.886 247.024L294.548 408.201Z" fill="#E7FFDB"/>
<path d="M386.424 303.678V20.8237C382.038 36.4167 251.886 247.024 251.886 247.024L386.424 303.678Z" fill="#D5FFBF"/>
<path d="M-28.1027 435.566V435.566V435.566L1.41507 269.518L-154.973 375.965L-28.1027 435.566Z" fill="#E7FFDB"/>
<path d="M1.42871 269.491L-181.221 119.535L-254.491 330.061L1.42871 269.491V269.491Z" fill="#D8FFC0"/>
<path d="M-154.972 375.965L1.42871 269.491L-254.491 330.061L-154.972 375.965V375.965Z" fill="#E3FFD6"/>
<path d="M1.42897 269.491L58.3119 107.816L-181.221 119.535L1.42897 269.491V269.491Z" fill="#D5FFBF"/>
<path d="M120.038 -86L386.425 19.8819L333.04 -86H120.038V-86Z" fill="#D8FFC0"/>
<path d="M-61.4275 -86L-181.221 119.535L58.3119 107.816L-51.7542 -86H-61.4275V-86Z" fill="#CAFFAB"/>
<path d="M-51.7544 -86L58.3117 107.816L85.9997 -86H-51.7544V-86Z" fill="#D8FFC0"/>
<path d="M58.3115 107.816L251.899 247.024C251.899 247.024 382.038 36.4302 386.424 20.8237V19.8954L306.966 39.9416C209.829 65.9076 58.3115 107.816 58.3115 107.816Z" fill="#C9FFA7"/>
<path d="M85.9996 -86L58.3115 107.816L235.485 57.9967L99.884 -86H85.9996V-86Z" fill="#E7FFDB"/>
<path d="M99.8843 -86L235.486 57.9967L306.966 39.9416L386.425 19.8819L120.038 -86H99.8843V-86Z" fill="#E3FFD6"/>
<path d="M467.309 49.4132L386.425 16.9624L467.309 157.3V49.4132V49.4132Z" fill="#C9FFA7"/>
<path d="M466.798 -86H386.425V16.9624C386.425 15.5363 426.302 34.1699 467.309 53.7049V-84.9506L466.798 -86Z" fill="#B6FF8A"/>
<path d="M386.424 -86H333.04L386.424 19.8954V302.709L467.309 172.086V157.515C449.819 128.024 386.424 20.7564 386.424 16.9624V-86Z" fill="#E3FFD6"/>
<path d="M2.00743 271.025V271.025C1.72859 270.556 1.53289 270.041 1.42891 269.505L-28.0889 435.539V435.539L80.2013 481.444L151.022 511.486C151.022 511.486 11.8826 291.623 2.00743 271.025Z" fill="#E3FFD6"/>
<path d="M151.009 511.513L251.899 247.024L96.0498 267.527L151.009 511.513V511.513Z" fill="#D8FFC0"/>
<path d="M251.899 247.024L58.3115 107.816L96.0496 267.527L251.899 247.024V247.024Z" fill="#D5FFBF"/>
<path d="M151.009 511.513L58.3117 107.816L1.42871 269.491L151.009 511.513V511.513Z" fill="#E7FFDB"/>
<path d="M467.309 172.086L386.425 302.709L467.309 307.216V172.086V172.086Z" fill="#C9FFA7"/>
<path d="M467.309 390.711C425.939 423.78 386.425 455.101 386.425 455.101L467.309 504.127V390.711Z" fill="#E3FFD6"/>
<path d="M467.309 308.158L386.425 302.709V455.101L467.309 389.661V308.158V308.158Z" fill="#C1FF9C"/>
<g style="mix-blend-mode:multiply" opacity="0.6">
<path fill-rule="evenodd" clip-rule="evenodd" d="M0 4.00001C0 1.79087 1.79086 0 4 0H438V500H4.00001C1.79087 500 0 498.209 0 496V4.00001Z" fill="#93D500"/>
</g>
</g>
</svg>
