<svg width="438" height="500" viewBox="0 0 438 500" fill="none" xmlns="http://www.w3.org/2000/svg">
<mask id="path-1-inside-1" fill="white">
<path d="M0 4.00001C0 1.79087 1.79086 0 4 0H438V500H4.00001C1.79087 500 0 498.209 0 496V4.00001Z"/>
</mask>
<path d="M0 4.00001C0 1.79087 1.79086 0 4 0H438V500H4.00001C1.79087 500 0 498.209 0 496V4.00001Z" stroke="white" stroke-width="10" mask="url(#path-1-inside-1)"/>
<mask id="mask0" mask-type="alpha" maskUnits="userSpaceOnUse" x="0" y="0" width="438" height="500">
<mask id="path-2-inside-2" mask-type="luminance" fill="white">
<path d="M0 4.00001C0 1.79087 1.79086 0 4 0H438V500H4.00001C1.79087 500 0 498.209 0 496V4.00001Z"/>
</mask>
<path d="M0 4.00001C0 1.79087 1.79086 0 4 0H438V500H4.00001C1.79087 500 0 498.209 0 496V4.00001Z" fill="white" stroke="white" stroke-width="10" mask="url(#path-2-inside-2)"/>
</mask>
<g mask="url(#mask0)">
<rect x="-482.022" y="-77.3568" width="1071.94" height="1071.94" fill="#F0FCFF"/>
<path d="M35.6846 594.187L98.2591 442.776V442.776C97.1336 445.281 37.7079 589.283 35.6846 594.187Z" fill="#ADC7DC"/>
<path d="M98.2593 442.789L276.644 518.428L206.11 488.507L98.2593 442.789V442.789Z" fill="#E1EAF2"/>
<path d="M221.908 275.432L184.323 116.37L276.644 518.428L221.908 275.432V275.432Z" fill="#E6EEF5"/>
<path d="M406.536 608.176C406.536 608.176 419.6 418.456 419.6 415.535L276.644 518.428L406.536 608.176Z" fill="#D0F3FE"/>
<path d="M406.536 608.176L511.05 461.267L419.547 415.535C419.6 418.456 406.536 608.176 406.536 608.176Z" fill="#DAF6FF"/>
<path d="M511.104 589.94V589.698V462.245V461.267L406.536 608.176L511.104 589.94V589.94Z" fill="#F0FCFF"/>
<path d="M511.104 461.267V311.436C511.104 312.414 419.6 415.535 419.6 415.535L511.104 461.267Z" fill="#EDFAFF"/>
<path d="M98.2592 442.789L35.6847 594.201C35.6806 594.245 35.6806 594.29 35.6847 594.335L195.819 595.058L276.697 518.441L98.2592 442.789Z" fill="#E5F9FF"/>
<path d="M419.6 415.535L377.125 255.012L276.644 518.428L419.6 415.535V415.535Z" fill="#EDFAFF"/>
<path d="M127.885 277.925L128.247 278.903V278.903C128.046 278.514 128.046 278.179 127.885 277.925Z" fill="#7EA7C9"/>
<path d="M98.2592 442.789L-119.586 576.782L35.5909 594.321C35.5868 594.277 35.5868 594.232 35.5909 594.187C37.7079 589.283 97.1337 445.281 98.2592 442.789Z" fill="#D0F3FE"/>
<path d="M127.885 277.924L127.671 277.389C127.774 277.923 127.969 278.435 128.247 278.903L127.885 277.924Z" fill="#E6EEF5"/>
<path d="M419.6 415.535C419.6 415.535 511.104 312.361 511.104 311.436L377.111 255.012L419.6 415.535Z" fill="#F0FCFF"/>
<path d="M276.644 518.428L184.323 116.37L127.671 277.389" fill="#F0FCFF"/>
<path d="M511.104 311.436V29.73C506.736 45.2598 377.111 255.012 377.111 255.012L511.104 311.436Z" fill="#E4F7FF"/>
<path d="M276.644 518.428L377.125 255.012L221.908 275.432L276.644 518.428V518.428Z" fill="#E4F7FF"/>
<path d="M377.125 255.012L184.323 116.37L221.908 275.432L377.125 255.012V255.012Z" fill="#E4F7FF"/>
<path d="M127.671 277.389L-54.2376 128.04L-127.21 337.712L127.671 277.389V277.389Z" fill="#E5F9FF"/>
<path d="M127.671 277.389L184.323 116.37L-54.2378 128.04L127.671 277.389V277.389Z" fill="#E4F7FF"/>
<path d="M245.798 -76.6601L511.104 28.7921L457.935 -76.6601H245.798V-76.6601Z" fill="#E5F9FF"/>
<path d="M-213.702 -76.6601L-178.409 44.8578L53.948 -76.6601H-213.702V-76.6601Z" fill="#D6F5FE"/>
<path d="M65.0692 -76.6601L-54.2378 128.04L184.323 116.37L74.7033 -76.6601H65.0692V-76.6601Z" fill="#DBF7FF"/>
<path d="M74.7034 -76.6601L184.323 116.37L211.898 -76.6601H74.7034V-76.6601Z" fill="#E5F9FF"/>
<path d="M184.323 116.37L377.125 255.012C377.125 255.012 506.736 45.2732 511.104 29.73V28.8055L184.323 116.37Z" fill="#DAF6FF"/>
<path d="M211.898 -76.6601L184.323 116.37L360.778 69.432L225.726 -76.6601H211.898V-76.6601Z" fill="#F0FDFF"/>
<path d="M225.727 -76.6601L360.778 69.432L511.104 28.7921L245.799 -76.6601H225.727V-76.6601Z" fill="#F0FDFF"/>
<path d="M53.9478 -76.6601L-178.409 44.8578L-54.2378 128.04L65.0692 -76.6601H53.9478V-76.6601Z" fill="#D6F5FE"/>
<path d="M128.247 278.916V278.916C127.969 278.448 127.774 277.936 127.671 277.402L98.2727 442.762V442.762L206.123 488.48L276.657 518.401C276.657 518.401 138.082 299.43 128.247 278.916Z" fill="#E5F9FF"/>
<path d="M127.671 277.389L276.644 518.428Z" fill="#F0FCFF"/>
<path d="M98.2594 442.789V442.789L-127.21 337.712L-119.586 576.808L98.2594 442.789V442.789V442.789Z" fill="#DBF7FF"/>
<path d="M98.2593 442.789V442.789V442.789L127.657 277.415L-28.0957 383.43L98.2593 442.789Z" fill="#F0FCFF"/>
<path d="M-28.0956 383.43L127.671 277.389L-127.21 337.712L-28.0956 383.43V383.43Z" fill="#EDFAFF"/>
</g>
</svg>
