<svg xmlns="http://www.w3.org/2000/svg" width="64" height="41" viewBox="0 0 64 41">
    <g fill="#93D500">
        <path d="M25.134 34.776H2.89c-1.382 0-2.504 1.216-2.504 2.707 0 1.492 1.122 2.707 2.504 2.707h22.244c1.382 0 2.504-1.215 2.504-2.707 0-1.491-1.122-2.707-2.504-2.707zM12.086 28.856c1.064 1.073 2.788 1.073 3.852 0l7.703-7.774c1.064-1.074 1.064-2.814 0-3.887-1.063-1.073-2.788-1.073-3.851 0l-3.054 3.082V2.958c0-1.518-1.22-2.748-2.724-2.748-1.504 0-2.723 1.23-2.723 2.748v17.319l-3.055-3.082c-1.063-1.073-2.788-1.073-3.851 0-1.064 1.073-1.064 2.813 0 3.887l7.703 7.774z" transform="translate(18.556 .107)"/>
    </g>
</svg>
