<svg width="438" height="500" viewBox="0 0 438 500" fill="none" xmlns="http://www.w3.org/2000/svg">
<path d="M0.5 0.5H437.5V499.5H0.5V0.5Z" stroke="white"/>
<mask id="mask0" mask-type="alpha" maskUnits="userSpaceOnUse" x="0" y="0" width="438" height="500">
<path d="M0.5 0.5H437.5V499.5H0.5V0.5Z" fill="white" stroke="white"/>
</mask>
<g mask="url(#mask0)">
<rect x="-318" y="-252" width="868" height="867.913" fill="#2A2A2A"/>
<path d="M239.343 361.036L63.3774 372.276L200.977 421.318L239.343 361.036Z" fill="#313131"/>
<path d="M550 425.572L433.851 465.684L484.77 478.455L550 494.827V425.572Z" fill="#2A2A2A"/>
<path d="M550 494.827L433.851 465.684L433.731 465.727L450.82 479.898L527.638 542.491L527.66 542.459L550 513.815V494.827Z" fill="#343434"/>
<path d="M394.802 600.343L484.77 561.414L485.269 561.197L514.51 548.546L514.955 548.339L527.042 543.121L527.204 543.055L527.931 542.741L527.638 542.491L450.82 479.898" fill="#343434"/>
<path d="M450.82 479.898L433.514 465.803L433.167 465.923L433.297 465.619L432.863 465.272L432.842 465.337L356.436 402.993L385.536 548.339L384.722 548.48V548.491L394.802 600.343" fill="#313131"/>
<path d="M433.515 465.803L433.721 465.727L433.515 465.803Z" fill="#D0DFEB"/>
<path d="M433.829 369.325L356.436 402.993L484.77 347.452L433.829 369.325Z" fill="#E1EAF2"/>
<path d="M356.436 402.993C356.436 402.993 400.096 303.173 400.096 302.544L356.436 402.993Z" fill="#343434"/>
<path d="M99.8008 291.216L150.47 168.611C149.559 170.64 101.439 287.245 99.8008 291.216Z" fill="#ADC7DC"/>
<path d="M-32.1025 83.5363L150.47 168.622L48.1549 120.556L-32.1025 83.5363Z" fill="#C4D7E6"/>
<path d="M150.471 168.622L294.917 229.87L237.802 205.642L150.471 168.622Z" fill="#E1EAF2"/>
<path d="M432.863 465.272L433.297 465.619L484.77 347.452L432.863 465.272Z" fill="#D3E1ED"/>
<path d="M384.722 548.502L388.997 548.339L356.447 401.864C356.447 401.864 303.466 492.169 303.466 490.4" fill="#333333"/>
<path d="M303.51 490.444L267.705 548.339L254.565 569.616L384.722 548.48" fill="#333333"/>
<path d="M303.51 490.444C303.51 490.368 303.456 490.097 303.391 489.749V489.814L303.51 490.444Z" fill="#E6EEF5"/>
<path d="M304.595 489.836L192.655 512.068L254.565 571.982L304.595 489.836Z" fill="#2D2D2D"/>
<path d="M117.617 430.769L122.26 548.339L189.78 509.355C189.064 508.173 117.617 430.769 117.617 430.769Z" fill="#313131"/>
<path d="M-16.9778 467.811L-10.9452 496.867L-10.7499 496.943L-0.0952415 548.339L5.15616 573.75L21.6048 548.339L87.7898 446.132L-31.8857 396.494C-31.8857 395.745 -23.1732 437.832 -16.9778 467.811Z" fill="#333333"/>
<path d="M-10.5326 497.171L-10.7279 497.095L-10.8147 497.062L-83.7158 465.858L-16.1746 548.535L4.72253 574.108L-0.322723 548.654L-10.5326 497.171Z" fill="#333333"/>
<path d="M356.436 402.993L432.842 465.337L432.863 465.272L484.77 347.452L356.436 402.993Z" fill="#333333"/>
<path d="M-31.8857 396.494L63.3773 372.276L-25.9291 277.144L-31.8857 396.494Z" fill="#2D2D2D"/>
<path d="M400.096 302.544C400.096 303.14 356.436 402.993 356.436 402.993L433.829 370.443L400.096 302.544Z" fill="#343434"/>
<path d="M484.77 347.452L400.096 302.544L433.829 370.41L484.77 347.452Z" fill="#2A2A2A"/>
<path d="M484.77 347.441V346.66V287.777L400.096 302.544L484.77 347.452V347.441Z" fill="#333333"/>
<path d="M351.141 348.048L283.665 410.089L356.436 402.993L400.096 302.544L351.141 348.048Z" fill="#2D2D2D"/>
<path d="M200.977 421.318L283.665 410.089L239.343 361.036L200.977 421.318Z" fill="#333333"/>
<path d="M283.665 410.089L351.141 348.048L239.343 361.036L283.665 410.089Z" fill="#2B2B2B"/>
<path d="M239.343 361.036L351.141 348.048L294.916 229.87L239.343 361.036Z" fill="#2D2D2D"/>
<path d="M-25.9287 277.144L63.3776 372.276L99.7577 291.325L-25.9287 277.144Z" fill="#2B2B2B"/>
<path d="M400.096 302.543L484.726 183.584L410.632 146.553C410.675 148.918 400.096 302.543 400.096 302.543Z" fill="#2D2D2D"/>
<path d="M484.77 287.777V287.581V184.376V183.584L400.096 302.544L484.77 287.777Z" fill="#343434"/>
<path d="M484.77 183.584V62.2594C484.77 63.0514 410.675 146.553 410.675 146.553L484.77 183.584Z" fill="#333333"/>
<path d="M150.47 168.622L99.8008 291.227C99.7975 291.263 99.7975 291.299 99.8008 291.335L230.554 291.921L294.96 229.881L150.47 168.622Z" fill="#313131"/>
<path d="M410.675 146.553L376.281 16.57L294.917 229.87L410.675 146.553Z" fill="#333333"/>
<path d="M174.46 35.1236L174.753 35.9156C174.59 35.601 174.59 35.3297 174.46 35.1236Z" fill="#7EA7C9"/>
<path d="M150.471 168.622L-25.9287 277.122L99.7251 291.325C99.7218 291.289 99.7218 291.252 99.7251 291.216C101.439 287.245 149.559 170.64 150.471 168.622Z" fill="#2A2A2A"/>
<path d="M174.46 35.1235L174.286 34.6895C174.37 35.122 174.528 35.5368 174.753 35.9156L174.46 35.1235Z" fill="#E6EEF5"/>
<path d="M174.286 34.6895L150.481 168.6L294.917 229.87C294.917 229.87 174.265 34.8089 174.286 34.6895Z" fill="#333333"/>
<path d="M410.675 146.553C410.675 146.553 484.77 63.008 484.77 62.2594L376.27 16.57L410.675 146.553Z" fill="#343434"/>
<path d="M150.47 168.622L-32.1025 83.5363L-25.9289 277.144L150.47 168.622Z" fill="#2E2E2E"/>
<path d="M484.77 62.2594V-165.851C481.232 -153.276 376.27 16.57 376.27 16.57L484.77 62.2594Z" fill="#313131"/>
<path d="M174.286 34.6895L26.9866 -86.2446L-32.1025 83.5362L174.286 34.6895Z" fill="#313131"/>
<path d="M174.286 34.6895L-32.1025 83.5145L150.47 168.6L174.286 34.6895Z" fill="#343434"/>
<path d="M174.286 34.6896L220.16 -95.6949L26.9868 -86.2445L174.286 34.6896Z" fill="#313131"/>
<path d="M-32.1024 83.5362L26.9867 -86.2446L-113.25 7.10883L-32.1024 83.5362Z" fill="#333333"/>
<path d="M220.16 -95.6949L376.281 16.5701C376.281 16.5701 481.233 -153.265 484.77 -165.851V-166.6L220.16 -95.6949Z" fill="#2D2D2D"/>
<path d="M-15.9466 548.339L-84.1497 466.216L-123.839 548.339L-136.403 574.347L-134.331 574.336L-41.3031 573.956L5.15663 573.75L-15.9466 548.339Z" fill="#343434"/>
<path d="M484.77 347.452L432.212 465.619L433.167 465.923L433.731 465.728L433.851 465.684L550 425.572V399.315L484.77 347.452Z" fill="#313131"/>
<path d="M294.916 229.87L220.16 -96.7799L174.286 34.6895L294.916 229.87Z" fill="#343434"/>
<path d="M220.16 -95.6949L294.917 229.87L376.281 16.5701L220.16 -95.6949Z" fill="#313131"/>
<path d="M152.022 366.363L239.343 361.036L294.916 229.87L152.022 366.363Z" fill="#313131"/>
<path d="M99.7575 291.325L63.3774 372.276L152.022 366.363L99.7575 291.325Z" fill="#343434"/>
<path d="M99.7573 291.325L152.022 366.363L230.511 291.91L99.7573 291.325Z" fill="#2D2D2D"/>
<path d="M303.13 490.183L200.977 421.318L189.726 509.355L192.655 512.068L303.51 490.444L303.13 490.183Z" fill="#313131"/>
<path d="M303.39 489.749C303.455 490.097 303.51 490.368 303.51 490.444C303.51 492.212 356.436 402.993 356.436 402.993L283.665 410.089C283.665 410.089 301.817 481.992 303.39 489.749Z" fill="#2A2A2A"/>
<path d="M303.13 490.14L303.51 490.4L303.358 489.771L283.665 410.045L200.977 421.275C200.337 420.168 296.392 485.594 303.13 490.14Z" fill="#2D2D2D"/>
<path d="M351.141 348.005L400.096 302.5C400.096 302.5 297.77 232.387 294.917 229.805L351.141 348.005Z" fill="#2B2B2B"/>
<path d="M400.096 302.543C400.096 302.543 410.675 148.918 410.675 146.553L294.917 229.87L400.096 302.543Z" fill="#2A2A2A"/>
<path d="M63.4209 372.298C64.1587 373.025 72.9472 382.519 85.5766 396.168L117.617 430.725C117.617 430.725 189.064 508.129 189.726 509.312L200.977 421.275C200.977 421.275 65.9164 374.468 63.4209 372.298Z" fill="#343434"/>
<path d="M21.6157 548.339L5.15625 573.75L122.26 548.339L87.8549 446.132L21.6157 548.339Z" fill="#2D2D2D"/>
<path d="M87.8549 446.132L63.3773 372.276L-31.8857 396.494L87.8549 446.132Z" fill="#2B2B2B"/>
<path d="M85.5765 396.212L63.3774 372.276L122.26 548.339L117.617 430.769L85.5765 396.212Z" fill="#282828"/>
<path d="M-113.25 7.10884L26.9867 -86.2446L-73.8206 -153.211" fill="#343434"/>
</g>
</svg>
