<svg xmlns="http://www.w3.org/2000/svg" width="1199" height="1414" viewBox="0 0 1199 1414" fill="none">
  <path fill-rule="evenodd" clip-rule="evenodd" d="M639.888 0.87034L494.321 45.922L494.249 45.6809L494.041 45.9666L343.701 24.7109L343.578 24.3644L343.39 24.6669L343.143 24.632L343.24 24.9074L265.667 149.596L145.147 65.2859L144.593 64.8983L144.762 65.5531L196.592 266.811L27.1767 24.7939L26.6814 24.0862L26.7222 24.949L39.6183 297.577L39.6318 297.864L39.7139 297.848L127.429 511.717L127.385 511.747L127.418 511.792L26.8707 624.863L26.4717 624.82L26.7629 625.263L156.598 822.961L156.232 823.372L156.522 823.315L0.975672 1014.9L0.766022 1014.74L0.76709 1015.16L0.317871 1015.71L0.76817 1015.58L1.78514 1413L1.78705 1413.74L2.23474 1413.15L192.516 1160.88L352.739 1119.78L353.015 1119.71L352.988 1119.64L513.227 1022.45L513.331 1022.94L513.584 1022.27L715.745 983.35L716.056 983.846L716.354 984.32L716.433 984.045L964.301 1087.99L964.505 1088.36L964.634 1088.06L1197.96 1107.23L1198.23 1107.25L1198.23 1106.98L1196.2 788.988L1196.39 788.822L1196.14 788.695L1063.61 479.298L1063.9 479.381L1063.75 479.202L1198.98 488.553L1199.55 488.592L1199.19 488.146L1124.15 394.913L1199.14 237.315L1199.48 237.371L1199.22 236.913L1094.58 54.9645L1094.78 54.6957L1094.42 54.6964L1094.3 54.4922L1094.15 54.697L860.688 55.2051L860.304 54.7559L860.314 55.134L640.549 0.857028L640.634 0.639526L640.205 0.772122L639.817 0.676273L639.888 0.87034ZM513.118 1021.93L353.272 1118.89L479.074 860.065L513.118 1021.93ZM715.46 982.896L513.791 1021.72L598.538 796.671L715.46 982.896ZM716.171 982.76L716.322 982.618L756.158 843.539L599.047 796.542L715.987 982.795L716.171 982.76ZM716.572 983.56L716.764 982.888L839.108 868.353L839.533 868.48L963.896 1087.28L716.572 983.56ZM717.032 981.953L838.553 868.187L756.637 843.683L717.032 981.953ZM839.213 867.569L839.35 867.39L812.965 647.028L756.775 843.202L838.976 867.791L839.213 867.569ZM839.87 867.533L839.883 867.641L1031.06 933.829L983.587 679.558L839.87 867.533ZM839.949 868.193L839.951 868.202L964.446 1087.24L1031.05 934.354L839.949 868.193ZM813.355 646.078L839.785 866.821L983.286 679.128L813.355 646.078ZM1062.82 479.138L983.671 678.429L796.105 402.267L1062.77 479.054L1062.71 479.13L1062.82 479.138ZM1063.17 478.257L1063.23 478.408L1123.39 395.171L985.716 387.222L1063.1 478.433L1063.17 478.257ZM192.253 1160.26L277.516 934.802L277.181 934.927L277.253 934.838L1.56328 1015.35L192.253 1160.26ZM277.937 933.688L278.017 933.886L406.031 774.486L157.61 823.103L277.842 933.94L277.937 933.688ZM352.698 1118.92L278.28 934.538L278.44 934.491L278.414 934.467L478.67 859.752L352.698 1118.92ZM795.323 402.729L692.117 599.56L812.789 645.395L795.323 402.729ZM691.891 600.009L598.894 795.279L812.536 645.833L691.891 600.009ZM813.301 645.559L795.826 402.746L983.182 678.598L813.301 645.559ZM812.632 646.377L598.811 795.947L598.81 795.949L756.296 843.059L812.632 646.377ZM597.969 796.058L597.942 796.115L479.371 858.909L446.68 600.572L597.969 796.058ZM598.21 795.553L691.369 599.944H446.826L598.21 795.553ZM691.732 599.218L795.097 402.084L550.385 401.529V401.577L550.332 401.577L691.732 599.218ZM156.981 823.544L157.06 823.664L157.102 823.395L157.139 823.349L277.45 934.259L1.71643 1014.78L156.981 823.544ZM27.4805 624.93L127.657 512.275L127.779 512.572L127.835 512.378L191.221 601.282L184.85 642.147L27.4805 624.93ZM157.29 822.184L305.409 655.84L185.271 642.696L157.29 822.184ZM305.521 655.178L240.959 435.06L191.784 601.086L305.521 655.178ZM406.787 773.829L306.334 655.747L446.08 599.812L478.815 858.498L406.999 774.079L407.277 773.733L406.787 773.829ZM691.279 599.444H446.784L549.844 401.754L691.279 599.444ZM1062.45 478.443L796.904 401.976L985.04 387.198L1062.45 478.443ZM984.898 201.756V386.209L865.582 232.607L984.898 201.756ZM984.898 200.655L985.131 200.981L1093.78 55.1978L861.113 55.7042L984.898 200.755V200.655ZM1123.82 394.457L985.709 201.787L1198.63 237.23L1123.82 394.457ZM865.218 232.954L795.896 401.554L984.666 386.726L865.218 232.954ZM864.812 232.628L709.719 190.994L795.511 401.176L864.812 232.628ZM1198.52 236.704L985.551 201.254L1094.25 55.4013L1198.52 236.704ZM860.841 56.1547L865.393 232.139L984.664 201.3L860.841 56.1547ZM860.337 56.0013L864.892 232.132L709.808 190.5L860.337 56.0013ZM795.137 401.584L709.231 191.122L550.385 400.933V401.029L795.137 401.584ZM708.968 190.449L640.205 1.74072L550.546 232.093L708.968 190.449ZM550.517 232.861L550.449 232.636L708.661 191.047L550.385 400.105V232.814L550.517 232.861ZM549.885 233.044V400.765L549.816 400.856L549.777 400.801L549.634 401.076L374.029 400.933L549.885 233.044ZM373.751 401.433L549.373 401.576L446.412 599.077L373.751 401.433ZM197.604 268.719L372.859 401.162L241.139 433.874L197.604 268.719ZM40.2157 297.754L196.827 268.404L127.694 511.047L40.2157 297.754ZM373.27 401.575L445.721 598.648L241.509 434.297L373.27 401.575ZM197.169 269.029L240.673 434.069L128.167 511.211L197.169 269.029ZM397.17 178.453L197.783 267.54L265.864 150.235L397.17 178.453ZM265.339 150.122L265.402 150.021L145.415 66.0832L197.268 267.431L265.35 150.124L265.339 150.122ZM398.047 177.838L343.889 25.2425L493.708 46.4245L493.692 46.4465L398.047 177.838ZM343.454 25.5107L266.139 149.782L397.409 177.993L343.454 25.5107ZM549.669 232.56L373.765 400.494L398.184 178.71L549.669 232.56ZM639.792 1.42341L550.166 231.693L494.466 46.4008L639.792 1.42341ZM494.06 46.7898L549.754 232.059L398.391 178.253L494.06 46.7898ZM397.674 178.775L197.667 268.139L373.227 400.813L397.674 178.775ZM196.751 267.909L27.2624 25.7882L40.1041 297.267L196.751 267.909ZM128.088 511.872L240.52 434.781L191.389 600.657L128.088 511.872ZM445.827 599.375L241.424 434.871L306.08 655.309L445.827 599.375ZM860.053 55.5845L709.405 190.189L640.608 1.38666L860.053 55.5845ZM1123.87 395.359L1063.64 478.693L1198.45 488.014L1123.87 395.359ZM478.747 859.19L406.681 774.476L278.709 933.823L478.747 859.19ZM406.224 773.939L305.914 656.024L157.593 822.597L406.224 773.939ZM479.452 859.432L513.468 1021.16L598.015 796.642L479.452 859.432ZM985.398 386.703L1123.35 394.668L985.398 202.211V386.703ZM304.475 655.234L185.348 642.201L191.679 601.59L304.475 655.234ZM27.4721 625.432L184.773 642.641L156.765 822.305L27.4721 625.432ZM277.953 935.062L192.773 1160.3L352.338 1119.37L277.953 935.062ZM1.26862 1015.75L192.019 1160.71L2.28323 1412.26L1.26862 1015.75ZM1195.44 788.333L1063.19 479.567L984.045 678.842L1195.44 788.333ZM1197.73 1106.36L1031.75 934.22L1195.7 789.427L1197.73 1106.36ZM1197.34 1106.68L1031.46 934.648L964.845 1087.58L1197.34 1106.68ZM1031.55 933.727L1195.51 788.93L984.069 679.417L1031.55 933.727Z" fill="url(#paint0_linear)"/>
  <defs>
    <linearGradient id="paint0_linear" x1="599.936" y1="0.639526" x2="599.936" y2="1413.74" gradientUnits="userSpaceOnUse">
      <stop stop-color="#5F5F5F" stop-opacity="0"/>
      <stop offset="0.171875" stop-color="#5F5F5F" stop-opacity="0.04"/>
      <stop offset="1" stop-color="#5F5F5F" stop-opacity="0.4"/>
    </linearGradient>
  </defs>
</svg>
