<svg width="3000" height="1413" viewBox="0 0 3000 1413" fill="none" xmlns="http://www.w3.org/2000/svg">
<g clip-path="url(#clip0)">
<path fill-rule="evenodd" clip-rule="evenodd" d="M1539.57 0.230814L1394 45.2824L1393.93 45.0414L1393.72 45.3271L1243.38 24.0714L1243.26 23.7248L1243.07 24.0274L1242.83 23.9925L1242.92 24.2678L1165.35 148.956L1044.83 64.6464L1044.28 64.2588L1044.44 64.9136L1096.27 266.171L926.859 24.1543L926.363 23.4467L926.404 24.3095L939.3 296.937L939.314 297.224L939.396 297.209L1027.11 511.078L1027.07 511.108L1027.1 511.153L926.553 624.224L926.154 624.18L926.445 624.623L1056.28 822.322L1055.91 822.733L1056.2 822.676L900.658 1014.26L900.448 1014.1L900.449 1014.52L900 1015.07L900.45 1014.94L901.467 1412.36L901.469 1413.1L901.917 1412.51L1092.2 1160.24L1252.42 1119.14L1252.7 1119.07L1252.67 1119L1412.91 1021.81L1413.01 1022.3L1413.27 1021.63L1615.43 982.711L1615.74 983.206L1616.04 983.681L1616.12 983.405L1863.98 1087.36L1864.19 1087.72L1864.32 1087.42L2097.64 1106.59L2097.92 1106.61L2097.91 1106.34L2095.88 788.349L2096.07 788.183L2095.82 788.056L1963.3 478.658L1963.59 478.741L1963.43 478.563L2098.67 487.913L2099.24 487.952L2098.88 487.507L2023.83 394.273L2098.83 236.676L2099.16 236.732L2098.9 236.274L1994.26 54.325L1994.46 54.0561L1994.1 54.0569L1993.99 53.8527L1993.83 54.0575L1760.37 54.5656L1759.99 54.1164L1760 54.4945L1540.23 0.217502L1540.32 0L1539.89 0.132596L1539.5 0.0367468L1539.57 0.230814ZM1412.8 1021.29L1252.95 1118.25L1378.76 859.426L1412.8 1021.29ZM1615.14 982.257L1413.47 1021.08L1498.22 796.032L1615.14 982.257ZM1615.85 982.12L1616 981.979L1655.84 842.9L1498.73 795.902L1615.67 982.155L1615.85 982.12ZM1616.25 982.921L1616.45 982.249L1738.79 867.713L1739.22 867.84L1863.58 1086.64L1616.25 982.921ZM1616.71 981.313L1738.24 867.547L1656.32 843.043L1616.71 981.313ZM1738.9 866.93L1739.03 866.751L1712.65 646.388L1656.46 842.562L1738.66 867.152L1738.9 866.93ZM1739.55 866.893L1739.57 867.001L1930.74 933.189L1883.27 678.918L1739.55 866.893ZM1739.63 867.553L1739.63 867.563L1864.13 1086.6L1930.73 933.714L1739.63 867.553ZM1713.04 645.439L1739.47 866.181L1882.97 678.488L1713.04 645.439ZM1962.5 478.498L1883.35 677.789L1695.79 401.627L1962.45 478.414L1962.39 478.491L1962.5 478.498ZM1962.85 477.617L1962.92 477.768L2023.07 394.531L1885.4 386.582L1962.78 477.793L1962.85 477.617ZM1091.94 1159.62L1177.2 934.162L1176.86 934.287L1176.93 934.198L901.245 1014.71L1091.94 1159.62ZM1177.62 933.049L1177.7 933.247L1305.71 773.847L1057.29 822.463L1177.52 933.301L1177.62 933.049ZM1252.38 1118.29L1177.96 933.898L1178.12 933.852L1178.1 933.828L1378.35 859.112L1252.38 1118.29ZM1695.01 402.09L1591.8 598.921L1712.47 644.755L1695.01 402.09ZM1591.57 599.37L1498.58 794.639L1712.22 645.194L1591.57 599.37ZM1712.98 644.919L1695.51 402.106L1882.86 677.959L1712.98 644.919ZM1712.31 645.737L1498.49 795.308L1498.49 795.309L1655.98 842.419L1712.31 645.737ZM1497.65 795.419L1497.62 795.475L1379.05 858.27L1346.36 599.932L1497.65 795.419ZM1497.89 794.913L1591.05 599.305H1346.51L1497.89 794.913ZM1591.41 598.579L1694.78 401.445L1450.07 400.89V400.937L1450.01 400.937L1591.41 598.579ZM1056.66 822.904L1056.74 823.024L1056.78 822.755L1056.82 822.709L1177.13 933.62L901.399 1014.14L1056.66 822.904ZM927.163 624.29L1027.34 511.635L1027.46 511.933L1027.52 511.738L1090.9 600.642L1084.53 641.507L927.163 624.29ZM1056.97 821.545L1205.09 655.2L1084.95 642.056L1056.97 821.545ZM1205.2 654.539L1140.64 434.421L1091.47 600.446L1205.2 654.539ZM1306.47 773.19L1206.02 655.107L1345.76 599.173L1378.5 857.859L1306.68 773.439L1306.96 773.094L1306.47 773.19ZM1590.96 598.805H1346.47L1449.53 401.115L1590.96 598.805ZM1962.13 477.803L1696.59 401.337L1884.72 386.558L1962.13 477.803ZM1884.58 201.117V385.57L1765.26 231.967L1884.58 201.117ZM1884.58 200.016L1884.81 200.342L1993.46 54.5583L1760.8 55.0647L1884.58 200.116V200.016ZM2023.5 393.818L1885.39 201.148L2098.31 236.59L2023.5 393.818ZM1764.9 232.314L1695.58 400.915L1884.35 386.086L1764.9 232.314ZM1764.49 231.988L1609.4 190.354L1695.19 400.536L1764.49 231.988ZM2098.2 236.065L1885.23 200.615L1993.93 54.7618L2098.2 236.065ZM1760.52 55.5151L1765.07 231.5L1884.35 200.661L1760.52 55.5151ZM1760.02 55.3618L1764.57 231.492L1609.49 189.86L1760.02 55.3618ZM1694.82 400.945L1608.91 190.483L1450.07 400.294V400.39L1694.82 400.945ZM1608.65 189.81L1539.89 1.10119L1450.23 231.454L1608.65 189.81ZM1450.2 232.222L1450.13 231.996L1608.34 190.408L1450.07 399.465V232.175L1450.2 232.222ZM1449.57 232.405V400.126L1449.5 400.217L1449.46 400.162L1449.32 400.437L1273.71 400.294L1449.57 232.405ZM1273.43 400.794L1449.06 400.936L1346.09 598.438L1273.43 400.794ZM1097.29 268.079L1272.54 400.522L1140.82 433.234L1097.29 268.079ZM939.898 297.115L1096.51 267.764L1027.38 510.407L939.898 297.115ZM1272.95 400.935L1345.4 598.008L1141.19 433.658L1272.95 400.935ZM1096.85 268.389L1140.36 433.43L1027.85 510.572L1096.85 268.389ZM1296.85 177.813L1097.47 266.9L1165.55 149.595L1296.85 177.813ZM1165.02 149.482L1165.08 149.382L1045.1 65.4436L1096.95 266.791L1165.03 149.485L1165.02 149.482ZM1297.73 177.199L1243.57 24.603L1393.39 45.785L1393.37 45.807L1297.73 177.199ZM1243.14 24.8712L1165.82 149.143L1297.09 177.353L1243.14 24.8712ZM1449.35 231.92L1273.45 399.854L1297.87 178.071L1449.35 231.92ZM1539.47 0.78388L1449.85 231.053L1394.15 45.7612L1539.47 0.78388ZM1393.74 46.1502L1449.44 231.42L1298.07 177.614L1393.74 46.1502ZM1297.36 178.136L1097.35 267.5L1272.91 400.174L1297.36 178.136ZM1096.43 267.27L926.945 25.1487L939.786 296.627L1096.43 267.27ZM1027.77 511.232L1140.2 434.141L1091.07 600.018L1027.77 511.232ZM1345.51 598.735L1141.11 434.231L1205.76 654.67L1345.51 598.735ZM1759.73 54.9449L1609.09 189.55L1540.29 0.747136L1759.73 54.9449ZM2023.55 394.72L1963.33 478.054L2098.13 487.375L2023.55 394.72ZM1378.43 858.55L1306.36 773.836L1178.39 933.184L1378.43 858.55ZM1305.91 773.3L1205.6 655.385L1057.27 821.957L1305.91 773.3ZM1379.13 858.793L1413.15 1020.52L1497.7 796.002L1379.13 858.793ZM1885.08 386.063L2023.03 394.028L1885.08 201.572V386.063ZM1204.16 654.595L1085.03 641.562L1091.36 600.95L1204.16 654.595ZM927.154 624.792L1084.46 642.002L1056.45 821.666L927.154 624.792ZM1177.63 934.422L1092.46 1159.66L1252.02 1118.73L1177.63 934.422ZM900.951 1015.11L1091.7 1160.07L901.965 1411.62L900.951 1015.11ZM2095.12 787.694L1962.87 478.928L1883.73 678.202L2095.12 787.694ZM2097.41 1105.72L1931.43 933.581L2095.38 788.788L2097.41 1105.72ZM2097.02 1106.04L1931.15 934.009L1864.53 1086.94L2097.02 1106.04ZM1931.23 933.087L2095.19 788.291L1883.75 678.778L1931.23 933.087Z" fill="url(#paint0_linear)"/>
<path fill-rule="evenodd" clip-rule="evenodd" d="M2748.57 0.230814L2603 45.2824L2602.93 45.0414L2602.72 45.3271L2452.38 24.0714L2452.26 23.7248L2452.07 24.0274L2451.83 23.9925L2451.92 24.2678L2374.35 148.956L2253.83 64.6464L2253.28 64.2588L2253.44 64.9136L2305.27 266.171L2135.86 24.1543L2135.36 23.4467L2135.4 24.3095L2148.3 296.937L2148.31 297.224L2148.4 297.209L2236.11 511.078L2236.07 511.108L2236.1 511.153L2135.55 624.224L2135.15 624.18L2135.45 624.623L2265.28 822.322L2264.91 822.733L2265.2 822.676L2109.66 1014.26L2109.45 1014.1L2109.45 1014.52L2109 1015.07L2109.45 1014.94L2110.47 1412.36L2110.47 1413.1L2110.92 1412.51L2301.2 1160.24L2461.42 1119.14L2461.7 1119.07L2461.67 1119L2621.91 1021.81L2622.01 1022.3L2622.27 1021.63L2824.43 982.711L2824.74 983.206L2825.04 983.681L2825.12 983.405L3072.98 1087.36L3073.19 1087.72L3073.32 1087.42L3306.64 1106.59L3306.92 1106.61L3306.91 1106.34L3304.88 788.349L3305.07 788.183L3304.82 788.056L3172.3 478.658L3172.59 478.741L3172.43 478.563L3307.67 487.913L3308.24 487.952L3307.88 487.507L3232.83 394.273L3307.83 236.676L3308.16 236.732L3307.9 236.274L3203.26 54.325L3203.46 54.0561L3203.1 54.0569L3202.99 53.8527L3202.83 54.0575L2969.37 54.5656L2968.99 54.1164L2969 54.4945L2749.23 0.217502L2749.32 0L2748.89 0.132596L2748.5 0.0367468L2748.57 0.230814ZM2621.8 1021.29L2461.95 1118.25L2587.76 859.426L2621.8 1021.29ZM2824.14 982.257L2622.47 1021.08L2707.22 796.032L2824.14 982.257ZM2824.85 982.12L2825 981.979L2864.84 842.9L2707.73 795.902L2824.67 982.155L2824.85 982.12ZM2825.25 982.921L2825.45 982.249L2947.79 867.713L2948.22 867.84L3072.58 1086.64L2825.25 982.921ZM2825.71 981.313L2947.24 867.547L2865.32 843.043L2825.71 981.313ZM2947.9 866.93L2948.03 866.751L2921.65 646.388L2865.46 842.562L2947.66 867.152L2947.9 866.93ZM2948.55 866.893L2948.57 867.001L3139.74 933.189L3092.27 678.918L2948.55 866.893ZM2948.63 867.553L2948.63 867.563L3073.13 1086.6L3139.73 933.714L2948.63 867.553ZM2922.04 645.439L2948.47 866.181L3091.97 678.488L2922.04 645.439ZM3171.5 478.498L3092.35 677.789L2904.79 401.627L3171.45 478.414L3171.39 478.491L3171.5 478.498ZM3171.85 477.617L3171.92 477.768L3232.07 394.531L3094.4 386.582L3171.78 477.793L3171.85 477.617ZM2300.94 1159.62L2386.2 934.162L2385.86 934.287L2385.93 934.198L2110.25 1014.71L2300.94 1159.62ZM2386.62 933.049L2386.7 933.247L2514.71 773.847L2266.29 822.463L2386.52 933.301L2386.62 933.049ZM2461.38 1118.29L2386.96 933.898L2387.12 933.852L2387.1 933.828L2587.35 859.112L2461.38 1118.29ZM2904.01 402.09L2800.8 598.921L2921.47 644.755L2904.01 402.09ZM2800.57 599.37L2707.58 794.639L2921.22 645.194L2800.57 599.37ZM2921.98 644.919L2904.51 402.106L3091.86 677.959L2921.98 644.919ZM2921.31 645.737L2707.49 795.308L2707.49 795.309L2864.98 842.419L2921.31 645.737ZM2706.65 795.419L2706.62 795.475L2588.05 858.27L2555.36 599.932L2706.65 795.419ZM2706.89 794.913L2800.05 599.305H2555.51L2706.89 794.913ZM2800.41 598.579L2903.78 401.445L2659.07 400.89V400.937L2659.01 400.937L2800.41 598.579ZM2265.66 822.904L2265.74 823.024L2265.78 822.755L2265.82 822.709L2386.13 933.62L2110.4 1014.14L2265.66 822.904ZM2136.16 624.29L2236.34 511.635L2236.46 511.933L2236.52 511.738L2299.9 600.642L2293.53 641.507L2136.16 624.29ZM2265.97 821.545L2414.09 655.2L2293.95 642.056L2265.97 821.545ZM2414.2 654.539L2349.64 434.421L2300.47 600.446L2414.2 654.539ZM2515.47 773.19L2415.02 655.107L2554.76 599.173L2587.5 857.859L2515.68 773.439L2515.96 773.094L2515.47 773.19ZM2799.96 598.805H2555.47L2658.53 401.115L2799.96 598.805ZM3171.13 477.803L2905.59 401.337L3093.72 386.558L3171.13 477.803ZM3093.58 201.117V385.57L2974.26 231.967L3093.58 201.117ZM3093.58 200.016L3093.81 200.342L3202.46 54.5583L2969.8 55.0647L3093.58 200.116V200.016ZM3232.5 393.818L3094.39 201.148L3307.31 236.59L3232.5 393.818ZM2973.9 232.314L2904.58 400.915L3093.35 386.086L2973.9 232.314ZM2973.49 231.988L2818.4 190.354L2904.19 400.536L2973.49 231.988ZM3307.2 236.065L3094.23 200.615L3202.93 54.7618L3307.2 236.065ZM2969.52 55.5151L2974.07 231.5L3093.35 200.661L2969.52 55.5151ZM2969.02 55.3618L2973.57 231.492L2818.49 189.86L2969.02 55.3618ZM2903.82 400.945L2817.91 190.483L2659.07 400.294V400.39L2903.82 400.945ZM2817.65 189.81L2748.89 1.10119L2659.23 231.454L2817.65 189.81ZM2659.2 232.222L2659.13 231.996L2817.34 190.408L2659.07 399.465V232.175L2659.2 232.222ZM2658.57 232.405V400.126L2658.5 400.217L2658.46 400.162L2658.32 400.437L2482.71 400.294L2658.57 232.405ZM2482.43 400.794L2658.06 400.936L2555.09 598.438L2482.43 400.794ZM2306.29 268.079L2481.54 400.522L2349.82 433.234L2306.29 268.079ZM2148.9 297.115L2305.51 267.764L2236.38 510.407L2148.9 297.115ZM2481.95 400.935L2554.4 598.008L2350.19 433.658L2481.95 400.935ZM2305.85 268.389L2349.36 433.43L2236.85 510.572L2305.85 268.389ZM2505.85 177.813L2306.47 266.9L2374.55 149.595L2505.85 177.813ZM2374.02 149.482L2374.08 149.382L2254.1 65.4436L2305.95 266.791L2374.03 149.485L2374.02 149.482ZM2506.73 177.199L2452.57 24.603L2602.39 45.785L2602.37 45.807L2506.73 177.199ZM2452.14 24.8712L2374.82 149.143L2506.09 177.353L2452.14 24.8712ZM2658.35 231.92L2482.45 399.854L2506.87 178.071L2658.35 231.92ZM2748.47 0.78388L2658.85 231.053L2603.15 45.7612L2748.47 0.78388ZM2602.74 46.1502L2658.44 231.42L2507.07 177.614L2602.74 46.1502ZM2506.36 178.136L2306.35 267.5L2481.91 400.174L2506.36 178.136ZM2305.43 267.27L2135.94 25.1487L2148.79 296.627L2305.43 267.27ZM2236.77 511.232L2349.2 434.141L2300.07 600.018L2236.77 511.232ZM2554.51 598.735L2350.11 434.231L2414.76 654.67L2554.51 598.735ZM2968.73 54.9449L2818.09 189.55L2749.29 0.747136L2968.73 54.9449ZM3232.55 394.72L3172.33 478.054L3307.13 487.375L3232.55 394.72ZM2587.43 858.55L2515.36 773.836L2387.39 933.184L2587.43 858.55ZM2514.91 773.3L2414.6 655.385L2266.27 821.957L2514.91 773.3ZM2588.13 858.793L2622.15 1020.52L2706.7 796.002L2588.13 858.793ZM3094.08 386.063L3232.03 394.028L3094.08 201.572V386.063ZM2413.16 654.595L2294.03 641.562L2300.36 600.95L2413.16 654.595ZM2136.15 624.792L2293.46 642.002L2265.45 821.666L2136.15 624.792ZM2386.63 934.422L2301.46 1159.66L2461.02 1118.73L2386.63 934.422ZM2109.95 1015.11L2300.7 1160.07L2110.97 1411.62L2109.95 1015.11ZM3304.12 787.694L3171.87 478.928L3092.73 678.202L3304.12 787.694ZM3306.41 1105.72L3140.43 933.581L3304.38 788.788L3306.41 1105.72ZM3306.02 1106.04L3140.15 934.009L3073.53 1086.94L3306.02 1106.04ZM3140.23 933.087L3304.19 788.291L3092.75 678.778L3140.23 933.087Z" fill="url(#paint1_linear)"/>
<path fill-rule="evenodd" clip-rule="evenodd" d="M330.57 0.230814L185.004 45.2824L184.931 45.0414L184.723 45.3271L34.3834 24.0714L34.2604 23.7248L34.0722 24.0274L33.8251 23.9925L33.9226 24.2678L-43.6514 148.956L-164.171 64.6464L-164.725 64.2588L-164.556 64.9136L-112.726 266.171L-282.141 24.1543L-282.637 23.4467L-282.596 24.3095L-269.7 296.937L-269.686 297.224L-269.604 297.209L-181.889 511.078L-181.932 511.108L-181.9 511.153L-282.447 624.224L-282.846 624.18L-282.555 624.623L-152.72 822.322L-153.085 822.733L-152.796 822.676L-308.342 1014.26L-308.552 1014.1L-308.551 1014.52L-309 1015.07L-308.55 1014.94L-307.533 1412.36L-307.531 1413.1L-307.083 1412.51L-116.802 1160.24L43.4208 1119.14L43.6974 1119.07L43.6702 1119L203.909 1021.81L204.013 1022.3L204.266 1021.63L406.428 982.711L406.739 983.206L407.036 983.681L407.115 983.405L654.983 1087.36L655.188 1087.72L655.316 1087.42L888.644 1106.59L888.916 1106.61L888.914 1106.34L886.88 788.349L887.068 788.183L886.823 788.056L754.297 478.658L754.586 478.741L754.434 478.563L889.665 487.913L890.236 487.952L889.877 487.507L814.835 394.273L889.827 236.676L890.162 236.732L889.899 236.274L785.258 54.325L785.458 54.0561L785.103 54.0569L784.986 53.8527L784.833 54.0575L551.37 54.5656L550.987 54.1164L550.996 54.4945L331.231 0.217502L331.316 0L330.888 0.132596L330.499 0.0367468L330.57 0.230814ZM203.8 1021.29L43.9545 1118.25L169.756 859.426L203.8 1021.29ZM406.142 982.257L204.473 1021.08L289.22 796.032L406.142 982.257ZM406.853 982.12L407.004 981.979L446.84 842.9L289.729 795.902L406.669 982.155L406.853 982.12ZM407.254 982.921L407.446 982.249L529.79 867.713L530.215 867.84L654.578 1086.64L407.254 982.921ZM407.714 981.313L529.235 867.547L447.319 843.043L407.714 981.313ZM529.895 866.93L530.032 866.751L503.647 646.388L447.457 842.562L529.658 867.152L529.895 866.93ZM530.553 866.893L530.565 867.001L721.742 933.189L674.269 678.918L530.553 866.893ZM530.632 867.553L530.633 867.563L655.128 1086.6L721.729 933.714L530.632 867.553ZM504.037 645.439L530.467 866.181L673.968 678.488L504.037 645.439ZM753.501 478.498L674.354 677.789L486.787 401.627L753.449 478.414L753.394 478.491L753.501 478.498ZM753.851 477.617L753.916 477.768L814.072 394.531L676.398 386.582L753.781 477.793L753.851 477.617ZM-117.064 1159.62L-31.8014 934.162L-32.1367 934.287L-32.065 934.198L-307.755 1014.71L-117.064 1159.62ZM-31.3804 933.049L-31.3007 933.247L96.713 773.847L-151.708 822.463L-31.4757 933.301L-31.3804 933.049ZM43.38 1118.29L-31.0378 933.898L-30.8783 933.852L-30.9043 933.828L169.352 859.112L43.38 1118.29ZM486.006 402.09L382.799 598.921L503.471 644.755L486.006 402.09ZM382.574 599.37L289.576 794.639L503.218 645.194L382.574 599.37ZM503.984 644.919L486.508 402.106L673.864 677.959L503.984 644.919ZM503.314 645.737L289.493 795.308L289.492 795.309L446.978 842.419L503.314 645.737ZM288.651 795.419L288.624 795.475L170.053 858.27L137.362 599.932L288.651 795.419ZM288.892 794.913L382.051 599.305H137.509L288.892 794.913ZM382.414 598.579L485.779 401.445L241.067 400.89V400.937L241.014 400.937L382.414 598.579ZM-152.337 822.904L-152.258 823.024L-152.216 822.755L-152.179 822.709L-31.8676 933.62L-307.601 1014.14L-152.337 822.904ZM-281.837 624.29L-181.66 511.635L-181.538 511.933L-181.483 511.738L-118.097 600.642L-124.468 641.507L-281.837 624.29ZM-152.028 821.545L-3.90924 655.2L-124.047 642.056L-152.028 821.545ZM-3.79709 654.539L-68.3592 434.421L-117.534 600.446L-3.79709 654.539ZM97.4688 773.19L-2.98431 655.107L136.762 599.173L169.497 857.859L97.6815 773.439L97.9593 773.094L97.4688 773.19ZM381.961 598.805H137.466L240.526 401.115L381.961 598.805ZM753.134 477.803L487.586 401.337L675.722 386.558L753.134 477.803ZM675.58 201.117V385.57L556.264 231.967L675.58 201.117ZM675.58 200.016L675.813 200.342L784.46 54.5583L551.796 55.0647L675.58 200.116V200.016ZM814.498 393.818L676.391 201.148L889.314 236.59L814.498 393.818ZM555.9 232.314L486.578 400.915L675.348 386.086L555.9 232.314ZM555.494 231.988L400.401 190.354L486.193 400.536L555.494 231.988ZM889.202 236.065L676.233 200.615L784.932 54.7618L889.202 236.065ZM551.523 55.5151L556.075 231.5L675.346 200.661L551.523 55.5151ZM551.019 55.3618L555.575 231.492L400.49 189.86L551.019 55.3618ZM485.819 400.945L399.913 190.483L241.067 400.294V400.39L485.819 400.945ZM399.65 189.81L330.887 1.10119L241.228 231.454L399.65 189.81ZM241.199 232.222L241.131 231.996L399.343 190.408L241.067 399.465V232.175L241.199 232.222ZM240.567 232.405V400.126L240.498 400.217L240.459 400.162L240.316 400.437L64.7113 400.294L240.567 232.405ZM64.433 400.794L240.055 400.936L137.094 598.438L64.433 400.794ZM-111.714 268.079L63.541 400.522L-68.1791 433.234L-111.714 268.079ZM-269.102 297.115L-112.491 267.764L-181.624 510.407L-269.102 297.115ZM63.9523 400.935L136.403 598.008L-67.8087 433.658L63.9523 400.935ZM-112.149 268.389L-68.6447 433.43L-181.151 510.572L-112.149 268.389ZM87.8521 177.813L-111.535 266.9L-43.4535 149.595L87.8521 177.813ZM-43.9785 149.482L-43.9159 149.382L-163.903 65.4436L-112.05 266.791L-43.9674 149.485L-43.9785 149.482ZM88.7292 177.199L34.5715 24.603L184.39 45.785L184.374 45.807L88.7292 177.199ZM34.1361 24.8712L-43.1784 149.143L88.0913 177.353L34.1361 24.8712ZM240.351 231.92L64.4475 399.854L88.8661 178.071L240.351 231.92ZM330.474 0.78388L240.848 231.053L185.148 45.7612L330.474 0.78388ZM184.742 46.1502L240.436 231.42L89.0732 177.614L184.742 46.1502ZM88.356 178.136L-111.651 267.5L63.9093 400.174L88.356 178.136ZM-112.567 267.27L-282.055 25.1487L-269.214 296.627L-112.567 267.27ZM-181.23 511.232L-68.7979 434.141L-117.929 600.018L-181.23 511.232ZM136.509 598.735L-67.8938 434.231L-3.23761 654.67L136.509 598.735ZM550.735 54.9449L400.088 189.55L331.29 0.747136L550.735 54.9449ZM814.552 394.72L754.326 478.054L889.129 487.375L814.552 394.72ZM169.429 858.55L97.3627 773.836L-30.609 933.184L169.429 858.55ZM96.9061 773.3L-3.40436 655.385L-151.725 821.957L96.9061 773.3ZM170.134 858.793L204.15 1020.52L288.697 796.002L170.134 858.793ZM676.08 386.063L814.033 394.028L676.08 201.572V386.063ZM-4.84283 654.595L-123.97 641.562L-117.639 600.95L-4.84283 654.595ZM-281.846 624.792L-124.545 642.002L-152.552 821.666L-281.846 624.792ZM-31.3653 934.422L-116.545 1159.66L43.0201 1118.73L-31.3653 934.422ZM-308.049 1015.11L-117.299 1160.07L-307.035 1411.62L-308.049 1015.11ZM886.124 787.694L753.869 478.928L674.728 678.202L886.124 787.694ZM888.411 1105.72L722.428 933.581L886.382 788.788L888.411 1105.72ZM888.025 1106.04L722.146 934.009L655.527 1086.94L888.025 1106.04ZM722.231 933.087L886.19 788.291L674.751 678.778L722.231 933.087Z" fill="url(#paint2_linear)"/>
</g>
<defs>
<linearGradient id="paint0_linear" x1="1499.62" y1="0" x2="1499.62" y2="1413.1" gradientUnits="userSpaceOnUse">
<stop stop-color="#5F5F5F" stop-opacity="0"/>
<stop offset="0.171875" stop-color="#5F5F5F" stop-opacity="0.04"/>
<stop offset="1" stop-color="#5F5F5F" stop-opacity="0.4"/>
</linearGradient>
<linearGradient id="paint1_linear" x1="2708.62" y1="0" x2="2708.62" y2="1413.1" gradientUnits="userSpaceOnUse">
<stop stop-color="#5F5F5F" stop-opacity="0"/>
<stop offset="0.171875" stop-color="#5F5F5F" stop-opacity="0.04"/>
<stop offset="1" stop-color="#5F5F5F" stop-opacity="0.4"/>
</linearGradient>
<linearGradient id="paint2_linear" x1="290.618" y1="0" x2="290.618" y2="1413.1" gradientUnits="userSpaceOnUse">
<stop stop-color="#5F5F5F" stop-opacity="0"/>
<stop offset="0.171875" stop-color="#5F5F5F" stop-opacity="0.04"/>
<stop offset="1" stop-color="#5F5F5F" stop-opacity="0.4"/>
</linearGradient>
<clipPath id="clip0">
<rect width="3000" height="1413" fill="white"/>
</clipPath>
</defs>
</svg>
