<svg width="15" height="16" viewBox="0 0 15 16" fill="none" xmlns="http://www.w3.org/2000/svg">
<path fill-rule="evenodd" clip-rule="evenodd" d="M13.4998 4.64323L9.79303 0.5H3.46896C2.38331 0.5 1.5 1.38316 1.5 2.46896V13.5309C1.5 14.6166 2.38316 15.4999 3.46896 15.4999H11.531C12.6167 15.4999 13.5 14.6167 13.5 13.5309L13.4998 4.64323ZM10.0523 2.19704L11.9817 4.35333H10.0523V2.19704ZM11.531 14.5617C12.0994 14.5617 12.5618 14.0993 12.5618 13.5309V5.29152H9.11409V1.4382H3.46896C2.90057 1.4382 2.4382 1.90057 2.4382 2.46896V13.5309C2.4382 14.0993 2.90057 14.5617 3.46896 14.5617H11.531ZM4.74798 8.63741H10.1731C10.3355 8.63741 10.4627 8.49731 10.4627 8.31868C10.4627 8.1398 10.3355 7.99994 10.1731 7.99994H4.74798C4.58553 7.99994 4.45829 8.14005 4.45829 8.31868C4.45829 8.49731 4.5853 8.63741 4.74798 8.63741ZM4.74798 10.4398H10.1728C10.3355 10.4398 10.4625 10.5799 10.4627 10.7587C10.4627 10.9374 10.3355 11.0775 10.1731 11.0775H4.74798C4.58553 11.0775 4.45829 10.9376 4.45829 10.7587C4.45829 10.5799 4.58553 10.4398 4.74798 10.4398Z" fill="#2B2B2B"/>
</svg>
