<svg width="15" height="14" viewBox="0 0 15 14" fill="none" xmlns="http://www.w3.org/2000/svg">
<path fill-rule="evenodd" clip-rule="evenodd" d="M1 2.5V4.5C1.00163 5.88004 2.11996 6.99837 3.5 7H5.5C5.50091 6.17195 6.17195 5.50091 7 5.5H8C8.82805 5.50091 9.49909 6.17195 9.5 7H11.5C12.88 6.99837 13.9984 5.88004 14 4.5V2.5C14 2.22386 13.7761 2 13.5 2H10V0.5C10 0.223858 9.77614 0 9.5 0H5.5C5.22386 0 5 0.223858 5 0.5V2H1.5C1.22386 2 1 2.22386 1 2.5ZM8 9.5H7C6.17195 9.49909 5.50091 8.82805 5.5 8H3.5C2.78418 8.00024 2.08574 7.77957 1.5 7.3681V12.5C1.5 12.7761 1.72386 13 2 13H13C13.2761 13 13.5 12.7761 13.5 12.5V7.3681C12.9142 7.77954 12.2158 8.00021 11.5 8H9.5C9.49909 8.82805 8.82805 9.49909 8 9.5ZM6 2H9V1H6V2ZM8.5 8C8.5 8.27614 8.27614 8.5 8 8.5H7C6.72386 8.5 6.5 8.27614 6.5 8V7C6.5 6.72386 6.72386 6.5 7 6.5H8C8.27614 6.5 8.5 6.72386 8.5 7V8Z" fill="#24C32E"/>
</svg>
