<svg width="15" height="16" viewBox="0 0 15 16" fill="none" xmlns="http://www.w3.org/2000/svg">
<path fill-rule="evenodd" clip-rule="evenodd" d="M10.2707 7.01519C10.4862 7.01519 10.6609 6.83819 10.6609 6.61983V4.11865C10.6609 3.90029 10.4863 3.72314 10.2707 3.72314H4.79023C4.57477 3.72314 4.39999 3.90014 4.39999 4.11865V6.61983C4.39999 6.83819 4.57477 7.01519 4.79023 7.01519H10.2707ZM10.2707 9.06874H4.79023C4.57477 9.06874 4.39999 8.89174 4.39999 8.67338C4.39999 8.45502 4.57477 8.27787 4.79023 8.27787H10.2707C10.4863 8.27787 10.6609 8.45502 10.6609 8.67338C10.6609 8.89174 10.4863 9.06874 10.2707 9.06874ZM7.11452 10.8303H4.79023C4.57477 10.8303 4.39999 10.6531 4.39999 10.4349C4.39999 10.2164 4.57477 10.0394 4.79023 10.0394H7.11452C7.33012 10.0394 7.5046 10.2166 7.5046 10.4349C7.5046 10.6533 7.33012 10.8303 7.11452 10.8303ZM7.11452 12.5918H4.79023C4.57477 12.5918 4.39999 12.4147 4.39999 12.1963C4.39999 11.978 4.57477 11.801 4.79023 11.801H7.11452C7.33012 11.801 7.5046 11.9781 7.5046 12.1963C7.5046 12.4148 7.33012 12.5918 7.11452 12.5918ZM10.2707 12.674C10.4862 12.674 10.6609 12.497 10.6609 12.2786V10.4349C10.6609 10.2166 10.4863 10.0394 10.2707 10.0394H8.45145C8.23599 10.0394 8.06136 10.2164 8.06136 10.4349V12.2786C8.06136 12.4968 8.23585 12.674 8.45145 12.674H10.2707Z" fill="#0F2756"/>
<rect x="2" y="1" width="11" height="14" rx="1.5" stroke="#0F2756"/>
</svg>
