<svg xmlns="http://www.w3.org/2000/svg" width="16" height="15" viewBox="0 0 16 15">
    <path fill="#F15A24" d="M1.253 0C.568 0 0 .568 0 1.253v12.494C0 14.432.568 15 1.253 15h9.802c.685 0 1.253-.568 1.253-1.253V7.962l3.362-3.358c.1-.099.155-.233.155-.373 0-.14-.055-.275-.155-.374l-1.593-1.593c-.1-.1-.237-.156-.38-.154-.137.001-.27.056-.367.154l-1.022 1.022V1.253C12.308.568 11.74 0 11.055 0H1.253zm0 1.055h9.802c.12 0 .198.078.198.198v3.093L8.242 7.363c-.1.099-.154.233-.154.373V9.32c0 .291.236.527.527.527h1.583c.14 0 .274-.055.373-.154l.682-.681v4.736c0 .12-.078.198-.198.198H1.253c-.12 0-.198-.078-.198-.198V1.253c0-.12.078-.198.198-.198zm.886 1.694c-.085.168-.075.37.028.528.102.158.282.25.47.24H9.67c.19.002.367-.098.463-.262.096-.164.096-.368 0-.532-.096-.164-.272-.264-.463-.261H2.582c-.188.01-.357.119-.443.287zm11.564.636l.846.846-.565.566-.847-.846.566-.566zM2.14 4.859c-.085.168-.075.37.028.527.102.159.282.25.47.24h6.154c.19.003.367-.097.463-.261.096-.164.096-.368 0-.532-.096-.164-.273-.264-.463-.262H2.582c-.188.01-.357.12-.443.288zm0 6.43c-.085.167-.075.368.028.527.102.158.282.25.47.24h6.154c.19.002.367-.098.463-.262.096-.164.096-.367 0-.532-.096-.164-.273-.264-.463-.261H2.582c-.188.01-.357.12-.443.287zM12.39 4.697l.846.846-3.258 3.247h-.835v-.835l3.247-3.258zM2.14 6.968c-.086.169-.076.37.027.528.102.159.282.25.47.24h4.22c.19.003.367-.097.463-.261.096-.165.096-.368 0-.532-.096-.164-.273-.264-.463-.262H2.582c-.188.01-.357.12-.443.288zm.442 1.823c-.188.01-.357.12-.443.288-.085.168-.075.369.028.527.102.159.282.25.47.24h4.22c.19.003.367-.097.463-.261.096-.165.096-.368 0-.532-.096-.165-.273-.264-.463-.262H2.582z"/>
</svg>
