<svg xmlns="http://www.w3.org/2000/svg" width="24" height="24" viewBox="0 0 24 24">
    <path fill="#6236FF" d="M11.965 0c6.644 0 12 5.357 11.966 11.965 0 6.609-5.357 11.965-11.966 11.965C5.357 23.93 0 18.574 0 11.965 0 5.357 5.357 0 11.965 0zm0 1.809c-5.6 0-10.191 4.521-10.191 10.156 0 5.635 4.556 10.192 10.191 10.192 5.635 0 10.192-4.522 10.192-10.157S17.6 1.809 11.965 1.809zm4.07 14.087c.626.278.904.974.626 1.6-.174.487-.591.765-1.078.765-.174 0-.313-.035-.487-.104-3.13-1.357-5.948-.035-5.983-.035-.591.278-1.322.035-1.635-.557-.278-.591-.035-1.322.557-1.635.139-.07 3.826-1.808 8-.034zm-8.87-6.713c1.095 0 1.983.887 1.983 1.982s-.888 1.983-1.983 1.983c-1.095 0-1.982-.888-1.982-1.983 0-1.095.887-1.982 1.982-1.982zm9.6 0c1.095 0 1.983.887 1.983 1.982s-.888 1.983-1.983 1.983c-1.095 0-1.982-.888-1.982-1.983 0-1.095.887-1.982 1.982-1.982zm-8.174-3.2c.209.313.105.765-.208.974l-3.2 1.982c-.105.104-.244.14-.383.14-.243 0-.452-.105-.591-.349-.209-.313-.105-.765.208-.973l3.2-1.983c.313-.209.766-.104.974.209zm7.583-.14l3.304 1.74c.348.174.487.59.279.939-.105.208-.348.348-.627.348-.104 0-.208-.035-.313-.07l-3.304-1.74c-.348-.173-.487-.59-.278-.938.174-.348.591-.487.939-.279z"/>
</svg>
