<svg xmlns="http://www.w3.org/2000/svg" width="16" height="16" viewBox="0 0 16 16">
    <g fill="#E02020">
        <path d="M13.956 8.336h-.263V4.422L9.479.006h-7.19C1.054.006.05.947.05 2.105v11.79c0 1.158 1.004 2.099 2.239 2.099h9.166c1.234 0 2.238-.941 2.238-2.099v-.007h.263c.912 0 1.653-.696 1.653-1.55V9.886c0-.855-.742-1.55-1.653-1.55zM9.773 1.815l2.194 2.298H9.773V1.815zm2.853 12.08c0 .606-.525 1.099-1.171 1.099H2.289c-.647 0-1.172-.493-1.172-1.099V2.105c0-.606.525-1.099 1.172-1.099h6.418v4.107h3.92v3.223h-5.58c-.912 0-1.654.696-1.654 1.55v2.452c0 .855.742 1.55 1.653 1.55h5.58v.007zm1.916-1.557c0 .303-.263.55-.586.55h-6.91c-.323 0-.587-.247-.587-.55V9.886c0-.304.264-.55.587-.55h6.91c.323 0 .586.246.586.55v2.45z"/>
        <path d="M8.296 10.09H7.059v2.25h.74v-.68h.436c.551 0 .941-.256.941-.801 0-.322-.228-.769-.88-.769zm-.212 1.034h-.286v-.457h.33c.181 0 .35.012.35.217 0 .227-.202.24-.394.24zM10.638 10.09H9.425v2.25h1.069c.837 0 1.227-.438 1.227-1.128 0-.567-.283-1.122-1.083-1.122zm-.184 1.673h-.29v-1.096h.236c.534 0 .582.393.582.536 0 .21-.068.56-.528.56zM12.04 12.34L12.78 12.34 12.78 11.483 13.737 11.483 13.737 10.947 12.78 10.947 12.78 10.667 13.895 10.667 13.895 10.09 12.04 10.09z"/>
    </g>
</svg>
