<svg xmlns="http://www.w3.org/2000/svg" width="15" height="14" viewBox="0 0 15 14">
    <path fill="#5F5F5F" d="M12.47 6.897L15 4.37 10.65.019l-2.717 2.7h-.88L4.35.02 0 4.369l2.515 2.528-.92.932c-.514.514-.514 1.35 0 1.865.238.238.546.366.859.383.017.325.152.628.384.86.232.232.535.366.86.384.017.313.145.62.383.859.238.238.547.366.86.383.017.313.144.621.383.86.514.514 1.35.514 1.864 0l.31-.31.312.31c.514.514 1.35.514 1.864 0 .232-.232.367-.535.384-.86.313-.017.62-.145.86-.383.238-.239.365-.547.383-.86.313-.017.62-.145.86-.383.231-.232.366-.535.383-.86.313-.017.62-.145.86-.383.513-.514.513-1.35 0-1.865l-.933-.932zm.312 2.175c-.172.172-.45.172-.622 0L10.917 7.83l-.621.622 1.243 1.243c.171.172.171.45 0 .621-.172.172-.45.172-.622 0L9.674 9.072l-.621.622 1.243 1.243c.171.171.171.45 0 .621-.172.172-.45.172-.622 0l-1.243-1.243-.621.622 1.243 1.243c.172.172.172.45 0 .621-.172.172-.45.172-.622 0L3.573 7.957V6.715L1.241 4.37 4.35 1.261l1.901 1.9-1.549 1.561c-.515.515-.515 1.35 0 1.864.514.515 1.35.514 1.865 0l.954-.954c.837.627 1.923.77 2.875.433l2.386 2.386c.171.171.171.45 0 .621z"/>
</svg>
