<svg xmlns="http://www.w3.org/2000/svg" width="15" height="14" viewBox="0 0 15 14">
    <path fill="#064B9D" d="M4.25 0c.35 0 .633.28.633.627v.755H9.73V.627c0-.346.284-.627.633-.627h.1c.35 0 .634.28.634.627v.755h1.374c.719 0 1.304.579 1.304 1.29v9.037c0 .712-.585 1.291-1.304 1.291H2.158c-.718 0-1.303-.58-1.303-1.29V2.672c0-.712.585-1.291 1.303-1.291h1.358V.627C3.516.281 3.8 0 4.15 0zM12.3 4.507H2.328v7.034h9.973V4.507zM7.314 5.3c.166 0 .318.093.391.24l.54 1.076 1.2.176c.164.024.3.138.352.294.05.156.008.327-.11.442l-.866.841.201 1.185c.028.162-.04.325-.173.422-.076.054-.167.082-.257.082-.069 0-.139-.016-.202-.049l-1.076-.556-1.075.556c-.146.076-.324.063-.458-.033-.134-.097-.201-.26-.174-.422l.201-1.185-.866-.84c-.119-.116-.16-.287-.11-.443.052-.156.187-.27.352-.294l1.2-.176.54-1.076c.073-.147.225-.24.39-.24z"/>
</svg>
