<svg xmlns="http://www.w3.org/2000/svg" width="26" height="19" viewBox="0 0 26 19">
    <path fill="#999" fill-rule="evenodd" d="M4.875 19C2.183 19 0 17.405 0 15.437V3.563C0 1.595 2.183 0 4.875 0h16.25C23.817 0 26 1.595 26 3.563v11.874C26 17.405 23.817 19 21.125 19H4.875zm0-.792h16.25c2.094 0 3.792-1.24 3.792-2.77V3.561c0-1.53-1.698-2.77-3.792-2.77H4.875c-2.094 0-3.792 1.24-3.792 2.77v11.875c0 1.53 1.698 2.771 3.792 2.771zm2.167-5.544c-.266 0-.488-.14-.533-.324l-.009-.072V9.893c0-.617.645-1.124 1.469-1.182l.156-.005h9.523l-2.323-1.697c-.188-.137-.208-.35-.062-.505l.062-.055c.188-.137.48-.152.691-.045l.076.045 3.212 2.348c.06.036.11.083.144.135l.005.012c.011.015.02.032.026.048l.008.024.008.032c.003.014.005.03.005.044v.018c0 .019-.002.037-.007.055l.007-.063c0 .027-.003.053-.01.079-.005.016-.012.034-.02.05l-.007.016c-.014.028-.035.056-.06.082l-.061.055-3.25 2.375c-.213.155-.555.155-.767 0-.188-.137-.208-.35-.062-.505l.062-.055 2.329-1.701H8.125c-.265 0-.488.14-.533.324l-.009.071v2.375c0 .219-.242.396-.541.396z"/>
</svg>
