<svg xmlns="http://www.w3.org/2000/svg" width="22" height="22" viewBox="0 0 22 22">
    <g fill="none" fill-rule="evenodd">
        <text fill="#FFF" font-family="OpenSans-Bold, Open Sans" font-size="14" font-weight="bold" transform="translate(-615)">
            <tspan x="516" y="17">Register Now</tspan>
        </text>
        <g>
            <path fill="#FFF" d="M15.735 10.341l.022-.03.02-.031.016-.028c.006-.01.01-.022.016-.033l.014-.03.011-.032.012-.033.008-.033.008-.034.007-.039c0-.01.003-.019.004-.029.004-.046.004-.093 0-.139l-.004-.03-.007-.038-.008-.034-.008-.033-.012-.033-.011-.032-.014-.03c-.006-.01-.01-.022-.016-.033l-.017-.028-.019-.03-.022-.03c-.006-.01-.012-.018-.019-.026-.014-.018-.03-.035-.046-.052L11.337 5.09c-.275-.275-.721-.275-.996 0-.276.275-.276.721 0 .997l3.13 3.129H4.667c-.39 0-.705.315-.705.705 0 .389.316.704.705.704h8.802l-3.13 3.13c-.275.275-.275.721 0 .996.139.138.319.207.5.207.18 0 .36-.07.497-.207l4.333-4.332c.016-.016.032-.034.046-.052l.02-.025" transform="translate(-615) translate(616 2)"/>
            <path stroke="#FFF" stroke-width="1.2" d="M0 9.92C0 4.44 4.441 0 9.92 0c5.478 0 9.92 4.441 9.92 9.92 0 5.478-4.442 9.92-9.92 9.92C4.44 19.84 0 15.397 0 9.92z" transform="translate(-615) translate(616 2)"/>
        </g>
    </g>
</svg>
