<svg xmlns="http://www.w3.org/2000/svg" width="16" height="18" viewBox="0 0 16 18">
    <path fill="#A8A8AA" fill-rule="evenodd" d="M15.727 5.945c.009.015.014.033.014.05v7.96c0 .036-.02.07-.05.088L9.087 17.98c-.048.028-.11.012-.139-.036-.01-.015-.014-.033-.014-.051V9.829c0-.036.019-.07.05-.087l6.604-3.834c.049-.028.11-.012.139.037zM.114 5.895l.038.013 6.604 3.834c.032.018.05.051.05.087v8.065c0 .018-.004.036-.014.051-.028.048-.09.064-.138.036L.049 14.043C.02 14.024 0 13.99 0 13.956v-7.96c0-.018.005-.036.014-.051.028-.049.09-.065.138-.037zM8.078.02l.034.013 6.643 4.22c.013.009.023.02.031.032.03.047.016.11-.03.14l-6.643 4.22c-.033.02-.074.02-.107.001L.995 4.392C.98 4.382.969 4.37.96 4.357c-.028-.048-.013-.11.035-.139L8.005.032c.034-.02.075-.02.107.001z"/>
</svg>
