<svg xmlns="http://www.w3.org/2000/svg" width="16" height="18" viewBox="0 0 16 18">
    <g fill="#2B2B2B" fill-rule="evenodd">
        <path d="M14.755 4.254L8.112.034C8.08.012 8.04.011 8.006.031L.996 4.218c-.049.029-.064.09-.036.139.009.014.02.026.035.035l7.01 4.254c.034.02.075.02.108-.001l6.642-4.22c.047-.03.061-.093.031-.14-.008-.013-.018-.023-.03-.031zM15.74 5.996v7.96c0 .035-.018.068-.049.087L9.087 17.98c-.048.028-.11.012-.139-.036-.01-.015-.014-.033-.014-.051V9.829c0-.036.019-.07.05-.087l6.604-3.834c.049-.028.11-.012.139.037.009.015.014.033.014.05zM0 5.996v7.96c0 .035.019.068.05.087l6.604 3.938c.048.028.11.012.138-.036.01-.015.015-.033.015-.051V9.829c0-.036-.02-.07-.05-.087L.151 5.908c-.048-.028-.11-.012-.138.037-.01.015-.014.033-.014.05z"/>
    </g>
</svg>
