<?xml version="1.0" encoding="UTF-8"?> <svg xmlns="http://www.w3.org/2000/svg" id="Layer_1" data-name="Layer 1" viewBox="0 0 453.84 117.57"><defs><style>.cls-1{fill:#95c93d;}.cls-2{fill:#231f20;}.cls-3{fill:none;stroke:#231f20;stroke-miterlimit:10;stroke-width:0.25px;}</style></defs><title>D_TAP_logo</title><path class="cls-1" d="M127.11,76.31H104.35l7.3-38.38H134.1c10,0,17,2.34,20.83,7,2.69,3.24,3.62,7.53,2.7,12.39C155.88,66.48,146.94,76.31,127.11,76.31Zm-8.6-10.38h9.69c9.75,0,15.05-2.93,16.2-9,.44-2.34.13-4.11-1-5.42-1.75-2.12-5.65-3.19-11.59-3.19h-10Z" transform="translate(-21.5 -28.62)"></path><path class="cls-1" d="M170.81,76.31H158.62l7.3-38.38h12.19Z" transform="translate(-21.5 -28.62)"></path><path class="cls-1" d="M229.92,76.31H215.83L213,68.09H192.44l-6,8.22H172.52l28.19-38.43h15.65ZM198.68,59.07h11.53l-3.4-10.76h-.5Z" transform="translate(-21.5 -28.62)"></path><path class="cls-1" d="M290.89,76.31H278.8l4.4-23.09L264.54,76.31h-6.38L248.34,53,243.9,76.31h-12l7.3-38.38h16.4l9.13,21.58L282,37.93h16.19Z" transform="translate(-21.5 -28.62)"></path><path class="cls-1" d="M350.17,76.31H336.08l-2.83-8.22H312.69l-6,8.22H292.77L321,37.88H336.6ZM318.93,59.07h11.52l-3.4-10.76h-.49Z" transform="translate(-21.5 -28.62)"></path><path class="cls-1" d="M400.51,76.31H387.45L368.88,52l-4.63,24.3H352.12l7.3-38.38h14.69L391.4,60.7l4.33-22.77h12.08Z" transform="translate(-21.5 -28.62)"></path><path class="cls-1" d="M434.31,76.31H422.07l5.32-27.95H409.44l2-10.43h48.19l-2,10.43h-18Z" transform="translate(-21.5 -28.62)"></path><path class="cls-1" d="M468,76.31H455.85l7.3-38.38h12.19Z" transform="translate(-21.5 -28.62)"></path><path class="cls-1" d="M60,93.11,21.5,45.42l13.55-16.8h33L81.23,44.73,59.77,71.24l-6.34-7.86L68.24,45l-4.9-6.3H39.58l-5.4,6.69L60,77.38l25.79-32L72.31,28.62H84.89l13.56,16.8Z" transform="translate(-21.5 -28.62)"></path><path class="cls-2" d="M30.56,130.14a.17.17,0,0,1,0-.12v-.59a.17.17,0,0,1,0-.12s.06,0,.12,0H42.27c.06,0,.1,0,.12,0s0,.06,0,.12V130c0,.06,0,.1,0,.12a.22.22,0,0,1-.14,0h-4.8a.28.28,0,0,0-.18,0,.25.25,0,0,0,0,.17v15.36a.26.26,0,0,1,0,.18A.21.21,0,0,1,37,146h-.61a.19.19,0,0,1-.23-.23V130.38c0-.1,0-.15,0-.17a.26.26,0,0,0-.18,0H30.7A.22.22,0,0,1,30.56,130.14Z" transform="translate(-21.5 -28.62)"></path><path class="cls-2" d="M48.66,129.5a.26.26,0,0,1,.05-.18.21.21,0,0,1,.15,0H58.2a.14.14,0,0,1,.16.16V130c0,.06,0,.1,0,.12a.22.22,0,0,1-.14,0H49.9a.22.22,0,0,0-.16,0s0,.07,0,.17v6.54a.17.17,0,0,0,0,.13.3.3,0,0,0,.16,0h6.5a.14.14,0,0,1,.16.16v.58a.23.23,0,0,1,0,.13.28.28,0,0,1-.15,0H49.9a.3.3,0,0,0-.16,0s0,.08,0,.17v6.68c0,.1,0,.15,0,.17a.22.22,0,0,0,.16,0h8.61a.24.24,0,0,1,.15,0,.17.17,0,0,1,0,.12v.59a.17.17,0,0,1,0,.12s-.06,0-.12,0H48.86a.21.21,0,0,1-.15-.05.26.26,0,0,1-.05-.18Z" transform="translate(-21.5 -28.62)"></path><path class="cls-2" d="M64.12,133a6,6,0,0,1,5.89-4,5.87,5.87,0,0,1,2.63.62,6.23,6.23,0,0,1,2.11,1.63,4.08,4.08,0,0,1,1,2.16.23.23,0,0,1,0,.12.14.14,0,0,1-.11,0l-.81.1a.11.11,0,0,1-.11,0,.32.32,0,0,1,0-.13A4.53,4.53,0,0,0,73,131a4.69,4.69,0,0,0-3-1,4.91,4.91,0,0,0-4.2,2,9.61,9.61,0,0,0-1.45,5.73,9.12,9.12,0,0,0,1.48,5.61,5.11,5.11,0,0,0,4.35,1.95,4.73,4.73,0,0,0,2.9-.85A5.54,5.54,0,0,0,75,141.78a.12.12,0,0,1,.14,0l.76.22s.06.08,0,.16a5.48,5.48,0,0,1-1.23,2.15,5.88,5.88,0,0,1-2,1.42,6.4,6.4,0,0,1-2.52.5,6.65,6.65,0,0,1-3.69-1,6.13,6.13,0,0,1-2.33-2.9,12,12,0,0,1-.8-4.61A12.3,12.3,0,0,1,64.12,133Z" transform="translate(-21.5 -28.62)"></path><path class="cls-2" d="M92.5,137.77s-.06,0-.12,0H83.56a.12.12,0,0,0-.1.05.16.16,0,0,0,0,.09v7.9a.18.18,0,0,1-.06.15.26.26,0,0,1-.17.05h-.61a.16.16,0,0,1-.15-.06.26.26,0,0,1,0-.17V129.5a.26.26,0,0,1,0-.18.19.19,0,0,1,.15,0h.63a.22.22,0,0,1,.16,0,.26.26,0,0,1,.05.18v7.13c0,.09,0,.15,0,.17a.3.3,0,0,0,.16,0h8.73a.16.16,0,0,0,.18-.18v-7.18a.21.21,0,0,1,0-.15.2.2,0,0,1,.14,0h.65a.22.22,0,0,1,.16,0,.26.26,0,0,1,0,.18v16.24a.27.27,0,0,1,0,.17.18.18,0,0,1-.16.06h-.61a.29.29,0,0,1-.17-.05.21.21,0,0,1,0-.15v-7.88C92.54,137.83,92.53,137.79,92.5,137.77Z" transform="translate(-21.5 -28.62)"></path><path class="cls-2" d="M112.36,129.27H113a.25.25,0,0,1,.16,0,.26.26,0,0,1,0,.18v16.24a.27.27,0,0,1,0,.17.21.21,0,0,1-.16.06h-.59a.25.25,0,0,1-.18-.13l-9.63-14.19c-.07-.11-.14-.16-.19-.15s-.08,0-.08.15v14.13a.21.21,0,0,1,0,.15.29.29,0,0,1-.17.05h-.56c-.14,0-.21-.08-.21-.23V129.5a.26.26,0,0,1,0-.18.22.22,0,0,1,.16,0h.4a.35.35,0,0,1,.2,0,.37.37,0,0,1,.14.12l9.6,14.17c.08.11.15.15.22.12a.15.15,0,0,0,.1-.16V129.47C112.18,129.34,112.24,129.27,112.36,129.27Z" transform="translate(-21.5 -28.62)"></path><path class="cls-2" d="M132.83,142.32a6.11,6.11,0,0,1-2.33,2.89,6.48,6.48,0,0,1-3.63,1,6.62,6.62,0,0,1-3.66-1,6,6,0,0,1-2.31-2.86,11.89,11.89,0,0,1-.8-4.65,12.27,12.27,0,0,1,.81-4.73,6.34,6.34,0,0,1,2.34-2.93,7.12,7.12,0,0,1,7.26,0,6.23,6.23,0,0,1,2.32,2.92,12.18,12.18,0,0,1,.81,4.7A11.9,11.9,0,0,1,132.83,142.32Zm-11-.45a5.08,5.08,0,0,0,1.93,2.53,5.57,5.57,0,0,0,3.15.85,5.46,5.46,0,0,0,3.12-.84,5.06,5.06,0,0,0,1.89-2.52,11.92,11.92,0,0,0,.64-4.23,9.5,9.5,0,0,0-1.44-5.74,5.63,5.63,0,0,0-8.49,0,9.43,9.43,0,0,0-1.45,5.74A11.64,11.64,0,0,0,121.83,141.87Z" transform="translate(-21.5 -28.62)"></path><path class="cls-2" d="M140.57,129.5a.26.26,0,0,1,.05-.18.21.21,0,0,1,.15,0h.63a.22.22,0,0,1,.16,0,.26.26,0,0,1,.05.18v15.36c0,.1,0,.15,0,.17a.22.22,0,0,0,.16,0H150a.22.22,0,0,1,.14,0,.17.17,0,0,1,0,.12v.59a.17.17,0,0,1,0,.12s-.06,0-.12,0h-9.23a.18.18,0,0,1-.15-.06.26.26,0,0,1-.05-.17Z" transform="translate(-21.5 -28.62)"></path><path class="cls-2" d="M166.74,142.32a6.17,6.17,0,0,1-2.33,2.89,6.53,6.53,0,0,1-3.63,1,6.62,6.62,0,0,1-3.66-1,6.06,6.06,0,0,1-2.32-2.86,12.07,12.07,0,0,1-.8-4.65,12.27,12.27,0,0,1,.81-4.73,6.34,6.34,0,0,1,2.34-2.93,7.14,7.14,0,0,1,7.27,0,6.3,6.3,0,0,1,2.32,2.92,12.18,12.18,0,0,1,.81,4.7A11.9,11.9,0,0,1,166.74,142.32Zm-11-.45a5.1,5.1,0,0,0,1.94,2.53,6.24,6.24,0,0,0,6.27,0,5.06,5.06,0,0,0,1.89-2.52,12.15,12.15,0,0,0,.64-4.23,9.5,9.5,0,0,0-1.44-5.74A4.94,4.94,0,0,0,160.8,130a5,5,0,0,0-4.27,1.93,9.5,9.5,0,0,0-1.45,5.74A11.86,11.86,0,0,0,155.73,141.87Z" transform="translate(-21.5 -28.62)"></path><path class="cls-2" d="M184.16,144.84a5.19,5.19,0,0,1-1.68,1,6.31,6.31,0,0,1-2.18.36,6.23,6.23,0,0,1-3.56-1,6.3,6.3,0,0,1-2.29-2.91,13.88,13.88,0,0,1,0-9.26,6.38,6.38,0,0,1,2.3-3,6.22,6.22,0,0,1,3.55-1,6.29,6.29,0,0,1,2.63.59,6,6,0,0,1,2.11,1.6,4.07,4.07,0,0,1,1,2.15.36.36,0,0,1,0,.11.16.16,0,0,1-.09.07l-.79.14a.08.08,0,0,1-.09,0,.22.22,0,0,1-.07-.12,4.09,4.09,0,0,0-.83-1.81,4.7,4.7,0,0,0-1.65-1.3,5.13,5.13,0,0,0-2.17-.47,4.81,4.81,0,0,0-4.14,2,9.32,9.32,0,0,0-1.44,5.57,9.8,9.8,0,0,0,1.41,5.72,4.81,4.81,0,0,0,4.17,2,5,5,0,0,0,2.83-.78,5.06,5.06,0,0,0,1.76-1.93,5.13,5.13,0,0,0,.58-2.31v-1.78c0-.12-.08-.18-.25-.18H181a.17.17,0,0,1-.12,0,.15.15,0,0,1,0-.1v-.52c0-.09,0-.14.11-.14h5.32a.15.15,0,0,1,.1,0,.15.15,0,0,1,0,.1v8.1a.32.32,0,0,1,0,.19.22.22,0,0,1-.18.06h-.39a.41.41,0,0,1-.22,0s-.07-.08-.07-.16v-2.39c0-.08,0-.11-.05-.11s-.08,0-.13.11A5.31,5.31,0,0,1,184.16,144.84Z" transform="translate(-21.5 -28.62)"></path><path class="cls-2" d="M203.14,129.27a.18.18,0,0,1,.16.08.15.15,0,0,1,0,.17l-5.38,9.11a.39.39,0,0,0-.08.19,2,2,0,0,0,0,.26v6.59a.3.3,0,0,1-.08.23.37.37,0,0,1-.26.07H197a.26.26,0,0,1-.2-.07.29.29,0,0,1-.07-.18v-6.39a.9.9,0,0,0,0-.24,1.65,1.65,0,0,0-.09-.21l-5.49-9.34a.19.19,0,0,1,0-.19.22.22,0,0,1,.2-.08h.52a.4.4,0,0,1,.22,0,.51.51,0,0,1,.14.15l4.72,8c.11.18.2.27.29.27s.16-.08.25-.23l4.71-8.08a.59.59,0,0,1,.14-.16.39.39,0,0,1,.22,0Z" transform="translate(-21.5 -28.62)"></path><path class="cls-2" d="M215.92,146a.16.16,0,0,1-.15-.06.21.21,0,0,1,0-.14l6-16.25a.34.34,0,0,1,.13-.19.37.37,0,0,1,.23-.06h.75a.55.55,0,0,1,.28.06.21.21,0,0,1,.12.17l5.9,16.24a.16.16,0,0,1,0,.17.24.24,0,0,1-.17.06h-.54a.29.29,0,0,1-.3-.18l-1.82-5a.31.31,0,0,0-.09-.12.17.17,0,0,0-.13,0h-7.25a.22.22,0,0,0-.22.16l-1.87,5c0,.1-.1.16-.25.16Zm3.08-6.29s.06,0,.14,0h6.55c.14,0,.2-.07.15-.22l-3.22-8.78c-.05-.15-.11-.22-.16-.21s-.11.08-.17.23l-3.26,8.8C219,139.61,219,139.66,219,139.68Z" transform="translate(-21.5 -28.62)"></path><path class="cls-2" d="M235.5,129.5a.26.26,0,0,1,0-.18.22.22,0,0,1,.16,0h.63a.21.21,0,0,1,.15,0s.05.09.05.18v15.36c0,.1,0,.15.05.17s.08,0,.15,0h8.17a.28.28,0,0,1,.15,0,.17.17,0,0,1,0,.12v.59a.17.17,0,0,1,0,.12.17.17,0,0,1-.13,0H235.7a.18.18,0,0,1-.16-.06.27.27,0,0,1,0-.17Z" transform="translate(-21.5 -28.62)"></path><path class="cls-2" d="M251.31,129.5a.26.26,0,0,1,.05-.18.19.19,0,0,1,.15,0h.63a.22.22,0,0,1,.16,0,.26.26,0,0,1,0,.18v15.36c0,.1,0,.15,0,.17a.22.22,0,0,0,.16,0h8.17a.22.22,0,0,1,.14,0,.17.17,0,0,1,0,.12v.59a.17.17,0,0,1,0,.12s-.06,0-.12,0h-9.23a.16.16,0,0,1-.15-.06.26.26,0,0,1-.05-.17Z" transform="translate(-21.5 -28.62)"></path><path class="cls-2" d="M267.17,129.32a.22.22,0,0,1,.16,0H268a.23.23,0,0,1,.16,0,.26.26,0,0,1,0,.18v16.2a.37.37,0,0,1,0,.21s-.11.06-.23.06h-.52a.3.3,0,0,1-.2-.05.26.26,0,0,1,0-.18V129.5A.26.26,0,0,1,267.17,129.32Z" transform="translate(-21.5 -28.62)"></path><path class="cls-2" d="M274.69,146q-.12,0-.15-.06a.17.17,0,0,1,0-.14l6-16.25a.39.39,0,0,1,.12-.19.43.43,0,0,1,.24-.06h.75a.58.58,0,0,1,.28.06.24.24,0,0,1,.12.17l5.89,16.24c0,.08,0,.13,0,.17a.21.21,0,0,1-.16.06h-.55a.28.28,0,0,1-.29-.18l-1.82-5a.31.31,0,0,0-.09-.12.2.2,0,0,0-.14,0h-7.24a.22.22,0,0,0-.22.16l-1.87,5c0,.1-.1.16-.25.16Zm3.08-6.29s.06,0,.13,0h6.55c.15,0,.2-.07.16-.22l-3.22-8.78c-.06-.15-.11-.22-.17-.21s-.1.08-.17.23l-3.26,8.8C277.76,139.61,277.75,139.66,277.77,139.68Z" transform="translate(-21.5 -28.62)"></path><path class="cls-2" d="M305.31,129.27h.61a.25.25,0,0,1,.16,0,.26.26,0,0,1,0,.18v16.24a.27.27,0,0,1,0,.17.21.21,0,0,1-.16.06h-.59a.25.25,0,0,1-.18-.13l-9.63-14.19c-.07-.11-.14-.16-.19-.15s-.08,0-.08.15v14.13a.21.21,0,0,1-.05.15.29.29,0,0,1-.17.05h-.56c-.14,0-.21-.08-.21-.23V129.5a.26.26,0,0,1,.05-.18.22.22,0,0,1,.16,0h.4a.35.35,0,0,1,.2,0,.37.37,0,0,1,.14.12l9.6,14.17c.08.11.15.15.22.12a.17.17,0,0,0,.1-.16V129.47C305.13,129.34,305.19,129.27,305.31,129.27Z" transform="translate(-21.5 -28.62)"></path><path class="cls-2" d="M313.84,133a6,6,0,0,1,5.89-4,5.83,5.83,0,0,1,2.62.62,6.17,6.17,0,0,1,2.12,1.63,4.08,4.08,0,0,1,1,2.16.23.23,0,0,1,0,.12.17.17,0,0,1-.12,0l-.81.1a.1.1,0,0,1-.1,0,.32.32,0,0,1-.05-.13,4.49,4.49,0,0,0-1.64-2.58,4.66,4.66,0,0,0-3-1,4.91,4.91,0,0,0-4.2,2,9.54,9.54,0,0,0-1.45,5.73,9.19,9.19,0,0,0,1.47,5.61,5.12,5.12,0,0,0,4.36,1.95,4.73,4.73,0,0,0,2.9-.85,5.61,5.61,0,0,0,1.82-2.62.12.12,0,0,1,.14,0l.76.22c.05,0,.06.08.05.16a5.6,5.6,0,0,1-1.23,2.15,6,6,0,0,1-2,1.42,6.4,6.4,0,0,1-2.52.5,6.65,6.65,0,0,1-3.69-1,6.13,6.13,0,0,1-2.33-2.9,12,12,0,0,1-.8-4.61A12.3,12.3,0,0,1,313.84,133Z" transform="translate(-21.5 -28.62)"></path><path class="cls-2" d="M332.11,129.5a.26.26,0,0,1,0-.18.23.23,0,0,1,.16,0h9.34a.15.15,0,0,1,.16.16V130a.17.17,0,0,1,0,.12.24.24,0,0,1-.15,0h-8.27a.22.22,0,0,0-.16,0s-.05.07-.05.17v6.54a.17.17,0,0,0,.05.13.3.3,0,0,0,.16,0h6.5c.1,0,.15,0,.15.16v.58a.23.23,0,0,1,0,.13.22.22,0,0,1-.14,0h-6.48a.3.3,0,0,0-.16,0,.23.23,0,0,0-.05.17v6.68c0,.1,0,.15.05.17a.22.22,0,0,0,.16,0H342a.24.24,0,0,1,.15,0,.17.17,0,0,1,0,.12v.59a.17.17,0,0,1,0,.12.15.15,0,0,1-.12,0h-9.68a.23.23,0,0,1-.16-.05.26.26,0,0,1,0-.18Z" transform="translate(-21.5 -28.62)"></path><path class="cls-2" d="M364.38,129.76a4.24,4.24,0,0,1,2.09,1.51,4.37,4.37,0,0,1,.76,2.66,4.55,4.55,0,0,1-.74,2.67,4.37,4.37,0,0,1-2.05,1.53,8.86,8.86,0,0,1-3.06.48h-4.12c-.12,0-.18.07-.18.2v7a.21.21,0,0,1,0,.14.17.17,0,0,1-.14.06h-.67a.18.18,0,0,1-.14-.05.17.17,0,0,1,0-.13V129.5a.26.26,0,0,1,0-.18.22.22,0,0,1,.16,0h5A9,9,0,0,1,364.38,129.76Zm.52,7a3.41,3.41,0,0,0,1.25-2.93,3.16,3.16,0,0,0-1.26-2.84,6.53,6.53,0,0,0-3.67-.85h-3.94a.21.21,0,0,0-.15.05.17.17,0,0,0-.05.13v7.13a.34.34,0,0,0,0,.17.15.15,0,0,0,.13.06h4.14A5.87,5.87,0,0,0,364.9,136.79Z" transform="translate(-21.5 -28.62)"></path><path class="cls-2" d="M370.8,146c-.07,0-.12,0-.14-.06a.14.14,0,0,1,0-.14l6-16.25a.39.39,0,0,1,.12-.19.38.38,0,0,1,.24-.06h.74a.53.53,0,0,1,.28.06.25.25,0,0,1,.13.17L384,145.74c0,.08,0,.13,0,.17a.22.22,0,0,1-.17.06h-.54a.27.27,0,0,1-.29-.18l-1.82-5a.31.31,0,0,0-.09-.12.2.2,0,0,0-.14,0h-7.24a.23.23,0,0,0-.23.16l-1.87,5c0,.1-.09.16-.24.16Zm3.09-6.29s.06,0,.13,0h6.55c.15,0,.2-.07.16-.22l-3.22-8.78c-.06-.15-.12-.22-.17-.21s-.11.08-.17.23l-3.26,8.8C373.88,139.61,373.87,139.66,373.89,139.68Z" transform="translate(-21.5 -28.62)"></path><path class="cls-2" d="M401.29,145.65a.24.24,0,0,1,0,.22.19.19,0,0,1-.17.1h-.63a.23.23,0,0,1-.16-.05,1.49,1.49,0,0,1-.11-.15L397,138.21a.28.28,0,0,0-.15-.17.69.69,0,0,0-.33-.06h-4.86a.3.3,0,0,0-.2.06.24.24,0,0,0-.07.19v7.49a.32.32,0,0,1,0,.19.22.22,0,0,1-.18.06h-.59a.28.28,0,0,1-.18-.05.27.27,0,0,1,0-.15V129.5a.34.34,0,0,1,0-.18.23.23,0,0,1,.16,0h5.81a6,6,0,0,1,3.79,1.06,3.69,3.69,0,0,1,1.34,3.08,4,4,0,0,1-1,2.93,5,5,0,0,1-2.41,1.39c-.09,0-.12.07-.09.16Zm-5.69-8.57a6.44,6.44,0,0,0,3.64-.83,3,3,0,0,0,1.2-2.68,3.11,3.11,0,0,0-1-2.55,4.64,4.64,0,0,0-3.06-.85h-4.7a.31.31,0,0,0-.19.05.15.15,0,0,0-.06.13v6.53a.25.25,0,0,0,0,.15s.06.05.12.05Z" transform="translate(-21.5 -28.62)"></path><path class="cls-2" d="M406.57,130.14a.17.17,0,0,1,0-.12v-.59a.17.17,0,0,1,0-.12s.06,0,.12,0h11.59c.06,0,.1,0,.12,0s0,.06,0,.12V130c0,.06,0,.1,0,.12a.22.22,0,0,1-.14,0h-4.8c-.08,0-.15,0-.17,0s-.05.07-.05.17v15.36a.26.26,0,0,1-.05.18.21.21,0,0,1-.15.05h-.61a.19.19,0,0,1-.23-.23V130.38c0-.1,0-.15,0-.17a.26.26,0,0,0-.18,0h-5.27A.22.22,0,0,1,406.57,130.14Z" transform="translate(-21.5 -28.62)"></path><path class="cls-2" d="M435.72,129.27h.61a.25.25,0,0,1,.16,0,.34.34,0,0,1,0,.18v16.24a.35.35,0,0,1,0,.17.21.21,0,0,1-.16.06h-.59a.23.23,0,0,1-.18-.13l-9.63-14.19c-.07-.11-.14-.16-.19-.15s-.08,0-.08.15v14.13a.18.18,0,0,1-.06.15.23.23,0,0,1-.16.05h-.57c-.13,0-.2-.08-.2-.23V129.5a.26.26,0,0,1,.05-.18.21.21,0,0,1,.15,0h.41a.35.35,0,0,1,.2,0,.37.37,0,0,1,.14.12l9.6,14.17c.08.11.15.15.22.12a.17.17,0,0,0,.1-.16V129.47C435.54,129.34,435.6,129.27,435.72,129.27Z" transform="translate(-21.5 -28.62)"></path><path class="cls-2" d="M444.27,129.5a.26.26,0,0,1,0-.18.23.23,0,0,1,.16,0h9.34a.15.15,0,0,1,.16.16V130a.17.17,0,0,1,0,.12.22.22,0,0,1-.14,0h-8.28a.22.22,0,0,0-.16,0s-.05.07-.05.17v6.54a.17.17,0,0,0,.05.13.3.3,0,0,0,.16,0H452c.1,0,.15,0,.15.16v.58a.23.23,0,0,1,0,.13.22.22,0,0,1-.14,0h-6.48a.3.3,0,0,0-.16,0,.23.23,0,0,0-.05.17v6.68c0,.1,0,.15.05.17a.22.22,0,0,0,.16,0h8.61a.24.24,0,0,1,.15,0,.17.17,0,0,1,0,.12v.59a.17.17,0,0,1,0,.12.15.15,0,0,1-.12,0h-9.68a.23.23,0,0,1-.16-.05.26.26,0,0,1,0-.18Z" transform="translate(-21.5 -28.62)"></path><path class="cls-2" d="M471.56,145.65a.24.24,0,0,1,0,.22.21.21,0,0,1-.17.1h-.63a.22.22,0,0,1-.16-.05,1.49,1.49,0,0,1-.11-.15l-3.19-7.56a.28.28,0,0,0-.15-.17.69.69,0,0,0-.33-.06H462a.28.28,0,0,0-.2.06.21.21,0,0,0-.07.19v7.49a.32.32,0,0,1,0,.19.22.22,0,0,1-.18.06h-.59a.26.26,0,0,1-.18-.05.21.21,0,0,1,0-.15V129.5a.26.26,0,0,1,0-.18.23.23,0,0,1,.16,0h5.81a6,6,0,0,1,3.79,1.06,3.69,3.69,0,0,1,1.34,3.08,4,4,0,0,1-1,2.93,5,5,0,0,1-2.41,1.39c-.09,0-.12.07-.09.16Zm-5.69-8.57a6.44,6.44,0,0,0,3.64-.83,3,3,0,0,0,1.19-2.68,3.11,3.11,0,0,0-1-2.55,4.64,4.64,0,0,0-3.06-.85h-4.7a.31.31,0,0,0-.19.05.15.15,0,0,0-.06.13v6.53a.25.25,0,0,0,0,.15s.06.05.12.05Z" transform="translate(-21.5 -28.62)"></path><line class="cls-3" x1="8.97" y1="76.55" x2="450.87" y2="76.55"></line></svg> 