<?xml version="1.0" encoding="UTF-8"?> <svg xmlns="http://www.w3.org/2000/svg" id="Layer_1" data-name="Layer 1" viewBox="0 0 152.94 39.19"><defs><style>.cls-1{fill:#95c93d;}.cls-2{fill:#231f20;}.cls-3{fill:none;stroke:#231f20;stroke-miterlimit:10;stroke-width:0.25px;}</style></defs><title>D_TAP_logo</title><path class="cls-1" d="M46.4,26.75H38.81L41.25,14h7.48c3.34,0,5.67.78,7,2.32a4.85,4.85,0,0,1,.89,4.13C56,23.47,53,26.75,46.4,26.75Zm-2.86-3.46h3.22c3.25,0,5-1,5.4-3a2.06,2.06,0,0,0-.32-1.81c-.58-.7-1.88-1.06-3.86-1.06H44.65Z" transform="translate(-11.2 -10.85)"></path><path class="cls-1" d="M61,26.75H56.9L59.34,14H63.4Z" transform="translate(-11.2 -10.85)"></path><path class="cls-1" d="M80.67,26.75H76L75,24H68.18l-2,2.74H61.54l9.39-12.81h5.22ZM70.26,21H74.1L73,17.41H72.8Z" transform="translate(-11.2 -10.85)"></path><path class="cls-1" d="M101,26.75H97l1.46-7.7-6.22,7.7H90.09L86.81,19l-1.48,7.78h-4L83.75,14h5.47l3,7.2L98,14h5.4Z" transform="translate(-11.2 -10.85)"></path><path class="cls-1" d="M120.75,26.75h-4.69l-1-2.74h-6.85l-2,2.74h-4.64L111,13.94h5.21ZM110.34,21h3.84l-1.13-3.59h-.17Z" transform="translate(-11.2 -10.85)"></path><path class="cls-1" d="M137.54,26.75h-4.36L127,18.65l-1.54,8.1h-4L123.84,14h4.89l5.77,7.6,1.44-7.6h4Z" transform="translate(-11.2 -10.85)"></path><path class="cls-1" d="M148.8,26.75h-4.08l1.77-9.32h-6l.66-3.48h16.07l-.67,3.48h-6Z" transform="translate(-11.2 -10.85)"></path><path class="cls-1" d="M160,26.75H156L158.41,14h4.07Z" transform="translate(-11.2 -10.85)"></path><path class="cls-1" d="M24,32.35,11.2,16.45l4.51-5.6h11l4.39,5.37L24,25.06l-2.11-2.62,4.94-6.12-1.64-2.1H17.22l-1.79,2.23L24,27.11l8.6-10.66-4.49-5.6h4.2l4.52,5.6Z" transform="translate(-11.2 -10.85)"></path><path class="cls-2" d="M15,44.69s0,0,0,0v-.2s0,0,0,0h4s0,0,0,0v.2s0,0,0,0H17.25a.08.08,0,0,0,0,.06v5.12s0,0,0,.06l-.06,0H17l-.07,0s0,0,0-.06V44.77a.08.08,0,0,0,0-.06H15Z" transform="translate(-11.2 -10.85)"></path><path class="cls-2" d="M20.71,44.48s0,0,0-.06l.06,0H24s.06,0,.06.05v.2a.05.05,0,0,1,0,0s0,0,0,0H21.07s0,0,0,.06V47s0,0,0,0h2.27s.05,0,.05.06v.19s0,0,0,0H21.07s0,0,0,.06V49.6s0,0,0,0l.06,0h3s0,0,0,0v.19s0,0,0,0l0,0H20.78l-.06,0s0,0,0-.06Z" transform="translate(-11.2 -10.85)"></path><path class="cls-2" d="M25.86,45.66a2.07,2.07,0,0,1,.78-1,2.14,2.14,0,0,1,1.23-.34,2,2,0,0,1,.89.2,2.19,2.19,0,0,1,.72.55,1.32,1.32,0,0,1,.33.72v0h0l-.27,0h0s0,0,0,0a1.49,1.49,0,0,0-.55-.86,1.61,1.61,0,0,0-1-.33,1.68,1.68,0,0,0-1.43.66A3.11,3.11,0,0,0,26,47.21a3.06,3.06,0,0,0,.5,1.87,1.76,1.76,0,0,0,1.48.65,1.64,1.64,0,0,0,1-.29,1.78,1.78,0,0,0,.62-.87s0,0,0,0l.27.07a0,0,0,0,1,0,0,1.85,1.85,0,0,1-.42.72,2,2,0,0,1-.68.47,2.24,2.24,0,0,1-.86.17,2.26,2.26,0,0,1-1.25-.33,2,2,0,0,1-.8-1,3.88,3.88,0,0,1-.27-1.53A4,4,0,0,1,25.86,45.66Z" transform="translate(-11.2 -10.85)"></path><path class="cls-2" d="M35.1,47.23h-3s0,0,0,0,0,0,0,0V49.9A.07.07,0,0,1,32,50l-.06,0h-.21l-.05,0a.11.11,0,0,1,0-.06V44.48a.08.08,0,0,1,0-.06l.05,0H32l.05,0s0,0,0,.06v2.37a.08.08,0,0,0,0,.06h3a.05.05,0,0,0,.06-.06V44.47a.06.06,0,0,1,0,0l0,0h.22l.05,0a.08.08,0,0,1,0,.06v5.41a.11.11,0,0,1,0,.06l-.05,0h-.21l-.06,0a.08.08,0,0,1,0-.05V47.27S35.11,47.24,35.1,47.23Z" transform="translate(-11.2 -10.85)"></path><path class="cls-2" d="M42.06,44.4h.2l.06,0s0,0,0,.06v5.41a.11.11,0,0,1,0,.06l-.06,0h-.2a.07.07,0,0,1-.06,0l-3.27-4.73s0,0-.07,0,0,0,0,0V49.9a.08.08,0,0,1,0,.05l-.06,0h-.19s-.07,0-.07-.08V44.48s0,0,0-.06l.06,0h.2l0,0,3.27,4.73s0,0,.07,0a.07.07,0,0,0,0-.06V44.47S42,44.4,42.06,44.4Z" transform="translate(-11.2 -10.85)"></path><path class="cls-2" d="M49.07,48.75a2.06,2.06,0,0,1-.79,1A2.27,2.27,0,0,1,47,50a2.31,2.31,0,0,1-1.24-.32,2,2,0,0,1-.79-1,4,4,0,0,1-.27-1.55A4.05,4.05,0,0,1,45,45.64a2.12,2.12,0,0,1,.8-1,2.25,2.25,0,0,1,1.24-.33,2.22,2.22,0,0,1,1.23.33,2.14,2.14,0,0,1,.79,1,4.05,4.05,0,0,1,.27,1.57A4,4,0,0,1,49.07,48.75Zm-3.74-.15a1.6,1.6,0,0,0,.65.84,1.93,1.93,0,0,0,1.08.29,2,2,0,0,0,1.06-.28,1.79,1.79,0,0,0,.64-.84A4.09,4.09,0,0,0,49,47.2a3.19,3.19,0,0,0-.49-1.92,2,2,0,0,0-2.89,0,3.12,3.12,0,0,0-.5,1.92A3.76,3.76,0,0,0,45.33,48.6Z" transform="translate(-11.2 -10.85)"></path><path class="cls-2" d="M51.6,44.48s0,0,0-.06l0,0h.22l0,0a.08.08,0,0,1,0,.06V49.6s0,0,0,0a.08.08,0,0,0,.06,0h2.82s0,0,0,0v.19s0,0,0,0l0,0H51.66l0,0a.11.11,0,0,1,0-.06Z" transform="translate(-11.2 -10.85)"></path><path class="cls-2" d="M60.24,48.75a2.06,2.06,0,0,1-.79,1,2.27,2.27,0,0,1-1.24.33A2.37,2.37,0,0,1,57,49.72a2.08,2.08,0,0,1-.78-1,3.94,3.94,0,0,1-.28-1.55,4,4,0,0,1,.28-1.57,2.06,2.06,0,0,1,.8-1,2.25,2.25,0,0,1,1.24-.33,2.22,2.22,0,0,1,1.23.33,2.14,2.14,0,0,1,.79,1,4.05,4.05,0,0,1,.27,1.57A4,4,0,0,1,60.24,48.75Zm-3.75-.15a1.67,1.67,0,0,0,.66.84,2.13,2.13,0,0,0,2.13,0,1.74,1.74,0,0,0,.65-.84,4.09,4.09,0,0,0,.22-1.41,3.19,3.19,0,0,0-.49-1.92,2,2,0,0,0-2.89,0,3.12,3.12,0,0,0-.5,1.92A4,4,0,0,0,56.49,48.6Z" transform="translate(-11.2 -10.85)"></path><path class="cls-2" d="M66.06,49.59a1.72,1.72,0,0,1-.58.33,2.11,2.11,0,0,1-.73.12,2.2,2.2,0,0,1-1.22-.33,2.08,2.08,0,0,1-.77-1,4,4,0,0,1-.27-1.53,4,4,0,0,1,.27-1.56,2.25,2.25,0,0,1,.79-1,2.29,2.29,0,0,1,2.1-.14,2.07,2.07,0,0,1,.72.54,1.32,1.32,0,0,1,.33.71s0,0,0,0l0,0-.27.05h0s0,0,0,0a1.29,1.29,0,0,0-.29-.6,1.43,1.43,0,0,0-.56-.43,1.64,1.64,0,0,0-.74-.16,1.66,1.66,0,0,0-1.41.66,3.16,3.16,0,0,0-.48,1.86,3.23,3.23,0,0,0,.48,1.91,1.63,1.63,0,0,0,1.41.66,1.78,1.78,0,0,0,1-.26,1.86,1.86,0,0,0,.6-.65,1.68,1.68,0,0,0,.19-.77v-.59s0-.06-.08-.06H64.94a0,0,0,0,1,0,0v-.18s0,0,0,0h1.84a0,0,0,0,1,0,0v2.7a.08.08,0,0,1,0,.07l-.06,0h-.13l-.07,0s0,0,0-.05v-.8s0,0,0,0,0,0,0,0A1.69,1.69,0,0,1,66.06,49.59Z" transform="translate(-11.2 -10.85)"></path><path class="cls-2" d="M72.41,44.4a.05.05,0,0,1,0,0,0,0,0,0,1,0,0l-1.83,3a.09.09,0,0,0,0,.06s0,.06,0,.09v2.2s0,.06,0,.07a.12.12,0,0,1-.09,0h-.15a.11.11,0,0,1-.09-.09V47.67l0-.07-1.87-3.11a0,0,0,0,1,0-.06s0,0,.07,0h.17l.08,0a.12.12,0,0,1,0,0l1.6,2.68c0,.06.07.09.1.09s.06,0,.09-.08l1.6-2.69s0,0,0-.06h.27Z" transform="translate(-11.2 -10.85)"></path><path class="cls-2" d="M76.54,50l-.05,0s0,0,0-.05l2-5.42a.09.09,0,0,1,0-.06.15.15,0,0,1,.08,0h.25l.1,0a.07.07,0,0,1,0,.06l2,5.41A.06.06,0,0,1,81,50L81,50h-.18a.1.1,0,0,1-.1-.06l-.62-1.68,0,0H77.53a.09.09,0,0,0-.08,0l-.63,1.68a.08.08,0,0,1-.09.06Zm1-2.1h2.27c.06,0,.07,0,.06-.07l-1.1-2.93c0-.05,0-.07,0-.07s0,0-.06.08L77.6,47.82A.13.13,0,0,0,77.59,47.87Z" transform="translate(-11.2 -10.85)"></path><path class="cls-2" d="M82.79,44.48s0,0,0-.06l.06,0h.21l.06,0s0,0,0,.06V49.6s0,0,0,0a.06.06,0,0,0,0,0H86s0,0,0,0v.19s0,0,0,0l0,0H82.86l-.06,0a.11.11,0,0,1,0-.06Z" transform="translate(-11.2 -10.85)"></path><path class="cls-2" d="M87.45,44.48a.35.35,0,0,1,0-.06l.06,0h.21l.06,0s0,0,0,.06V49.6s0,0,0,0l.05,0H90.7s0,0,0,0v.19s0,0,0,0a.05.05,0,0,1,0,0H87.52l-.06,0s0,0,0-.06Z" transform="translate(-11.2 -10.85)"></path><path class="cls-2" d="M92.43,44.42a.08.08,0,0,1,.06,0h.21a.06.06,0,0,1,0,0,.08.08,0,0,1,0,.06v5.4a.14.14,0,0,1,0,.07.1.1,0,0,1-.07,0H92.5l-.07,0s0,0,0-.06V44.48S92.42,44.43,92.43,44.42Z" transform="translate(-11.2 -10.85)"></path><path class="cls-2" d="M94.88,50l0,0s0,0,0-.05l2-5.42a.09.09,0,0,1,0-.06.15.15,0,0,1,.08,0h.25l.1,0a.07.07,0,0,1,0,.06l2,5.41s0,0,0,.06l-.05,0h-.19a.1.1,0,0,1-.1-.06l-.62-1.68,0,0H95.87a.09.09,0,0,0-.08,0l-.63,1.68a.08.08,0,0,1-.09.06Zm1.05-2.1h2.28c.05,0,.06,0,.05-.07l-1.1-2.93c0-.05,0-.07,0-.07s0,0-.06.08l-1.11,2.93A.13.13,0,0,0,95.93,47.87Z" transform="translate(-11.2 -10.85)"></path><path class="cls-2" d="M105.19,44.4h.21a.06.06,0,0,1,0,0,.08.08,0,0,1,0,.06v5.41a.11.11,0,0,1,0,.06.06.06,0,0,1,0,0h-.2a.07.07,0,0,1-.06,0l-3.28-4.73s0,0-.06,0,0,0,0,0V49.9s0,0,0,.05l0,0h-.2s-.06,0-.06-.08V44.48s0,0,0-.06l0,0h.21l.05,0L105,49.18s0,0,.07,0a.06.06,0,0,0,0-.06V44.47S105.15,44.4,105.19,44.4Z" transform="translate(-11.2 -10.85)"></path><path class="cls-2" d="M107.83,45.66a2,2,0,0,1,.79-1,2.13,2.13,0,0,1,1.22-.34,2,2,0,0,1,.89.2,2.09,2.09,0,0,1,.72.55,1.41,1.41,0,0,1,.34.72v0h0l-.28,0s0,0,0,0a.05.05,0,0,1,0,0,1.45,1.45,0,0,0-.56-.86,1.58,1.58,0,0,0-1-.33,1.67,1.67,0,0,0-1.43.66,3.11,3.11,0,0,0-.5,1.91,3,3,0,0,0,.51,1.87,1.75,1.75,0,0,0,1.48.65,1.63,1.63,0,0,0,1-.29,1.72,1.72,0,0,0,.62-.87,0,0,0,0,1,0,0l.26.07s0,0,0,0a1.85,1.85,0,0,1-.42.72,2,2,0,0,1-.69.47,2.19,2.19,0,0,1-.85.17,2.32,2.32,0,0,1-1.26-.33,2,2,0,0,1-.79-1,3.88,3.88,0,0,1-.27-1.53A4.22,4.22,0,0,1,107.83,45.66Z" transform="translate(-11.2 -10.85)"></path><path class="cls-2" d="M113.94,44.48a.08.08,0,0,1,0-.06l.05,0h3.18s0,0,0,.05v.2s0,0,0,0h-2.92s0,0,0,.06V47s0,0,0,0h2.27s0,0,0,.06v.19s0,0,0,0h-2.31s0,0,0,.06V49.6s0,0,0,0a.08.08,0,0,0,.06,0h3a.1.1,0,0,1,0,0v.19a.1.1,0,0,1,0,0,.06.06,0,0,1,0,0H114L114,50a.08.08,0,0,1,0-.06Z" transform="translate(-11.2 -10.85)"></path><path class="cls-2" d="M124.71,44.56a1.5,1.5,0,0,1,.71.51,1.44,1.44,0,0,1,.26.88,1.37,1.37,0,0,1-1,1.4,3,3,0,0,1-1,.16h-1.4s-.06,0-.06.07V49.9s0,0,0,.05l0,0h-.23a.07.07,0,0,1-.06-.06V44.48a.08.08,0,0,1,0-.06l0,0h1.7A3.13,3.13,0,0,1,124.71,44.56Zm.18,2.35a1.14,1.14,0,0,0,.42-1,1.05,1.05,0,0,0-.43-1,2.25,2.25,0,0,0-1.25-.28h-1.34l-.05,0s0,0,0,0v2.38a.07.07,0,0,0,0,0s0,0,0,0h1.41A2.09,2.09,0,0,0,124.89,46.91Z" transform="translate(-11.2 -10.85)"></path><path class="cls-2" d="M131.22,49.86a.08.08,0,0,1,0,.07s0,0-.06,0h-.22l-.05,0,0-.05-1.08-2.52s0-.05-.05-.06a.33.33,0,0,0-.12,0H128l-.07,0a.12.12,0,0,0,0,.07v2.49a.14.14,0,0,1,0,.07l-.06,0h-.2l-.06,0a.07.07,0,0,1,0-.05V44.48s0,0,0-.06l.06,0h2a2.09,2.09,0,0,1,1.29.35,1.24,1.24,0,0,1,.46,1,1.37,1.37,0,0,1-.34,1,1.75,1.75,0,0,1-.83.46s0,0,0,.05ZM129.28,47a2.26,2.26,0,0,0,1.24-.27,1.2,1.2,0,0,0,.06-1.75,1.58,1.58,0,0,0-1-.28h-1.6l-.06,0a.05.05,0,0,0,0,0v2.18a.07.07,0,0,0,0,.05h1.41Z" transform="translate(-11.2 -10.85)"></path><path class="cls-2" d="M137.47,48.75a2,2,0,0,1-.8,1,2.22,2.22,0,0,1-1.23.33,2.37,2.37,0,0,1-1.25-.32,2.08,2.08,0,0,1-.78-1,3.77,3.77,0,0,1-.28-1.55,3.87,3.87,0,0,1,.28-1.57,2.06,2.06,0,0,1,.8-1,2.48,2.48,0,0,1,2.47,0,2.14,2.14,0,0,1,.79,1,4.05,4.05,0,0,1,.27,1.57A4,4,0,0,1,137.47,48.75Zm-3.75-.15a1.67,1.67,0,0,0,.66.84,2.13,2.13,0,0,0,2.13,0,1.74,1.74,0,0,0,.65-.84,4.11,4.11,0,0,0,.21-1.41,3.12,3.12,0,0,0-.49-1.92,1.67,1.67,0,0,0-1.43-.64,1.73,1.73,0,0,0-1.46.64,3.19,3.19,0,0,0-.49,1.92A3.77,3.77,0,0,0,133.72,48.6Z" transform="translate(-11.2 -10.85)"></path><path class="cls-2" d="M143.29,49.59a1.72,1.72,0,0,1-.58.33A2.11,2.11,0,0,1,142,50a2.2,2.2,0,0,1-1.22-.33,2.08,2.08,0,0,1-.77-1,4,4,0,0,1-.27-1.53,4,4,0,0,1,.27-1.56,2.25,2.25,0,0,1,.79-1,2.29,2.29,0,0,1,2.1-.14,2.07,2.07,0,0,1,.72.54,1.32,1.32,0,0,1,.33.71s0,0,0,0l0,0-.27.05h0s0,0,0,0a1.29,1.29,0,0,0-.29-.6,1.43,1.43,0,0,0-.56-.43,1.64,1.64,0,0,0-.74-.16,1.66,1.66,0,0,0-1.41.66,3.16,3.16,0,0,0-.49,1.86,3.22,3.22,0,0,0,.49,1.91,1.63,1.63,0,0,0,1.41.66,1.78,1.78,0,0,0,1-.26,1.74,1.74,0,0,0,.59-.65,1.58,1.58,0,0,0,.2-.77v-.59s0-.06-.08-.06h-1.49a0,0,0,0,1,0,0v-.18s0,0,0,0H144a0,0,0,0,1,0,0v2.7a.14.14,0,0,1,0,.07L144,50h-.13l-.07,0s0,0,0-.05v-.8s0,0,0,0l0,0A1.69,1.69,0,0,1,143.29,49.59Z" transform="translate(-11.2 -10.85)"></path><path class="cls-2" d="M150.07,49.86a.08.08,0,0,1,0,.07.07.07,0,0,1-.06,0h-.21l-.06,0,0-.05-1.09-2.52a.1.1,0,0,0-.05-.06l-.11,0H146.8a.08.08,0,0,0-.06,0,.08.08,0,0,0,0,.07v2.49a.15.15,0,0,1,0,.07l-.06,0h-.2l-.06,0a.08.08,0,0,1,0-.05V44.48a.08.08,0,0,1,0-.06.06.06,0,0,1,.05,0h2a2.07,2.07,0,0,1,1.28.35,1.22,1.22,0,0,1,.46,1,1.33,1.33,0,0,1-.34,1,1.72,1.72,0,0,1-.82.46s0,0,0,.05ZM148.14,47a2.28,2.28,0,0,0,1.24-.27,1,1,0,0,0,.4-.9,1,1,0,0,0-.34-.85,1.61,1.61,0,0,0-1-.28h-1.6l-.07,0a.05.05,0,0,0,0,0v2.18a.43.43,0,0,0,0,.05h1.42Z" transform="translate(-11.2 -10.85)"></path><path class="cls-2" d="M151.77,50l-.05,0s0,0,0-.05l2-5.42a.09.09,0,0,1,0-.06l.08,0h.25l.1,0a.07.07,0,0,1,0,.06l2,5.41s0,0,0,.06l0,0H156a.1.1,0,0,1-.1-.06l-.62-1.68,0,0h-2.51a.09.09,0,0,0-.08,0l-.63,1.68A.08.08,0,0,1,152,50Zm1-2.1h2.27c.06,0,.07,0,.06-.07l-1.1-2.93c0-.05,0-.07-.05-.07s0,0-.06.08l-1.11,2.93A.13.13,0,0,0,152.82,47.87Z" transform="translate(-11.2 -10.85)"></path><path class="cls-2" d="M158.39,50l0,0a.11.11,0,0,1,0-.06V44.48s0,0,0-.06l0,0h.27l0,.05,2.05,5s0,.07.06.07a.14.14,0,0,0,.06-.08l2.07-5a.11.11,0,0,1,.09-.05h.22l0,0a.08.08,0,0,1,0,.06v5.41a.11.11,0,0,1,0,.06l0,0H163L163,50s0,0,0-.05V45.24l0,0L161,49.88a.43.43,0,0,1,0,.07l-.09,0h-.2a.14.14,0,0,1-.15-.08l-1.87-4.59v0s0,0,0,0v4.6s0,0,0,.05a.08.08,0,0,1-.06,0Z" transform="translate(-11.2 -10.85)"></path><line class="cls-3" x1="3.44" y1="25.52" x2="152.94" y2="25.52"></line></svg> 