<?xml version="1.0" encoding="UTF-8"?> <!-- Generator: Adobe Illustrator 23.1.1, SVG Export Plug-In . SVG Version: 6.00 Build 0) --> <svg xmlns="http://www.w3.org/2000/svg" xmlns:xlink="http://www.w3.org/1999/xlink" id="Layer_1" x="0px" y="0px" viewBox="0 0 216 50.2" style="enable-background:new 0 0 216 50.2;" xml:space="preserve"> <style type="text/css"> .st0{fill:#95C93D;} .st1{fill:#FFFFFF;} </style> <g> <g> <path class="st0" d="M51.3,23.4H40.7l3.4-18h10.5c4.7,0,8,1.1,9.8,3.2c1.3,1.5,1.7,3.5,1.3,5.8C64.8,18.8,60.6,23.4,51.3,23.4z M47.3,18.5h4.5c4.6,0,7-1.4,7.6-4.2c0.2-1.1,0.1-1.9-0.5-2.5c-0.8-1-2.6-1.5-5.4-1.5h-4.7L47.3,18.5z"></path> </g> <g> <path class="st0" d="M71.8,23.4h-5.7l3.4-18h5.7L71.8,23.4z"></path> </g> <g> <path class="st0" d="M99.4,23.4h-6.6l-1.3-3.9h-9.6l-2.8,3.9h-6.5l13.2-18h7.3L99.4,23.4z M84.8,15.3h5.4l-1.6-5h-0.2L84.8,15.3z"></path> </g> <g> <path class="st0" d="M128,23.4h-5.7l2.1-10.8l-8.7,10.8h-3l-4.6-10.9L106,23.4h-5.6l3.4-18h7.7l4.3,10.1l8.1-10.1h7.6L128,23.4z"></path> </g> <g> <path class="st0" d="M155.7,23.4h-6.6l-1.3-3.9h-9.6l-2.8,3.9h-6.5l13.2-18h7.3L155.7,23.4z M141.1,15.3h5.4l-1.6-5h-0.2 L141.1,15.3z"></path> </g> <g> <path class="st0" d="M179.3,23.4h-6.1L164.5,12l-2.2,11.4h-5.7l3.4-18h6.9l8.1,10.7l2-10.7h5.7L179.3,23.4z"></path> </g> <g> <path class="st0" d="M195.1,23.4h-5.7l2.5-13.1h-8.4l0.9-4.9H207l-0.9,4.9h-8.4L195.1,23.4z"></path> </g> <g> <path class="st0" d="M210.9,23.4h-5.7l3.4-18h5.7L210.9,23.4z"></path> </g> <g> <path class="st0" d="M19.9,31.2L1.9,8.9L8.2,1h15.5l6.2,7.5L19.8,21l-3-3.7l6.9-8.6l-2.3-2.9H10.3L7.8,8.9l12.1,15L32,8.9L25.7,1 h5.9l6.3,7.9L19.9,31.2z"></path> </g> </g> <g> <path class="st1" d="M111.1,43.9h1.6c0.2,2.2,1.6,3.4,4.1,3.4c1.8,0,3.2-0.8,3.2-2.5c0-1.8-1.6-2.2-4-2.8c-2.3-0.5-4.4-1.2-4.4-3.7 c0-2.2,1.8-3.5,4.5-3.5c3.3,0,4.7,1.7,5.1,4.2h-1.6c-0.2-1.9-1.5-2.8-3.4-2.8c-1.8,0-3,0.8-3,2.1c0,1.5,1.5,2,3.5,2.3 c2.6,0.5,5,1.2,5,4.2c0,2.5-2,3.9-4.9,3.9C113.1,48.7,111.3,46.6,111.1,43.9z"></path> <path class="st1" d="M127.3,35.1h5.6c1.4,0,2.5,0.5,3.2,1.3c0.6,0.7,0.9,1.5,0.9,2.5c0,2.4-1.4,3.9-4.3,3.9H129v5.6h-1.7 C127.3,48.4,127.3,35.1,127.3,35.1z M129,41.5h3.5c1.9,0,2.8-1,2.8-2.5c0-1.6-1-2.4-2.7-2.4H129V41.5z"></path> <path class="st1" d="M142.3,35.1h9.4v1.5H144v4.2h7v1.4h-7v4.7h8v1.5h-9.6L142.3,35.1L142.3,35.1z"></path> <path class="st1" d="M157.6,35.1h1.7v6.6l6.6-6.6h2.1l-5.4,5.3l5.8,8h-2l-5-6.9l-2.1,2.1v4.7h-1.7L157.6,35.1L157.6,35.1z"></path> <path class="st1" d="M172.5,35.1H183v1.5h-4.4v11.8h-1.7V36.6h-4.4L172.5,35.1L172.5,35.1z"></path> <path class="st1" d="M188.4,35.1h6.2c2.4,0,3.9,1.5,3.9,3.7c0,1.6-0.7,2.8-2.3,3.3v0.1c1.4,0.5,1.8,1.4,1.9,3.4 c0.1,2.1,0.4,2.7,0.6,2.8v0.1H197c-0.3-0.2-0.3-0.8-0.5-3c-0.1-2-0.9-2.7-2.7-2.7h-3.7v5.6h-1.7V35.1z M190.1,41.5h3.9 c1.9,0,2.8-0.9,2.8-2.4c0-1.6-0.8-2.4-2.7-2.4h-4V41.5z"></path> <path class="st1" d="M208.1,35.1h1.9l4.9,13.3h-1.8l-1.4-4.1h-5.3l-1.4,4.1h-1.7L208.1,35.1z M206.9,43h4.4l-1.5-4.5 c-0.3-0.8-0.6-1.9-0.6-1.9h0c0,0-0.4,1.1-0.6,1.9L206.9,43z"></path> </g> </svg> 