<?xml version="1.0" encoding="UTF-8"?> <svg xmlns="http://www.w3.org/2000/svg" xmlns:xlink="http://www.w3.org/1999/xlink" width="44px" height="44px" viewBox="0 0 44 44" version="1.1"><title>ico/bare metal</title><g id="icons" stroke="none" stroke-width="1" fill="none" fill-rule="evenodd"><g id="splunk" transform="translate(-86.000000, -49.000000)" fill="#FFFFFF"><g id="Combined-Shape" transform="translate(86.000000, 49.000000)"><path d="M39,2 C40.1045695,2 41,2.8954305 41,4 L41,40 C41,41.1045695 40.1045695,42 39,42 L5,42 C3.8954305,42 3,41.1045695 3,40 L3,4 C3,2.8954305 3.8954305,2 5,2 L39,2 Z M35.9189189,29 L8.08108108,29 C6.97651158,29 6.08108108,29.8954305 6.08108108,31 L6.08108108,31 L6.08108108,37 C6.08108108,38.1045695 6.97651158,39 8.08108108,39 L8.08108108,39 L35.9189189,39 C37.0234884,39 37.9189189,38.1045695 37.9189189,37 L37.9189189,37 L37.9189189,31 C37.9189189,29.8954305 37.0234884,29 35.9189189,29 L35.9189189,29 Z M15.6936937,31.7777778 C16.2459784,31.7777778 16.6936937,32.225493 16.6936937,32.7777778 L16.6936937,32.7777778 L16.6936937,34.1111111 L16.686966,34.2277322 C16.6292009,34.7250709 16.2065295,35.1111111 15.6936937,35.1111111 L15.6936937,35.1111111 L10.2648649,35.1111111 L10.1482437,35.1043834 C9.65090506,35.0466183 9.26486486,34.623947 9.26486486,34.1111111 L9.26486486,34.1111111 L9.26486486,32.7777778 L9.2715926,32.6611567 C9.3293577,32.163818 9.75202903,31.7777778 10.2648649,31.7777778 L10.2648649,31.7777778 Z M35.9189189,17 L8.08108108,17 C6.97651158,17 6.08108108,17.8954305 6.08108108,19 L6.08108108,19 L6.08108108,25 C6.08108108,26.1045695 6.97651158,27 8.08108108,27 L8.08108108,27 L35.9189189,27 C37.0234884,27 37.9189189,26.1045695 37.9189189,25 L37.9189189,25 L37.9189189,19 C37.9189189,17.8954305 37.0234884,17 35.9189189,17 L35.9189189,17 Z M15.6936937,19.7777778 C16.2459784,19.7777778 16.6936937,20.225493 16.6936937,20.7777778 L16.6936937,20.7777778 L16.6936937,22.1111111 L16.686966,22.2277322 C16.6292009,22.7250709 16.2065295,23.1111111 15.6936937,23.1111111 L15.6936937,23.1111111 L10.2648649,23.1111111 L10.1482437,23.1043834 C9.65090506,23.0466183 9.26486486,22.623947 9.26486486,22.1111111 L9.26486486,22.1111111 L9.26486486,20.7777778 L9.2715926,20.6611567 C9.3293577,20.163818 9.75202903,19.7777778 10.2648649,19.7777778 L10.2648649,19.7777778 Z M35.9189189,5 L8.08108108,5 C6.97651158,5 6.08108108,5.8954305 6.08108108,7 L6.08108108,7 L6.08108108,13 C6.08108108,14.1045695 6.97651158,15 8.08108108,15 L8.08108108,15 L35.9189189,15 C37.0234884,15 37.9189189,14.1045695 37.9189189,13 L37.9189189,13 L37.9189189,7 C37.9189189,5.8954305 37.0234884,5 35.9189189,5 L35.9189189,5 Z M15.6936937,7.77777778 C16.2459784,7.77777778 16.6936937,8.22549303 16.6936937,8.77777778 L16.6936937,8.77777778 L16.6936937,10.1111111 L16.686966,10.2277322 C16.6292009,10.7250709 16.2065295,11.1111111 15.6936937,11.1111111 L15.6936937,11.1111111 L10.2648649,11.1111111 L10.1482437,11.1043834 C9.65090506,11.0466183 9.26486486,10.623947 9.26486486,10.1111111 L9.26486486,10.1111111 L9.26486486,8.77777778 L9.2715926,8.66115665 C9.3293577,8.16381797 9.75202903,7.77777778 10.2648649,7.77777778 L10.2648649,7.77777778 Z"></path></g></g></g></svg> 