<?xml version="1.0" encoding="UTF-8"?> <svg xmlns="http://www.w3.org/2000/svg" xmlns:xlink="http://www.w3.org/1999/xlink" width="44px" height="44px" viewBox="0 0 44 44" version="1.1"><title>Ico/data insight</title><g id="icons" stroke="none" stroke-width="1" fill="none" fill-rule="evenodd"><g id="Artboard" transform="translate(-170.000000, -48.000000)" fill="#2492C3" fill-rule="nonzero"><g id="Combined-Shape" transform="translate(170.000000, 48.000000)"><path d="M22,3 C32.4788732,3 41,11.5211268 41,22 C41,32.4788732 32.4788732,41 22,41 C11.5211268,41 3,32.4788732 3,22 C3,11.5211268 11.5211268,3 22,3 Z M17.2112347,18.2935206 L13.1780868,18.2935206 C12.6810305,18.2935206 12.2780868,18.6964643 12.2780868,19.1935206 L12.2780868,19.1935206 L12.2780868,30.0320078 C12.2780868,30.5290641 12.6810305,30.9320078 13.1780868,30.9320078 L13.1780868,30.9320078 L17.2112347,30.9320078 C17.708291,30.9320078 18.1112347,30.5290641 18.1112347,30.0320078 L18.1112347,30.0320078 L18.1112347,19.1935206 C18.1112347,18.6964643 17.708291,18.2935206 17.2112347,18.2935206 L17.2112347,18.2935206 Z M30.8219132,22.1822859 L26.7887653,22.1822859 C26.291709,22.1822859 25.8887653,22.5852296 25.8887653,23.0822859 L25.8887653,23.0822859 L25.8887653,30.0320078 C25.8887653,30.5290641 26.291709,30.9320078 26.7887653,30.9320078 L26.7887653,30.9320078 L30.8219132,30.9320078 C31.3189695,30.9320078 31.7219132,30.5290641 31.7219132,30.0320078 L31.7219132,30.0320078 L31.7219132,23.0822859 C31.7219132,22.5852296 31.3189695,22.1822859 30.8219132,22.1822859 L30.8219132,22.1822859 Z M24.016574,13.432564 L19.983426,13.432564 C19.4863698,13.432564 19.083426,13.8355077 19.083426,14.332564 L19.083426,14.332564 L19.083426,30.0320078 C19.083426,30.5290641 19.4863698,30.9320078 19.983426,30.9320078 L19.983426,30.9320078 L24.016574,30.9320078 C24.5136302,30.9320078 24.916574,30.5290641 24.916574,30.0320078 L24.916574,30.0320078 L24.916574,14.332564 C24.916574,13.8355077 24.5136302,13.432564 24.016574,13.432564 L24.016574,13.432564 Z"></path></g></g></g></svg> 