<?xml version="1.0" encoding="UTF-8"?> <svg xmlns="http://www.w3.org/2000/svg" xmlns:xlink="http://www.w3.org/1999/xlink" width="44px" height="44px" viewBox="0 0 44 44" version="1.1"><title>Ico/c efficient scaling</title><g id="Ico/c-efficient-scaling" stroke="none" stroke-width="1" fill="none" fill-rule="evenodd"><g id="Group" fill="#2492C3"><path d="M38.3636364,2 C40.3719445,2 42,3.62805546 42,5.63636364 L42,31.0909091 C42,33.0992173 40.3719445,34.7272727 38.3636364,34.7272727 L19.181,34.727 L19.181818,38.9999998 C19.181818,40.6568541 17.8386722,41.9999998 16.181818,41.9999998 L5,41.9999998 C3.34314575,41.9999998 2,40.6568541 2,38.9999998 L2,27.8181818 C2,26.1613276 3.34314575,24.8181818 5,24.8181818 L9.272,24.818 L9.27272727,5.63636364 C9.27272727,3.62805546 10.9007827,2 12.9090909,2 L38.3636364,2 Z M38.6363636,5.36363636 L12.6363636,5.36363636 L12.636,24.818 L16.181818,24.8181818 L16.341,24.823 L26.2315411,15.4981818 L21.9090909,15.5 C21.0743878,15.5 20.3898251,14.8571725 20.3234556,14.0395702 L20.3181818,13.9090909 C20.3181818,13.0743878 20.9610093,12.3898251 21.7786116,12.3234556 L21.9090909,12.3181818 L30.5236571,12.3181818 C31.3583602,12.3181818 32.0429229,12.9610093 32.1092924,13.7786116 L32.1145662,13.9090909 L32.1145662,20.9672999 C32.1145662,21.8459347 31.402292,22.558209 30.5236571,22.558209 C29.6889541,22.558209 29.0043914,21.9153814 28.9380219,21.0977792 L28.9327481,20.9672999 L28.9325411,17.3251818 L18.9728416,26.715912 C19.1077121,27.0571328 19.181818,27.4290031 19.181818,27.8181818 L19.181,31.363 L38.6363636,31.3636364 L38.6363636,5.36363636 Z" id="Combined-Shape"></path></g></g></svg> 