<?xml version="1.0" encoding="UTF-8"?> <svg xmlns="http://www.w3.org/2000/svg" xmlns:xlink="http://www.w3.org/1999/xlink" width="37px" height="37px" viewBox="0 0 37 37" version="1.1"><title>Ico/empower business</title><g id="icons" stroke="none" stroke-width="1" fill="none" fill-rule="evenodd"><g id="Artboard" transform="translate(-272.000000, -49.000000)" fill="#2492C3" fill-rule="nonzero"><g id="Group-2" transform="translate(268.000000, 45.000000)"><g id="noun_leaf_53767" transform="translate(4.000000, 4.000000)"><path d="M1.14206667,26.4911778 C1.20578889,26.3723667 1.27238889,26.2531444 1.3431,26.1347444 C1.61772222,25.6570333 1.94496667,25.1838444 2.31948889,24.7308 C3.06524444,23.8189556 4.01737778,23.0193444 5.05008889,22.3558111 C6.08773333,21.6972111 7.21294444,21.1841444 8.34555556,20.7483667 C9.47898889,20.3084778 10.6333889,19.9602667 11.7688778,19.6182222 C12.9043667,19.2757667 14.0316333,18.9670222 15.1182,18.6237444 C16.2080556,18.2895111 17.2613222,17.9330778 18.2590889,17.5408778 C19.2568556,17.1507333 20.1974778,16.7223556 21.0616333,16.2631444 C21.9249667,15.8014667 22.7143,15.3126556 23.4148333,14.8156222 C24.1149556,14.3181778 24.7332667,13.8215556 25.2570222,13.3500111 C25.3865222,13.2307889 25.5127333,13.1156778 25.6344222,13.0042667 C25.752,12.8883333 25.8654667,12.7765111 25.9744111,12.6696222 C26.1988778,12.4599556 26.3871667,12.2502889 26.5672333,12.0685778 C26.9146222,11.6969333 27.1789667,11.3951778 27.3582111,11.1814 C27.5382778,10.9700889 27.6344778,10.8578556 27.6344778,10.8578556 C27.6714778,10.8151 27.7360222,10.8101667 27.7791889,10.8471667 C27.8166,10.8788222 27.8252333,10.9326778 27.8026222,10.9746111 C27.8026222,10.9746111 27.7306778,11.1037 27.5962444,11.3466667 C27.4679778,11.5904556 27.2505,11.9399 26.9680667,12.3830778 C26.6802889,12.8200889 26.3185111,13.3479556 25.8477889,13.912 C25.3811778,14.4785111 24.8278222,15.1029889 24.1614111,15.7258222 C23.4970556,16.3503 22.7291,16.9797111 21.8674111,17.5774667 C21.0102444,18.1838556 20.0515333,18.7376222 19.0418444,19.2663111 C18.0276333,19.7839 16.9558667,20.2632556 15.8614889,20.7052 C14.7654667,21.1434444 13.6525889,21.5619556 12.5545111,21.9669 C11.4568444,22.3718444 10.3834333,22.792 9.37333333,23.2364111 C8.36241111,23.6808222 7.43371111,24.1860778 6.62382222,24.7382 C6.39154444,24.901 6.17036667,25.0691444 5.95987778,25.2414 C5.8386,25.3133444 5.71814444,25.3865222 5.59892222,25.4617556 C4.56621111,26.1252889 3.6149,26.9253111 2.86873333,27.8371556 C2.49421111,28.2897889 2.16696667,28.7629778 1.89234444,29.2406889 C1.60908889,29.7151111 1.38708889,30.1965222 1.18893333,30.6610778 C0.8066,31.5959444 0.578022222,32.4777778 0.428788889,33.2560111 C0.279555556,34.0354778 0.212544444,34.7117556 0.164033333,35.2667556 C0.125388889,35.8209333 0.104833333,36.2542444 0.103188889,36.5481889 C0.100311111,36.6953667 0.0978444444,36.8084222 0.0970222222,36.8840667 C0.101955556,36.9029778 0.0838666667,36.9198333 0.107711111,36.9342222 C0.150877778,36.9486111 0.348622222,36.9609444 0.585833333,36.9708111 C0.705466667,36.9757444 0.8103,36.9794444 0.900333333,36.9831444 C1.04216667,36.9868444 1.16097778,36.9901333 1.25553333,36.9921889 C1.44546667,36.9967111 1.54084444,36.9991778 1.54084444,36.9991778 C1.6021,37.0002624 1.67897778,37.0008222 1.74105556,36.9991778 L1.74434444,36.9991778 C1.74434444,36.9991778 1.84013333,36.9971222 2.03006667,36.9921889 C2.12503333,36.9901333 2.24384444,36.9872556 2.38567778,36.9839667 C2.47571111,36.9806778 2.58095556,36.9765667 2.70058889,36.9728667 C2.9378,36.9642333 3.13636667,36.9543667 3.17994444,36.9420333 C3.2042,36.9297 3.18693333,36.9149 3.19268889,36.8984556 C3.19351111,36.8318556 3.19474444,36.7331889 3.19638889,36.6041 C3.19597778,36.3455111 3.21118889,35.9705778 3.24037778,35.4969778 C3.2782,35.0258444 3.33041111,34.4544 3.44716667,33.8225222 C3.5668,33.1922889 3.73658889,32.4971 4.00463333,31.7883444 C4.14687778,31.4384889 4.30104444,31.0779444 4.49961111,30.7305556 C4.51235556,30.7071222 4.52633333,30.6841 4.5399,30.6602556 C33.3620778,39.9135444 36.0824,0 36.0824,0 C32.5336889,11.0519 2.49421111,3.54953333 1.14206667,26.4911778 Z" id="Path"></path></g></g></g></g></svg> 