<?xml version="1.0" encoding="UTF-8"?> <svg xmlns="http://www.w3.org/2000/svg" xmlns:xlink="http://www.w3.org/1999/xlink" width="44px" height="44px" viewBox="0 0 44 44" version="1.1"><title>Ico/latency</title><g id="icons" stroke="none" stroke-width="1" fill="none" fill-rule="evenodd"><g id="splunk" transform="translate(-379.000000, -48.000000)" fill="#FFFFFF" fill-rule="nonzero"><g id="Group-4" transform="translate(379.000000, 48.000000)"><g id="Combined-Shape" transform="translate(21.500000, 21.500000) scale(-1, -1) translate(-21.500000, -21.500000) translate(0.000000, 1.000000)"><path d="M19.7227866,0.000159375389 C23.2942957,-0.0140463736 26.8328459,0.921629342 29.9572867,2.71847938 C31.0400732,3.34118442 31.4130429,4.72375852 30.7903379,5.80654505 C30.1676329,6.88933158 28.7850588,7.26230132 27.7022722,6.63959628 C25.2697883,5.24068712 22.5154962,4.51238764 19.740778,4.52342414 C16.3594056,4.53687361 13.0971989,5.64301276 10.3981565,7.75173581 C8.51296629,9.22460784 7.03258083,11.0832403 6.02528385,13.20346 C4.90423747,15.5631063 4.39691345,18.1924804 4.54998269,20.8316066 C4.7368235,24.0530014 5.89640814,27.1632367 7.94365066,29.7835876 C9.0295438,31.1734675 10.3108895,32.3571902 11.7442314,33.3082318 C14.2666427,34.9818855 17.2061614,35.8970577 20.1954995,35.9572453 C23.7069783,36.0279459 27.1139527,34.9202879 29.9148611,32.7319785 C31.9601527,31.1340215 33.5282426,29.0822621 34.5320517,26.7391665 C35.6472301,24.136112 36.031922,21.2472934 35.6415119,18.406646 C35.6295625,18.3197015 35.6227243,18.2332331 35.6207672,18.147544 L34.6404764,19.993501 L34.5720164,20.1115778 C34.066458,20.9137858 33.0194972,21.2014917 32.1688003,20.7491682 C31.2775941,20.2753054 30.9392704,19.1686983 31.4131331,18.2774921 L31.4131331,18.2774921 L33.9757279,13.4579522 L34.0441879,13.3398754 C34.5497463,12.5376673 35.5967072,12.2499614 36.447404,12.702285 L36.447404,12.702285 L42.0300455,15.6706281 L42.1481223,15.7390881 C42.9503304,16.2446465 43.2380363,17.2916073 42.7857127,18.1423042 L42.7857127,18.1423042 L42.7172528,18.260381 C42.2116944,19.062589 41.1647335,19.3502949 40.3140366,18.8979714 L40.3140366,18.8979714 L40.2409404,18.8584414 C40.5192426,22.162642 39.9893776,25.4870843 38.6898616,28.5204201 C37.3880947,31.5590102 35.3500222,34.225716 32.6996829,36.2963879 C29.0696026,39.1325175 24.6449193,40.5710478 20.1044453,40.4796293 C16.2584273,40.4021931 12.4827946,39.2267103 9.24338973,37.0773217 C7.40604345,35.8582178 5.76528639,34.3424665 4.37924119,32.5684095 C1.76214439,29.2186784 0.274027866,25.2272556 0.0342711891,21.0935178 C-0.162612294,17.6989733 0.490947751,14.3116828 1.93963209,11.2624042 C3.2465966,8.51142615 5.17066119,6.09575199 7.61333464,4.18732634 C11.1113736,1.45435879 15.3487645,0.0175571357 19.7227866,0.000159375389 Z M22.9376178,14.969469 L22.9920391,15.0212409 L27.0189704,19.0334215 C27.6382556,19.6504383 27.6133432,20.6271725 26.9633269,21.2150184 C26.3324288,21.7855747 25.3445384,21.7800786 24.7207391,21.2151021 L24.6650532,21.1621998 L21.916185,18.4235218 L14.823519,26.7619365 C14.2595326,27.4250112 13.2360547,27.5285491 12.5375171,26.9931946 C11.8595248,26.4735859 11.7368305,25.5430923 12.2458718,24.8825347 L12.2938908,24.8232466 L20.5502664,15.1162851 C21.1507489,14.4103021 22.2548119,14.3493639 22.9376178,14.969469 Z"></path></g></g></g></g></svg> 