<?xml version="1.0" encoding="UTF-8"?> <svg xmlns="http://www.w3.org/2000/svg" width="381" height="323" viewBox="0 0 381 323" fill="none"><g id="Group 14"><g id="Group 9"><g id="gradient" style="mix-blend-mode:multiply" opacity="0.710124"><g id="gradient_2" style="mix-blend-mode:multiply" opacity="0.716216"><rect width="319.355" height="276" transform="matrix(1 0 0 -1 26.9011 231.281)" fill="url(#paint0_radial)"></rect></g></g></g><g id="Diagrams-export-05"><path id="Path" d="M78.0513 253.059L86.2109 261.218L292.945 253.059L301.115 46.3241L292.945 38.1542H78.0513V253.059Z" fill="#3BAB24"></path><rect id="Rectangle" x="86.1904" y="45.985" width="214.904" height="214.904" fill="url(#paint1_linear)"></rect><path id="Path_2" d="M168.938 151.855L163.768 151.885L163.738 146.521L161.991 146.531L162.021 151.896L156.883 151.926L156.893 153.663L162.032 153.632L162.073 158.976L163.809 158.966L163.779 153.622L168.948 153.591L168.938 151.855Z" fill="white"></path><rect id="Rectangle_2" x="250.585" y="136.203" width="4.42922" height="4.42922" fill="white"></rect><rect id="Rectangle_3" x="250.585" y="141.773" width="4.42922" height="4.42922" fill="white"></rect><rect id="Rectangle_4" x="250.585" y="147.343" width="4.42922" height="4.42922" fill="white"></rect><rect id="Rectangle_5" x="245.2" y="141.773" width="4.42922" height="4.42922" fill="white"></rect><rect id="Rectangle_6" x="245.2" y="147.343" width="4.42922" height="4.42922" fill="white"></rect><rect id="Rectangle_7" x="239.815" y="141.773" width="4.42922" height="4.42922" fill="white"></rect><rect id="Rectangle_8" x="239.815" y="147.343" width="4.42922" height="4.42922" fill="white"></rect><rect id="Rectangle_9" x="234.502" y="147.343" width="4.42922" height="4.42922" fill="white"></rect><rect id="Rectangle_10" x="255.97" y="147.343" width="4.42922" height="4.42922" fill="white"></rect><path id="Path_3" d="M269.145 149.213C269.145 149.213 269.268 146.305 265.846 144.332C264.057 146.429 263.876 149.458 265.404 151.752C265.404 151.752 263.883 153.201 259.289 153.201H232.056C232.056 153.201 230.155 167.588 246.444 167.588C263.308 167.588 268.251 153.725 268.251 153.725C268.251 153.725 273.564 153.971 274.766 150.046C272.659 148.073 269.145 149.213 269.145 149.213Z" fill="white"></path><path id="Path_4" d="M196.602 149.059C196.704 149.133 196.826 149.172 196.952 149.172C197.267 149.173 197.526 148.923 197.537 148.607L197.733 145.103C197.493 145.124 197.256 145.165 197.023 145.226C195.77 145.503 194.62 146.126 193.704 147.025L196.582 149.08L196.602 149.059Z" fill="white"></path><path id="Path_5" d="M195.071 151.711C195.191 151.678 195.299 151.61 195.379 151.515C195.573 151.268 195.542 150.913 195.307 150.704L192.687 148.36C191.87 149.658 191.508 151.192 191.659 152.718L195.03 151.69L195.071 151.711Z" fill="white"></path><path id="Path_6" d="M199.634 148.597C199.634 148.724 199.677 148.847 199.757 148.946C199.958 149.19 200.314 149.235 200.569 149.049L203.426 146.994C202.335 145.933 200.928 145.259 199.418 145.072L199.613 148.566L199.634 148.597Z" fill="white"></path><path id="Path_7" d="M196.181 154.198C196.119 153.935 195.886 153.748 195.616 153.745C195.579 153.735 195.539 153.735 195.503 153.745L192.05 154.331C192.57 155.764 193.549 156.985 194.835 157.805L196.17 154.578C196.215 154.456 196.218 154.322 196.181 154.198Z" fill="white"></path><path id="Path_8" d="M197.62 152.749L198.586 153.211L199.552 152.749L199.798 151.7L199.13 150.868H198.051L197.383 151.7L197.62 152.749Z" fill="white"></path><path id="Shape" fill-rule="evenodd" clip-rule="evenodd" d="M210.681 141.383C211.267 141.66 211.695 142.19 211.842 142.821L214.597 154.804C214.751 155.435 214.599 156.101 214.185 156.602L206.457 166.211C206.053 166.717 205.44 167.011 204.793 167.013H192.399C191.748 167.012 191.133 166.717 190.724 166.211L182.996 156.602L182.873 156.438C182.56 155.958 182.456 155.372 182.585 154.814L185.339 142.821C185.477 142.191 185.903 141.662 186.49 141.393L197.661 136.049C197.919 135.929 198.198 135.859 198.483 135.844C198.837 135.822 199.191 135.893 199.51 136.049L210.681 141.383ZM209.489 155.153C209.863 155.252 210.247 155.032 210.352 154.66V154.65C210.428 154.27 210.186 153.9 209.808 153.817H209.612C209.402 153.781 209.189 153.764 208.975 153.766C208.568 153.739 208.166 153.67 207.773 153.56C207.649 153.516 207.564 153.389 207.51 153.308C207.501 153.295 207.492 153.283 207.485 153.273L207.218 153.201C207.503 151.09 207.006 148.948 205.82 147.179C205.903 147.112 205.982 147.039 206.057 146.963C206.048 146.828 206.092 146.695 206.18 146.593C206.499 146.327 206.843 146.093 207.208 145.894C207.401 145.798 207.586 145.688 207.763 145.565L207.906 145.452C208.073 145.345 208.187 145.171 208.218 144.975C208.25 144.779 208.196 144.579 208.071 144.425C207.946 144.275 207.765 144.184 207.57 144.173C207.376 144.161 207.185 144.23 207.043 144.363L206.899 144.476C206.744 144.626 206.597 144.784 206.457 144.949C206.183 145.248 205.88 145.52 205.553 145.761C205.423 145.804 205.282 145.804 205.152 145.761L204.895 145.945C203.43 144.411 201.459 143.458 199.346 143.263V142.965C199.231 142.889 199.15 142.771 199.12 142.636C199.11 142.231 199.137 141.825 199.202 141.424C199.244 141.213 199.275 141 199.295 140.787V140.591C199.327 140.331 199.206 140.075 198.985 139.935C198.763 139.795 198.48 139.795 198.259 139.935C198.037 140.075 197.916 140.331 197.948 140.591V140.766C197.968 140.98 197.999 141.193 198.041 141.403C198.106 141.804 198.133 142.21 198.123 142.616C198.083 142.749 198.004 142.867 197.897 142.955V143.243C197.489 143.275 197.084 143.337 196.684 143.428C195.011 143.803 193.489 144.673 192.317 145.925L192.081 145.75C191.952 145.804 191.808 145.804 191.68 145.75C191.354 145.512 191.054 145.24 190.786 144.938C190.646 144.777 190.499 144.622 190.344 144.476L190.19 144.353C190.058 144.246 189.896 144.185 189.727 144.178C189.521 144.166 189.322 144.254 189.193 144.414C189.074 144.571 189.024 144.769 189.055 144.963C189.086 145.157 189.195 145.33 189.357 145.442L189.501 145.545C189.678 145.668 189.863 145.778 190.056 145.874C190.421 146.072 190.765 146.306 191.084 146.572C191.166 146.683 191.212 146.815 191.217 146.953L191.433 147.148C190.255 148.924 189.769 151.07 190.066 153.18L189.789 153.262C189.773 153.282 189.756 153.307 189.738 153.334C189.672 153.43 189.59 153.55 189.501 153.55C189.11 153.65 188.711 153.716 188.309 153.745C188.083 153.797 187.898 153.797 187.662 153.797H187.487C187.233 153.828 187.02 154.001 186.937 154.242C186.853 154.483 186.915 154.751 187.095 154.932C187.276 155.112 187.543 155.175 187.785 155.092H187.96C188.106 155.054 188.224 155.004 188.342 154.954C188.415 154.924 188.487 154.893 188.566 154.866C188.94 154.709 189.329 154.592 189.727 154.516C189.864 154.524 189.996 154.57 190.107 154.65H190.405C191.06 156.669 192.431 158.38 194.259 159.459L194.136 159.747C194.191 159.866 194.212 159.997 194.197 160.127C194.03 160.509 193.827 160.873 193.591 161.217C193.461 161.387 193.341 161.566 193.231 161.751L193.149 161.926C193.027 162.143 193.036 162.41 193.172 162.619C193.308 162.827 193.549 162.943 193.798 162.918C194.046 162.893 194.259 162.733 194.352 162.501C194.383 162.445 194.411 162.387 194.434 162.326C194.516 162.13 194.581 161.927 194.629 161.72C194.742 161.295 194.919 160.89 195.153 160.518C195.231 160.44 195.332 160.39 195.441 160.374L195.585 160.096C197.186 160.714 198.935 160.843 200.61 160.466C201.001 160.376 201.386 160.26 201.761 160.117L201.895 160.374C202.033 160.397 202.157 160.47 202.244 160.579C202.428 160.942 202.58 161.32 202.696 161.71C202.725 161.792 202.747 161.871 202.769 161.95C202.803 162.068 202.836 162.187 202.892 162.316L202.974 162.491C203.052 162.745 203.271 162.93 203.535 162.964C203.799 162.998 204.058 162.875 204.198 162.649C204.339 162.424 204.334 162.137 204.186 161.915L204.094 161.741C203.988 161.553 203.868 161.375 203.734 161.206C203.509 160.882 203.313 160.538 203.148 160.179C203.094 160.051 203.094 159.906 203.148 159.778C203.102 159.693 203.064 159.603 203.035 159.511C204.873 158.423 206.245 156.696 206.889 154.66L207.177 154.711C207.276 154.618 207.41 154.569 207.547 154.578C207.944 154.654 208.332 154.768 208.708 154.917C208.906 155.006 209.108 155.085 209.314 155.153H209.489Z" fill="white"></path><path id="Path_9" d="M204.484 148.34L201.874 150.673C201.779 150.751 201.713 150.86 201.689 150.981C201.616 151.289 201.797 151.6 202.1 151.69L205.481 152.666C205.552 151.916 205.5 151.159 205.327 150.426C205.163 149.689 204.879 148.984 204.484 148.34Z" fill="white"></path><path id="Path_10" d="M199.11 155.462C199.05 155.352 198.956 155.266 198.843 155.215C198.756 155.174 198.661 155.153 198.565 155.153C198.356 155.166 198.169 155.286 198.072 155.472L196.376 158.555C197.591 158.971 198.897 159.038 200.148 158.75C200.374 158.702 200.6 158.641 200.826 158.565L199.12 155.482L199.11 155.462Z" fill="white"></path><path id="Path_11" d="M201.638 153.735H201.504C201.425 153.74 201.348 153.761 201.278 153.797C200.993 153.932 200.866 154.268 200.99 154.557L202.347 157.815C203.639 156.993 204.619 155.764 205.132 154.321L201.648 153.725L201.638 153.735Z" fill="white"></path><path id="Path_12" d="M134.223 138.413L140.286 145.76L128.664 159.757L117.051 145.771L119.476 142.842H130.184L132.394 145.596L125.714 153.622L128.571 157.065L138.241 145.462L132.322 138.413H117.431L111.327 145.771L128.664 166.632L146 145.771L139.896 138.413H134.223Z" fill="white"></path><path id="Path_13" d="M108.141 120.943H277.993" stroke="white" stroke-width="1.25" stroke-linecap="round" stroke-dasharray="0"></path><path id="Path_14" d="M108.141 183.095H277.993" stroke="white" stroke-width="1.25" stroke-linecap="round" stroke-dasharray="0"></path><path id="Path_15" d="M145.661 235.414C146.484 234.957 147.412 234.723 148.354 234.735C149.735 234.696 151.072 235.232 152.043 236.215L152.875 235.383C152.324 234.783 151.642 234.319 150.882 234.026C150.062 233.712 149.19 233.555 148.312 233.564C147.144 233.544 145.989 233.827 144.962 234.386C143.984 234.909 143.172 235.696 142.619 236.657C141.482 238.676 141.482 241.143 142.619 243.162C143.174 244.118 143.981 244.904 144.952 245.433C146.783 246.395 148.94 246.523 150.871 245.783C151.653 245.492 152.356 245.024 152.927 244.416L152.094 243.584C151.131 244.581 149.791 245.126 148.405 245.084C147.464 245.096 146.536 244.862 145.712 244.406C144.898 243.969 144.224 243.31 143.77 242.504C142.851 240.867 142.851 238.87 143.77 237.233C144.222 236.465 144.876 235.836 145.661 235.414Z" fill="white"></path><path id="Path_16" d="M166.605 243.799L158.569 233.667H157.479V246.153H158.795V236.02L166.821 246.153H167.91V233.667H166.605V243.799Z" fill="white"></path><rect id="Rectangle_11" x="175.186" y="233.667" width="1.31541" height="12.4758" fill="white"></rect><path id="Shape_2" fill-rule="evenodd" clip-rule="evenodd" d="M174.025 206.978C174.023 206.817 173.947 206.665 173.819 206.567L160.614 196.712C160.432 196.583 160.189 196.583 160.007 196.712L146.648 206.485C146.513 206.579 146.433 206.732 146.432 206.896V216.453C146.434 216.62 146.514 216.775 146.648 216.875L159.946 226.627C160.034 226.687 160.137 226.719 160.244 226.72C160.35 226.722 160.455 226.689 160.542 226.627L173.84 217.08C173.974 216.986 174.055 216.833 174.055 216.669C174.058 216.509 173.986 216.357 173.86 216.258L168.002 211.808L173.85 207.4C173.973 207.296 174.039 207.139 174.025 206.978ZM160.305 197.729L167.396 203.022L165.557 204.481L158.363 199.158L160.305 197.729ZM158.055 214.151L159.73 212.856L152.423 207.513L150.625 208.869L158.055 214.151ZM153.019 207.05L160.264 201.573L164.878 204.995L159.74 208.992L162.237 210.904L160.295 212.404L153.019 207.05ZM164.806 212.856L162.895 211.387L158.671 214.645L160.603 216.022L164.806 212.856ZM162.895 210.421L161.025 208.982L165.526 205.468L167.458 206.896L162.895 210.421ZM159.617 201.1L157.664 199.651L150.358 205.005L152.413 206.536L159.617 201.1ZM149.659 205.509L151.776 207.05L149.936 208.427L147.768 206.886L149.659 205.509ZM152.752 211.654L147.429 207.872V215.436L152.752 211.654ZM172.648 216.638L160.213 225.558L147.788 216.453L153.626 212.343L160.346 217.121C160.434 217.182 160.538 217.215 160.644 217.214C160.755 217.209 160.862 217.174 160.953 217.111L167.119 212.476L172.648 216.638ZM163.532 210.894L165.454 212.363L172.617 206.968L168.002 203.525L166.153 204.964L168.742 206.875L163.532 210.894Z" fill="white"></path><path id="Path_17" d="M211 236.945C211.78 236.515 212.658 236.296 213.548 236.308C214.824 236.258 216.065 236.733 216.981 237.623L217.484 237.099C217.004 236.584 216.409 236.19 215.748 235.948C214.062 235.339 212.2 235.462 210.609 236.287C209.749 236.771 209.038 237.482 208.554 238.342C207.553 240.145 207.553 242.336 208.554 244.138C209.038 244.999 209.749 245.71 210.609 246.194C211.514 246.686 212.529 246.937 213.559 246.923C214.32 246.93 215.077 246.794 215.789 246.523C216.451 246.277 217.046 245.879 217.525 245.361L217.022 244.837C216.109 245.733 214.868 246.216 213.589 246.173C212.699 246.185 211.821 245.966 211.041 245.536C210.293 245.125 209.671 244.517 209.242 243.779C208.371 242.221 208.371 240.322 209.242 238.764C209.65 238.008 210.258 237.379 211 236.945Z" fill="white"></path><path id="Path_18" d="M229.549 241.477C228.906 241.247 228.25 241.051 227.586 240.891C226.998 240.753 226.418 240.581 225.849 240.377C225.461 240.23 225.11 239.998 224.822 239.699C224.523 239.372 224.367 238.939 224.39 238.497C224.378 237.863 224.678 237.264 225.192 236.893C225.882 236.431 226.706 236.21 227.535 236.267C228.072 236.27 228.605 236.353 229.117 236.513C229.642 236.664 230.139 236.9 230.587 237.212L230.895 236.554C230.419 236.232 229.895 235.986 229.343 235.825C228.758 235.644 228.148 235.554 227.535 235.557C226.779 235.535 226.027 235.668 225.325 235.948C224.797 236.157 224.341 236.514 224.01 236.976C223.724 237.42 223.574 237.938 223.578 238.466C223.549 239.047 223.736 239.618 224.102 240.069C224.443 240.461 224.873 240.764 225.356 240.953C225.998 241.187 226.654 241.383 227.319 241.538C227.903 241.671 228.479 241.836 229.045 242.032C229.433 242.186 229.783 242.421 230.073 242.72C230.372 243.043 230.527 243.473 230.505 243.912C230.509 244.541 230.206 245.132 229.693 245.495C228.97 245.942 228.125 246.151 227.278 246.091C226.574 246.094 225.876 245.961 225.223 245.7C224.623 245.479 224.079 245.128 223.63 244.673L223.27 245.279C223.753 245.771 224.344 246.144 224.996 246.368C225.742 246.649 226.533 246.792 227.329 246.79C228.092 246.812 228.852 246.676 229.559 246.389C230.1 246.188 230.569 245.83 230.906 245.361C231.194 244.918 231.348 244.4 231.347 243.871C231.377 243.303 231.19 242.744 230.823 242.309C230.471 241.934 230.034 241.648 229.549 241.477Z" fill="white"></path><rect id="Rectangle_12" x="236.773" y="235.629" width="0.811852" height="11.1501" fill="white"></rect><path id="Path_19" d="M237.03 222.66C236.015 225.111 233.763 226.829 231.132 227.161C228.439 227.388 225.993 225.836 224.349 222.907C224.025 222.212 223.774 221.485 223.599 220.739C223.065 218.868 222.427 216.628 220.66 215.148C223.027 215.43 225.426 215.045 227.586 214.038C228.285 213.781 228.943 213.535 229.642 213.329L229.816 213.267C231.481 212.661 234.05 214.09 235.417 215.559C236.359 214.014 238.036 213.069 239.846 213.062H240.021C237.904 210.143 232.827 206.752 228.141 208.396C227.278 208.653 226.476 208.951 225.778 209.208C223.856 209.938 222.592 210.411 220.711 209.897C219.712 209.596 218.904 208.859 218.512 207.893C217.972 206.715 217.972 205.361 218.512 204.183C219.017 202.927 220.242 202.111 221.595 202.128C223.652 202.092 225.586 203.102 226.733 204.81C227.443 206.041 229.016 206.465 230.248 205.755C231.48 205.046 231.903 203.472 231.193 202.241C229.081 198.862 225.331 196.862 221.348 196.989C218.117 197.075 215.222 199.01 213.908 201.963C212.693 204.507 212.674 207.461 213.857 210.02C214.369 211.171 215.119 212.2 216.056 213.041C214.748 212.847 213.414 212.931 212.141 213.288C209.237 214.122 206.868 216.227 205.697 219.012C203.921 222.223 204.575 226.233 207.28 228.713C210.013 231.508 214.782 233.204 218.584 231.046C219.384 230.594 219.883 229.75 219.892 228.831C219.901 227.912 219.419 227.058 218.628 226.591C217.837 226.124 216.856 226.114 216.056 226.565C214.761 227.295 212.418 226.637 210.918 225.127C209.952 224.041 209.61 222.536 210.013 221.139C210.623 219.654 211.927 218.566 213.497 218.231C214.666 217.897 215.924 218.108 216.919 218.807L217.238 219.012C217.844 219.331 218.265 220.882 218.646 222.095C218.916 223.222 219.312 224.315 219.827 225.353C222.253 229.741 226.23 232.279 230.608 232.279C230.916 232.279 231.224 232.279 231.543 232.279C236.352 231.889 240.463 228.497 242.261 223.441C242.332 223.236 242.373 223.021 242.385 222.804C241.61 223.255 240.732 223.496 239.836 223.503C238.839 223.5 237.864 223.207 237.03 222.66Z" fill="white"></path><path id="Path_20" d="M236.712 218.272C236.712 219.975 238.092 221.355 239.795 221.355C241.498 221.355 242.878 219.975 242.878 218.272C242.878 216.57 241.498 215.189 239.795 215.189C238.092 215.189 236.712 216.57 236.712 218.272Z" fill="white"></path><path id="Shape_3" fill-rule="evenodd" clip-rule="evenodd" d="M212.788 72.2828H182.266C181.574 72.2828 181.013 72.8441 181.013 73.5365V96.6692C181.013 97.3616 181.574 97.9229 182.266 97.9229H193.776V101.951H188.813C188.605 101.91 188.392 101.997 188.274 102.174C188.156 102.35 188.156 102.58 188.274 102.757C188.392 102.933 188.605 103.021 188.813 102.979H206.283C206.491 103.021 206.704 102.933 206.822 102.757C206.94 102.58 206.94 102.35 206.822 102.174C206.704 101.997 206.491 101.91 206.283 101.951H201.319V97.9229H212.829C213.521 97.9229 214.083 97.3616 214.083 96.6692V73.5365C214.083 73.1968 213.945 72.8715 213.701 72.6351C213.457 72.3988 213.128 72.2716 212.788 72.2828ZM200.22 101.951H194.835V97.9229H200.22V101.951ZM212.788 96.8644C212.894 96.8593 212.978 96.7748 212.983 96.6692V73.5365C212.983 73.4287 212.896 73.3413 212.788 73.3413H182.266C182.159 73.3413 182.071 73.4287 182.071 73.5365V96.6692C182.076 96.7748 182.161 96.8593 182.266 96.8644H212.788Z" fill="white"></path><path id="Path_21" d="M211.328 92.5791H183.726C183.481 92.6283 183.305 92.8433 183.305 93.0929C183.305 93.3426 183.481 93.5576 183.726 93.6068H211.328C211.573 93.5576 211.749 93.3426 211.749 93.0929C211.749 92.8433 211.573 92.6283 211.328 92.5791V92.5791Z" fill="white"></path><path id="Path_22" d="M188.741 90.8217H191.556C191.846 90.8217 192.08 90.5871 192.08 90.2976V82.6518C192.083 82.511 192.029 82.3751 191.931 82.2746C191.832 82.174 191.697 82.1174 191.556 82.1174H188.741C188.6 82.1174 188.465 82.174 188.366 82.2746C188.268 82.3751 188.214 82.511 188.216 82.6518V90.2976C188.216 90.5871 188.451 90.8217 188.741 90.8217Z" fill="white"></path><path id="Path_23" d="M193.663 90.8217H196.469C196.609 90.8245 196.745 90.7705 196.846 90.6719C196.946 90.5733 197.003 90.4384 197.003 90.2976V80.1341C197.003 79.9933 196.946 79.8584 196.846 79.7598C196.745 79.6612 196.609 79.6072 196.469 79.61H193.663C193.374 79.61 193.139 79.8446 193.139 80.1341V90.2771C193.133 90.4196 193.186 90.5583 193.285 90.661C193.384 90.7638 193.521 90.8219 193.663 90.8217Z" fill="white"></path><path id="Path_24" d="M198.586 90.8218H201.391C201.681 90.8218 201.915 90.5871 201.915 90.2977V77.8013C201.915 77.5119 201.681 77.2772 201.391 77.2772H198.586C198.445 77.2744 198.309 77.3284 198.208 77.427C198.108 77.5256 198.051 77.6605 198.051 77.8013V90.2977C198.051 90.4385 198.108 90.5734 198.208 90.6719C198.309 90.7705 198.445 90.8245 198.586 90.8218Z" fill="white"></path><path id="Path_25" d="M203.498 90.8217H206.314C206.603 90.8217 206.838 90.5871 206.838 90.2976V85.0771C206.84 84.9363 206.787 84.8004 206.688 84.6998C206.589 84.5993 206.454 84.5427 206.314 84.5427H203.498C203.357 84.5427 203.222 84.5993 203.124 84.6998C203.025 84.8004 202.971 84.9363 202.974 85.0771V90.2976C202.974 90.5871 203.208 90.8217 203.498 90.8217Z" fill="white"></path><path id="Shape_4" fill-rule="evenodd" clip-rule="evenodd" d="M262.979 84.5736V81.7578C262.979 75.5997 257.987 70.6077 251.829 70.6077C245.671 70.6077 240.679 75.5997 240.679 81.7578V84.5736C239.562 85.459 238.91 86.8066 238.911 88.232V91.7672C238.911 98.9014 244.695 104.685 251.829 104.685C258.963 104.685 264.747 98.9014 264.747 91.7672V88.232C264.747 86.8066 264.096 85.459 262.979 84.5736ZM258.93 81.7578V83.5562H244.769V81.7578C244.769 77.8359 247.948 74.6566 251.87 74.6566C255.792 74.6566 258.971 77.8359 258.971 81.7578H258.93ZM251.829 103.585C258.356 103.585 263.647 98.2942 263.647 91.7672L263.606 88.232C263.606 87.2845 263.229 86.3759 262.558 85.7069C261.887 85.0378 260.977 84.6633 260.03 84.6661H243.587C242.639 84.6633 241.73 85.0378 241.059 85.7069C240.388 86.3759 240.011 87.2845 240.011 88.232V91.7672C240.011 98.2942 245.302 103.585 251.829 103.585Z" fill="white"></path><path id="Path_26" d="M251.449 89.4858C250.489 89.6876 249.758 90.4678 249.619 91.4384C249.474 92.3111 249.841 93.1899 250.565 93.6992L250.246 97.0083C250.214 97.3271 250.319 97.6446 250.534 97.8818C250.749 98.1208 251.055 98.2587 251.377 98.2621H252.404C252.726 98.2587 253.032 98.1208 253.247 97.8818C253.462 97.6446 253.567 97.3271 253.535 97.0083L253.216 93.6992C253.828 93.2683 254.192 92.5669 254.192 91.8186C254.192 91.1294 253.885 90.476 253.355 90.0353C252.825 89.5947 252.126 89.4122 251.449 89.5372V89.4858Z" fill="white"></path><path id="Path_27" d="M152.721 85.0668C151.827 85.0668 150.666 85.0668 149.515 85.0668C149.736 84.3439 149.85 83.5927 149.854 82.8368C149.854 77.5238 144.274 73.2179 137.388 73.2179C130.698 73.2179 125.241 77.3285 124.943 82.4052C120.915 83.2068 117.935 86.0431 117.935 89.4035C117.786 91.894 119.253 94.1984 121.573 95.1173C122.333 93.8225 125.015 92.8565 126.588 92.8976C127.163 92.8976 127.543 92.8976 128.324 92.8976C128.276 92.5568 128.276 92.2108 128.324 91.8699C128.766 88.4684 132.137 85.704 136.546 85.704C140.954 85.704 144.921 88.0162 145.106 91.315C147.285 91.3664 149.525 93.9766 149.525 96.1553C149.535 96.3195 149.535 96.4843 149.525 96.6486H152.659C156.77 96.6486 160.151 94.0589 160.151 90.8628C160.151 87.6668 156.862 85.0668 152.721 85.0668Z" fill="white"></path><path id="Path_28" d="M122.415 96.7924C123.407 95.3547 125.069 94.5279 126.814 94.6035C127.389 94.6035 129.712 94.6035 130.483 94.6035C130.261 93.9032 130.127 93.1785 130.082 92.4454C130.37 89.0336 132.877 87.3071 136.669 87.3071C140.985 87.3071 143.657 89.5372 143.863 92.8359C147.973 93.2881 147.973 98.1798 147.973 98.3442C147.973 100.513 146.401 102.034 143.267 102.044C138.591 102.044 134.984 102.044 132.26 101.982C130.709 101.982 128.921 102.044 126.865 102.044C124.193 102.044 122.025 100.369 122.025 98.3134C122.032 97.7661 122.184 97.2305 122.467 96.7616" fill="white"></path></g></g><defs><radialGradient id="paint0_radial" cx="0" cy="0" r="1" gradientUnits="userSpaceOnUse" gradientTransform="translate(159.677) rotate(90) scale(105.677 189.634)"><stop stop-color="#32C5FF"></stop><stop offset="1" stop-color="#32C5FF" stop-opacity="0.01"></stop></radialGradient><linearGradient id="paint1_linear" x1="319.331" y1="309.138" x2="319.331" y2="57.762" gradientUnits="userSpaceOnUse"><stop stop-color="#00814B"></stop><stop offset="1" stop-color="#8FDF00"></stop></linearGradient></defs></svg> 