<?xml version="1.0" encoding="UTF-8"?> <svg xmlns="http://www.w3.org/2000/svg" xmlns:xlink="http://www.w3.org/1999/xlink" width="44px" height="44px" viewBox="0 0 44 44" version="1.1"><title>Ico/turnkey</title><g id="icons" stroke="none" stroke-width="1" fill="none" fill-rule="evenodd"><g id="splunk" transform="translate(-184.000000, -48.000000)" fill="#FFFFFF" fill-rule="nonzero"><g id="Group-2-Copy" transform="translate(184.000000, 48.000000)"><g id="noun_Key_3432330" transform="translate(23.000000, 22.857143) rotate(35.000000) translate(-23.000000, -22.857143) translate(-2.000000, 5.000000)"><g id="Group" transform="translate(0.000000, -0.000000)"><path d="M16.440506,4.23178865 C22.0288989,4.23178865 27.0707994,7.57598507 29.2876361,12.650156 L45.9047917,12.650156 C46.6792815,12.650156 47.307853,13.2787274 47.307853,14.0532172 L47.307853,19.6654621 C47.307853,20.0372733 47.15983,20.3943524 46.896756,20.6574264 L44.0906336,23.4635488 C43.5427382,24.0114443 42.6546004,24.0114443 42.106705,23.4635488 L40.2925468,21.6500922 L38.4783887,23.4635488 C37.9304933,24.0114443 37.0423555,24.0114443 36.4944601,23.4635488 L34.680302,21.6500922 L32.8661438,23.4635488 C32.6030698,23.7266228 32.2459907,23.8746458 31.8741795,23.8746458 L29.2876361,23.8746458 C27.0707994,28.9488167 22.0288989,32.2930131 16.440506,32.2930131 C8.70402644,32.2930131 2.40989379,25.9988805 2.40989379,18.2624009 C2.40989379,10.5259213 8.70402644,4.23178865 16.440506,4.23178865 Z M12.2313224,15.2011764 C10.5430571,15.2011764 9.17009787,16.5741356 9.17009787,18.2624009 C9.17009787,19.9506662 10.5430571,21.3236254 12.2313224,21.3236254 C13.9195877,21.3236254 15.2925468,19.9506662 15.2925468,18.2624009 C15.2925468,16.5741356 13.9195877,15.2011764 12.2313224,15.2011764 Z" id="Combined-Shape" transform="translate(24.858873, 18.262401) rotate(9.000000) translate(-24.858873, -18.262401) "></path></g></g></g></g></g></svg> 