<?xml version="1.0" encoding="UTF-8"?> <svg xmlns="http://www.w3.org/2000/svg" xmlns:xlink="http://www.w3.org/1999/xlink" width="44px" height="44px" viewBox="0 0 44 44" version="1.1"><title>Ico/utilization</title><g id="icons" stroke="none" stroke-width="1" fill="none" fill-rule="evenodd"><g id="splunk" transform="translate(-569.000000, -47.000000)" fill="#FFFFFF" fill-rule="nonzero"><g id="Shape" transform="translate(569.000000, 47.000000)"><path d="M6.35604409,12.9760985 C9.37770534,7.89383157 14.7097531,4.62701793 20.6099617,4.24307604 L19.0031404,2.63616178 C18.7144283,2.34744041 18.7144283,1.87934046 19.0031404,1.59061909 L20.3772115,0.216543058 C20.6659413,-0.0721810193 21.1340587,-0.0721810193 21.4227884,0.216543058 L27.2851872,6.07919119 C27.4238361,6.21783214 27.5017289,6.40587436 27.5017289,6.60194787 C27.5017289,6.79802138 27.4238361,6.9860636 27.2851872,7.12470455 L21.4227884,12.9873429 C21.1340598,13.2760697 20.6659402,13.2760697 20.3772115,12.9873429 L19.0031404,11.6132669 C18.7144283,11.3245455 18.7144283,10.8564455 19.0031404,10.5677242 L21.4483867,8.12235568 C16.6227347,8.22451833 12.1912976,10.8092699 9.7266935,14.9593398 L6.35604409,12.9760985 Z M42.4093809,19.0031502 C42.1206595,18.7144381 41.6525596,18.7144381 41.3638382,19.0031502 L39.7571049,20.6097906 C39.3739895,14.7092566 36.1068833,9.37681014 31.0239113,6.35580453 L29.0406699,9.72694283 C33.1892202,12.1922584 35.773218,16.6226128 35.8765492,21.4472964 L33.4322856,19.0031502 C33.1435642,18.7144381 32.6754643,18.7144381 32.3867429,19.0031502 L31.0126669,20.3772213 C30.7239401,20.6659499 30.7239401,21.1340696 31.0126669,21.4227982 L36.8753052,27.285197 C37.0139462,27.4238459 37.2019884,27.5017387 37.3980619,27.5017387 C37.5941354,27.5017387 37.7821776,27.4238459 37.9208186,27.285197 L43.7834569,21.4227982 C44.072181,21.1340685 44.072181,20.6659511 43.7834569,20.3772213 L42.4093809,19.0031502 Z M0.216543058,22.5772213 C-0.0721810193,22.8659511 -0.0721810193,23.3340685 0.216543058,23.6227983 L1.59061909,24.9968694 C1.87934046,25.2855815 2.34744041,25.2855815 2.63616178,24.9968694 L4.24289515,23.3902289 C4.62601046,29.2907629 7.89311671,34.6232094 12.9760887,37.644215 L14.9593301,34.2730767 C10.8107798,31.8077612 8.22678202,27.3774068 8.12345079,22.5527231 L10.5677144,24.9968694 C10.8564358,25.2855815 11.3245357,25.2855815 11.6132571,24.9968694 L12.9873331,23.6227983 C13.2760599,23.3340696 13.2760599,22.86595 12.9873331,22.5772213 L7.12469477,16.7148225 C6.98605383,16.5761737 6.7980116,16.4982809 6.60193809,16.4982809 C6.40586459,16.4982809 6.21782236,16.5761737 6.07918141,16.7148225 L0.216543058,22.5772213 Z M37.6439559,31.0239211 L34.2732967,29.0406748 C31.8068539,33.1882231 27.3770425,35.771856 22.5526742,35.8765834 L24.9968498,33.4322905 C25.2855619,33.1435691 25.2855619,32.6754692 24.9968498,32.3867478 L23.6227885,31.0126767 C23.3340598,30.7239499 22.8659402,30.7239499 22.5772116,31.0126767 L16.7148128,36.875315 C16.5761639,37.013956 16.4982711,37.2019982 16.4982711,37.3980717 C16.4982711,37.5941452 16.5761639,37.7821874 16.7148128,37.9208284 L22.5772116,43.7834667 C22.8659413,44.0721908 23.3340587,44.0721908 23.6227885,43.7834667 L24.9968596,42.4093907 C25.2855717,42.1206693 25.2855717,41.6525694 24.9968596,41.363848 L23.3929325,39.7598035 C29.2927865,39.3747407 34.6238594,36.1067911 37.6439559,31.0239211 L37.6439559,31.0239211 Z"></path></g></g></g></svg> 