<?xml version="1.0" encoding="UTF-8"?> <svg xmlns="http://www.w3.org/2000/svg" width="44" height="44" viewBox="0 0 44 44" fill="none"><path d="M21.469 23.037C21.5094 23.037 21.5498 23.037 21.5983 23.037C21.6145 23.037 21.6307 23.037 21.6468 23.037C21.6711 23.037 21.7034 23.037 21.7277 23.037C24.0966 22.9965 26.0127 22.1638 27.4276 20.5711C30.5403 17.0622 30.0228 11.047 29.9662 10.473C29.7641 6.16374 27.7267 4.10208 26.045 3.13997C24.7919 2.42042 23.3285 2.03234 21.6954 2H21.6388C21.6307 2 21.6145 2 21.6064 2H21.5579C20.6605 2 18.898 2.14553 17.2082 3.10763C15.5104 4.06974 13.4407 6.1314 13.2385 10.473C13.1819 11.047 12.6645 17.0622 15.7772 20.5711C17.184 22.1638 19.1001 22.9965 21.469 23.037Z" fill="white"></path><path d="M38.2128 33.0139C38.2128 33.0058 38.2128 32.9977 38.2128 32.9896C38.2128 32.925 38.2048 32.8603 38.2048 32.7875C38.1563 31.1867 38.0511 27.4434 34.5423 26.2468C34.518 26.2387 34.4857 26.2307 34.4614 26.2226C30.8151 25.2928 27.7833 23.1907 27.751 23.1665C27.2578 22.8188 26.7588 25.0741 21.6226 25.0741C16.4863 25.0741 15.9631 22.8107 15.47 23.1584C15.4376 23.1826 12.4219 25.2847 8.75946 26.2145C8.72713 26.2226 8.70287 26.2307 8.67862 26.2387C5.16976 27.4434 5.06465 31.1867 5.01614 32.7794C5.01614 32.8522 5.01614 32.9169 5.00806 32.9816C5.00806 32.9896 5.00806 32.9977 5.00806 33.0058C4.99997 33.4262 4.99189 35.5849 5.42039 36.6683C5.50124 36.8785 5.64677 37.0564 5.84081 37.1776C6.08335 37.3393 11.8964 41.0422 21.6226 41.0422C31.3487 41.0422 37.1618 37.3313 37.4044 37.1776C37.5903 37.0564 37.7439 36.8785 37.8248 36.6683C38.229 35.593 38.2209 33.4343 38.2128 33.0139Z" fill="white"></path></svg> 