<?xml version="1.0" encoding="UTF-8"?> <svg xmlns="http://www.w3.org/2000/svg" width="44" height="44" viewBox="0 0 44 44" fill="none"><path d="M22.1062 9.40666L16.1423 3.83587L16.0103 3.73143C15.3743 3.31044 14.4868 3.80504 14.5484 4.62262L15.1867 13.0971L3.0624 11.7028L2.89122 11.6974C2.06294 11.7426 1.664 12.8365 2.34901 13.4114L11.9394 21.4597L6.44492 26.8532L6.33467 26.981C5.91592 27.5591 6.25525 28.4246 6.99744 28.5115L13.7602 29.3014L9.09896 40.6534L9.04761 40.8122C8.84814 41.6516 9.80958 42.3535 10.5417 41.8066L21.2606 33.7973L22.7053 35.4999C24.3508 37.4057 24.9126 37.8799 25.4385 37.8799C26.3061 37.8799 26.6226 37.3002 28.3212 32.9528L39.4668 38.2009L39.6199 38.2588C40.4328 38.4929 41.1592 37.5551 40.6618 36.7891L34.0825 26.6585L41.4113 23.5812L41.5743 23.4943C42.1739 23.0977 42.1448 22.145 41.4568 21.8122L33.9511 18.1817L40.7117 4.996L40.7774 4.83856C41.0497 4.00052 40.1019 3.21574 39.3316 3.74813L29.6733 10.4232L28.2157 2.78436C28.0519 1.92591 26.9411 1.71065 26.4782 2.44763L22.1062 9.40666Z" fill="white"></path></svg> 