<?xml version="1.0" encoding="UTF-8"?> <svg xmlns="http://www.w3.org/2000/svg" width="44" height="44" viewBox="0 0 44 44" fill="none"><path fill-rule="evenodd" clip-rule="evenodd" d="M21.8271 2.01084C21.6876 2.0351 21.5527 2.08474 21.4279 2.15772L2.69625 12.4982C2.26895 12.7392 2.00003 13.2242 2.00003 13.754C2.00003 14.2838 2.26895 14.7688 2.69625 15.0098L7.65857 17.7565L2.69625 20.4885C2.26897 20.7295 2.00006 21.2146 2.00006 21.7443C2.00006 22.2741 2.26897 22.7591 2.69625 23.0001L7.65857 25.7468L2.69625 28.4788C2.26893 28.7198 2 29.2049 2 29.7346C2 30.2644 2.26893 30.7495 2.69625 30.9905L21.4279 41.3309C21.788 41.5301 22.212 41.5301 22.5721 41.3309L41.3037 30.9905C41.7311 30.7495 42 30.2644 42 29.7346C42 29.2049 41.7311 28.7198 41.3037 28.4788L36.3414 25.7468L41.3037 23.0001C41.731 22.7591 41.9999 22.2741 41.9999 21.7443C41.9999 21.2146 41.731 20.7295 41.3037 20.4885L36.3414 17.7565L41.3037 15.0098C41.7311 14.7688 42 14.2838 42 13.754C42 13.2242 41.7311 12.7392 41.3037 12.4982L22.5721 2.15772C22.3429 2.02679 22.0831 1.97558 21.8271 2.01084ZM10.5056 19.3281L21.4279 25.3502C21.788 25.5494 22.212 25.5494 22.5721 25.3502L33.4944 19.3281L37.8847 21.7517L22 30.5057L6.11534 21.7517L10.5056 19.3281ZM21.4279 33.3406L10.5056 27.3184L6.11534 29.742L22 38.4961L37.8847 29.742L33.4944 27.3184L22.5721 33.3406C22.212 33.5397 21.788 33.5397 21.4279 33.3406Z" fill="white"></path></svg> 