<?xml version="1.0" encoding="UTF-8"?> <svg xmlns="http://www.w3.org/2000/svg" width="44" height="44" viewBox="0 0 44 44" fill="none"><path fill-rule="evenodd" clip-rule="evenodd" d="M37.0011 2C36.0799 2 35.3328 2.74551 35.3328 3.66679V6.99886C35.3328 7.1216 35.3465 7.24131 35.3722 7.35798L23.5971 18.6649H23.2501V8.66566H23.6683C24.5881 8.66566 25.3336 7.92015 25.3336 6.99886V3.66679C25.3336 2.74551 24.5881 2 23.6683 2H20.3347C19.415 2 18.6664 2.74551 18.6664 3.66679V6.99886C18.6664 7.92015 19.415 8.66566 20.3347 8.66566H20.7514V18.6649H20.4029L8.62777 7.35798C8.65505 7.24131 8.66717 7.1216 8.66717 6.99886V3.66679C8.66717 2.74551 7.92166 2 7.00189 2H3.66679C2.74703 2 2 2.74551 2 3.66679V6.99886C2 7.92015 2.74703 8.66566 3.66679 8.66566H6.3776L18.6467 20.4423H8.66717V20.3332C8.66717 19.4134 7.92166 18.6664 7.00189 18.6664H3.66679C2.74703 18.6664 2 19.4134 2 20.3332V23.6653C2 24.585 2.74703 25.3336 3.66679 25.3336H7.00189C7.92166 25.3336 8.66717 24.585 8.66717 23.6653V22.944H18.6649V23.535L6.3776 35.3313H3.66679C2.74703 35.3313 2 36.0799 2 36.9996V40.3317C2 41.2515 2.74703 42 3.66679 42H7.00189C7.92166 42 8.66717 41.2515 8.66717 40.3317V36.9996C8.66717 36.8769 8.65505 36.7572 8.62777 36.6405L20.4029 25.3321H20.7514V35.3313H20.3347C19.415 35.3313 18.6664 36.0799 18.6664 36.9996V40.3317C18.6664 41.2515 19.415 42 20.3347 42H23.6683C24.5881 42 25.3336 41.2515 25.3336 40.3317V36.9996C25.3336 36.0799 24.5881 35.3313 23.6683 35.3313H23.2501V25.3321H23.5971L35.3722 36.6405C35.3465 36.7572 35.3328 36.8769 35.3328 36.9996V40.3317C35.3328 41.2515 36.0799 42 37.0011 42H40.3347C41.2545 42 42 41.2515 42 40.3317V36.9996C42 36.0799 41.2545 35.3313 40.3347 35.3313H37.6209L25.3336 23.535V22.944H35.3328V23.6653C35.3328 24.585 36.0799 25.3336 37.0011 25.3336H40.3347C41.2545 25.3336 42 24.585 42 23.6653V20.3332C42 19.4134 41.2545 18.6664 40.3347 18.6664H37.0011C36.0799 18.6664 35.3328 19.4134 35.3328 20.3332V20.4423H25.3533L37.6209 8.66566H40.3347C41.2545 8.66566 42 7.92015 42 6.99886V3.66679C42 2.74551 41.2545 2 40.3347 2H37.0011Z" fill="white"></path></svg> 