<?xml version="1.0" encoding="UTF-8"?> <svg xmlns="http://www.w3.org/2000/svg" width="44" height="44" viewBox="0 0 44 44" fill="none"><path fill-rule="evenodd" clip-rule="evenodd" d="M22.0001 12.8332C24.5314 12.8332 26.5834 10.7811 26.5834 8.24984C26.5834 5.71853 24.5314 3.6665 22.0001 3.6665C19.4688 3.6665 17.4167 5.71853 17.4167 8.24984C17.4167 10.7811 19.4688 12.8332 22.0001 12.8332Z" fill="white"></path><path fill-rule="evenodd" clip-rule="evenodd" d="M8.25008 12.8332C10.7814 12.8332 12.8334 10.7811 12.8334 8.24984C12.8334 5.71853 10.7814 3.6665 8.25008 3.6665C5.71878 3.6665 3.66675 5.71853 3.66675 8.24984C3.66675 10.7811 5.71878 12.8332 8.25008 12.8332Z" fill="white"></path><path fill-rule="evenodd" clip-rule="evenodd" d="M35.7501 12.8332C38.2814 12.8332 40.3334 10.7811 40.3334 8.24984C40.3334 5.71853 38.2814 3.6665 35.7501 3.6665C33.2188 3.6665 31.1667 5.71853 31.1667 8.24984C31.1667 10.7811 33.2188 12.8332 35.7501 12.8332Z" fill="white"></path><path fill-rule="evenodd" clip-rule="evenodd" d="M22.0001 26.5832C24.5314 26.5832 26.5834 24.5311 26.5834 21.9998C26.5834 19.4685 24.5314 17.4165 22.0001 17.4165C19.4688 17.4165 17.4167 19.4685 17.4167 21.9998C17.4167 24.5311 19.4688 26.5832 22.0001 26.5832Z" fill="white"></path><path fill-rule="evenodd" clip-rule="evenodd" d="M8.25008 26.5832C10.7814 26.5832 12.8334 24.5311 12.8334 21.9998C12.8334 19.4685 10.7814 17.4165 8.25008 17.4165C5.71878 17.4165 3.66675 19.4685 3.66675 21.9998C3.66675 24.5311 5.71878 26.5832 8.25008 26.5832Z" fill="white"></path><path fill-rule="evenodd" clip-rule="evenodd" d="M35.7501 26.5832C38.2814 26.5832 40.3334 24.5311 40.3334 21.9998C40.3334 19.4685 38.2814 17.4165 35.7501 17.4165C33.2188 17.4165 31.1667 19.4685 31.1667 21.9998C31.1667 24.5311 33.2188 26.5832 35.7501 26.5832Z" fill="white"></path><path fill-rule="evenodd" clip-rule="evenodd" d="M22.0001 40.3332C24.5314 40.3332 26.5834 38.2811 26.5834 35.7498C26.5834 33.2185 24.5314 31.1665 22.0001 31.1665C19.4688 31.1665 17.4167 33.2185 17.4167 35.7498C17.4167 38.2811 19.4688 40.3332 22.0001 40.3332Z" fill="white"></path><path fill-rule="evenodd" clip-rule="evenodd" d="M8.25008 40.3332C10.7814 40.3332 12.8334 38.2811 12.8334 35.7498C12.8334 33.2185 10.7814 31.1665 8.25008 31.1665C5.71878 31.1665 3.66675 33.2185 3.66675 35.7498C3.66675 38.2811 5.71878 40.3332 8.25008 40.3332Z" fill="white"></path><path fill-rule="evenodd" clip-rule="evenodd" d="M35.7501 40.3332C38.2814 40.3332 40.3334 38.2811 40.3334 35.7498C40.3334 33.2185 38.2814 31.1665 35.7501 31.1665C33.2188 31.1665 31.1667 33.2185 31.1667 35.7498C31.1667 38.2811 33.2188 40.3332 35.7501 40.3332Z" fill="white"></path></svg> 