<?xml version="1.0" encoding="UTF-8"?> <svg xmlns="http://www.w3.org/2000/svg" width="44" height="44" viewBox="0 0 44 44" fill="none"><path fill-rule="evenodd" clip-rule="evenodd" d="M16.215 2.00049C19.501 2.00049 22.165 4.66449 22.165 7.95049C22.165 10.0345 21.094 11.8685 19.472 12.9315L25.995 29.4165C26.56 29.2385 27.161 29.1425 27.785 29.1425C28.072 29.1425 28.354 29.1625 28.63 29.2015L32.187 23.9605C30.909 22.8695 30.099 21.2465 30.099 19.4345C30.099 16.1475 32.763 13.4835 36.049 13.4835C39.336 13.4835 42 16.1475 42 19.4345C42 22.7205 39.336 25.3845 36.049 25.3845C35.252 25.3845 34.492 25.2285 33.797 24.9425L30.504 29.7985C32.423 30.7855 33.736 32.7855 33.736 35.0935C33.736 38.3795 31.071 41.0435 27.785 41.0435C24.499 41.0435 21.835 38.3795 21.835 35.0935C21.835 33.0815 22.833 31.3025 24.361 30.2265L17.815 13.6835C17.306 13.8255 16.769 13.9005 16.215 13.9005C16.027 13.9005 15.84 13.8925 15.656 13.8755L11.579 22.3725C12.991 23.4605 13.901 25.1685 13.901 27.0895C13.901 30.3755 11.236 33.0395 7.95 33.0395C4.664 33.0395 2 30.3755 2 27.0895C2 23.8035 4.664 21.1395 7.95 21.1395C8.659 21.1395 9.34 21.2635 9.97 21.4905L13.841 13.4085C11.736 12.4915 10.264 10.3935 10.264 7.95049C10.264 4.66449 12.928 2.00049 16.215 2.00049Z" fill="white"></path></svg> 