<?xml version="1.0" encoding="UTF-8"?> <svg xmlns="http://www.w3.org/2000/svg" xmlns:xlink="http://www.w3.org/1999/xlink" width="516px" height="595px" viewBox="0 0 516 595" version="1.1"><title>diagram/5</title><defs><radialGradient cx="30.5678145%" cy="54.2224719%" fx="30.5678145%" fy="54.2224719%" r="108.731897%" gradientTransform="translate(0.305678,0.542225),scale(0.536082,1.000000),translate(-0.305678,-0.542225)" id="radialGradient-1"><stop stop-color="#5F758A" offset="0%"></stop><stop stop-color="#363D45" offset="100%"></stop></radialGradient><linearGradient x1="50%" y1="-43.4136474%" x2="50%" y2="85.5598051%" id="linearGradient-2"><stop stop-color="#01597E" offset="0%"></stop><stop stop-color="#049CCB" offset="100%"></stop></linearGradient><polygon id="path-3" points="0.15923131 0.171401488 5.74190179 0.171401488 5.74190179 8.54575327 0.15923131 8.54575327"></polygon><polygon id="path-5" points="0.34690303 0.161963636 40.5161515 0.161963636 40.5161515 22.7920545 0.34690303 22.7920545"></polygon><polygon id="path-7" points="0 34.3531879 51.3343333 34.3531879 51.3343333 0.514945455 0 0.514945455"></polygon></defs><g id="diagram/5" stroke="none" stroke-width="1" fill="none" fill-rule="evenodd"><g id="Group-2" transform="translate(23.000000, 98.000000)"><g id="Group" fill-rule="nonzero"><polygon id="Combined-Shape" fill="#6D7278" points="67.6136364 -6.27492286e-13 67.6136364 250.21645 55.9393922 250.21645 55.9390152 11.8172078 0.45995671 11.8178658 0.45995671 0.214870288 55.9390152 0.214339827 55.9393922 -6.27492286e-13"></polygon><path d="M67.6136364,217.099567 L413.827966,217.099567 C419.744083,217.099567 424.540043,212.286829 424.540043,206.350017 L424.540043,36.5071259 C424.540043,30.5703133 419.744083,25.7575758 413.827966,25.7575758 L67.6136364,25.7575758 L67.6136364,217.099567 Z" id="Rectangle-4" fill="url(#radialGradient-1)"></path><rect id="Rectangle-Copy-30" fill="#EEEEEE" x="261.715368" y="136.147186" width="49.6753247" height="45.0757576" rx="6.16"></rect><rect id="Rectangle-Copy-31" fill="#EEEEEE" x="338.068182" y="136.147186" width="49.6753247" height="45.0757576" rx="6.16"></rect><rect id="Rectangle-Copy-37" fill="#EEEEEE" x="261.715368" y="57.9545455" width="49.6753247" height="57.9545455" rx="6.16"></rect><rect id="Rectangle-Copy-38" fill="#EEEEEE" x="338.068182" y="57.9545455" width="49.6753247" height="57.9545455" rx="6.16"></rect><rect id="Rectangle-Copy-27" fill="url(#linearGradient-2)" x="97.9707792" y="57.9545455" width="134.307359" height="123.268398" rx="6.16"></rect><polygon id="Fill-1-Copy-4" fill="#FCFCFC" points="179.336782 88.3116883 194.742506 106.663961 165.23295 141.183712 135.506411 106.663961 141.79889 99.4541396 168.921644 99.4541396 174.563177 106.227002 157.638579 126.108631 165.015968 134.629329 189.534938 105.790043 174.346195 88.3116883 136.591321 88.3116883 120.968615 106.663961 165.23295 158.225108 209.280303 106.663961 193.874578 88.3116883"></polygon></g><g id="HPE-logo" transform="translate(321.969697, 245.892857)"><path d="M28.1929012,0.192261905 L28.1929012,8.29379405 L0,8.29379405 L0,0.192261905 L28.1929012,0.192261905 Z M26.339881,2.04528214 L1.85302024,2.04528214 L1.85302024,6.44077381 L26.339881,6.44077381 L26.339881,2.04528214 Z" id="Fill-1" fill="#00B38D" fill-rule="nonzero"></path><polygon id="Fill-2" fill="#231F20" fill-rule="nonzero" points="5.19280179 13.3997704 5.19280179 16.4957638 1.66556488 16.4957638 1.66556488 13.3997704 0.0413363095 13.3997704 0.0413363095 21.190415 1.66556488 21.190415 1.66556488 17.9169638 5.19280179 17.9169638 5.19280179 21.190415 6.8168381 21.190415 6.8168381 13.3997704"></polygon><g id="Group-45" transform="translate(0.000000, 12.579312)"><path d="M9.4557481,5.10901405 L11.6000451,5.10901405 C11.5619773,4.5001206 11.2195588,4.06868488 10.5975915,4.06868488 C10.0775231,4.06868488 9.6333981,4.39860631 9.4557481,5.10901405 L9.4557481,5.10901405 Z M9.40499095,6.13684619 C9.53188381,7.06297179 10.2046082,7.44384262 11.0419088,7.44384262 C11.6634915,7.44384262 12.1076165,7.30406821 12.6659451,6.94876821 L12.6659451,8.24307536 C12.1964415,8.58568607 11.5619773,8.7379575 10.8008124,8.7379575 C9.07526179,8.7379575 7.89515821,7.62130036 7.89515821,5.81961405 C7.89515821,4.04330631 9.0116231,2.81263786 10.559716,2.81263786 C12.2091308,2.81263786 13.059313,3.95448131 13.059313,5.62927476 L13.059313,6.13684619 L9.40499095,6.13684619 Z" id="Fill-3" fill="#231F20" fill-rule="nonzero"></path><polygon id="Fill-5" fill="#231F20" fill-rule="nonzero" points="19.1749335 6.55547726 20.189884 2.93941536 21.7125983 2.93941536 19.9870477 8.61094929 18.5404692 8.61094929 17.6143436 5.13446952 16.6880257 8.61094929 15.2416394 8.61094929 13.5158965 2.93941536 15.089368 2.93941536 16.1043186 6.55547726 17.0306364 2.93941536 18.2359263 2.93941536"></polygon><path d="M27.4810515,5.10901405 L29.6253485,5.10901405 C29.5872807,4.5001206 29.2448622,4.06868488 28.6228949,4.06868488 C28.1028265,4.06868488 27.6587015,4.39860631 27.4810515,5.10901405 L27.4810515,5.10901405 Z M27.4302943,6.13684619 C27.5571872,7.06297179 28.2299116,7.44384262 29.0672122,7.44384262 C29.6887949,7.44384262 30.1329199,7.30406821 30.6912485,6.94876821 L30.6912485,8.24307536 C30.2217449,8.58568607 29.5872807,8.7379575 28.8261158,8.7379575 C27.1005652,8.7379575 25.9204616,7.62130036 25.9204616,5.81961405 C25.9204616,4.04330631 27.0369265,2.81263786 28.5850193,2.81263786 C30.2344342,2.81263786 31.0846164,3.95448131 31.0846164,5.62927476 L31.0846164,6.13684619 L27.4302943,6.13684619 Z" id="Fill-7" fill="#231F20" fill-rule="nonzero"></path><path d="M45.3311851,2.20349446 L43.8721095,2.20349446 L43.8721095,4.52544149 L45.3311851,4.52544149 C46.1684857,4.52544149 46.5747351,4.04324863 46.5747351,3.37071649 C46.5747351,2.67280577 46.1684857,2.20349446 45.3311851,2.20349446 L45.3311851,2.20349446 Z M43.8721095,5.90857363 L43.8721095,8.61100696 L42.2605702,8.61100696 L42.2605702,0.820554583 L45.4326993,0.820554583 C47.0821142,0.820554583 48.1733928,1.70861232 48.1733928,3.37071649 C48.1733928,5.02013137 47.0821142,5.90857363 45.4326993,5.90857363 L43.8721095,5.90857363 Z" id="Fill-9" fill="#231F20" fill-rule="nonzero"></path><path d="M52.0304935,6.65706845 C51.8909113,6.3525256 51.4723571,6.16218631 51.0282321,6.16218631 C50.53335,6.16218631 50.0257786,6.37790417 50.0257786,6.86009702 C50.0257786,7.35497917 50.53335,7.55800774 51.0282321,7.55800774 C51.4723571,7.55800774 51.8909113,7.36747619 52.0304935,7.06293333 L52.0304935,6.65706845 Z M52.0304935,5.0711 C52.0304935,4.52546071 51.5611821,4.18285 50.7617571,4.18285 C50.1909315,4.18285 49.6577893,4.34781071 49.2138565,4.63966429 L49.2138565,3.28191071 C49.6199137,3.02831726 50.3557,2.8125994 51.1043679,2.8125994 C52.6649577,2.8125994 53.5405185,3.61183214 53.5405185,4.99477202 L53.5405185,8.61102619 L52.0304935,8.61102619 L52.0304935,8.30648333 C51.8403464,8.49682262 51.2818256,8.71254048 50.6602429,8.71254048 C49.5183994,8.71254048 48.566703,8.05288988 48.566703,6.87278631 C48.566703,5.79438929 49.5183994,5.05841071 50.7617571,5.05841071 C51.2566393,5.05841071 51.8022786,5.22337143 52.0304935,5.38813988 L52.0304935,5.0711 Z" id="Fill-11" fill="#231F20" fill-rule="nonzero"></path><path d="M57.5520246,2.81258018 C58.1230425,2.81258018 58.6811788,2.93947304 59.087236,3.25670518 L59.087236,4.6904022 C58.7065574,4.34779149 58.2497431,4.18283077 57.7421717,4.18283077 C56.9048711,4.18283077 56.2450282,4.76653792 56.2450282,5.78148851 C56.2450282,6.78394208 56.9048711,7.38033851 57.7421717,7.38033851 C58.2497431,7.38033851 58.7065574,7.20268851 59.087236,6.87276708 L59.087236,8.29396708 C58.6811788,8.61100696 58.1230425,8.73789982 57.5520246,8.73789982 C55.9404854,8.73789982 54.6844383,7.59605637 54.6844383,5.78148851 C54.6844383,3.95442363 55.9404854,2.81258018 57.5520246,2.81258018" id="Fill-13" fill="#231F20" fill-rule="nonzero"></path><polygon id="Fill-15" fill="#231F20" fill-rule="nonzero" points="65.8267848 8.61104542 63.9870306 8.61104542 61.9442479 5.99724482 61.9442479 8.61104542 60.3707764 8.61104542 60.3707764 0.36377875 61.9442479 0.36377875 61.9442479 5.1853228 63.885324 2.93951149 65.7760276 2.93951149 63.4160127 5.54043054"></polygon><path d="M69.5190016,6.65706845 C69.3794195,6.3525256 68.9608653,6.16218631 68.5167403,6.16218631 C68.0218582,6.16218631 67.5142867,6.37790417 67.5142867,6.86009702 C67.5142867,7.35497917 68.0218582,7.55800774 68.5167403,7.55800774 C68.9608653,7.55800774 69.3794195,7.36747619 69.5190016,7.06293333 L69.5190016,6.65706845 Z M69.5190016,5.0711 C69.5190016,4.52546071 69.0496903,4.18285 68.2502653,4.18285 C67.6794397,4.18285 67.1462974,4.34781071 66.7023647,4.63966429 L66.7023647,3.28191071 C67.1084218,3.02831726 67.8442082,2.8125994 68.592876,2.8125994 C70.1534659,2.8125994 71.0290266,3.61183214 71.0290266,4.99477202 L71.0290266,8.61102619 L69.5190016,8.61102619 L69.5190016,8.30648333 C69.3288546,8.49682262 68.7703338,8.71254048 68.148751,8.71254048 C67.0069076,8.71254048 66.0552111,8.05288988 66.0552111,6.87278631 C66.0552111,5.79438929 67.0069076,5.05841071 68.2502653,5.05841071 C68.7451474,5.05841071 69.2907867,5.22337143 69.5190016,5.38813988 L69.5190016,5.0711 Z" id="Fill-17" fill="#231F20" fill-rule="nonzero"></path><path d="M75.9667353,4.4873544 C75.7510174,4.36046155 75.4718532,4.29701512 75.1799996,4.29701512 C74.6472418,4.29701512 74.2158061,4.5761794 74.1016026,5.09644012 L74.1016026,8.61098774 L72.5281311,8.61098774 L72.5281311,2.93945381 L74.1016026,2.93945381 L74.1016026,3.49778238 C74.342699,3.09172524 74.8120103,2.81256095 75.3703389,2.81256095 C75.6368139,2.81256095 75.8779103,2.8633181 75.9667353,2.91388298 L75.9667353,4.4873544 Z" id="Fill-19" fill="#231F20" fill-rule="nonzero"></path><g id="Fill-21-Clipped" transform="translate(76.327976, 0.192262)"><mask id="mask-4" fill="white"><use xlink:href="#path-3"></use></mask><g id="path-3"></g><path d="M4.15597179,4.65033482 C3.97832179,4.26984851 3.54688607,3.99049196 3.09026405,3.99049196 C2.2400819,3.99049196 1.73270274,4.67571339 1.73270274,5.58934196 C1.73270274,6.49008899 2.2400819,7.17531042 3.09026405,7.17531042 C3.55957536,7.17531042 3.97832179,6.90883542 4.15597179,6.51546756 L4.15597179,4.65033482 Z M4.15597179,7.94935685 C3.90237833,8.25370744 3.3438575,8.54575327 2.73477179,8.54575327 C1.0853569,8.54575327 0.15923131,7.21337827 0.15923131,5.58934196 C0.15923131,3.96530565 1.0853569,2.62024137 2.73477179,2.62024137 C3.3438575,2.62024137 3.90237833,2.91209494 4.15597179,3.2166378 L4.15597179,0.171401488 L5.74194024,0.171401488 L5.74194024,8.41886042 L4.15597179,8.41886042 L4.15597179,7.94935685 Z" id="Fill-21" fill="#231F20" fill-rule="nonzero" mask="url(#mask-4)"></path></g><path d="M25.0768356,7.6433528 C24.6027177,7.6433528 24.3141326,7.38399149 24.3047118,6.88064982 L24.32836,6.88064982 L24.32836,0.876310536 L22.7550808,0.876310536 L22.7550808,6.49612601 L22.7550808,6.88064982 L22.7550808,6.95813137 C22.7550808,8.23974923 23.5543136,8.9757278 24.7597957,8.9757278 C25.127785,8.9757278 25.4069493,8.92497065 25.6351642,8.82326411 L25.6351642,7.49088911 C25.4702035,7.6054772 25.2671749,7.6433528 25.0768356,7.6433528" id="Fill-24" fill="#231F20" fill-rule="nonzero"></path><path d="M38.0430746,4.46520583 L39.4750412,4.46520583 L39.4750412,3.18358798 L38.0430746,3.18358798 L38.0430746,0.876252857 L36.4696032,0.876252857 L36.4696032,3.18358798 L34.1978365,3.18358798 L34.1978365,0.876252857 L32.6243651,0.876252857 L32.6243651,3.18358798 L31.5923032,3.18358798 L31.5923032,4.46520583 L32.6243651,4.46520583 L32.6243651,6.49606833 L32.6243651,6.88059214 L32.6243651,6.95807369 C32.6243651,8.23969155 33.4239823,8.97567012 34.6292722,8.97567012 C34.9970692,8.97567012 35.2762335,8.92491298 35.5046407,8.82320643 L35.5046407,7.49083143 C35.3396799,7.60541952 35.1368436,7.64329512 34.9465043,7.64329512 C34.4721942,7.64329512 34.1836091,7.38412607 34.1741883,6.88059214 L34.1978365,6.88059214 L34.1978365,4.46520583 L36.4696032,4.46520583 L36.4696032,6.49606833 L36.4696032,6.88059214 L36.4696032,6.95807369 C36.4696032,8.23969155 37.2690282,8.97567012 38.474318,8.97567012 C38.8423073,8.97567012 39.1216639,8.92491298 39.350071,8.82320643 L39.350071,7.49083143 C39.1847258,7.60541952 38.9820817,7.64329512 38.7917424,7.64329512 C38.3174323,7.64329512 38.0288472,7.38412607 38.0194264,6.88059214 L38.0430746,6.88059214 L38.0430746,4.46520583 Z" id="Fill-26" fill="#231F20" fill-rule="nonzero"></path><polygon id="Fill-28" fill="#231F20" fill-rule="nonzero" points="5.12874012 11.7020593 5.12874012 12.5970385 1.1271931 12.5970385 1.1271931 15.0774093 4.75805917 15.0774093 4.75805917 15.9723885 1.1271931 15.9723885 1.1271931 18.6442521 5.12874012 18.6442521 5.12874012 19.5521129 0.129930595 19.5521129 0.129930595 11.7020593"></polygon><path d="M6.63753464,13.8755224 L7.59634476,13.8755224 L7.59634476,14.591698 C7.92895786,14.1439201 8.5424656,13.7605498 9.27113821,13.7605498 C10.5625614,13.7605498 11.2656632,14.591698 11.2656632,15.8317873 L11.2656632,19.5520552 L10.2941638,19.5520552 L10.2941638,15.9852123 C10.2941638,15.1925165 9.89771976,14.6426474 9.04119298,14.6426474 C8.37635131,14.6426474 7.80110369,15.0900409 7.59634476,15.7039332 L7.59634476,19.5520552 L6.63753464,19.5520552 L6.63753464,13.8755224 Z" id="Fill-30" fill="#231F20" fill-rule="nonzero"></path><path d="M17.4411925,16.125775 L20.3689568,16.125775 C20.3305044,15.294819 19.9086818,14.5788357 18.9881318,14.5788357 C18.2338883,14.5788357 17.6201883,15.0773708 17.4411925,16.125775 L17.4411925,16.125775 Z M17.3898586,16.8800185 C17.4285032,18.1968202 18.2594592,18.8234018 19.2949818,18.8234018 C19.9342526,18.8234018 20.3945276,18.6699768 20.9059443,18.2864143 L20.9059443,19.1685119 C20.4456693,19.5265036 19.8575401,19.6672393 19.1800092,19.6672393 C17.5434758,19.6672393 16.44393,18.5550042 16.44393,16.7650458 C16.44393,15.0006583 17.4667633,13.760569 18.9752502,13.760569 C20.5095002,13.760569 21.3021961,14.8728042 21.3021961,16.5349083 L21.3021961,16.8800185 L17.3898586,16.8800185 Z" id="Fill-32" fill="#231F20" fill-rule="nonzero"></path><path d="M25.5214412,14.8343902 C25.3680162,14.7322992 25.1249972,14.6809652 24.8821704,14.6809652 C24.281352,14.6809652 23.7570537,15.0774093 23.5653686,15.742251 L23.5653686,19.5521129 L22.6065585,19.5521129 L22.6065585,13.8755801 L23.5653686,13.8755801 L23.5653686,14.6171343 C23.8081954,14.1312885 24.3451829,13.7606075 24.9717645,13.7606075 C25.2145912,13.7606075 25.4191579,13.7988676 25.5214412,13.8500093 L25.5214412,14.8343902 Z" id="Fill-34" fill="#231F20" fill-rule="nonzero"></path><path d="M27.4771101,17.8645724 C27.7710786,18.4527016 28.3336369,18.7978117 28.9344554,18.7978117 C30.0211196,18.7978117 30.6605827,17.9157141 30.6605827,16.7138849 C30.6605827,15.5120558 30.0211196,14.6299582 28.9344554,14.6299582 C28.3336369,14.6299582 27.7710786,14.9750683 27.4771101,15.5631974 L27.4771101,17.8645724 Z M27.4771101,21.725576 L26.5183,21.725576 L26.5183,13.8755224 L27.4771101,13.8755224 L27.4771101,14.5403641 C27.7710786,14.1312308 28.371897,13.7605498 29.0751911,13.7605498 C30.7499845,13.7605498 31.6320821,15.1413748 31.6320821,16.7138849 C31.6320821,18.2863951 30.7499845,19.6672201 29.0751911,19.6672201 C28.371897,19.6672201 27.7710786,19.2963468 27.4771101,18.8872135 L27.4771101,21.725576 Z" id="Fill-36" fill="#231F20" fill-rule="nonzero"></path><path d="M36.0436661,14.8343902 C35.8902411,14.7322992 35.6474143,14.6809652 35.4045876,14.6809652 C34.8035768,14.6809652 34.2792786,15.0774093 34.0875935,15.742251 L34.0875935,19.5521129 L33.1287834,19.5521129 L33.1287834,13.8755801 L34.0875935,13.8755801 L34.0875935,14.6171343 C34.3306126,14.1312885 34.8676001,13.7606075 35.4939893,13.7606075 C35.7368161,13.7606075 35.9415751,13.7988676 36.0436661,13.8500093 L36.0436661,14.8343902 Z" id="Fill-38" fill="#231F20" fill-rule="nonzero"></path><path d="M37.233056,19.5520744 L38.1918661,19.5520744 L38.1918661,13.8755417 L37.233056,13.8755417 L37.233056,19.5520744 Z M37.705828,12.7759958 C37.3735994,12.7759958 37.0923202,12.4947167 37.0923202,12.1624881 C37.0923202,11.8171857 37.3735994,11.5485958 37.705828,11.5485958 C38.0511304,11.5485958 38.3324095,11.8171857 38.3324095,12.1624881 C38.3324095,12.4947167 38.0511304,12.7759958 37.705828,12.7759958 L37.705828,12.7759958 Z" id="Fill-40" fill="#231F20" fill-rule="nonzero"></path><path d="M39.5725373,18.0818092 C40.0968355,18.567655 40.7487956,18.8489342 41.4392081,18.8489342 C42.0657896,18.8489342 42.6154664,18.6187967 42.6154664,18.0562383 C42.6154664,17.6344157 42.2957349,17.4042782 41.7971998,17.2379717 L41.0173855,16.969574 C40.1608587,16.6882949 39.5852265,16.2791615 39.5852265,15.3586115 C39.5852265,14.361349 40.4675164,13.7605306 41.5926331,13.7605306 C42.2319039,13.7605306 42.8200331,13.9395264 43.2803081,14.2590657 L43.2803081,15.2565205 C42.8071515,14.8600764 42.2830456,14.5787973 41.5926331,14.5787973 C41.0045039,14.5787973 40.5186581,14.8343133 40.5186581,15.3203514 C40.5186581,15.7804342 40.8257004,15.9338592 41.3624956,16.1257365 L42.2319039,16.419705 C43.0884307,16.7138657 43.5615873,17.2125931 43.5615873,18.0179782 C43.5615873,19.0661901 42.628348,19.6672008 41.4392081,19.6672008 C40.6978462,19.6672008 39.9943599,19.4370633 39.5725373,19.1046425 L39.5725373,18.0818092 Z" id="Fill-42" fill="#231F20" fill-rule="nonzero"></path><path d="M45.5176214,16.125775 L48.4453857,16.125775 C48.4069333,15.294819 47.9851107,14.5788357 47.0645607,14.5788357 C46.310125,14.5788357 45.6966173,15.0773708 45.5176214,16.125775 L45.5176214,16.125775 Z M45.4662875,16.8800185 C45.5047399,18.1968202 46.3358881,18.8234018 47.3714107,18.8234018 C48.0106815,18.8234018 48.4707643,18.6699768 48.9823732,18.2864143 L48.9823732,19.1685119 C48.5220982,19.5265036 47.9337768,19.6672393 47.2562458,19.6672393 C45.6197125,19.6672393 44.5203589,18.5550042 44.5203589,16.7650458 C44.5203589,15.0006583 45.5431923,13.760569 47.0516792,13.760569 C48.5859292,13.760569 49.378625,14.8728042 49.378625,16.5349083 L49.378625,16.8800185 L45.4662875,16.8800185 Z" id="Fill-43" fill="#231F20" fill-rule="nonzero"></path><path d="M15.1982651,18.8234402 C14.6357068,18.8234402 14.2650258,18.4656408 14.2650258,17.7877254 L14.2650258,17.2974575 L14.2888663,17.2974575 L14.2888663,14.6873099 L15.7948538,14.6873099 L15.7948538,13.8861545 L14.2888663,13.8861545 L14.2888663,12.476298 L13.3190973,12.476298 L13.3190973,13.8861545 L12.0138312,13.8861545 L12.0138312,14.6873099 L13.3190973,14.6873099 L13.3190973,17.2974575 L13.3190973,17.8648224 C13.3190973,19.0026283 14.0604592,19.6672777 15.0577217,19.6672777 C15.3645717,19.6672777 15.5818276,19.6288254 15.7992758,19.5396158 L15.7992758,18.669823 C15.62028,18.7851801 15.4028318,18.8234402 15.1982651,18.8234402" id="Fill-44" fill="#231F20" fill-rule="nonzero"></path></g></g><g id="Dell_Logo-Copy" transform="translate(91.991342, 242.857143)" fill="#007DB8" fill-rule="nonzero"><g id="g3460" transform="translate(18.398268, 18.667803) scale(-1, 1) rotate(-180.000000) translate(-18.398268, -18.667803) translate(0.000000, 0.269535)"><path d="M18.2547619,34.2968254 C13.8238333,34.2968254 9.81110476,32.4995611 6.90583174,29.5920754 C3.99945238,26.6912278 2.20329445,22.6762865 2.20329445,18.2431452 C2.20329445,13.813323 3.99945238,9.80114762 6.90583174,6.89919365 C9.81110476,3.99558016 13.8238333,2.19499683 18.2547619,2.19499683 C22.6867969,2.19499683 26.7017381,3.99558016 29.6025857,6.89919365 C32.5078588,9.80114762 34.3001445,13.813323 34.3001445,18.2431452 C34.3001445,22.6762865 32.5078588,26.6912278 29.6025857,29.5920754 C26.7017381,32.4995611 22.6867969,34.2968254 18.2547619,34.2968254 M18.2547619,36.2417873 C28.1925436,36.2417873 36.250085,28.1831397 36.250085,18.2431452 C36.250085,8.30646984 28.1925436,0.248928571 18.2547619,0.248928571 C8.3180865,0.248928571 0.25722619,8.30646984 0.25722619,18.2431452 C0.25722619,28.1831397 8.3180865,36.2417873 18.2547619,36.2417873" id="path3462"></path></g><g id="g3464" transform="translate(18.696320, 18.649405) scale(-1, 1) rotate(-180.000000) translate(-18.696320, -18.649405) translate(4.897619, 13.589881)"><path d="M4.96885714,4.89761905 C4.96885714,5.92938412 4.27432133,6.51546588 3.29103971,6.51546588 L2.6892559,6.51546588 L2.6892559,3.27868386 L3.27392476,3.27868386 C4.18819448,3.27868386 4.96885714,3.76844577 4.96885714,4.89761905 M15.6734317,3.73307407 L11.2401069,0.292224603 L7.18828,3.43649603 C6.60361114,2.05210238 5.19079943,1.0905365 3.56377476,1.0905365 L0.0960645714,1.0905365 L0.0960645714,8.70470159 L3.56377476,8.70470159 C5.38182438,8.70470159 6.69194638,7.56518889 7.18717581,6.35112355 L11.2401069,9.49212994 L12.7412539,8.32758492 L9.02675714,5.44996164 L9.7406163,4.89925159 L13.4540088,7.77524233 L14.9573642,6.61396243 L11.2434195,3.73307407 L11.9561745,3.18127566 L15.6734317,6.0627082 L15.6734317,8.70470159 L18.3682086,8.70470159 L18.3682086,3.31296719 L21.0563602,3.31296719 L21.0563602,1.08128545 L15.6734317,1.08128545 L15.6734317,3.73307407 Z M24.4699651,3.31187883 L27.1570126,3.31187883 L27.1570126,1.08128545 L21.7724278,1.08128545 L21.7724278,8.70470159 L24.4699651,8.70470159 L24.4699651,3.31187883 Z" id="path3466"></path></g></g><g id="Lenovo-logo-vector-01" transform="translate(154.545455, 255.000000)" fill="#E60012" fill-rule="nonzero"><path d="M26.6705094,2.83333333 C25.5087553,2.83333333 24.1954678,3.36767249 23.404128,4.41965268 L23.404128,4.41965268 L23.404128,4.41965268 L23.404128,3.00031432 L20.6428571,3.00031432 L20.6428571,12.952381 L23.404128,12.952381 L23.404128,7.2917256 C23.404128,6.2731416 24.1954678,5.1877652 25.6771255,5.1877652 C26.8220426,5.1877652 28.0006339,5.97257583 28.0006339,7.2917256 L28.0006339,12.952381 L30.7619048,12.952381 L30.7619048,6.79078265 C30.7450678,4.50314317 29.09504,2.83333333 26.6705094,2.83333333" id="XMLID_23_"></path><polygon id="XMLID_27_" points="50.2653873 2.83333333 47.7619048 9.45078295 45.2584222 2.83333333 42.0952381 2.83333333 46.2395167 12.547619 49.2842928 12.547619 53.4285714 2.83333333"></polygon><path d="M12.5580309,5.67455164 C13.0317716,5.0424397 13.7762211,4.66658936 14.6898637,4.66658936 C15.6881029,4.66658936 16.4494717,5.24744898 16.8386158,6.08457019 L11.9996938,8.11757885 C11.8643393,7.05836425 12.1350483,6.25541126 12.5580309,5.67455164 M17.887613,9.65514844 C16.7201806,10.5264378 16.0603277,10.7314471 14.9944113,10.7314471 C14.0300107,10.7314471 13.2855612,10.4239332 12.7610626,9.91141001 L19.8333333,6.93877551 C19.6810596,5.8283086 19.2580769,4.85451454 18.6320625,4.10281385 C17.7015005,3.00943104 16.3310366,2.42857143 14.6560251,2.42857143 C11.6105497,2.42857143 9.30952381,4.70075758 9.30952381,7.69047619 C9.30952381,10.7656153 11.6105497,12.952381 14.9605726,12.952381 C16.8386158,12.952381 18.7504976,12.0640074 19.647221,11.0047928 L17.887613,9.65514844 Z" id="XMLID_30_"></path><polygon id="XMLID_31_" points="8.9047619 10.4422296 2.74756594 10.4422296 2.74756594 0 0 0 0 12.952381 8.9047619 12.952381"></polygon><path d="M58.2692708,4.82034632 C56.7729167,4.82034632 55.6712054,5.99914966 55.6712054,7.69047619 C55.6712054,9.2963822 56.822247,10.5606061 58.3021577,10.5606061 C59.7985119,10.5606061 60.9002232,9.34763453 60.9002232,7.69047619 C60.9002232,6.08457019 59.7327381,4.82034632 58.2692708,4.82034632 M58.2692708,12.952381 C55.3258929,12.952381 53.0238095,10.6801948 53.0238095,7.69047619 C53.0238095,4.73492579 55.3423363,2.42857143 58.3021577,2.42857143 C61.2455357,2.42857143 63.547619,4.70075758 63.547619,7.69047619 C63.547619,10.6460266 61.2290923,12.952381 58.2692708,12.952381" id="XMLID_34_"></path><path d="M37.2216518,4.82034632 C35.7252976,4.82034632 34.6235863,5.99914966 34.6235863,7.69047619 C34.6235863,9.2963822 35.774628,10.5606061 37.2545387,10.5606061 C38.7508929,10.5606061 39.8526042,9.34763453 39.8526042,7.69047619 C39.8526042,6.08457019 38.685119,4.82034632 37.2216518,4.82034632 M37.2216518,12.952381 C34.2782738,12.952381 31.9761905,10.6801948 31.9761905,7.69047619 C31.9761905,4.73492579 34.2947173,2.42857143 37.2545387,2.42857143 C40.1979167,2.42857143 42.5,4.70075758 42.5,7.69047619 C42.5,10.6460266 40.1814732,12.952381 37.2216518,12.952381" id="XMLID_38_"></path></g><g id="Group-19" transform="translate(243.777056, 246.536797)"><path d="M0,20.3646091 L0,21.7333667 C0,24.1489121 0.957666667,26.2955485 1.93284848,27.7570333 C3.03733333,29.4117 4.50860606,30.3899727 6.19418182,31.4527303 C7.52378788,32.2908818 10.2097879,33.2212455 12.0241515,33.5797909 C14.2609394,34.0217909 16.5178182,34.3530333 19.2074242,34.3530333 L20.5334242,34.3530333 C28.8000606,34.3530333 37.1996061,31.9529424 42.6071515,29.0907606 L42.6071515,25.1987909 C41.1441212,25.9730636 39.3426364,26.9951242 37.6534545,27.5169727 C37.2943939,27.6277303 36.7287576,27.8729424 36.3521818,28.0125485 C35.8890606,28.1835788 35.434697,28.2958818 34.9762121,28.4756697 C34.2905455,28.7461242 32.9078788,29.1154879 32.1433939,29.2803364 C31.1594545,29.4910333 30.2239394,29.7578818 29.1926061,29.9649727 C28.1293333,30.1777303 27.1819697,30.2920939 26.078,30.4857909 C25.0564545,30.6655788 23.8473939,30.727397 22.7578485,30.8026091 C21.6198788,30.8809121 20.4391515,30.9308818 19.2074242,30.9308818 L18.9508788,30.9308818 C14.5669394,30.9308818 10.3849394,30.2416091 7.45784848,28.7775485 C4.64254545,27.3696394 2.01063636,24.7593667 2.01063636,20.578397 L2.01063636,20.1935788 C2.01063636,18.2267303 2.61439394,16.7152758 3.18260606,15.2908818 C3.43193939,14.666003 3.90227273,13.8690636 4.26081818,13.3317606 C4.48490909,12.9958818 4.66675758,12.7517 4.90166667,12.4328212 C5.11184848,12.1474273 5.43948485,11.840397 5.60381818,11.5951848 L5.60381818,10.2259121 C4.92175758,10.6828515 4.20518182,11.5812758 3.62666667,12.184003 C2.96984848,12.8681242 2.4830303,13.6310636 1.94212121,14.4352152 C1.139,15.6293364 0,18.4075485 0,20.3646091" id="Fill-1" fill="#0079BC"></path><g id="Group-5" transform="translate(10.818182, 0.353188)"><mask id="mask-6" fill="white"><use xlink:href="#path-5"></use></mask><g id="Clip-4"></g><path d="M40.5163576,12.6106 L40.5163576,11.3701152 C40.5019333,11.3474485 40.3169939,9.98229697 40.2855697,9.80405455 C40.2046909,9.35690303 40.0424182,8.7856 39.8878727,8.40490303 C39.5015091,7.45444848 39.1800545,6.81205455 38.6025697,6.05375152 C37.5346606,4.65099394 36.2617212,3.63666061 34.669903,2.75678182 C31.7484788,1.14075152 27.3022061,0.161963636 22.7626909,0.161963636 L22.3783879,0.161963636 C17.6946303,0.161963636 13.8217212,0.940872727 10.1605394,1.97581212 C9.19411515,2.24935758 8.40747879,2.53166061 7.50699394,2.82993333 C6.7615697,3.07720606 5.66944848,3.49035758 4.9946,3.82572121 C4.19508485,4.22341818 3.39711515,4.56496364 2.61408485,4.95287273 C2.19938788,5.15841818 0.606539394,6.1336 0.34690303,6.19387273 L0.34690303,7.2205697 C0.699781818,7.13814545 2.00002424,6.42002424 2.49972121,6.20778182 C3.19311515,5.9126 4.06320606,5.47472121 4.76175152,5.26093333 C5.07805455,5.16408485 5.60144848,4.96626667 5.91517576,4.83232727 C6.29690303,4.66953939 6.6956303,4.5706303 7.10053939,4.43411515 C7.87275152,4.17550909 8.73614545,3.88393333 9.55317576,3.67890303 C11.3134485,3.23741818 12.8635394,2.87887273 14.7886606,2.53990303 C16.4283879,2.25090303 18.7357515,1.95881212 20.5815394,1.95881212 L22.5061455,1.95881212 C26.2543879,1.95881212 30.3117212,2.8196303 32.7159333,4.15490303 C34.1743273,4.96575152 35.1546606,5.64781212 36.1607515,6.91353939 C36.9185394,7.86708485 37.8638424,9.77005455 37.8638424,11.4556303 L37.8638424,12.1825091 C37.8638424,13.9597818 36.9406909,15.8699636 36.1700242,16.9059333 C35.7027818,17.5344182 35.2406909,18.0943879 34.6668121,18.6105697 C34.3881152,18.8624788 33.0863273,19.8958727 32.7731152,19.9685091 L32.7731152,22.7920545 C33.3768727,22.7415697 35.1907212,21.5732061 35.6569333,21.2270242 C36.5162061,20.5877212 37.2858424,19.8531152 37.9421455,19.0196 C38.6875697,18.0727515 39.0893879,17.3783273 39.6323576,16.2182061 C39.8780848,15.6932667 40.0192364,15.153903 40.1990242,14.5604485 C40.2706303,14.3193576 40.5106909,12.6188424 40.5163576,12.6106" id="Fill-3" fill="#0079BC" mask="url(#mask-6)"></path></g><path d="M30.9291818,16.685603 L30.9291818,16.9849061 L34.9499394,16.9849061 L34.9499394,16.7711182 C34.9499394,15.7088758 34.1859697,14.7604818 33.0675758,14.7604818 L32.8537879,14.7604818 C31.8688182,14.7604818 30.9291818,15.7212394 30.9291818,16.685603 M28.2771818,17.7123 L28.2771818,18.2253909 C28.2771818,21.1669061 30.0812424,23.3161182 33.0248182,23.3161182 L33.5806667,23.3161182 C34.4729091,23.3161182 35.1086061,23.1002697 35.7468788,22.8293 C36.4407879,22.5346333 36.7941818,22.0313303 37.3144848,21.6794818 L35.6350909,20.1082697 C35.3038485,20.6023 34.3873939,21.0922091 33.5379091,21.0922091 L33.0675758,21.0922091 C31.9538182,21.0922091 30.9291818,20.1448455 30.9291818,19.0810576 L30.9291818,18.7817545 L37.6024545,18.7817545 L37.6024545,17.6267848 C37.6024545,16.2662697 37.1156364,14.9557242 36.5211515,14.1732091 C35.9570606,13.4308758 34.8118788,12.5788152 33.5379091,12.5788152 L32.725,12.5788152 C31.3799394,12.5788152 30.1626364,13.4231485 29.505303,14.1505424 C28.8350909,14.8923606 28.2771818,16.3059364 28.2771818,17.7123" id="Fill-6" fill="#0079BC"></path><path d="M12.4911364,23.1450879 L15.1003788,23.1450879 L15.1003788,14.8887545 L17.4535909,14.8887545 C17.9723485,14.8887545 18.3947727,15.2900576 18.3947727,15.7871788 L18.3947727,23.1450879 L21.0467727,23.1450879 L21.0467727,15.8299364 C21.0467727,14.0943909 19.8655303,12.7498455 18.1377121,12.7498455 L12.4911364,12.7498455 L12.4911364,23.1450879 Z" id="Fill-8" fill="#0079BC"></path><path d="M22.971997,20.0647394 C22.971997,21.8219212 24.1140879,23.1448303 25.8383,23.1448303 L27.6351485,23.1448303 L27.6351485,20.9204061 L26.3086333,20.9204061 C25.9160879,20.9204061 25.6245121,20.4660424 25.6245121,20.0647394 L25.6245121,14.8890121 L27.6351485,14.8890121 L27.6351485,12.7495879 L25.6245121,12.7495879 L25.6245121,9.8838 L22.971997,9.8838 L22.971997,20.0647394 Z" id="Fill-10" fill="#0079BC"></path><path d="M39.1424485,20.6211545 C39.1424485,21.3310333 39.5726,21.9749727 39.9440242,22.3443364 C40.1433879,22.5416394 40.4581455,22.7049424 40.7502364,22.8213667 C41.1587515,22.9836394 41.3699636,22.9609727 41.7944485,23.0593667 L41.7944485,8.42906364 L39.1424485,8.42906364 L39.1424485,20.6211545 Z" id="Fill-12" fill="#0079BC"></path><path d="M7.43296667,15.187903 L7.4432697,20.3646606 C7.4432697,22.1182364 8.47151212,23.2361152 10.1380273,23.2732061 L10.1380273,12.7496909 L7.49581515,12.7502061 L7.43296667,15.187903 Z" id="Fill-14" fill="#0079BC"></path><mask id="mask-8" fill="white"><use xlink:href="#path-7"></use></mask><g id="Clip-17"></g><polygon id="Fill-16" fill="#0079BC" mask="url(#mask-8)" points="7.48618182 11.2955212 10.1381818 11.2955212 10.1381818 8.77127879 7.48618182 8.77127879"></polygon><path d="M44.3754606,9.42392424 L44.5990364,9.42392424 C44.7056727,9.42392424 44.7783091,9.40743939 44.8174606,9.37601515 C44.8566121,9.34407576 44.8761879,9.30183333 44.8761879,9.24928788 C44.8761879,9.21580303 44.8664,9.18540909 44.8473394,9.15810606 C44.8287939,9.13183333 44.8030364,9.11174242 44.7700667,9.09886364 C44.7360667,9.0854697 44.6742485,9.07928788 44.5846121,9.07928788 L44.3754606,9.07928788 L44.3754606,9.42392424 Z M44.1905212,10.0668333 L44.1905212,8.92422727 L44.5825515,8.92422727 C44.7170061,8.92422727 44.8143697,8.9345303 44.8746424,8.95565152 C44.9349152,8.97677273 44.9823091,9.01386364 45.0178545,9.06589394 C45.0534,9.11895455 45.0714303,9.17459091 45.0714303,9.23383333 C45.0714303,9.31728788 45.0415515,9.38992424 44.9823091,9.45174242 C44.9225515,9.51407576 44.8432182,9.54859091 44.7448242,9.55631818 C44.7850061,9.57280303 44.8174606,9.59289394 44.8416727,9.61659091 C44.8880364,9.66140909 44.9441879,9.73713636 45.0106424,9.84325758 L45.1502485,10.0668333 L44.9246121,10.0668333 L44.8236424,9.8865303 C44.7437939,9.74537879 44.6799152,9.65625758 44.6309758,9.62071212 C44.5974909,9.59443939 44.5475212,9.58156061 44.4831273,9.58156061 L44.3754606,9.58156061 L44.3754606,10.0668333 L44.1905212,10.0668333 Z M44.6562182,8.5935 C44.5073394,8.5935 44.3620667,8.63162121 44.2204,8.70786364 C44.0797636,8.78462121 43.9690061,8.89434848 43.8891576,9.03601515 C43.8093091,9.17819697 43.7691273,9.32604545 43.7691273,9.48007576 C43.7691273,9.63307576 43.8087939,9.77937879 43.887097,9.9195 C43.9659152,10.0601364 44.0751273,10.1693485 44.2152485,10.2476515 C44.3569152,10.3259545 44.5032182,10.3656212 44.6562182,10.3656212 C44.8092182,10.3656212 44.9560364,10.3259545 45.0966727,10.2476515 C45.2378242,10.1693485 45.3465212,10.0601364 45.4243091,9.9195 C45.5026121,9.77937879 45.5412485,9.63307576 45.5412485,9.48007576 C45.5412485,9.32604545 45.502097,9.17819697 45.4227636,9.03601515 C45.3434303,8.89434848 45.2326727,8.78462121 45.0910061,8.70786364 C44.9493394,8.63162121 44.8045818,8.5935 44.6562182,8.5935 L44.6562182,8.5935 Z M44.6562182,8.41731818 C44.8349758,8.41731818 45.0085818,8.46316667 45.1785818,8.55486364 C45.3485818,8.64604545 45.4809758,8.77689394 45.5752485,8.94740909 C45.6700364,9.11740909 45.7169152,9.29513636 45.7169152,9.48007576 C45.7169152,9.66295455 45.6710667,9.83913636 45.5773091,10.0075909 C45.4840667,10.1765606 45.352703,10.3079242 45.1847636,10.4011667 C45.0163091,10.4949242 44.8401273,10.5412879 44.6562182,10.5412879 C44.4723091,10.5412879 44.2961273,10.4949242 44.1281879,10.4011667 C43.9592182,10.3079242 43.8283697,10.1765606 43.7346121,10.0075909 C43.6403394,9.83913636 43.5934606,9.66295455 43.5934606,9.48007576 C43.5934606,9.29513636 43.6408545,9.11740909 43.7366727,8.94740909 C43.8314606,8.77689394 43.9638545,8.64604545 44.1338545,8.55486364 C44.3033394,8.46316667 44.4779758,8.41731818 44.6562182,8.41731818 L44.6562182,8.41731818 Z" id="Fill-18" fill="#0079BC" mask="url(#mask-8)"></path></g></g></g></svg> 