<?xml version="1.0" encoding="UTF-8"?> <svg xmlns="http://www.w3.org/2000/svg" xmlns:xlink="http://www.w3.org/1999/xlink" width="15px" height="13px" viewBox="0 0 15 13" version="1.1"><title>C0BD339D-6D4F-4C29-8DDA-5E60A87388F2@1x</title><g id="Symbols" stroke="none" stroke-width="1" fill="none" fill-rule="evenodd"><g id="Group" fill="#2492C3"><path d="M14.70896,6.97304 C14.7172267,6.96077333 14.72416,6.94824 14.7316267,6.93570667 C14.7382933,6.92450667 14.7452267,6.91384 14.75136,6.90237333 C14.7582933,6.88930667 14.76416,6.87597333 14.7702933,6.86290667 C14.77616,6.85090667 14.78176,6.83944 14.7870933,6.82717333 C14.79216,6.81464 14.7964267,6.80157333 14.80096,6.78850667 C14.80576,6.77544 14.81056,6.76237333 14.8148267,6.74904 C14.8188267,6.73624 14.82176,6.72290667 14.82496,6.70957333 C14.8284267,6.69597333 14.83216,6.68264 14.8348267,6.66877333 C14.8380267,6.65330667 14.8398933,6.63757333 14.8422933,6.62210667 C14.8436267,6.61037333 14.8460267,6.59890667 14.8470933,6.58717333 C14.8526933,6.53144 14.8526933,6.47544 14.8470933,6.41997333 C14.8460267,6.40797333 14.8436267,6.39650667 14.8422933,6.38504 C14.8398933,6.36930667 14.8380267,6.35357333 14.8348267,6.33810667 C14.83216,6.32424 14.8284267,6.31090667 14.82496,6.29730667 C14.82176,6.28424 14.8188267,6.27090667 14.8148267,6.25784 C14.81056,6.24450667 14.80576,6.23144 14.80096,6.21837333 C14.7964267,6.20557333 14.79216,6.19250667 14.7870933,6.17970667 C14.78176,6.16770667 14.77616,6.15597333 14.7702933,6.14397333 C14.76416,6.13090667 14.7582933,6.11757333 14.75136,6.10477333 C14.7452267,6.09330667 14.7382933,6.08237333 14.7316267,6.07117333 C14.72416,6.05890667 14.7172267,6.04610667 14.70896,6.03384 C14.7004267,6.02130667 14.69136,6.00984 14.6822933,5.99784 C14.6748267,5.98770667 14.6676267,5.97730667 14.6596267,5.96744 C14.6420267,5.94584 14.62336,5.92530667 14.6036267,5.90557333 L9.40496,0.70664 C9.07482667,0.376506667 8.53909333,0.376506667 8.20896,0.70664 C7.87856,1.03704 7.87856,1.57250667 8.20896,1.90264 L11.96416,5.65784 L1.40176,5.65784 C0.93456,5.65784 0.55616,6.03650667 0.55616,6.50344 C0.55616,6.97037333 0.93456,7.34904 1.40176,7.34904 L11.96416,7.34904 L8.20896,11.10424 C7.87856,11.43464 7.87856,11.9701067 8.20896,12.30024 C8.37429333,12.4653067 8.59056,12.5479733 8.80709333,12.5479733 C9.02336,12.5479733 9.23989333,12.4653067 9.40496,12.30024 L14.6036267,7.10130667 C14.62336,7.08184 14.6420267,7.06104 14.6596267,7.03944 C14.6676267,7.02984 14.6748267,7.01944 14.6822933,7.00930667 C14.69136,6.99730667 14.7004267,6.98557333 14.70896,6.97304 Z" id="Fill-1"></path></g></g></svg> 