<?xml version="1.0" encoding="UTF-8"?> <svg xmlns="http://www.w3.org/2000/svg" xmlns:xlink="http://www.w3.org/1999/xlink" width="198px" height="219px" viewBox="0 0 198 219" version="1.1"><title>B055ADC4-C542-43B5-8560-EBEFCC532C13@1x</title><defs><radialGradient cx="50%" cy="50%" fx="50%" fy="50%" r="50%" id="radialGradient-1"><stop stop-color="#93DBFF" offset="0%"></stop><stop stop-color="#F1FBFF" offset="100%"></stop></radialGradient><filter id="filter-2"><feColorMatrix in="SourceGraphic" type="matrix" values="0 0 0 0 0.007843 0 0 0 0 0.309804 0 0 0 0 0.443137 0 0 0 1.000000 0"></feColorMatrix></filter><filter id="filter-3"><feColorMatrix in="SourceGraphic" type="matrix" values="0 0 0 0 0.007843 0 0 0 0 0.309804 0 0 0 0 0.443137 0 0 0 1.000000 0"></feColorMatrix></filter><filter id="filter-4"><feColorMatrix in="SourceGraphic" type="matrix" values="0 0 0 0 0.008870 0 0 0 0 0.310302 0 0 0 0 0.444577 0 0 0 1.000000 0"></feColorMatrix></filter></defs><g id="Product-Update-1.21" stroke="none" stroke-width="1" fill="none" fill-rule="evenodd"><g id="/Products/Spektra" transform="translate(-852.000000, -2243.000000)"><g id="Group-17" transform="translate(0.000000, 1561.000000)"><g id="Feature2_Cluster-Lifecycle" transform="translate(741.000000, 682.779550)"><g id="Ico/security" transform="translate(111.000000, 0.000000)"><circle id="Oval-Copy-5" fill="url(#radialGradient-1)" opacity="0.501635174" cx="99" cy="99" r="99"></circle><circle id="Oval" stroke="#2492C3" stroke-width="4" fill="#FFFFFF" transform="translate(99.000000, 99.000000) rotate(-330.000000) translate(-99.000000, -99.000000) " cx="99" cy="99" r="64"></circle><path id="Path-5-Copy-5" d="M99,162 L99,216.278 L102.5,216.278091 L102.5,217.278091 L94.5,217.278091 L94.5,216.278091 L98,216.278 L98,162 L99,162 Z" fill="#024F71" fill-rule="nonzero"></path><g id="Ico/distrib-storage-dk-blue-Copy-4" transform="translate(61.000000, 64.000000)"><g id="Group-14" transform="translate(0.000000, 2.000000)"><g id="ico/cluster-lifecycle" filter="url(#filter-2)"><g><path d="M71.9975745,36.1609787 L68.321234,30.6310213 C68.0766003,30.263123 67.6440153,30.0663928 67.2059545,30.1238166 C66.7678937,30.1812403 66.4006302,30.4828195 66.2590851,30.9013404 L64.1042553,37.1804681 C63.9000014,37.7861388 64.2248757,38.4427997 64.8302553,38.6479149 C64.9486233,38.6932643 65.0742224,38.7168142 65.2009787,38.7174255 C65.6935751,38.7193245 66.1335058,38.4095142 66.2977021,37.9450851 L66.4135532,37.6052553 C64.2163817,52.549279 51.4046694,63.6293236 36.3,63.6485745 C35.6601722,63.6485745 35.1414894,64.1672573 35.1414894,64.8070851 C35.1414894,65.4469129 35.6601722,65.9655957 36.3,65.9655957 C53.392168,65.9383595 67.5986331,52.7905736 68.9468298,35.7516383 L70.0667234,37.4430638 C70.4207614,37.9762536 71.1400017,38.1214848 71.6731915,37.7674468 C72.2063813,37.4134088 72.3516125,36.6941685 71.9975745,36.1609787 L71.9975745,36.1609787 Z" id="Path" fill="#000000" fill-rule="nonzero"></path><path d="M7.76974468,29.1017872 C7.47994226,29.0011885 7.16196901,29.0204616 6.8864386,29.1553265 C6.61090819,29.2901914 6.40062873,29.5294841 6.30229787,29.8200638 L5.97019149,30.7854894 C7.25218395,14.9790331 20.4416594,2.79715699 36.3,2.77270213 C36.9398278,2.77270213 37.4585106,2.25401925 37.4585106,1.61419149 C37.4585106,0.974363731 36.9398278,0.455680851 36.3,0.455680851 C18.7360265,0.47385123 4.30789547,14.3331678 3.58365957,31.8822128 L2.5332766,30.3375319 C2.17923856,29.8043421 1.45999831,29.6591109 0.926808524,30.013149 C0.393618734,30.367187 0.248387522,31.0864272 0.602425532,31.619617 L4.27876596,37.1495745 C4.49355832,37.4729121 4.85601249,37.6670426 5.24419149,37.6670426 L5.40638298,37.6670426 C5.84358252,37.6098758 6.21116294,37.3110299 6.3563617,36.8947021 L8.49574468,30.569234 C8.69999865,29.9635633 8.37512429,29.3069024 7.76974468,29.1017872 Z" id="Path" fill="#000000" fill-rule="nonzero"></path></g></g><g filter="url(#filter-3)" id="Group-13"><g transform="translate(12.000000, 9.000000)"><g id="Ico/cluster-blue" transform="translate(8.000000, 7.186194)" filter="url(#filter-4)"><g transform="translate(17.000000, 17.000000) rotate(45.000000) translate(-17.000000, -17.000000) "><path d="M28.5917873,1.54545455 C27.8798876,1.54545455 27.30264,2.12153125 27.30264,2.83343091 L27.30264,2.83343091 L27.30264,5.40821274 C27.30264,5.50305464 27.313178,5.59555476 27.3330831,5.6857131 L27.3330831,5.6857131 L18.2341155,14.4228764 L17.9659823,14.4228764 L17.9659823,6.69618911 L18.2891472,6.69618911 C18.999876,6.69618911 19.5759527,6.12011241 19.5759527,5.40821274 L19.5759527,5.40821274 L19.5759527,2.83343091 C19.5759527,2.12153125 18.999876,1.54545455 18.2891472,1.54545455 L18.2891472,1.54545455 L15.7131945,1.54545455 C15.0024658,1.54545455 14.4240473,2.12153125 14.4240473,2.83343091 L14.4240473,2.83343091 L14.4240473,5.40821274 C14.4240473,6.12011241 15.0024658,6.69618911 15.7131945,6.69618911 L15.7131945,6.69618911 L16.0351886,6.69618911 L16.0351886,14.4228764 L15.7658845,14.4228764 L6.66691692,5.6857131 C6.68799289,5.59555476 6.69735999,5.50305464 6.69735999,5.40821274 L6.69735999,5.40821274 L6.69735999,2.83343091 C6.69735999,2.12153125 6.12128329,1.54545455 5.41055452,1.54545455 L5.41055452,1.54545455 L2.83343091,1.54545455 C2.12270213,1.54545455 1.54545455,2.12153125 1.54545455,2.83343091 L1.54545455,2.83343091 L1.54545455,5.40821274 C1.54545455,6.12011241 2.12270213,6.69618911 2.83343091,6.69618911 L2.83343091,6.69618911 L4.92814883,6.69618911 L14.4088257,15.7963275 L6.69735999,15.7963275 L6.69735999,15.7120236 C6.69735999,15.0012949 6.12128329,14.4240473 5.41055452,14.4240473 L5.41055452,14.4240473 L2.83343091,14.4240473 C2.12270213,14.4240473 1.54545455,15.0012949 1.54545455,15.7120236 L1.54545455,15.7120236 L1.54545455,18.2868055 C1.54545455,18.9975342 2.12270213,19.5759527 2.83343091,19.5759527 L2.83343091,19.5759527 L5.41055452,19.5759527 C6.12128329,19.5759527 6.69735999,18.9975342 6.69735999,18.2868055 L6.69735999,18.2868055 L6.69735999,17.729463 L14.4228764,17.729463 L14.4228764,18.1861091 L4.92814883,27.3014691 L2.83343091,27.3014691 C2.12270213,27.3014691 1.54545455,27.8798876 1.54545455,28.5906164 L1.54545455,28.5906164 L1.54545455,31.1653982 C1.54545455,31.876127 2.12270213,32.4545455 2.83343091,32.4545455 L2.83343091,32.4545455 L5.41055452,32.4545455 C6.12128329,32.4545455 6.69735999,31.876127 6.69735999,31.1653982 L6.69735999,31.1653982 L6.69735999,28.5906164 C6.69735999,28.4957745 6.68799289,28.4032744 6.66691692,28.313116 L6.66691692,28.313116 L15.7658845,19.5747818 L16.0351886,19.5747818 L16.0351886,27.3014691 L15.7131945,27.3014691 C15.0024658,27.3014691 14.4240473,27.8798876 14.4240473,28.5906164 L14.4240473,28.5906164 L14.4240473,31.1653982 C14.4240473,31.876127 15.0024658,32.4545455 15.7131945,32.4545455 L15.7131945,32.4545455 L18.2891472,32.4545455 C18.999876,32.4545455 19.5759527,31.876127 19.5759527,31.1653982 L19.5759527,31.1653982 L19.5759527,28.5906164 C19.5759527,27.8798876 18.999876,27.3014691 18.2891472,27.3014691 L18.2891472,27.3014691 L17.9659823,27.3014691 L17.9659823,19.5747818 L18.2341155,19.5747818 L27.3330831,28.313116 C27.313178,28.4032744 27.30264,28.4957745 27.30264,28.5906164 L27.30264,28.5906164 L27.30264,31.1653982 C27.30264,31.876127 27.8798876,32.4545455 28.5917873,32.4545455 L28.5917873,32.4545455 L31.16774,32.4545455 C31.8784688,32.4545455 32.4545455,31.876127 32.4545455,31.1653982 L32.4545455,31.1653982 L32.4545455,28.5906164 C32.4545455,27.8798876 31.8784688,27.3014691 31.16774,27.3014691 L31.16774,27.3014691 L29.0706803,27.3014691 L19.5759527,18.1861091 L19.5759527,17.729463 L27.30264,17.729463 L27.30264,18.2868055 C27.30264,18.9975342 27.8798876,19.5759527 28.5917873,19.5759527 L28.5917873,19.5759527 L31.16774,19.5759527 C31.8784688,19.5759527 32.4545455,18.9975342 32.4545455,18.2868055 L32.4545455,18.2868055 L32.4545455,15.7120236 C32.4545455,15.0012949 31.8784688,14.4240473 31.16774,14.4240473 L31.16774,14.4240473 L28.5917873,14.4240473 C27.8798876,14.4240473 27.30264,15.0012949 27.30264,15.7120236 L27.30264,15.7120236 L27.30264,15.7963275 L19.5911743,15.7963275 L29.0706803,6.69618911 L31.16774,6.69618911 C31.8784688,6.69618911 32.4545455,6.12011241 32.4545455,5.40821274 L32.4545455,5.40821274 L32.4545455,2.83343091 C32.4545455,2.12153125 31.8784688,1.54545455 31.16774,1.54545455 L31.16774,1.54545455 L28.5917873,1.54545455 Z" id="Path" fill="#2492C3"></path><circle id="Oval" fill="#2492C3" cx="17" cy="3.86363636" r="3.86363636"></circle><circle id="Oval-Copy-6" fill="#2492C3" cx="17" cy="30.1363636" r="3.86363636"></circle><circle id="Oval-Copy" fill="#2492C3" cx="30.1363636" cy="3.86363636" r="3.86363636"></circle><circle id="Oval-Copy-4" fill="#2492C3" cx="30.1363636" cy="17" r="3.86363636"></circle><circle id="Oval-Copy-7" fill="#2492C3" cx="30.1363636" cy="30.1363636" r="3.86363636"></circle><circle id="Oval-Copy-2" fill="#2492C3" cx="3.86363636" cy="3.86363636" r="3.86363636"></circle><circle id="Oval-Copy-5" fill="#2492C3" cx="3.86363636" cy="17" r="3.86363636"></circle><circle id="Oval-Copy-8" fill="#2492C3" cx="3.86363636" cy="30.1363636" r="3.86363636"></circle></g></g></g></g></g></g></g></g></g></g></g></svg> 