<?xml version="1.0" encoding="UTF-8"?> <svg xmlns="http://www.w3.org/2000/svg" xmlns:xlink="http://www.w3.org/1999/xlink" width="198px" height="219px" viewBox="0 0 198 219" version="1.1"><title>3583312A-3F90-410F-82DB-FF0A9B1F163C@1x</title><defs><radialGradient cx="50%" cy="50%" fx="50%" fy="50%" r="50%" id="radialGradient-1"><stop stop-color="#93DBFF" offset="0%"></stop><stop stop-color="#F1FBFF" offset="100%"></stop></radialGradient></defs><g id="Product-Update-1.21" stroke="none" stroke-width="1" fill="none" fill-rule="evenodd"><g id="/Products/Spektra" transform="translate(-871.000000, -3251.000000)"><g id="Group-17" transform="translate(0.000000, 1561.000000)"><g id="Group-56" transform="translate(752.000000, 1690.779550)"><g id="Data-Svc-Hybrid-Cloud-icon" transform="translate(119.000000, 0.000000)"><circle id="Oval-Copy-5" fill="url(#radialGradient-1)" opacity="0.501635174" cx="99" cy="99" r="99"></circle><path id="Path-5-Copy-5" d="M99,162 L99,216.278 L102.5,216.278091 L102.5,217.278091 L94.5,217.278091 L94.5,216.278091 L98,216.278 L98,162 L99,162 Z" fill="#024F71" fill-rule="nonzero"></path><circle id="Oval" stroke="#2492C3" stroke-width="4" fill="#FFFFFF" transform="translate(99.000000, 103.000000) rotate(-330.000000) translate(-99.000000, -103.000000) " cx="99" cy="103" r="64"></circle><g id="ico/Data-Svc-Hybrid-Cloud" transform="translate(58.000000, 67.000000)" stroke="#024F71"><path d="M72.315,20.088168 L69.84,20.088168 C70.005,19.0948216 70.17,18.0186964 70.17,16.9425711 C70.17,7.67133825 62.6625,0.138461538 53.4225,0.138461538 C45.8325,0.138461538 39.48,5.1879723 37.4175,12.141397 C37.0875,12.3069547 36.7575,12.5552913 36.51,12.8036279 C35.685,11.7275026 34.6125,10.899714 33.2925,10.4858197 C33.21,10.4858197 33.21,10.4858197 33.1275,10.4030408 C32.88,10.3202619 32.6325,10.2374831 32.3025,10.1547042 C31.89,10.0719253 31.56,10.0719253 31.1475,10.0719253 C27.3525,10.0719253 24.3,13.1347433 24.3,16.8597923 C24.3,17.1081289 24.3,17.4392443 24.3825,17.6875809 C23.5575,17.8531386 22.7325,18.1842541 22.0725,18.6809273 C22.0725,18.5981484 22.0725,18.5153696 21.99,18.4325907 C17.535,20.4192835 14.4,24.8893422 14.4,30.0216318 C14.4,36.8922776 19.9275,42.4384615 26.775,42.4384615 L34.2,42.4384615 L45.3375,42.4384615 L53.505,42.4384615 L70.0875,42.4384615 L72.5625,42.4384615 C78.75,42.4384615 83.7,37.4717296 83.7,31.2633148 C83.7,25.0548999 78.75,20.088168 72.5625,20.088168 L72.315,20.088168 Z" id="Path-Copy-2" stroke-width="1.8" fill-opacity="0.302339" fill="#024F71" stroke-linecap="round" stroke-dasharray="0.9,5.4"></path><path d="M63.2089286,41.5128556 L60.5076923,41.5128556 C60.6877747,40.4317176 60.8678571,39.2604847 60.8678571,38.0892518 C60.8678571,27.9986301 52.6741071,19.8 42.5894918,19.8 C34.3057005,19.8 27.3725275,25.295785 25.1214973,32.8637513 C24.7613324,33.043941 24.4011676,33.3142255 24.131044,33.58451 C23.2306319,32.4132771 22.0600962,31.5123288 20.6194368,31.0618546 C20.5293956,31.0618546 20.5293956,31.0618546 20.4393544,30.9717597 C20.1692308,30.8816649 19.8991071,30.7915701 19.5389423,30.7014752 C19.0887363,30.6113804 18.7285714,30.6113804 18.2783654,30.6113804 C14.1364698,30.6113804 10.8049451,33.9448894 10.8049451,37.999157 C10.8049451,38.2694415 10.8049451,38.6298209 10.8949863,38.9001054 C9.99457418,39.080295 9.09416209,39.4406744 8.37383242,39.9812434 C8.37383242,39.8911486 8.37383242,39.8010537 8.28379121,39.7109589 C3.42156593,41.873235 0,46.7383562 0,52.324236 C0,59.8021075 6.03276099,65.8384615 13.5061813,65.8384615 L21.6098901,65.8384615 L33.7654533,65.8384615 L42.679533,65.8384615 L60.7778159,65.8384615 L63.4790522,65.8384615 C70.2321429,65.8384615 75.6346154,60.4327713 75.6346154,53.6756586 C75.6346154,46.9185458 70.2321429,41.5128556 63.4790522,41.5128556 L63.2089286,41.5128556 Z" id="Path" stroke-width="2.43" fill="#FFFFFF" stroke-linecap="round" stroke-dasharray="0.9,5.4"></path><path d="M41.843268,43.577775 L34.0830658,37.1815763 C33.5535112,36.7442508 32.7736731,36.8251972 32.3427471,37.3628103 C31.9111141,37.899707 31.9913604,38.6894717 32.521622,39.1260809 L37.581025,43.2966116 L22.8372771,43.2966116 C22.1539466,43.2966116 21.6,43.8578639 21.6,44.5502064 C21.6,45.2425489 22.1539466,45.8038012 22.8372771,45.8038012 L37.581025,45.8038012 L32.521622,49.9739738 C31.9913604,50.4109412 31.9111141,51.2003477 32.3427471,51.7372444 C32.587021,52.0420471 32.9433568,52.2 33.3028742,52.2 C33.5775497,52.2 33.8536393,52.1079503 34.0830658,51.9188366 L41.843268,45.5226378 C42.1320838,45.2844548 42.3,44.9273594 42.3,44.5502064 C42.3,44.1730535 42.1320838,43.8159581 41.843268,43.577775" id="Fill-1" stroke-width="0.25" fill="#024F71"></path><path d="M57.2627229,50.4964412 L42.518975,50.4964412 L47.578378,46.3261888 C48.1082861,45.8892131 48.1888859,45.0997914 47.7576064,44.5628844 C47.3263269,44.025261 46.5464888,43.9443131 46.0169342,44.3812888 L38.2563785,50.77761 C37.9675627,51.0157976 37.8,51.3728998 37.8,51.75006 C37.8,52.1272202 37.9675627,52.4843224 38.2563785,52.72251 L46.0169342,59.1188312 C46.2463607,59.3079486 46.5224503,59.4 46.7971258,59.4 C47.1562897,59.4 47.512979,59.242044 47.7576064,58.9372356 C48.1888859,58.4003286 48.1082861,57.6109069 47.578378,57.1739312 L42.518975,53.0036788 L57.2627229,53.0036788 C57.9460534,53.0036788 58.5,52.4424157 58.5,51.75006 C58.5,51.0577042 57.9460534,50.4964412 57.2627229,50.4964412" id="Fill-4" stroke-width="0.25" fill="#024F71"></path></g></g></g></g></g></g></svg> 