<?xml version="1.0" encoding="UTF-8"?> <svg xmlns="http://www.w3.org/2000/svg" xmlns:xlink="http://www.w3.org/1999/xlink" width="150px" height="22px" viewBox="0 0 150 22" version="1.1"><title>84C86454-E2FA-49EC-A42F-2F0755E5276B</title><defs><filter id="filter-1"><feColorMatrix in="SourceGraphic" type="matrix" values="0 0 0 0 1.000000 0 0 0 0 1.000000 0 0 0 0 1.000000 0 0 0 1.000000 0"></feColorMatrix></filter></defs><g id="Product-Update-12.20" stroke="none" stroke-width="1" fill="none" fill-rule="evenodd"><g id="/Products/Ultima-Offload" transform="translate(-250.000000, -6367.000000)"><g id="FOOTER-1440w" transform="translate(0.000000, 5383.000000)"><g id="Footer-logo" transform="translate(121.000000, 214.000000)" filter="url(#filter-1)"><g transform="translate(129.000000, 770.500000)" id="diamanti-logo-green" fill="#93D500" fill-rule="nonzero"><path d="M34.6402589,16 L27,16 L29.4504694,3 L36.9859803,3 C40.3442661,3 42.69951,3.7908867 43.9787058,5.35344828 C44.8801738,6.45172414 45.194418,7.90541872 44.883348,9.55123153 C44.2961241,12.6699507 41.296521,16 34.6402589,16 Z M31.7549264,12.4842365 L35.00529,12.4842365 C38.281047,12.4842365 40.0585896,11.4916256 40.4426657,9.44876847 C40.5918524,8.65788177 40.4871043,8.0591133 40.1188991,7.61403941 C39.5316752,6.89679803 38.2239117,6.53497537 36.2305247,6.53497537 L32.8754131,6.53497537 L31.7549264,12.4842365 Z" id="Shape"></path><polygon id="Path" points="48.7525473 16 45 16 47.2474527 3 51 3"></polygon><path d="M69,16 L64.3344862,16 L63.395751,13.2209102 L56.5930501,13.2209102 L54.6029315,16 L50,16 L59.3310277,3 L64.5097167,3 L69,16 Z M58.6582675,10.1699877 L62.4726614,10.1699877 L61.3461792,6.53062731 L61.1834651,6.53062731 L58.6582675,10.1699877 Z" id="Shape"></path><polygon id="Path" points="88.5754206 16 84.5668663 16 86.0253778 8.18078818 79.8368976 16 77.7197035 16 74.4607927 8.10073892 72.9897348 16 69 16 71.4214428 3 76.8602794 3 79.8902196 10.3100985 85.6270317 3 91 3"></polygon><path d="M108,16 L103.335254,16 L102.396674,13.2209102 L95.595093,13.2209102 L93.6053022,16 L89,16 L98.3294912,3 L103.507328,3 L108,16 Z M97.6599704,10.1699877 L101.473736,10.1699877 L100.347439,6.53062731 L100.184752,6.53062731 L97.6599704,10.1699877 Z" id="Shape"></path><polygon id="Path" points="125.5101 16 121.052792 16 114.718384 7.77093596 113.141232 16 109 16 111.4899 3 116.501952 3 122.400951 10.7135468 123.878119 3 128 3"></polygon><polygon id="Path" points="136.427925 16 132.279631 16 134.079894 6.53497537 128 6.53497537 128.672696 3 145 3 144.327304 6.53497537 138.228189 6.53497537"></polygon><polygon id="Path" points="147.752547 16 144 16 146.247453 3 150 3"></polygon><polygon id="Path" points="12.5 21 0 5.47170088 4.40218727 0 15.1357827 0 19.4089457 5.24384164 12.4354878 13.8778592 10.3741706 11.3190616 15.1880069 5.34237537 13.5936348 3.29164223 5.87367904 3.29164223 4.11956255 5.4686217 12.496928 15.8793255 20.8773654 5.4686217 16.5089703 0 20.5978127 0 25 5.4686217"></polygon></g></g></g></g></g></svg> 