<?xml version="1.0" encoding="UTF-8"?> <svg xmlns="http://www.w3.org/2000/svg" xmlns:xlink="http://www.w3.org/1999/xlink" width="198px" height="219px" viewBox="0 0 198 219" version="1.1"><title>A4EB9C16-5F9A-419E-8A36-D990E4A0F916@1x</title><defs><radialGradient cx="50%" cy="50%" fx="50%" fy="50%" r="50%" id="radialGradient-1"><stop stop-color="#93DBFF" offset="0%"></stop><stop stop-color="#F1FBFF" offset="100%"></stop></radialGradient></defs><g id="Product-Update-1.21" stroke="none" stroke-width="1" fill="none" fill-rule="evenodd"><g id="/Products/Spektra" transform="translate(-871.000000, -2747.000000)"><g id="Group-17" transform="translate(0.000000, 1561.000000)"><g id="Feature4_Ent-Access-Controls" transform="translate(752.000000, 1186.779550)"><g id="Enterprise-Access-Icon" transform="translate(119.000000, 0.000000)"><circle id="Oval-Copy-5" fill="url(#radialGradient-1)" opacity="0.501635174" cx="99" cy="99" r="99"></circle><circle id="Oval" stroke="#2492C3" stroke-width="4" fill="#FFFFFF" transform="translate(99.000000, 99.000000) rotate(-330.000000) translate(-99.000000, -99.000000) " cx="99" cy="99" r="64"></circle><path id="Path-5-Copy-5" d="M99,162 L99,216.278 L102.5,216.278091 L102.5,217.278091 L94.5,217.278091 L94.5,216.278091 L98,216.278 L98,162 L99,162 Z" fill="#024F71" fill-rule="nonzero"></path><g id="Ico/Enterprise-Access-Controls" transform="translate(60.000000, 58.000000)"><g id="Group-17" transform="translate(22.000000, 24.000000)"><circle id="Oval" fill="#024F71" cx="17" cy="17" r="17"></circle><path d="M17.3461538,9 C19.2909429,9 20.8604218,10.5694789 20.8604218,12.514268 L20.8604218,14.1861042 L22.7028536,14.1861042 C23.2487593,14.1861042 23.6923077,14.5614144 23.6923077,15.073201 L23.6581886,22.3405707 C23.6581886,22.8864764 23.2828784,23.3300248 22.7710918,23.3300248 L11.955335,23.3300248 C11.4776675,23.3300248 11.0682382,22.8864764 11.0682382,22.3405707 L11,15.073201 C11,14.5955335 11.4435484,14.1861042 11.9894541,14.1861042 L13.8318859,14.1861042 L13.8318859,12.514268 C13.8318859,10.5694789 15.4013648,9 17.3461538,9 Z M17.380273,19.0992556 C16.7395952,19.0992556 16.2202233,19.6186275 16.2202233,20.2593052 C16.2202233,20.8999829 16.7395952,21.4193548 17.380273,21.4193548 C18.0209507,21.4193548 18.5403226,20.8999829 18.5403226,20.2593052 C18.5403226,19.6186275 18.0209507,19.0992556 17.380273,19.0992556 Z M17.380273,10.9447891 C16.5272953,10.9447891 15.810794,11.6612903 15.810794,12.514268 L15.810794,14.1861042 L18.9497519,14.1861042 L18.9497519,12.514268 C18.9497519,11.6612903 18.2332506,10.9447891 17.380273,10.9447891 Z" id="Combined-Shape" fill="#FFFFFF" fill-rule="nonzero"></path></g><g id="noun_avatar_688877-(1)" transform="translate(31.723077, 0.000000)" fill="#024F71" fill-rule="nonzero"><path d="M10.345641,6.67333333 L8.72666667,6.67333333 L6.91025641,10.5035897 L5.09384615,6.67333333 L3.94871795,6.67333333 C2.44820513,6.67333333 1.22410256,8.13435897 1.22410256,9.95076923 L0.236923077,17.3348718 C0.157948718,17.8876923 0.592307692,18.4010256 1.10564103,18.4010256 L13.0702564,18.4010256 C13.6230769,18.4010256 14.0179487,17.8876923 13.9389744,17.3348718 L13.0307692,9.95076923 C13.0307692,8.13435897 11.8066667,6.67333333 10.345641,6.67333333 Z" id="Path"></path><ellipse id="Oval" cx="6.87076923" cy="3.39589744" rx="3.00102564" ry="3.2774359"></ellipse></g><g id="noun_avatar_688877-(1)-copy-2" transform="translate(62.723077, 30.000000)" fill="#024F71" fill-rule="nonzero"><path d="M10.345641,6.67333333 L8.72666667,6.67333333 L6.91025641,10.5035897 L5.09384615,6.67333333 L3.94871795,6.67333333 C2.44820513,6.67333333 1.22410256,8.13435897 1.22410256,9.95076923 L0.236923077,17.3348718 C0.157948718,17.8876923 0.592307692,18.4010256 1.10564103,18.4010256 L13.0702564,18.4010256 C13.6230769,18.4010256 14.0179487,17.8876923 13.9389744,17.3348718 L13.0307692,9.95076923 C13.0307692,8.13435897 11.8066667,6.67333333 10.345641,6.67333333 Z" id="Path"></path><ellipse id="Oval" cx="6.87076923" cy="3.39589744" rx="3.00102564" ry="3.2774359"></ellipse></g><g id="noun_avatar_688877-(1)-copy-3" transform="translate(0.723077, 30.000000)" fill="#024F71" fill-rule="nonzero"><path d="M10.345641,6.67333333 L8.72666667,6.67333333 L6.91025641,10.5035897 L5.09384615,6.67333333 L3.94871795,6.67333333 C2.44820513,6.67333333 1.22410256,8.13435897 1.22410256,9.95076923 L0.236923077,17.3348718 C0.157948718,17.8876923 0.592307692,18.4010256 1.10564103,18.4010256 L13.0702564,18.4010256 C13.6230769,18.4010256 14.0179487,17.8876923 13.9389744,17.3348718 L13.0307692,9.95076923 C13.0307692,8.13435897 11.8066667,6.67333333 10.345641,6.67333333 Z" id="Path"></path><ellipse id="Oval" cx="6.87076923" cy="3.39589744" rx="3.00102564" ry="3.2774359"></ellipse></g><g id="noun_avatar_688877-(1)-copy" transform="translate(31.723077, 62.000000)" fill="#024F71" fill-rule="nonzero"><path d="M10.345641,6.67333333 L8.72666667,6.67333333 L6.91025641,10.5035897 L5.09384615,6.67333333 L3.94871795,6.67333333 C2.44820513,6.67333333 1.22410256,8.13435897 1.22410256,9.95076923 L0.236923077,17.3348718 C0.157948718,17.8876923 0.592307692,18.4010256 1.10564103,18.4010256 L13.0702564,18.4010256 C13.6230769,18.4010256 14.0179487,17.8876923 13.9389744,17.3348718 L13.0307692,9.95076923 C13.0307692,8.13435897 11.8066667,6.67333333 10.345641,6.67333333 Z" id="Path"></path><ellipse id="Oval" cx="6.87076923" cy="3.39589744" rx="3.00102564" ry="3.2774359"></ellipse></g></g></g></g></g></g></g></svg> 