<?xml version="1.0" encoding="UTF-8"?> <svg xmlns="http://www.w3.org/2000/svg" xmlns:xlink="http://www.w3.org/1999/xlink" width="198px" height="219px" viewBox="0 0 198 219" version="1.1"><title>4183C861-3F2C-417B-9B43-6B7DDBAC2172@1x</title><defs><radialGradient cx="50%" cy="50%" fx="50%" fy="50%" r="50%" id="radialGradient-1"><stop stop-color="#93DBFF" offset="0%"></stop><stop stop-color="#F1FBFF" offset="100%"></stop></radialGradient></defs><g id="Product-Update-1.21" stroke="none" stroke-width="1" fill="none" fill-rule="evenodd"><g id="/Products/Spektra" transform="translate(-380.000000, -2747.000000)"><g id="Group-17" transform="translate(0.000000, 1561.000000)"><g id="ico/application-lifecycle" transform="translate(380.000000, 1186.779550)"><circle id="Oval-Copy-5" fill="url(#radialGradient-1)" opacity="0.501635174" cx="99" cy="99" r="99"></circle><circle id="Oval" stroke="#2492C3" stroke-width="4" fill="#FFFFFF" transform="translate(99.000000, 99.000000) rotate(-330.000000) translate(-99.000000, -99.000000) " cx="99" cy="99" r="64"></circle><g id="Ico/application-lifecycle" transform="translate(61.000000, 64.000000)" fill="#024F71"><path d="M71.9975745,38.1609787 L68.321234,32.6310213 C68.0766003,32.263123 67.6440153,32.0663928 67.2059545,32.1238166 C66.7678937,32.1812403 66.4006302,32.4828195 66.2590851,32.9013404 L64.1042553,39.1804681 C63.9000014,39.7861388 64.2248757,40.4427997 64.8302553,40.6479149 C64.9486233,40.6932643 65.0742224,40.7168142 65.2009787,40.7174255 C65.6935751,40.7193245 66.1335058,40.4095142 66.2977021,39.9450851 L66.4135532,39.6052553 C64.2163817,54.549279 51.4046694,65.6293236 36.3,65.6485745 C35.6601722,65.6485745 35.1414894,66.1672573 35.1414894,66.8070851 C35.1414894,67.4469129 35.6601722,67.9655957 36.3,67.9655957 C53.392168,67.9383595 67.5986331,54.7905736 68.9468298,37.7516383 L70.0667234,39.4430638 C70.4207614,39.9762536 71.1400017,40.1214848 71.6731915,39.7674468 C72.2063813,39.4134088 72.3516125,38.6941685 71.9975745,38.1609787 L71.9975745,38.1609787 Z" id="Path" fill-rule="nonzero"></path><path d="M7.76974468,31.1017872 C7.47994226,31.0011885 7.16196901,31.0204616 6.8864386,31.1553265 C6.61090819,31.2901914 6.40062873,31.5294841 6.30229787,31.8200638 L5.97019149,32.7854894 C7.25218395,16.9790331 20.4416594,4.79715699 36.3,4.77270213 C36.9398278,4.77270213 37.4585106,4.25401925 37.4585106,3.61419149 C37.4585106,2.97436373 36.9398278,2.45568085 36.3,2.45568085 C18.7360265,2.47385123 4.30789547,16.3331678 3.58365957,33.8822128 L2.5332766,32.3375319 C2.17923856,31.8043421 1.45999831,31.6591109 0.926808524,32.013149 C0.393618734,32.367187 0.248387522,33.0864272 0.602425532,33.619617 L4.27876596,39.1495745 C4.49355832,39.4729121 4.85601249,39.6670426 5.24419149,39.6670426 L5.40638298,39.6670426 C5.84358252,39.6098758 6.21116294,39.3110299 6.3563617,38.8947021 L8.49574468,32.569234 C8.69999865,31.9635633 8.37512429,31.3069024 7.76974468,31.1017872 Z" id="Path" fill-rule="nonzero"></path><g id="Group-10-Copy-2" transform="translate(18.432836, 18.000000)"><path d="M19.2509447,21.3268612 C19.1196991,21.3268612 18.9884535,21.2939528 18.8708344,21.2295365 L0.738141313,11.3143161 C0.491428247,11.1784815 0.339384149,10.9250171 0.339384149,10.6505473 C0.339384149,10.3753774 0.491428247,10.121913 0.738141313,9.9867786 L18.7431748,0.138775276 C18.97913,0.0113428833 19.26744,0.0113428833 19.5033953,0.138775276 L37.6353712,10.0546959 C37.8813671,10.1898302 38.0334112,10.4439948 38.0334112,10.7184646 C38.0334112,10.9929344 37.8813671,11.247099 37.6360884,11.3822333 L19.6317721,21.2295365 C19.5134359,21.2939528 19.3821903,21.3268612 19.2509447,21.3268612 L19.2509447,21.3268612 Z" id="Path"></path><path d="M19.2509447,28.6149828 C19.1204163,28.6149828 18.9884535,28.5813317 18.8708344,28.5161775 L0.738141313,18.3764601 C0.362334201,18.1673938 0.22893702,17.6919826 0.43907344,17.3182408 C0.64849267,16.9437829 1.12255469,16.8098945 1.49836181,17.0196768 L19.2509447,26.946748 L36.8737163,17.089127 C37.2509578,16.8793446 37.7235855,17.013233 37.9337219,17.3884069 C38.1445755,17.7614328 38.0104611,18.2354119 37.6360884,18.4466262 L19.6317721,28.5161775 C19.5134359,28.5813317 19.3829075,28.6149828 19.2509447,28.6149828" id="Fill-4"></path><path d="M19.2509447,35.2336395 C19.1204163,35.2336395 18.9884535,35.2007044 18.8708344,35.1348342 L0.738141313,24.9958327 C0.362334201,24.7860504 0.22893702,24.3106393 0.43907344,23.9376134 C0.64849267,23.5624396 1.12255469,23.4271192 1.49836181,23.6383335 L19.2509447,33.5654047 L36.8737163,23.7077836 C37.2509578,23.5001492 37.7235855,23.6318897 37.9337219,24.0070635 C38.1445755,24.3808054 38.0104611,24.8540686 37.6360884,25.0652829 L19.6317721,35.1348342 C19.5134359,35.2007044 19.3829075,35.2336395 19.2509447,35.2336395" id="Fill-7"></path></g></g><path id="Path-5-Copy-5" d="M99,162 L99,216.278 L102.5,216.278091 L102.5,217.278091 L94.5,217.278091 L94.5,216.278091 L98,216.278 L98,162 L99,162 Z" fill="#024F71" fill-rule="nonzero"></path></g></g></g></g></svg> 