<?xml version="1.0" encoding="UTF-8"?> <svg xmlns="http://www.w3.org/2000/svg" xmlns:xlink="http://www.w3.org/1999/xlink" width="198px" height="219px" viewBox="0 0 198 219" version="1.1"><title>AACF7C4F-25D9-44FE-A558-A1F82171C6A7@1x</title><defs><radialGradient cx="50%" cy="50%" fx="50%" fy="50%" r="50%" id="radialGradient-1"><stop stop-color="#93DBFF" offset="0%"></stop><stop stop-color="#F1FBFF" offset="100%"></stop></radialGradient></defs><g id="Product-Update-1.21" stroke="none" stroke-width="1" fill="none" fill-rule="evenodd"><g id="/Products/Spektra" transform="translate(-852.000000, -2243.000000)"><g id="Group-17" transform="translate(0.000000, 1561.000000)"><g id="Ico/cluster-lifecycle-security" transform="translate(852.000000, 682.779550)"><circle id="Oval-Copy-5" fill="url(#radialGradient-1)" opacity="0.501635174" cx="99" cy="99" r="99"></circle><circle id="Oval" stroke="#2492C3" stroke-width="4" fill="#FFFFFF" transform="translate(99.000000, 99.000000) rotate(-330.000000) translate(-99.000000, -99.000000) " cx="99" cy="99" r="64"></circle><path id="Path-5-Copy-5" d="M99,162 L99,216.278 L102.5,216.278091 L102.5,217.278091 L94.5,217.278091 L94.5,216.278091 L98,216.278 L98,162 L99,162 Z" fill="#024F71" fill-rule="nonzero"></path><g id="Ico/distrib-storage-dk-blue-Copy-4" transform="translate(61.000000, 64.000000)" fill="#024F71"><g id="ico/cluster-lifecycle" transform="translate(0.000000, 2.000000)"><path d="M71.9975745,36.1609787 L68.321234,30.6310213 C68.0766003,30.263123 67.6440153,30.0663928 67.2059545,30.1238166 C66.7678937,30.1812403 66.4006302,30.4828195 66.2590851,30.9013404 L64.1042553,37.1804681 C63.9000014,37.7861388 64.2248757,38.4427997 64.8302553,38.6479149 C64.9486233,38.6932643 65.0742224,38.7168142 65.2009787,38.7174255 C65.6935751,38.7193245 66.1335058,38.4095142 66.2977021,37.9450851 L66.4135532,37.6052553 C64.2163817,52.549279 51.4046694,63.6293236 36.3,63.6485745 C35.6601722,63.6485745 35.1414894,64.1672573 35.1414894,64.8070851 C35.1414894,65.4469129 35.6601722,65.9655957 36.3,65.9655957 C53.392168,65.9383595 67.5986331,52.7905736 68.9468298,35.7516383 L70.0667234,37.4430638 C70.4207614,37.9762536 71.1400017,38.1214848 71.6731915,37.7674468 C72.2063813,37.4134088 72.3516125,36.6941685 71.9975745,36.1609787 L71.9975745,36.1609787 Z" id="Path" fill-rule="nonzero"></path><path d="M7.76974468,29.1017872 C7.47994226,29.0011885 7.16196901,29.0204616 6.8864386,29.1553265 C6.61090819,29.2901914 6.40062873,29.5294841 6.30229787,29.8200638 L5.97019149,30.7854894 C7.25218395,14.9790331 20.4416594,2.79715699 36.3,2.77270213 C36.9398278,2.77270213 37.4585106,2.25401925 37.4585106,1.61419149 C37.4585106,0.974363731 36.9398278,0.455680851 36.3,0.455680851 C18.7360265,0.47385123 4.30789547,14.3331678 3.58365957,31.8822128 L2.5332766,30.3375319 C2.17923856,29.8043421 1.45999831,29.6591109 0.926808524,30.013149 C0.393618734,30.367187 0.248387522,31.0864272 0.602425532,31.619617 L4.27876596,37.1495745 C4.49355832,37.4729121 4.85601249,37.6670426 5.24419149,37.6670426 L5.40638298,37.6670426 C5.84358252,37.6098758 6.21116294,37.3110299 6.3563617,36.8947021 L8.49574468,30.569234 C8.69999865,29.9635633 8.37512429,29.3069024 7.76974468,29.1017872 Z" id="Path" fill-rule="nonzero"></path><path d="M48.4327222,17.5909091 C47.6998843,17.5909091 47.1056588,18.1839292 47.1056588,18.9167671 L47.1056588,18.9167671 L47.1056588,21.5672778 C47.1056588,21.6649092 47.1165068,21.7601299 47.1369973,21.85294 L47.1369973,21.85294 L37.770413,30.8470786 L37.4943935,30.8470786 L37.4943935,22.8931358 L37.8270633,22.8931358 C38.5586959,22.8931358 39.151716,22.3001157 39.151716,21.5672778 L39.151716,21.5672778 L39.151716,18.9167671 C39.151716,18.1839292 38.5586959,17.5909091 37.8270633,17.5909091 L37.8270633,17.5909091 L35.1753473,17.5909091 C34.4437147,17.5909091 33.848284,18.1839292 33.848284,18.9167671 L33.848284,18.9167671 L33.848284,21.5672778 C33.848284,22.3001157 34.4437147,22.8931358 35.1753473,22.8931358 L35.1753473,22.8931358 L35.5068118,22.8931358 L35.5068118,30.8470786 L35.229587,30.8470786 L25.8630027,21.85294 C25.8846986,21.7601299 25.8943412,21.6649092 25.8943412,21.5672778 L25.8943412,21.5672778 L25.8943412,18.9167671 C25.8943412,18.1839292 25.301321,17.5909091 24.5696885,17.5909091 L24.5696885,17.5909091 L21.9167671,17.5909091 C21.1851345,17.5909091 20.5909091,18.1839292 20.5909091,18.9167671 L20.5909091,18.9167671 L20.5909091,21.5672778 C20.5909091,22.3001157 21.1851345,22.8931358 21.9167671,22.8931358 L21.9167671,22.8931358 L24.0730944,22.8931358 L33.8326147,32.2609254 L25.8943412,32.2609254 L25.8943412,32.174142 C25.8943412,31.4425094 25.301321,30.848284 24.5696885,30.848284 L24.5696885,30.848284 L21.9167671,30.848284 C21.1851345,30.848284 20.5909091,31.4425094 20.5909091,32.174142 L20.5909091,32.174142 L20.5909091,34.8246527 C20.5909091,35.5562853 21.1851345,36.151716 21.9167671,36.151716 L21.9167671,36.151716 L24.5696885,36.151716 C25.301321,36.151716 25.8943412,35.5562853 25.8943412,34.8246527 L25.8943412,34.8246527 L25.8943412,34.2509178 L33.8470786,34.2509178 L33.8470786,34.7209947 L24.0730944,44.1044535 L21.9167671,44.1044535 C21.1851345,44.1044535 20.5909091,44.6998843 20.5909091,45.4315169 L20.5909091,45.4315169 L20.5909091,48.0820276 C20.5909091,48.8136601 21.1851345,49.4090909 21.9167671,49.4090909 L21.9167671,49.4090909 L24.5696885,49.4090909 C25.301321,49.4090909 25.8943412,48.8136601 25.8943412,48.0820276 L25.8943412,48.0820276 L25.8943412,45.4315169 C25.8943412,45.3338855 25.8846986,45.2386648 25.8630027,45.1458547 L25.8630027,45.1458547 L35.229587,36.1505107 L35.5068118,36.1505107 L35.5068118,44.1044535 L35.1753473,44.1044535 C34.4437147,44.1044535 33.848284,44.6998843 33.848284,45.4315169 L33.848284,45.4315169 L33.848284,48.0820276 C33.848284,48.8136601 34.4437147,49.4090909 35.1753473,49.4090909 L35.1753473,49.4090909 L37.8270633,49.4090909 C38.5586959,49.4090909 39.151716,48.8136601 39.151716,48.0820276 L39.151716,48.0820276 L39.151716,45.4315169 C39.151716,44.6998843 38.5586959,44.1044535 37.8270633,44.1044535 L37.8270633,44.1044535 L37.4943935,44.1044535 L37.4943935,36.1505107 L37.770413,36.1505107 L47.1369973,45.1458547 C47.1165068,45.2386648 47.1056588,45.3338855 47.1056588,45.4315169 L47.1056588,45.4315169 L47.1056588,48.0820276 C47.1056588,48.8136601 47.6998843,49.4090909 48.4327222,49.4090909 L48.4327222,49.4090909 L51.0844382,49.4090909 C51.8160708,49.4090909 52.4090909,48.8136601 52.4090909,48.0820276 L52.4090909,48.0820276 L52.4090909,45.4315169 C52.4090909,44.6998843 51.8160708,44.1044535 51.0844382,44.1044535 L51.0844382,44.1044535 L48.9257003,44.1044535 L39.151716,34.7209947 L39.151716,34.2509178 L47.1056588,34.2509178 L47.1056588,34.8246527 C47.1056588,35.5562853 47.6998843,36.151716 48.4327222,36.151716 L48.4327222,36.151716 L51.0844382,36.151716 C51.8160708,36.151716 52.4090909,35.5562853 52.4090909,34.8246527 L52.4090909,34.8246527 L52.4090909,32.174142 C52.4090909,31.4425094 51.8160708,30.848284 51.0844382,30.848284 L51.0844382,30.848284 L48.4327222,30.848284 C47.6998843,30.848284 47.1056588,31.4425094 47.1056588,32.174142 L47.1056588,32.174142 L47.1056588,32.2609254 L39.1673853,32.2609254 L48.9257003,22.8931358 L51.0844382,22.8931358 C51.8160708,22.8931358 52.4090909,22.3001157 52.4090909,21.5672778 L52.4090909,21.5672778 L52.4090909,18.9167671 C52.4090909,18.1839292 51.8160708,17.5909091 51.0844382,17.5909091 L51.0844382,17.5909091 L48.4327222,17.5909091 Z" id="Path" transform="translate(36.500000, 33.500000) rotate(45.000000) translate(-36.500000, -33.500000) "></path><circle id="Oval" transform="translate(46.062012, 23.937988) rotate(45.000000) translate(-46.062012, -23.937988) " cx="46.0620122" cy="23.9379878" r="3.97727273"></circle><circle id="Oval-Copy-6" transform="translate(26.937988, 43.062012) rotate(45.000000) translate(-26.937988, -43.062012) " cx="26.9379878" cy="43.0620122" r="3.97727273"></circle><circle id="Oval-Copy" transform="translate(55.624024, 33.500000) rotate(45.000000) translate(-55.624024, -33.500000) " cx="55.6240243" cy="33.5" r="3.97727273"></circle><circle id="Oval-Copy-4" transform="translate(46.062012, 43.062012) rotate(45.000000) translate(-46.062012, -43.062012) " cx="46.0620122" cy="43.0620122" r="3.97727273"></circle><circle id="Oval-Copy-7" transform="translate(36.500000, 52.624024) rotate(45.000000) translate(-36.500000, -52.624024) " cx="36.5" cy="52.6240243" r="3.97727273"></circle><circle id="Oval-Copy-2" transform="translate(36.500000, 14.375976) rotate(45.000000) translate(-36.500000, -14.375976) " cx="36.5" cy="14.3759757" r="3.97727273"></circle><circle id="Oval-Copy-5" transform="translate(26.937988, 23.937988) rotate(45.000000) translate(-26.937988, -23.937988) " cx="26.9379878" cy="23.9379878" r="3.97727273"></circle><circle id="Oval-Copy-8" transform="translate(17.375976, 33.500000) rotate(45.000000) translate(-17.375976, -33.500000) " cx="17.3759757" cy="33.5" r="3.97727273"></circle></g></g></g></g></g></g></svg> 