<?xml version="1.0" encoding="UTF-8"?> <svg xmlns="http://www.w3.org/2000/svg" xmlns:xlink="http://www.w3.org/1999/xlink" width="198px" height="219px" viewBox="0 0 198 219" version="1.1"><title>7683B23A-5BC9-417D-B50C-105ECE8F6CB0@1x</title><defs><radialGradient cx="50%" cy="50%" fx="50%" fy="50%" r="50%" id="radialGradient-1"><stop stop-color="#93DBFF" offset="0%"></stop><stop stop-color="#F1FBFF" offset="100%"></stop></radialGradient></defs><g id="Product-Update-1.21" stroke="none" stroke-width="1" fill="none" fill-rule="evenodd"><g id="/Products/Spektra" transform="translate(-380.000000, -3251.000000)"><g id="Group-17" transform="translate(0.000000, 1561.000000)"><g id="Feature5_Observability" transform="translate(261.000000, 1690.779550)"><g id="Ico/Observability" transform="translate(119.000000, 0.000000)"><circle id="Oval-Copy-4" fill="url(#radialGradient-1)" opacity="0.501635174" cx="99" cy="99" r="99"></circle><g id="Group-16-Copy-4" transform="translate(8.000000, 8.000000)" fill="#FFFFFF" stroke="#2492C3" stroke-width="4"><circle id="Oval" transform="translate(91.000000, 91.000000) rotate(-330.000000) translate(-91.000000, -91.000000) " cx="91" cy="91" r="64"></circle></g><path id="Path-5-Copy-4" d="M99,162 L99,216.278 L102.5,216.278091 L102.5,217.278091 L94.5,217.278091 L94.5,216.278091 L98,216.278 L98,162 L99,162 Z" fill="#024F71" fill-rule="nonzero"></path><g id="noun_platform_137615" transform="translate(65.000000, 70.000000)"><path d="M60.7311628,43.6040233 L48.5834884,37.4530465 L60.0823256,31.5082558 C60.4485581,31.3179302 60.4485581,31.0122558 60.0801628,30.8269767 L47.1120698,24.2614651 L60.7463023,17.2122093 C61.4088372,16.8683256 61.8017442,16.2584186 61.7981395,15.5800233 C61.793814,14.9030698 61.3936977,14.2989302 60.7311628,13.9644186 L34.1403721,0.503209302 C33.6479767,0.254488372 33.1339535,0.201860465 32.7886279,0.201860465 C32.4714186,0.201860465 31.9970465,0.24655814 31.537814,0.461395349 L1.31065116,14.6125349 C0.622883721,14.9347907 0.208348837,15.5374884 0.201783564,16.223814 C0.195372093,16.9108605 0.599813953,17.5214884 1.28253488,17.8574419 L15.8013488,24.996814 L1.92272093,31.4938372 C1.55216279,31.6675814 1.55072093,31.9573953 1.91911628,32.1383488 L14.2426977,38.1984884 L1.31065116,44.2514186 C0.622162791,44.5736744 0.207627907,45.1763721 0.201783564,45.8626977 C0.196093023,46.5497442 0.600534884,47.1603721 1.28253488,47.4948837 L29.7982093,61.5184186 C30.2675349,61.7498372 30.7548837,61.7981395 31.0807442,61.7981395 C31.423907,61.7981395 31.9357674,61.7455116 32.4303256,61.4917442 L60.7477442,46.851093 C61.4102791,46.5072093 61.803186,45.8973023 61.799606,45.218907 C61.793814,44.5426744 61.3944186,43.937814 60.7311628,43.6040233 Z M32.7122093,3.09206977 C32.7194186,3.09062791 32.7475349,3.0855814 32.7886279,3.0855814 C32.8326047,3.0855814 32.8650465,3.09134884 32.8477442,3.08125581 L57.5821395,15.6023721 L31.155,29.2697674 C31.1477907,29.2712093 31.1203953,29.2769767 31.0807442,29.2769767 L31.0706512,29.2921163 L4.58006977,16.2656279 L32.7122093,3.09206977 Z M31.1586047,58.9072093 C31.1506744,58.9093721 31.1218372,58.9144186 31.0800233,58.9144186 L31.0713721,58.931 L4.58151163,45.9037907 L17.1076744,40.0397442 L29.7967674,46.2793953 C30.266814,46.510814 30.7541628,46.5598372 31.0800233,46.5598372 C31.423907,46.5598372 31.9364884,46.5064884 32.4281628,46.2527209 L45.8619767,39.308 L57.5806977,45.2412558 L31.1586047,58.9072093 Z" id="Shape" fill="#024F71" fill-rule="nonzero"></path><g id="magnifying-glass" transform="translate(47.000000, 13.000000)" stroke="#024F71"><g id="Group-32" transform="translate(19.650638, 19.393624) rotate(-46.000000) translate(-19.650638, -19.393624) translate(8.150638, 4.393624)"><circle id="Oval" stroke-width="3" fill="#FFFFFF" cx="11.2933333" cy="11.2933333" r="9.79333333"></circle><line x1="11.8066667" y1="22.5866667" x2="11.5543846" y2="29.5492106" id="Path-2" stroke-width="3.3" stroke-linecap="round"></line></g></g></g></g></g></g></g></g></svg> 