<?xml version="1.0" encoding="UTF-8"?> <svg xmlns="http://www.w3.org/2000/svg" xmlns:xlink="http://www.w3.org/1999/xlink" width="198px" height="219px" viewBox="0 0 198 219" version="1.1"><title>1BCEA125-1B30-4E9C-966B-BECD1ADD5F40@1x</title><defs><radialGradient cx="50%" cy="50%" fx="50%" fy="50%" r="50%" id="radialGradient-1"><stop stop-color="#93DBFF" offset="0%"></stop><stop stop-color="#F1FBFF" offset="100%"></stop></radialGradient></defs><g id="Product-Update-1.21" stroke="none" stroke-width="1" fill="none" fill-rule="evenodd"><g id="/Products/Spektra" transform="translate(-380.000000, -2243.000000)"><g id="Group-17" transform="translate(0.000000, 1561.000000)"><g id="Feature1_Multi-Cluster" transform="translate(261.000000, 682.779550)"><g id="Multi-Cluster-icon" transform="translate(119.000000, 0.000000)"><circle id="Oval-Copy" fill="url(#radialGradient-1)" opacity="0.501635174" cx="99" cy="99" r="99"></circle><circle id="Oval" stroke="#2492C3" stroke-width="4" fill="#FFFFFF" transform="translate(99.000000, 99.000000) rotate(-330.000000) translate(-99.000000, -99.000000) " cx="99" cy="99" r="64"></circle><path id="Path-5-Copy" d="M99,162 L99,216.278 L102.5,216.278091 L102.5,217.278091 L94.5,217.278091 L94.5,216.278091 L98,216.278 L98,162 L99,162 Z" fill="#024F71" fill-rule="nonzero"></path><g id="ico/features/multi-cluster" transform="translate(65.999990, 65.000000)"><path d="M63.5642915,7.92328767 L63.46572,7.92328767 L62.4800058,7.92328767 C62.54572,7.52876712 62.6114343,7.10136986 62.6114343,6.6739726 C62.6114343,2.99178082 59.6214343,-3.64153152e-13 55.9414343,-3.64153152e-13 C52.9185772,-3.64153152e-13 50.3885772,2.00547945 49.5671486,4.76712329 C49.43572,4.83287671 49.3042915,4.93150685 49.20572,5.03013699 C48.8771486,4.60273973 48.4500058,4.2739726 47.9242915,4.10958904 C47.8914343,4.10958904 47.8914343,4.10958904 47.8585772,4.07671233 C47.7600058,4.04383562 47.6614343,4.0109589 47.5300058,3.97808219 C47.36572,3.94520548 47.2342915,3.94520548 47.0700058,3.94520548 C45.5585772,3.94520548 44.3428629,5.16164384 44.3428629,6.64109589 C44.3428629,6.73972603 44.3428629,6.87123288 44.37572,6.96986301 C44.0471486,7.03561644 43.7185772,7.16712329 43.45572,7.36438356 C43.45572,7.33150685 43.45572,7.29863014 43.4228629,7.26575342 C41.6485772,8.05479452 40.4000058,9.83013699 40.4000058,11.8684932 C40.4000058,14.5972603 42.6014343,16.8 45.3285772,16.8 L48.28572,16.8 L52.7214343,16.8 L55.9742915,16.8 L62.5785772,16.8 L63.5642915,16.8 C66.0285772,16.8 68.0000058,14.8273973 68.0000058,12.3616438 C68.0000058,9.89589041 66.0285772,7.92328767 63.5642915,7.92328767 L63.5642915,7.92328767 Z" id="Path" fill="#024F71" transform="translate(54.200006, 8.400000) scale(-1, 1) translate(-54.200006, -8.400000) "></path><path d="M54.0128629,47.9827789 L52.3200058,47.9827789 C52.4328629,47.3064579 52.54572,46.5737769 52.54572,45.8410959 C52.54572,39.5287671 47.41072,34.4 41.09072,34.4 C35.8992915,34.4 31.5542915,37.8379648 30.1435772,42.5722114 C29.9178629,42.6849315 29.6921486,42.8540117 29.5228629,43.023092 C28.9585772,42.290411 28.2250058,41.7268102 27.3221486,41.4450098 C27.26572,41.4450098 27.26572,41.4450098 27.2092915,41.3886497 C27.0400058,41.3322896 26.87072,41.2759295 26.6450058,41.2195695 C26.3628629,41.1632094 26.1371486,41.1632094 25.8550058,41.1632094 C23.2592915,41.1632094 21.1714343,43.2485323 21.1714343,45.7847358 C21.1714343,45.953816 21.1714343,46.1792564 21.2278629,46.3483366 C20.6635772,46.4610568 20.0992915,46.6864971 19.6478629,47.0246575 C19.6478629,46.9682975 19.6478629,46.9119374 19.5914343,46.8555773 C16.5442915,48.2082192 14.4000058,51.2516634 14.4000058,54.7459883 C14.4000058,59.4238748 18.18072,63.2 22.8642915,63.2 L27.9428629,63.2 L35.56072,63.2 L41.1471486,63.2 L52.4892915,63.2 L54.1821486,63.2 C58.4142915,63.2 61.8000058,59.8183953 61.8000058,55.5913894 C61.8000058,51.3643836 58.4142915,47.9827789 54.1821486,47.9827789 L54.0128629,47.9827789 Z" id="Path" stroke="#024F71" stroke-width="3" stroke-linecap="round" stroke-dasharray="1,6"></path><path d="M29.0485786,20.632627 C28.8785482,15.9281146 24.2877285,12.7357669 19.781924,13.9959041 C15.531165,7.69521787 5.58438894,10.2995015 5.24432822,17.9443342 C-2.74709868,20.1285721 -1.21682544,32.0578715 7.19967736,32.0578715 L27.0932294,32.0578715 C33.8094286,32.0578715 35.2546867,22.6488466 29.0485786,20.632627" id="Fill-1-Copy-2" fill="#024F71" transform="translate(16.500000, 21.257871) scale(-1, 1) translate(-16.500000, -21.257871) "></path><line x1="46.2949315" y1="34.4" x2="52.2000058" y2="16.8" id="Path-21" stroke="#024F71" stroke-width="2" stroke-linecap="round" stroke-dasharray="1,3"></line><line x1="19.2949315" y1="42.4" x2="25.2000058" y2="24.8" id="Path-21-Copy" stroke="#024F71" stroke-width="2" stroke-linecap="round" stroke-dasharray="1,3" transform="translate(22.247469, 33.600000) scale(-1, 1) translate(-22.247469, -33.600000) "></line></g></g></g></g></g></g></svg> 