<?xml version="1.0" encoding="UTF-8"?> <svg xmlns="http://www.w3.org/2000/svg" width="80" height="80" viewBox="0 0 80 80"><g fill="none" fill-rule="evenodd"><g fill="#007DB8" fill-rule="nonzero"><g><g><path d="M39.643 74.48c-9.622 0-18.337-3.902-24.646-10.216-6.312-6.3-10.212-15.019-10.212-24.646 0-9.62 3.9-18.333 10.212-24.635 6.31-6.306 15.024-10.216 24.646-10.216 9.625 0 18.344 3.91 24.643 10.216 6.31 6.302 10.202 15.015 10.202 24.635 0 9.627-3.892 18.346-10.202 24.646-6.3 6.314-15.018 10.217-24.643 10.217m0 4.224c21.581 0 39.08-17.501 39.08-39.087C78.723 18.038 61.224.54 39.643.54 18.064.54.559 18.039.559 39.618c0 21.586 17.505 39.087 39.084 39.087" transform="translate(-500 -4543) translate(500 4543) matrix(1 0 0 -1 .228 79.491)"></path></g><g><path d="M10.812 10.812c0 2.277-1.512 3.571-3.651 3.571h-1.31V7.238h1.273c1.99 0 3.688 1.081 3.688 3.574M34.104 8.24L24.457.645l-8.816 6.941c-1.272-3.056-4.346-5.179-7.887-5.179H.21v16.809h7.545c3.956 0 6.807-2.515 7.885-5.196l8.818 6.934 3.267-2.57-8.083-6.353 1.554-1.216 8.08 6.35 3.27-2.564-8.08-6.36 1.55-1.218 8.089 6.36v5.833h5.863V7.314h5.85V2.387H34.103v5.854zm19.14-.93h5.847V2.387H47.375v16.829h5.87V7.311z" transform="translate(-500 -4543) translate(500 4543) matrix(1 0 0 -1 10.575 50.367)"></path></g></g></g></g></svg> 