<?xml version="1.0" encoding="UTF-8"?> <svg xmlns="http://www.w3.org/2000/svg" width="198" height="218" viewBox="0 0 198 218"><defs><radialGradient id="v7hgvyfd7a" cx="50%" cy="50%" r="50%" fx="50%" fy="50%"><stop offset="0%" stop-color="#93DBFF"></stop><stop offset="100%" stop-color="#F1FBFF"></stop></radialGradient></defs><g fill="none" fill-rule="evenodd"><g><g><g transform="translate(-622 -1768) translate(341 1768) translate(281)"><circle cx="99" cy="99" r="99" fill="url(#v7hgvyfd7a)" opacity=".502"></circle><circle cx="99" cy="99" r="64" fill="#FFF" stroke="#2492C3" stroke-width="4" transform="rotate(30 99 99)"></circle><g><g><path fill="#024F71" d="M10.5 0L19.593 5.25 19.593 15.75 10.5 21 1.407 15.75 1.407 5.25z" transform="translate(66 66) translate(43.5 3)"></path><g fill="#FFF" fill-rule="nonzero"><path d="M5.136 8.174c1.413-.08 2.783-.538 2.783-1.441V4.438 2.41c.026-.081.04-.167.04-.257C7.959 1.155 6.285.7 4.729.7c-1.404 0-2.905.37-3.182 1.178-.054.074-.086.164-.086.262v4.593c0 .903 1.37 1.362 2.783 1.44h.892zM2.353 3.178c.629.29 1.52.428 2.377.428.82 0 1.674-.126 2.297-.393v1.198c-.029.053-.194.207-.646.35-.463.145-1.064.225-1.69.225-.628 0-1.228-.08-1.692-.226-.452-.142-.617-.296-.646-.349V3.178zm.686-1.36c.464-.146 1.064-.226 1.69-.226.628 0 1.228.08 1.692.226.355.112.533.231.607.303v.065c-.075.072-.253.191-.607.302-.464.146-1.064.226-1.691.226s-1.227-.08-1.69-.226c-.418-.13-.59-.273-.638-.335.047-.062.22-.204.637-.335zm-.686 4.901V5.47c.626.277 1.499.41 2.337.41.838 0 1.71-.133 2.337-.41v1.25c-.029.052-.194.207-.646.35-.463.145-1.064.225-1.69.225-.628 0-1.228-.08-1.692-.226-.452-.142-.617-.297-.646-.349z" transform="translate(66 66) translate(43.5 3) translate(5.6 5.6)"></path></g></g><g><path fill="#024F71" d="M10.5 0L19.593 5.25 19.593 15.75 10.5 21 1.407 15.75 1.407 5.25z" transform="translate(66 66) translate(43.5 42)"></path><g fill="#FFF" fill-rule="nonzero"><path d="M5.136 8.174c1.413-.08 2.783-.538 2.783-1.441V4.438 2.41c.026-.081.04-.167.04-.257C7.959 1.155 6.285.7 4.729.7c-1.404 0-2.905.37-3.182 1.178-.054.074-.086.164-.086.262v4.593c0 .903 1.37 1.362 2.783 1.44h.892zM2.353 3.178c.629.29 1.52.428 2.377.428.82 0 1.674-.126 2.297-.393v1.198c-.029.053-.194.207-.646.35-.463.145-1.064.225-1.69.225-.628 0-1.228-.08-1.692-.226-.452-.142-.617-.296-.646-.349V3.178zm.686-1.36c.464-.146 1.064-.226 1.69-.226.628 0 1.228.08 1.692.226.355.112.533.231.607.303v.065c-.075.072-.253.191-.607.302-.464.146-1.064.226-1.691.226s-1.227-.08-1.69-.226c-.418-.13-.59-.273-.638-.335.047-.062.22-.204.637-.335zm-.686 4.901V5.47c.626.277 1.499.41 2.337.41.838 0 1.71-.133 2.337-.41v1.25c-.029.052-.194.207-.646.35-.463.145-1.064.225-1.69.225-.628 0-1.228-.08-1.692-.226-.452-.142-.617-.297-.646-.349z" transform="translate(66 66) translate(43.5 42) translate(5.6 5.6)"></path></g></g><g><path fill="#024F71" d="M10.5 0L19.593 5.25 19.593 15.75 10.5 21 1.407 15.75 1.407 5.25z" transform="translate(66 66) translate(1.5 3)"></path><g fill="#FFF" fill-rule="nonzero"><path d="M5.136 8.174c1.413-.08 2.783-.538 2.783-1.441V4.438 2.41c.026-.081.04-.167.04-.257C7.959 1.155 6.285.7 4.729.7c-1.404 0-2.905.37-3.182 1.178-.054.074-.086.164-.086.262v4.593c0 .903 1.37 1.362 2.783 1.44h.892zM2.353 3.178c.629.29 1.52.428 2.377.428.82 0 1.674-.126 2.297-.393v1.198c-.029.053-.194.207-.646.35-.463.145-1.064.225-1.69.225-.628 0-1.228-.08-1.692-.226-.452-.142-.617-.296-.646-.349V3.178zm.686-1.36c.464-.146 1.064-.226 1.69-.226.628 0 1.228.08 1.692.226.355.112.533.231.607.303v.065c-.075.072-.253.191-.607.302-.464.146-1.064.226-1.691.226s-1.227-.08-1.69-.226c-.418-.13-.59-.273-.638-.335.047-.062.22-.204.637-.335zm-.686 4.901V5.47c.626.277 1.499.41 2.337.41.838 0 1.71-.133 2.337-.41v1.25c-.029.052-.194.207-.646.35-.463.145-1.064.225-1.69.225-.628 0-1.228-.08-1.692-.226-.452-.142-.617-.297-.646-.349z" transform="translate(66 66) translate(1.5 3) translate(5.6 5.6)"></path></g></g><g><path fill="#024F71" d="M10.5 0L19.593 5.25 19.593 15.75 10.5 21 1.407 15.75 1.407 5.25z" transform="translate(66 66) translate(1.5 42)"></path><g fill="#FFF" fill-rule="nonzero"><path d="M5.136 8.174c1.413-.08 2.783-.538 2.783-1.441V4.438 2.41c.026-.081.04-.167.04-.257C7.959 1.155 6.285.7 4.729.7c-1.404 0-2.905.37-3.182 1.178-.054.074-.086.164-.086.262v4.593c0 .903 1.37 1.362 2.783 1.44h.892zM2.353 3.178c.629.29 1.52.428 2.377.428.82 0 1.674-.126 2.297-.393v1.198c-.029.053-.194.207-.646.35-.463.145-1.064.225-1.69.225-.628 0-1.228-.08-1.692-.226-.452-.142-.617-.296-.646-.349V3.178zm.686-1.36c.464-.146 1.064-.226 1.69-.226.628 0 1.228.08 1.692.226.355.112.533.231.607.303v.065c-.075.072-.253.191-.607.302-.464.146-1.064.226-1.691.226s-1.227-.08-1.69-.226c-.418-.13-.59-.273-.638-.335.047-.062.22-.204.637-.335zm-.686 4.901V5.47c.626.277 1.499.41 2.337.41.838 0 1.71-.133 2.337-.41v1.25c-.029.052-.194.207-.646.35-.463.145-1.064.225-1.69.225-.628 0-1.228-.08-1.692-.226-.452-.142-.617-.297-.646-.349z" transform="translate(66 66) translate(1.5 42) translate(5.6 5.6)"></path></g></g><g><path fill="#024F71" d="M10.5 0L19.593 5.25 19.593 15.75 10.5 21 1.407 15.75 1.407 5.25z" transform="translate(66 66) translate(22.5 3)"></path><g fill="#FFF" fill-rule="nonzero"><path d="M5.136 8.174c1.413-.08 2.783-.538 2.783-1.441V4.438 2.41c.026-.081.04-.167.04-.257C7.959 1.155 6.285.7 4.729.7c-1.404 0-2.905.37-3.182 1.178-.054.074-.086.164-.086.262v4.593c0 .903 1.37 1.362 2.783 1.44h.892zM2.353 3.178c.629.29 1.52.428 2.377.428.82 0 1.674-.126 2.297-.393v1.198c-.029.053-.194.207-.646.35-.463.145-1.064.225-1.69.225-.628 0-1.228-.08-1.692-.226-.452-.142-.617-.296-.646-.349V3.178zm.686-1.36c.464-.146 1.064-.226 1.69-.226.628 0 1.228.08 1.692.226.355.112.533.231.607.303v.065c-.075.072-.253.191-.607.302-.464.146-1.064.226-1.691.226s-1.227-.08-1.69-.226c-.418-.13-.59-.273-.638-.335.047-.062.22-.204.637-.335zm-.686 4.901V5.47c.626.277 1.499.41 2.337.41.838 0 1.71-.133 2.337-.41v1.25c-.029.052-.194.207-.646.35-.463.145-1.064.225-1.69.225-.628 0-1.228-.08-1.692-.226-.452-.142-.617-.297-.646-.349z" transform="translate(66 66) translate(22.5 3) translate(5.6 5.6)"></path></g></g><g><path fill="#024F71" d="M10.5 0L19.593 5.25 19.593 15.75 10.5 21 1.407 15.75 1.407 5.25z" transform="translate(66 66) translate(22.5 42)"></path><g fill="#FFF" fill-rule="nonzero"><path d="M5.136 8.174c1.413-.08 2.783-.538 2.783-1.441V4.438 2.41c.026-.081.04-.167.04-.257C7.959 1.155 6.285.7 4.729.7c-1.404 0-2.905.37-3.182 1.178-.054.074-.086.164-.086.262v4.593c0 .903 1.37 1.362 2.783 1.44h.892zM2.353 3.178c.629.29 1.52.428 2.377.428.82 0 1.674-.126 2.297-.393v1.198c-.029.053-.194.207-.646.35-.463.145-1.064.225-1.69.225-.628 0-1.228-.08-1.692-.226-.452-.142-.617-.296-.646-.349V3.178zm.686-1.36c.464-.146 1.064-.226 1.69-.226.628 0 1.228.08 1.692.226.355.112.533.231.607.303v.065c-.075.072-.253.191-.607.302-.464.146-1.064.226-1.691.226s-1.227-.08-1.69-.226c-.418-.13-.59-.273-.638-.335.047-.062.22-.204.637-.335zm-.686 4.901V5.47c.626.277 1.499.41 2.337.41.838 0 1.71-.133 2.337-.41v1.25c-.029.052-.194.207-.646.35-.463.145-1.064.225-1.69.225-.628 0-1.228-.08-1.692-.226-.452-.142-.617-.297-.646-.349z" transform="translate(66 66) translate(22.5 42) translate(5.6 5.6)"></path></g></g><path stroke="#024F71" stroke-width="2" d="M33.75 19.5L33.75 46.5M12.75 19.5L12.75 46.5M54.75 19.5L54.75 46.5M12 33L54 33" transform="translate(66 66)"></path></g><path fill="#024F71" fill-rule="nonzero" d="M99 162v54.278h3.5v1h-8v-1H98V162h1z"></path></g></g></g></g></svg> 