<?xml version="1.0" encoding="UTF-8"?> <svg xmlns="http://www.w3.org/2000/svg" xmlns:xlink="http://www.w3.org/1999/xlink" width="198px" height="218px" viewBox="0 0 198 218" version="1.1"><title>1063867B-DF24-4A59-B05D-53BCB60928C6</title><defs><radialGradient cx="50%" cy="50%" fx="50%" fy="50%" r="50%" id="radialGradient-1"><stop stop-color="#93DBFF" offset="0%"></stop><stop stop-color="#F1FBFF" offset="100%"></stop></radialGradient></defs><g id="Product-Update-12.20" stroke="none" stroke-width="1" fill="none" fill-rule="evenodd"><g id="/Products/Ultima-Offload" transform="translate(-622.000000, -2312.000000)"><g id="Ico/Networking" transform="translate(622.000000, 2312.000000)"><circle id="Oval-Copy-2" fill="url(#radialGradient-1)" opacity="0.501635174" cx="99" cy="99" r="99"></circle><circle id="Oval" stroke="#2492C3" stroke-width="4" fill="#FFFFFF" transform="translate(99.000000, 99.000000) rotate(-330.000000) translate(-99.000000, -99.000000) " cx="99" cy="99" r="64"></circle><path id="Path-5-Copy-2" d="M99,162 L99,216.278 L102.5,216.278091 L102.5,217.278091 L94.5,217.278091 L94.5,216.278091 L98,216.278 L98,162 L99,162 Z" fill="#024F71" fill-rule="nonzero"></path><path d="M128.576395,92.5790737 C124.575821,92.5828227 121.128475,95.3969826 120.323887,99.3158147 L110.050357,99.3158147 L110.050357,80.7897769 C110.047201,78.0006356 107.786942,75.7403768 104.997801,75.7372212 L89.6717153,75.7372212 C88.807114,71.5015572 84.8756631,68.6086216 80.5745477,69.0431224 C76.2734323,69.4776233 73,73.0984 73,77.4214064 C73,81.7444129 76.2734323,85.3651895 80.5745477,85.7996904 C84.8756631,86.2341913 88.807114,83.3412557 89.6717153,79.1055917 L104.997801,79.1055917 C105.927182,79.1074449 106.680133,79.8603958 106.681986,80.7897769 L106.681986,99.3158147 L89.6717153,99.3158147 C88.807114,95.0801508 84.8756631,92.1872151 80.5745477,92.621716 C76.2734323,93.0562169 73,96.6769936 73,101 C73,105.323006 76.2734323,108.943783 80.5745477,109.378284 C84.8756631,109.812785 88.807114,106.919849 89.6717153,102.684185 L106.681986,102.684185 L106.681986,121.210223 C106.680133,122.139604 105.927182,122.892555 104.997801,122.894408 L89.6717153,122.894408 C88.807114,118.658744 84.8756631,115.765809 80.5745477,116.20031 C76.2734323,116.63481 73,120.255587 73,124.578594 C73,128.9016 76.2734323,132.522377 80.5745477,132.956878 C84.8756631,133.391378 88.807114,130.498443 89.6717153,126.262779 L104.997801,126.262779 C107.786942,126.259623 110.047201,123.999364 110.050357,121.210223 L110.050357,102.684185 L120.323887,102.684185 C121.210148,107.025959 125.309651,109.938013 129.70113,109.345244 C134.092609,108.752475 137.273319,104.857728 136.976718,100.436361 C136.680117,96.0149934 133.007699,92.5799782 128.576395,92.5790737 Z" id="Shape-Copy" fill="#024F71" fill-rule="nonzero"></path></g></g></g></svg> 