<?xml version="1.0" encoding="UTF-8"?> <svg xmlns="http://www.w3.org/2000/svg" xmlns:xlink="http://www.w3.org/1999/xlink" width="198px" height="218px" viewBox="0 0 198 218" version="1.1"><title>296ECE1A-B22D-4009-B14A-B72C00E62E83</title><defs><radialGradient cx="50%" cy="50%" fx="50%" fy="50%" r="50%" id="radialGradient-1"><stop stop-color="#93DBFF" offset="0%"></stop><stop stop-color="#F1FBFF" offset="100%"></stop></radialGradient></defs><g id="Product-Update-12.20" stroke="none" stroke-width="1" fill="none" fill-rule="evenodd"><g id="/Products/Ultima-Offload" transform="translate(-622.000000, -3334.000000)"><g id="Group-17" transform="translate(358.000000, 3334.000000)"><g id="Ico/QoS-Isolation" transform="translate(264.000000, 0.000000)"><circle id="Oval-Copy-4" fill="url(#radialGradient-1)" opacity="0.501635174" cx="99" cy="99" r="99"></circle><g id="Group-16-Copy-4" transform="translate(8.000000, 8.000000)" fill="#FFFFFF" stroke="#2492C3" stroke-width="4"><circle id="Oval" transform="translate(91.000000, 91.000000) rotate(-330.000000) translate(-91.000000, -91.000000) " cx="91" cy="91" r="64"></circle></g><path id="Path-5-Copy-4" d="M99,162 L99,216.278 L102.5,216.278091 L102.5,217.278091 L94.5,217.278091 L94.5,216.278091 L98,216.278 L98,162 L99,162 Z" fill="#024F71" fill-rule="nonzero"></path><g id="Ico/distrib-storage-dk-blue-Copy-5" transform="translate(98.516724, 102.566420) scale(-1, 1) translate(-98.516724, -102.566420) translate(62.516724, 69.066420)" fill="#024F71"><g id="Group" transform="translate(0.000000, 3.023810)"><circle id="Oval" cx="43.6098717" cy="10.6100993" r="10.51875"></circle><ellipse id="Oval" transform="translate(22.707561, 21.795529) rotate(-59.999918) translate(-22.707561, -21.795529) " cx="22.7075609" cy="21.7955287" rx="7.88904188" ry="7.8890625"></ellipse><path d="M13.052293,38.4734811 C7.83207195,38.4734811 3.60024663,42.7053064 3.60024663,47.9255275 C3.60024663,53.1457486 7.83207195,57.3775739 13.052293,57.3775739 C18.2725141,57.3775739 22.5043394,53.1457486 22.5043394,47.9255275 C22.5043394,42.7053064 18.2725141,38.4734811 13.052293,38.4734811 Z M13.052293,41.9797311 C16.3360657,41.9797311 18.9980894,44.6417548 18.9980894,47.9255275 C18.9980894,51.2093002 16.3360657,53.8713239 13.052293,53.8713239 C9.76852035,53.8713239 7.10649663,51.2093002 7.10649663,47.9255275 C7.10649663,44.6417548 9.76852035,41.9797311 13.052293,41.9797311 Z" id="Oval" fill-rule="nonzero" transform="translate(13.052293, 47.925528) rotate(-120.000082) translate(-13.052293, -47.925528) "></path><circle id="Oval-Copy" cx="24.5402835" cy="4.67153353" r="4.3828125"></circle><circle id="Oval" transform="translate(62.624332, 33.636501) rotate(120.000082) translate(-62.624332, -33.636501) " cx="62.6243323" cy="33.6365008" r="6.1359375"></circle><circle id="Oval" transform="translate(63.027061, 16.102632) rotate(59.999918) translate(-63.027061, -16.102632) " cx="63.0270615" cy="16.1026318" r="5.259375"></circle><circle id="Oval" cx="39.441846" cy="35.7924048" r="8.765625"></circle></g></g></g></g></g></g></svg> 