<?xml version="1.0" encoding="UTF-8"?> <svg xmlns="http://www.w3.org/2000/svg" xmlns:xlink="http://www.w3.org/1999/xlink" width="198px" height="218px" viewBox="0 0 198 218" version="1.1"><title>B31BFE18-3C26-436E-A0B7-F01AB0356683</title><defs><radialGradient cx="50%" cy="50%" fx="50%" fy="50%" r="50%" id="radialGradient-1"><stop stop-color="#93DBFF" offset="0%"></stop><stop stop-color="#F1FBFF" offset="100%"></stop></radialGradient></defs><g id="Product-Update-12.20" stroke="none" stroke-width="1" fill="none" fill-rule="evenodd"><g id="/Products/Ultima-Offload" transform="translate(-622.000000, -3790.000000)"><g id="Group-18" transform="translate(358.000000, 3790.000000)"><g id="Ico/security" transform="translate(264.000000, 0.000000)"><circle id="Oval-Copy-5" fill="url(#radialGradient-1)" opacity="0.501635174" cx="99" cy="99" r="99"></circle><circle id="Oval" stroke="#2492C3" stroke-width="4" fill="#FFFFFF" transform="translate(99.000000, 99.000000) rotate(-330.000000) translate(-99.000000, -99.000000) " cx="99" cy="99" r="64"></circle><path id="Path-5-Copy-5" d="M99,162 L99,216.278 L102.5,216.278091 L102.5,217.278091 L94.5,217.278091 L94.5,216.278091 L98,216.278 L98,162 L99,162 Z" fill="#024F71" fill-rule="nonzero"></path><g id="Ico/distrib-storage-dk-blue-Copy-4" transform="translate(64.000000, 64.000000)"><circle id="Oval" fill="#024F71" cx="34.9038462" cy="34.9038462" r="15.8653846"></circle><g id="noun_advanced-security_1378853" transform="translate(4.759615, 1.586538)" fill-rule="nonzero"><path d="M52.2061813,25.2123626 C52.7027371,25.3468271 53.2148193,25.4154095 53.7292582,25.4163462 C56.2088724,25.4139644 58.4167166,23.8461831 59.2361925,21.5058944 C60.0556684,19.1656058 59.3081381,16.56297 57.3716588,15.0142481 C55.4351794,13.4655263 52.7318847,13.3083247 50.6289431,14.6221467 C48.5260015,15.9359688 47.4818339,18.434414 48.0245192,20.8539148 L44.4956044,22.6693681 C41.449053,18.4963811 36.761043,15.8281262 31.6174451,15.3395604 L31.6174451,11.4162775 C34.3821542,10.5741695 36.1135759,7.83477732 35.6878787,4.97618594 C35.2621815,2.11759456 32.8076971,0.00156135895 29.9175824,0.00156135895 C27.0274678,0.00156135895 24.5729833,2.11759456 24.1472861,4.97618594 C23.7215889,7.83477732 25.4530106,10.5741695 28.2177198,11.4162775 L28.2177198,15.332761 C23.0765697,15.8232028 18.3913803,18.491261 15.3463599,22.6625687 L11.8174451,20.8471154 C12.3541681,18.4301392 11.3068486,15.9376288 9.20484808,14.6294088 C7.10284757,13.3211888 4.40404176,13.4822269 2.47252602,15.0311274 C0.54101028,16.5800278 -0.202476085,19.1793959 0.617857692,21.5153963 C1.43819147,23.8513968 3.64365325,25.415182 6.11950549,25.4163462 C6.63393383,25.4152525 7.14599557,25.3466728 7.64258242,25.2123626 C8.5795608,24.9570229 9.43753472,24.4707598 10.1379808,23.7980769 L13.5989011,25.5863324 C11.278294,30.4767183 11.278294,36.1510977 13.5989011,41.0414835 L10.1379808,42.8365385 C8.04039294,40.8485806 4.80350795,40.695931 2.52814373,42.477663 C0.252779518,44.259395 -0.375206106,47.4384452 1.05176497,49.9515319 C2.47873604,52.4646186 5.5305352,53.5542279 8.22646976,52.5131764 C10.9224043,51.472125 12.4498449,48.6142146 11.8174451,45.7942995 L15.3463599,43.9788462 C18.394042,48.145025 23.0788384,50.8079098 28.2177198,51.2950549 L28.2177198,55.2115385 C25.4530106,56.0536465 23.7215889,58.7930386 24.1472861,61.65163 C24.5729833,64.5102214 27.0274678,66.6262546 29.9175824,66.6262546 C32.8076971,66.6262546 35.2621815,64.5102214 35.6878787,61.65163 C36.1135759,58.7930386 34.3821542,56.0536465 31.6174451,55.2115385 L31.6174451,51.2950549 C36.7574605,50.8062612 41.4424533,48.1407898 44.4888049,43.9720467 L48.0177198,45.7875 C47.3809099,48.6070233 48.9047557,51.4677381 51.5999295,52.5123801 C54.2951033,53.5570221 57.348859,52.4705731 58.7786041,49.9583893 C60.2083493,47.4462055 59.5829355,44.2658513 57.3084008,42.4821107 C55.033866,40.6983702 51.7961101,40.8491411 49.6971841,42.8365385 L46.2362637,41.048283 C48.5568708,36.1578971 48.5568708,30.4835177 46.2362637,25.5931319 L49.6971841,23.7980769 C50.4014756,24.4727274 51.2643498,24.9591172 52.2061813,25.2123626 Z M6.7518544,21.928228 C5.63002096,22.2267458 4.45349311,21.6915449 3.94136957,20.6497424 C3.42924604,19.6079398 3.72405088,18.3494693 4.64559814,17.6435134 C5.56714541,16.9375575 6.85896836,16.9805837 7.73149941,17.7462943 C8.60403046,18.5120049 8.81444409,19.7873024 8.23413462,20.7927198 C7.91178661,21.3542284 7.37792505,21.7631957 6.7518544,21.928228 L6.7518544,21.928228 Z M8.47211538,47.6845467 C8.14438479,48.9028198 6.94018334,49.6688112 5.69785031,49.449254 C4.45551728,49.2296968 3.58680679,48.0973603 3.69649648,46.8405529 C3.80618617,45.5837455 4.85792092,44.6190186 6.11950549,44.61799 C6.3329394,44.6175844 6.54551526,44.6450136 6.7518544,44.6995879 C8.04938841,45.0511337 8.81846341,46.3856156 8.47211538,47.6845467 L8.47211538,47.6845467 Z M53.0833104,44.6995879 C53.2896496,44.6450136 53.5022254,44.6175844 53.7156593,44.61799 C55.0017714,44.6214042 56.0646119,45.6221284 56.1453731,46.9057067 C56.2261344,48.189285 55.2971081,49.3153351 54.0215662,49.4799212 C52.7460243,49.6445072 51.561592,48.7911615 51.3138868,47.5291243 C51.0661815,46.2670871 51.8401884,45.0293504 53.0833104,44.6995879 Z M27.4833791,5.83392857 C27.4871319,4.49044672 28.578618,3.40402885 29.9221027,3.40652463 C31.2655875,3.40902903 32.3530226,4.49950167 32.3517762,5.84298818 C32.3505277,7.18647469 31.2610695,8.27493132 29.9175824,8.27493132 C28.5721099,8.27118347 27.4833791,7.17940627 27.4833791,5.83392857 Z M32.3585852,60.7938874 C32.3585852,62.1373745 31.2701285,63.2268327 29.926642,63.2280812 C28.5831555,63.2293275 27.4926829,62.1418924 27.4901785,60.7984077 C27.4876827,59.4549229 28.5741006,58.3634368 29.9175824,58.3596841 C31.2630549,58.3634319 32.3517909,59.4552091 32.3517857,60.8006868 L32.3585852,60.7938874 Z M29.9175824,47.9769231 C21.8213004,47.9769231 15.257967,41.4135897 15.257967,33.3173077 C15.257967,25.2210257 21.8213004,18.6576923 29.9175824,18.6576923 C38.0138644,18.6576923 44.5771978,25.2210257 44.5771978,33.3173077 C44.565962,41.4089311 38.0092059,47.9656873 29.9175824,47.9769231 Z M51.3630495,18.9432692 C51.663081,17.8177606 52.7165403,17.0610517 53.8789336,17.1360881 C55.0413269,17.2111245 55.988752,18.0969973 56.1415856,19.2517399 C56.2944192,20.4064825 55.610074,21.5083248 54.5072242,21.8831728 C53.4043744,22.2580208 52.1903304,21.8014227 51.6078297,20.7927198 C51.2824071,20.2337036 51.194259,19.567696 51.3630495,18.9432692 L51.3630495,18.9432692 Z" id="Shape" fill="#024F71"></path><path d="M30.1442308,25.3846154 C32.0890199,25.3846154 33.6584988,26.9540943 33.6584988,28.8988834 L33.6584988,30.5707196 L35.5009305,30.5707196 C36.0468362,30.5707196 36.4903846,30.9460298 36.4903846,31.4578164 L36.4562655,38.7251861 C36.4562655,39.2710918 36.0809553,39.7146402 35.5691687,39.7146402 L24.7534119,39.7146402 C24.2757444,39.7146402 23.8663151,39.2710918 23.8663151,38.7251861 L23.7980769,31.4578164 C23.7980769,30.9801489 24.2416253,30.5707196 24.787531,30.5707196 L26.6299628,30.5707196 L26.6299628,28.8988834 C26.6299628,26.9540943 28.1994417,25.3846154 30.1442308,25.3846154 Z M30.1783499,35.483871 C29.5376722,35.483871 29.0183002,36.0032429 29.0183002,36.6439206 C29.0183002,37.2845983 29.5376722,37.8039702 30.1783499,37.8039702 C30.8190276,37.8039702 31.3383995,37.2845983 31.3383995,36.6439206 C31.3383995,36.0032429 30.8190276,35.483871 30.1783499,35.483871 Z M30.1783499,27.3294045 C29.3253722,27.3294045 28.608871,28.0459057 28.608871,28.8988834 L28.608871,30.5707196 L31.7478288,30.5707196 L31.7478288,28.8988834 C31.7478288,28.0459057 31.0313275,27.3294045 30.1783499,27.3294045 Z" id="Combined-Shape" fill="#FFFFFF"></path></g></g></g></g></g></g></svg> 