<?xml version="1.0" encoding="UTF-8"?> <svg xmlns="http://www.w3.org/2000/svg" xmlns:xlink="http://www.w3.org/1999/xlink" width="198px" height="218px" viewBox="0 0 198 218" version="1.1"><title>F4CAC7F7-0536-41ED-955C-5B32BADF092F</title><defs><radialGradient cx="50%" cy="50%" fx="50%" fy="50%" r="50%" id="radialGradient-1"><stop stop-color="#93DBFF" offset="0%"></stop><stop stop-color="#F1FBFF" offset="100%"></stop></radialGradient></defs><g id="Product-Update-12.20" stroke="none" stroke-width="1" fill="none" fill-rule="evenodd"><g id="/Products/Ultima-Offload" transform="translate(-622.000000, -2856.000000)"><g id="Group-16" transform="translate(341.000000, 2856.000000)"><g id="Ico/performance" transform="translate(281.000000, 0.000000)"><circle id="Oval-Copy-3" fill="url(#radialGradient-1)" opacity="0.501635174" cx="99" cy="99" r="99"></circle><circle id="Oval" stroke="#2492C3" stroke-width="4" fill="#FFFFFF" transform="translate(99.000000, 99.000000) rotate(-330.000000) translate(-99.000000, -99.000000) " cx="99" cy="99" r="64"></circle><path id="Path-5-Copy-3" d="M99,162 L99,216.278 L102.5,216.278091 L102.5,217.278091 L94.5,217.278091 L94.5,216.278091 L98,216.278 L98,162 L99,162 Z" fill="#024F71" fill-rule="nonzero"></path><g id="Ico/distrib-storage-dk-blue-Copy-2" transform="translate(64.454850, 68.508655)"><path d="M57.9285714,13.6785714 C59.555839,13.6785714 60.875,14.9977324 60.875,16.625 L60.875,54.9285714 C60.875,56.555839 59.555839,57.875 57.9285714,57.875 L19.625,57.875 C17.9977324,57.875 16.6785714,56.555839 16.6785714,54.9285714 L16.6778348,34.0362301 C17.633522,34.2118217 18.6185464,34.3035714 19.625,34.3035714 L19.625,54.9285714 L57.9285714,54.9285714 L57.9285714,16.625 L35.7643263,16.6253606 C35.6731362,15.6131776 35.4888773,14.62783 35.2201723,13.6779408 L57.9285714,13.6785714 Z M50.5625,21.0446429 L50.5615714,46.8255714 L53.6600275,46.8258929 C54.4736613,46.8258929 55.1332418,47.4854734 55.1332418,48.2991071 C55.1332418,49.0546242 54.5645218,49.6773097 53.8318354,49.76241 L53.6600275,49.7723214 L25.5178571,49.7723214 C24.7042234,49.7723214 24.0446429,49.1127409 24.0446429,48.2991071 C24.0446429,47.5435901 24.6133628,46.9209046 25.3460492,46.8358042 L25.5178571,46.8258929 L28.4635714,46.8255714 L28.4642857,37.25 L32.8839286,37.25 L32.8835714,46.8255714 L37.3025714,46.8255714 L37.3035714,29.8839286 L41.7232143,29.8839286 L41.7225714,46.8255714 L46.1425714,46.8255714 L46.1428571,21.0446429 L50.5625,21.0446429 Z" id="Combined-Shape" fill="#024F71" fill-rule="nonzero"></path><g id="Group" transform="translate(0.473214, 0.419643)"><g><circle id="Oval" fill="#024F71" cx="17.6785714" cy="17.6785714" r="17.6785714"></circle><g transform="translate(19.485462, 17.657166) rotate(90.000000) translate(-19.485462, -17.657166) translate(13.985462, 9.800023)" fill="#FFFFFF" fill-rule="nonzero"><polygon id="Rectangle" points="3.88286401 0.629031057 5.93155214 0.629031057 5.92269918 7.36607143 3.88286401 7.36607143"></polygon><path d="M4.90278159,14.3226648 C2.2575435,14.3226648 0.105391484,12.1700092 0.105391484,9.52388965 C0.105391484,6.87777015 2.25741758,4.72511447 4.90278159,4.72511447 C7.5481456,4.72511447 9.7001717,6.87789606 9.7001717,9.52388965 C9.7001717,12.1698832 7.54801969,14.3226648 4.90278159,14.3226648 Z M4.90278159,8.50246108 C4.34044185,8.50246108 3.88286401,8.9606685 3.88286401,9.52376374 C3.88286401,10.086859 4.34031593,10.5450664 4.90278159,10.5450664 C5.46524725,10.5450664 5.92269918,10.086859 5.92269918,9.52376374 C5.92269918,8.9606685 5.46512134,8.50246108 4.90278159,8.50246108 Z" id="Shape"></path></g></g><path d="M30.9375,17.6785714 C30.9375,10.3558674 25.0012755,4.41964286 17.6785714,4.41964286 C10.3558674,4.41964286 4.41964286,10.3558674 4.41964286,17.6785714" id="Oval" stroke="#FFFFFF" stroke-width="2.5"></path></g></g></g></g></g></g></svg> 