<?xml version="1.0" encoding="UTF-8"?> <svg xmlns="http://www.w3.org/2000/svg" xmlns:xlink="http://www.w3.org/1999/xlink" width="100" height="66" viewBox="0 0 100 66"><defs><path id="e101bps99a" d="M0.06 0.165L82.708 0.165 82.708 46.94 0.06 46.94z"></path></defs><g fill="none" fill-rule="evenodd"><g><g><g><g transform="translate(-841 -4550) translate(500 4543) translate(341 7) translate(0 19)"><mask id="v95x1bsfmb" fill="#fff"><use xlink:href="#e101bps99a"></use></mask><path fill="#006FA8" d="M0 19.846v2.657c0 4.688 1.859 8.855 3.752 11.692 2.144 3.212 5 5.112 8.272 7.175 2.582 1.627 7.795 3.433 11.317 4.129C27.683 46.357 32.064 47 37.285 47h2.574c16.047 0 32.352-4.659 42.849-10.215v-7.556c-2.84 1.504-6.337 3.488-9.616 4.5-.697.215-1.795.692-2.526.962-.899.332-1.781.55-2.671.9-1.331.524-4.015 1.242-5.498 1.561-1.911.41-3.727.928-5.729 1.329-2.064.414-3.903.635-6.046 1.012-1.983.349-4.33.469-6.445.615-2.209.152-4.501.248-6.892.248h-.498c-8.51 0-16.628-1.337-22.31-4.179-5.465-2.734-10.574-7.8-10.574-15.916v-.747c0-3.819 1.172-6.752 2.275-9.517.484-1.213 1.397-2.761 2.093-3.804.435-.651.788-1.126 1.244-1.744.408-.554 1.044-1.15 1.363-1.627V.165c-1.324.886-2.715 2.631-3.838 3.801-1.275 1.327-2.22 2.808-3.27 4.37C2.211 10.654 0 16.047 0 19.846" mask="url(#v95x1bsfmb)"></path></g><path fill="#006FA8" d="M99.649 24.479v-2.408c-.028-.044-.386-2.694-.448-3.039-.157-.868-.472-1.978-.771-2.717-.75-1.844-1.374-3.092-2.495-4.564-2.074-2.723-4.544-4.691-7.634-6.4C82.63 2.215 73.998.314 65.187.314h-.747c-9.091 0-16.61 1.512-23.716 3.522-1.877.531-3.404 1.079-5.152 1.658-1.447.479-3.566 1.282-4.876 1.933-1.552.772-3.101 1.435-4.621 2.188-.805.399-3.897 2.291-4.401 2.408v1.993c.684-.16 3.208-1.554 4.179-1.966 1.345-.572 3.035-1.422 4.39-1.837.614-.189 1.631-.573 2.24-.833.741-.316 1.514-.508 2.3-.772 1.5-.502 3.176-1.069 4.761-1.467 3.417-.856 6.427-1.552 10.164-2.21 3.183-.562 7.661-1.129 11.244-1.129h3.736c7.277 0 15.153 1.671 19.82 4.264 2.831 1.573 4.733 2.897 6.686 5.354 1.471 1.852 3.306 5.545 3.306 8.817v1.412c0 3.449-1.792 7.158-3.287 9.169-.907 1.22-1.805 2.306-2.919 3.309-.541.488-3.067 2.494-3.676 2.636v5.48c1.172-.097 4.694-2.365 5.599-3.038 1.668-1.24 3.162-2.667 4.435-4.284 1.448-1.839 2.228-3.186 3.282-5.438.476-1.02.751-2.067 1.099-3.219.14-.467.606-3.769.616-3.785" transform="translate(-841 -4550) translate(500 4543) translate(341 7)"></path><path fill="#006FA8" d="M60.039 31.704v.581h7.805v-.415c0-2.061-1.483-3.903-3.654-3.903h-.415c-1.912 0-3.736 1.866-3.736 3.737zm-5.148 1.993v.996c0 5.71 3.503 9.882 9.216 9.882h1.08c1.731 0 2.965-.419 4.204-.945 1.347-.572 2.033-1.549 3.043-2.232l-3.26-3.05c-.643.959-2.422 1.91-4.07 1.91h-.914c-2.162 0-4.151-1.839-4.151-3.903v-.582h12.954v-2.242c0-2.641-.945-5.185-2.098-6.704-1.096-1.441-3.319-3.095-5.791-3.095h-1.579c-2.611 0-4.974 1.64-6.25 3.051-1.301 1.44-2.384 4.184-2.384 6.914zM24.248 44.243h5.065V28.216h4.567c1.007 0 1.828.78 1.828 1.744v14.283h5.148v-14.2c0-3.369-2.293-5.979-5.647-5.979H24.248v20.179M44.593 38.264c0 3.411 2.217 5.979 5.564 5.979h3.488v-4.318H51.07c-.762 0-1.328-.882-1.328-1.661V28.216h3.903v-4.152h-3.903V18.5h-5.149v19.764M75.982 39.344c0 1.378.835 2.628 1.556 3.345.388.382.998.7 1.566.925.792.316 1.203.272 2.027.463v-28.4h-5.149v23.667M14.429 28.797l.02 10.049c0 3.404 1.995 5.574 5.231 5.646V24.064l-5.129.001-.122 4.732M14.532 21.241L19.68 21.241 19.68 16.341 14.532 16.341zM86.141 17.608h.433c.207 0 .349-.032.425-.093.075-.062.113-.144.113-.246 0-.065-.018-.124-.055-.177-.036-.051-.086-.09-.151-.115-.065-.026-.185-.039-.359-.039h-.406v.67zm-.36 1.247v-2.217h.762c.261 0 .449.02.566.061.118.041.209.113.279.214.069.103.103.211.103.326 0 .162-.057.303-.173.423-.116.121-.269.188-.461.203.079.032.142.071.189.117.09.087.199.234.328.44l.271.433h-.438l-.196-.349c-.156-.274-.28-.447-.374-.516-.066-.051-.162-.076-.287-.076h-.209v.941h-.36zm.905-2.859c-.29 0-.572.074-.846.222-.274.149-.488.362-.644.636-.154.277-.232.563-.232.863 0 .297.077.581.228.853.154.273.366.485.638.637.275.152.559.229.856.229.296 0 .582-.077.855-.229.273-.152.484-.364.636-.637.151-.272.226-.556.226-.853 0-.3-.076-.586-.229-.863-.154-.274-.369-.487-.645-.636-.274-.148-.555-.222-.843-.222zm0-.342c.346 0 .683.089 1.013.266.33.178.587.432.771.763.183.33.275.675.275 1.034 0 .355-.09.697-.271 1.024-.181.328-.436.583-.762.764-.327.182-.669.272-1.026.272s-.7-.09-1.026-.272c-.327-.181-.582-.436-.764-.764-.182-.327-.273-.669-.273-1.024 0-.359.092-.704.277-1.034.185-.331.442-.585.772-.763.329-.177.668-.266 1.014-.266z" transform="translate(-841 -4550) translate(500 4543) translate(341 7)"></path></g></g></g></g></svg> 