<?xml version="1.0" encoding="UTF-8"?> <svg xmlns="http://www.w3.org/2000/svg" width="157" height="33" viewBox="0 0 157 33"><g fill="none" fill-rule="evenodd"><g fill="#E60012" fill-rule="nonzero"><g><g><path d="M65.711 7.26c-2.846 0-6.063 1.32-8.002 3.919V7.673h-6.765v24.585h6.765V18.273c0-2.517 1.938-5.198 5.569-5.198 2.804 0 5.692 1.939 5.692 5.198v13.983h6.765v-15.22c-.041-5.652-4.084-9.777-10.024-9.777M123.668 7.673L117.563 24.42 111.457 7.673 103.744 7.673 113.85 32.258 121.275 32.258 131.381 7.673zM30.773 15.098c1.154-1.527 2.97-2.434 5.197-2.434 2.434 0 4.29 1.402 5.239 3.423l-11.798 4.91c-.33-2.558.33-4.497 1.361-5.9m12.994 9.612c-2.846 2.104-4.455 2.599-7.053 2.599-2.352 0-4.167-.743-5.446-1.98L48.51 18.15c-.371-2.681-1.402-5.032-2.929-6.847-2.269-2.64-5.61-4.043-9.694-4.043-7.425 0-13.035 5.486-13.035 12.705 0 7.425 5.61 12.705 13.778 12.705 4.579 0 9.24-2.145 11.426-4.703l-4.29-3.258zM22.192 26.07L6.848 26.07 6.848.33 0 .33 0 32.258 22.192 32.258zM143.509 13.035c-3.754 0-6.518 2.846-6.518 6.93 0 3.878 2.888 6.93 6.6 6.93 3.754 0 6.518-2.929 6.518-6.93 0-3.878-2.929-6.93-6.6-6.93m0 19.635c-7.384 0-13.159-5.486-13.159-12.705 0-7.136 5.816-12.705 13.241-12.705 7.384 0 13.159 5.486 13.159 12.705 0 7.136-5.816 12.705-13.241 12.705M91.534 13.035c-3.754 0-6.518 2.846-6.518 6.93 0 3.878 2.888 6.93 6.6 6.93 3.754 0 6.518-2.929 6.518-6.93 0-3.878-2.929-6.93-6.6-6.93m0 19.635c-7.384 0-13.159-5.486-13.159-12.705 0-7.136 5.816-12.705 13.241-12.705 7.384 0 13.159 5.486 13.159 12.705 0 7.136-5.816 12.705-13.241 12.705" transform="translate(-632 -4567) translate(500 4543) translate(132 24)"></path></g></g></g></g></svg> 