<?xml version="1.0" encoding="UTF-8"?> <svg xmlns="http://www.w3.org/2000/svg" xmlns:xlink="http://www.w3.org/1999/xlink" width="126px" height="38px" viewBox="0 0 126 38" version="1.1"><title>3E034C33-8933-4DEA-B31D-A62CAA8AC2A5</title><defs><filter id="filter-1"><feColorMatrix in="SourceGraphic" type="matrix" values="0 0 0 0 0.000000 0 0 0 0 0.000000 0 0 0 0 0.000000 0 0 0 1.000000 0"></feColorMatrix></filter></defs><g id="Homepage-Update-12.20" stroke="none" stroke-width="1" fill="none" fill-rule="evenodd"><g id="Homepage-Interim-Updates" transform="translate(-802.000000, -2878.000000)"><g id="Group-5" transform="translate(165.000000, 2830.000000)"><g id="Group-4-Copy" transform="translate(580.000000, 0.000000)"><g id="splunk-logo" transform="translate(57.000000, 48.000000)" filter="url(#filter-1)"><g><path d="M27.1833333,8.77096296 C28.35,8.77096296 29.5166667,9.00177777 30.5666667,9.46340741 C31.6166666,9.92503704 32.4333333,10.5020741 33.25,11.3099259 C34.0666667,12.1177778 34.65,13.1564445 35,14.3105185 C35.1166667,15.6954074 35.3500001,16.9648889 35.3500001,18.2343704 C35.3500001,19.6192592 35.1166667,21.0041481 34.65,22.2736296 C34.1833333,23.4277038 33.6000001,24.5817777 32.7833334,25.505037 C31.15,27.3515555 28.8166667,28.3902223 26.3666667,28.3902223 C25.7833333,28.3902223 25.3166666,28.3902223 24.7333333,28.2748149 C24.2666667,28.1594074 23.8,28.044 23.3333334,27.8131851 C22.8666667,27.5823704 22.4,27.2361481 22.05,26.8899259 L20.65,25.505037 L20.65,25.505037 L20.65,37.2765926 L15.75,37.2765926 L15.75,9.348 L20.65,9.348 L20.65,12.0023704 C21.4666667,10.9637037 22.4,10.1558518 23.5666666,9.57881481 C24.7333333,9.00177777 25.9000001,8.77096296 27.1833333,8.77096296 Z M7.58333334,9.00177777 C8.51666666,9.00177777 9.56666667,9.11718519 10.5,9.348 C11.4333333,9.57881481 12.25,10.0404445 13.0666667,10.5020741 L11.55,12.8102222 C10.6166667,12.1177778 9.56666667,11.7715555 8.40000001,11.7715555 C7.81666667,11.7715555 7.23333333,11.886963 6.76666666,12.2331852 C6.3,12.5794074 6.06666667,13.041037 6.06666667,13.5026667 C6.06666667,13.9642963 6.3,14.5413333 6.65,14.8875555 C7.23333333,15.4645926 7.93333333,16.0416296 8.63333334,16.5032592 C9.56666667,17.1957038 10.3833333,17.7727408 10.9666667,18.3497777 C11.55,18.8114074 12.0166667,19.273037 12.4833333,19.8500741 C12.8333333,20.3117038 13.0666667,20.7733334 13.1833333,21.234963 C13.4166667,21.812 13.5333333,22.389037 13.4166667,22.8506666 C13.4166667,23.6585185 13.3,24.4663704 12.95,25.1588149 C12.6,25.8512592 12.1333333,26.4282962 11.4333333,26.8899259 C10.7333333,27.3515555 10.0333333,27.8131851 9.21666667,28.044 C8.28333333,28.2748149 7.34999999,28.5056296 6.41666667,28.5056296 C5.25000001,28.5056296 4.19999999,28.3902223 3.15,28.044 C2.10000001,27.6977777 1.05,27.1207408 0.233333334,26.3128889 L1.86666666,23.6585185 C2.56666667,24.2355555 3.26666667,24.6971851 3.96666666,25.0434074 C4.43333334,25.3896296 5.13333333,25.6204445 5.83333334,25.505037 C6.53333333,25.505037 7.23333333,25.2742223 7.81666667,24.928 C8.28333333,24.4663704 8.63333334,23.8893334 8.51666666,23.3122962 C8.51666666,23.0814815 8.51666666,22.7352592 8.40000001,22.5044445 C8.28333333,22.1582223 8.16666666,21.9274074 7.93333333,21.6965926 C7.58333334,21.3503704 7.23333333,21.1195555 6.88333333,20.7733334 C6.41666667,20.4271111 5.95,20.0808889 5.25000001,19.6192592 C4.78333333,19.273037 4.19999999,18.8114074 3.73333333,18.4651851 C3.26666667,18.118963 2.8,17.7727408 2.44999999,17.3111111 C2.10000001,16.8494815 1.75,16.3878519 1.51666667,15.9262223 C1.28333333,15.3491851 1.16666667,14.7721482 1.16666667,14.0797037 C1.16666667,13.3872593 1.28333333,12.5794074 1.63333333,12.0023704 C1.98333333,11.4253333 2.44999999,10.8482963 3.03333333,10.3866667 C3.61666666,9.92503704 4.31666667,9.57881481 5.01666666,9.348 C5.83333334,9.11718519 6.76666666,9.00177777 7.58333334,9.00177777 Z M50.6333334,9.348 L50.6333334,19.9654815 C50.6333334,20.6579259 50.6333334,21.4657777 50.75,22.1582223 C50.8666667,22.6198519 50.9833333,23.0814815 51.2166667,23.5431111 C51.8,24.5817777 53.0833333,25.2742223 54.2500001,25.1588149 C55.8833333,25.2742223 57.5166667,24.350963 58.1,22.8506666 C58.3333334,22.389037 58.45,21.9274074 58.45,21.5811851 C58.5666666,20.8887408 58.5666666,20.1962962 58.5666666,19.5038519 L58.5666666,9.348 L63.4666667,9.348 L63.4666667,28.044 L58.6833333,28.044 L58.6833333,25.505037 C57.8666667,26.4282962 56.8166666,27.2361481 55.7666667,27.8131851 C54.7166667,28.2748149 53.4333334,28.5056296 52.2666666,28.5056296 C50.9833333,28.5056296 49.6999999,28.2748149 48.5333334,27.5823704 C47.4833334,27.0053334 46.7833333,26.0820741 46.3166667,25.0434074 C46.2000001,24.8125926 46.0833333,24.4663704 46.0833333,24.2355555 C45.9666666,23.8893334 45.9666666,23.5431111 45.85,23.1968889 C45.85,22.7352592 45.7333334,22.2736296 45.7333334,21.9274074 L45.7333334,9.348 L50.6333334,9.348 Z M93.5666667,0.692444445 L93.5666667,16.7340741 L94.0333333,16.7340741 L100.683333,9.11718519 L104.416667,10.7328889 L98.1166667,17.4265185 L105.583333,26.7745185 L101.033333,28.3902223 L93.5666667,18.118963 L93.5666667,28.044 L88.55,28.044 L88.55,0.692444445 L93.5666667,0.692444445 Z M42.4666666,0.692444445 L42.4666666,28.044 L37.5666666,28.044 L37.5666666,0.692444445 L42.4666666,0.692444445 Z M78.5166666,8.88637038 C79.7999999,8.88637038 81.0833333,9.11718519 82.25,9.80962962 C83.3,10.3866667 84.0000001,11.3099259 84.4666667,12.3485926 C84.5833333,12.5794074 84.7,12.9256296 84.7,13.1564445 C84.8166666,13.5026667 84.8166666,13.8488889 84.9333334,14.1951111 C84.9333334,14.6567407 85.05,15.1183704 85.05,15.4645926 L85.05,27.9285926 L80.15,28.044 L80.15,17.3111111 C80.15,16.6186666 80.15,15.8108149 80.0333334,15.1183704 C79.9166667,14.6567407 79.7999999,14.1951111 79.5666667,13.7334815 C78.9833334,12.6948148 77.7000001,12.0023704 76.5333333,12.1177778 C75.7166666,12.1177778 74.8999999,12.3485926 74.0833333,12.6948148 C73.3833333,13.041037 72.9166667,13.7334815 72.5666666,14.4259259 C72.3333334,14.8875555 72.2166666,15.3491851 72.2166666,15.8108149 C72.1,16.5032592 72.1,17.1957038 72.1,17.8881481 L72.1,27.9285926 L67.0833333,27.9285926 L67.0833333,9.348 L72.1,9.348 L72.1,11.886963 C72.9166667,10.9637037 73.9666666,10.1558518 75.0166667,9.57881481 C76.0666667,9.11718519 77.35,8.88637038 78.5166666,8.88637038 Z M109.9,9.57881481 L124.95,17.0802962 L124.95,20.0808889 L109.9,27.466963 L109.9,24.2355555 L121.566667,18.5805926 L109.9,12.9256296 L109.9,9.57881481 Z M25.4333334,11.886963 C24.0333333,11.886963 22.6333333,12.5794074 21.8166666,13.7334815 C20.8833333,15.2337777 20.4166666,17.0802962 20.5333334,18.8114074 C20.4166666,20.5425185 20.8833333,22.2736296 21.8166666,23.7739259 C22.6333333,24.928 23.9166666,25.6204445 25.4333334,25.505037 C26.2499999,25.505037 27.0666666,25.2742223 27.6499999,24.8125926 C28.2333334,24.350963 28.7,23.7739259 29.0500001,23.0814815 C29.3999999,22.389037 29.6333334,21.5811851 29.8666666,20.7733334 C29.9833334,19.9654815 30.1,19.273037 30.1,18.4651851 C30.2166666,16.7340741 29.75,15.1183704 28.8166667,13.6180741 C28.1166666,12.464 26.8333334,11.7715555 25.4333334,11.886963 Z M111.416667,4.7317037 C112.35,4.7317037 113.05,5.53955555 113.05,6.46281481 C113.05,7.38607408 112.233333,8.07851851 111.3,8.07851851 C110.366667,8.07851851 109.666667,7.38607408 109.666667,6.46281481 C109.666667,5.60110617 110.276444,4.83993021 111.211437,4.74226989 L111.416667,4.7317037 L111.416667,4.7317037 Z M111.416667,4.96251851 C110.658333,4.96251851 110.10119,5.55957521 110.025468,6.19927881 L110.016667,6.34740741 L110.016667,6.34740741 C110.016667,7.03985185 110.6,7.7322963 111.416667,7.7322963 C112.066667,7.7322963 112.716667,7.23474906 112.806207,6.51685946 L112.816667,6.34740741 L112.816667,6.34740741 C112.816667,5.65496296 112.116667,5.07792592 111.416667,4.96251851 Z M111.3,5.53955555 C111.533333,5.53955555 111.65,5.53955555 111.883333,5.65496296 C112,5.77037038 112.116667,5.88577777 112,6.00118519 C112,6.19902646 111.914286,6.39686773 111.742857,6.44935623 L111.65,6.46281481 C111.883333,6.46281481 112,6.69362962 112,6.92444445 C112,7.03985185 112,7.27066666 112.116667,7.38607408 L111.766667,7.38607408 C111.65,7.27066666 111.65,7.03985185 111.65,6.92444445 C111.65,6.73209877 111.568982,6.61989711 111.406944,6.58783951 L111.3,6.57822223 L111.3,6.57822223 L111.066667,6.57822223 L111.066667,7.38607408 L110.716667,7.38607408 L110.716667,5.53955555 L111.3,5.53955555 L111.3,5.53955555 Z M111.3,5.77037038 L111.066667,5.77037038 L111.066667,6.34740741 L111.3,6.34740741 C111.533333,6.34740741 111.766667,6.232 111.766667,6.00118519 C111.766667,5.77037038 111.65,5.77037038 111.3,5.77037038 Z" id="Combined-Shape" fill="#FFFFFF" fill-rule="nonzero"></path></g></g></g></g></g></g></svg> 