<?xml version="1.0" encoding="UTF-8"?> <svg xmlns="http://www.w3.org/2000/svg" xmlns:xlink="http://www.w3.org/1999/xlink" width="77px" height="36px" viewBox="0 0 77 36" version="1.1"><title>86828DCA-7C69-460D-80D3-E30B9E1C1FA5</title><g id="Homepage-Update-12.20" stroke="none" stroke-width="1" fill="none" fill-rule="evenodd"><g id="Homepage-Interim-Updates" transform="translate(-1170.000000, -2876.000000)" fill="#231F20" fill-rule="nonzero"><g id="Group-5" transform="translate(165.000000, 2830.000000)"><g id="Group" transform="translate(870.000000, 0.000000)"><g id="apache_kafka-ar21" transform="translate(135.625500, 46.398500)"><path d="M7.39642857,3.13975 C7.01303571,2.74753571 6.48035714,2.50662589 5.88728571,2.50662589 C5.32238369,2.50435704 4.78109615,2.73308044 4.389,3.13975 L4.37882143,3.13975 C3.97466737,3.54692275 3.74929193,4.0982746 3.7525,4.67196429 C3.74856968,5.24327521 3.97136772,5.79282742 4.37203571,6.20010714 L4.38221429,6.21096429 C4.77591112,6.61447503 5.31675592,6.84056188 5.8805,6.83732083 C6.47357143,6.83732083 7.00557143,6.59978571 7.38964286,6.21096429 L7.39371429,6.20010714 C7.77778571,5.81467857 8.00442857,5.27521429 8.00442857,4.67196429 C8.00813884,4.09995676 7.78599228,3.54958928 7.38625,3.14042857 L7.38964286,3.14042857 L7.39642857,3.13975 Z M5.88728571,32.77975 C6.48035714,32.77975 7.01235714,32.5341071 7.39642857,32.1486786 L7.4005,32.1378214 C7.78457143,31.75375 8.01121429,31.2108929 8.01121429,30.6144286 C8.01121429,30.0037143 7.77710714,29.4703571 7.4005,29.0795 L7.39642857,29.0795 C7.01303571,28.6838929 6.48035714,28.444321 5.88728571,28.444321 C5.32176111,28.4410055 4.77982483,28.6707394 4.389,29.0795 L4.37882143,29.0795 C3.97900444,29.4900954 3.7565097,30.0413365 3.75926005,30.6144286 C3.75661341,31.1840973 3.97931754,31.7317104 4.37882143,32.1378214 L4.389,32.1486786 C4.78334798,32.5517238 5.32341007,32.778951 5.88728571,32.7790714 L5.88728571,32.77975 Z M17.48,26.22 C18.0303153,26.0739967 18.497944,25.7111559 18.7760714,25.2143571 L18.8154286,25.1383571 C19.0667359,24.655394 19.1268232,24.0954676 18.9837143,23.5701786 C18.8439286,23.0300357 18.5087143,22.5509643 17.9916429,22.25375 L17.9617857,22.2333929 C17.4802989,21.9617912 16.910819,21.8920092 16.378,22.0393214 C15.8487143,22.1736786 15.3737143,22.5326429 15.0832857,23.0483571 C14.8009888,23.5482633 14.7240967,24.1383372 14.8688571,24.6938929 C15.0151731,25.2454642 15.3708384,25.7182239 15.86025,26.0116786 L15.8636429,26.0116786 C16.3725714,26.31025 16.9473214,26.3625 17.4806786,26.21525 L17.48,26.22 Z M8.06346429,15.4307143 C7.505,14.8641071 6.73346429,14.5078571 5.88117857,14.5078571 C5.0605443,14.5093608 4.27521463,14.8418415 3.70296429,15.4300357 C3.14653571,15.9959643 2.80452333,16.777 2.80452333,17.6455714 C2.80222043,18.4760654 3.12463984,19.2745648 3.70296429,19.8706071 C4.25939286,20.4338214 5.02889286,20.7866786 5.87439286,20.7866786 C6.71989286,20.7866786 7.49821429,20.4338214 8.05667857,19.8706071 C8.63566349,19.2746136 8.95859347,18.4758124 8.95649795,17.6448929 C8.96029607,16.8166484 8.63691746,16.0203956 8.05667857,15.4293571 L8.06346429,15.4307143 Z M6.84203571,11.7406429 C8.06038208,11.9471243 9.18128243,12.5363338 10.0421786,13.4228214 L10.0489643,13.4228214 C10.1858309,13.5625732 10.3156011,13.7091026 10.4377857,13.8618571 L12.5617143,12.61125 C12.2822774,11.7505658 12.2582365,10.8273469 12.4925,9.95328571 C12.7951429,8.79971429 13.5307143,7.76828571 14.6313571,7.12160714 L14.6673214,7.09853571 C15.7091202,6.49331082 16.9501457,6.33124664 18.1124286,6.64864286 C19.2926268,6.97177304 20.2944665,7.75369666 20.8945714,8.82007143 L20.8945714,8.82346429 C21.527,9.93632143 21.6545714,11.2133929 21.3539643,12.3628929 C21.0526786,13.5164643 20.31575,14.5546786 19.2151071,15.1979643 L18.9246786,15.3723571 L18.8955,15.3723571 C17.910787,15.8487677 16.7871627,15.9535879 15.7313214,15.6675357 C14.8709842,15.4312893 14.0982132,14.9492802 13.5076429,14.2805357 L11.3864286,15.5270714 C11.6385161,16.2025032 11.7667813,16.9178465 11.7650714,17.6387857 C11.7650714,18.3825 11.6307143,19.1004286 11.3864286,19.76 L13.5076429,21.0038214 C14.1136071,20.3130357 14.8878571,19.85025 15.7313214,19.6161429 C16.8645357,19.3012857 18.1185357,19.4349643 19.2151071,20.0857143 L19.2856786,20.1196429 L19.2856786,20.1230357 C20.3116508,20.7541953 21.0530149,21.7584906 21.3539643,22.9248571 C21.668026,24.11833 21.5031661,25.3872892 20.8945714,26.4608929 L20.8565714,26.5389286 L20.8518214,26.5389286 C20.2451447,27.5711286 19.2620399,28.3280366 18.1090357,28.6506429 C16.9758214,28.9546429 15.7204643,28.8250357 14.6245714,28.1837857 L14.6245714,28.1749643 C13.5644002,27.5513256 12.7951209,26.5323721 12.4857143,25.3419286 C12.2510844,24.4692862 12.2751311,23.5472617 12.5549286,22.6880357 L10.431,21.4408214 C10.3085457,21.5911818 10.1787823,21.7354388 10.0421786,21.8730714 L10.0353929,21.8798571 C9.18582143,22.7484286 8.06753571,23.3523571 6.83525,23.5525357 L6.83525,26.0496786 C7.70694788,26.237739 8.50395231,26.6783689 9.12678571,27.3165714 L9.13017857,27.3233571 C9.96007143,28.1634286 10.47375,29.3346429 10.47375,30.6212143 C10.4759376,31.8522047 9.9932537,33.0345366 9.13017857,33.9122857 L9.12678571,33.9258571 C8.29214286,34.7632143 7.14535714,35.2857143 5.88117857,35.2857143 C4.62310714,35.2857143 3.47360714,34.7632143 2.64032143,33.9183929 L2.63692857,33.9183929 L2.63692857,33.9048214 C1.77294292,33.027234 1.28949799,31.8445858 1.29132143,30.6130714 C1.29132143,29.3258214 1.80703571,28.1552857 2.63692857,27.3152143 L2.63692857,27.3084286 L2.64032143,27.3084286 C3.25984639,26.666968 4.05726227,26.2257186 4.92982143,26.0415357 L4.92982143,23.5443929 C3.69142857,23.3435357 2.58196429,22.7402857 1.74053571,21.8717143 L1.73171429,21.8649286 C0.622455128,20.7381903 0.00050446854,19.2206015 -6.02692499e-16,17.6394643 C-6.02692499e-16,15.9905357 0.663642857,14.4990357 1.72357143,13.4167143 L1.73239286,13.4167143 C2.59181755,12.5300939 3.71170126,11.940794 4.92914286,11.7345357 L4.92914286,9.24757143 C4.0594705,9.05372347 3.26438432,8.61258496 2.63964286,7.97728571 L2.63625,7.97728571 L2.63625,7.9705 C1.77185861,7.09041844 1.2884988,5.90554097 1.29064286,4.67196429 C1.28940667,3.43876505 1.77264473,2.25442971 2.63625,1.37410714 L2.64642857,1.37071429 C3.49524478,0.495602623 4.66203626,0.00117871079 5.88117857,6.02692499e-16 C7.14603571,6.02692499e-16 8.29214286,0.5225 9.12746429,1.37071429 L9.12746429,1.37410714 L9.13085714,1.37410714 C9.96075,2.21892857 10.4744286,3.3915 10.4744286,4.67196429 C10.4754814,5.90473341 9.99309829,7.08876466 9.13085714,7.96982143 L9.12746429,7.97660714 C8.50860714,8.60360714 7.71875,9.05214286 6.83592857,9.24689286 L6.83592857,11.7338571 L6.84203571,11.7406429 Z M18.7747143,10.0815357 L18.7570714,10.0543929 C18.4755635,9.57293312 18.0170259,9.22056785 17.4793214,9.0725 C16.9323204,8.92203353 16.3476932,8.99964107 15.8588929,9.28760714 L15.8622857,9.28760714 C15.352,9.58210714 15.0106786,10.0645714 14.8675,10.6040357 C14.7212804,11.1594989 14.7982449,11.7501286 15.0819286,12.2495714 L15.0914286,12.2631429 C15.38525,12.7720714 15.8534643,13.11475 16.3759643,13.2525 C16.9005,13.4031429 17.4861071,13.3393571 17.9896071,13.0407857 L18.01675,13.0272143 C18.5121071,12.7259286 18.8446071,12.2495714 18.9816786,11.7270714 C19.1221429,11.1876071 19.0665,10.5979286 18.7747143,10.0815357 M28.2014286,10.8123571 L30.5716786,10.8123571 L30.5716786,18.1762143 L33.9903214,14.3287143 L36.8403214,14.3287143 L32.71325,18.7869286 L36.8437143,24.4285714 L34.1294286,24.4285714 L30.5655714,19.3813571 L30.5655714,24.4285714 L28.1946429,24.4285714 L28.1946429,10.8055714 M39.5797143,19.4186786 C39.5797143,20.6726786 40.4659286,22.4953214 42.6013929,22.4953214 C43.9225714,22.4953214 44.7918214,21.7950357 45.2430714,20.8769286 C45.4792143,20.4311071 45.5877857,19.9540714 45.6244286,19.4519286 C45.6424594,18.9635064 45.5491787,18.4773795 45.3516429,18.0303214 C44.9363571,17.0755714 44.0135,16.2477143 42.5844286,16.2477143 C40.6674643,16.2477143 39.5803929,17.8287857 39.5803929,19.3949286 L39.5803929,19.4118929 L39.5797143,19.4186786 Z M47.975,24.4285714 L45.6033929,24.4285714 L45.6033929,22.9743929 C44.9723214,24.1503571 43.6504643,24.7407143 42.2566786,24.7407143 C39.0721429,24.7407143 37.2081071,22.2164286 37.2081071,19.3650714 C37.2081071,16.1805357 39.4697857,14.0084286 42.2566786,14.0084286 C44.06575,14.0084286 45.1691071,14.9842143 45.6033929,15.7951071 L45.6033929,14.3205714 L47.975,14.3205714 L47.975,24.4285714 M50.6601071,16.1812143 L49.4386786,16.1812143 L49.4386786,14.3219286 L50.6601071,14.3219286 L50.6601071,13.7519286 C50.6601071,10.7485714 52.9041429,10.5673929 54.606,10.5477143 L54.606,12.4042857 C54.0075,12.4042857 53.0317143,12.4042857 53.0317143,13.8252143 L53.0317143,14.3205714 L54.606,14.3205714 L54.606,16.1798571 L53.0317143,16.1798571 L53.0317143,24.4285714 L50.6601071,24.4285714 L50.6601071,16.1812143 M56.2243929,10.8055714 L58.5939643,10.8055714 L58.5939643,18.1694286 L62.0139643,14.3219286 L64.8639643,14.3219286 L60.7368929,18.7801429 L64.8714286,24.4285714 L62.1571429,24.4285714 L58.5932857,19.3813571 L58.5932857,24.4285714 L56.2237143,24.4285714 L56.2237143,10.8055714 M67.6101429,19.4186786 C67.6101429,20.6726786 68.4956786,22.4953214 70.6318214,22.4953214 C71.9509643,22.4953214 72.8208929,21.7950357 73.27825,20.8769286 C73.51575,20.4311071 73.6175357,19.9540714 73.6596071,19.4519286 C73.6758929,18.9721786 73.587,18.4734286 73.3861429,18.0303214 C72.979,17.0755714 72.0493571,16.2477143 70.6196071,16.2477143 C68.7019643,16.2477143 67.6155714,17.8287857 67.6155714,19.3949286 L67.6155714,19.4118929 L67.6101429,19.4186786 Z M75.9972857,24.4285714 L73.6263571,24.4285714 L73.6263571,22.9743929 C72.99325,24.1503571 71.6720714,24.7407143 70.2796429,24.7407143 C67.0951071,24.7407143 65.2331071,22.2164286 65.2331071,19.3650714 C65.2331071,16.1805357 67.49275,14.0084286 70.2796429,14.0084286 C72.0880357,14.0084286 73.1920714,14.9842143 73.6263571,15.7951071 L73.6263571,14.3205714 L75.9972857,14.3205714 L75.9972857,24.4285714" id="Shape"></path></g></g></g></g></g></svg> 