<?xml version="1.0" encoding="UTF-8"?> <svg xmlns="http://www.w3.org/2000/svg" xmlns:xlink="http://www.w3.org/1999/xlink" width="90px" height="31px" viewBox="0 0 90 31" version="1.1"><title>A03EA183-429B-4801-9159-57164AFE701A</title><defs><polygon id="path-1" points="0 0.0456367089 30.9469971 0.0456367089 30.9469971 30.8691852 0 30.8691852"></polygon><polygon id="path-3" points="0 30.954481 89.9338081 30.954481 89.9338081 0.130801688 0 0.130801688"></polygon></defs><g id="Homepage-Update-12.20" stroke="none" stroke-width="1" fill="none" fill-rule="evenodd"><g id="Homepage-Interim-Updates" transform="translate(-1062.000000, -2879.000000)"><g id="Group-5" transform="translate(165.000000, 2830.000000)"><g id="Group" transform="translate(870.000000, 0.000000)"><g id="Group-25" transform="translate(27.000000, 49.000000)"><g id="Group-3" transform="translate(0.000000, 0.085283)"><mask id="mask-2" fill="white"><use xlink:href="#path-1"></use></mask><g id="Clip-2"></g><path d="M30.9469971,16.1945439 C30.9469971,13.601008 29.3389012,11.3336916 26.918843,10.4514342 C27.0251948,9.90481392 27.0806599,9.35806287 27.0806599,8.78868312 C27.0806599,3.96785612 23.1580727,0.0456367089 18.3358779,0.0456367089 C15.5191919,0.0456367089 12.8989884,1.39629494 11.2524331,3.6722443 C10.4429564,3.0441346 9.44877035,2.70012616 8.41154651,2.70012616 C5.85230233,2.70012616 3.77013663,4.78196582 3.77013663,7.34097004 C3.77013663,7.90655654 3.87099419,8.44768312 4.06028198,8.95846371 C1.65435174,9.82659451 -5.23255814e-05,12.1471473 -5.23255814e-05,14.7242021 C-5.23255814e-05,17.3309489 1.61602326,19.6084679 4.04706977,20.484316 C3.94372674,21.0247886 3.88747674,21.5823962 3.88747674,22.1462823 C3.88747674,26.9562527 7.80077616,30.8691852 12.6111977,30.8691852 C15.4348169,30.8691852 18.0535814,29.5130333 19.6905872,27.2276662 C20.505689,27.8674173 21.5022297,28.2186198 22.5353983,28.2186198 C25.0947733,28.2186198 27.176939,26.1374342 27.176939,23.57843 C27.176939,23.0128435 27.0759506,22.4709321 26.8866628,21.9602823 C29.2927238,21.0928055 30.9469971,18.7715987 30.9469971,16.1945439" id="Fill-1" fill="#FEFEFE" mask="url(#mask-2)"></path></g><path d="M12.1668881,13.4058911 L18.9384724,16.4926802 L25.7707544,10.5068025 C25.8696497,10.013157 25.9179201,9.52081941 25.9179201,9.00559156 C25.9179201,4.79403882 22.4919026,1.36755781 18.2798241,1.36755781 C15.7600858,1.36755781 13.4098823,2.60808101 11.9813939,4.68822025 L10.8450131,10.5835831 L12.1668881,13.4058911 Z" id="Fill-4" fill="#FDD009"></path><path d="M5.15748401,20.5760342 C5.05858866,21.0698105 5.00783285,21.58203 5.00783285,22.1002662 C5.00783285,26.3226755 8.44392297,29.7584435 12.6675131,29.7584435 C15.2079201,29.7584435 17.5696352,28.5062789 18.9958997,26.404819 L20.1237776,20.529338 L18.6186323,17.6532705 L11.8202311,14.5549709 L5.15748401,20.5760342 Z" id="Fill-6" fill="#23BAB1"></path><path d="M5.11456395,8.85842658 L9.75531977,9.95402152 L10.7720058,4.67826624 C10.1378198,4.19364599 9.35502907,3.92838017 8.54986919,3.92838017 C6.53311047,3.92838017 4.89296512,5.56915654 4.89296512,7.58572616 C4.89296512,8.03110591 4.96739826,8.45817342 5.11456395,8.85842658" id="Fill-8" fill="#EE5097"></path><path d="M4.7117093,9.9635962 C2.63830814,10.6505667 1.19673837,12.6378367 1.19673837,14.8237945 C1.19673837,16.9523304 2.51325,18.8530097 4.48932558,19.6051194 L11.0001977,13.7206131 L9.80481977,11.1665793 L4.7117093,9.9635962 Z" id="Fill-10" fill="#17A7E0"></path><path d="M20.186202,26.4045574 C20.8227427,26.8937557 21.6017398,27.1605911 22.3969578,27.1605911 C24.4135858,27.1605911 26.0537311,25.5205996 26.0537311,23.50403 C26.0537311,23.0593042 25.9794288,22.6322367 25.8321323,22.2321143 L21.1953009,21.1471143 L20.186202,26.4045574 Z" id="Fill-12" fill="#92C73D"></path><path d="M21.1296846,19.9317966 L26.2343067,21.1254928 C28.3084927,20.440092 29.7500625,18.4520371 29.7500625,16.2652945 C29.7500625,14.1406827 28.4304113,12.242227 26.4505422,11.4923409 L19.7740596,17.3410076 L21.1296846,19.9317966 Z" id="Fill-14" fill="#0678A0"></path><path d="M42.6939985,17.1585785 C42.6939985,15.850954 42.484173,14.9271017 42.0649142,14.3868907 C41.6453939,13.8468105 40.9631991,13.5765743 40.0179375,13.5765743 C39.0724142,13.5765743 38.3618328,13.8611987 37.8856701,14.4295321 C37.4093765,14.998127 37.1641003,15.9078527 37.1501032,17.1585785 L42.6939985,17.1585785 Z M43.2695799,21.7850342 L43.8880683,21.721203 L43.9307137,22.9791228 C42.3100596,23.2061945 40.9242166,23.3201228 39.7727922,23.3201228 C38.2375596,23.3201228 37.1501032,22.8761819 36.5102922,21.987646 C35.8707427,21.0995025 35.5509026,19.7170595 35.5509026,17.8408401 C35.5509026,14.1026586 37.0361642,12.2335025 40.0073416,12.2335025 C41.4430247,12.2335025 42.5160916,12.6351945 43.2270654,13.4380553 C43.9377776,14.2411776 44.2931991,15.5028907 44.2931991,17.2224097 L44.2079084,18.4376882 L37.1714259,18.4376882 C37.1714259,19.617781 37.3846526,20.4917979 37.8111061,21.0601312 C38.2375596,21.628857 38.9800596,21.913089 40.0392602,21.913089 C41.0981991,21.913089 42.1749288,21.8703169 43.2695799,21.7850342 L43.2695799,21.7850342 Z" id="Fill-16" fill="#231F20"></path><mask id="mask-4" fill="white"><use xlink:href="#path-3"></use></mask><g id="Clip-19"></g><polygon id="Fill-18" fill="#231F20" mask="url(#mask-4)" points="46.5231977 23.2379662 48.1223983 23.2379662 48.1223983 9.20490717 46.5231977 9.20490717"></polygon><path d="M51.6260145,20.0155228 C51.6260145,21.3234089 52.1661453,21.9770249 53.2465378,21.9770249 C54.2129913,21.9770249 55.1655785,21.8137844 56.1036453,21.4866494 L56.5941977,21.3159532 L56.5941977,17.7981726 L53.438311,18.096662 C52.7987616,18.1536916 52.3367267,18.3385143 52.052468,18.6508688 C51.7679477,18.9637464 51.6260145,19.4185439 51.6260145,20.0155228 M58.1933983,15.6661051 L58.1933983,21.0436241 C58.1933983,21.5763793 59.5206366,21.5551895 59.5206366,21.5551895 L59.4390087,22.9679785 C58.3158401,22.9679785 57.3857529,23.0611093 56.8271773,22.5210291 C55.5478169,23.0894932 54.2700262,23.3202274 52.9906657,23.3202274 C52.0098227,23.3202274 51.2635291,23.0430586 50.7517849,22.4887211 C50.2400407,21.9343835 49.9841686,21.1384553 49.9841686,20.1006747 C49.9841686,19.0634173 50.2469738,18.299143 50.7729767,17.8087675 C51.2988488,17.318392 52.1235,17.0166325 53.2465378,16.9027042 L56.5941977,16.5828941 L56.5941977,15.6661051 C56.5941977,14.9412021 56.4376134,14.4224426 56.1250988,14.1096958 C55.8121919,13.7972105 55.3857384,13.6406409 54.8457384,13.6406409 L50.6439942,13.6441726 L50.6439942,12.2334764 L54.739125,12.2334764 C55.9471919,12.2334764 56.8250843,12.5106451 57.3725407,13.0648519 C57.9194738,13.6193203 58.1933983,14.4864046 58.1933983,15.6661051" id="Fill-20" fill="#231F20" mask="url(#mask-4)"></path><path d="M64.4350422,13.6619354 C62.8854201,13.6619354 62.1107398,14.2022772 62.1107398,15.2823068 C62.1107398,15.7800072 62.2883852,16.1318637 62.6439375,16.3376148 C62.9989666,16.543889 63.809359,16.7570958 65.0747224,16.9773658 C66.3398241,17.1977667 67.2352456,17.5069819 67.7613794,17.9047498 C68.2869898,18.3027793 68.5503183,19.0491338 68.5503183,20.1434207 C68.5503183,21.2381 68.1985596,22.0409608 67.4947805,22.552657 C66.7911323,23.0643532 65.7639811,23.3202013 64.4137195,23.3202013 C63.5321642,23.3202013 60.5906817,22.9938511 60.5906817,22.9938511 L60.6761032,21.608138 C62.3666119,21.7711169 63.5890683,21.891716 64.4137195,21.891716 C65.2379782,21.891716 65.8669317,21.7603911 66.3007108,21.4972181 C66.7340974,21.2344376 66.9509869,20.7936359 66.9509869,20.1754671 C66.9509869,19.5570367 66.7661468,19.1379481 66.3967282,18.9175473 C66.0269172,18.6972772 65.2166555,18.4877329 63.9659433,18.2885219 C62.7148387,18.0897034 61.8263503,17.7981464 61.300609,17.4142435 C60.7746061,17.0306021 60.5116701,16.3199565 60.5116701,15.2823068 C60.5116701,14.2449186 60.8774259,13.4773743 61.6097224,12.9796738 C62.3417573,12.482235 63.2549695,12.2334502 64.3497515,12.2334502 C65.2166555,12.2334502 68.2253765,12.4538511 68.2253765,12.4538511 L68.2253765,13.8480662 C66.6426584,13.7758637 65.3444608,13.6619354 64.4350422,13.6619354" id="Fill-21" fill="#231F20" mask="url(#mask-4)"></path><path d="M76.2632398,13.8324616 L72.8729346,13.8324616 L72.8729346,18.928103 C72.8729346,20.1508371 72.9616265,20.9535671 73.1395334,21.3373392 C73.3171788,21.7212422 73.7398387,21.9129975 74.4081672,21.9129975 L76.3058852,21.7850734 L76.4126294,23.1069553 C75.4599113,23.2632633 74.7349404,23.3414827 74.2375858,23.3414827 C73.1288067,23.3414827 72.3611904,23.0717696 71.9347369,22.531297 C71.5082834,21.9913477 71.2950567,20.960892 71.2950567,19.4397992 L71.2950567,13.8324616 L69.7811468,13.8324616 L69.7811468,12.4466177 L71.2950567,12.4466177 L71.2950567,9.18455443 L72.8729346,9.18455443 L72.8729346,12.4466177 L76.2632398,12.4466177 L76.2632398,13.8324616 Z" id="Fill-22" fill="#231F20" mask="url(#mask-4)"></path><path d="M78.4864099,23.2379662 L80.0857413,23.2379662 L80.0857413,12.4466962 L78.4864099,12.4466962 L78.4864099,23.2379662 Z M78.4864099,11.0846582 L80.0857413,11.0846582 L80.0857413,9.22975949 L78.4864099,9.22975949 L78.4864099,11.0846582 Z" id="Fill-23" fill="#231F20" mask="url(#mask-4)"></path><path d="M87.0125887,12.2334633 C87.4816875,12.2334633 88.2776904,12.318746 89.4007282,12.4893114 L89.9124724,12.5532734 L89.8485044,13.8538346 C88.711077,13.7259105 87.8724288,13.6619485 87.3324288,13.6619485 C86.1239695,13.6619485 85.3031119,13.9497122 84.8695945,14.5253705 C84.4359462,15.1011595 84.2191875,16.1670624 84.2191875,17.7236025 C84.2191875,19.279881 84.4218183,20.3639654 84.8269491,20.9749401 C85.2322108,21.5861764 86.074391,21.8917291 87.3537515,21.8917291 L89.869827,21.699843 L89.9337951,23.0217249 C88.6117892,23.2205435 87.6236206,23.3202143 86.9699433,23.3202143 C85.3067747,23.3202143 84.1587515,22.8938008 83.5263968,22.040843 C82.8936497,21.1881468 82.5774724,19.7489359 82.5774724,17.7236025 C82.5774724,15.6980076 82.9186352,14.2768473 83.6009608,13.4593367 C84.2832863,12.6422186 85.4203212,12.2334633 87.0125887,12.2334633" id="Fill-24" fill="#231F20" mask="url(#mask-4)"></path></g></g></g></g></g></svg> 