<?xml version="1.0" encoding="UTF-8"?> <svg xmlns="http://www.w3.org/2000/svg" xmlns:xlink="http://www.w3.org/1999/xlink" width="1440px" height="1697px" viewBox="0 0 1440 1697" version="1.1"><title>8393A8A6-51A8-4707-BA5D-4C8142DCEEB9</title><g id="Product-Update-12.20" stroke="none" stroke-width="1" fill="none" fill-rule="evenodd" opacity="0.204082961"><g id="/Products/Ultima-Offload" transform="translate(0.000000, -100.000000)" stroke="#5F5F5F" stroke-width="0.5"><g id="Top-Bkgd-Polygons" transform="translate(0.000000, 100.000000)"><g id="bkgd-polygon-inspiration" transform="translate(719.821036, 848.410361) rotate(90.000000) translate(-719.821036, -848.410361) translate(-127.978964, 129.610361)"><polygon id="Path" points="54.854899 845.96044 213.626374 961.438776 29.2973312 1026.62732"></polygon><polygon id="Path" points="213.415169 961.318681 54.854899 845.96044 278.324647 778.820722"></polygon><polygon id="Path" points="278.324647 778.820722 54.854899 845.96044 0.610361068 670.786813"></polygon><polygon id="Path" points="278.324647 778.820722 480.792261 990.779481 480.964521 778.820722"></polygon><polygon id="Path" points="213.415169 961.318681 321.072998 1202.13644 480.906186 990.753554"></polygon><polygon id="Path" points="29.2973312 1026.62732 179.315135 1119.90828 213.415169 961.318681"></polygon><polygon id="Path" points="179.315135 1119.90828 77.9615502 1264.71141 321.072998 1202.13644 356.450863 1390.80511 29.2973312 1406.2719 321.072998 1202.13644"></polygon><polygon id="Path" points="720.836421 1208.96667 613.543948 1285.42041 520.383902 1149.62739 718.710448 903.33438 786.145055 1071.7206 520.383902 1149.62739"></polygon><polyline id="Path" points="278.324647 778.820722 228.118475 587.931594 480.906186 779.210163 481.574882 484.532891 719.005338 608.958239 480.906186 779.210163 719.005338 903.268079 480.906186 990.753554 520.383902 1149.62739 321.072998 1202.13644 613.543948 1285.42041 356.450863 1390.80511"></polyline><polygon id="Path" points="65.9189953 406.500471 0.610361068 670.786813 228.118475 587.931594 481.574882 484.532891 278.324647 401.009393 228.118475 587.931594"></polygon><polygon id="Path" points="65.9189953 406.500471 241.092622 257.092228 278.324647 401.009393"></polygon><polygon id="Path" points="241.092622 257.142488 65.9189953 406.500471 65.3086342 126.209354"></polygon><polygon id="Path" points="241.092622 257.142488 65.3086342 126.209354 283.817896 0.610361068"></polygon><polygon id="Path" points="278.324647 401.009393 481.574882 484.532891 463.698942 257.092228"></polygon><polyline id="Path" points="283.817896 0.610361068 473.309367 90.7298701 585.336264 0.610361068 574.066699 163.507768 473.309367 90.7298701"></polyline><polygon id="Path" points="719.005338 608.958239 954.60471 721.101422 719.005338 903.33438"></polygon><polyline id="Path" points="463.698942 257.092228 473.309367 90.7298701 241.092622 257.092228 463.698942 257.092228 574.066699 163.507768 481.574882 484.532891 774.293715 463.476807 719.005338 608.958239 719.005338 903.33438 1030.53178 863.934293 786.145055 1071.7206 986.953846 1250.4287 928.304397 950.903526 1120.62292 1105.2695 1030.53178 863.934293 1225.83299 822.879524 954.706601 720.836421 1030.53178 863.934293 1342.8211 1015.64082"></polyline><polygon id="Path" points="786.145055 1071.7206 720.836421 1208.96667 986.953846 1250.4287 749.523391 1406.2719"></polygon><line x1="613.543948" y1="1285.42041" x2="749.523391" y2="1406.2719" id="Path"></line><polygon id="Path" points="986.953846 1250.18823 1120.62292 1105.2695 1217.67033 1437.40031"></polygon><polygon id="Path" points="954.706601 720.836421 1041.2978 431.525275 774.293715 463.476807 1179.82794 579.570597"></polygon><polygon id="Path" points="954.60471 721.101422 774.293715 463.476807 814.123995 258.793093 481.574882 484.532891 719.005338 608.958239"></polygon><polygon id="Path" points="1392.16571 1207.90455 1120.62292 1105.2695 1342.8211 1015.64082"></polygon><polygon id="Path" points="1217.67033 1437.40031 1392.16571 1207.90455 1694.97268 1436.17959"></polygon><polyline id="Path" points="1342.8211 1015.64082 1225.83299 822.879524 1178.9621 579.546 1040.65758 431.894834 1304.72925 281.885023 1120.4194 201.638685 946.024038 4.27252747 814.123995 258.793093 1120.4194 201.638685 1040.65758 431.894834 814.123995 258.793093 574.066699 163.507768 946.024038 4.27252747 1327.74719 1.8310832 1304.72925 281.885023 1179.82794 579.546"></polyline><line x1="1120.4194" y1="201.638685" x2="1327.74719" y2="1.8310832" id="Path"></line></g></g></g></g></svg> 