<?xml version="1.0" encoding="UTF-8"?> <!-- Generator: Adobe Illustrator 16.0.0, SVG Export Plug-In . SVG Version: 6.00 Build 0) --> <svg xmlns="http://www.w3.org/2000/svg" xmlns:xlink="http://www.w3.org/1999/xlink" version="1.1" id="Layer_1" x="0px" y="0px" width="353px" height="183px" viewBox="0 0 353 183" style="enable-background:new 0 0 353 183;" xml:space="preserve"> <style type="text/css"> <![CDATA[ .st0{fill:url(#SVGID_1_);stroke:#FFFFFF;stroke-width:2.048;stroke-linejoin:round;stroke-opacity:0.397;} .st1{fill:#EEEEEE;} .st2{opacity:0.384;fill:#FFFFFF;enable-background:new ;} .st3{fill:#5F758A;stroke:#FFFFFF;stroke-width:2.048;stroke-linejoin:round;stroke-opacity:0.397;} .st4{fill:url(#SVGID_3_);} .st5{fill:url(#SVGID_4_);} .st6{fill:#FCFCFC;} .st7{opacity:0.38;fill:#FFFFFF;enable-background:new ;} .st8{fill:#FFFFFF;} .st9{fill:url(#SVGID_2_);stroke:#FFFFFF;stroke-width:2.048;stroke-linejoin:round;stroke-opacity:0.4;} .st10{fill:#383C45;} ]]> </style> <g> <g> <radialGradient id="SVGID_1_" cx="-822.1777" cy="1094.9814" r="0.8344" gradientTransform="matrix(90.5406 -25.6714 25.6716 90.5399 46614.5 -120150.0313)" gradientUnits="userSpaceOnUse"> <stop offset="0" style="stop-color:#363D45"></stop> <stop offset="1" style="stop-color:#5F758A"></stop> </radialGradient> <path class="st0" d="M350.7,49v47l-173.8,47.1V49H350.7z"></path> <radialGradient id="SVGID_2_" cx="-824.3901" cy="1088.6348" r="1.1431" gradientTransform="matrix(-91.9557 -20.0192 20.0193 -91.9551 -97534.8984 83697.9688)" gradientUnits="userSpaceOnUse"> <stop offset="0" style="stop-color:#363D45"></stop> <stop offset="1" style="stop-color:#5F758A"></stop> </radialGradient> <path class="st9" d="M3,49v47l173.8,47.1L176.8,49H3z"></path> <g transform="translate(-840 -197) translate(840 199) matrix(-1 0 0 1 351 0) translate(.292)"> <path class="st3" d="M347.7,47L173.8,94.1L0,47L173.8,0L347.7,47z"></path> </g> <g> <path class="st2" d="M345.4,57v35.4L334.9,95V59.6L345.4,57z M328.7,62v34.5L318.1,99V64.6L328.7,62z"></path> <path class="st2" d="M311.8,66v35.4l-10.6,2.6V68.6L311.8,66z"></path> <path class="st7" d="M294.4,71v35.4l-10.6,2.6V73.6L294.4,71z M278.3,75v35.4l-10.6,2.6V77.6L278.3,75z M260.9,80v34.5l-10.6,2.5 V82.6L260.9,80z M246,83v35.4l-10.6,2.6V85.6L246,83z"></path> <path class="st8" d="M236.6,84v35.4L226,122V86.6L236.6,84z M221.9,88v35.4l-10.6,2.6V90.6L221.9,88z M207,92v34.4l-10.6,2.6 V94.5L207,92z M191.6,95v35.4l-10.6,2.6V97.6L191.6,95z"></path> </g> <g transform="translate(-840 -197) translate(840 199) translate(0 40)"> <path class="st8" d="M38.9,16.2h193.6c4,0,7.3,3.3,7.3,7.3v92.3c0,4-3.3,7.3-7.3,7.3H38.9c-4,0-7.3-3.3-7.3-7.3V23.5 C31.6,19.5,34.9,16.2,38.9,16.2z"></path> <path class="st10" d="M38.1,0v140.9h-6.6l0-134.3H0V0.1h31.5V0H38.1z"></path> <radialGradient id="SVGID_3_" cx="-821.3486" cy="1046.6367" r="0.8746" gradientTransform="matrix(107.7307 0 0 -107.73 88613.9922 112827.0625)" gradientUnits="userSpaceOnUse"> <stop offset="0" style="stop-color:#5F758A"></stop> <stop offset="1" style="stop-color:#363D45"></stop> </radialGradient> <path class="st4" d="M38.1,122.3h195.6c3.3,0,6.1-2.7,6.1-6.1V20.6c0-3.3-2.7-6.1-6.1-6.1H38.1V122.3z"></path> <path class="st1" d="M190.4,78.6h23.4c1.4,0,2.5,1.1,2.5,2.5v20.1c0,1.4-1.1,2.5-2.5,2.5h-23.4c-1.4,0-2.5-1.1-2.5-2.5V81.1 C187.9,79.7,189,78.6,190.4,78.6z"></path> <path class="st1" d="M148.3,78.6h23.4c1.4,0,2.5,1.1,2.5,2.5v20.1c0,1.4-1.1,2.5-2.5,2.5h-23.4c-1.4,0-2.5-1.1-2.5-2.5V81.1 C145.8,79.7,146.9,78.6,148.3,78.6z"></path> <path class="st1" d="M148.3,34h23.4c1.4,0,2.5,1.1,2.5,2.5v27.4c0,1.4-1.1,2.5-2.5,2.5h-23.4c-1.4,0-2.5-1.1-2.5-2.5V36.5 C145.8,35.1,146.9,34,148.3,34z"></path> <path class="st1" d="M190.4,34h23.4c1.4,0,2.5,1.1,2.5,2.5v27.4c0,1.4-1.1,2.5-2.5,2.5h-23.4c-1.4,0-2.5-1.1-2.5-2.5V36.5 C187.9,35.1,189,34,190.4,34z"></path> <linearGradient id="SVGID_4_" gradientUnits="userSpaceOnUse" x1="-820.8057" y1="1046.0703" x2="-820.8057" y2="1044.7805" gradientTransform="matrix(76.14 0 0 -69.66 62589.2813 72873)"> <stop offset="0" style="stop-color:#01597E"></stop> <stop offset="1" style="stop-color:#049CCB"></stop> </linearGradient> <path class="st5" d="M57.6,34h71.1c1.4,0,2.5,1.1,2.5,2.5v64.7c0,1.4-1.1,2.5-2.5,2.5H57.6c-1.4,0-2.5-1.1-2.5-2.5V36.5 C55.1,35.1,56.2,34,57.6,34z"></path> <path class="st6" d="M101.2,51l8.8,10.4L93.2,81L76.3,61.4l3.6-4.1h15.4l3.2,3.8l-9.6,11.3l4.2,4.8L107,61L98.4,51H76.9L68,61.4 l25.2,29.3l25-29.3L109.5,51H101.2z"></path> </g> </g> </g> </svg> 