<?xml version="1.0" encoding="UTF-8"?> <svg xmlns="http://www.w3.org/2000/svg" width="353" height="183" viewBox="0 0 353 183"><defs><radialGradient id="dw54u8nuwa" cx="38.423%" cy="50%" r="83.492%" fx="38.423%" fy="50%" gradientTransform="scale(-.54133 -1) rotate(15.83 3.434 -3.934)"><stop offset="0%" stop-color="#363D45"></stop><stop offset="100%" stop-color="#5F758A"></stop></radialGradient><radialGradient id="7br6h00r8b" cx="63.616%" cy="50%" r="114.315%" fx="63.616%" fy="50%" gradientTransform="scale(.54133 1) rotate(-12.282 .906 -2.005)"><stop offset="0%" stop-color="#363D45"></stop><stop offset="100%" stop-color="#5F758A"></stop></radialGradient><radialGradient id="38httyj5rd" cx="45.345%" cy="54.222%" r="87.491%" fx="45.345%" fy="54.222%" gradientTransform="matrix(.53414 0 0 1 .211 0)"><stop offset="0%" stop-color="#5F758A"></stop><stop offset="100%" stop-color="#363D45"></stop></radialGradient><linearGradient id="m8xvpr3vlc" x1="50%" x2="52.306%" y1="36.657%" y2="50%"><stop offset="0%" stop-color="#363D45"></stop><stop offset="100%" stop-color="#5F758A"></stop></linearGradient><linearGradient id="zd9gnjopqe" x1="50%" x2="50%" y1="-43.414%" y2="85.56%"><stop offset="0%" stop-color="#01597E"></stop><stop offset="100%" stop-color="#049CCB"></stop></linearGradient></defs><g fill="none" fill-rule="evenodd"><g><g><g><g><path fill="url(#dw54u8nuwa)" fill-rule="nonzero" stroke="#FFF" stroke-linejoin="round" stroke-opacity=".397" stroke-width="2.048" d="M0 46.973L0 94.001 173.849 141.082 173.849 46.973z" transform="translate(-840 -197) translate(840 199) matrix(-1 0 0 1 351 0) translate(.292)"></path><path fill="url(#7br6h00r8b)" fill-rule="nonzero" stroke="#FFF" stroke-linejoin="round" stroke-opacity=".4" stroke-width="2.048" d="M347.698 46.973L347.698 94.001 173.849 141.082 173.904 46.973z" transform="translate(-840 -197) translate(840 199) matrix(-1 0 0 1 351 0) translate(.292)"></path><g fill="url(#m8xvpr3vlc)" fill-rule="nonzero" stroke="#FFF" stroke-linejoin="round" stroke-opacity=".397" stroke-width="2.048" transform="translate(-840 -197) translate(840 199) matrix(-1 0 0 1 351 0) translate(.292)"><path d="M347.698 46.973L173.849 94.055 0 46.973 173.849 0z"></path></g><g fill="#FFF"><path fill-rule="nonzero" d="M0 .441L0 35.822 10.559 38.441 10.559 3.06zM16.71 5.441L16.71 39.891 27.324 42.441 27.324 7.991z" opacity=".384" transform="translate(-840 -197) translate(840 199) matrix(-1 0 0 1 351 0) translate(.292) translate(5.28 54.56)"></path><path d="M33.678 9.441L33.678 44.868 44.292 47.441 44.292 12.064z" opacity=".384" transform="translate(-840 -197) translate(840 199) matrix(-1 0 0 1 351 0) translate(.292) translate(5.28 54.56)"></path><path d="M51.027 14.441L51.027 49.822 61.641 52.441 61.641 17.06zM67.139 18.441L67.139 53.819 77.753 56.441 77.753 21.064zM84.488 23.441L84.488 57.891 95.102 60.441 95.102 25.991zM99.456 26.441L99.456 61.868 110.07 64.441 110.07 29.064z" opacity=".38" transform="translate(-840 -197) translate(840 199) matrix(-1 0 0 1 351 0) translate(.292) translate(5.28 54.56)"></path><path d="M108.86 27.441L108.86 62.822 119.419 65.441 119.419 30.06zM123.556 31.441L123.556 66.868 134.17 69.441 134.17 34.064zM138.47 35.441L138.47 69.888 149.084 72.441 149.084 37.946zM153.873 38.441L153.873 73.868 164.487 76.441 164.487 41.064z" transform="translate(-840 -197) translate(840 199) matrix(-1 0 0 1 351 0) translate(.292) translate(5.28 54.56)"></path></g></g></g><g transform="translate(-840 -197) translate(840 199) translate(0 40)"><rect width="208.17" height="106.92" x="31.59" y="16.2" fill="#FFF" fill-rule="nonzero" rx="7.29"></rect><path fill="#383C45" d="M38.07 0v140.94h-6.618L31.45 6.656H0V.122h31.451V0h6.619z"></path><path fill="url(#38httyj5rd)" d="M38.07 122.31h195.637c3.343 0 6.053-2.71 6.053-6.052V20.632c0-3.342-2.71-6.052-6.053-6.052H38.07v107.73z"></path><rect width="28.35" height="25.11" x="187.92" y="78.57" fill="#EEE" fill-rule="nonzero" rx="2.495"></rect><rect width="28.35" height="25.11" x="145.8" y="78.57" fill="#EEE" fill-rule="nonzero" rx="2.495"></rect><rect width="28.35" height="32.4" x="145.8" y="34.02" fill="#EEE" fill-rule="nonzero" rx="2.495"></rect><rect width="28.35" height="32.4" x="187.92" y="34.02" fill="#EEE" fill-rule="nonzero" rx="2.495"></rect><rect width="76.14" height="69.66" x="55.08" y="34.02" fill="url(#zd9gnjopqe)" fill-rule="nonzero" rx="2.495"></rect><path fill="#FCFCFC" d="M101.232 51.03L109.993 61.449 93.212 81.046 76.307 61.449 79.886 57.356 95.309 57.356 98.517 61.201 88.893 72.487 93.088 77.325 107.031 60.953 98.394 51.03 76.924 51.03 68.04 61.449 93.212 90.72 118.26 61.449 109.499 51.03z"></path></g></g></g></g></svg> 