<?xml version="1.0" encoding="UTF-8"?> <svg xmlns="http://www.w3.org/2000/svg" width="44" height="44" viewBox="0 0 44 44"><g fill="#2492C3"><path d="M0 39.696l.284-.91c.057-.228 1.65-5.63 3.697-7.735 1.137-1.137 2.502-1.763 3.753-1.763.797 0 1.422.228 1.934.74 1.308 1.308.853 3.81-1.024 5.687-2.218 2.218-7.507 3.64-7.734 3.753l-.91.228zM43.336.057l-.057.796c-.342 8.758-2.218 15.355-10.521 22.748l-13.65-14.9C26.617 1.48 32.759 0 40.152 0c.74 0 1.535 0 2.445.057h.74zm-8.304 12.966c1.593-1.478 1.707-3.98.228-5.63s-3.981-1.706-5.63-.227c-1.593 1.478-1.706 3.98-.228 5.63 1.479 1.592 3.981 1.706 5.63.227zM16.208 9.384l15.583 17.004c-.512 3.299-2.104 6.313-4.55 8.588l-.569.511-5.289-5.744c-1.194.853-2.616 1.365-4.151 1.365-.967 0-1.934-.227-2.787-.568-.853-.399-1.65-.967-2.332-1.65-1.25-1.365-1.933-3.128-1.82-5.004.057-1.593.683-3.071 1.707-4.266l-5.29-5.744.57-.511c2.388-2.389 5.573-3.754 8.928-3.981z" transform="translate(0 2.095)"></path></g></svg> 