<?xml version="1.0" encoding="UTF-8"?> <svg xmlns="http://www.w3.org/2000/svg" xmlns:xlink="http://www.w3.org/1999/xlink" width="88px" height="29px" viewBox="0 0 88 29" version="1.1"><!-- Generator: Sketch 64 (93537) - https://sketch.com --><title>Duke logo mobile</title><desc>Created with Sketch.</desc><g id="Mobile" stroke="none" stroke-width="1" fill="none" fill-rule="evenodd"><g id="Home-footer-collapsed" transform="translate(-260.000000, -2390.000000)" fill="#FFFFFF"><g id="Group-22" transform="translate(260.000000, 2390.000000)"><g id="Duke-logo-mobile"><path d="M32.938758,3.221424 L33.289758,3.221424 C35.712198,3.221424 38.601738,3.966084 38.601738,7.509564 C38.601738,11.056824 35.712198,11.800944 33.289758,11.800944 L32.938758,11.800944 L32.938758,3.221424 Z M33.733098,1.603584 L31.198338,1.603584 L31.198338,13.417704 L33.688278,13.417704 C37.791738,13.417704 40.342698,11.131884 40.342698,7.450164 C40.342698,3.898584 37.747458,1.603584 33.733098,1.603584 L33.733098,1.603584 Z" id="Fill-1"></path><path d="M48.325086,8.548902 C48.325086,10.881702 47.467566,12.014082 45.702846,12.014082 C43.934346,12.014082 43.076286,10.881702 43.076286,8.548902 L43.076286,1.603962 L41.335326,1.603962 L41.335326,9.037602 C41.335326,11.804022 43.089246,13.662162 45.702846,13.662162 C48.312126,13.662162 50.067126,11.804022 50.067126,9.037602 L50.067126,1.603962 L48.325086,1.603962 L48.325086,8.548902 Z" id="Fill-3"></path><polygon id="Fill-5" points="55.011258 6.940512 60.347538 1.604232 58.036878 1.604232 53.368578 6.372972 53.368578 1.604232 51.628158 1.604232 51.628158 13.417812 53.368578 13.417812 53.368578 8.523792 53.781138 8.132292 58.057938 13.417812 60.393978 13.417812"></polygon><polygon id="Fill-7" points="67.534074 11.801052 62.785854 11.801052 62.785854 7.755912 67.395294 7.755912 67.395294 6.136992 62.785854 6.136992 62.785854 3.220992 67.534074 3.220992 67.534074 1.603692 61.045974 1.603692 61.045974 13.417812 67.534074 13.417812"></polygon><polygon id="Fill-9" points="31.320864 28.4904 37.809504 28.4904 37.809504 26.87256 33.060744 26.87256 33.060744 22.82742 37.670184 22.82742 37.670184 21.20958 33.060744 21.20958 33.060744 18.2952 37.809504 18.2952 37.809504 16.67574 31.320864 16.67574"></polygon><polygon id="Fill-11" points="51.091506 28.4904 57.579606 28.4904 57.579606 26.87256 52.831386 26.87256 52.831386 22.82742 57.443526 22.82742 57.443526 21.20958 52.831386 21.20958 52.831386 18.2952 57.579606 18.2952 57.579606 16.67574 51.091506 16.67574"></polygon><polygon id="Fill-13" points="51.091506 28.4904 57.579606 28.4904 57.579606 26.87256 52.831386 26.87256 52.831386 22.82742 57.443526 22.82742 57.443526 21.20958 52.831386 21.20958 52.831386 18.2952 57.579606 18.2952 57.579606 16.67574 51.091506 16.67574"></polygon><polygon id="Fill-15" points="47.836764 16.675794 47.836764 24.949674 47.835144 24.948594 40.273524 16.675794 39.198924 16.675794 39.195684 16.675794 39.195684 28.490454 39.198924 28.490454 40.937724 28.490454 40.937724 20.140974 48.472884 28.490454 49.573944 28.490454 49.573944 16.675794"></polygon><path d="M64.052586,20.170512 C64.052586,21.524832 63.157806,22.124772 61.151706,22.124772 L60.846606,22.124772 L60.846606,18.263232 L61.075026,18.263232 C63.105966,18.263232 64.052586,18.869652 64.052586,20.170512 M65.700666,20.111112 C65.700666,18.909072 65.093706,17.805312 64.111986,17.229672 C63.132426,16.675632 61.950906,16.675632 61.000506,16.675632 L59.107266,16.675632 L59.107266,28.490292 L60.846606,28.490292 L60.846606,23.621112 L61.210026,23.621112 L64.597986,28.490292 L66.718566,28.490292 L63.055746,23.443452 C64.626066,23.138892 65.700666,21.804012 65.700666,20.111112" id="Fill-17"></path><path d="M73.321146,24.00219 L76.285206,24.00219 C76.126986,25.76961 74.255886,27.11745 72.678546,27.11745 C70.378146,27.11745 68.359086,24.99093 68.359086,22.56741 C68.359086,20.03373 70.311186,18.04869 72.801666,18.04869 C74.140326,18.04869 75.477906,18.74475 76.296006,19.86471 L76.398066,20.00457 L77.633586,18.82629 L77.545026,18.71829 C76.405626,17.28513 74.611206,16.43085 72.739566,16.43085 C69.364566,16.43085 66.618666,19.20537 66.618666,22.61493 C66.618666,25.93215 69.351606,28.73367 72.587286,28.73367 C75.833226,28.73367 78.188166,26.31933 78.188166,22.99401 L78.188166,22.38543 L73.321146,22.38597 L73.321146,24.00219 Z" id="Fill-19"></path><polygon id="Fill-21" points="85.477464 16.675794 82.741824 21.436434 80.006184 16.675794 78.002784 16.675794 81.871884 23.372334 81.871884 28.490454 83.611764 28.490454 83.611764 23.372334 87.479784 16.675794"></polygon><path d="M17.591472,25.2504 C17.539632,25.30602 16.454772,26.45136 15.136092,26.53182 C13.696992,26.61498 12.329172,25.7445 11.906892,22.5666 L6.167772,20.87478 C8.682012,29.80206 15.668532,29.49318 18.010512,25.55982 C18.171432,25.30872 18.127692,25.17264 18.007272,25.10784 C17.874432,25.03656 17.736192,25.09272 17.591472,25.2504" id="Fill-24"></path><path d="M17.58564,1.793664 C15.27984,-2.872476 7.07022,1.732644 5.66298,13.665564 C5.5701,14.454504 5.95566,14.858964 6.29154,15.034464 C7.0443,15.427044 7.43634,15.579864 8.63082,15.814224 C9.40518,15.961104 9.88362,16.018344 10.55052,15.973524 C11.12562,15.933564 11.6451,15.524784 11.7018,14.927004 C12.9222,2.108484 15.8436,-0.750276 17.20008,1.997784 C17.35992,2.314224 17.75844,2.173284 17.58564,1.793664" id="Fill-26"></path><path d="M16.182936,5.827842 C15.536016,5.814882 15.035436,5.943402 14.714136,6.472062 C14.402016,6.989382 14.201676,7.624962 14.061276,8.439822 C13.937616,9.156942 13.820976,10.238022 13.932216,10.590102 C14.045616,10.940562 14.311296,11.208402 14.780016,11.236482 C17.396316,11.398482 25.073496,12.493602 26.125416,14.724882 C26.846316,16.259022 24.700896,16.651062 23.125176,17.057682 C22.524696,17.213202 22.162356,17.606862 22.093776,18.089622 C21.914496,19.341342 22.238496,19.971522 22.520916,20.391642 C22.715316,20.683242 23.098716,20.858742 23.587956,20.567682 C24.753276,19.878642 25.711776,18.653922 25.751736,18.599922 C30.879036,11.435742 20.109276,5.906142 16.182936,5.827842" id="Fill-28"></path><path d="M18.819108,17.548542 C5.944968,18.966042 -4.217832,13.085982 3.476628,11.659842 C3.512808,11.654982 4.456728,11.432502 4.643568,10.877382 C4.828788,10.320642 4.883868,10.140822 5.102028,9.345942 C5.239728,8.842122 5.353128,8.554302 5.484888,8.167122 C5.686848,7.564482 5.309388,7.203222 4.452408,7.622262 C-2.575692,11.052342 -0.490212,17.463762 5.216508,20.681622 C11.404908,24.171102 17.117568,22.903182 17.666208,22.739562 C18.216468,22.579722 18.773748,22.445262 19.365048,21.556962 C19.687428,20.965122 20.189628,20.236122 20.054628,18.607482 C20.054628,18.596682 20.031408,17.415702 18.819108,17.548542" id="Fill-30"></path></g></g></g></g></svg> 