<svg xmlns="http://www.w3.org/2000/svg" width="589" height="587" viewBox="0 0 589 587">
    <defs>
        <linearGradient id="prefix__b" x1="50%" x2="50%" y1="20.866%" y2="69.083%">
            <stop offset="0%" stop-color="#005A7F"/>
            <stop offset="100%" stop-color="#009ECE"/>
        </linearGradient>
        <linearGradient id="prefix__c" x1="50.485%" x2="49.823%" y1="34.497%" y2="55.513%">
            <stop offset="0%" stop-color="#00814B"/>
            <stop offset="100%" stop-color="#8FDF00"/>
        </linearGradient>
        <radialGradient id="prefix__a" cx="50%" cy="50%" r="50%" fx="50%" fy="50%" gradientTransform="matrix(0 1 -1.15728 0 1.079 0)">
            <stop offset="0%" stop-color="#62D3FF"/>
            <stop offset="100%" stop-color="#FFF" stop-opacity="0"/>
        </radialGradient>
    </defs>
    <g fill="none" fill-rule="evenodd">
        <ellipse fill="url(#prefix__a)" opacity=".635" style="mix-blend-mode:multiply" cx="294.5" cy="293.5" rx="294.5" ry="293.5"/>
        <g>
            <path fill="#000" fill-rule="nonzero" d="M227.559 140.691L0.879 271.044 0.879 289.419 227.779 423.393 454.695 290.993 454.695 272.617z" transform="translate(60 65)"/>
            <path fill="#4D4D4E" fill-rule="nonzero" d="M454.695 272.685L227.559 140.742 0.879 271.112 227.779 405.068z" transform="translate(60 65)"/>
            <path fill="#353535" fill-rule="nonzero" d="M227.779 404.967L0.879 271.01 0.879 289.368 227.779 423.342 454.695 290.942 454.695 272.567z" transform="translate(60 65)"/>
            <path fill="#2B2B2B" fill-rule="nonzero" d="M98.56 0.305L304.783 118.39 206.426 174.87 0.237 56.767z" opacity=".46" transform="translate(60 65) translate(130.59 153.973)"/>
            <path fill="#EAEAEA" fill-rule="nonzero" d="M99.135 1.269L305.358 119.355 207.001 175.834 0.812 57.732z" opacity=".34" transform="translate(60 65) translate(22.3 214.886)"/>
            <path fill="#FFF" fill-rule="nonzero" d="M367.556 251.62c-.321.744-64.296 14.246-65.6 14.246-1.302 0-13.01-4.687-12.723-5.245.287-.558 40.27-9.001 41.962-9.001 1.692 0 36.666-.745 36.361 0zM284.241 219.2c.17-.32-1.489-2.148-2.25-2.724-1.324-1.055-2.766-1.952-4.298-2.673-1.675-.628-3.456-.926-5.245-.88-1.918-.091-3.835.208-5.635.88-1.49.514-2.88 1.281-4.111 2.267-1.134 1.066-1.692 1.54-1.692 2.285.079 1.192.576 2.319 1.404 3.18.93 1.134 2.724 2.25 2.91 3.283.216 1.032-.187 2.094-1.032 2.724-1.775.613-3.662.839-5.532.66-2.362-.657-4.544-1.843-6.38-3.469-1.404-1.505-1.691-2.25-2.233-2.25-1.379.354-2.64 1.066-3.655 2.064-.287.643 1.862 2.335 2.623 2.995 1.526 1.07 3.159 1.977 4.873 2.707 1.362.58 2.819.901 4.298.948 1.37.182 2.758.182 4.128 0 1.654-.166 3.268-.612 4.772-1.32 1.333-.432 2.53-1.209 3.468-2.25 1.033-1.117.846-1.117.846-2.048 0-.93-.27-1.218-1.116-2.436-.846-1.218-1.878-2.166-2.25-2.724-.373-.559-1.033-1.506-.745-2.25.34-.878 1.063-1.55 1.963-1.828 1.506-.364 3.078-.364 4.585 0 1.698.382 3.278 1.172 4.602 2.301 1.15.998 1.861 2.081 2.234 2.335 1.307-.232 2.515-.851 3.468-1.776zM268.692 210.165c0-.524-2.454-1.404-3.384-1.692-.931-.287-24.738 8.376-24.738 8.376l15.55-12.69-4.129-2.25-23.18 8.578s14.788-11.844 14.788-12.589c0-.744-3.249-2.69-3.942-2.69-.694 0-18.731 16.277-18.731 16.92 0 .643 3.3 2.318 4.433 2.386 1.134.067 23.231-8.46 23.231-8.46l-14.788 12.216s2.606 2.183 3.486 2.183c.88 0 31.404-9.78 31.404-10.288zM233.176 192.027c-1.277-1.093-2.66-2.057-4.128-2.877-1.927-.998-4.02-1.635-6.176-1.878-1.24-.184-2.5-.184-3.74 0-.642.102-2.148.457-2.08 1.252.067.796 4.686.813 6.564 1.692 1.578.51 2.975 1.46 4.027 2.741.576.83.102 1.879-.643 2.741-1.455 1.139-3.15 1.931-4.957 2.319-.44-.17-.49-.44-1.185-.88-.693-.44-3.248-1.997-4.873-2.741-1.449-.646-3.016-.986-4.602-.999-1.861-.118-3.73-.015-5.567.305-1.684.331-3.28 1.011-4.687 1.996-1.138.74-2.116 1.701-2.876 2.826-.383.973-.187 2.078.508 2.86.998 1.32 4.247 2.436 6.497 2.944 2.25.507 6.091-.22 6.396 0 .304.22-2.115 2.995-1.692 3.215 1.91.237 3.842.237 5.753 0 .44-.254.338-.694.93-1.523.804-.9 1.783-1.625 2.877-2.132 1.438-.88 8.46-4.552 10-5.567 1.642-.975 3.093-2.242 4.28-3.74.342-.898.093-1.915-.626-2.554zm-17.8 10.152c-1.7.418-3.444.628-5.194.626-1.451.113-2.898-.263-4.112-1.066-.592-.27-1.438-.93-1.506-1.523-.195-.834.1-1.706.762-2.25 1.142-1.094 2.665-1.701 4.247-1.692 1.666-.111 3.333.21 4.839.93 2.081.796 4.467 1.93 4.467 2.64 0 .71-2.572 1.996-3.503 2.301v.034zM363.546 256.865c-.558-.812-27.174 5.651-28.104 6.886-.931 1.236-4.687 17.58-5.567 17.97-.88.389-29.221-12.234-30.169-11.523-.947.71 39.357 21.996 40.98 21.658 1.625-.339 23.401-34.179 22.86-34.991zM247.423 233.583c2.272.558 4.474 1.37 6.565 2.42 1.946 1.15 2.589 1.556 2.335 2.317-.254.762-1.337 1.252-2.656 1.93-3.197 1.438-6.522 2.571-9.933 3.383-2.08.386-4.197.533-6.31.44-.678-.118-.745-.744.507-1.117 1.252-.372 3.384-.88 4.619-1.133 1.846-.447 3.642-1.076 5.364-1.878 1.32-.677 2.165-1.235 2.335-1.692.169-.457.101-.694-.576-1.185-1.514-.941-3.125-1.718-4.805-2.318-1.574-.49-4.027-1.066-3.638-1.523.694-.778 4.416-.084 6.193.356z" transform="translate(60 65)"/>
            <path fill="#FFF" fill-rule="nonzero" d="M185.394 203.837s-.863-1.557-1.608-1.303c-.744.254-1.353 3.384-.727 6.142.626 2.758 3.824 9.95 7.952 13.147 5.058 4.199 10.595 7.783 16.497 10.677 5.35 2.405 11.002 4.068 16.802 4.94 4.028.74 8.096 1.243 12.183 1.506 2.57.319 5.162.42 7.749.305.558-.305.93-1.438-.948-1.81-1.878-.373-4.754-1.033-11.37-2.437-7.056-1.506-16.802-3.807-23.299-7.868-4.756-2.826-9.282-6.022-13.536-9.56-2.175-1.898-4.107-4.058-5.753-6.43-1.443-2.364-2.76-4.804-3.942-7.309zM247.541 323.683c-1.692 0-15.228 7.106-15.228 8.46 0 1.353 10.27 6.768 11.98 6.768 1.709 0 15.346-7.158 15.346-8.562 0-1.404-10.389-6.666-12.098-6.666zm.102 1.54c.694 0 4.145 1.505 4.145 2.064 0 .558-5.076 3.197-5.719 3.197-1.687-.388-3.266-1.151-4.619-2.233-.186-.525 5.516-3.029 6.193-3.029zm-12.91 6.97c1.51-1.277 3.227-2.29 5.076-2.995 1.52.549 2.926 1.375 4.145 2.437-1.59 1.26-3.38 2.244-5.296 2.91-.338-.05-4.077-1.844-3.925-2.352zm10.152 5.076c-1.693-.325-3.29-1.03-4.67-2.064 1.655-1.276 3.5-2.286 5.465-2.995 1.644.487 3.195 1.248 4.586 2.25-1.664 1.137-3.445 2.09-5.313 2.843l-.068-.034zm6.971-3.688c-1.506-.49-2.915-1.24-4.162-2.217-.271-.49 4.974-3.265 5.668-3.265s4.213 1.692 4.213 2.284c0 .592-5.025 3.062-5.651 3.232l-.068-.034zM265.477 332.244c-1.692 0-15.144 7.09-15.144 8.46 0 1.37 10.254 6.768 11.963 6.768 1.709 0 15.346-7.157 15.346-8.544 0-1.388-10.456-6.684-12.165-6.684zm.118 1.523c.677 0 4.129 1.506 4.129 2.064 0 .559-5.076 3.215-5.702 3.215-1.688-.388-3.267-1.152-4.62-2.233-.22-.542 5.5-3.046 6.193-3.046zm-12.927 6.971c1.511-1.277 3.228-2.29 5.076-2.995 1.554.52 2.995 1.33 4.247 2.386-1.588 1.263-3.379 2.247-5.296 2.91-.44 0-4.162-1.776-4.027-2.301zm10.152 5.076c-1.697-.33-3.298-1.035-4.687-2.064 1.653-1.284 3.497-2.3 5.466-3.012 1.645.484 3.196 1.245 4.585 2.25-1.648 1.15-3.419 2.115-5.28 2.877l-.084-.05zm6.971-3.689c-1.51-.5-2.923-1.256-4.179-2.233-.254-.49 5.076-3.249 5.668-3.249.593 0 4.23 1.692 4.23 2.268 0 .575-5.025 3.08-5.634 3.265l-.085-.05zM226.324 335.171c-1.692 0-15.229 7.107-15.229 8.46 0 1.354 10.254 6.768 11.963 6.768 1.709 0 15.347-7.157 15.347-8.561 0-1.405-10.372-6.667-12.081-6.667zm.101 1.54c.694 0 4.146 1.506 4.146 2.064 0 .559-5.077 3.198-5.72 3.198-1.686-.391-3.264-1.155-4.619-2.233-.169-.525 5.516-3.029 6.193-3.029zm-12.927 6.971c1.511-1.277 3.227-2.29 5.076-2.995 1.547.524 2.982 1.333 4.23 2.386-1.59 1.26-3.38 2.244-5.296 2.91-.406 0-4.145-1.793-4.01-2.3zm10.152 5.076c-1.692-.338-3.287-1.049-4.67-2.081 1.655-1.276 3.5-2.286 5.465-2.995 1.645.487 3.195 1.248 4.586 2.25-1.66 1.141-3.435 2.105-5.296 2.877l-.085-.05zm6.971-3.705c-1.505-.492-2.914-1.242-4.162-2.217-.27-.49 4.974-3.265 5.668-3.265s4.213 1.692 4.213 2.284c0 .592-5.008 3.08-5.634 3.316l-.085-.118zM244.259 343.733c-1.692 0-15.228 7.09-15.228 8.46 0 1.37 10.253 6.768 11.98 6.768 1.725 0 15.346-7.14 15.346-8.545 0-1.404-10.372-6.683-12.098-6.683zm.118 1.523c.694 0 4.146 1.506 4.146 2.064s-5.076 3.215-5.72 3.215c-1.687-.389-3.266-1.152-4.618-2.234-.187-.541 5.499-3.045 6.192-3.045zm-12.91 6.97c1.513-1.274 3.229-2.287 5.076-2.994 1.554.52 2.995 1.33 4.247 2.386-1.586 1.266-3.377 2.25-5.296 2.91-.457 0-4.179-1.777-4.027-2.301zm10.152 5.077c-1.66-.313-3.232-.99-4.602-1.98 1.646-1.284 3.485-2.3 5.448-3.012 1.65.485 3.207 1.246 4.603 2.25-1.685 1.127-3.49 2.063-5.38 2.793l-.069-.051zm6.971-3.689c-1.508-.504-2.921-1.26-4.179-2.233-.254-.49 4.992-3.249 5.668-3.249.677 0 4.23 1.692 4.23 2.267 0 .576-5.042 3.08-5.65 3.232l-.069-.017zM197.153 308.234l-12.42 6.92c-.27.157-.433.45-.422.762-.003.311.175.595.457.728l10.152 5.346c.118.068.253.103.389.102.155.003.308-.038.44-.118l11.844-7.124c.265-.153.427-.438.423-.744-.012-.307-.186-.584-.457-.728l-9.746-5.076c-.202-.11-.44-.134-.66-.068zm-1.692 12.048l-8.46-4.4 10.592-5.956 8.02 4.247-10.152 6.109z" transform="translate(60 65)"/>
            <path fill="#FFF" fill-rule="nonzero" d="M225.207 308.031c-.236-.398-.743-.54-1.15-.321l-5.398 2.995-3.57-1.81 4.433-2.403c.266-.145.434-.421.441-.724.008-.303-.147-.587-.406-.745-.258-.158-.582-.165-.847-.02l-5.5 2.944-3.384-1.692 3.994-2.132c.415-.22.575-.735.355-1.15-.22-.417-.735-.576-1.15-.356l-5.077 2.69-4.01-2.03 4.501-2.437c.2-.104.351-.285.418-.5.067-.217.044-.45-.063-.65-.23-.405-.738-.554-1.15-.339l-5.55 2.978-2.758-1.404c-.25-.127-.545-.127-.795 0l-3.554 1.946-4.737-2.42c-.2-.105-.432-.125-.646-.054-.214.07-.39.224-.488.426-.211.412-.053.917.355 1.134l3.723 1.895-4.873 2.657-4.755-2.437c-.42-.21-.932-.045-1.15.372-.21.416-.043.923.372 1.134l3.74 1.912-4.603 2.521-4.72-2.403c-.417-.209-.923-.042-1.134.373-.105.199-.125.432-.055.645.07.214.224.39.427.488l3.672 1.878-4.789 2.623-4.568-2.284c-.202-.106-.437-.126-.654-.056-.216.07-.395.224-.497.428-.199.417-.035.916.372 1.134l3.655 1.878-2.047 1.117c-.275.154-.443.446-.44.761.005.309.18.589.457.728l1.523.795-5.313 2.825c-.289.13-.48.41-.499.725-.017.316.143.615.415.776.272.16.611.156.879-.012l6.311-3.384 3.824 1.963-5.6 2.978c-.342.184-.514.578-.418.954.096.376.435.639.824.637.136 0 .27-.035.389-.102l6.632-3.536 3.554 1.827-5.076 2.741c-.405.23-.554.739-.339 1.15.146.275.434.445.745.44.141 0 .28-.035.406-.1l6.091-3.3 3.875 1.996-5.533 3.08c-.351.249-.46.722-.251 1.098.208.377.665.538 1.063.374l6.531-3.621 2.521 1.286c.115.06.243.09.373.084.147.001.292-.034.423-.101l3.045-1.692 4.755 2.42c.12.065.253.1.389.101.467.107.933-.184 1.04-.651.108-.468-.184-.934-.65-1.041l-3.757-1.912 4.737-2.656 4.823 2.453c.118.067.253.102.389.101.395.002.738-.27.828-.655.089-.384-.1-.78-.456-.952l-3.807-1.946 4.535-2.555 4.856 2.488c.123.052.255.08.389.084.319 0 .611-.175.761-.457.21-.416.043-.922-.372-1.133l-3.858-1.98 4.806-2.69 4.974 2.538c.114.064.242.1.372.101.325.005.623-.18.762-.473.209-.416.042-.923-.372-1.134l-3.96-2.03 2.572-1.439c.271-.156.434-.449.423-.761-.01-.312-.183-.595-.457-.745l-1.336-.676 4.45-2.47c.395-.211.559-.693.372-1.1zm-30.66 19.154l-7.901-4.06c-.13-.15-.312-.24-.508-.255l-12.335-6.328 25.28-13.84 20.49 10.422-25.025 14.061zM175.783 280.74l-10.152-5.381c-.244-.127-.534-.127-.778 0l-11.844 6.125c-.283.133-.466.415-.474.727-.004.307.157.591.423.745l2.775 1.692-5.212 2.842-9.204-4.923c-.238-.127-.524-.127-.762 0l-6.04 2.994-5.076-2.673c-.248-.135-.548-.135-.795 0l-11.845 6.125c-.278.127-.457.405-.456.71-.022.311.136.607.406.762l9.61 5.753c.136.073.286.113.44.118.137.001.27-.034.39-.101l12.368-6.497c.279-.145.454-.431.457-.745.005-.316-.173-.606-.457-.744l-3.232-1.692 4.586-2.318 18.189 9.644-4.23 2.673-4.687-2.487c-.248-.135-.548-.135-.795 0l-11.844 6.108c-.274.142-.449.42-.457.728-.007.307.147.596.406.761l9.627 5.736c.127.079.274.12.423.119.134.031.273.031.406 0l12.37-6.498c.272-.152.44-.44.44-.753 0-.312-.168-.6-.44-.753l-3.706-1.962 4.636-2.944c.258-.157.407-.444.389-.745-.015-.297-.18-.565-.44-.71l-8.85-4.704 5.077-2.775 5.076 3.08c.135.072.286.113.44.118.136 0 .27-.034.389-.102l12.368-6.497c.285-.14.465-.428.465-.745 0-.316-.18-.605-.465-.744l.085-.068zm-48.916 13.79l-7.919-4.722 10.152-5.211 8.308 4.416-10.541 5.516zm20.643 11.217l-7.902-4.72 10.152-5.229 4.738 2.521 3.57 1.895-10.558 5.533zm15.498-18.73l-7.918-4.738 10.152-5.212 8.308 4.417-10.542 5.533zM123.821 252.973c-5.076-2.52-12.148-5.33-14.128-5.33-.322 0-1.303 0-18.51 8.917-17.208 8.917-17.344 9.239-17.344 9.865 0 1.455 6.227 5.973 10.863 8.308 5.262 2.622 11.98 5.33 14.128 5.33.982 0 7.31-3.03 18.799-8.985 17.343-8.985 17.512-9.492 17.613-9.848.711-2.098-11.268-8.19-11.42-8.257zm-25.025 25.38c-1.506 0-7.292-2.132-13.333-5.16-3.484-1.738-6.712-3.947-9.593-6.565 1.505-.863 5.279-2.91 9.813-5.296 3.473 2.477 7.095 4.737 10.846 6.768 3.807 2.03 9.543 4.433 12.386 5.6-3.268 1.752-6.635 3.311-10.085 4.67l-.034-.017zm12.132-5.736c-1.692-.676-9.07-3.654-13.536-6.09-3.432-1.838-6.76-3.866-9.966-6.075 3.587-1.895 7.496-3.926 11.049-5.72.288.187 6.768 4.316 9.678 5.872 2.37 1.218 10.27 4.822 13.689 6.38-3.537 1.86-7.36 3.857-10.88 5.65l-.034-.017zm12.741-6.632c-2.098-.948-12.166-5.516-14.805-6.887-2.301-1.184-6.853-4.06-8.714-5.262 3.1-1.67 6.286-3.179 9.543-4.518 1.387 0 7.817 2.37 13.367 5.076 3.586 1.754 6.987 3.863 10.152 6.295-1.37.947-5.06 2.96-9.51 5.313l-.033-.017z" transform="translate(60 65)"/>
            <g fill-rule="nonzero" opacity=".4">
                <path fill="#185580" d="M111.165 129.541L1.184 64.618 1.184 73.518 111.165 138.441 221.146 74.279 221.146 65.379z" transform="translate(60 65) translate(117.053 76.14)"/>
                <path fill="url(#prefix__b)" d="M221.146 65.379L111.064 1.421 1.184 64.618 111.165 129.541z" transform="translate(60 65) translate(117.053 76.14)"/>
                <path fill="#FFF" d="M146.24 36.023l7.344-4.568-6.193-3.79c-.123-.076-.278-.08-.406-.01-.127.07-.208.201-.211.347-.004.145.07.28.194.356l5.076 3.113-42.858 26.531c-.092.056-.158.147-.184.251-.025.105-.008.216.048.308.076.124.21.2.356.203.071.022.148.022.22 0l6.108-3.774 14.399 8.63 2.724-1.81 3.773 2.114-2.318 1.692 13.942 9.036 3.283-1.692 6.666 3.891-2.724 1.692 7.327 4.484 30.76-18.054-47.325-28.95zm10.813 42.503l2.74-1.692-8.24-4.822-3.265 1.692-12.571-8.138 2.402-1.794-5.313-2.978-2.724 1.81-13.536-8.155 28.967-18.02v.102l46.463 28.425-29.17 17.073-5.753-3.503z" transform="translate(60 65) translate(117.053 76.14)"/>
                <path fill="#FFF" d="M174.853 62.232L177.12 63.654 176.325 67.359 158.897 68.493 161.063 57.647 167.12 57.647 173.787 61.775 172.822 65.126 163.449 65.481 163.736 63.772 170.521 63.586 171.046 62.418 166.342 59.221 163.347 59.221 161.858 66.615 174.21 65.955zM69.153 51.336l7.36-4.569-6.21-3.79c-.09-.06-.203-.08-.309-.055-.106.026-.196.095-.25.19-.055.093-.073.203-.047.308.025.105.091.195.183.25l5.076 3.114-42.808 26.531c-.166.091-.247.286-.195.469.053.182.226.304.415.292.066.022.137.022.203 0l6.108-3.773 14.4 8.63 2.74-1.81 3.774 2.114-2.335 1.692 13.959 9.019 3.282-1.692 6.65 3.891-2.707 1.692 7.326 4.484 30.778-18.02-47.393-28.967zm10.812 42.486l2.74-1.692-8.256-4.771L71.2 89.05l-12.572-8.139 2.386-1.793-5.279-2.978-2.724 1.692-13.536-8.156 29.085-18.02v.119l46.48 28.426-29.187 17.072-5.888-3.452z" transform="translate(60 65) translate(117.053 76.14)"/>
                <path fill="#FFF" d="M77.173 65.075c-1.13-1.186-2.459-2.165-3.926-2.893-3.08-1.59-6.768-2.437-7.681-.965l-9.222 6.227c-.028-.006-.057-.006-.084 0-.457.693-.237 1.692.609 2.91.966 1.262 2.153 2.34 3.502 3.181 1.6 1.068 3.46 1.682 5.38 1.777.637.05 1.272-.124 1.794-.491l9.306-6.125c.524-.066.987-.373 1.252-.83.373-.66.051-1.674-.93-2.791zm-6.904 7.292c-2.054.014-4.081-.473-5.905-1.42-3.028-1.591-4.873-4.062-4.484-5.161l2.285-1.54c0 1.59 2.115 3.858 4.957 5.279 1.676.792 3.482 1.274 5.33 1.421l-2.183 1.421zm3.097-2.098c-2.069.07-4.122-.378-5.973-1.302-3.113-1.557-5.076-4.095-4.535-5.077l2.555-1.692c.136 1.692 2.538 3.875 5.212 5.246 1.44.78 3.012 1.29 4.636 1.506h.372l-2.216 1.455-.051-.136zm-6.21 4.18c-.626.575-3.384.643-6.446-1.32-1.302-.79-2.448-1.811-3.385-3.012-.642-.914-.862-1.692-.609-2.183l2.47-1.692c.102 1.574 2.099 3.807 4.857 5.246 1.635.821 3.407 1.338 5.228 1.522l-2.115 1.439zm10.39-6.768c-.238.49-1.067.693-2.268.575-1.546-.213-3.042-.7-4.416-1.438-3.266-1.692-5.313-4.23-4.806-5.212.17-.338.694-.524 1.438-.524 1.925.154 3.79.732 5.466 1.692 1.403.684 2.67 1.619 3.739 2.758.795.846 1.134 1.641.846 2.149zM97.782 77.545L100.032 78.949 99.254 82.655 81.809 83.806 83.992 72.96 90.049 72.96 96.716 77.088 95.734 80.438 86.36 80.794 86.665 79.085 93.433 78.899 93.975 77.731 89.254 74.533 86.259 74.533 84.77 81.927 97.139 81.267zM155.36 49.34l-4.635-2.911c-.103-.069-.236-.069-.339 0l-4.45 2.944c-.085.056-.136.152-.136.254 0 .102.051.197.136.254l1.794 1.184-2.115 1.286-4.45-2.876c-.103-.069-.236-.069-.339 0l-2.233 1.438-2.318-1.455c-.105-.06-.234-.06-.338 0l-4.434 2.994c-.09.053-.148.149-.152.254-.002.112.056.215.152.271l4.434 2.927c.055.015.113.015.169 0 .055.017.114.017.169 0l4.636-2.96c.089-.056.146-.15.152-.255-.004-.11-.06-.21-.152-.27l-1.692-1.083 1.827-1.202 8.46 5.533-1.692 1.168-2.3-1.438c-.098-.066-.225-.066-.322 0l-4.45 2.927c-.083.065-.133.165-.136.27.003.102.053.196.136.254l4.45 2.927c.055.017.114.017.169 0 .05.015.103.015.152 0l4.636-2.96c.097-.047.157-.147.153-.254-.001-.11-.059-.213-.153-.271l-1.692-1.117 1.794-1.269c.083-.058.133-.152.135-.254.004-.107-.055-.207-.152-.253l-4.044-2.623 2.098-1.286 2.098 1.387c.056.016.114.016.17 0 .055.017.114.017.169 0l4.636-2.96c.083-.066.133-.165.135-.271.02-.12-.034-.24-.135-.305zm-19.237 5.887l-3.892-2.571 3.892-2.572 4.044 2.555-4.044 2.588zm9.323 5.889l-3.892-2.572 3.892-2.572 4.06 2.538-4.06 2.606zm5.076-8.917l-3.892-2.572 3.892-2.572 4.06 2.538-4.06 2.606z" transform="translate(60 65) translate(117.053 76.14)"/>
            </g>
            <g opacity=".4">
                <path fill="#3BAB24" fill-rule="nonzero" d="M111.842 129.219L1.455 64.533 1.455 73.4 111.03 138.085 221.417 74.161 221.417 65.278z" transform="translate(60 65) translate(117.053)"/>
                <path fill="url(#prefix__c)" fill-rule="nonzero" d="M221.417 65.261L111.741 1.557 1.455 64.5 111.842 129.202z" transform="translate(60 65) translate(117.053)"/>
                <path stroke="#FFF" stroke-linecap="round" d="M84.838 28.29L84.838 28.29" transform="translate(60 65) translate(117.053)"/>
                <path stroke="#FFF" stroke-dasharray="0" stroke-linecap="round" d="M90.607 31.539L168.423 75.295" transform="translate(60 65) translate(117.053)"/>
                <path stroke="#FFF" stroke-linecap="round" d="M171.3 76.919L171.3 76.919M56.073 49.001L56.073 49.001" transform="translate(60 65) translate(117.053)"/>
                <path stroke="#FFF" stroke-dasharray="0" stroke-linecap="round" d="M61.843 52.249L139.642 96.005" transform="translate(60 65) translate(117.053)"/>
                <path stroke="#FFF" stroke-linecap="round" d="M142.535 97.629L142.535 97.629" transform="translate(60 65) translate(117.053)"/>
                <path fill="#FFF" fill-rule="nonzero" d="M176.274 58.544l1.794-1.134c3.908-2.487 3.384-6.633-1.219-9.255-4.602-2.623-11.488-2.724-15.397-.237l-1.692 1.134c-1.257-.153-2.53.096-3.638.71l-2.25 1.438c-4.518 2.86-3.892 7.665 1.421 10.694 5.313 3.029 13.3 3.164 17.817.304l2.25-1.438c.804-.418 1.19-1.354.914-2.216zm-1.218-2.86l-1.15.728-10.576-6.058 1.15-.727c3.093-1.569 6.761-1.506 9.798.169 2.91 1.658 3.265 4.348.778 5.888zm-2.843 6.04c-4.145 2.623-11.455 2.505-16.31-.27-4.857-2.775-5.432-7.157-1.287-9.797l2.234-1.421c1.54-.818 3.384-.818 4.924 0l12.284 7.022c1.472.829 1.692 2.166.389 2.96l-2.234 1.507z" transform="translate(60 65) translate(117.053)"/>
                <path fill="#FFF" fill-rule="nonzero" d="M164.548 55.6c-.837-.33-1.768-.33-2.605 0-.66.304-.948.795-.728 1.302l-2.335 1.202c-.207.076-.348.27-.355.49.048.224.198.412.406.508l.778.44c.265.144.562.22.863.22.278.007.552-.076.779-.237l1.86-1.472c.663.1 1.34-.019 1.93-.338.401-.19.614-.635.507-1.066-.18-.504-.588-.893-1.1-1.05z" transform="translate(60 65) translate(117.053)"/>
                <path stroke="#FFF" stroke-linejoin="round" d="M147.256 32.605L124.498 19.221 106.106 29.593 129.27 43.231z" transform="translate(60 65) translate(117.053)"/>
                <path stroke="#FFF" stroke-linecap="round" stroke-linejoin="round" d="M130.844 40.456L110.81 28.73M120.455 42.639L107.189 34.805" transform="translate(60 65) translate(117.053)"/>
                <path fill="#FFF" fill-rule="nonzero" d="M133.67 34.957c-.722-.576-1.512-1.059-2.353-1.438-1.53.709-3.006 1.529-4.416 2.453.751.59 1.583 1.069 2.47 1.422 1.493-.702 2.93-1.517 4.298-2.437zM124.752 27.53c-.717-.573-1.501-1.056-2.335-1.44-2.14 1.017-4.224 2.146-6.243 3.385.75.59 1.583 1.068 2.47 1.421 2.093-1.016 4.132-2.14 6.108-3.367zM135.513 29.729c-.714-.576-1.499-1.06-2.334-1.439-.22 0-9.882 5.381-9.882 5.55.751.59 1.583 1.069 2.47 1.422.271 0 9.746-5.398 9.746-5.533zM130.285 28.477c-.717-.573-1.501-1.055-2.335-1.439-.22 0-8.206 4.552-8.206 4.721.75.59 1.583 1.069 2.47 1.421.288 0 8.071-4.568 8.071-4.703z" transform="translate(60 65) translate(117.053)"/>
                <path stroke="#FFF" d="M119.93 37.732L116.174 40.016M115.294 34.991L111.538 37.292" transform="translate(60 65) translate(117.053)"/>
                <path fill="#FFF" fill-rule="nonzero" d="M92.79 43.671L95.244 44.855 94.617 48.493 75.887 49.661 78.391 39.001 84.956 38.849 91.47 42.842 91.064 46.26 81.487 46.327 81.487 45.194 88.526 45.075 88.763 43.417 83.941 40.456 80.946 40.456 79.237 47.563 92.299 47.123zM99.643 55.177L98.932 55.718 96.597 54.128 94.127 55.718 93.23 55.126 95.717 53.671 93.501 52.368 94.347 51.945 96.445 53.248 98.966 51.759 99.694 52.3 97.392 53.738zM111.978 62.774c.372 0 .676-.186.676-.406 0-.22-.304-.406-.676-.406-.373 0-.677.186-.677.406 0 .22.372.406.677.406zM110.76 59.796c-.878.102-1.725.385-2.488.829l2.504.812-.017-1.641zM107.51 61.268c-.257.29-.406.661-.422 1.049.004.21.05.417.135.609l2.589-.61-2.301-1.048zM109.744 64.635l.728-1.59-2.81.507c.595.526 1.31.898 2.082 1.083zM114.583 60.185c-.834-.308-1.716-.468-2.605-.474.203.779.423 1.574.423 1.574l2.182-1.1zM115.548 60.659l-1.895 1.269 3.045.287c-.117-.67-.543-1.247-1.15-1.556zM111.893 63.366l-1.32 1.455c.437.069.878.103 1.32.102.678.002 1.354-.078 2.013-.237l-1.54-1.32h-.473z" transform="translate(60 65) translate(117.053)"/>
                <path fill="#FFF" fill-rule="nonzero" d="M119.727 57.918c-.694-.119-8.95-1.997-8.95-1.997l-8.46 3.08-1.016 5.43 6.565 3.926 9.543-.49 5.245-4.823-2.927-5.126zm-.423 5.211c-.17 0-.474-.22-.474-.22h-1.387c-.36.97-1.117 1.74-2.081 2.115l.626.66c.2.133.325.353.338.592 0 .271-.457.22-.694.102-.16-.12-.268-.295-.304-.49l-.677-.576c-.89.288-1.822.43-2.758.423-.66-.002-1.319-.075-1.963-.22l-.338.372c.037.184.087.365.152.542.119.338-.39.304-.575.355-.186.05-.39-.203-.423-.474-.034-.27.338-.27.338-.27l.305-.66c-1.043-.269-1.973-.861-2.657-1.693l-2.047.339c-.525 0-.643 0-.694-.27-.05-.272.542-.305.66-.305l1.692-.373c-.093-.255-.144-.523-.152-.795.01-.508.183-1 .49-1.404l-1.86-.863s-.238-.356.118-.457c.355-.102 1.303.406 1.303.406l.998.322c.975-.766 2.15-1.236 3.384-1.354v-.728s-.457 0-.27-.423c.185-.423 1.031-.473 1.184-.203.085.212.085.449 0 .66.014.213.054.423.118.626h.119c1.263-.017 2.513.255 3.654.795l1.252-.643c0-.183.139-.337.322-.355.321 0 .897.237.863.457-.012.18-.133.334-.305.39-.186.01-.372.01-.558 0l-.83.558c.72.48 1.177 1.268 1.236 2.131.524.035 1.05.035 1.574 0 .236-.135.693.22.846.407.152.186-.339.49-.525.524z" transform="translate(60 65) translate(117.053)"/>
                <path fill="#FFF" fill-rule="nonzero" d="M114.786 64.381c.72-.267 1.32-.783 1.692-1.455h-3.011l1.32 1.455zM142.67 71.775c.663.256 1.289.597 1.862 1.015-.551.47-1.16.868-1.81 1.185-.617-.293-1.187-.675-1.693-1.134.494-.43 1.047-.79 1.642-1.066zM140.031 73.315c.664.252 1.29.594 1.861 1.015-.548.466-1.15.864-1.793 1.185-.647-.286-1.246-.668-1.777-1.134.512-.44 1.089-.8 1.71-1.066zM137.409 71.775c.663.252 1.29.594 1.86 1.015-.55.47-1.159.868-1.81 1.185-.615-.295-1.185-.677-1.692-1.134.496-.429 1.048-.787 1.642-1.066zM134.887 70.37c.663.257 1.288.598 1.862 1.016-.55.475-1.16.879-1.81 1.201-.648-.29-1.247-.679-1.777-1.15.52-.438 1.101-.797 1.725-1.066zM132.282 71.894c.662.255 1.288.597 1.861 1.015-.551.47-1.16.868-1.81 1.184-.618-.29-1.189-.672-1.693-1.133.492-.435 1.045-.794 1.642-1.066zM129.778 70.37c.662.257 1.287.598 1.86 1.016-.55.475-1.158.879-1.81 1.201-.618-.297-1.188-.684-1.692-1.15.496-.43 1.048-.788 1.642-1.066zM134.887 73.467c.663.256 1.288.597 1.862 1.016-.551.47-1.16.867-1.81 1.184-.647-.285-1.246-.668-1.777-1.134.515-.443 1.098-.803 1.725-1.066zM137.409 74.906c.663.251 1.29.593 1.86 1.015-.55.475-1.158.878-1.81 1.201-.612-.3-1.18-.682-1.692-1.134.492-.439 1.045-.803 1.642-1.082zM139.896 76.394c.662.256 1.288.597 1.861 1.016-.555.464-1.163.861-1.81 1.184-.643-.291-1.242-.673-1.777-1.134.516-.443 1.098-.803 1.726-1.066z" transform="translate(60 65) translate(117.053)"/>
                <path fill="#FFF" fill-rule="nonzero" d="M142.214 80.303c-1.16-.415-2.29-.907-3.384-1.472l-13.029-7.58c-.593.326-1.158.7-1.692 1.116-.571.397-1.065.896-1.455 1.473-.274.518-.375 1.111-.287 1.692.1.949.583 1.816 1.336 2.402 1.27.982 2.63 1.843 4.061 2.572 1.534.618 3.12 1.1 4.738 1.438 1.018.169 2.047.26 3.08.271h2.74c.88-.048 1.757-.155 2.623-.321l1.793-.525c.578.446 1.232.784 1.93.998.89.176 1.801.227 2.707.153.338-.153.575-.203.423-.423-.417-.516-.928-.946-1.506-1.27-.3-.13-.612-.231-.931-.304.31-.047.573-.252.694-.541.155-.55.196-1.126.118-1.692h-.304c-.461-.051-.927.037-1.337.253-.577.24-1.105.584-1.557 1.016-.372.253-.761.744-.761.744zM46.378 73.484c.099.2.336.289.542.203.2-.098.283-.34.186-.541-.743-1.299-2.093-2.133-3.587-2.217-1.934-.35-3.92.24-5.347 1.59-.423.388-.672.93-.691 1.502-.02.573.193 1.13.59 1.544.941.762 2.091 1.222 3.299 1.32h.237c.198-.004.366-.144.406-.338.03-.223-.118-.431-.339-.474h-.237c-1.034-.083-2.021-.465-2.842-1.1-.253-.265-.383-.624-.36-.99.022-.366.195-.706.478-.939 1.256-1.137 2.97-1.624 4.636-1.32 1.242.04 2.38.701 3.03 1.76zM56.429 78.07c-.056-.092-.147-.158-.251-.184-.105-.025-.216-.008-.308.048l-5.228 3.012.795-5.313c.02-.16-.052-.317-.186-.406-.129-.083-.294-.083-.423 0l-6.04 3.52c-.19.116-.257.36-.153.558.054.095.143.164.248.193.105.028.217.014.31-.041l5.314-3.096-.796 5.313c-.016.159.055.314.187.406.072.017.147.017.22 0 .066.017.136.017.203 0l5.955-3.384c.121-.045.212-.148.243-.273.03-.125-.004-.258-.09-.353zM60.913 80.828l-6.26 3.739c-.096.053-.165.142-.194.247-.029.105-.014.217.04.311.076.125.21.201.356.203.066.022.137.022.203 0l6.278-3.739c.095-.053.165-.143.19-.25.026-.106.006-.218-.055-.308-.044-.104-.13-.185-.235-.223-.106-.039-.223-.032-.323.02zM74.99 71.183l-2.386-7.191c-.04-.116-.147-.196-.27-.203l-12.437-1.184h-.203l-5.33 3.384c-.052.032-.093.079-.118.135v.101l2.437 7.327c.03.116.133.2.253.203l12.403 1.049c.091-.007.176-.05.237-.118.042-.086.042-.186 0-.271l-.914-3.384 5.939.423c.104.004.203-.04.27-.119.054-.038.095-.09.12-.152zm-2.91-6.768l1.218 3.655H71.42l-.152-.474c.016-.05.016-.103 0-.152l-.779-2.335-.253-.779 1.844.085zm-.88 4.907l-4.653-.22-.17-.677 4.603.17.22.727zm-.423-1.354l-4.788-.169c-.1-.004-.194.04-.254.118-.042.08-.042.175 0 .254l.22.897h-1.557l-1.201-4.01 6.768.406.812 2.504zm-4.535 2.437l-3.976-.288-.169-.609 3.96.186.185.71zm3.3-6.244l.203.61-6.768-.39-.254-.863 6.819.643zm-5.855 4.806h-1.692l-1.167-4.027 1.692.101 1.167 3.926zm-1.692-5.516l.271.88-1.692-.102-.27-.93 1.691.152zm-2.351 0l.812 2.791-4.958-.186 4.146-2.605zm9.272 10.913l-11.76-.998-2.233-6.768 5.719.22 1.066 3.654c.03.126.141.216.27.22l6.092.44.846 3.232zm-2.064-3.875l-.187-.744 4.924.237c.097-.003.19-.046.254-.119.034-.093.034-.194 0-.287l-.305-.93h1.879l.76 2.3-7.325-.457zM88.898 100.235c.04.11.14.187.257.198.116.011.229-.045.29-.145.06-.1.059-.226-.005-.324-.734-1.183-1.995-1.94-3.384-2.03-1.906-.352-3.868.184-5.33 1.455-.403.341-.644.837-.664 1.365-.019.528.185 1.04.563 1.41 1.2.891 2.668 1.345 4.162 1.286.168 0 .304-.137.304-.305 0-.168-.136-.304-.304-.304-1.328.055-2.638-.332-3.723-1.1-.252-.265-.38-.625-.351-.99.029-.365.212-.7.504-.922 1.324-1.122 3.082-1.588 4.788-1.27 1.174.073 2.246.694 2.893 1.676zM102.147 106.817l-6.277 3.74c-.139.092-.183.276-.102.422.053.1.159.16.27.153h.153l6.277-3.74c.145-.089.19-.278.102-.423-.089-.145-.278-.19-.423-.101v-.051zM94.753 106.462c-.194-.376-.44-.723-.728-1.033-1.336-1.066-1.692-1.793-1.59-2.115.101-.321.389-.338.846-.355 1.678-.018 3.225.903 4.01 2.386.033.074.095.132.171.16.076.03.161.026.235-.008.146-.069.219-.235.17-.389-.884-1.721-2.669-2.79-4.603-2.758-.762 0-1.252.305-1.404.778-.153.474.355 1.692 1.692 2.775.211.253.398.525.558.812.088.38-.043.778-.339 1.033-1.016.354-2.14.203-3.028-.407-1.235-.643-2.048-1.522-2.064-2.216 0-.08-.033-.158-.09-.215-.057-.058-.134-.09-.215-.09-.168 0-.305.137-.305.305 0 1.134 1.236 2.166 2.386 2.758.768.412 1.617.649 2.487.694.419.015.832-.097 1.185-.322.498-.408.721-1.064.575-1.692.025-.03.042-.064.05-.101zM114.651 93.332c.907.768 2.254.705 3.085-.145.832-.849.866-2.196.079-3.087-1.043-1.124-2.336-1.987-3.773-2.521-3.655-1.49-11.066-.559-10.948 4.28 0 0-.372.322-.49.085-3.232-3.384-11.692-2.842-13.807 1.692-.795 3.638 4.433 6.024 7.293 4.738 1.455-1.81-2.437-1.54-3.097-2.657-2.132-3.468 3.384-4.534 5.668-3.282 2.674 2.013-.22 4.382-.49 5.076-2.944 7.174 9.78 9.018 14.145 7.09-.322.236-2.555-1.371-2.555-1.693-2.927.779-10.626-1.252-7.394-5.313.964-1.218 2.03-2.182 1.895-3.502 2.132 2.656 8.46.964 9.086 5.076 1.302-.131 2.616.085 3.807.626 1.201-6.26-8.206-4.518-10.355-7.902.118-3.384 5.956-3.062 7.445-.964.524.694-.66 2.132.406 2.403z" transform="translate(60 65) translate(117.053)"/>
                <path fill="#FFF" fill-rule="nonzero" d="M113.923 100.506c-1.336 0-2.436.609-2.436 1.37 0 .762 1.1 1.388 2.436 1.388 1.337 0 2.437-.626 2.437-1.388 0-.761-1.083-1.37-2.437-1.37z" transform="translate(60 65) translate(117.053)"/>
            </g>
        </g>
    </g>
</svg>
