<?xml version="1.0" encoding="UTF-8"?> <svg xmlns="http://www.w3.org/2000/svg" xmlns:xlink="http://www.w3.org/1999/xlink" width="176px" height="20px" viewBox="0 0 176 20" version="1.1"><!-- Generator: Sketch 64 (93537) - https://sketch.com --><title>Intesa logo mobile</title><desc>Created with Sketch.</desc><g id="Mobile" stroke="none" stroke-width="1" fill="none" fill-rule="evenodd"><g id="Home-footer-collapsed" transform="translate(-19.000000, -2483.000000)" fill="#FFFFFF"><g id="Group-4" transform="translate(19.000000, 2483.000000)"><g id="Intesa-logo-mobile"><path d="M147.687727,16.1667961 C144.599137,16.1667961 142.747841,13.1312401 142.747841,9.30453682 C142.747841,4.72441207 144.855562,3.54780607 146.706311,3.54780607 C149.346567,3.54780607 151.421483,6.10440907 151.421483,10.2252638 C151.421483,15.5407673 148.814579,16.1667961 147.687727,16.1667961 M147.192372,2.59482082 C142.109237,2.59482082 140.196159,6.70036657 140.196159,9.87698407 C140.196159,13.1662321 142.161725,17.1602408 147.022333,17.1602408 C151.324708,17.1602408 154.035495,13.7971816 154.035495,9.54291982 C154.035495,5.28811132 151.410001,2.59482082 147.192372,2.59482082" id="Fill-1"></path><path d="M94.244555,17.1946314 C95.3757808,17.1946314 96.5644153,17.0267791 97.6130818,16.4313684 C99.1226585,15.5565684 99.552404,14.2727994 99.519599,13.1940616 C99.4676578,11.4247786 98.491709,10.1792821 95.880431,8.4499119 L95.272445,8.05898565 C93.465983,6.8862069 92.956412,6.2344809 92.9318083,5.37772365 C92.8979098,4.26235365 93.8339458,3.4624584 95.4118663,3.4624584 C96.7973308,3.4624584 97.4315608,4.0201434 97.7628913,4.3744374 C98.2243483,4.85721765 98.3490073,5.4340389 98.3544748,5.60079765 C98.3610358,5.8244184 98.428286,5.93650215 98.5780955,5.93650215 C98.7470413,5.93650215 98.8077305,5.7883329 98.7946085,5.37772365 C98.7514153,3.9271959 98.8203058,3.38755365 98.813198,3.1442499 C98.8093708,3.0152169 98.7005675,2.95890165 98.5086583,2.92172265 C97.9498798,2.79268965 97.0493825,2.60679465 95.6622778,2.60679465 C92.6994395,2.60679465 90.7819873,4.07536515 90.8426765,6.1229439 C90.88751,7.63033365 91.7371595,8.93269215 94.130831,10.5330294 L95.1319303,11.2033449 C96.9378455,12.3930729 97.2839383,13.2684196 97.3101823,14.1798519 C97.3397068,15.1667356 96.4364758,16.3006951 94.5173833,16.3006951 C93.1953418,16.3006951 91.9225078,15.7982319 91.41239,14.4215154 C91.2948388,14.1054939 91.1997043,13.7156611 91.1909563,13.4723574 C91.1865823,13.3241881 91.160885,13.1563359 90.9689758,13.1563359 C90.7983898,13.1563359 90.740981,13.3613671 90.7273123,13.6396629 C90.7152838,13.9381884 90.6627958,15.0551986 90.6939605,16.0781679 C90.7054423,16.4860434 90.7726925,16.5811779 91.1176918,16.7102109 C92.0455265,17.0639581 93.0083533,17.1946314 94.244555,17.1946314" id="Fill-3"></path><path d="M136.130198,11.2017047 L133.143849,11.1853022 C133.111044,11.1853022 133.043794,11.1453894 133.10667,11.0568159 C133.392074,10.6429262 135.166824,8.08741665 135.931727,6.99282315 C135.982028,6.9201054 136.052012,6.94470915 136.054199,7.0163334 C136.07771,7.56363015 136.259231,11.0907144 136.259231,11.0907144 C136.259231,11.1448427 136.222598,11.2017047 136.130198,11.2017047 M105.386445,11.2099059 L102.207641,11.2099059 C102.132189,11.2099059 102.09337,11.1574179 102.084622,11.0830599 L102.218029,7.4056194 C102.220763,7.3400094 102.212561,7.25088915 102.26833,7.24432815 C102.324645,7.2372204 102.334487,7.2962694 102.390802,7.36351965 C102.533504,7.54394715 105.437293,11.1011026 105.437293,11.1011026 C105.477752,11.1574179 105.478846,11.2099059 105.386445,11.2099059 M140.728365,16.4368359 C140.507478,16.4368359 140.239024,16.4198866 139.984238,16.3630246 C139.627211,16.2722641 139.288226,15.8671224 139.133495,14.2175776 C138.874336,11.4313396 138.384995,3.94961265 138.288767,2.9386719 C138.255415,2.6018739 137.915883,2.52915615 137.706478,2.68333965 C137.550107,2.7976104 137.335235,3.1234734 137.118722,3.4198119 C133.824006,7.91245665 132.007703,10.3411201 128.658859,14.8693036 C128.075477,15.6593574 127.600898,16.5215821 126.486074,16.4680006 C126.010402,16.4450371 125.827241,15.9901411 125.773112,15.4778364 C125.682352,14.6883294 125.682352,13.2410821 125.682352,11.5549051 L125.682352,4.2246279 C125.682352,4.02397065 125.737027,3.9129804 125.827241,3.8758014 C125.993453,3.82057965 126.267374,3.80417715 126.54403,3.80417715 C126.963934,3.80417715 128.037751,3.8583054 128.696038,4.4608239 C129.722288,5.37881715 129.711353,6.6237669 129.711353,7.2273789 C129.711353,9.09890415 128.226926,10.2913659 127.200677,10.2913659 C126.814671,10.2913659 126.486621,10.3460409 126.486621,10.4931166 C126.486621,10.6205094 126.616201,10.6407391 126.707508,10.6582351 C126.799909,10.6746376 127.580668,10.7041621 127.672522,10.7041621 C130.275052,10.7041621 132.136189,9.14045715 132.181569,6.2694729 C132.194691,5.29899165 131.66325,4.4783199 131.264669,4.08848715 C130.739789,3.5783694 129.566464,3.0152169 127.275035,3.0152169 C126.431946,3.0152169 125.370704,3.07153215 124.618376,3.07153215 C124.171682,3.07153215 121.627654,2.9627289 121.511196,2.9627289 C120.888995,2.9627289 120.26734,3.01795065 119.904845,3.01795065 C119.559845,3.01795065 118.771432,2.9627289 117.920142,2.9627289 C117.673558,2.9627289 117.49313,2.98186515 117.49313,3.12948765 C117.49313,3.2382909 117.55874,3.29241915 117.756664,3.29241915 C117.984659,3.29241915 118.378865,3.29241915 118.624903,3.4012224 C119.018016,3.58657065 119.166185,3.93211665 119.182588,5.0502204 L119.230155,12.1716391 C118.951313,11.8780344 110.840276,2.89657215 110.6008,2.71395765 C110.291339,2.4815889 109.973678,2.69646165 109.973678,2.98623915 L109.670231,12.1978831 C106.79378,8.6248719 102.234978,2.9342979 102.111959,2.7549639 C101.923877,2.4815889 101.466248,2.5657884 101.434536,2.95780815 C101.39517,3.4799544 100.60785,14.8523544 100.60785,14.8523544 C100.579419,15.7583191 100.456947,16.3755999 99.64393,16.4822161 C99.501775,16.5024459 99.2486297,16.5188484 99.0802307,16.5188484 C98.9320615,16.5188484 98.8713722,16.5560274 98.9129252,16.6631904 C98.9676002,16.8097194 99.0922592,16.8463516 99.3350162,16.8463516 C100.30167,16.8463516 101.301676,16.7911299 101.507254,16.7911299 C102.083528,16.7911299 102.903107,16.8463516 103.497424,16.8463516 C103.700815,16.8463516 103.799777,16.8097194 103.745648,16.6631904 C103.704642,16.5560274 103.635205,16.5188484 103.412131,16.5188484 L103.133288,16.5188484 C102.557561,16.5188484 102.302228,16.2837459 102.178116,15.9573361 C102.09501,15.7402764 102.023933,15.3050634 102.039242,14.8523544 L102.064939,12.2623996 C102.060018,12.1514094 102.083528,12.1164174 102.178116,12.1164174 L106.128385,12.1164174 C106.220239,12.1164174 106.290223,12.1514094 106.3613,12.2449036 L109.29188,15.8436121 C109.368972,15.9387466 109.405604,16.1076924 109.260716,16.2498474 C109.232831,16.2766381 109.137697,16.3400611 109.067713,16.3630246 C108.838078,16.4368359 108.48269,16.4176996 108.268364,16.4176996 C108.103246,16.4176996 108.097778,16.5221289 108.097778,16.6325724 C108.097778,16.7982376 108.248681,16.8332296 108.462461,16.8332296 C109.315937,16.8332296 110.087402,16.8146401 110.233384,16.8146401 L111.993919,16.8113596 C112.557071,16.8222946 113.09398,16.8452581 113.422577,16.8463516 C114.145927,16.8463516 114.262385,16.8097194 114.20935,16.6631904 C114.161236,16.5357976 114.216458,16.4723746 114.066648,16.4723746 C113.844121,16.4723746 113.821704,16.4833096 113.522085,16.4280879 C113.09726,16.3384209 112.59261,15.8157279 111.270569,14.1842259 L110.993366,13.8392266 L110.884563,7.19293365 C111.181448,7.54176015 118.508992,15.5155621 119.542896,16.6123426 C119.722777,16.8146401 119.920154,17.0163909 120.098941,17.0163909 C120.248204,17.0163909 120.31272,16.8512724 120.31272,16.4472241 L120.493148,4.9025979 C120.510097,3.87853515 120.630382,3.4613649 121.098947,3.34818765 C121.275,3.3060879 121.7545,3.29679315 122.110981,3.37224465 C122.714593,3.4996374 122.862762,3.79324215 122.899941,4.4159904 C122.936027,5.00374665 122.936027,5.5160514 122.936027,8.3011959 L122.93712,11.5270209 C122.93712,13.2121044 122.93712,14.6604451 122.843626,15.4302691 C122.770908,15.9606166 122.679054,16.3652116 122.312732,16.4379294 C122.148707,16.4745616 121.927273,16.5122874 121.652804,16.5122874 C121.433558,16.5122874 121.359746,16.5664156 121.359746,16.6577229 C121.359746,16.7856624 121.489326,16.8403374 121.725522,16.8403374 C122.459261,16.8403374 124.141064,16.7577781 124.22745,16.7626989 C125.90816,16.8512724 127.382198,16.8261219 128.194121,16.7987844 C128.864437,16.7752741 129.855148,16.8857176 130.104466,16.8857176 C130.307857,16.8857176 130.475162,16.8556464 130.477349,16.7009161 C130.477349,16.6139829 130.423221,16.5538404 130.249901,16.5538404 L129.974339,16.5538404 C129.406813,16.5538404 129.47461,16.3006951 129.673627,16.0114644 L132.281078,12.2487309 C132.352702,12.1382874 132.401909,12.1011084 132.493763,12.1011084 L136.178312,12.0836124 C136.269619,12.0836124 136.312265,12.1202446 136.319373,12.2120986 L136.465902,16.0393486 C136.485585,16.2596889 136.304064,16.4264476 136.163549,16.4608929 C135.973827,16.4805759 135.851355,16.4980719 135.856823,16.6593631 C135.862837,16.8146401 136.018661,16.8386971 136.354912,16.8299491 C137.01976,16.8157336 137.531518,16.7987844 138.282752,16.8097194 C138.948147,16.8190141 139.629944,16.8736891 139.988066,16.8736891 C140.665489,16.8736891 140.902232,16.7823819 140.950892,16.6358529 C140.992445,16.5084601 140.874894,16.4368359 140.728365,16.4368359" id="Fill-5"></path><path d="M169.338809,16.1667961 C166.248031,16.1667961 164.397829,13.1312401 164.397829,9.30453682 C164.397829,4.72441207 166.505003,3.54780607 168.356299,3.54780607 C170.995461,3.54780607 173.071471,6.10440907 173.071471,10.2252638 C173.071471,15.5407673 170.465114,16.1667961 169.338809,16.1667961 M168.840719,2.59482082 C163.759772,2.59482082 161.8456,6.70036657 161.8456,9.87698407 C161.8456,11.4166321 162.276439,13.1088233 163.231064,14.4756983 C163.152879,14.7977341 162.971358,15.1793656 162.78929,15.3761956 C162.332207,15.8720978 161.181299,15.8879536 160.210817,15.8879536 C158.780519,15.8879536 158.682651,15.7600141 158.372097,15.4866391 C157.987185,15.1580423 157.987185,13.8928628 157.987185,11.5456651 L157.987185,8.32148032 C157.987185,5.53633582 157.987185,5.02293757 158.023817,4.43572807 C158.060996,3.79493707 158.206979,3.48328957 158.701241,3.39088882 C158.921034,3.35535007 159.215732,3.33621382 159.417483,3.33621382 C159.636183,3.33621382 159.747173,3.30176857 159.747173,3.17164207 C159.747173,3.04370257 159.61814,3.00707032 159.361168,3.00707032 C158.647112,3.00707032 156.900246,3.06174532 156.460659,3.06174532 C155.965304,3.06174532 154.766281,3.00707032 153.904603,3.00707032 C153.629588,3.00707032 153.502195,3.04370257 153.502195,3.17164207 C153.502195,3.30176857 153.610998,3.33621382 153.812749,3.33621382 C154.051132,3.33621382 154.271472,3.35535007 154.418001,3.39088882 C155.022707,3.51882832 155.169782,3.81352657 155.206415,4.43572807 C155.243047,5.02293757 155.243047,5.53633582 155.243047,8.32148032 L155.243047,11.5456651 C155.243047,13.2345758 155.243047,14.6796361 155.151193,15.4511003 C155.077928,15.9809011 154.987168,16.3844026 154.620299,16.4587606 C154.454087,16.4953928 154.23484,16.5303848 153.959278,16.5303848 C153.740578,16.5303848 153.666767,16.5872468 153.666767,16.6785541 C153.666767,16.8054001 153.7958,16.8617153 154.034183,16.8617153 C154.766281,16.8617153 155.965304,16.8054001 156.387941,16.8054001 C157.871821,16.8054001 159.54761,16.9158436 162.184038,16.9158436 C163.13757,16.9158436 163.231064,16.8256298 163.339868,16.4204881 C163.431722,16.0853303 163.517015,15.4139213 163.567316,14.9158321 C164.669017,16.2395138 166.335511,17.1602408 168.67232,17.1602408 C172.975243,17.1602408 175.684389,13.7971816 175.684389,9.54291982 C175.684389,5.28811132 173.059442,2.59482082 168.840719,2.59482082" id="Fill-7"></path><path d="M54.0151821,11.4483983 L51.0288336,11.433636 C50.9976689,11.433636 50.9298719,11.3948167 50.9916546,11.3056965 C51.2781516,10.8896197 53.0512619,8.336844 53.8183521,7.241157 C53.8681063,7.16843925 53.9375436,7.19140275 53.9408241,7.26466725 C53.9637876,7.81251075 54.1442151,11.3390483 54.1442151,11.3390483 C54.1442151,11.3931765 54.1070361,11.4483983 54.0151821,11.4483983 M58.6155366,16.6851698 C58.3930094,16.6851698 58.1256486,16.669314 57.8692229,16.6113585 C57.5138354,16.5216915 57.1743036,16.1154562 57.0195734,14.4653647 C56.7604139,11.6796735 56.2727129,4.19739975 56.1737511,3.18700575 C56.1425864,2.8485675 55.8014144,2.7785835 55.5914624,2.93058 C55.4367321,3.0453975 55.2207658,3.37180725 55.0042529,3.66814575 C52.4667861,7.13016675 50.8030259,9.36856125 48.6439101,12.2838322 C48.3142199,10.952496 47.2753949,9.8535285 45.1233869,8.4276045 L44.5148541,8.037225 C42.7094856,6.86444625 42.2004614,6.213267 42.1747641,5.35760325 C42.1403188,4.24113975 43.0763549,3.440151 44.6548221,3.440151 C46.0397399,3.440151 46.6750634,3.9989295 47.0058471,4.35213 C47.4673041,4.8365505 47.5908696,5.412825 47.5968839,5.58067725 C47.6034449,5.80375125 47.6706951,5.915835 47.8194111,5.915835 C47.9894503,5.915835 48.0501396,5.7660255 48.0370176,5.35760325 C47.9938243,3.9048885 48.0627149,3.36524625 48.0561539,3.1241295 C48.0523266,2.994003 47.9440701,2.93878125 47.7505206,2.90160225 C47.1922889,2.770929 46.2917916,2.58448725 44.9057804,2.58448725 C41.9418486,2.58448725 40.0243964,4.0557915 40.0856323,6.10118325 C40.1310126,7.608573 40.9801154,8.91038475 43.3732401,10.512909 L44.3743394,11.1815843 C46.1802546,12.3724057 46.5263474,13.2461122 46.5542316,14.158638 C46.5832094,15.144975 45.6794316,16.2805747 43.7597923,16.2805747 C42.4377509,16.2805747 41.1649169,15.777018 40.6542524,14.4003015 C40.5383414,14.08428 40.4421133,13.692807 40.4344589,13.4505967 C40.4295381,13.3029742 40.4032941,13.1356688 40.2119316,13.1356688 C40.0413456,13.1356688 40.0030731,13.3412467 39.9702681,13.618449 C39.9489449,13.7972362 39.8838816,14.2313557 39.8620116,14.353281 C39.7324318,15.1110765 39.5104514,15.4998157 39.0304049,15.722343 C38.5487181,15.9459638 37.7706929,15.9459638 37.2906464,15.9459638 C35.4021719,15.9459638 34.0320163,15.6671212 33.9953841,14.3910067 C33.9767946,13.8530047 33.9953841,12.1515187 33.9953841,11.521116 L33.9953841,10.0596532 C33.9953841,9.9475695 34.0139736,9.87485175 34.1058276,9.87485175 C34.5492419,9.87485175 37.1851236,9.8928945 37.5361371,9.92952675 C38.2212149,10.003338 38.4803744,10.281087 38.5733218,10.6512367 C38.6279969,10.8918067 38.6279969,11.1334702 38.6471331,11.317725 C38.6471331,11.4106725 38.6843121,11.4850305 38.8144386,11.4850305 C38.9790103,11.4850305 38.9790103,11.2799992 38.9790103,11.1334702 C38.9790103,11.0044372 39.0161893,10.263591 39.0539151,9.8928945 C39.1091368,8.949204 39.2026311,8.65341225 39.2026311,8.542422 C39.2026311,8.43033825 39.1468626,8.393706 39.0725046,8.393706 C38.9790103,8.393706 38.9057459,8.48556 38.7772596,8.634276 C38.6105009,8.81962425 38.3311116,8.87429925 37.8887908,8.91147825 C37.4623258,8.949204 34.5311991,8.949204 34.1244171,8.949204 C34.0139736,8.949204 33.9953841,8.87429925 33.9953841,8.74526625 L33.9953841,4.063446 C33.9953841,3.9333195 34.0320163,3.87809775 34.1244171,3.87809775 C34.4940201,3.87809775 37.2403454,3.91473 37.5552734,3.95245575 C38.4803744,4.063446 38.6657226,4.2854265 38.7958491,4.61839725 C38.8871564,4.84037775 38.9057459,5.15530575 38.9057459,5.28543225 C38.9057459,5.4510975 38.9434716,5.5429515 39.0725046,5.5429515 C39.2026311,5.5429515 39.2398101,5.4336015 39.2583996,5.3395605 C39.2944851,5.11758 39.3316641,4.30346925 39.3502536,4.11757425 C39.4054754,3.2662845 39.4973294,3.044304 39.4973294,2.915271 C39.4973294,2.82287025 39.4803801,2.7479655 39.3874326,2.7479655 C39.2944851,2.7479655 39.1840416,2.80428075 39.0905474,2.82287025 C38.9434716,2.86004925 38.6471331,2.89722825 38.2955728,2.932767 C37.9429191,2.95245 33.4579288,2.95245 32.8657986,2.95245 C32.6071859,2.95245 32.1818144,2.932767 31.7001276,2.915271 C31.3195896,2.915271 30.8887506,2.9032425 30.4699401,2.89941525 C30.4518974,2.80537425 30.4147184,2.7654615 30.3365331,2.7654615 C30.1932846,2.7654615 29.7504171,2.94752925 28.5754514,2.94752925 L22.3452351,2.94752925 C21.7388894,2.94752925 21.0428766,2.91144375 20.5119824,2.85567525 C20.0532591,2.82068325 19.8772056,2.7042255 19.7290363,2.7042255 C19.6273408,2.7042255 19.5655581,2.74195125 19.5141636,2.9426085 L19.3326426,2.9426085 C19.0882454,2.9426085 18.8438481,2.95080975 18.6131196,2.96174475 C18.2145389,2.97596025 17.8777409,2.994003 17.6628681,2.9972835 C17.2905314,2.9907225 16.5529656,2.9426085 15.7585378,2.9426085 C15.5130471,2.9426085 15.3348066,2.961198 15.3348066,3.10718025 C15.3348066,3.2159835 15.3998699,3.27120525 15.5950596,3.27120525 C15.8236011,3.27120525 16.2156208,3.27120525 16.4605649,3.38164875 C16.8104849,3.54567375 16.9652151,3.838185 17.0051278,4.70205 L17.0625366,12.1504253 C16.7858811,11.8573672 8.7125706,2.87426475 8.47473435,2.692197 C8.1669141,2.45982825 7.84925235,2.674701 7.84925235,2.96502525 L7.6923351,7.7846265 L7.4681676,14.152077 C7.4506716,15.7425727 7.13847735,16.0564072 6.71310585,16.3117395 C6.5201031,16.4298375 6.17619735,16.4850592 5.9394546,16.4959942 C5.8672836,16.4992747 5.10894135,16.5326265 4.7847186,16.4566282 C4.2948306,16.3379835 4.0006791,16.006653 3.9449106,15.512391 C3.8705526,14.7217905 3.8705526,13.27509 3.8705526,11.492685 L3.8705526,8.26521975 C3.8705526,5.47679475 3.8705526,4.9633965 3.9088251,4.3750935 C3.9449106,3.73375575 4.0925331,3.42101475 4.5867951,3.3297075 C4.8044016,3.2925285 4.94929035,3.27339225 5.13190485,3.27339225 C5.31561285,3.27339225 5.4233226,3.238947 5.4233226,3.08968425 C5.4233226,2.9819745 5.2778871,2.943702 5.04114435,2.943702 C4.34677185,2.943702 3.26858085,2.998377 2.8142316,2.998377 C2.2838841,2.998377 1.13406885,2.943702 0.4402431,2.943702 C0.14773185,2.943702 0.00010935,2.9819745 0.00010935,3.08968425 C0.00010935,3.238947 0.11055285,3.27339225 0.29426085,3.27339225 C0.51077385,3.27339225 0.75025035,3.2925285 0.9520011,3.3472035 C1.3522221,3.4390575 1.5370236,3.750705 1.5709221,4.3750935 C1.6081011,4.9633965 1.6081011,5.47679475 1.6081011,8.26521975 L1.6081011,11.492685 C1.6081011,13.27509 1.6081011,14.7217905 1.5184341,15.4921612 C1.4626656,16.0252425 1.3522221,16.3352497 0.98644635,16.4117947 C0.8240616,16.4473335 0.60372135,16.483419 0.3308931,16.483419 C0.11055285,16.483419 0.03728835,16.5391875 0.03728835,16.6315882 C0.03728835,16.7600745 0.1657746,16.8152962 0.4030641,16.8152962 C1.13406885,16.8152962 2.2838841,16.7600745 2.70542835,16.7600745 C3.1958631,16.7600745 5.94656235,16.8131093 6.0334956,16.8131093 C6.97991985,16.8131093 7.93782585,16.7841315 8.1002106,16.7841315 C8.44630335,16.7841315 9.17348085,16.8393532 10.3561011,16.8393532 C10.6103398,16.8393532 10.7749116,16.8021742 10.7749116,16.6556452 C10.7749116,16.546842 10.6661084,16.5113033 10.4649043,16.5113033 C10.1745801,16.5113033 9.8290341,16.4916202 9.5195736,16.3822702 C9.15598485,16.253784 8.91869535,15.779205 8.88370335,14.353281 L8.81590635,10.753479 L8.75795085,7.17171975 C9.05210235,7.518906 16.3462941,15.4932547 17.3741841,16.5911287 C17.5540649,16.791786 17.7498013,16.9935367 17.9285886,16.9935367 C18.0751176,16.9935367 18.1412743,16.8295117 18.1412743,16.4260103 L18.3206084,4.881384 C18.3227953,4.73758875 18.3271694,4.60527525 18.3342771,4.48389675 C18.3905924,3.787884 18.5458693,3.5309115 18.8657181,3.38164875 C19.0368509,3.304557 19.2774208,3.2837805 19.4857326,3.27557925 C19.4737041,3.80538 19.4857326,4.8759165 19.4857326,5.1055515 C19.4857326,5.3089425 19.5229116,5.39915625 19.6513978,5.39915625 C19.7596544,5.39915625 19.8154229,5.325345 19.8526018,5.17936275 C19.8886874,5.0311935 19.9805413,4.80975975 20.1637026,4.533651 C20.4376244,4.129056 20.8799451,4.0361085 21.9450141,3.997836 L23.7799071,3.9245715 L23.7799071,11.4822967 C23.7799071,13.1783152 23.7799071,14.6337637 23.6891466,15.4079617 C23.6344716,15.9437767 23.4163184,16.3472782 23.0494491,16.4238232 C22.8837839,16.4588152 22.2943873,16.4959942 22.0193721,16.4959942 C21.8001253,16.4959942 21.7268609,16.5506692 21.7268609,16.6441635 C21.7268609,16.772103 21.8553471,16.8284182 22.0942768,16.8284182 C22.8258284,16.8284182 24.4589706,16.772103 24.8794213,16.772103 C25.3933664,16.772103 26.5508361,16.8284182 27.7597004,16.8284182 C27.9625446,16.8284182 28.1112606,16.772103 28.1112606,16.6441635 C28.1112606,16.5506692 28.0161261,16.4959942 27.8160156,16.4959942 C27.5415471,16.4959942 27.1364054,16.4588152 26.8799796,16.4238232 C26.3315894,16.3472782 26.2211458,15.9437767 26.1653773,15.427098 C26.0729766,14.6337637 26.0729766,13.1783152 26.0729766,11.4822967 L26.0729766,3.9245715 L27.8777983,3.98088675 C29.5109406,4.01806575 30.0675321,4.533651 30.1041644,5.012604 L30.1216603,5.21544825 C30.1424369,5.4926505 30.1779756,5.583411 30.3250513,5.583411 C30.4354948,5.583411 30.4704868,5.47351425 30.4896231,5.28871275 C30.4896231,4.8431115 30.4847024,3.7080585 30.4847024,3.2422275 C30.6235768,3.25152225 30.7515164,3.265191 30.8302484,3.28542075 C31.4404214,3.416094 31.5891373,3.711339 31.6268631,4.33955475 C31.6624019,4.9327785 31.6624019,5.4510975 31.6624019,8.26412625 L31.6624019,11.521116 C31.6624019,13.224789 31.6624019,14.6867985 31.5705479,15.4648237 C31.4961899,16.000092 31.4048826,16.409061 31.0336393,16.481232 C30.8674273,16.518411 30.6454469,16.5561368 30.3671511,16.5561368 C30.1457173,16.5561368 30.0708126,16.610265 30.0708126,16.7037592 C30.0708126,16.8327923 30.2009391,16.8885607 30.4420559,16.8885607 C30.8122056,16.8885607 31.2927989,16.8699712 31.7187171,16.8519285 C32.1626781,16.8519285 32.5694601,16.8327923 32.7733979,16.8327923 C33.3294426,16.8327923 33.9029833,16.8519285 34.6985046,16.8885607 C35.4940258,16.907697 37.5858914,16.944876 38.9740896,16.944876 C39.6777569,16.944876 39.8434221,16.944876 39.9724551,16.463736 C39.9773759,16.4467867 39.9822966,16.4249167 39.9866706,16.4035935 C40.0391586,16.5419212 40.1468684,16.6086247 40.3601009,16.688997 C41.2884824,17.0416507 42.2513091,17.1734175 43.4880576,17.1734175 C43.8964799,17.1734175 44.3125566,17.150454 44.7269931,17.0930452 C45.2742899,17.0985127 45.7379339,17.0930452 46.0807461,17.0815635 C46.7516084,17.0591468 47.7406791,17.0815635 47.9910906,17.0815635 C48.1933881,17.0815635 48.3606936,17.1050737 48.3628806,16.94925 C48.3639741,16.8628635 48.3098459,16.802721 48.1359794,16.802721 L47.8609641,16.802721 C47.2928909,16.802721 47.3612346,16.549029 47.5591581,16.260345 L50.1666089,12.496518 C50.2387799,12.3882615 50.2874406,12.3505357 50.3792946,12.3505357 L54.0649364,12.3319462 C54.1556969,12.3319462 54.1977966,12.369672 54.2065446,12.461526 L54.3519801,16.288776 C54.3716631,16.5085695 54.1895954,16.673688 54.0507209,16.7092267 C53.8604519,16.7278163 53.7363396,16.7453122 53.7423539,16.907697 C53.7494616,17.0624272 53.9058321,17.0859375 54.2409899,17.078283 C54.9058379,17.0640675 55.4165024,17.0465715 56.1682836,17.0580533 C56.8331316,17.067348 57.5160224,17.1231165 57.8746904,17.1231165 C58.5521136,17.1231165 58.7877629,17.0318092 58.8358769,16.8841867 C58.8779766,16.756794 58.7620656,16.6851698 58.6155366,16.6851698" id="Fill-9"></path><path d="M84.763746,-0.00010935 L84.763746,19.7353787 L65.0288048,19.7353787 L65.0288048,-0.00010935 L84.763746,-0.00010935 Z M80.3402105,7.31261723 L80.3320092,7.36674548 C80.2784277,7.36674548 80.2330475,7.37822723 80.1953217,7.39736348 L80.0061462,7.39736348 L79.831733,7.39845698 L79.8525095,7.46570723 L79.8475887,7.47008123 C79.7715905,7.44875798 79.711448,7.49632523 79.6797365,7.52366273 C79.6737222,7.52858348 79.6671612,7.53350423 79.6638807,7.53623798 C79.6010045,7.54826648 79.5665592,7.57287023 79.540862,7.59309998 C79.5222725,7.60622198 79.5173517,7.61114273 79.4998557,7.61278298 L79.4697845,7.61442323 L79.4501015,7.63848023 C79.4254977,7.67073848 79.3429385,7.70518373 79.2975582,7.72650698 L79.2013302,7.76860673 L79.2226535,7.78883648 C79.2078912,7.79594423 79.1914887,7.80578573 79.1761797,7.81945448 L79.0832322,7.81945448 L79.0832322,7.89381248 C79.0804985,7.89381248 79.075031,7.89217223 79.0733907,7.89162548 L79.020356,7.86920873 C79.0165287,7.86756848 78.983177,7.91349548 78.983177,7.91349548 C78.9268617,7.99277423 78.8530505,8.07150623 78.7748652,8.15406548 C78.683558,8.25084023 78.589517,8.35034873 78.517346,8.46024548 L78.4943825,8.49305048 L78.5091447,8.52476198 C78.4921955,8.53515023 78.4479087,8.56248773 78.4402542,8.61497573 C78.4047155,8.65324823 78.3965142,8.70573623 78.3915935,8.73908798 C78.3899532,8.75002298 78.3872195,8.76533198 78.3850325,8.77025273 C78.3473067,8.81781998 78.3374652,8.86429373 78.331451,8.89819223 C78.3276237,8.92552973 78.32489,8.94083873 78.3128615,8.95505423 L78.2674812,9.01355648 L78.287711,9.02886548 C78.2734955,9.06331073 78.2734955,9.09994298 78.2734955,9.12126623 C78.2734955,9.13056098 78.272402,9.14422973 78.2718552,9.15188423 L78.241784,9.16938023 L78.2488917,9.21585398 C78.261467,9.30716123 78.2499852,9.38972048 78.23741,9.47993423 C78.2259282,9.56522723 78.21554,9.65161373 78.224288,9.74893523 C78.1887492,9.80251673 78.1985907,9.86593973 78.2035115,9.90530573 C78.2056985,9.91897448 78.208979,9.93756398 78.2073387,9.94521848 L78.1614117,9.98185073 L78.1942167,10.035979 C78.2188205,10.077532 78.1991375,10.1447822 78.180548,10.2076585 C78.163052,10.2683477 78.1417287,10.344346 78.163052,10.4072222 C78.1581312,10.4126897 78.152117,10.4181572 78.1471962,10.425265 C78.1395417,10.4367467 78.1335275,10.4553362 78.1340742,10.4793932 C78.1340742,10.5275072 78.1286067,10.5422695 78.1264197,10.5471902 L78.0941615,10.6166275 L78.0881472,10.6445117 L78.1493832,10.6871582 C78.1428222,10.729258 78.1471962,10.7669837 78.1526637,10.8008822 C78.1597715,10.8479027 78.1625052,10.8681325 78.1482897,10.8856285 L78.1094705,10.956706 L78.1471962,11.0009927 L78.1471962,11.0124745 C78.145556,11.0436392 78.1428222,11.1005012 78.1816415,11.1420542 C78.182735,11.1502555 78.184922,11.1573632 78.1860155,11.164471 L78.117125,11.1830605 L78.1625052,11.280382 C78.1614117,11.286943 78.1592247,11.295691 78.1570377,11.304439 C78.1493832,11.3323232 78.1373547,11.3891852 78.1663325,11.4394862 C78.1444625,11.4952547 78.1581312,11.55157 78.1679727,11.5876555 L78.1745337,11.621554 L78.1745337,11.621554 C78.108377,11.6909912 78.1406352,11.7828452 78.1592247,11.8309592 C78.1275132,11.8779797 78.1357145,11.9348417 78.1417287,11.9681935 L78.0526085,11.997718 L78.1439157,12.0923057 C78.1395417,12.1130822 78.1395417,12.1365925 78.154304,12.1633832 C78.165239,12.1786922 78.178361,12.187987 78.191483,12.1950947 L78.1646922,12.2027492 C78.165239,12.20767 78.1663325,12.2093102 78.1679727,12.212044 L78.167426,12.212044 L78.1991375,12.2962435 L78.1985907,12.3044447 C78.1903895,12.3531055 78.202418,12.4017662 78.2259282,12.4378517 C78.217727,12.4493335 78.2128062,12.4624555 78.2117127,12.4783112 L78.1756272,12.51385 L78.2106192,12.5630575 C78.23741,12.6029702 78.2275685,12.6527245 78.206792,12.7330967 C78.1903895,12.802534 78.1679727,12.8911075 78.208979,12.9681992 L78.1592247,13.01686 L78.222101,13.0622402 C78.219914,13.064974 78.217727,13.0682545 78.2171802,13.071535 C78.200231,13.102153 78.1712532,13.156828 78.2073387,13.2175172 L78.204605,13.2104095 C78.217727,13.2393872 78.2117127,13.285861 78.2056985,13.336162 C78.1969505,13.408333 78.187109,13.4963597 78.2253815,13.583293 L78.213353,13.6696795 L78.21554,13.659838 C78.2056985,13.6931897 78.213353,13.7221675 78.224288,13.7434907 L78.1964037,13.7566127 L78.21554,13.8156617 C78.2363165,13.8796315 78.2363165,13.9583635 78.2363165,14.0392825 C78.23741,14.1945595 78.23741,14.3700662 78.3768312,14.5029265 L78.407996,14.5335445 L78.4479087,14.5209692 C78.5528847,14.4903512 78.5572587,14.3864687 78.561086,14.3296067 C78.561086,14.3186717 78.5621795,14.30719 78.563273,14.2968017 L78.5638197,14.2820395 L78.561086,14.267824 C78.5189862,14.1251222 78.5359355,13.9386805 78.5517912,13.7746555 C78.5550717,13.7303687 78.5594457,13.6899092 78.563273,13.6499965 L78.5638197,13.6303135 L78.5550717,13.6122707 C78.5266407,13.5554087 78.5337485,13.498 78.5424965,13.4329367 C78.5496042,13.3744345 78.5561652,13.3066375 78.534842,13.2393872 C78.5594457,12.9386747 78.5452302,12.5827405 78.532655,12.266719 C78.5277342,12.133312 78.5228135,12.0075595 78.5206265,11.8938355 L78.519533,11.8889147 L78.519533,11.8845407 C78.502037,11.737465 78.5075045,11.5772672 78.510785,11.4236305 C78.515159,11.284756 78.519533,11.1420542 78.5075045,11.011381 C78.539216,10.8615715 78.5381225,10.722697 78.534842,10.578355 C78.5337485,10.512745 78.5321082,10.4433077 78.534842,10.3733237 L78.534842,10.3547342 L78.5310147,10.3459862 C78.563273,10.3077137 78.5709275,10.2672542 78.5534315,10.2267947 C78.5692872,10.171573 78.5709275,10.119085 78.5736612,10.0715177 C78.574208,10.033792 78.5753015,9.99989348 78.5824092,9.96654173 L78.5867832,9.94849898 L78.5818625,9.93154973 C78.5736612,9.89874473 78.5818625,9.86320598 78.5906105,9.82602698 C78.6009987,9.77736623 78.613574,9.72159773 78.593891,9.66637598 C78.6496595,9.55319873 78.6622347,9.41541773 78.6731697,9.28037048 L78.6775437,9.23499023 C78.681371,9.20546573 78.672623,9.17812823 78.648566,9.15352448 L78.648566,9.14860373 C78.648566,9.08900798 78.6780905,9.04144073 78.7174565,8.98129823 C78.760103,8.91514148 78.8076702,8.84078348 78.8207922,8.73580748 L78.8224325,8.71995173 L78.821339,8.71667123 C78.825713,8.71175048 78.8311805,8.70682973 78.8377415,8.70190898 C78.8623452,8.67949223 78.902258,8.64614048 78.9011645,8.59310573 C78.9011645,8.58326423 78.8995242,8.57287598 78.8967905,8.56467473 C78.9454512,8.51929448 78.9771627,8.46844673 79.005047,8.42251973 C79.0455065,8.35472273 79.0739375,8.30496848 79.1548565,8.28309848 L79.1936757,8.27106998 L79.204064,8.23279748 C79.2160925,8.18796398 79.254365,8.16336023 79.3161477,8.12454098 C79.361528,8.09556323 79.4123757,8.06330498 79.4501015,8.01355073 C79.501496,8.01901823 79.534301,8.00370923 79.551797,7.98402623 C79.6135797,7.96926398 79.6622405,7.93317848 79.7010597,7.90092023 C79.7672165,7.84788548 79.7890865,7.83640373 79.8333732,7.85772698 L79.8787535,7.87740998 L79.9066377,7.84897898 C79.9099182,7.84788548 79.9121052,7.84788548 79.9137455,7.84788548 C79.9334285,7.84351148 79.969514,7.83093623 79.9902905,7.79813123 C80.0099735,7.79375723 80.0280162,7.78883648 80.0427785,7.78336898 C80.0794107,7.77079373 80.087612,7.76970023 80.1012807,7.77680798 C80.1144027,7.78336898 80.1384597,7.79321048 80.1679842,7.78610273 L80.1701712,7.79047673 L80.2226592,7.78336898 L80.2920965,7.77626123 C80.498768,7.74892373 80.675915,7.72650698 80.8372062,7.81234673 L80.894615,7.84460498 L80.929607,7.79211698 C80.9367147,7.79977148 80.9438225,7.80906623 80.9509302,7.81508048 C80.9919365,7.86155423 81.0646542,7.94137973 81.1690835,7.92279023 C81.192047,7.94301998 81.218291,7.95887573 81.2407077,7.97363798 C81.2500025,7.97855873 81.2625777,7.98566648 81.2696855,7.99058723 L81.2696855,7.99332098 L81.2849945,8.01300398 C81.3177995,8.05619723 81.3872367,8.07697373 81.4419117,8.07916073 C81.5621967,8.20655348 81.6857622,8.37987323 81.6857622,8.45696498 L81.6857622,8.52749573 L81.7393437,8.52749573 L81.7404372,8.53186973 C81.7601202,8.62700423 81.786911,8.74291523 81.8596287,8.81891348 C81.839399,8.86757423 81.8574417,8.92552973 81.8650962,8.94958673 C81.8683767,8.95724123 81.870017,8.96817623 81.8727507,8.97637748 L81.8552547,9.02995898 L81.902822,9.07697948 L81.91157,9.08299373 C81.909383,9.13165448 81.9323465,9.17922173 81.9482022,9.21038648 C81.950936,9.21804098 81.9558567,9.22842923 81.9591372,9.23717723 L81.9492957,9.26342123 C81.8847792,9.38589323 81.970619,9.45423698 82.012172,9.48649523 C82.0181862,9.49141598 82.023107,9.49524323 82.0280277,9.49961723 C81.9952227,9.52476773 81.9957695,9.54937148 81.9908487,9.59365823 L81.9952227,9.64669298 L82.0170927,9.68223173 L82.018733,9.68332523 C82.0198265,9.68551223 82.02092,9.68769923 82.02092,9.69043298 C82.025294,9.70136798 82.029668,9.71503673 82.0389627,9.73198598 L82.014359,9.75604298 L81.9974097,9.81946598 L82.034042,9.87195398 L82.0608327,9.88507598 C82.0597392,9.91460048 82.0723145,9.93975098 82.0794222,9.95779373 L82.0832495,9.96763523 L82.0832495,9.96763523 L82.0772352,9.99989348 C82.053725,10.1174447 82.023107,10.2694412 82.0969182,10.39246 C82.0947312,10.3935535 82.0925442,10.3957405 82.0925442,10.3957405 C82.0575522,10.4422142 82.0652067,10.4941555 82.0723145,10.5318812 C82.0728612,10.5439097 82.0772352,10.5646862 82.0750482,10.5712472 L82.0575522,10.643965 C82.0570055,10.6472455 82.079969,10.6538065 82.101839,10.6576337 C82.0985585,10.6647415 82.0958247,10.6713025 82.0936377,10.6800505 L82.0783287,10.7647967 L82.1084,10.7647967 C82.101839,10.7937745 82.101839,10.821112 82.1012922,10.845169 C82.099652,10.888909 82.0985585,10.9167932 82.0832495,10.9397567 L82.0772352,10.9495982 L82.0739547,10.9605332 C82.053725,11.0381717 82.0810625,11.109796 82.104026,11.1693917 C82.1089467,11.17978 82.1133207,11.1918085 82.1166012,11.20165 C82.104026,11.2158655 82.0925442,11.2339082 82.0936377,11.2617925 C82.0936377,11.2683535 82.0969182,11.2743677 82.0985585,11.280382 L82.0832495,11.2951442 L82.0969182,11.3377907 C82.104026,11.3602075 82.1182415,11.3760632 82.136831,11.3848112 L82.1242557,11.3869982 C82.1224332,11.3873627 82.1218257,11.4125132 82.1216232,11.4292397 L82.121522,11.46409 L82.0772352,11.4755717 L82.099652,11.523139 C82.0881702,11.5455557 82.0761417,11.575627 82.0881702,11.6111657 L82.0575522,11.6658407 C82.0575522,11.6658407 82.062473,11.698099 82.090904,11.7117677 C82.0613795,11.809636 82.132457,11.8801667 82.17401,11.9228132 C82.191506,11.9424962 82.2040812,11.9534312 82.2122825,11.9654597 L82.1767437,11.9654597 L82.2029877,12.056767 L82.2040812,12.058954 C82.1986137,12.065515 82.191506,12.072076 82.1854917,12.0802772 L82.1269895,12.1087082 L82.145579,12.1874402 L82.139018,12.20767 C82.1269895,12.2486762 82.136831,12.277654 82.1483127,12.2940565 C82.1515932,12.2978837 82.1548737,12.2984305 82.156514,12.301711 C82.1357375,12.323581 82.1122272,12.3531055 82.1084,12.4006727 L82.1012922,12.4684697 L82.1554205,12.4777645 C82.1515932,12.49198 82.1461257,12.5056487 82.1428452,12.5176772 C82.1357375,12.5455615 82.1308167,12.566338 82.1182415,12.583834 L82.1198817,12.583834 C82.1182415,12.5865677 82.1155077,12.5898482 82.1144142,12.592582 L82.2100955,12.6461635 C82.1975202,12.6718607 82.1887722,12.6959177 82.1833047,12.7161475 C82.1794775,12.7243487 82.1751035,12.7380175 82.171823,12.743485 L82.1658087,12.743485 L82.0854365,12.7445785 L82.0892637,12.8386195 C82.0936377,12.852835 82.0958247,12.8675972 82.0980117,12.887827 C82.099652,12.9047762 82.101839,12.925006 82.1073065,12.944689 L82.1073065,13.0376365 C82.1073065,13.049665 82.1084,13.0682545 82.1111337,13.0884842 L82.1012922,13.0950452 L82.1084,13.1475332 C82.1122272,13.1732305 82.1094935,13.198381 82.1084,13.2240782 C82.106213,13.2382937 82.106213,13.2546962 82.106213,13.2721922 L82.0400562,13.3044505 L82.1204285,13.3924772 C82.1198817,13.393024 82.1182415,13.3963045 82.1182415,13.3979447 C82.1094935,13.4187212 82.0985585,13.447699 82.0985585,13.4794105 L82.040603,13.4794105 L82.1379245,13.5969617 C82.1461257,13.6068032 82.154327,13.633594 82.158701,13.6516367 C82.1597945,13.655464 82.160888,13.657651 82.160888,13.659838 C82.121522,13.6986572 82.1155077,13.7544257 82.1122272,13.786684 L82.1092201,13.8075972 L82.1092201,13.8075972 L82.106213,13.8227695 L82.1308167,13.8555745 C82.1122272,13.86979 82.1012922,13.8856457 82.0936377,13.8993145 C82.0832495,13.9217312 82.0832495,13.944148 82.08653,13.966018 L81.992489,13.966018 L82.0701275,14.0436565 L81.9974097,14.0671667 L82.0575522,14.116921 L82.0575522,14.309377 C82.0575522,14.3432755 82.075595,14.3717065 82.101839,14.3870155 C82.101839,14.3870155 82.106213,14.3886557 82.1084,14.3886557 C82.145579,14.414353 82.187132,14.412166 82.222124,14.405605 L82.222124,14.4837902 L82.313978,14.4564527 C82.3812282,14.436223 82.432076,14.4323957 82.4851107,14.4433307 L82.5616557,14.4586397 L82.572044,14.3820947 C82.6086762,14.0977847 82.6010217,13.8189422 82.593914,13.5521282 C82.5868062,13.290235 82.5802452,13.0436507 82.6130502,12.8014405 C82.6349202,12.7538732 82.6130502,12.71068 82.5988347,12.6860762 L82.6163307,12.675688 L82.6152372,12.6357752 L82.6010217,11.3498192 L82.6010217,11.3427115 C82.5769647,11.1486152 82.5725907,10.9353827 82.56767,10.7090282 C82.5616557,10.453696 82.556735,10.1907092 82.5222897,9.95888723 C82.5162755,9.62427623 82.4501187,9.26779523 82.3856022,8.92224923 L82.342409,8.68714673 L82.338035,8.66527673 L82.322726,8.64778073 C82.2713315,8.59693298 82.2532887,8.53186973 82.2341525,8.45696498 C82.21775,8.39299523 82.200254,8.32847873 82.160888,8.26724273 C82.0750482,8.10923198 81.9372672,7.95723548 81.8164355,7.82218823 L81.810968,7.81508048 C81.7808967,7.77462098 81.745358,7.75275098 81.71474,7.73306798 C81.697244,7.72158623 81.6786545,7.70955773 81.6617052,7.69424873 L81.633821,7.67073848 L81.6168717,7.67456573 L81.5950017,7.65706973 C81.4861985,7.57013648 81.3850497,7.53623798 81.2669517,7.49741873 L81.264218,7.49632523 C81.2303195,7.44766448 81.1663497,7.44055673 81.1215162,7.43836973 L81.1215162,7.40775173 L81.0602802,7.39845698 L80.77433,7.35581048 L80.7322302,7.34870273 L80.706533,7.38424148 C80.6966915,7.39736348 80.693411,7.40064398 80.6316282,7.37932073 C80.6053842,7.37002598 80.575313,7.35799748 80.5419612,7.35526373 L80.5091562,7.35198323 L80.492207,7.36783898 C80.483459,7.36127798 80.472524,7.35526373 80.459402,7.34870273 L80.3402105,7.31261723 Z M74.9539028,7.21595183 L74.9457016,7.27117358 C74.8915733,7.27062683 74.8467398,7.28046833 74.8095608,7.30069808 L74.6198386,7.30069808 L74.4454253,7.30233833 L74.4651083,7.37013533 L74.4618278,7.37341583 C74.3841893,7.35209258 74.3267806,7.39965983 74.2934288,7.42699733 C74.2874146,7.43137133 74.2814003,7.43683883 74.2775731,7.44011933 C74.2157903,7.44996083 74.1797048,7.47565808 74.1556478,7.49534108 C74.1370583,7.50900983 74.1304973,7.51447733 74.1140948,7.51557083 L74.0834768,7.51775783 L74.0643406,7.54181483 C74.0380966,7.57188608 73.9560841,7.60961183 73.9112506,7.62984158 L73.8150226,7.67194133 L73.8357991,7.69271783 C73.8204901,7.69927883 73.8051811,7.70912033 73.7904188,7.72224233 L73.6974713,7.72224233 L73.6974713,7.79550683 L73.6876298,7.79386658 L73.6876298,7.79386658 L73.6345951,7.77144983 C73.6302211,7.77090308 73.5974161,7.81737683 73.5974161,7.81737683 C73.5405541,7.89556208 73.4656493,7.97429408 73.3885576,8.05630658 C73.2983438,8.15417483 73.2032093,8.25368333 73.1315851,8.36303333 L73.1086216,8.39365133 L73.1233838,8.42754983 C73.1053411,8.43739133 73.0626946,8.46527558 73.0544933,8.51831033 C73.0189546,8.55658283 73.0107533,8.60797733 73.0047391,8.64187583 C73.0036456,8.65226408 73.0014586,8.66757308 72.9981781,8.67468083 C72.9599056,8.72006108 72.9517043,8.76653483 72.9456901,8.80152683 C72.9407693,8.82886433 72.9385823,8.84362658 72.9271006,8.85784208 L72.8806268,8.91525083 L72.9014033,8.93220008 C72.8877346,8.96664533 72.8877346,9.00218408 72.8877346,9.02460083 C72.8877346,9.03444233 72.8871878,9.04592408 72.8860943,9.05467208 L72.8554763,9.07271483 L72.8631308,9.11809508 C72.8711498,9.17860208 72.8689628,9.23667908 72.8627258,9.29459408 L72.8511023,9.38162858 C72.8401673,9.46746833 72.8286856,9.55440158 72.8385271,9.65172308 C72.8029883,9.70530458 72.8111896,9.76818083 72.8177506,9.80864033 C72.8199376,9.82176233 72.8226713,9.84089858 72.8215778,9.84855308 L72.7756508,9.88518533 L72.8079091,9.93931358 C72.8325128,9.98086658 72.8128298,10.0475701 72.7953338,10.1109931 C72.7767443,10.1716823 72.7559678,10.2449468 72.7772911,10.3105568 C72.7723703,10.3149308 72.7658093,10.3209451 72.7614353,10.3275061 C72.7537808,10.3378943 72.7461263,10.3581241 72.7477666,10.3799941 C72.7477666,10.4313886 72.7428458,10.4456041 72.7406588,10.4499781 L72.7073071,10.5199621 L72.7029331,10.5472996 L72.7636223,10.5899461 C72.7570613,10.6309523 72.7614353,10.6697716 72.7663561,10.7042168 C72.7745573,10.7501438 72.7756508,10.7703736 72.7614353,10.7889631 L72.7237096,10.8584003 L72.7614353,10.9037806 L72.7614353,10.9158091 C72.7592483,10.9469738 72.7570613,11.0043826 72.7958806,11.0453888 L72.8002546,11.0672588 L72.8002546,11.0672588 L72.7308173,11.0858483 L72.7756508,11.1831698 C72.7756508,11.1891841 72.7734638,11.1984788 72.7712768,11.2066801 C72.7636223,11.2345643 72.7515938,11.2919731 72.7805716,11.3417273 C72.7587016,11.3974958 72.7723703,11.4521708 72.7816651,11.4893498 C72.7833053,11.4997381 72.7871326,11.5155938 72.7882261,11.5243418 C72.7220693,11.5943258 72.7548743,11.6861798 72.7734638,11.7353873 C72.7422991,11.7813143 72.7494068,11.8370828 72.7559678,11.8715281 L72.6668476,11.9021461 L72.7581548,11.9950936 C72.7537808,12.0142298 72.7537808,12.0393803 72.7679963,12.0656243 C72.7783846,12.0814801 72.7915066,12.0913216 72.8057221,12.0973358 L72.7783846,12.1071773 C72.7800248,12.1099111 72.7805716,12.1131916 72.7816651,12.1164721 L72.8128298,12.1990313 L72.8122831,12.2083261 C72.8051753,12.2569868 72.8155636,12.3045541 72.8396206,12.3417331 C72.8314193,12.3510278 72.8270453,12.3657901 72.8248583,12.3816458 L72.7893196,12.4171846 L72.8248583,12.4663921 C72.8511023,12.5052113 72.8412608,12.5560591 72.8215778,12.6358846 C72.8040818,12.7042283 72.7816651,12.7944421 72.8226713,12.8698936 L72.7723703,12.9185543 L72.8346998,12.9655748 C72.8341531,12.9688553 72.8314193,12.9715891 72.8308726,12.9748696 C72.8144701,13.0038473 72.7849456,13.0607093 72.8215778,13.1203051 C72.8314193,13.1427218 72.8259518,13.1902891 72.8199376,13.2389498 C72.8111896,13.3111208 72.8002546,13.3991476 72.8396206,13.4866276 L72.8270453,13.5741076 L72.8297791,13.5620791 C72.8199376,13.5965243 72.8270453,13.6255021 72.8385271,13.6457318 L72.8100961,13.6583071 L72.8297791,13.7200898 C72.8500088,13.7835128 72.8505556,13.8595111 72.8505556,13.9420703 C72.8511023,14.0978941 72.8511023,14.2728541 72.9910703,14.4073546 L73.0222351,14.4357856 L73.0610543,14.4232103 C73.1671238,14.3936858 73.1704043,14.2881631 73.1736848,14.2340348 C73.1747783,14.2203661 73.1747783,14.2099778 73.1769653,14.2001363 L73.1775121,14.1853741 L73.1736848,14.1717053 C73.1315851,14.0290036 73.1501746,13.8425618 73.1660303,13.6779901 C73.1698576,13.6337033 73.1736848,13.5932438 73.1769653,13.5527843 L73.1775121,13.5341948 L73.1698576,13.5145118 C73.1414266,13.4576498 73.1479876,13.4013346 73.1561888,13.3362713 C73.1638433,13.2772223 73.1698576,13.2105188 73.1485343,13.1427218 C73.1725913,12.8403691 73.1600161,12.4849816 73.1463473,12.1700536 C73.1419733,12.0377401 73.1354123,11.9119876 73.1332253,11.7949831 L73.1332253,11.7878753 C73.1157293,11.6402528 73.1206501,11.4811486 73.1250241,11.3253248 C73.1283046,11.1869971 73.1326786,11.0453888 73.1206501,10.9141688 C73.1529083,10.7632658 73.1512681,10.6265783 73.1479876,10.4811428 C73.1468941,10.4144393 73.1463473,10.3477358 73.1479876,10.2766583 L73.1485343,10.2580688 L73.1441603,10.2482273 C73.1769653,10.2105016 73.1846198,10.1705888 73.1676706,10.1312228 C73.1824328,10.0743608 73.1857133,10.0224196 73.1862601,9.97594583 C73.1873536,9.93712658 73.1895406,9.90104108 73.1961016,9.86878283 L73.2004756,9.85128683 L73.1955548,9.83433758 C73.1873536,9.80207933 73.1955548,9.76599383 73.2043028,9.72662783 C73.2152378,9.67960733 73.2278131,9.62438558 73.2081301,9.56971058 C73.2622583,9.45653333 73.2764738,9.31820558 73.2863153,9.18425183 L73.2906893,9.13777808 C73.2956101,9.10825358 73.2852218,9.08036933 73.2611648,9.05685908 L73.2611648,9.05139158 C73.2611648,8.99234258 73.2928763,8.94477533 73.3322423,8.88463283 C73.3737953,8.81792933 73.4208158,8.74193108 73.4344846,8.64023558 L73.4350313,8.62328633 L73.4344846,8.62000583 C73.4399521,8.61399158 73.4454196,8.60907083 73.4503403,8.60360333 C73.4760376,8.58337358 73.5154036,8.54892833 73.5154036,8.49589358 C73.5148568,8.48550533 73.5132166,8.47730408 73.5110296,8.46746258 C73.5596903,8.42262908 73.5914018,8.37178133 73.6192861,8.32640108 C73.6597456,8.25696383 73.6887233,8.20830308 73.7690956,8.18533958 L73.8073681,8.17385783 L73.8172096,8.13503858 C73.8292381,8.09075183 73.8680573,8.06669483 73.9287466,8.02678208 C73.9752203,7.99889783 74.0260681,7.96554608 74.0643406,7.91688533 C74.1157351,7.92125933 74.1474466,7.90813733 74.1654893,7.88736083 C74.2272721,7.87259858 74.2759328,7.83541958 74.3147521,7.80370808 C74.3798153,7.75012658 74.4027788,7.73919158 74.4470656,7.76051483 L74.4913523,7.77965108 L74.5208768,7.75122008 C74.5230638,7.75122008 74.5247041,7.75012658 74.5274378,7.75012658 C74.5476676,7.74465908 74.5837531,7.73536433 74.6045296,7.70146583 C74.6247593,7.69709183 74.6417086,7.69162433 74.6570176,7.68670358 C74.6936498,7.67412833 74.7023978,7.67303483 74.7155198,7.67904908 C74.7270016,7.68670358 74.7526988,7.69599833 74.7816766,7.68889058 L74.7844103,7.69435808 L74.8368983,7.68670358 L74.9063356,7.67904908 C75.1124603,7.65171158 75.2901541,7.62984158 75.4514453,7.71513458 L75.5088541,7.74575258 L75.5432993,7.69435808 C75.5498603,7.70201258 75.5580616,7.70966708 75.5640758,7.71896183 C75.6056288,7.76488883 75.6777998,7.84416758 75.7833226,7.82612483 C75.8062861,7.84744808 75.8319833,7.86275708 75.8549468,7.87533233 L75.8844713,7.89392183 L75.8844713,7.89774908 L75.8992336,7.91579183 C75.9314918,7.95898508 76.0003823,7.98030833 76.0556041,7.98249533 C76.1764358,8.10934133 76.2994546,8.28430133 76.2994546,8.35975283 L76.2994546,8.43083033 L76.3535828,8.43083033 L76.3535828,8.43411083 C76.3743593,8.52815183 76.4011501,8.64515633 76.4744146,8.72279483 C76.4536381,8.77036208 76.4711341,8.82777083 76.4793353,8.85182783 L76.4869898,8.87916533 L76.4869898,8.87916533 L76.4684003,8.93274683 L76.5159676,8.97976733 L76.5258091,8.98632833 C76.5225286,9.03444233 76.5454921,9.08036933 76.5613478,9.11262758 L76.5733763,9.14051183 L76.5733763,9.14051183 L76.5624413,9.16566233 C76.4979248,9.28868108 76.5848581,9.35757158 76.6253176,9.38928308 C76.6324253,9.39584408 76.6362526,9.39912458 76.6400798,9.40185833 C76.6089151,9.42591533 76.6105553,9.45215933 76.6034476,9.49535258 L76.6089151,9.54948083 L76.6318786,9.58556633 C76.6318786,9.58556633 76.6324253,9.58665983 76.6329721,9.58665983 L76.6338605,9.5902137 C76.6384396,9.60360908 76.6433603,9.61837133 76.6532018,9.63477383 L76.6285981,9.65937758 L76.6105553,9.72225383 L76.6471876,9.77310158 L76.6750718,9.78841058 C76.6739783,9.81629483 76.6849133,9.84308558 76.6936613,9.86003483 L76.6974886,9.87042308 L76.6974886,9.87042308 L76.6914743,9.90213458 C76.6679641,10.0191391 76.6373461,10.1716823 76.7106106,10.2936076 C76.7084236,10.2968881 76.7051431,10.2985283 76.7045963,10.3007153 C76.6706978,10.3460956 76.6788991,10.3974901 76.6849133,10.4352158 C76.6865536,10.4466976 76.6903808,10.4669273 76.6892873,10.4729416 L76.6706978,10.5472996 C76.6696043,10.5505801 76.6947548,10.5571411 76.7149846,10.5609683 C76.7133443,10.5680761 76.7100638,10.5746371 76.7073301,10.5828383 L76.6925678,10.6675846 L76.7209988,10.6675846 C76.7160781,10.6971091 76.7149846,10.7244466 76.7138911,10.7485036 C76.7138911,10.7922436 76.7122508,10.8206746 76.6974886,10.8414511 L76.6903808,10.8512926 L76.6881938,10.8638678 C76.6663238,10.9398661 76.6953016,11.0125838 76.7182651,11.0727263 C76.7226391,11.0831146 76.7259196,11.0935028 76.7308403,11.1033443 C76.7182651,11.1186533 76.7051431,11.1372428 76.7073301,11.1662206 C76.7073301,11.1722348 76.7106106,11.1777023 76.7122508,11.1826231 L76.6963951,11.1984788 L76.7106106,11.2389383 C76.7182651,11.2640888 76.7324806,11.2783043 76.7494298,11.2881458 L76.7390416,11.2914263 C76.7357611,11.2914263 76.7357611,11.3466481 76.7357611,11.3466481 L76.7357611,11.3663311 L76.6903808,11.3799998 L76.7133443,11.4264736 C76.7013158,11.4477968 76.6903808,11.4789616 76.7013158,11.5139536 L76.6706978,11.5686286 C76.6728848,11.5675351 76.6767121,11.6008868 76.7035028,11.6145556 C76.6761653,11.7118771 76.7461493,11.7829546 76.7882491,11.8261478 C76.8068386,11.8430971 76.8172268,11.8573126 76.8254281,11.8677008 L76.7904361,11.8677008 L76.8172268,11.9601016 L76.8172268,11.9622886 C76.8123061,11.9666626 76.8051983,11.9754106 76.7997308,11.9825183 L76.7395883,12.0104026 L76.7598181,12.0902281 L76.7532571,12.1099111 C76.7395883,12.1514641 76.7510701,12.1788016 76.7625518,12.1973911 C76.7652856,12.1995781 76.7680193,12.2017651 76.7712998,12.2050456 C76.7488831,12.2252753 76.7259196,12.2569868 76.7209988,12.3045541 L76.7138911,12.3718043 L76.7696596,12.3800056 L76.7576311,12.4221053 L76.7576311,12.4221053 C76.7494298,12.4461623 76.7439623,12.4680323 76.7324806,12.4855283 L76.7324806,12.4871686 C76.7319338,12.4882621 76.7292001,12.4920893 76.7281066,12.4953698 L76.8243346,12.5494981 C76.8101191,12.5735551 76.8024646,12.6003458 76.7969971,12.6178418 C76.7931698,12.6287768 76.7904361,12.6413521 76.7866088,12.6468196 L76.7789543,12.6468196 L76.6996756,12.6479131 L76.7035028,12.7403138 C76.7073301,12.7550761 76.7100638,12.7709318 76.7122508,12.7906148 C76.7138911,12.8075641 76.7160781,12.8267003 76.7209988,12.8474768 L76.7209988,12.9409711 C76.7209988,12.9524528 76.7209988,12.9715891 76.7248261,12.9918188 L76.7138911,12.9978331 L76.7209988,13.0497743 C76.7248261,13.0754716 76.7231858,13.1022623 76.7209988,13.1257726 C76.7204521,13.1410816 76.7193586,13.1585776 76.7193586,13.1744333 L76.6542953,13.2077851 L76.7335741,13.2958118 L76.7324806,13.2996391 C76.7231858,13.3209623 76.7122508,13.3488466 76.7122508,13.3821983 L76.6548421,13.3821983 L76.7516168,13.5002963 C76.7603648,13.5090443 76.7680193,13.5363818 76.7723933,13.5555181 C76.7740336,13.5566116 76.7740336,13.5593453 76.7751271,13.5620791 C76.7346676,13.6003516 76.7281066,13.6583071 76.7259196,13.6883783 C76.7237326,13.7020471 76.7226391,13.7217301 76.7193586,13.7271976 C76.7193586,13.7271976 76.7204521,13.7261041 76.7204521,13.7255573 L76.7450558,13.7594558 C76.7259196,13.7731246 76.7138911,13.7884336 76.7073301,13.8021023 C76.6980353,13.8245191 76.6980353,13.8485761 76.6996756,13.8698993 L76.6067281,13.8698993 L76.6827263,13.9464443 L76.6116488,13.9705013 L76.6717913,14.0197088 L76.6717913,14.2105246 C76.6717913,14.2455166 76.6881938,14.2750411 76.7160781,14.2887098 C76.7182651,14.2898033 76.7204521,14.2898033 76.7204521,14.2898033 C76.7598181,14.3160473 76.8008243,14.3155006 76.8347228,14.3072993 L76.8347228,14.3871248 L76.9282171,14.3592406 C76.9954673,14.3390108 77.0463151,14.3357303 77.0993498,14.3466653 L77.1758948,14.3614276 L77.1851896,14.2854293 C77.2223686,13.9994791 77.2147141,13.7222768 77.2076063,13.4543693 C77.2004986,13.1935696 77.1944843,12.9453451 77.2272893,12.7036816 C77.2480658,12.6561143 77.2261958,12.6112808 77.2130738,12.5899576 L77.2294763,12.5795693 L77.2294763,12.5391098 L77.2147141,11.2531538 L77.2147141,11.2493266 L77.2136206,11.2460461 C77.1912038,11.0519498 77.1873766,10.8381706 77.1813623,10.6118161 C77.1764416,10.3570306 77.1704273,10.0940438 77.1359821,9.86058158 C77.1305146,9.52761083 77.0643578,9.16948958 76.9998413,8.82339683 L76.9566481,8.58993458 L76.9522741,8.56751783 L76.9369651,8.55166208 C76.8855706,8.49917408 76.8675278,8.43411083 76.8483916,8.35975283 C76.8314423,8.29578308 76.8144931,8.23126658 76.7740336,8.17003058 C76.6881938,8.01201983 76.5515063,7.86057008 76.4306746,7.72552283 L76.4246603,7.71841508 C76.3945891,7.67795558 76.3590503,7.65553883 76.3289791,7.63640258 C76.3103896,7.62437408 76.2934403,7.61289233 76.2748508,7.59703658 L76.2464198,7.57297958 L76.2305641,7.57680683 L76.2086941,7.55985758 C76.0993441,7.47347108 75.9976486,7.43847908 75.8800973,7.40075333 L75.8784571,7.39965983 C75.8440118,7.35099908 75.7789486,7.34389133 75.7357553,7.34279783 L75.7357553,7.31108633 L75.6739726,7.30233833 L75.3885691,7.25914508 L75.3464693,7.25313083 L75.3191318,7.28757608 C75.3092903,7.30069808 75.3071033,7.30452533 75.2469608,7.28156183 C75.2190766,7.27172033 75.1895521,7.26133208 75.1556536,7.25805158 L75.1223018,7.25477108 L75.1058993,7.27117358 C75.0976981,7.26515933 75.0856696,7.25805158 75.0736411,7.25094383 L74.9539028,7.21595183 Z M69.4736089,7.21595183 L69.4648609,7.27117358 C69.4118261,7.27062683 69.3664459,7.28046833 69.3287201,7.30069808 L69.1395446,7.30069808 L68.9645846,7.30233833 L68.9848144,7.37013533 L68.9809871,7.37341583 C68.9044421,7.35209258 68.8459399,7.39965983 68.8136816,7.42699733 C68.8071206,7.43137133 68.8016531,7.43683883 68.7972791,7.44011933 C68.7354964,7.44996083 68.6988641,7.47565808 68.6742604,7.49534108 C68.6556709,7.50900983 68.6491099,7.51447733 68.6327074,7.51557083 L68.6026361,7.51775783 L68.5840466,7.54181483 C68.5572559,7.57188608 68.4752434,7.60961183 68.4315034,7.62984158 L68.3341819,7.67194133 L68.3555051,7.69271783 C68.3407429,7.69927883 68.3243404,7.70912033 68.3095781,7.72224233 L68.2166306,7.72224233 L68.2166306,7.79550683 L68.2062424,7.79386658 L68.2062424,7.79386658 L68.1548479,7.77144983 C68.1493804,7.77090308 68.1165754,7.81737683 68.1165754,7.81737683 C68.0597134,7.89556208 67.9859021,7.97429408 67.9082636,8.05630658 C67.8169564,8.15417483 67.7229154,8.25368333 67.6507444,8.36303333 L67.6272341,8.39365133 L67.6425431,8.42754983 C67.6245004,8.43739133 67.5813071,8.46527558 67.5741994,8.51831033 C67.5375671,8.55658283 67.5293659,8.60797733 67.5249919,8.64187583 C67.5238984,8.65226408 67.5206179,8.66757308 67.5184309,8.67468083 C67.4807051,8.72006108 67.4708636,8.76653483 67.4643026,8.80152683 C67.4604754,8.82886433 67.4577416,8.84362658 67.4457131,8.85784208 L67.4003329,8.91525083 L67.4211094,8.93220008 C67.4079874,8.96664533 67.4068939,9.00218408 67.4068939,9.02460083 C67.4068939,9.03444233 67.4068939,9.04592408 67.4058004,9.05467208 L67.3746356,9.07271483 L67.3817434,9.11809508 C67.3943186,9.20885558 67.3828369,9.29414858 67.3708084,9.38162858 C67.3593266,9.46746833 67.3478449,9.55440158 67.3582331,9.65172308 C67.3221476,9.70530458 67.3303489,9.76818083 67.3369099,9.80864033 C67.3385501,9.82176233 67.3418306,9.84089858 67.3407371,9.84855308 L67.2942634,9.88518533 L67.3270684,9.93931358 C67.3522189,9.98086658 67.3325359,10.0475701 67.3128529,10.1109931 C67.2964504,10.1716823 67.2745804,10.2449468 67.2975439,10.3105568 L67.2805946,10.3275061 L67.2805946,10.3275061 C67.2729401,10.3378943 67.2663791,10.3581241 67.2674726,10.3799941 C67.2674726,10.4313886 67.2625519,10.4456041 67.2609116,10.4499781 L67.2270131,10.5199621 L67.2209989,10.5472996 L67.2827816,10.5899461 C67.2767674,10.6309523 67.2805946,10.6697716 67.2860621,10.7042168 C67.2942634,10.7501438 67.2953569,10.7703736 67.2811414,10.7889631 L67.2428689,10.8584003 L67.2805946,10.9037806 L67.2805946,10.9158091 C67.2784076,10.9469738 67.2767674,11.0043826 67.3150399,11.0453888 C67.3161334,11.0524966 67.3172269,11.0601511 67.3199606,11.0672588 L67.2499766,11.0858483 L67.2953569,11.1831698 C67.2942634,11.1891841 67.2920764,11.1984788 67.2915296,11.2066801 C67.2838751,11.2345643 67.2707531,11.2919731 67.2997309,11.3417273 C67.2778609,11.3974958 67.2915296,11.4521708 67.3002776,11.4893498 C67.3019179,11.4997381 67.3068386,11.5155938 67.3079321,11.5243418 C67.2417754,11.5943258 67.2745804,11.6861798 67.2920764,11.7353873 C67.2609116,11.7813143 67.2685661,11.8370828 67.2745804,11.8715281 L67.1860069,11.9021461 L67.2767674,11.9950936 C67.2729401,12.0142298 67.2729401,12.0393803 67.2871556,12.0656243 C67.2975439,12.0814801 67.3106659,12.0913216 67.3248814,12.0973358 L67.2975439,12.1071773 C67.2986374,12.1099111 67.3002776,12.1131916 67.3008244,12.1164721 L67.3002776,12.1164721 L67.3336294,12.1990313 L67.3314424,12.2083261 C67.3237879,12.2569868 67.3358164,12.3045541 67.3593266,12.3417331 C67.3511254,12.3510278 67.3462046,12.3657901 67.3440176,12.3816458 L67.3084789,12.4171846 L67.3440176,12.4663921 C67.3708084,12.5052113 67.3604201,12.5560591 67.3407371,12.6358846 C67.3232411,12.7042283 67.3008244,12.7944421 67.3418306,12.8698936 L67.2920764,12.9185543 L67.3544059,12.9655748 C67.3533124,12.9688553 67.3511254,12.9715891 67.3500319,12.9748696 C67.3336294,13.0038473 67.3046516,13.0607093 67.3418306,13.1203051 L67.3374566,13.1126506 C67.3511254,13.1427218 67.3451111,13.1902891 67.3385501,13.2389498 C67.3303489,13.3111208 67.3199606,13.3991476 67.3582331,13.4866276 L67.3462046,13.5741076 L67.3489384,13.5620791 C67.3385501,13.5965243 67.3467514,13.6255021 67.3582331,13.6457318 L67.3292554,13.6583071 L67.3489384,13.7200898 C67.3686214,13.7835128 67.3691681,13.8595111 67.3708084,13.9420703 C67.3708084,14.0978941 67.3708084,14.2728541 67.5107764,14.4073546 L67.5408476,14.4357856 L67.5813071,14.4232103 C67.6857364,14.3936858 67.6906571,14.2881631 67.6939376,14.2340348 L67.6946211,14.2156504 L67.6946211,14.2156504 L67.6983116,14.1853741 L67.6939376,14.1717053 C67.6518379,14.0290036 67.6687871,13.8425618 67.6857364,13.6779901 C67.6884701,13.6337033 67.6928441,13.5932438 67.6961246,13.5527843 L67.6972181,13.5341948 L67.6884701,13.5145118 C67.6600391,13.4576498 67.6666001,13.4013346 67.6753481,13.3362713 C67.6830026,13.2772223 67.6895636,13.2105188 67.6676936,13.1427218 C67.6928441,12.8403691 67.6786286,12.4849816 67.6655066,12.1700536 C67.6611326,12.0377401 67.6556651,11.9119876 67.6540249,11.7949831 L67.6540249,11.7917026 L67.6529314,11.7878753 C67.6354354,11.6402528 67.6392626,11.4811486 67.6441834,11.3253248 C67.6480106,11.1869971 67.6529314,11.0453888 67.6392626,10.9141688 C67.6726144,10.7632658 67.6698806,10.6265783 67.6676936,10.4811428 C67.6666001,10.4144393 67.6655066,10.3477358 67.6676936,10.2766583 L67.6676936,10.2580688 L67.6644131,10.2482273 C67.6961246,10.2105016 67.7032324,10.1705888 67.6868299,10.1312228 C67.7021389,10.0743608 67.7043259,10.0224196 67.7054194,9.97594583 C67.7076064,9.93712658 67.7086999,9.90104108 67.7169011,9.86878283 L67.7196349,9.85128683 L67.7158076,9.83433758 C67.7065129,9.80207933 67.7147141,9.76599383 67.7240089,9.72662783 C67.7338504,9.67960733 67.7469724,9.62438558 67.7272894,9.56971058 C67.7825111,9.45653333 67.7950864,9.31820558 67.8065681,9.18425183 L67.8103954,9.13777808 C67.8147694,9.10825358 67.8054746,9.08036933 67.7814176,9.05685908 L67.7814176,9.05139158 C67.7814176,8.99234258 67.8125824,8.94477533 67.8508549,8.88463283 C67.8935014,8.81792933 67.9405219,8.74193108 67.9536439,8.64023558 L67.9558309,8.62328633 L67.9547374,8.62000583 C67.9596581,8.61399158 67.9640321,8.60907083 67.9705931,8.60360333 C67.9968371,8.58337358 68.0356564,8.54892833 68.0345629,8.49589358 C68.0345629,8.48550533 68.0323759,8.47730408 68.0301889,8.46746258 C68.0804899,8.42262908 68.1100144,8.37178133 68.1384454,8.32640108 C68.1783581,8.25696383 68.2073359,8.20830308 68.2877081,8.18533958 L68.3259806,8.17385783 L68.3363689,8.13503858 C68.3489441,8.09075183 68.3872166,8.06669483 68.4484526,8.02678208 C68.4943796,7.99889783 68.5452274,7.96554608 68.5834999,7.91688533 C68.6348944,7.92125933 68.6660591,7.90813733 68.6846486,7.88736083 C68.7480716,7.87259858 68.7950921,7.83541958 68.8344581,7.80370808 C68.9006149,7.75012658 68.9224849,7.73919158 68.9667716,7.76051483 L69.0110584,7.77965108 L69.0400361,7.75122008 C69.0416764,7.75122008 69.0449569,7.75012658 69.0449569,7.75012658 C69.0668269,7.74465908 69.1018189,7.73536433 69.1236889,7.70146583 C69.1433719,7.69709183 69.1619614,7.69162433 69.1756301,7.68670358 C69.2128091,7.67412833 69.2215571,7.67303483 69.2341324,7.67904908 C69.2478011,7.68670358 69.2713114,7.69599833 69.3013826,7.68889058 L69.3035696,7.69435808 L69.3560576,7.68670358 L69.4249481,7.67904908 C69.6316196,7.65171158 69.8093134,7.62984158 69.9700579,7.71513458 L70.0285601,7.74575258 L70.0624586,7.69435808 C70.0701131,7.70201258 70.0783144,7.70966708 70.0843286,7.71896183 C70.1258816,7.76488883 70.1975059,7.84416758 70.3024819,7.82612483 C70.3248986,7.84744808 70.3511426,7.86275708 70.3735594,7.87533233 C70.3828541,7.88079983 70.3954294,7.88845433 70.4047241,7.89392183 L70.4047241,7.89774908 L70.4178461,7.91579183 C70.4511979,7.95898508 70.5200884,7.98030833 70.5747634,7.98249533 C70.6966886,8.10934133 70.8186139,8.28430133 70.8186139,8.35975283 L70.8186139,8.43083033 L70.8721954,8.43083033 L70.8721954,8.43411083 C70.8929719,8.52815183 70.9203094,8.64515633 70.9930271,8.72279483 C70.9722506,8.77036208 70.9908401,8.82777083 70.9984946,8.85182783 C71.0001349,8.86057583 71.0034154,8.87041733 71.0056024,8.87916533 L70.9886531,8.93274683 L71.0351269,8.97976733 L71.0460619,8.98632833 C71.0427814,9.03444233 71.0646514,9.08036933 71.0816006,9.11262758 L71.0936291,9.14051183 L71.0936291,9.14051183 L71.0821474,9.16566233 C71.0170841,9.28868108 71.1040174,9.35757158 71.1450236,9.38928308 C71.1510379,9.39584408 71.1548651,9.39912458 71.1608794,9.40185833 C71.1280744,9.42591533 71.1291679,9.45215933 71.1226069,9.49535258 L71.1280744,9.54948083 L71.1504911,9.58556633 C71.1521314,9.58665983 71.1510379,9.58665983 71.1521314,9.58665983 C71.1532249,9.58884683 71.1532249,9.59158058 71.1543184,9.59376758 C71.1586924,9.60360908 71.1630664,9.61837133 71.1723611,9.63477383 L71.1472106,9.65937758 L71.1302614,9.72225383 L71.1658001,9.77310158 L71.1947779,9.78841058 C71.1925909,9.81629483 71.2051661,9.84308558 71.2133674,9.86003483 L71.2177414,9.87042308 L71.2177414,9.87042308 L71.2106336,9.90213458 C71.1865766,10.0191391 71.1575989,10.1716823 71.2297699,10.2936076 C71.2275829,10.2968881 71.2259426,10.2985283 71.2237556,10.3007153 C71.2018856,10.3309688 71.1979976,10.3638953 71.1997796,10.3936628 L71.2051661,10.4352158 C71.2062596,10.4466976 71.2106336,10.4669273 71.2084466,10.4729416 L71.1898571,10.5472996 C71.1887636,10.5505801 71.2144609,10.5571411 71.2341439,10.5609683 C71.2319569,10.5680761 71.2286764,10.5746371 71.2275829,10.5828383 L71.2111804,10.6675846 L71.2401581,10.6675846 C71.2363309,10.6971091 71.2352374,10.7244466 71.2341439,10.7485036 C71.2330504,10.7922436 71.2319569,10.8206746 71.2166479,10.8414511 L71.2106336,10.8512926 L71.2073531,10.8638678 C71.1865766,10.9398661 71.2144609,11.0125838 71.2379711,11.0727263 C71.2417984,11.0831146 71.2461724,11.0935028 71.2494529,11.1033443 C71.2379711,11.1186533 71.2259426,11.1372428 71.2275829,11.1662206 C71.2275829,11.1722348 71.2297699,11.1777023 71.2319569,11.1826231 L71.2155544,11.1984788 L71.2297699,11.2389383 C71.2379711,11.2640888 71.2516399,11.2783043 71.2691359,11.2881458 L71.2576541,11.2914263 L71.2557304,11.3057431 L71.2557304,11.3057431 L71.2549204,11.3663311 L71.2106336,11.3799998 L71.2319569,11.4264736 C71.2215686,11.4477968 71.2089934,11.4789616 71.2215686,11.5139536 L71.1909506,11.5686286 C71.1920441,11.5675351 71.1964181,11.6008868 71.2237556,11.6145556 C71.1947779,11.7118771 71.2647619,11.7829546 71.3090486,11.8261478 C71.3259979,11.8430971 71.3374796,11.8573126 71.3456809,11.8677008 L71.3095954,11.8677008 L71.3358394,11.9601016 L71.3374796,11.9622886 C71.3314654,11.9666626 71.3249044,11.9754106 71.3188901,11.9825183 L71.2598411,12.0104026 L71.2795241,12.0902281 L71.2735099,12.1099111 C71.2587476,12.1514641 71.2702294,12.1788016 71.2822579,12.1973911 C71.2844449,12.1995781 71.2877254,12.2017651 71.2904591,12.2050456 C71.2691359,12.2252753 71.2456256,12.2569868 71.2401581,12.3045541 L71.2341439,12.3718043 L71.2888189,12.3800056 C71.2833514,12.3953146 71.2795241,12.4089833 71.2762436,12.4221053 C71.2691359,12.4461623 71.2636684,12.4680323 71.2516399,12.4855283 L71.2527334,12.4871686 C71.2505464,12.4882621 71.2483594,12.4920893 71.2472659,12.4953698 L71.3434939,12.5494981 C71.3303719,12.5735551 71.3216239,12.6003458 71.3167031,12.6178418 C71.3134226,12.6287768 71.3095954,12.6413521 71.3063149,12.6468196 L71.2992071,12.6468196 L71.2182881,12.6479131 L71.2226621,12.7403138 C71.2275829,12.7550761 71.2297699,12.7709318 71.2319569,12.7906148 C71.2330504,12.8075641 71.2352374,12.8267003 71.2401581,12.8474768 L71.2401581,12.9409711 C71.2401581,12.9524528 71.2401581,12.9715891 71.2445321,12.9918188 L71.2330504,12.9978331 L71.2412516,13.0497743 C71.2445321,13.0754716 71.2428919,13.1022623 71.2412516,13.1257726 C71.2401581,13.1410816 71.2379711,13.1585776 71.2390646,13.1744333 L71.1734546,13.2077851 L71.2538269,13.2958118 C71.2527334,13.2963586 71.2516399,13.2990923 71.2516399,13.2990923 C71.2417984,13.3209623 71.2319569,13.3488466 71.2319569,13.3821983 L71.1734546,13.3821983 L71.2713229,13.5002963 C71.2795241,13.5090443 71.2871786,13.5363818 71.2915526,13.5555181 C71.2926461,13.5566116 71.2937396,13.5593453 71.2937396,13.5620791 C71.2549204,13.6003516 71.2483594,13.6583071 71.2456256,13.6883783 L71.2422084,13.7108634 L71.2422084,13.7108634 L71.2378048,13.7258907 L71.2401581,13.7255573 L71.2647619,13.7594558 C71.2456256,13.7731246 71.2341439,13.7884336 71.2275829,13.8021023 C71.2177414,13.8245191 71.2166479,13.8485761 71.2193816,13.8698993 L71.1258874,13.8698993 L71.2029791,13.9464443 L71.1302614,13.9705013 L71.1909506,14.0197088 L71.1909506,14.2105246 C71.1909506,14.2455166 71.2073531,14.2750411 71.2363309,14.2887098 C71.2379711,14.2898033 71.2390646,14.2898033 71.2390646,14.2898033 C71.2784306,14.3160473 71.3205304,14.3155006 71.3549756,14.3072993 L71.3549756,14.3871248 L71.4468296,14.3592406 C71.5140799,14.3390108 71.5660211,14.3357303 71.6190559,14.3466653 L71.6950541,14.3614276 L71.7048956,14.2854293 C71.7415279,13.9994791 71.7338734,13.7222768 71.7267656,13.4543693 C71.7196579,13.1935696 71.7130969,12.9453451 71.7475421,12.7036816 C71.7666784,12.6561143 71.7464486,12.6112808 71.7316864,12.5899576 L71.7480889,12.5795693 L71.7480889,12.5391098 L71.7338734,11.2531538 L71.7338734,11.2460461 C71.7103631,11.0519498 71.7059891,10.8381706 71.7005216,10.6118161 C71.6961476,10.3570306 71.6895866,10.0940438 71.6545946,9.86058158 C71.6491271,9.52761083 71.5835171,9.16948958 71.5190006,8.82339683 L71.4752606,8.58993458 L71.4725269,8.56751783 L71.4561244,8.55166208 C71.4041831,8.49917408 71.3866871,8.43411083 71.3670041,8.35975283 C71.3511484,8.29578308 71.3331056,8.23126658 71.2937396,8.17003058 C71.2084466,8.01201983 71.0717591,7.86057008 70.9509274,7.72552283 L70.9449131,7.71841508 C70.9137484,7.67795558 70.8787564,7.65553883 70.8475916,7.63640258 C70.8290021,7.62437408 70.8120529,7.61289233 70.7940101,7.59703658 L70.7666726,7.57297958 L70.7508169,7.57680683 L70.7278534,7.55985758 C70.6195969,7.47347108 70.5173546,7.43847908 70.3998034,7.40075333 L70.3976164,7.39965983 C70.3631711,7.35099908 70.2992014,7.34389133 70.2549146,7.34279783 L70.2549146,7.31108633 L70.1936786,7.30233833 L69.9071816,7.25914508 L69.8650819,7.25313083 L69.8382911,7.28757608 C69.8295431,7.30069808 69.8262626,7.30452533 69.7661201,7.28156183 C69.7387826,7.27172033 69.7081646,7.26133208 69.6753596,7.25805158 L69.6414611,7.25477108 L69.6250586,7.27117358 C69.6163106,7.26515933 69.6059224,7.25805158 69.5928004,7.25094383 L69.4736089,7.21595183 Z M72.9134865,5.40292883 C72.2967525,5.40784958 71.6991548,5.42425208 71.0895285,5.44229483 C70.454205,5.45869733 68.938614,5.46361808 68.0326493,5.46580508 C67.5504158,5.46799208 67.2972705,5.46799208 67.265559,5.46963233 C67.1578493,5.47674008 67.0288163,5.62490933 67.0254522,5.74574108 C67.0233488,5.81244458 67.0638083,5.88898958 67.1786258,5.90047133 C67.2644655,5.91031283 67.8117623,5.91249983 68.8063005,5.90921933 L69.8227088,5.90429858 L70.2098173,5.90468911 C70.2394661,5.90433205 70.2618271,5.9034394 70.2786983,5.90156483 L70.2847125,5.90156483 C71.031573,5.82720683 71.7828075,5.83103408 72.5083448,5.83540808 L72.56466,5.83540808 C73.0343183,5.83759508 73.5209258,5.84087558 74.0091735,5.82173933 C74.110869,5.84470283 74.218032,5.82392633 74.320821,5.80260308 L74.3366768,5.79986933 C74.3826038,5.79002783 74.430171,5.78127983 74.4766448,5.77854608 C74.587635,5.80861733 74.7150278,5.80752383 74.8495283,5.80479008 C74.9785613,5.80260308 75.110328,5.79986933 75.230613,5.82884708 L75.2317065,5.83212758 L75.252483,5.83103408 L75.252483,5.82775358 C75.357459,5.79112133 75.4547805,5.81080433 75.5559293,5.83103408 C75.558663,5.83212758 75.5745188,5.83431458 75.5745188,5.83431458 C75.6231795,5.84415608 75.6685598,5.85181058 75.7128465,5.85290408 C76.6570838,5.82775358 77.7013763,5.86110533 79.003188,5.96225408 C79.00173,5.96225408 79.489728,6.01366208 79.59819,6.02508608 L79.6193753,6.02731733 L79.6270298,6.02731733 C80.1748733,5.97373583 80.7407595,6.01528883 81.2880563,6.05465483 C81.2896965,6.05574833 81.3011783,6.05574833 81.3011783,6.05574833 C81.7134278,6.08691308 82.1016203,6.11534408 82.4881725,6.10604933 L82.4887193,6.11097008 L82.5127763,6.10331558 L82.5116828,6.09839483 L82.716714,5.93491658 L82.7172608,5.93546333 L82.7271023,5.92562183 L82.7260088,5.92343483 C82.7825063,5.83230983 82.776735,5.71118951 82.7185036,5.62177311 L82.677348,5.57242133 L82.6713338,5.56695383 C82.5515955,5.49532958 82.3700745,5.45432333 82.2476025,5.50790483 C81.467937,5.43409358 80.7238103,5.44229483 79.9353968,5.45049608 L79.9124333,5.45049608 L79.8812685,5.45104283 C79.486515,5.45651033 79.0786395,5.46033758 78.670764,5.45432333 L75.3678473,5.38597958 C74.594196,5.36574983 73.7450933,5.37176408 72.9134865,5.40292883 Z" id="Combined-Shape"></path></g></g></g></g></svg> 