<?xml version="1.0" encoding="UTF-8"?> <svg xmlns="http://www.w3.org/2000/svg" xmlns:xlink="http://www.w3.org/1999/xlink" width="302" height="34" viewBox="0 0 302 34"><defs><path id="prefix__a" d="M0 33.869L301.392 33.869 301.392 0 0 0z"></path></defs><g fill="none" fill-rule="evenodd"><path fill="#007B47" d="M252.493 4.405c-8.722 0-12.007 7.047-12.007 12.5 0 5.643 3.373 12.499 11.716 12.499 7.384 0 12.035-5.771 12.035-13.073 0-7.302-4.506-11.926-11.744-11.926m.852 23.293c-5.302 0-8.478-5.209-8.478-11.775 0-7.861 3.617-9.882 6.793-9.882 4.53 0 8.092 4.39 8.092 11.46 0 9.124-4.474 10.197-6.407 10.197M161.628 29.463c1.939 0 3.98-.289 5.778-1.31 2.59-1.502 3.33-3.705 3.274-5.557-.092-3.034-1.766-5.173-6.245-8.143l-1.046-.67c-3.097-2.012-3.972-3.13-4.016-4.599-.059-1.916 1.549-3.29 4.255-3.29 2.38 0 3.47.96 4.036 1.565.793.83 1.007 1.82 1.015 2.108.012.383.127.575.382.575.292 0 .396-.255.375-.958-.075-2.491.044-3.417.03-3.833-.006-.223-.191-.32-.523-.383-.958-.223-2.504-.542-4.882-.542-5.088 0-8.378 2.522-8.272 6.035.078 2.587 1.535 4.823 5.643 7.568l1.717 1.15c3.099 2.044 3.692 3.545 3.74 5.11.05 1.693-1.501 3.64-4.796 3.64-2.267 0-4.452-.862-5.328-3.225-.2-.543-.366-1.213-.38-1.63-.006-.254-.052-.541-.381-.541-.293 0-.392.35-.415.83-.02.51-.11 2.427-.057 4.183.022.702.136.862.73 1.085 1.59.607 3.244.832 5.366.832"></path><path fill="#007B47" d="M241.4 28.162c-.378 0-.839-.03-1.278-.126-.611-.155-1.191-.852-1.458-3.684-.445-4.78-1.284-17.62-1.451-19.356-.056-.578-.64-.701-.999-.438-.267.197-.637.755-1.009 1.264-5.653 7.711-8.77 11.878-14.517 19.65-1.002 1.356-1.816 2.836-3.73 2.744-.816-.04-1.13-.82-1.225-1.7-.156-1.356-.156-3.838-.156-6.73V7.203c0-.345.095-.534.251-.598.284-.096.756-.125 1.228-.125.724 0 2.565.094 3.696 1.128 1.76 1.576 1.742 3.712 1.742 4.75 0 3.21-2.548 5.257-4.31 5.257-.661 0-1.224.093-1.224.345 0 .22.22.253.378.284.158.028 1.498.08 1.658.08 4.463 0 7.658-2.686 7.737-7.611.023-1.666-.89-3.075-1.575-3.743-.9-.876-2.913-1.842-6.844-1.842-1.447 0-3.27.095-4.562.095-.766 0-5.132-.185-5.331-.185-1.066 0-2.135.096-2.76.096-.59 0-1.941-.096-3.403-.096-.424 0-.734.032-.734.284 0 .187.113.282.452.282.393 0 1.07 0 1.49.188.677.315.93.908.958 2.826l.08 12.224c-.477-.503-14.397-15.92-14.809-16.232-.53-.4-1.074-.03-1.074.468l-.523 15.807c-4.934-6.13-12.759-15.896-12.97-16.204-.322-.47-1.109-.326-1.161.348-.07.896-1.421 20.412-1.421 20.412-.049 1.556-.257 2.614-1.654 2.8-.245.032-.68.06-.966.06-.255 0-.358.065-.289.25.094.25.308.312.724.312 1.659 0 3.377-.093 3.73-.093.988 0 2.395.093 3.415.093.349 0 .52-.061.425-.312-.07-.185-.19-.25-.572-.25h-.479c-.988 0-1.426-.403-1.639-.963-.14-.373-.263-1.119-.237-1.897l.044-4.443c-.007-.19.032-.251.194-.251h6.779c.156 0 .278.06.4.218l5.029 6.178c.132.161.195.453-.054.698-.046.046-.21.153-.33.194-.393.126-1.006.092-1.373.092-.282 0-.292.181-.292.368 0 .285.258.348.626.348 1.462 0 2.787-.034 3.038-.034l3.023-.006c.967.02 1.889.058 2.45.06 1.242 0 1.444-.061 1.353-.312-.083-.22.012-.33-.246-.33-.382 0-.422.02-.935-.074-.728-.155-1.595-1.052-3.863-3.852l-.476-.591-.186-11.407c.508.597 13.083 14.282 14.859 16.165.309.347.645.691.954.691.254 0 .366-.281.366-.974l.31-19.813c.03-1.756.237-2.475 1.04-2.667.301-.073 1.124-.089 1.738.04 1.035.218 1.288.724 1.35 1.793.065 1.007.065 1.888.065 6.667v5.537c0 2.891 0 5.376-.16 6.698-.125.91-.28 1.603-.91 1.73-.283.06-.662.126-1.134.126-.376 0-.502.093-.502.251 0 .22.223.312.628.312 1.259 0 4.145-.14 4.293-.133 2.883.153 5.415.11 6.808.063 1.151-.04 2.85.148 3.279.148.348 0 .636-.05.638-.317.002-.148-.09-.252-.39-.252h-.472c-.975 0-.857-.435-.517-.93l4.475-6.459c.124-.188.208-.252.364-.252l6.325-.03c.156 0 .23.062.243.221l.252 6.568c.033.377-.28.662-.52.722-.326.033-.537.062-.526.342.01.265.28.306.854.292 1.142-.026 2.018-.055 3.307-.034 1.143.016 2.313.108 2.927.108 1.164 0 1.569-.154 1.652-.407.072-.22-.129-.342-.38-.342m-60.654-8.97h-5.455c-.13 0-.195-.092-.212-.218l.23-6.31c.005-.115-.01-.267.087-.28.095-.01.114.09.209.208.245.307 5.23 6.414 5.23 6.414.067.094.07.185-.089.185m52.76-.015l-5.123-.027c-.055 0-.17-.066-.064-.219.49-.713 3.535-5.096 4.849-6.976.087-.124.206-.083.211.04.04.94.35 6.992.35 6.992 0 .094-.062.19-.223.19M289.647 4.405c-8.72 0-12.007 7.047-12.007 12.5 0 2.64.739 5.546 2.38 7.891-.135.553-.447 1.21-.758 1.544-.786.853-2.76.882-4.426.882-2.454 0-2.623-.22-3.155-.69-.66-.565-.66-2.737-.66-6.764v-5.534c0-4.78 0-5.66.061-6.668.063-1.098.315-1.634 1.163-1.794.377-.06.883-.093 1.228-.093.377 0 .567-.06.567-.283 0-.22-.22-.281-.661-.281-1.227 0-4.224.094-4.98.094-.848 0-2.908-.094-4.385-.094-.473 0-.691.062-.691.28 0 .225.189.284.532.284.41 0 .789.034 1.042.093 1.036.22 1.288.725 1.351 1.794.062 1.008.062 1.889.062 6.668v5.534c0 2.897 0 5.38-.158 6.703-.125.908-.282 1.602-.912 1.728-.282.063-.66.124-1.132.124-.377 0-.503.096-.503.253 0 .218.222.315.63.315 1.256 0 3.316-.097 4.04-.097 2.545 0 5.422.191 9.949.191 1.635 0 1.795-.156 1.983-.85.157-.577.302-1.726.388-2.584 1.89 2.27 4.753 3.853 8.762 3.853 7.384 0 12.034-5.771 12.034-13.073 0-7.302-4.505-11.926-11.744-11.926m.853 23.293c-5.302 0-8.479-5.209-8.479-11.775 0-7.861 3.619-9.882 6.794-9.882 4.53 0 8.092 4.39 8.092 11.46 0 9.124-4.474 10.197-6.407 10.197M100.593 28.615c-.38 0-.84-.03-1.28-.127-.61-.155-1.191-.851-1.457-3.684-.445-4.78-1.283-17.62-1.451-19.355-.056-.579-.64-.702-1-.438-.266.196-.636.755-1.009 1.264-4.354 5.94-7.209 9.782-10.915 14.786-.565-2.286-2.349-4.17-6.04-6.618l-1.046-.67c-3.097-2.013-3.972-3.13-4.016-4.6-.058-1.916 1.548-3.288 4.255-3.288 2.38 0 3.47.958 4.036 1.564.794.83 1.006 1.82 1.015 2.107.011.384.127.575.383.575.292 0 .395-.255.373-.958-.074-2.49.045-3.416.032-3.831-.006-.224-.193-.32-.524-.384-.958-.223-2.504-.542-4.883-.542-5.086 0-8.377 2.522-8.272 6.035.078 2.587 1.536 4.822 5.643 7.568l1.718 1.15c3.098 2.043 3.692 3.544 3.74 5.11.05 1.692-1.501 3.64-4.795 3.64-2.269 0-4.454-.862-5.33-3.226-.199-.542-.365-1.213-.377-1.628-.008-.255-.053-.543-.382-.543-.294 0-.36.354-.415.83-.036.306-.147 1.052-.184 1.26-.224 1.303-.604 1.97-1.43 2.351-.826.382-2.16.382-2.986.382-3.24 0-5.59-.477-5.655-2.669-.03-.92 0-3.843 0-4.923v-2.508c0-.192.032-.32.191-.32.763 0 5.284.032 5.887.096 1.175.127 1.62.604 1.78 1.24.094.412.094.825.127 1.142 0 .159.064.286.286.286.285 0 .285-.349.285-.603 0-.223.063-1.493.127-2.129.096-1.62.254-2.127.254-2.318 0-.191-.095-.254-.222-.254-.16 0-.286.159-.508.412-.286.319-.763.414-1.525.477-.731.064-5.76.064-6.458.064-.192 0-.224-.127-.224-.35V6.953c0-.222.064-.317.224-.317.634 0 5.347.064 5.886.127 1.589.19 1.905.572 2.129 1.143.159.38.19.921.19 1.144 0 .285.064.445.286.445.222 0 .286-.19.318-.35.064-.38.127-1.778.158-2.097.096-1.46.254-1.841.254-2.064 0-.159-.032-.286-.19-.286s-.35.096-.509.127c-.253.064-.761.128-1.365.19-.603.033-8.302.033-9.317.033-.445 0-1.175-.033-2.002-.064-.653 0-1.392-.02-2.112-.028-.03-.16-.093-.23-.228-.23-.247 0-1.004.314-3.022.314H38.348c-1.04 0-2.235-.062-3.146-.16-.787-.059-1.088-.257-1.343-.257-.174 0-.28.064-.369.407h-.311c-.42 0-.84.015-1.234.033-.685.025-1.264.056-1.632.061-.638-.01-1.904-.094-3.267-.094-.422 0-.73.032-.73.284 0 .186.113.282.449.282.392 0 1.064 0 1.485.187.6.282.865.787.934 2.266l.099 12.784c-.476-.504-14.33-15.92-14.74-16.232-.527-.399-1.07-.03-1.07.468l-.271 8.272-.385 10.928c-.03 2.728-.567 3.268-1.296 3.707-.332.201-.921.298-1.327.315-.125.006-1.427.065-1.983-.069-.842-.203-1.344-.77-1.44-1.62-.127-1.354-.127-3.841-.127-6.896v-5.54c0-4.787 0-5.668.065-6.677.062-1.101.316-1.638 1.162-1.795.375-.063.623-.094.937-.094.314 0 .499-.062.499-.316 0-.187-.248-.252-.655-.252-1.191 0-3.042.095-3.823.095-.91 0-2.882-.095-4.073-.095-.503 0-.756.065-.756.252 0 .254.19.316.506.316.37 0 .781.031 1.128.126.687.157 1.003.693 1.062 1.763.065 1.01.065 1.89.065 6.676v5.541c0 3.055 0 5.542-.156 6.863-.095.914-.284 1.448-.913 1.578-.277.06-.656.123-1.125.123-.376 0-.504.094-.504.253 0 .22.22.316.629.316 1.255 0 3.228-.096 3.951-.096.843 0 5.563.093 5.712.093 1.623 0 3.266-.05 3.548-.05.593 0 1.841.094 3.871.094.437 0 .718-.063.718-.314 0-.188-.188-.25-.53-.25-.5 0-1.093-.033-1.624-.22-.625-.22-1.03-1.035-1.093-3.483l-.117-6.177-.099-6.147c.506.597 13.023 14.282 14.789 16.165.308.346.643.69.95.69.252 0 .365-.28.365-.973l.308-19.813c.005-.247.012-.474.024-.681.096-1.194.364-1.637.912-1.894.294-.13.707-.168 1.065-.18-.02.908 0 2.744 0 3.14 0 .348.063.504.283.504.187 0 .283-.127.346-.378.061-.254.22-.633.534-1.107.47-.694 1.23-.854 3.056-.92l3.15-.125v12.97c0 2.91 0 5.41-.156 6.738-.095.918-.468 1.611-1.098 1.741-.283.061-1.294.125-1.766.125-.378 0-.505.095-.505.253 0 .222.22.317.632.317 1.256 0 4.057-.095 4.779-.095.883 0 2.87.095 4.944.095.348 0 .603-.095.603-.317 0-.158-.162-.253-.506-.253-.473 0-1.167-.064-1.607-.125-.94-.13-1.132-.823-1.227-1.71-.16-1.36-.16-3.858-.16-6.77V6.716l3.1.095c2.803.064 3.758.95 3.82 1.771l.03.35c.035.473.098.63.35.63.19 0 .25-.187.281-.505 0-.767-.008-2.714-.01-3.513.242.016.46.04.595.074 1.049.223 1.303.73 1.367 1.81.063 1.018.063 1.906.063 6.735v5.59c0 2.922 0 5.43-.16 6.766-.125.92-.285 1.62-.92 1.746-.286.064-.667.128-1.144.128-.38 0-.508.094-.508.255 0 .22.222.316.636.316.635 0 1.461-.032 2.191-.064.762 0 1.461-.031 1.81-.031.954 0 1.938.03 3.304.095 1.366.032 4.956.095 7.337.095 1.207 0 1.493 0 1.715-.825l.023-.101c.091.235.275.35.643.488 1.591.606 3.244.831 5.367.831.7 0 1.415-.04 2.125-.136.94.009 1.736 0 2.325-.02 1.15-.04 2.848 0 3.277 0 .347 0 .636.04.639-.227 0-.149-.091-.253-.39-.253h-.472c-.976 0-.858-.435-.518-.93l4.475-6.46c.125-.187.208-.25.366-.25l6.324-.032c.156 0 .229.064.242.222l.251 6.568c.034.377-.278.662-.519.721-.326.034-.538.063-.526.343.01.264.279.305.855.293 1.14-.027 2.017-.056 3.307-.036 1.142.016 2.313.11 2.928.11 1.163 0 1.568-.155 1.65-.408.072-.22-.128-.342-.38-.342M92.7 19.628l-5.124-.026c-.055 0-.17-.067-.065-.22.492-.713 3.536-5.096 4.85-6.976.087-.123.206-.083.21.041.041.94.35 6.992.35 6.992 0 .094-.062.189-.221.189"></path><path fill="#C69938" d="M141.777 9.563l.001-.002-.01-.007h-.001c-.206-.123-.518-.194-.727-.103-1.337-.127-2.615-.113-3.967-.097h-.04l-.053.002c-.678.007-1.38.015-2.08.003l-5.668-.115c-1.327-.036-2.785-.026-4.212.028-1.058.009-2.084.036-3.13.066-1.09.03-3.691.037-5.246.042-.827.003-1.262.003-1.317.006-.184.01-.406.267-.411.473-.003.116.065.247.262.267.146.015 1.087.02 2.795.014l1.744-.007c.465-.003.68.005.78-.005l.013-.001c1.282-.129 2.57-.121 3.816-.113h.096c.806.004 1.64.009 2.48-.024.174.04.358.002.535-.033l.027-.005c.08-.015.16-.031.239-.038.191.055.409.052.64.047.222-.004.449-.008.655.041l.001.004h.036v-.007c.18-.06.346-.028.521.007l.032.005c.083.017.161.03.239.034 1.619-.045 3.41.014 5.645.185l1.058.113h.011c.94-.092 1.912-.02 2.852.048l.023.002c.706.052 1.373.1 2.036.086l.004.008.04-.014-.002-.009.35-.28.003.002.015-.017-.002-.003c.117-.186.081-.45-.083-.603"></path><path fill="#007B47" d="M132.399 21.605l.029-.02-.001-.068-.024-2.206-.001-.006v-.007c-.04-.33-.048-.698-.056-1.087-.01-.437-.02-.89-.079-1.288-.01-.573-.124-1.186-.234-1.78l-.073-.402-.008-.039-.027-.028c-.088-.089-.118-.2-.152-.33-.029-.107-.058-.218-.126-.324-.147-.27-.382-.531-.59-.763l-.01-.013c-.051-.069-.112-.106-.165-.14-.031-.02-.06-.04-.092-.067l-.048-.04-.029.006-.037-.03c-.187-.15-.362-.207-.563-.273l-.004-.001c-.06-.085-.17-.097-.246-.099v-.054l-.105-.016-.49-.074-.073-.011-.044.06c-.018.024-.023.03-.126-.009-.047-.016-.1-.035-.156-.04l-.058-.006-.028.028c-.014-.011-.033-.022-.055-.034l-.204-.061-.016.095c-.092-.002-.17.015-.235.05h-.323l-.3.002.034.116-.005.005c-.133-.034-.234.048-.29.094l-.027.022c-.107.018-.168.062-.21.096-.032.024-.043.031-.072.034l-.05.004-.033.04c-.046.053-.188.117-.263.15l-.166.074.036.036c-.026.011-.053.028-.078.05h-.16v.128c-.007-.001-.012-.001-.017-.003l-.09-.04c-.008-.002-.065.077-.065.077-.098.137-.224.27-.357.413-.157.167-.32.338-.443.525l-.037.054.024.057c-.03.018-.105.066-.12.157-.06.066-.074.153-.083.212-.003.018-.006.043-.01.055-.067.079-.082.158-.092.217-.008.048-.013.073-.032.098l-.08.1.037.026c-.023.06-.024.122-.025.16 0 .017 0 .037-.003.05l-.051.032.012.08c.022.155.002.3-.02.451-.02.146-.038.297-.022.462-.061.093-.046.201-.036.27.003.023.008.054.007.07l-.08.061.056.094c.043.072.01.185-.022.294-.032.103-.068.232-.03.342-.01.009-.019.018-.027.03-.014.02-.026.052-.024.092 0 .084-.007.11-.012.118l-.057.12-.008.047.104.074c-.012.071-.003.137.006.195.013.08.015.114-.008.146l-.066.119.065.078v.02c-.003.054-.009.15.058.222.001.014.004.026.008.039l-.12.03.078.168c0 .011-.005.028-.008.04-.012.05-.034.147.016.232-.038.098-.014.192.002.255l.013.059c-.114.119-.06.276-.028.36-.052.08-.04.177-.029.236l-.153.052.156.16c-.007.034-.007.076.018.12.018.028.041.045.065.056l-.048.015.007.016h-.002l.056.142-.003.016c-.012.084.007.165.048.23-.014.017-.022.04-.025.068l-.06.06.059.086c.046.066.029.154-.005.29-.03.119-.068.272.002.402l-.087.085.108.078-.008.016c-.027.052-.078.147-.015.25l-.006-.012c.023.05.013.13.003.216-.015.124-.033.275.033.424l-.02.15.004-.02c-.018.06-.004.109.014.145l-.047.022.034.105c.034.107.035.24.035.382 0 .266.001.568.242.797l.052.048.068-.02c.18-.052.188-.23.193-.326 0-.022.002-.04.004-.056l.003-.026-.007-.026c-.072-.243-.041-.564-.014-.846.007-.075.014-.145.018-.214l.003-.034-.015-.03c-.049-.099-.037-.196-.023-.307.013-.102.024-.217-.011-.334.04-.518.017-1.127-.005-1.668-.009-.229-.018-.444-.021-.643l-.001-.006v-.007c-.032-.254-.024-.527-.015-.792.006-.237.013-.483-.009-.707.057-.258.054-.494.05-.743-.002-.114-.005-.23 0-.353v-.03l-.008-.016c.055-.067.069-.136.04-.204.025-.094.03-.184.032-.266.002-.064.005-.125.017-.182l.008-.03-.008-.03c-.015-.055-.001-.117.014-.183.019-.082.04-.177.006-.272.095-.193.116-.43.136-.662l.006-.08c.01-.049-.008-.096-.049-.138v-.007c0-.102.053-.184.12-.289.072-.113.154-.242.175-.419l.003-.029-.002-.005.028-.026c.045-.037.113-.095.11-.187 0-.016-.002-.033-.007-.048.085-.078.137-.164.185-.243.07-.118.12-.201.257-.24l.067-.02.018-.068c.02-.076.085-.12.191-.185.079-.05.166-.105.231-.19.089.008.143-.016.174-.05.108-.025.19-.088.257-.143.113-.09.15-.111.227-.076l.077.035.05-.048.01-.003c.035-.01.097-.026.133-.084.033-.007.064-.017.09-.026.063-.023.077-.024.1-.013.021.015.064.03.114.017l.004.009.09-.011.12-.016c.353-.045.659-.085.935.064l.098.052.06-.088.037.041c.07.08.194.216.374.185.04.034.084.062.123.085.017.008.036.022.052.031v.006l.024.032c.056.075.175.11.27.113.207.218.418.517.418.648v.123h.091l.002.007c.034.161.08.362.207.493-.036.082-.005.182.008.223l.013.046-.031.091.08.082.019.011c-.005.083.033.162.06.216l.022.048-.02.044c-.11.211.037.329.109.384.01.01.018.016.025.021-.055.043-.052.087-.063.162l.01.093.037.06.003.001.005.013c.006.018.014.043.029.071l-.043.04-.029.111.062.087.047.025c0 .05.019.094.033.123l.007.019-.011.054c-.041.202-.092.462.033.673l-.01.01c-.058.077-.044.166-.033.231.003.02.008.056.006.066l-.03.126c-.003.005.039.016.075.024-.004.012-.01.024-.012.038l-.027.146h.05c-.009.05-.011.097-.012.139-.001.074-.004.121-.03.16l-.01.017-.006.02c-.037.132.014.257.053.357l.02.056c-.02.024-.042.056-.039.105l.008.03-.026.026.023.071c.012.041.038.065.068.082l-.02.005c-.005.001-.005.096-.005.096v.035l-.078.022.04.08c-.02.037-.04.09-.02.15l-.052.095c.003-.003.008.056.056.078-.05.168.073.29.145.364.03.03.05.052.064.07h-.061l.045.16.002.003c-.01.01-.021.02-.031.035l-.102.05.034.136-.011.032c-.024.071-.005.12.016.15l.014.014c-.036.035-.078.088-.085.17l-.012.116.095.015c-.009.024-.016.048-.022.07-.012.044-.022.082-.042.111l.001.001c-.003.005-.007.01-.008.015l.164.092c-.024.044-.037.086-.047.12l-.017.05H131.517l.008.16c.009.024.011.052.015.085.003.029.006.063.015.097v.16c0 .021 0 .054.007.09l-.018.01.012.088c.007.044.003.088 0 .132-.002.024-.004.054-.004.083l-.112.057.137.15-.003.007c-.015.036-.034.086-.034.141h-.098l.166.202c.014.017.026.063.036.095 0 .005.003.009.003.013-.068.065-.078.163-.084.216-.002.022-.005.057-.01.068l.001-.004.043.056c-.034.024-.053.052-.063.074-.019.04-.02.08-.016.116h-.16l.133.132-.124.042.103.085v.329c0 .06.029.108.076.133l.008.003c.066.045.14.042.197.028v.136l.158-.047c.116-.034.205-.04.296-.021l.13.026.017-.131c.064-.491.05-.967.038-1.427-.012-.448-.023-.872.034-1.288.036-.081-.001-.157-.025-.196"></path><path fill="#2570B8" d="M122.994 21.605l.028-.02v-.068l-.024-2.206-.002-.013c-.04-.33-.047-.698-.056-1.087-.01-.437-.019-.89-.078-1.288-.011-.573-.124-1.186-.234-1.78l-.074-.402-.006-.039-.028-.028c-.089-.089-.118-.2-.152-.33-.029-.107-.059-.218-.127-.324-.147-.27-.381-.531-.589-.763l-.01-.013c-.052-.069-.113-.106-.166-.14-.03-.02-.06-.04-.092-.067l-.047-.04-.029.006-.037-.03c-.187-.15-.362-.207-.564-.273l-.004-.001c-.058-.085-.169-.097-.245-.099v-.054l-.105-.016-.49-.074-.074-.011-.044.06c-.017.024-.022.03-.126-.009-.047-.016-.098-.035-.155-.04l-.058-.006-.028.028c-.015-.011-.033-.022-.056-.034l-.204-.061-.016.095c-.09-.002-.17.015-.234.05h-.324l-.3.002.035.116-.006.005c-.132-.034-.233.048-.289.094l-.028.022c-.106.018-.167.062-.21.096-.032.024-.042.031-.071.034l-.05.004-.034.04c-.046.053-.187.117-.262.15l-.166.074.037.036c-.027.011-.054.028-.08.05h-.16v.128c-.006-.001-.013-.001-.016-.003l-.09-.04c-.008-.002-.066.077-.066.077-.097.137-.224.27-.357.413-.157.167-.318.338-.442.525l-.039.054.025.057c-.03.018-.105.066-.118.157-.06.066-.075.153-.084.212l-.011.055c-.065.079-.082.158-.09.217-.01.048-.014.073-.034.098l-.077.1.035.026c-.024.06-.025.122-.025.16 0 .017 0 .037-.002.05l-.052.032.01.08c.024.155.004.3-.018.451-.02.146-.039.297-.023.462-.06.093-.046.201-.035.27.003.023.008.054.006.07l-.079.061.056.094c.043.072.009.185-.024.294-.03.103-.066.232-.027.342-.01.009-.02.018-.029.03-.013.02-.025.052-.022.092 0 .084-.009.11-.012.118l-.059.12-.009.047.106.074c-.012.071-.003.137.006.195.013.08.016.114-.008.146l-.067.119.066.078v.02c-.004.054-.009.15.058.222 0 .014.004.026.008.039l-.12.03.079.168-.009.04c-.013.05-.035.147.015.232-.037.098-.013.192.002.255.004.018.012.042.013.059-.113.119-.058.276-.027.36-.053.08-.041.177-.03.236l-.153.052.157.16c-.007.034-.008.076.018.12.017.028.04.045.065.056l-.048.015.006.016.055.142-.003.016c-.012.084.007.165.048.23-.014.017-.023.04-.026.068l-.06.06.06.086c.046.066.028.154-.006.29-.03.119-.068.272.003.402l-.087.085.108.078-.008.016c-.027.052-.078.147-.015.25l-.006-.012c.023.05.013.13.002.216-.015.124-.033.275.034.424l-.022.15.006-.02c-.018.06-.004.109.014.145l-.048.022.034.105c.035.107.035.24.036.382.001.266.001.568.241.797l.053.048.068-.02c.179-.052.188-.23.192-.326l.005-.056.003-.026-.008-.026c-.072-.243-.04-.564-.014-.846.007-.075.014-.145.019-.214l.003-.034-.015-.03c-.05-.099-.038-.196-.024-.307.013-.102.025-.217-.011-.334.041-.518.017-1.127-.004-1.668-.01-.229-.018-.444-.022-.643v-.006l-.001-.007c-.031-.254-.023-.527-.015-.792.008-.237.014-.483-.008-.707.056-.258.053-.494.05-.743-.003-.114-.005-.23-.002-.353l.002-.03-.008-.016c.055-.067.068-.136.04-.204.025-.094.029-.184.032-.266.003-.064.004-.125.018-.182l.007-.03-.009-.03c-.015-.055 0-.117.015-.183.018-.082.039-.177.005-.272.096-.193.118-.43.136-.662l.008-.08c.008-.049-.009-.096-.05-.138v-.007c0-.102.053-.184.119-.289.073-.113.154-.242.175-.419l.004-.029-.002-.005c.008-.009.018-.017.028-.026.044-.037.112-.095.11-.187 0-.016-.002-.033-.008-.048.085-.078.138-.164.186-.243.07-.118.119-.201.257-.24l.067-.02.017-.068c.02-.076.086-.12.191-.185.08-.05.166-.105.231-.19.09.008.143-.016.175-.05.107-.025.19-.088.257-.143.112-.09.15-.111.226-.076l.078.035.05-.048c.003 0 .006-.003.006-.003.04-.01.1-.026.136-.084.034-.007.065-.017.09-.026.063-.023.078-.024.1-.013.022.015.064.03.115.017l.004.009.09-.011.119-.016c.354-.045.66-.085.935.064l.1.052.058-.088.038.041c.07.08.194.216.374.185.039.034.084.062.123.085l.051.031v.006l.024.032c.056.075.175.11.27.113.208.218.418.517.418.648v.123h.092l.001.007c.035.161.08.362.207.493-.035.082-.005.182.008.223l.013.046-.03.091.08.082.018.011c-.005.083.034.162.061.216.007.016.015.033.02.048l-.018.044c-.112.211.037.329.108.384l.026.021c-.055.043-.053.087-.064.162l.01.093.037.06.004.001c.001.005.002.01.004.013.006.018.014.043.03.071l-.043.04-.029.111.061.087.049.025c-.003.05.017.094.031.123l.008.019-.012.054c-.04.202-.091.462.034.673l-.01.01c-.059.077-.044.166-.034.231.003.02.01.056.007.066l-.032.126c-.002.005.04.016.076.024-.004.012-.009.024-.011.038l-.028.146h.05c-.008.05-.01.097-.01.139-.003.074-.005.121-.031.16l-.01.017-.006.02c-.036.132.012.257.052.357l.021.056c-.021.024-.04.056-.039.105 0 .011.005.02.008.03l-.027.026.023.071c.014.041.038.065.069.082l-.02.005c-.005.001-.005.096-.005.096v.035l-.078.022.04.08c-.02.037-.04.09-.02.15l-.053.095c.002-.003.01.056.057.078-.05.168.071.29.144.364.031.03.05.052.065.07h-.062l.047.16v.003c-.01.01-.021.02-.031.035l-.1.05.032.136-.01.032c-.024.071-.004.12.016.15.003.005.009.009.014.014-.037.035-.078.088-.085.17l-.012.116.094.015c-.009.024-.016.048-.021.07-.012.044-.022.082-.043.111l.001.001c-.002.005-.007.01-.008.015l.164.092c-.023.044-.036.086-.046.12-.005.017-.012.038-.018.05H122.112l.007.16c.009.024.012.052.015.085.003.029.007.063.015.097v.16c0 .021.002.054.008.09l-.02.01.014.088c.006.044.003.088 0 .132-.002.024-.005.054-.003.083l-.113.057.137.15c0 .002-.003.005-.003.005-.016.038-.035.088-.035.143h-.098l.166.202c.015.017.027.063.037.095l.003.013c-.068.065-.079.163-.084.216-.003.022-.006.057-.012.068l.003-.004.041.056c-.032.024-.051.052-.062.074-.018.04-.02.08-.014.116h-.161l.132.132-.124.042.103.085v.329c0 .06.029.108.078.133l.006.003c.067.045.14.042.198.028v.136l.158-.047c.115-.034.205-.04.295-.021l.13.026.018-.131c.063-.491.05-.967.038-1.427-.013-.448-.023-.872.034-1.288.036-.081-.001-.157-.025-.196"></path><path fill="#F26927" d="M141.643 21.772l.029-.02v-.067l-.026-2.207v-.014c-.04-.33-.049-.697-.057-1.087-.01-.437-.02-.888-.078-1.288-.01-.573-.123-1.186-.234-1.778l-.074-.404-.007-.038-.027-.028c-.09-.088-.118-.2-.153-.33-.028-.107-.057-.219-.125-.324-.149-.27-.382-.532-.59-.763l-.01-.013c-.053-.069-.113-.107-.166-.141-.03-.02-.06-.038-.091-.066l-.048-.04-.029.006-.037-.03c-.187-.15-.361-.206-.563-.273l-.004-.001c-.06-.084-.17-.097-.246-.1v-.054l-.105-.015-.49-.074-.073-.011-.044.06c-.019.023-.023.03-.127-.01-.046-.015-.099-.034-.156-.04l-.056-.005-.029.028c-.015-.011-.033-.023-.056-.034l-.204-.062-.015.095c-.092-.001-.17.017-.236.051h-.323l-.3.002.036.115-.006.006c-.133-.034-.234.048-.29.094l-.028.022c-.106.018-.166.063-.21.096-.03.023-.041.031-.07.034l-.052.004-.033.04c-.045.054-.186.116-.262.15l-.166.073.036.037c-.026.01-.053.028-.079.05h-.158v.127c-.007 0-.015 0-.019-.002l-.09-.039c-.007-.003-.064.076-.064.076-.098.136-.224.27-.358.413-.156.166-.318.338-.442.524l-.038.056.025.056c-.03.017-.105.065-.12.156-.06.066-.074.154-.083.212-.003.019-.007.044-.012.054-.065.081-.081.16-.09.22-.008.046-.013.072-.032.097l-.079.1.036.026c-.024.058-.025.122-.025.16 0 .016-.001.037-.003.05l-.051.033.011.08c.022.154.002.298-.019.45-.02.146-.038.296-.023.463-.06.091-.045.2-.036.269.004.022.009.055.007.07l-.08.06.058.094c.042.073.009.185-.024.295-.03.104-.067.232-.029.342-.01.008-.02.018-.028.03-.013.019-.025.051-.023.092 0 .084-.008.11-.011.118l-.058.12-.009.048.105.072c-.011.072-.003.14.006.196.012.08.015.114-.008.146l-.066.119.065.077-.001.021c-.003.053-.007.15.059.221l.008.04-.12.031.078.167c-.001.011-.005.027-.008.04-.012.05-.034.147.015.233-.036.096-.013.191.003.254.004.018.01.042.012.06-.113.117-.059.276-.027.36-.053.08-.04.176-.03.235l-.153.051.157.16c-.007.035-.008.078.018.12.018.029.042.046.065.056l-.047.015.005.017h-.001l.056.142-.002.016c-.013.083.007.166.047.23-.014.016-.022.04-.025.068l-.06.06.059.086c.046.066.028.153-.007.29-.03.119-.066.272.004.402l-.086.085.107.079-.008.016c-.027.05-.077.147-.015.249l-.006-.012c.023.049.014.13.002.217-.014.123-.032.274.034.422l-.02.15.003-.017c-.018.057-.003.106.015.143l-.048.022.034.104c.035.109.035.242.035.382.002.267.002.568.242.797l.051.05.07-.02c.18-.053.188-.232.193-.327 0-.022.002-.042.003-.056l.004-.027-.007-.025c-.072-.243-.041-.563-.015-.846.008-.074.014-.145.02-.215l.002-.034-.015-.03c-.05-.098-.037-.195-.023-.307.012-.1.024-.216-.013-.334.042-.516.017-1.127-.004-1.667-.008-.229-.017-.444-.021-.643V20.396c-.032-.253-.023-.528-.016-.793.007-.237.015-.482-.007-.707.056-.257.053-.494.048-.743-.002-.112-.004-.23 0-.352v-.031l-.007-.015c.056-.067.068-.136.04-.204.026-.096.03-.184.033-.266.002-.064.004-.125.016-.181l.008-.03-.009-.031c-.014-.055 0-.117.015-.183.019-.081.04-.178.005-.273.097-.193.117-.43.137-.661l.006-.079c.008-.05-.008-.097-.049-.14V15.7c0-.1.053-.183.119-.287.072-.114.154-.242.176-.42l.002-.03-.002-.005c.009-.009.02-.017.029-.024.044-.039.112-.096.11-.189 0-.016-.003-.032-.008-.047.086-.078.138-.165.186-.244.07-.117.12-.2.256-.24l.067-.02.018-.067c.02-.076.085-.12.192-.185.079-.05.166-.106.231-.189.089.007.143-.018.174-.05.107-.026.19-.09.257-.145.112-.091.15-.11.227-.074l.078.035.048-.05.011-.002c.036-.009.097-.028.133-.085.033-.006.064-.017.089-.025.063-.023.077-.025.1-.012.023.013.064.029.115.016l.004.01.09-.013.119-.015c.355-.046.66-.085.935.064l.1.053.058-.089.038.04c.07.08.194.215.374.186.04.034.083.062.123.085.016.009.037.02.052.03v.006l.024.033c.056.074.175.11.27.113.207.218.417.517.417.648v.122h.092l.002.008c.035.162.08.362.206.493-.035.082-.005.181.008.224l.014.045-.03.091.08.082.018.01c-.005.084.033.163.06.219.007.013.015.03.021.046l-.019.045c-.11.21.037.327.108.383l.026.022c-.055.042-.052.086-.063.161l.01.093.037.06.002.001.005.013c.006.018.014.043.029.07l-.042.041-.03.11.063.089.047.023c-.001.05.019.095.032.125l.008.018-.01.055c-.043.2-.094.461.032.673l-.007.005c-.06.081-.046.17-.036.234.002.022.009.056.006.068l-.031.124c-.002.006.04.017.076.024-.005.013-.01.025-.012.039l-.027.147h.05c-.01.048-.011.095-.012.138-.002.074-.004.12-.03.16l-.011.016-.005.02c-.036.133.013.258.052.358.008.02.015.038.02.056-.02.023-.04.056-.038.104 0 .012.005.02.008.03l-.026.026.023.072c.013.042.038.066.069.082l-.022.005c-.005 0-.005.097-.005.097v.034l-.076.02.038.082c-.02.037-.04.09-.02.15l-.052.094s.01.056.057.08c-.05.168.072.289.145.363.03.03.05.052.064.071h-.061l.046.158.001.004c-.01.01-.021.021-.032.035l-.1.049.032.136-.01.034c-.023.07-.005.119.016.149.004.006.009.009.014.014-.037.036-.078.088-.086.17l-.011.116.093.014-.02.071c-.012.045-.022.082-.042.112h.001c-.002.005-.007.01-.01.014l.165.094c-.023.043-.037.085-.045.118-.006.017-.013.039-.019.05H140.762l.006.162c.009.023.011.05.016.084.002.03.007.062.014.097v.16c0 .02.001.054.008.089l-.019.01.013.089c.006.043.003.088 0 .131-.003.025-.004.054-.004.084l-.112.057.137.15-.003.006c-.015.037-.034.088-.034.144h-.098l.166.201c.014.016.027.06.035.094l.004.013c-.068.065-.078.163-.084.216-.002.023-.006.057-.011.068l.001-.003.043.054c-.033.025-.052.052-.063.076-.018.04-.019.078-.015.114h-.16l.132.134-.124.04.103.086v.33c0 .058.03.108.078.133l.009.003c.064.043.137.041.195.027v.136l.158-.046c.116-.035.204-.042.295-.023l.13.027.017-.132c.064-.49.051-.966.039-1.426-.012-.448-.024-.872.034-1.289.036-.081-.002-.156-.025-.195"></path><mask id="prefix__b" fill="#fff"><use xlink:href="#prefix__a"></use></mask><path fill="#F26927" d="M111.49 33.869h33.87V0h-33.87v33.869zm1.786-1.788h30.291V1.787h-30.29v30.294z" mask="url(#prefix__b)"></path></g></svg> 