<?xml version="1.0" encoding="UTF-8"?> <svg xmlns="http://www.w3.org/2000/svg" xmlns:xlink="http://www.w3.org/1999/xlink" width="135px" height="16px" viewBox="0 0 135 16" version="1.1"><!-- Generator: Sketch 64 (93537) - https://sketch.com --><title>NBCUniversal logo mobile</title><desc>Created with Sketch.</desc><g id="Mobile" stroke="none" stroke-width="1" fill="none" fill-rule="evenodd"><g id="Home-footer-collapsed" transform="translate(-239.000000, -2576.000000)" fill="#FFFFFF"><g id="Group-6" transform="translate(239.000000, 2576.000000)"><g id="NBCUniversal-logo-mobile"><path d="M0,14.71641 L0.8077,13.90861 C1.0047,13.71161 1.1032,13.48841 1.1032,13.23891 L1.1032,0.49251 L1.3002,0.49251 L10.9535,9.20021 L10.9535,2.79751 C10.9535,2.54791 10.855,2.32461 10.658,2.12771 L9.8503,1.32001 L9.8503,1.12301 L14.9528,1.12301 L14.9528,1.32001 L14.1451,2.12771 C13.9481,2.32471 13.8496,2.54801 13.8496,2.79751 L13.8496,15.44531 L13.6526,15.44531 L3.9992,6.71791 L3.9992,13.23881 C3.9992,13.48831 4.0977,13.71161 4.2947,13.90851 L5.1024,14.71631 L5.1024,14.91331 L0,14.91331 L0,14.71641 Z" id="Fill-1"></path><path d="M24.05371,12.3917 C25.53781,12.3917 26.27991,11.8072 26.27991,10.6383 C26.27991,9.5352 25.53781,8.9835 24.05371,8.9835 L20.62581,8.9835 L20.62581,12.3917 L24.05371,12.3917 Z M24.11271,6.58 C25.22911,6.58 25.78731,6.094 25.78731,5.1221 C25.78731,4.6624 25.64611,4.2947 25.36371,4.0189 C25.08131,3.7431 24.66431,3.6052 24.11271,3.6052 L20.62571,3.6052 L20.62571,6.58 L24.11271,6.58 Z M16.37041,14.7164 L17.17811,13.9086 C17.37511,13.7116 17.47361,13.4884 17.47361,13.2389 L17.47361,2.7975 C17.47361,2.5479 17.37511,2.3246 17.17811,2.1277 L16.37041,1.32 L16.37041,1.123 L24.50671,1.123 C25.92521,1.123 27.01201,1.4448 27.76711,2.0883 C28.52241,2.7318 28.90001,3.5855 28.90001,4.6494 C28.90001,6.2517 28.07261,7.2564 26.41771,7.6636 L26.41771,7.703 C28.45341,8.0577 29.47131,9.1805 29.47131,11.0718 C29.47131,12.3326 29.02801,13.2881 28.14151,13.9382 C27.25501,14.5883 26.01711,14.9134 24.42791,14.9134 L16.37041,14.9134 L16.37041,14.7164 Z" id="Fill-4"></path><path d="M33.25322,13.24863 C31.88732,11.95483 31.20442,10.22463 31.20442,8.05763 C31.20442,5.87733 31.89392,4.13713 33.27302,2.83693 C34.65212,1.53673 36.39882,0.88643 38.51342,0.88643 C38.98622,0.88643 39.56412,0.92923 40.24702,1.01463 C40.93002,1.10003 41.35682,1.14253 41.52752,1.14253 C42.02662,1.14253 42.48632,0.97843 42.90662,0.65013 L43.10362,0.72893 L41.92162,5.39803 L41.70492,5.33893 C41.56052,4.83983 41.23542,4.40643 40.72982,4.03873 C40.22412,3.67103 39.55102,3.48713 38.71052,3.48713 C37.51532,3.48713 36.52702,3.90413 35.74562,4.73813 C34.96422,5.57213 34.57342,6.68523 34.57342,8.07743 C34.57342,9.43013 34.94112,10.52363 35.67662,11.35763 C36.41212,12.19163 37.37742,12.60863 38.57262,12.60863 C39.96482,12.60863 41.06142,12.06353 41.86262,10.97343 L43.71452,13.12083 C42.42742,14.49983 40.67412,15.18943 38.45442,15.18943 C36.35282,15.18923 34.61912,14.54243 33.25322,13.24863" id="Fill-6"></path><path d="M47.5749,13.73135 C46.4979,12.75925 45.9594,11.34745 45.9594,9.49575 L45.9594,2.79755 C45.9594,2.54795 45.8609,2.32465 45.6639,2.12765 L44.8562,1.32005 L44.8562,1.12305 L50.1754,1.12305 L50.1754,1.32005 L49.3676,2.12765 C49.1706,2.32475 49.0721,2.54805 49.0721,2.79755 L49.0721,9.57455 C49.0721,10.57255 49.3151,11.32125 49.8011,11.82035 C50.287,12.31955 50.9831,12.56895 51.8893,12.56895 C52.7824,12.56895 53.4686,12.31625 53.948,11.81055 C54.4274,11.30475 54.6671,10.55945 54.6671,9.57455 L54.6671,2.79755 C54.6671,2.54795 54.5686,2.32465 54.3716,2.12765 L53.5638,1.32005 L53.5638,1.12305 L58.9224,1.12305 L58.9224,1.32005 L58.1147,2.12765 C57.9177,2.32475 57.8192,2.54805 57.8192,2.79755 L57.8192,9.49575 C57.8192,11.34755 57.2774,12.75935 56.1939,13.73135 C55.1104,14.70325 53.6755,15.18915 51.8893,15.18915 C50.09,15.18915 48.6519,14.70325 47.5749,13.73135" id="Fill-8"></path><path d="M60.35981,14.71641 L61.16761,13.90861 C61.36461,13.71161 61.46311,13.40961 61.46311,13.00241 L61.46311,7.36801 C61.46311,6.96091 61.36461,6.65881 61.16761,6.46181 L60.35981,5.65411 L60.35981,5.45711 L64.33941,5.45711 L64.33941,7.15131 C64.56261,6.61281 64.97311,6.16631 65.57071,5.81171 C66.16831,5.45711 66.81511,5.27981 67.51121,5.27981 C68.53561,5.27981 69.33021,5.60811 69.89501,6.26481 C70.45981,6.92151 70.74211,7.84091 70.74211,9.02281 L70.74211,13.00251 C70.74211,13.40961 70.84061,13.71171 71.03761,13.90871 L71.84541,14.71651 L71.84541,14.91351 L67.78701,14.91351 L67.78701,9.67301 C67.78701,9.10821 67.65571,8.65841 67.39301,8.32351 C67.13041,7.98861 66.74291,7.82111 66.23071,7.82111 C65.62651,7.82111 65.17341,8.00831 64.87131,8.38261 C64.56921,8.75691 64.41821,9.23961 64.41821,9.83061 L64.41821,13.00241 C64.41821,13.40951 64.51671,13.71161 64.71371,13.90861 L65.52141,14.71641 L65.52141,14.91341 L60.35981,14.91341 L60.35981,14.71641 L60.35981,14.71641 Z" id="Fill-10"></path><path d="M74.06123,3.56582 C73.71323,3.23752 73.53903,2.83032 73.53903,2.34442 C73.53903,1.85852 73.71313,1.45132 74.06123,1.12302 C74.40913,0.79462 74.81963,0.63052 75.29253,0.63052 C75.76543,0.63052 76.17573,0.79472 76.52383,1.12302 C76.87173,1.45132 77.04593,1.85852 77.04593,2.34442 C77.04593,2.83032 76.87183,3.23752 76.52383,3.56582 C76.17573,3.89412 75.76543,4.05832 75.29253,4.05832 C74.81963,4.05832 74.40923,3.89412 74.06123,3.56582 L74.06123,3.56582 Z M72.73143,14.71642 L73.53903,13.90862 C73.73623,13.71162 73.83453,13.40962 73.83453,13.00242 L73.83453,7.36802 C73.83453,6.96092 73.73623,6.65882 73.53903,6.46182 L72.73143,5.65412 L72.73143,5.45712 L76.78973,5.45712 L76.78973,13.00252 C76.78973,13.40962 76.88813,13.71172 77.08513,13.90872 L77.89293,14.71652 L77.89293,14.91352 L72.73143,14.91352 L72.73143,14.71642 Z" id="Fill-12"></path><path d="M79.58682,7.56499 C79.14032,6.69819 78.64132,6.06779 78.08962,5.67369 L78.08962,5.45699 L81.71442,5.45699 L83.66492,10.02759 L83.70442,10.02759 L85.41822,5.45699 L89.10232,5.45699 L89.10232,5.67369 C88.53772,6.06769 88.03862,6.69819 87.60502,7.56499 L83.70442,15.34669 L83.50732,15.34669 L79.58682,7.56499 Z" id="Fill-14"></path><path d="M92.96318,8.01816 C92.62178,8.37276 92.43148,8.80636 92.39188,9.31836 L96.09558,9.31836 C96.06928,8.77986 95.90518,8.34006 95.60298,7.99856 C95.30098,7.65696 94.87408,7.48625996 94.32248,7.48625996 C93.75768,7.48616 93.30458,7.66366 92.96318,8.01816 M90.79618,13.87906 C89.86358,13.00566 89.39738,11.82696 89.39738,10.34276 C89.39738,8.84556 89.85718,7.62746 90.77648,6.68836 C91.69578,5.74936 92.94348,5.27976 94.51948,5.27976 C96.04308,5.27976 97.18578,5.72306 97.94738,6.60966 C98.70928,7.49606 99.09028,8.68796 99.09028,10.18526 C99.09028,10.48736 99.07688,10.76986 99.05068,11.03256 L92.43148,11.03256 C92.49698,11.53156 92.74008,11.95176 93.16028,12.29316 C93.58038,12.63466 94.13858,12.80546 94.83468,12.80546 C95.71488,12.80546 96.39108,12.54276 96.86398,12.01736 L98.49918,13.94816 C97.60598,14.77546 96.29918,15.18926 94.57868,15.18926 C92.98938,15.18926 91.72858,14.75256 90.79618,13.87906" id="Fill-16"></path><path d="M100.44873,14.71641 L101.25653,13.90861 C101.45363,13.71161 101.55193,13.40961 101.55193,13.00241 L101.55193,7.36801 C101.55193,6.96091 101.45363,6.65881 101.25653,6.46181 L100.44873,5.65411 L100.44873,5.45711 L104.42843,5.45711 L104.42843,7.36801 C104.65153,6.76381 105.01943,6.26481 105.53153,5.87081 C106.04383,5.47681 106.63473,5.27981 107.30453,5.27981 C107.79043,5.27981 108.20433,5.37171 108.54573,5.55561 L107.77733,8.51081 C107.35703,8.14301 106.88413,7.95911 106.35893,7.95911 C105.78103,7.95911 105.32783,8.14951 104.99953,8.53041 C104.67123,8.91141 104.50693,9.44981 104.50693,10.14591 L104.50693,13.00241 C104.50693,13.40951 104.60523,13.71161 104.80243,13.90861 L105.61013,14.71641 L105.61013,14.91341 L100.44853,14.91341 L100.44853,14.71641 L100.44873,14.71641 Z" id="Fill-18"></path><path d="M108.86055,13.90859 L110.23965,11.89919 C111.11965,12.62149 112.17675,12.98269 113.41145,12.98269 C114.25195,12.98269 114.67225,12.71999 114.67225,12.19469 C114.67225,11.94509 114.56385,11.75469 114.34705,11.62339 C114.13045,11.49199 113.84485,11.40009 113.49035,11.34749 C113.13565,11.29499 112.73495,11.22919 112.28845,11.15049 C110.35785,10.82219 109.39235,9.89619 109.39235,8.37269 C109.39235,7.28259 109.77655,6.49459 110.54495,6.00859 C111.31315,5.52259 112.28845,5.27969 113.47055,5.27969 C113.93005,5.27969 114.41285,5.32239 114.91855,5.40769 C115.42425,5.49309 115.76235,5.53579 115.93305,5.53579 C116.36645,5.53579 116.79985,5.37159 117.23325,5.04329 L117.43025,5.12209 L116.50435,8.72729 L116.30745,8.66819 C115.91325,7.82769 115.02665,7.40739 113.64785,7.40739 C112.82035,7.40739 112.40665,7.65039 112.40665,8.13629 C112.40665,8.35949 112.50845,8.53689 112.71195,8.66819 C112.91565,8.79949 113.18805,8.88819 113.52945,8.93409 C113.87105,8.98019 114.25855,9.04249 114.69195,9.12129 C115.54575,9.26569 116.25825,9.55469 116.82945,9.98819 C117.40075,10.42159 117.68635,11.05199 117.68635,11.87939 C117.68635,12.93009 117.28895,13.74439 116.49455,14.32229 C115.70005,14.90019 114.60665,15.18919 113.21445,15.18919 C111.34955,15.18919 109.89805,14.76229 108.86055,13.90859" id="Fill-20"></path><path d="M124.30537,12.57891 C124.64677,12.23091 124.81747,11.81391 124.81747,11.32791 L124.81747,10.67771 C124.64677,10.74331 124.23307,10.79591 123.57647,10.83521 C122.39457,10.90091 121.80347,11.30821 121.80347,12.05681 C121.80347,12.35891 121.90187,12.60841 122.09907,12.80541 C122.29587,13.00241 122.59137,13.10091 122.98547,13.10091 C123.52397,13.10101 123.96377,12.92691 124.30537,12.57891 M119.71517,14.43071 C119.13717,13.92501 118.84837,13.25861 118.84837,12.43101 C118.84837,11.39351 119.22577,10.61861 119.98087,10.10651 C120.73627,9.59421 121.91497,9.32511 123.51717,9.29871 C124.01617,9.28561 124.35777,9.22331 124.54157,9.11161 C124.72557,9.00001 124.81737,8.80631 124.81737,8.53041 C124.81737,8.25461 124.67617,8.02471 124.39407,7.84091 C124.11167,7.65701 123.68157,7.56511 123.10357,7.56511 C122.22357,7.56511 121.42247,7.89351 120.70007,8.55021 L119.16337,6.73771 C120.13557,5.76581 121.54727,5.27991 123.39907,5.27991 C124.89637,5.27991 125.99637,5.58201 126.69897,6.18611 C127.40167,6.79031 127.75307,7.70961 127.75307,8.94431 L127.75307,13.00261 C127.75307,13.40971 127.85147,13.71181 128.04857,13.90881 L128.85617,14.71661 L128.85617,14.91361 L124.87667,14.91361 L124.87667,13.63301 C124.64037,14.09281 124.25917,14.46701 123.73397,14.75591 C123.20857,15.04491 122.59797,15.18931 121.90187,15.18931 C121.02197,15.18931 120.29287,14.93631 119.71517,14.43071" id="Fill-22"></path><path d="M129.66338,14.71641 L130.47098,13.90861 C130.66808,13.71161 130.76648,13.40961 130.76648,13.00241 L130.76648,1.91101 C130.76648,1.50381 130.66808,1.20181 130.47098,1.00471 L129.66338,0.19701 L129.66338,1e-05 L133.72158,1e-05 L133.72158,13.00241 C133.72158,13.40951 133.82018,13.71161 134.01708,13.90861 L134.82488,14.71641 L134.82488,14.91341 L129.66338,14.91341 L129.66338,14.71641 Z" id="Fill-24"></path></g></g></g></g></svg> 