<?xml version="1.0" encoding="UTF-8"?> <svg xmlns="http://www.w3.org/2000/svg" width="44" height="44" viewBox="0 0 44 44"><g fill="none" fill-rule="evenodd"><g transform="translate(4.19 2.095) translate(6.81 11.118)"><circle cx="10.476" cy="11.406" r="10.476" fill="#2492C3"></circle><path fill="#FFF" fill-rule="nonzero" d="M19.05 5.292l-8.356 5.68c-.192.146-.48 0-.48-.243V.534c0-.146.144-.291.288-.291 2.881.097 5.522 1.31 7.443 3.252.432.437.816.923 1.152 1.408.144.097.096.292-.048.389z"></path></g><path fill="#2492C3" fill-rule="nonzero" d="M29.338 10.244c-.048-.049-.096-.097-.144-.097l1.296-1.603c.096-.145.096-.388-.048-.485l-1.68-1.408c-.145-.097-.385-.097-.48.049l-1.297 1.553c-2.305-1.602-4.946-2.67-7.875-2.961V3.107h2.065V.243h-7.779v2.864h2.065v2.185c-3.985.437-7.538 2.233-10.227 4.952C2.16 13.35.24 17.672.24 22.429c0 9.516 7.635 17.235 17.046 17.235 4.705 0 8.979-1.942 12.052-5.05 3.073-3.106 4.993-7.427 4.993-12.185 0-4.757-1.92-9.078-4.993-12.185zm-2.69 21.652c-2.4 2.428-5.713 3.933-9.362 3.933-7.299 0-13.253-6.02-13.253-13.4 0-3.69 1.489-7.04 3.89-9.467 2.4-2.427 5.714-3.932 9.363-3.932 3.649 0 6.962 1.505 9.363 3.932 2.4 2.428 3.89 5.778 3.89 9.467 0 3.69-1.49 7.04-3.89 9.467z" transform="translate(4.19 2.095)"></path></g></svg> 