<?xml version="1.0" encoding="UTF-8"?> <svg xmlns="http://www.w3.org/2000/svg" width="44" height="44" viewBox="0 0 44 44"><g fill="none" fill-rule="evenodd"><circle cx="21.476" cy="24.619" r="10.476" fill="#93D500"></circle><path fill="#FFF" fill-rule="nonzero" d="M30.05 18.505l-8.356 5.68c-.192.145-.48 0-.48-.243V13.747c0-.146.144-.291.288-.291 2.881.097 5.522 1.31 7.443 3.252.432.437.816.923 1.152 1.408.144.097.096.291-.048.389z"></path><path fill="#93D500" fill-rule="nonzero" d="M33.528 12.339c-.048-.049-.096-.097-.144-.097l1.297-1.602c.096-.146.096-.389-.048-.486l-1.681-1.408c-.144-.097-.384-.097-.48.049l-1.297 1.553c-2.304-1.602-4.945-2.67-7.874-2.961V5.202h2.064V2.338h-7.778v2.864h2.065v2.185c-3.986.437-7.539 2.233-10.228 4.952-3.073 3.107-4.993 7.428-4.993 12.186 0 9.515 7.634 17.234 17.045 17.234 4.706 0 8.98-1.942 12.052-5.049 3.073-3.107 4.994-7.428 4.994-12.185 0-4.758-1.92-9.079-4.994-12.186zM30.84 33.99c-2.4 2.428-5.714 3.933-9.363 3.933-7.298 0-13.252-6.02-13.252-13.4 0-3.69 1.488-7.039 3.89-9.466 2.4-2.428 5.713-3.933 9.362-3.933 3.65 0 6.962 1.505 9.363 3.933 2.401 2.427 3.89 5.777 3.89 9.467 0 3.69-1.489 7.039-3.89 9.466z"></path></g></svg> 