<?xml version="1.0" encoding="UTF-8"?> <svg xmlns="http://www.w3.org/2000/svg" xmlns:xlink="http://www.w3.org/1999/xlink" width="321" height="474" viewBox="0 0 321 474"><defs><linearGradient id="prefix__c" x1="50%" x2="50%" y1="-2.997%" y2="95.087%"><stop offset="57%" stop-color="#FFF"></stop><stop offset="100%" stop-color="#8FDF00"></stop></linearGradient><linearGradient id="prefix__d" x1="50%" x2="50%" y1="20.868%" y2="69.076%"><stop offset="0%" stop-color="#005A7F"></stop><stop offset="100%" stop-color="#009ECE"></stop></linearGradient><linearGradient id="prefix__g" x1="49.851%" x2="50.294%" y1="21.576%" y2="106.307%"><stop offset="45%" stop-color="#FFF"></stop><stop offset="100%" stop-color="#8FDF00"></stop></linearGradient><linearGradient id="prefix__h" x1="50.481%" x2="49.824%" y1="34.5%" y2="55.512%"><stop offset="0%" stop-color="#00814B"></stop><stop offset="100%" stop-color="#8FDF00"></stop></linearGradient><filter id="prefix__a" width="252.1%" height="142.4%" x="-76%" y="-15.1%"><feOffset dy="2" in="SourceAlpha" result="shadowOffsetOuter1"></feOffset><feGaussianBlur in="shadowOffsetOuter1" result="shadowBlurOuter1" stdDeviation="2"></feGaussianBlur><feColorMatrix in="shadowBlurOuter1" values="0 0 0 0 0.42745098 0 0 0 0 0.831372549 0 0 0 0 0 0 0 0 1 0"></feColorMatrix></filter><filter id="prefix__e" width="252.1%" height="126.9%" x="-76%" y="-9.6%"><feOffset dy="2" in="SourceAlpha" result="shadowOffsetOuter1"></feOffset><feGaussianBlur in="shadowOffsetOuter1" result="shadowBlurOuter1" stdDeviation="2"></feGaussianBlur><feColorMatrix in="shadowBlurOuter1" values="0 0 0 0 0.42745098 0 0 0 0 0.831372549 0 0 0 0 0 0 0 0 1 0"></feColorMatrix></filter><path id="prefix__b" d="M154.487 349.507c-2.542 0-4.603-2.061-4.603-4.604v-23.822c0-2.542 2.06-4.603 4.603-4.603 2.543 0 4.603 2.06 4.603 4.603v23.822c0 2.543-2.06 4.604-4.603 4.604z"></path><path id="prefix__f" d="M87.871 96.01c-2.542 0-4.603-2.062-4.603-4.604v-42.8c0-2.542 2.06-4.603 4.603-4.603 2.542 0 4.603 2.061 4.603 4.604v42.8c0 2.541-2.06 4.602-4.603 4.602z"></path></defs><g fill="none" fill-rule="evenodd"><path fill="#4D4D4E" fill-rule="nonzero" d="M309.205 360.37L154.717 270.629 0.529 359.3 154.867 450.411z" transform="translate(4.686 3)"></path><path fill="#353535" fill-rule="nonzero" d="M154.867 450.342L0.529 359.231 0.529 371.718 154.867 462.84 309.205 372.788 309.205 360.301z" transform="translate(4.686 3)"></path><path fill="#2B2B2B" fill-rule="nonzero" d="M67.185 0.196L207.448 80.5 140.551 118.915 0.311 38.599z" opacity=".46" transform="translate(4.686 3) translate(88.614 279.651)"></path><path fill="#EAEAEA" fill-rule="nonzero" d="M67.577 -0.003L207.84 80.313 140.942 118.728 0.702 38.4z" opacity=".34" transform="translate(4.686 3) translate(14.96 321.924)"></path><path fill="#FFF" fill-rule="nonzero" d="M249.925 346.043c-.207.506-43.731 9.69-44.606 9.69-.874 0-8.85-3.188-8.654-3.568.196-.38 27.39-6.122 28.54-6.122 1.151 0 24.939-.507 24.72 0zM193.27 323.993c.104-.207-1.013-1.462-1.53-1.853-.903-.72-1.888-1.33-2.935-1.818-1.14-.427-2.351-.63-3.568-.599-1.3-.062-2.6.142-3.82.599-1.015.356-1.963.877-2.808 1.542-.76.725-1.082 1.047-1.151 1.553.053.811.392 1.578.955 2.164.633.77 1.841 1.53 1.968 2.232.149.7-.12 1.422-.69 1.853-1.209.417-2.492.57-3.764.45-1.607-.445-3.092-1.252-4.339-2.36-.955-1.024-1.15-1.53-1.53-1.53-.937.242-1.794.726-2.486 1.403-.184.438 1.278 1.588 1.784 2.037 1.043.723 2.153 1.343 3.314 1.853.933.384 1.927.598 2.935.633.932.124 1.876.124 2.808 0 1.125-.113 2.222-.416 3.245-.898.885-.306 1.677-.832 2.302-1.53.702-.76.575-.76.575-1.393s-.195-.828-.76-1.657c-.563-.828-1.277-1.473-1.53-1.853-.253-.38-.702-1.024-.518-1.53.237-.595.733-1.049 1.347-1.232 1.023-.259 2.095-.259 3.119 0 1.153.248 2.226.782 3.118 1.554.783.679 1.278 1.427 1.53 1.588.913-.15 1.76-.57 2.43-1.208zM182.694 317.847c0-.357-1.669-.955-2.302-1.15-.633-.196-16.86 5.673-16.86 5.673l10.588-8.643-2.808-1.53-15.778 5.834s10.07-8.055 10.07-8.562c0-.506-2.21-1.83-2.681-1.83-.472 0-12.751 11.071-12.751 11.509 0 .437 2.301 1.565 3.015 1.61.713.047 15.812-5.81 15.812-5.81l-10.07 8.435s1.773 1.496 2.371 1.496c.599 0 21.394-6.686 21.394-7.032zM158.538 305.51c-.869-.743-1.81-1.399-2.808-1.956-1.31-.678-2.734-1.11-4.2-1.277-.844-.12-1.7-.12-2.544 0-.449.069-1.473.31-1.427.851.046.541 3.2.553 4.477 1.151 1.073.346 2.023.993 2.739 1.864.391.564.069 1.278-.449 1.876-.988.769-2.137 1.304-3.36 1.565-.311-.115-.346-.299-.806-.598-.46-.3-2.21-1.358-3.314-1.864-.99-.44-2.06-.672-3.142-.68-1.262-.079-2.529-.01-3.775.208-1.148.223-2.235.69-3.188 1.37-.774.497-1.44 1.147-1.956 1.91-.26.661-.127 1.413.345 1.944.68.898 2.889 1.658 4.42 2.003 1.53.345 4.142-.15 4.338 0 .196.15-1.427 2.037-1.15 2.186 1.295.162 2.605.162 3.9 0 .3-.172.242-.471.645-1.035.547-.61 1.213-1.104 1.956-1.45.979-.599 5.755-3.096 6.79-3.775 1.109-.666 2.09-1.523 2.9-2.532.245-.611.09-1.31-.39-1.76zm-12.107 6.905c-1.155.29-2.342.433-3.533.426-.987.077-1.97-.178-2.796-.725-.403-.184-.978-.633-1.024-1.036-.133-.564.063-1.156.506-1.53.778-.743 1.813-1.156 2.889-1.151 1.133-.078 2.267.14 3.29.633 1.428.54 3.05 1.312 3.05 1.795 0 .484-1.749 1.358-2.382 1.565v.023zM247.21 349.61c-.38-.552-18.483 3.844-19.116 4.684-.633.84-3.2 11.957-3.786 12.222-.587.264-19.886-8.32-20.52-7.837-.632.483 26.769 14.96 27.874 14.73 1.105-.23 15.927-23.246 15.547-23.799zM168.228 333.74c1.54.383 3.034.935 4.454 1.646 1.335.782 1.772 1.059 1.6 1.577-.173.517-.921.851-1.807 1.311-2.175.977-4.437 1.748-6.756 2.302-1.414.268-2.855.369-4.292.3-.472-.081-.507-.507.345-.76s2.302-.599 3.142-.771c1.255-.304 2.477-.732 3.648-1.278.897-.46 1.473-.84 1.588-1.15.115-.311.069-.472-.391-.806-1.034-.642-2.133-1.171-3.28-1.577-1.059-.333-2.728-.725-2.463-1.035.46-.495 3.015-.023 4.212.241z" transform="translate(4.686 3)"></path><path fill="#FFF" fill-rule="nonzero" d="M126.039 313.543s-.587-1.059-1.151-.886c-.564.173-.932 2.302-.506 4.178.425 1.875 2.612 6.778 5.42 8.941 3.438 2.859 7.205 5.297 11.22 7.262 3.638 1.638 7.483 2.768 11.428 3.36 2.74.504 5.507.846 8.286 1.025 1.744.216 3.504.285 5.26.207.39-.207.644-.978-.633-1.231-1.278-.254-3.234-.702-7.734-1.658-4.799-1.024-11.428-2.589-15.847-5.35-3.232-1.927-6.31-4.101-9.207-6.503-1.475-1.292-2.785-2.76-3.9-4.373-.967-1.61-1.847-3.27-2.636-4.972zM168.297 395.056c-1.15 0-10.357 4.834-10.357 5.754 0 .921 6.974 4.604 8.148 4.604 1.173 0 10.438-4.868 10.438-5.823 0-.956-7.055-4.535-8.229-4.535zm.08 1.048c.473 0 2.82 1.024 2.82 1.404 0 .38-3.452 2.175-3.89 2.175-1.148-.265-2.221-.784-3.141-1.52-.127-.356 3.74-2.06 4.212-2.06zm-8.78 4.741c1.029-.867 2.196-1.556 3.452-2.037 1.057.353 2.037.904 2.889 1.623-1.079.86-2.297 1.53-3.602 1.98-.3 0-2.843-1.22-2.74-1.566zm6.905 3.452c-1.153-.222-2.24-.706-3.176-1.415 1.123-.865 2.373-1.552 3.705-2.037 1.123.33 2.181.847 3.13 1.53-1.131.78-2.343 1.435-3.613 1.957l-.046-.035zm4.741-2.52c-1.027-.334-1.99-.844-2.842-1.507-.173-.334 3.395-2.222 3.866-2.222.472 0 2.866 1.151 2.866 1.554s-3.43 2.095-3.844 2.21l-.046-.035zM180.507 400.88c-1.15 0-10.3 4.821-10.3 5.754 0 .932 6.975 4.603 8.137 4.603 1.162 0 10.438-4.857 10.438-5.812 0-.955-7.112-4.545-8.275-4.545zm.081 1.035c.46 0 2.808 1.024 2.808 1.404 0 .38-3.452 2.187-3.89 2.187-1.144-.264-2.214-.784-3.13-1.52-.127-.368 3.74-2.07 4.212-2.07zm-8.792 4.742c1.027-.87 2.195-1.558 3.452-2.037 1.053.353 2.03.904 2.877 1.622-1.076.86-2.29 1.529-3.59 1.98-.3 0-2.831-1.209-2.74-1.565zm6.905 3.452c-1.15-.226-2.235-.706-3.177-1.404 1.126-.872 2.38-1.563 3.718-2.048 1.119.329 2.173.846 3.118 1.53-1.128.785-2.34 1.441-3.613 1.957l-.046-.035zm4.741-2.509c-1.022-.343-1.98-.857-2.831-1.519-.173-.333 3.383-2.21 3.855-2.21s2.866 1.151 2.866 1.543c0 .391-3.418 2.094-3.844 2.22l-.046-.034zM153.877 402.87c-1.15 0-10.357 4.834-10.357 5.755 0 .92 6.985 4.603 8.148 4.603 1.162 0 10.438-4.868 10.438-5.823 0-.955-7.066-4.535-8.229-4.535zm.07 1.048c.471 0 2.819 1.024 2.819 1.404 0 .38-3.453 2.175-3.89 2.175-1.148-.264-2.222-.784-3.142-1.52-.126-.356 3.752-2.036 4.212-2.036v-.023zm-8.782 4.741c1.028-.869 2.196-1.557 3.453-2.037 1.052.356 2.028.907 2.877 1.623-1.079.86-2.297 1.53-3.602 1.98-.288 0-2.831-1.22-2.728-1.566zm6.905 3.453c-1.152-.225-2.238-.71-3.176-1.416 1.126-.868 2.38-1.555 3.717-2.037 1.119.331 2.173.849 3.12 1.53-1.131.782-2.343 1.438-3.615 1.957l-.046-.034zm4.742-2.52c-1.024-.335-1.982-.845-2.831-1.508-.184-.334 3.383-2.221 3.855-2.221s2.866 1.15 2.866 1.553-3.418 2.095-3.844 2.21l-.046-.035zM166.076 408.694c-1.15 0-10.3 4.822-10.3 5.754 0 .932 6.974 4.603 8.136 4.603 1.163 0 10.438-4.856 10.438-5.812 0-.955-7.112-4.545-8.274-4.545zm.08 1.035c.46 0 2.809 1.025 2.809 1.404 0 .38-3.453 2.187-3.879 2.187-1.148-.264-2.221-.783-3.141-1.52-.127-.367 3.774-2.105 4.212-2.105v.034zm-8.792 4.742c1.028-.869 2.195-1.558 3.453-2.037 1.057.353 2.037.904 2.888 1.622-1.08.86-2.298 1.529-3.602 1.98-.299 0-2.83-1.208-2.739-1.565zm6.905 3.452c-1.135-.204-2.212-.656-3.153-1.323 1.127-.87 2.38-1.56 3.717-2.049 1.12.33 2.174.847 3.119 1.531-1.136.757-2.352 1.386-3.625 1.876l-.058-.035zm4.742-2.509c-1.028-.34-1.989-.854-2.843-1.519-.173-.333 3.395-2.21 3.855-2.21.46 0 2.877 1.152 2.877 1.543s-3.418 2.094-3.832 2.221l-.057-.035zM134.037 384.55l-8.413 4.718c-.183.103-.297.296-.299.506.011.21.128.401.31.506l6.906 3.625c.08.046.172.07.265.07.105.002.209-.026.299-.081l8.056-4.845c.181-.102.289-.298.276-.506.001-.209-.114-.4-.3-.495l-6.49-3.51c-.19-.11-.425-.106-.61.011zm-1.208 8.193l-5.755-2.992 7.216-4.05 5.455 2.888-6.916 4.154z" transform="translate(4.686 3)"></path><path fill="#FFF" fill-rule="nonzero" d="M153.118 384.377c-.16-.271-.506-.368-.783-.219l-3.671 2.037-2.509-1.174 3.015-1.634c.181-.099.296-.286.3-.492.006-.206-.1-.4-.275-.507-.176-.107-.396-.112-.577-.014l-3.614 2.003-2.301-1.151 2.716-1.45c.282-.15.39-.5.241-.783-.149-.283-.5-.39-.782-.241l-3.453 1.83-2.727-1.382 3.061-1.657c.275-.156.377-.502.23-.782-.07-.134-.192-.234-.337-.277-.145-.044-.301-.027-.434.046l-3.775 2.026-1.875-.955c-.17-.086-.371-.086-.541 0l-2.417 1.323-3.222-1.646c-.137-.071-.298-.085-.445-.037-.147.047-.269.152-.338.29-.135.284-.024.624.253.772l2.532 1.289-3.314 1.806-3.246-1.657c-.286-.143-.633-.027-.776.26-.143.285-.028.633.258.776l2.544 1.289-3.142 1.715-3.2-1.635c-.282-.146-.63-.035-.776.248-.146.283-.035.63.247.777l2.51 1.277-3.27 1.795-3.152-1.565c-.279-.116-.6.003-.735.272-.136.269-.042.597.217.753l2.485 1.277-1.392.76c-.193.099-.31.301-.3.517.002.214.122.409.311.507l1.036.53-3.602 1.933c-.275.156-.377.502-.23.782.1.187.295.302.506.3.097-.002.191-.025.277-.07l4.292-2.301 2.59 1.335-3.798 2.025c-.233.125-.35.393-.285.649.066.256.297.434.56.433.094 0 .185-.023.266-.07l4.51-2.405 2.418 1.243-3.453 1.865c-.275.156-.377.502-.23.782.1.187.295.303.506.3.097-.001.191-.025.277-.07l4.131-2.244 2.647 1.358-3.763 2.095c-.242.117-.367.388-.3.648s.308.436.576.422c.096 0 .19-.024.276-.069l4.442-2.463 1.704.875c.082.04.173.06.264.057.1 0 .199-.023.288-.069l2.071-1.15 3.234 1.645c.081.045.172.068.265.07.217 0 .416-.12.518-.311.136-.287.025-.63-.253-.783l-2.601-1.358 3.222-1.807 3.28 1.68c.08.036.166.055.253.058.271.007.51-.176.574-.44.063-.263-.065-.535-.31-.653l-2.6-1.324 3.096-1.738 3.303 1.692c.082.041.173.06.264.058.214 0 .41-.12.507-.311.072-.134.087-.291.041-.436-.045-.146-.147-.266-.283-.335l-2.624-1.346 3.268-1.83 3.372 1.726c.082.044.172.068.265.069.27.007.51-.176.573-.44.064-.263-.064-.535-.308-.653l-2.705-1.381 1.761-.978c.186-.1.302-.295.302-.507 0-.211-.116-.406-.302-.506l-.91-.472 3.028-1.68c.148-.069.26-.197.308-.352.048-.156.028-.325-.055-.465zm-20.853 13.027l-5.375-2.762c-.089-.099-.212-.16-.345-.173l-8.401-4.304 17.262-9.402 13.88 7.066-17.021 9.575zM119.502 365.848l-6.905-3.66c-.166-.085-.363-.085-.53 0l-8.055 4.167c-.184.098-.303.286-.31.495-.004.208.106.402.287.506l1.887 1.15-3.544 1.934-6.272-3.326c-.162-.086-.356-.086-.518 0l-4.109 2.037-3.452-1.818c-.166-.086-.364-.086-.53 0l-8.055 4.166c-.187.097-.305.29-.305.5 0 .211.118.404.305.501l6.536 3.913c.093.05.195.077.3.08.092.001.184-.023.264-.069l8.413-4.419c.187-.1.306-.294.31-.506.004-.215-.117-.413-.31-.506l-2.21-1.151 3.107-1.542 12.372 6.56-2.877 1.818-3.188-1.692c-.169-.092-.372-.092-.54 0l-8.057 4.154c-.186.097-.305.286-.31.495-.01.21.096.409.276.518l6.548 3.913c.088.05.187.078.288.08.092.001.184-.023.264-.069l8.413-4.419c.19-.098.309-.293.31-.506.003-.214-.112-.413-.299-.518l-2.52-1.335 3.153-2.002c.176-.107.278-.302.265-.507-.007-.206-.127-.39-.31-.483l-6.02-3.245 3.453-1.888 3.453 2.095c.09.055.193.083.299.08.092 0 .184-.023.264-.069l8.413-4.419c.191-.096.312-.292.31-.506.013-.205-.089-.4-.264-.507zm-33.27 9.391l-5.386-3.222 6.905-3.545 5.65 3.004-7.17 3.763zm14.074 7.619l-5.386-3.211 6.905-3.545 3.223 1.703 2.428 1.29-7.17 3.763zm10.53-12.74l-5.374-3.222 6.905-3.545 5.662 3.004-7.193 3.763zM84.183 346.963c-3.452-1.715-8.263-3.625-9.61-3.625-.218 0-.885 0-12.59 6.065-11.703 6.065-11.807 6.283-11.807 6.71 0 .989 4.235 4.062 7.4 5.65 3.568 1.784 8.136 3.625 9.61 3.625.667 0 4.97-2.049 12.785-6.11 11.796-6.112 11.9-6.457 11.98-6.699.449-1.427-7.687-5.57-7.768-5.616zm-17.02 17.263c-1.025 0-4.972-1.45-9.07-3.51-2.369-1.183-4.564-2.685-6.524-4.466 1.012-.587 3.59-1.979 6.674-3.602 2.362 1.685 4.826 3.223 7.377 4.604 2.59 1.38 6.49 3.015 8.424 3.809-2.227 1.197-4.525 2.258-6.882 3.176v-.011zm8.25-3.902c-1.15-.46-6.168-2.485-9.206-4.143-2.334-1.25-4.597-2.629-6.778-4.131 2.44-1.29 5.098-2.67 7.503-3.89.196.127 4.603 2.946 6.594 3.993 1.6.829 6.986 3.28 9.31 4.34-2.428 1.265-5.04 2.623-7.422 3.843v-.012zm8.667-4.51c-1.439-.645-8.275-3.753-10.07-4.685-1.577-.805-4.604-2.762-5.927-3.579 2.109-1.136 4.275-2.162 6.49-3.073.933 0 5.317 1.612 9.092 3.51 2.439 1.189 4.752 2.62 6.905 4.27-.967.598-3.464 1.968-6.49 3.568v-.012z" transform="translate(4.686 3)"></path><path fill="#4D4D4E" fill-rule="nonzero" opacity=".45" style="mix-blend-mode:multiply" d="M154.89 270.629L67.51 320.76 155.04 372.201 242.177 321.415z" transform="translate(4.686 3)"></path><g fill-rule="nonzero" transform="translate(4.686 3)"><use fill="#000" filter="url(#prefix__a)" xlink:href="#prefix__b"></use><use fill="url(#prefix__c)" xlink:href="#prefix__b"></use></g><path fill="#185580" fill-rule="nonzero" d="M154.487 310.574L0.15 219.451 0.15 231.949 154.487 323.072 308.825 233.02 308.825 220.522z" transform="translate(4.686 3)"></path><path fill="url(#prefix__d)" fill-rule="nonzero" d="M308.825 220.522L154.338 130.792 0.15 219.451 154.487 310.574z" transform="translate(4.686 3)"></path><path fill="#FFF" fill-rule="nonzero" d="M203.697 179.334l10.357-6.399-8.7-5.328c-.131-.08-.289-.105-.438-.068-.15.037-.277.131-.356.263-.08.13-.104.285-.067.433.037.147.131.273.262.35l7.101 4.361-60.13 37.241c-.132.077-.227.204-.262.352s-.007.304.077.43c.098.175.284.281.483.277.106.002.21-.026.3-.08l8.573-5.306 20.209 12.118 3.832-2.554 5.294 2.969-3.268 2.45 19.564 12.66 4.603-2.302 9.333 5.467-3.798 2.301 10.277 6.284 43.19-25.318-66.436-40.601zm15.179 59.635l3.844-2.301-11.566-6.767-4.603 2.302-17.643-11.417 3.36-2.52-7.422-4.212-3.81 2.543-19.08-11.45 40.82-25.319-.104.162 65.218 39.876-40.947 24.04-8.067-4.937z" transform="translate(4.686 3)"></path><path fill="#FFF" fill-rule="nonzero" d="M243.849 216.137L247.025 218.105 245.932 223.307 221.454 224.906 224.515 209.692 233.008 209.692 242.353 215.47 240.995 220.188 227.841 220.683 228.255 218.278 237.761 218.024 238.521 216.379 231.903 211.902 227.691 211.902 225.62 222.271 242.951 221.339zM95.519 200.82l10.357-6.4-8.7-5.327c-.131-.08-.289-.105-.438-.068-.15.037-.277.131-.356.263-.08.13-.104.285-.067.433.037.147.131.273.263.35l7.1 4.361-60.154 37.241c-.212.137-.31.397-.241.64.068.243.288.413.54.419.11 0 .217-.027.311-.08l8.562-5.306 20.209 12.118 3.832-2.554 5.294 2.969-3.268 2.45 19.564 12.66 4.603-2.302 9.345 5.467-3.81 2.301 10.277 6.284 43.191-25.318-66.414-40.601zm15.18 59.635l3.843-2.301-11.508-6.767-4.604 2.302-17.642-11.417 3.36-2.52-7.445-4.177-3.821 2.543-19.08-11.405 40.808-25.318-.092.161 65.205 39.876-40.946 23.972-8.079-4.949z" transform="translate(4.686 3)"></path><path fill="#FFF" fill-rule="nonzero" d="M106.774 220.107c-1.579-1.669-3.442-3.044-5.501-4.062-4.316-2.221-9.483-3.452-10.772-1.346l-12.947 8.723c-.047.036-.09.079-.126.126-.622.979-.323 2.429.851 4.086 1.359 1.77 3.028 3.28 4.926 4.454 2.237 1.506 4.844 2.37 7.538 2.497.895.074 1.788-.17 2.52-.69l13.062-8.586c.73-.107 1.378-.527 1.772-1.15.518-1.06.08-2.486-1.323-4.052zm-9.69 10.243c-1.934.31-6.019-.806-8.286-1.991-4.235-2.233-6.836-5.754-6.284-7.239l3.211-2.163c.07 2.21 2.958 5.397 6.905 7.4 2.349 1.108 4.88 1.78 7.469 1.979l-3.015 2.014zm4.362-2.946c-1.91.38-6.077-.668-8.39-1.819-4.385-2.21-7.066-5.754-6.376-7.227l3.58-2.417c.195 2.302 3.579 5.444 7.307 7.366 2.026 1.095 4.232 1.816 6.514 2.129h.518l-3.107 2.037-.046-.07zm-8.712 5.811c-.886.806-4.776.886-9.057-1.852-1.813-1.111-3.405-2.547-4.696-4.236-.909-1.277-1.22-2.382-.863-3.05l3.453-2.3c.15 2.209 2.946 5.35 6.801 7.376 2.297 1.142 4.78 1.863 7.33 2.129l-2.968 1.933zm14.58-9.471c-.356.69-1.507.978-3.187.806-2.171-.303-4.271-.99-6.203-2.026-4.603-2.37-7.446-5.938-6.732-7.308.241-.471.955-.725 2.014-.725 4.892.513 9.458 2.7 12.923 6.192 1.105 1.254 1.542 2.37 1.186 3.061zM135.694 237.623L138.87 239.591 137.766 244.793 113.288 246.392 116.349 231.178 124.842 231.178 134.187 236.956 132.829 241.674 119.675 242.169 120.089 239.764 129.606 239.51 130.354 237.865 123.737 233.388 119.537 233.388 117.454 243.757 134.785 242.825zM216.494 198.023l-6.502-4.074c-.144-.092-.328-.092-.472 0l-6.238 4.12c-.12.081-.192.217-.192.363 0 .145.072.28.192.362l2.498 1.646-2.958 1.807-6.249-4.04c-.144-.092-.328-.092-.472 0l-3.13 2.037-3.257-2.037c-.14-.093-.321-.093-.46 0l-6.272 4.132c-.127.073-.203.21-.196.356 0 .145.074.28.196.357l6.237 4.12c.068.045.148.07.23.07.086.001.17-.023.242-.07l6.502-4.154c.12-.084.192-.222.192-.369 0-.146-.071-.284-.192-.368l-2.451-1.53 2.59-1.658 11.968 7.734-2.302 1.634-3.21-2.014c-.142-.098-.33-.098-.472 0l-6.215 4.155c-.12.078-.193.212-.193.356s.073.278.193.357l6.238 4.12c.068.056.154.084.241.08.082 0 .162-.023.23-.068l6.503-4.166c.128-.077.204-.22.195-.369.007-.146-.069-.283-.195-.356l-2.498-1.577 2.52-1.83c.117-.08.182-.216.173-.357 0-.144-.074-.278-.195-.356l-5.685-3.672 2.957-1.806 2.935 1.945c.073.043.156.067.241.069.082 0 .162-.024.23-.07l6.514-4.165c.122-.079.195-.213.196-.357-.005-.146-.083-.28-.207-.357zm-26.999 8.274l-5.466-3.602 5.466-3.613 5.755 3.567-5.755 3.648zm13.05 8.24l-5.466-3.602 5.467-3.602 5.696 3.568-5.696 3.636zm7.182-12.498l-5.455-3.602 5.466-3.613 5.686 3.567-5.697 3.648z" transform="translate(4.686 3)"></path><g fill-rule="nonzero" transform="translate(4.686 3) translate(66.616 130.209)"><path fill="#024F71" opacity=".34" style="mix-blend-mode:multiply" d="M87.721 0.583L0.543 50.814 87.871 102.373 175.308 51.356z"></path><use fill="#000" filter="url(#prefix__e)" xlink:href="#prefix__f"></use><use fill="url(#prefix__g)" xlink:href="#prefix__f"></use></g><path fill="#3BAB24" fill-rule="nonzero" d="M155.627 180.588L0.15 89.477 0.15 101.963 154.476 193.086 309.964 103.034 309.964 90.536z" transform="translate(4.686 3)"></path><path fill="url(#prefix__h)" fill-rule="nonzero" d="M309.964 90.513L155.477 0.783 0.15 89.442 155.627 180.565z" transform="translate(4.686 3)"></path><path stroke="#FFF" stroke-linecap="round" stroke-width="1.365" d="M117.592 38.438L117.592 38.438" transform="translate(4.686 3)"></path><path stroke="#FFF" stroke-dasharray="0" stroke-linecap="round" stroke-width="1.365" d="M121.654 40.728L237.335 105.784" transform="translate(4.686 3)"></path><path stroke="#FFF" stroke-linecap="round" stroke-width="1.365" d="M239.361 106.923L239.361 106.923M77.071 67.611L77.071 67.611" transform="translate(4.686 3)"></path><path stroke="#FFF" stroke-dasharray="0" stroke-linecap="round" stroke-width="1.365" d="M81.133 69.89L196.815 134.958" transform="translate(4.686 3)"></path><path stroke="#FFF" stroke-linecap="round" stroke-width="1.365" d="M198.852 136.097L198.852 136.097" transform="translate(4.686 3)"></path><path fill="#FFF" fill-rule="nonzero" d="M246.38 81.041l2.533-1.6c5.5-3.452 4.718-9.333-1.727-13.015-6.444-3.683-16.18-3.844-21.681-.357l-2.52 1.6c-1.773-.2-3.563.158-5.122 1.024l-3.164 2.002c-6.365 4.04-5.478 10.807 2.002 15.076 7.48 4.27 18.735 4.454 25.111.415l3.153-2.003c1.172-.565 1.768-1.89 1.416-3.142zm-1.714-4.028l-1.611 1.025-14.96-8.516 1.61-1.025c3.51-2.22 9.702-2.117 13.81.23 4.109 2.348 4.65 6.077 1.151 8.286zm-4.016 8.505c-5.823 3.706-16.112 3.533-23.017-.368-6.905-3.902-7.653-10.093-1.83-13.81l3.165-2.003c2.18-1.105 4.764-1.062 6.905.115l17.262 9.886c2.06 1.15 2.302 3.05.553 4.166l-3.038 2.014z" transform="translate(4.686 3)"></path><path fill="#FFF" fill-rule="nonzero" d="M229.855 76.898c-1.176-.465-2.484-.465-3.66 0-.943.415-1.335 1.151-1.035 1.842l-3.292 1.691c-.282.11-.472.377-.483.68.053.315.26.582.552.713l1.151.633c.374.202.794.305 1.22.3.385.005.762-.108 1.082-.323l2.635-2.072c.926.136 1.872-.033 2.693-.483.566-.27.867-.897.725-1.508-.275-.709-.86-1.252-1.588-1.473z" transform="translate(4.686 3)"></path><path stroke="#FFF" stroke-linejoin="round" stroke-width="1.365" d="M205.503 44.514L173.453 25.652 147.548 40.267 180.174 59.475z" transform="translate(4.686 3)"></path><path stroke="#FFF" stroke-linecap="round" stroke-linejoin="round" stroke-width="1.365" d="M182.383 55.562L154.176 39.048M167.756 58.646L149.078 47.621" transform="translate(4.686 3)"></path><path fill="#FFF" fill-rule="nonzero" d="M186.434 47.828c-1.015-.806-2.124-1.486-3.303-2.025-2.159.993-4.24 2.147-6.226 3.452 1.053.822 2.215 1.492 3.453 1.991 2.106-.99 4.137-2.132 6.076-3.418zM173.775 37.356c-1.015-.803-2.124-1.479-3.303-2.014-3.013 1.439-5.948 3.037-8.792 4.787 1.052.822 2.214 1.492 3.452 1.991 2.96-1.44 5.845-3.03 8.643-4.764zM188.978 40.463c-1.015-.806-2.124-1.486-3.303-2.025-.3 0-13.914 7.584-13.914 7.825 1.05.824 2.213 1.494 3.453 1.991.39 0 13.764-7.607 13.764-7.79zM181.647 38.69c-1.003-.802-2.1-1.478-3.269-2.013-.299 0-11.508 6.41-11.508 6.652 1.05.823 2.213 1.494 3.453 1.99.31 0 11.324-6.433 11.324-6.628z" transform="translate(4.686 3)"></path><path stroke="#FFF" stroke-width="1.365" d="M167.008 51.718L161.714 54.952M160.471 47.874L155.178 51.108" transform="translate(4.686 3)"></path><path fill="#FFF" fill-rule="nonzero" d="M128.778 60.096L132.253 61.765 131.356 66.898 104.979 68.543 108.5 53.525 117.764 53.318 126.936 58.922 126.361 63.756 112.885 63.848 112.873 62.237 122.77 62.064 123.116 59.728 116.314 55.562 112.114 55.562 109.685 65.597 128.087 64.953zM138.433 76.3L137.443 77.059 134.164 74.838 130.654 77.059 129.411 76.231 132.921 74.194 129.79 72.353 130.976 71.743 133.922 73.595 137.478 71.489 138.514 72.237 135.257 74.274zM155.81 87.003c.53 0 .956-.254.956-.576 0-.322-.426-.564-.955-.564-.53 0-.956.253-.956.564 0 .31.426.576.956.576zM154.096 82.86c-1.218.14-2.394.532-3.453 1.15l3.522 1.151-.07-2.301zM149.527 84.874c-.377.408-.594.94-.61 1.496.003.29.07.577.196.84l3.648-.84-3.234-1.496zM152.657 89.638l1.036-2.302-3.947.714c.822.765 1.823 1.31 2.911 1.588zM159.493 83.354c-1.177-.426-2.419-.648-3.67-.655l.586 2.21 3.084-1.555zM160.84 84.01l-2.659 1.796s2.221.23 4.281.403c-.172-.944-.771-1.756-1.622-2.199zM155.696 87.843l-1.865 2.048c.617.098 1.24.148 1.865.15.955.003 1.906-.117 2.83-.357l-2.151-1.841h-.68z" transform="translate(4.686 3)"></path><path fill="#FFF" fill-rule="nonzero" d="M166.732 80.167c-.978-.173-12.66-2.808-12.66-2.808l-11.853 4.35-1.45 7.653 9.264 5.524 13.43-.68 7.389-6.8-4.12-7.24zm-.587 7.342c-.253 0-.679-.3-.679-.3h-1.968c-.5 1.363-1.56 2.444-2.911 2.97.269.33.565.639.886.92.27.203.44.514.46.852 0 .38-.633.3-.978.127s-.426-.68-.426-.68l-.955-.816c-1.253.405-2.562.607-3.878.598-.933.004-1.863-.097-2.774-.3l-.472.519c.057.261.13.519.219.77.172.461-.553.427-.806.507-.253.08-.552-.299-.587-.679-.034-.38.46-.38.46-.38l.427-.932c-1.47-.36-2.78-1.193-3.73-2.37-1.415.253-2.623.46-2.9.494-.724.081-.885 0-.977-.38-.093-.38.77-.425.932-.425.16 0 1.15-.242 2.485-.541-.136-.368-.207-.758-.207-1.15.017-.72.259-1.416.69-1.992l-2.623-1.15s-.345-.507.173-.634c.517-.126 1.83.553 1.83.553l1.403.449c1.403-1.08 3.083-1.738 4.845-1.9v-1.023s-.633-.081-.38-.587c.254-.507 1.45-.68 1.658-.3.131.297.131.636 0 .933.039.3.1.595.184.886h.161c1.777-.023 3.535.371 5.133 1.15l1.784-.909c-.014-.258.179-.482.437-.506.46 0 1.266.334 1.22.633-.002.259-.176.485-.426.552-.207 0-.794.092-.794.092l-1.151.783c1.021.667 1.67 1.775 1.75 2.992.737.083 1.48.106 2.22.07.334-.196.979.31 1.151.575.173.264-.633.483-.886.483v.046z" transform="translate(4.686 3)"></path><path fill="#FFF" fill-rule="nonzero" d="M159.781 89.27c1.053-.359 1.94-1.087 2.497-2.049h-4.246s.874 1.059 1.749 2.049zM199.093 99.685c.935.356 1.817.836 2.624 1.427-.778.664-1.636 1.229-2.555 1.68-.9-.412-1.738-.95-2.485-1.6.725-.62 1.54-1.128 2.416-1.507zM195.342 101.848c.928.36 1.807.84 2.612 1.427-.776.662-1.63 1.226-2.543 1.68-.905-.404-1.743-.943-2.486-1.6.726-.62 1.54-1.128 2.417-1.507zM191.636 99.685c.934.356 1.817.836 2.624 1.427-.776.662-1.63 1.226-2.544 1.68-.902-.409-1.74-.948-2.485-1.6.721-.62 1.532-1.128 2.405-1.507zM188.068 97.717c.935.356 1.817.836 2.624 1.427-.776.662-1.63 1.226-2.543 1.68-.905-.409-1.743-.952-2.486-1.611.725-.613 1.535-1.117 2.405-1.496zM184.42 99.846c.933.36 1.815.84 2.624 1.427-.778.664-1.636 1.229-2.555 1.68-.903-.407-1.74-.946-2.486-1.6.726-.62 1.54-1.128 2.417-1.507zM180.887 97.717c.935.356 1.817.836 2.624 1.427-.776.662-1.63 1.226-2.543 1.68-.905-.409-1.743-.952-2.486-1.611.725-.613 1.535-1.117 2.405-1.496zM188.068 102.067c.935.356 1.817.836 2.624 1.427-.776.662-1.63 1.226-2.543 1.68-.905-.408-1.743-.952-2.486-1.611.725-.613 1.535-1.117 2.405-1.496zM191.636 104.104c.934.356 1.817.836 2.624 1.427-.776.662-1.63 1.226-2.544 1.68-.902-.409-1.74-.948-2.485-1.6.721-.62 1.532-1.128 2.405-1.507zM195.123 106.187c.934.356 1.817.836 2.624 1.427-.778.664-1.637 1.229-2.555 1.68-.904-.411-1.741-.954-2.486-1.611.73-.613 1.543-1.117 2.417-1.496z" transform="translate(4.686 3)"></path><path fill="#FFF" fill-rule="nonzero" d="M198.403 111.688c-1.664-.575-3.283-1.271-4.845-2.083-1.784-1.013-18.356-10.657-18.356-10.657-.81.456-1.58.98-2.302 1.565-.815.554-1.515 1.262-2.06 2.083-.375.705-.517 1.511-.402 2.302.148 1.33.819 2.547 1.864 3.383 1.797 1.388 3.724 2.599 5.754 3.614 2.152.887 4.383 1.569 6.663 2.037 1.435.233 2.886.36 4.34.38h3.866c1.24-.07 2.475-.227 3.694-.472l2.52-.714c.811.623 1.727 1.094 2.705 1.393 1.261.247 2.55.32 3.832.219.46-.22.806-.3.587-.599-.585-.725-1.304-1.33-2.118-1.784-.426-.183-.87-.325-1.323-.425.434-.07.803-.356.978-.76.23-.8.288-1.639.173-2.463 0 0 0-.126-.426-.092-.65-.075-1.306.045-1.887.345-.81.345-1.55.832-2.187 1.439-.518.61-1.07 1.289-1.07 1.289zM63.41 102.101c.15.263.476.365.749.235.272-.13.398-.448.287-.73-1.054-1.82-2.952-2.987-5.052-3.107-3.015-.402-6.042.495-7.538 2.221-.593.548-.94 1.311-.967 2.118-.026.807.273 1.59.83 2.175 1.313 1.07 2.916 1.723 4.603 1.876l.333.057h.104c.275-.005.51-.201.564-.471.056-.312-.15-.61-.46-.668l-.346-.069c-1.455-.11-2.847-.641-4.005-1.53-.36-.375-.547-.884-.514-1.402.033-.519.282-1 .687-1.326 1.243-1.439 3.913-2.198 6.514-1.853 1.731.061 3.315.992 4.212 2.474zM77.577 108.558c-.164-.274-.517-.366-.794-.208l-7.354 4.247 1.151-7.492c.03-.22-.068-.44-.253-.564-.186-.12-.424-.12-.61 0l-8.493 4.949c-.179.103-.29.293-.29.5 0 .206.11.396.288.5.179.103.399.104.577.001l7.47-4.362-1.151 7.492c-.033.216.06.43.241.553.095.065.207.101.322.103.102.004.203-.024.288-.08l8.39-4.845c.135-.075.235-.202.276-.351.041-.15.02-.31-.058-.443zM83.941 112.424l-8.838 5.271c-.27.168-.356.52-.196.794.104.175.293.28.495.276.102.002.202-.026.288-.08l8.838-5.27c.133-.076.23-.2.27-.348.039-.148.016-.305-.063-.435-.164-.274-.517-.366-.794-.208zM103.724 98.845l-3.372-10.128c-.058-.162-.207-.275-.38-.287l-17.515-1.658c-.053-.016-.109-.016-.161 0h-.127l-7.503 4.707c-.072.053-.128.125-.161.207-.006.035-.006.07 0 .104-.008.046-.008.092 0 .138l3.452 10.358c.055.16.2.273.368.287l17.47 1.473c.13 0 .253-.059.334-.16.09-.11.12-.256.08-.392L94.92 98.73l8.367.586c.143.021.286-.041.368-.16.062-.091.087-.203.07-.311zm-4.108-9.587l1.714 5.156-2.635-.104-.219-.667c.017-.068.017-.14 0-.207l-1.093-3.28-.368-1.15 2.6.252zm-1.232 6.905l-6.56-.31-.241-.944 6.48.23.321 1.024zm-.61-1.899l-6.743-.241c-.135-.008-.265.053-.346.16-.09.105-.12.249-.08.38l.31 1.243-2.198-.103-1.691-5.628 9.598.564 1.15 3.625zM91.4 97.717l-5.593-.403-.253-.875 5.593.265.253 1.013zm4.603-8.781l.276.852-9.563-.564-.368-1.151 9.655.863zm-8.251 6.744l-2.51-.115-1.645-5.662 2.463.15 1.692 5.627zm-2.302-7.745l.38 1.231-2.451-.138-.392-1.335 2.463.242zm-3.303-.058l1.15 3.936-6.996-.265 5.846-3.67zm13.062 15.352l-16.572-1.38-3.153-9.472 8.056.31 1.507 5.156c.045.176.2.302.38.311l8.574.61 1.208 4.465zm-2.9-5.409l-.265-1.024 6.905.322c.136.001.265-.063.345-.172.081-.113.107-.257.07-.392l-.426-1.311 2.658.103 1.07 3.222-10.357-.748zM123.3 139.768c.105.213.362.3.575.196.213-.105.3-.363.196-.576-1.053-1.685-2.861-2.75-4.845-2.854-2.992-.414-6.008.415-7.492 2.049-.573.478-.917 1.177-.946 1.923-.028.746.261 1.469.796 1.99 1.697 1.245 3.766 1.878 5.87 1.795.21-.035.366-.217.366-.432 0-.214-.155-.397-.366-.431-1.876.083-3.726-.46-5.26-1.542-.37-.368-.563-.877-.53-1.398.033-.52.29-1 .703-1.318 1.289-1.416 4.062-2.152 6.744-1.784 1.697.076 3.256.962 4.189 2.382zM141.966 149.044l-8.838 5.27c-.2.124-.265.383-.15.587.081.132.226.21.38.208.077.002.153-.018.219-.058l8.838-5.27c.098-.058.17-.153.197-.263.028-.11.011-.227-.047-.325-.125-.206-.392-.273-.599-.15zM131.505 148.549c-.27-.534-.615-1.026-1.024-1.462-1.876-1.496-2.394-2.52-2.244-2.969.15-.449.552-.495 1.15-.518 2.362-.014 4.537 1.28 5.651 3.36.046.166.183.289.352.316.169.028.338-.046.433-.188.095-.142.099-.327.01-.472-1.152-2.774-4.535-3.936-6.48-3.879-1.059 0-1.76.438-1.98 1.151-.333 1.001.519 2.302 2.521 3.924.302.352.561.738.771 1.151.135.538-.048 1.105-.472 1.462-.782.552-2.543.31-4.27-.587-1.726-.898-2.888-2.14-2.888-3.107 0-.242-.196-.438-.437-.438-.115 0-.225.047-.305.129-.08.082-.124.194-.121.309 0 1.588 1.738 3.038 3.349 3.866 1.065.576 2.244.91 3.452.979.586.027 1.166-.13 1.658-.45.69-.547 1.007-1.44.817-2.3.06-.08.081-.181.057-.277zM159.574 130.044c2.854 2.152 7.054-.829 4.454-4.546-1.47-1.583-3.285-2.805-5.306-3.568-5.155-2.094-15.593-.76-15.42 6.03 0 0-.519.472-.68.127-4.603-4.603-16.491-4.005-19.46 2.302-1.151 5.11 6.237 8.481 10.277 6.675 2.037-2.555-3.453-2.175-4.374-3.74-2.98-4.903 4.765-6.4 7.987-4.604 3.763 2.843-.3 6.169-.679 7.1-4.143 10.105 13.81 12.66 19.921 9.978-.46.346-3.59-1.921-3.602-2.45-4.12 1.15-14.96-1.75-10.415-7.493 1.346-1.703 2.854-3.05 2.681-4.925 2.992 3.74 11.957 1.358 12.786 7.261.31-.368 5.179.323 5.351.898 1.704-8.827-11.508-6.375-14.57-11.128.174-4.707 8.379-4.316 10.496-1.358.714 1.035-.955 2.934.553 3.44z" transform="translate(4.686 3)"></path><path fill="#FFF" fill-rule="nonzero" d="M158.561 140.136c-1.899 0-3.452.875-3.452 1.945s1.53 1.945 3.452 1.945 3.453-.874 3.453-1.945c0-1.07-1.554-1.945-3.453-1.945z" transform="translate(4.686 3)"></path></g></svg> 