<?xml version="1.0" encoding="UTF-8"?> <svg xmlns="http://www.w3.org/2000/svg" xmlns:xlink="http://www.w3.org/1999/xlink" width="31px" height="41px" viewBox="0 0 31 41" version="1.1"><!-- Generator: Sketch 64 (93537) - https://sketch.com --><title>RBC logo mobile</title><desc>Created with Sketch.</desc><g id="Mobile" stroke="none" stroke-width="1" fill="none" fill-rule="evenodd"><g id="Home-footer-collapsed" transform="translate(-93.000000, -2384.000000)" fill="#FFFFFF"><g id="Group-3" transform="translate(93.000000, 2384.000000)"><path d="M31,0 L31,35.9798576 C31,37.3341891 30.448738,38.1198751 29.3704631,38.5382203 C25.1807641,40.1633096 20.2188673,41 15.4994611,41 C10.7811327,41 5.81923585,40.1633096 1.62953692,38.5382203 C0.551261994,38.1198751 0,37.3341891 0,35.9798576 L0,0 L31,0 Z M16.4023328,29 L12,29 L12,29.0681755 C12.1347829,29.1072925 12.3438692,29.2123498 12.4826841,29.344789 C12.7810498,29.6281084 12.880121,30.0505728 12.8939448,30.6121822 L12.8939448,37 L16.5411477,37 C18.5484916,37 20,36.2584521 20,34.5590947 C20,33.1771445 18.8906329,32.5887119 17.753042,32.5160659 C18.5882353,32.3847443 19.3882929,31.7549595 19.3882929,30.8021794 C19.3882929,29.9438391 19.0110159,29 16.4023328,29 Z M7.28594464,29 L3,29 L3,29.0681755 C3.15802204,29.1251746 3.33431873,29.2313495 3.44987906,29.350936 C3.75033593,29.6577256 3.83955926,30.1265717 3.83955926,30.7602682 L3.83955926,37 L5.6186509,37 L5.6186509,33.4531992 L6.26847622,33.4531992 L8.78231658,37 L11,37 L8.16581564,33.2369377 C9.30153185,32.9217659 10.1523784,32.2763342 10.1523784,31.1033808 C10.1523784,29.7264599 9.35958076,29 7.28594464,29 Z M25.5375736,29 C22.9419678,29 21,30.2710888 21,33.0528491 C21,36.1858527 23.3136443,37 25.3548002,37 C27.2538609,37 28,36.4124263 28,36.4124263 L28,35.5028796 C28,35.5028796 27.3285305,36.1110509 25.8903041,36.1110509 C24.7022767,36.1110509 22.9592422,35.5836439 22.9213501,33.0073176 C22.8862442,30.6288366 23.9544658,29.8537164 25.3832192,29.8537164 C26.1806241,29.8537164 26.5796052,30.0353005 26.8493074,30.182736 C27.3441331,30.4542991 27.4934724,30.8087946 27.4962586,30.8125889 C27.5191052,30.839691 27.5731571,30.8310184 27.5731571,30.8310184 L27.9743671,29.5035572 C27.9743671,29.5035572 27.2538609,29 25.5375736,29 Z M15.9150407,32.9770886 C17.4587083,32.9770886 18.0519836,33.4224644 18.0519836,34.5440067 C18.0519836,35.7566359 17.2784218,36.2433641 15.9691842,36.2433641 L14.7930017,36.2433641 L14.7930017,32.9770886 L15.9150407,32.9770886 Z M6.81671594,29.7611065 C7.81483472,29.7611065 8.33619995,30.0645432 8.33619995,31.1654093 C8.33619995,32.1483655 7.65466273,32.730651 6.5624832,32.730651 L5.6186509,32.730651 L5.6186509,29.7611065 L6.81671594,29.7611065 L6.81671594,29.7611065 Z M15.875873,29.7611065 C16.8089855,29.7611065 17.4425805,29.9578094 17.4425805,30.9234423 C17.4425805,31.9538977 16.5941392,32.2372171 15.625891,32.2372171 L14.7930017,32.2372171 L14.7930017,29.7611065 L15.875873,29.7611065 L15.875873,29.7611065 Z M9.08807191,1 L6.69865387,1 C5.18643332,1 3.93501603,2.11208072 3.93501603,3.57376602 C3.93501603,4.91938915 4.9171441,5.94683785 6.24685967,6.02688075 L6.41483856,6.03190619 L6.56003365,6.03190619 L6.56003365,5.0987183 L6.41483856,5.0987183 C5.60777303,5.0987183 5.25492157,4.44205072 5.30149358,3.66157622 C5.34720949,2.90022498 5.95971916,2.4830541 6.53271099,2.43388177 L6.6466028,2.428961 L7.77309752,2.428961 L7.77309752,4.03136079 L11.0786144,4.03136079 L11.0786144,4.79820016 L10.1904588,4.79820016 L10.1904588,5.26015817 L12.0434768,5.96100355 L12.0434768,4.03136079 L16.9412085,4.03136079 L16.9410563,5.29857892 C16.9402954,5.53764809 16.9357295,5.69793655 16.9083342,5.85519498 C16.880391,6.0111808 16.8436813,6.1317153 16.7242378,6.24897737 C16.6086296,6.36187619 16.4322039,6.39841833 16.1949606,6.41205345 C15.877723,6.43005181 14.9375163,6.4507772 14.3709815,6.4507772 C13.3146188,6.4507772 12.0166294,6.69402782 12.0166294,8.2195255 C12.0166294,9.97572948 13.5962424,10.4540496 14.4328949,10.4393237 C15.1222602,10.4279198 15.6128399,10.2172853 15.8873445,10.015174 L15.9631963,9.95500409 L16.6738304,9.95500409 L16.6738304,11.0681756 C15.7692376,10.7480229 14.6832879,10.9503681 13.5102212,11.1854377 C12.6971287,11.347423 11.8566409,11.4657758 10.9591709,11.4728661 C9.49135101,11.482845 8.08653207,10.4752494 7.82107388,8.71696677 L7.79556167,8.51077175 L7.08054435,8.08971912 C6.96000503,10.1049905 7.61749222,11.4068721 9.73569679,12.4884101 C12.1994328,13.7471175 13.8880703,14.9148461 14.6329156,16.9364081 L14.7210934,17.1936188 L14.9632679,17.1936188 L14.9632679,15.5334061 C17.049146,16.865285 18.2923447,18.0133624 18.8468256,19.3130624 C19.0606307,19.812411 19.2848257,20.5940234 19.3566352,21.2890175 L19.3761028,21.5448596 L19.619373,21.5448596 C19.7618286,20.8958277 19.8648349,19.4854104 19.4325371,18.2838833 C19.386513,18.1548041 19.3275826,18.0327546 19.2651619,17.9140179 L19.1700901,17.7379329 L21.1748781,17.8290155 C21.1429431,18.4489072 21.1432114,19.1553514 21.2067366,19.9126279 L21.2439143,20.2953368 L20.5305407,20.3340605 L20.5305407,20.5620398 L21.2828156,20.6056722 C21.311672,20.8245614 21.3466162,21.0478138 21.3881353,21.2733287 L21.455406,21.6130352 L21.6756642,21.6130352 C21.6679935,21.4086901 21.6668977,21.1939218 21.6725391,20.9701845 L21.6860744,20.6280338 L25.1132264,20.8211072 C25.1013917,21.3625852 25.0548416,21.9340824 24.9634772,22.5333646 L24.8863934,22.9880011 L24.1324747,23.0807199 L24.1324747,23.2268885 L24.8277674,23.2797927 L24.7379793,23.6823016 L24.7379793,23.6823016 L24.6338087,24.0913553 L24.8551627,24.0913553 C24.9468,23.9350968 25.0486078,23.7490796 25.1529582,23.5353746 L25.2578736,23.312517 L27.9771311,23.5214071 C27.5388063,24.1617126 27.0380202,24.6765749 26.3975181,25.0785383 C26.2556104,25.0872648 25.9811095,25.1210799 25.85016,25.1418053 C25.1641817,25.2503409 21.4433521,25.8131988 20.4176721,25.9702754 C20.3086388,25.5344969 20.1782371,25.157622 20.0467397,24.8772839 C18.867646,22.3646032 17.4518569,21.5383147 10.352091,16.8025634 C8.06951467,15.2803382 4.47579925,12.8009272 3.40847837,10.779111 C3.06713294,10.1328061 2.90330904,9.3741478 2.90495276,8.6923916 C2.90592682,8.03548162 3.08396244,7.38805226 3.43059378,6.84816569 L3.56846692,6.65094082 L3.56846692,5.97900191 C2.68852989,6.44750477 1.98173116,7.7035724 2.00035997,9.09162803 C2.01022227,9.8682847 2.0858333,10.4404145 2.35485514,11.1478047 C2.79701528,12.3149714 3.56298786,13.32997 5.45764679,15.0278157 C7.1023921,16.503477 8.28676795,17.7581534 8.98774987,19.3684249 L9.12149418,19.6953913 L9.36421653,19.6953913 L9.36421653,17.9091901 L10.0188272,18.3737388 L10.0188272,18.3737388 L10.6660412,18.8325607 C12.1707844,19.9038644 13.7546385,21.3882415 14.576191,22.984221 L14.7210934,23.2847014 L14.9632679,23.2847014 L14.9632679,21.6277611 C17.7652763,23.4981593 19.7929041,25.2492964 20.3288465,28.6642652 L20.3760312,29 L20.6193015,29 C20.7257322,28.2283202 20.6832438,27.416553 20.5648801,26.6907543 L20.5097203,26.3853286 L25.3975896,26.3853286 C26.9059944,26.3853286 28.3491872,26.7945931 28.4503484,28.2772261 L28.4560009,28.446414 L28.7513222,28.446414 L29.3244319,26.5036815 C28.915694,25.9250068 28.3962792,25.4832288 27.5848304,25.220889 C29.4307257,23.7548405 30,21.7832015 30,20.2544314 C30,18.5680393 29.3200487,17.0545405 28.3146412,15.9713662 C28.6746154,15.3801473 29.3534709,14.2718844 29.440588,14.1300791 C29.5797561,13.9004636 29.6526276,13.5437687 29.6055077,13.2623398 C29.5490734,12.9252795 29.4066178,12.6962094 29.0433561,12.5069539 C28.6484985,12.2999727 26.3349455,11.0982013 26.1428349,10.998413 L26.13014,10.9918189 L20.213851,10.9918189 L18.1066046,12.2489774 L18.1066046,8.60130897 L17.4293928,8.60130897 C17.5928879,8.47695664 17.7157065,8.3407363 17.7984096,8.22950859 L17.8529241,8.15134988 L17.7800526,7.98827379 C17.0496939,8.55822198 16.6497225,8.51895282 15.2476311,8.08044723 C14.4509758,7.83174257 13.7491082,8.10008181 13.2543491,8.48241069 C13.2455826,8.40823561 13.2444868,8.33078811 13.2532533,8.25115899 C13.2959899,7.87428416 13.5962424,7.46795746 14.6547968,7.53395146 C15.4448773,7.58303791 16.1040082,7.593946 16.3302933,7.59230979 C17.0233944,7.59012817 17.4496653,7.50340878 17.7323848,7.28906463 C18.2019402,6.93236978 18.2901531,6.48841014 18.3175484,6.24243251 C18.3504227,5.96063994 18.3703604,5.54098112 18.3760932,5.17819845 L18.377818,4.96891192 L18.377818,2.60239978 L9.08807191,2.60239978 L9.08807191,1 Z M2.53894541,14 C2.20965086,14.5111247 2,15.1844178 2,15.8036547 C2,16.8109183 2.32984337,17.5746617 2.73707097,18.1826592 C3.35175413,19.1048245 3.99826909,19.6833856 5.58931059,20.846395 C7.30328872,22.1009251 8.47447967,23.5647221 9.14843585,25.0959553 L9.39156499,25.0959553 L9.39156499,23.3581314 C11.7103474,24.6388868 13.7525225,25.8452481 14.7574197,28 L15,28 C14.6081395,25.7665724 13.3118166,24.0453399 8.67480052,21.2258582 C4.3039642,18.5664042 2.8600076,17.3900145 2.73816862,15.6452328 C2.71621565,15.2903892 2.79908811,14.6930958 2.95111242,14.2665341 L2.53894541,14 Z M25.9942593,20.8718298 L28.8439184,21.0327243 C28.8156099,21.5140442 28.723379,21.9101445 28.5795918,22.3030886 L28.4872315,22.5391328 L25.4249849,22.9220071 C25.6523659,22.3558767 25.8655014,21.6659395 25.9942593,20.8718298 Z M22.0844021,17.8704663 L24.8513274,17.9953641 C24.9609086,18.5121353 25.0465189,19.0857195 25.0881826,19.7116979 L25.1077474,20.093537 L21.7090865,20.2724298 C21.7682603,19.5263158 21.8937308,18.7092992 22.0844021,17.8704663 Z M26.0402834,18.05045 L28.3223118,18.1540769 C28.5437572,18.6017635 28.7035631,19.0839166 28.7912661,19.5910675 L28.8351519,19.898282 L26.0917865,20.0422689 C26.1383586,19.4275975 26.1284962,18.7611126 26.0402834,18.05045 Z M21.4565018,15.6135806 C21.3983142,15.8811017 21.3001842,16.3721625 21.2300139,17.0963054 L21.2077525,17.3463322 L19.2566593,17.4466867 C19.8440145,16.6176711 20.5015017,16.0395419 21.4565018,15.6135806 Z M23.4859456,15.1554404 C23.6026496,15.1554404 23.7182578,15.1587128 23.833318,15.1658031 C23.9980551,15.4607763 24.299529,16.0609717 24.5685067,16.9176577 L24.6409315,17.157622 L22.2252139,17.2907008 C22.4093104,16.5849468 22.6344997,15.8884647 22.9117401,15.1996182 C23.0985761,15.180529 23.2941785,15.1554404 23.4859456,15.1554404 Z M25.4019729,15.5039542 C26.1451769,15.7851407 26.8091578,16.2257741 27.3523559,16.782952 L27.5503123,16.997273 L25.8742679,17.088901 C25.7613992,16.5794928 25.6068897,16.05045 25.4019729,15.5039542 Z M25.8101629,12.3307881 L28.1738293,13.5601309 L27.26047,15.0534497 C27.0369244,14.9059722 26.8579125,14.7885138 26.6788306,14.6910215 L26.543809,14.621489 L26.8522801,13.6932097 L25.4386826,12.9356422 L25.3543051,13.0829016 L25.8572828,13.7499318 L25.5329224,14.2026179 C24.9033784,13.9877284 24.1511035,13.9195528 23.5034786,13.9195528 C21.5271817,13.9195528 19.5300644,14.9678211 18.3942552,16.6138533 C17.9383289,16.088901 17.3204793,15.5681245 16.639444,15.0774656 L16.343991,14.8691028 L20.5847834,12.3307881 L25.8101629,12.3307881 Z M15.848684,12.27952 C16.3657507,12.2860649 16.8131774,12.3935876 17.2199473,12.5663681 L17.4200784,12.6580311 L15.0783281,14.0542678 C14.3616671,13.6004909 13.3162625,12.9361876 13.0209411,12.7365694 C13.680072,12.6362149 15.0421664,12.2669757 15.848684,12.27952 Z M15.5582938,8.79765476 C15.393922,9.00927188 15.102436,9.28742842 14.6372638,9.32015271 C14.3129035,9.34305972 14.0208696,9.28306518 13.7869137,9.17125716 C14.2646877,8.71857104 14.7276683,8.61603491 15.5582938,8.79765476 Z" id="RBC-logo-mobile"></path></g></g></g></svg> 