<?xml version="1.0" encoding="UTF-8"?> <svg xmlns="http://www.w3.org/2000/svg" width="44" height="44" viewBox="0 0 44 44"><g fill="#024F71" fill-rule="evenodd"><path d="M39 29.966C39 31.105 38.064 32 36.966 32h-14.16v-5.086c0-.814-.244-1.546-.57-2.238l9.766-9.765v4.679c0 .732.61 1.343 1.342 1.343.732 0 1.343-.61 1.343-1.343v-7.934c0-.733-.61-1.343-1.343-1.343H25.41c-.732 0-1.343.61-1.343 1.343 0 .732.61 1.342 1.343 1.342h4.68l-9.766 9.766c-.651-.367-1.424-.57-2.238-.57H13V8.034C13 6.895 13.895 6 15.034 6h21.932C38.064 6 39 6.895 39 8.034v21.932z"></path><rect width="18" height="15" x="3" y="24" rx="4"></rect></g></svg> 