<?xml version="1.0" encoding="UTF-8"?> <svg xmlns="http://www.w3.org/2000/svg" width="55" height="56" viewBox="0 0 55 56"><path fill="#FFF" d="M42.245 8.719c0-.63-.467-1.141-1.04-1.141H13.68c-.575 0-1.041.51-1.041 1.14v37.79c0 .63.466 1.141 1.04 1.141h27.527c.276 0 .541-.12.736-.334.195-.214.305-.504.305-.807l-.002-37.79zM26.783 40.944h-6.2c-.575 0-1.041-.511-1.041-1.141s.466-1.141 1.04-1.141h6.2c.576 0 1.041.51 1.041 1.14 0 .631-.465 1.142-1.04 1.142zm0-5.083h-6.2c-.575 0-1.041-.512-1.041-1.141 0-.631.466-1.142 1.04-1.142h6.2c.576 0 1.041.511 1.041 1.142 0 .63-.465 1.14-1.04 1.14zm9.46 4.18c0 .63-.466 1.14-1.041 1.14h-4.853c-.575 0-1.04-.511-1.04-1.14V34.72c0-.631.465-1.142 1.04-1.142h4.853c.575 0 1.04.511 1.04 1.142v5.32zm-1.041-9.264h-14.62c-.574 0-1.04-.51-1.04-1.14 0-.631.466-1.142 1.04-1.142h14.62c.575 0 1.04.511 1.04 1.141s-.465 1.141-1.04 1.141zm1.04-7.067c0 .63-.465 1.141-1.04 1.141h-14.62c-.574 0-1.04-.51-1.04-1.14v-7.219c0-.63.466-1.141 1.04-1.141h14.62c.575 0 1.04.511 1.04 1.141v7.218z"></path></svg> 