<?xml version="1.0" encoding="UTF-8"?> <svg xmlns="http://www.w3.org/2000/svg" width="54" height="50" viewBox="0 0 54 50"><path fill="#93D500" d="M43.122 14.36c0-.82.032-1.65 0-2.47v-.028c0-.43-.292-.76-.681-.894L37.626 9.3c-2.53-.876-5.056-1.757-7.586-2.633-.561-.194-1.117-.417-1.687-.584-.283-.083-.477-.018-.723.065-.287.102-.58.2-.867.302l-7.266 2.516c-1.895.658-3.786 1.311-5.681 1.97-.033.009-.06.023-.093.032-.39.134-.681.468-.681.894v8.587c0 1.808-.005 3.615 0 5.422.004 1.534.273 3.077.783 4.523 1.043 2.98 2.938 5.598 5.195 7.78 2.229 2.156 4.838 3.958 7.637 5.284.32.148.64.292.96.43.018.01.04.02.06.029h.004c.046.018.097.037.144.05.222.06.468.028.713-.074.005 0 .01-.004.01-.004 2.826-1.2 5.45-2.897 7.748-4.931 2.317-2.053 4.36-4.55 5.584-7.41.63-1.478 1.047-3.008 1.186-4.61.074-.858.047-1.725.047-2.587V14.36h.009zm-6.812 5.69l-1.154 1.155-5 5-3.16 3.16c-.534.533-1.437.533-1.966 0l-.64-.64-4.48-4.48c-.552-.552-.51-1.41 0-1.965.51-.552 1.45-.515 1.964 0 .214.213.427.43.64.644 1.163 1.163 2.326 2.336 3.49 3.499l.176-.176c1.668-1.669 3.331-3.337 5-5.005l3.16-3.16c.552-.552 1.414-.51 1.965 0 .556.509.52 1.454.005 1.969z"></path></svg> 