<?xml version="1.0" encoding="UTF-8"?> <svg xmlns="http://www.w3.org/2000/svg" width="54" height="51" viewBox="0 0 54 51"><g fill="#2492C3" fill-rule="evenodd"><path d="M31.745 9.492L16.864.037c-.036-.023-.082-.023-.118-.001L1.04 9.413c-.053.032-.07.101-.039.155.01.015.023.029.038.038l15.706 9.53c.037.023.083.022.12 0l14.88-9.455c.053-.033.068-.102.035-.155-.009-.014-.02-.026-.035-.034zM33.038 13.053v17.841c0 .04-.021.077-.055.097L18.17 39.823c-.053.032-.122.015-.154-.039-.01-.017-.016-.037-.016-.057V21.65c0-.04.021-.077.056-.097l14.813-8.599c.053-.031.122-.013.153.041.01.017.016.037.016.057zM0 13.053v17.841c0 .04.02.077.055.097l14.812 8.832c.054.032.123.015.155-.039.01-.017.016-.037.016-.057V21.65c0-.04-.022-.077-.056-.097L.169 12.955c-.054-.031-.123-.013-.154.041-.01.017-.015.037-.015.057z" transform="translate(12 5.125)"></path></g></svg> 