<?xml version="1.0" encoding="UTF-8"?> <svg xmlns="http://www.w3.org/2000/svg" xmlns:xlink="http://www.w3.org/1999/xlink" width="54" height="50" viewBox="0 0 54 50"><defs><path id="prefix__a" d="M0 0L39 0 39 25.705 0 25.705z"></path></defs><g fill="none" fill-rule="evenodd"><g transform="translate(8 6)"><mask id="prefix__b" fill="#fff"><use xlink:href="#prefix__a"></use></mask><path fill="#2492C3" d="M6.198 8.91C6.6-.189 18.355-3.289 23.378 4.21c5.326-1.5 10.751 2.3 10.952 7.898 7.335 2.4 5.627 13.597-2.31 13.597h-1.661C28.79 21.217 24.52 18 19.5 18s-9.29 3.218-10.859 7.704H8.51c-9.947 0-11.756-14.196-2.311-16.795z" mask="url(#prefix__b)"></path></g><path fill="#2492C3" d="M15.312 29.78c.034-.078.092-.148.15-.21l.025-.047h.008l2.317-2.188c.324-.312.847-.312 1.171-.008.324.303.332.794.008 1.106l-.922.864h4.85c.457 0 .831.35.831.778 0 .429-.374.78-.83.78h-4.85l.921.863c.324.312.316.803-.008 1.106-.158.148-.374.226-.581.226-.216 0-.432-.078-.59-.234l-2.325-2.195c-.017-.016-.025-.04-.042-.063-.05-.054-.1-.117-.133-.187-.083-.186-.083-.405 0-.591M19.496 39C24.185 39 28 35.191 28 30.5S24.185 22 19.496 22C14.816 22 11 25.809 11 30.5s3.815 8.5 8.496 8.5" transform="translate(8 6)"></path></g></svg> 