<?xml version="1.0" encoding="UTF-8"?> <svg xmlns="http://www.w3.org/2000/svg" width="54" height="51" viewBox="0 0 54 51"><g fill="none" fill-rule="evenodd"><g transform="translate(12 7.125)"><rect width="32" height="10.698" fill="#2492C3" rx="1"></rect><path fill="#FFF" fill-rule="nonzero" d="M8.19 7.62c1.372-1.216 1.47-3.274.196-4.631-1.273-1.357-3.428-1.404-4.849-.187-1.371 1.216-1.469 3.275-.196 4.631 1.274 1.31 3.43 1.404 4.85.188z"></path></g><g transform="translate(12 7.125) translate(0 12.693)"><rect width="32" height="10.698" fill="#2492C3" rx="1"></rect><path fill="#FFF" fill-rule="nonzero" d="M8.19 7.62c1.372-1.216 1.47-3.274.196-4.631-1.273-1.357-3.428-1.404-4.849-.187-1.371 1.216-1.469 3.275-.196 4.631 1.274 1.31 3.43 1.404 4.85.188z"></path></g><g transform="translate(12 7.125) translate(0 25.386)"><rect width="32" height="10.698" fill="#2492C3" rx="1"></rect><path fill="#FFF" fill-rule="nonzero" d="M8.19 7.62c1.372-1.216 1.47-3.274.196-4.631-1.273-1.357-3.428-1.404-4.849-.187-1.371 1.216-1.469 3.275-.196 4.631 1.274 1.31 3.43 1.404 4.85.188z"></path></g></g></svg> 