<?xml version="1.0" encoding="UTF-8"?> <svg xmlns="http://www.w3.org/2000/svg" width="54" height="50" viewBox="0 0 54 50"><path fill="#93D500" d="M27.556 5c-2.946 0-5.334 2.388-5.334 5.333 0 2.946 2.388 5.334 5.334 5.334 2.945 0 5.333-2.388 5.333-5.334C32.89 7.388 30.501 5 27.556 5zm10.666 9.778l-5.75 2.875c-1.541-.421-3.195-.653-4.916-.653-8.346 0-15.111 5.373-15.111 12 0 3.666 2.07 6.952 5.333 9.153V45h5.778l1.208-4.208c.905.134 1.837.208 2.792.208.954 0 1.886-.074 2.791-.208L31.556 45h5.778v-6.847c1.93-1.303 3.447-2.987 4.36-4.903l4.528-1.139v-5.778l-4.305-1.083c-.865-2.09-2.437-3.927-4.486-5.333l.791-5.14zm-10.666 4.444c1.315 0 2.572.148 3.764.445.454.109.768.622.66 1.076-.11.455-.623.769-1.077.66C29.85 21.14 28.726 21 27.556 21c-1.812 0-3.514.335-5 .93-.433.175-.986-.06-1.16-.492-.175-.433.06-.986.493-1.16 1.704-.683 3.633-1.056 5.667-1.056zM8.792 22.32c-.437.048-.801.464-.792.903 0 2.394 1.726 4.023 3.653 4.375.08-.595.214-1.17.389-1.736-1.194-.16-2.264-1.037-2.264-2.639.01-.504-.485-.958-.986-.903zm27.653 2.237c.981 0 1.777.796 1.777 1.777 0 .982-.796 1.778-1.777 1.778-.982 0-1.778-.796-1.778-1.778 0-.981.796-1.777 1.778-1.777z"></path></svg> 