<?xml version="1.0" encoding="UTF-8"?> <svg xmlns="http://www.w3.org/2000/svg" width="54" height="50" viewBox="0 0 54 50"><path fill="#024F71" d="M10.142 33.491c.064-.119.13-.238.201-.356.275-.478.602-.951.976-1.404.746-.912 1.698-1.712 2.731-2.375 1.038-.659 2.163-1.172 3.296-1.608 1.133-.44 2.287-.788 3.423-1.13 1.135-.342 2.263-.651 3.35-.994 1.09-.334 2.142-.69 3.14-1.083.998-.39 1.938-.819 2.803-1.278.863-.462 1.652-.95 2.353-1.447.7-.498 1.318-.994 1.842-1.466l.377-.346.34-.334c.225-.21.413-.42.593-.601.348-.372.612-.674.791-.888l.276-.323c.037-.043.102-.048.145-.01.038.03.046.085.024.127l-.207.372c-.128.243-.345.593-.628 1.036-.288.437-.65.965-1.12 1.529-.467.567-1.02 1.191-1.687 1.814-.664.624-1.432 1.254-2.294 1.851-.857.607-1.815 1.16-2.825 1.69-1.014.517-2.086.996-3.18 1.438-1.097.438-2.21.857-3.307 1.262-1.098.405-2.172.825-3.182 1.27-1.01.444-1.94.95-2.75 1.501-.231.163-.453.331-.663.503-.121.072-.242.146-.361.22-1.033.664-1.984 1.464-2.73 2.376-.375.453-.702.926-.977 1.404-.283.474-.505.956-.703 1.42-.382.935-.611 1.817-.76 2.595-.15.78-.216 1.456-.265 2.01-.039.555-.06.988-.06 1.282l-.007.336c.005.019-.013.036.01.05.044.015.242.027.479.037l.314.012.356.01.285.006c.061.001.138.002.2 0h.003l.286-.007.356-.008.315-.011c.237-.009.435-.019.479-.031.024-.012.007-.027.013-.044l.003-.294c0-.258.015-.633.044-1.107.038-.471.09-1.043.207-1.674.12-.63.29-1.326.558-2.035.142-.35.296-.71.495-1.057.012-.024.026-.047.04-.07C42.362 46.913 45.082 7 45.082 7c-3.548 11.052-33.588 3.55-34.94 26.491z"></path></svg> 