<?xml version="1.0" encoding="UTF-8"?> <svg xmlns="http://www.w3.org/2000/svg" width="54" height="50" viewBox="0 0 54 50"><g fill="#024F71"><path d="M19.763 6.58l4.541 5.497 2.74-8.242c.362-1.343-.318-3.215-1.726-3.684-3.845-1.063-4.703 3.776-5.555 6.43zM26.72 16.866L13.955 1.42c-2.535-3.005-7.147.814-4.644 3.856 4.245 5.135 8.484 10.27 12.729 15.405.496.604-.42 1.359-.917.76l-6.748-8.171c-.517-.626-1.273-.966-2.055-1.02-2.67-.189-4.493 2.794-2.788 4.898 1.43 1.629 2.788 3.182 4.185 4.87.491.604-.426 1.354-.917.755-1.23-1.488-2.556-2.874-3.786-4.374-2.875-1.872-6.17 1.802-3.986 4.45l.847 1.025c.787.712 1.699 1.985 2.4 2.837.523.642-.458 1.386-1.046.663l-2.212-2.675c-2.75-2.373-6.623 1.354-4.299 4.213 6.349 7.788 12.843 12.222 22.86 5.215 6.046-4.228 8.15-11.078 3.144-17.26z" transform="translate(13 6)"></path></g></svg> 