<?xml version="1.0" encoding="UTF-8"?> <svg xmlns="http://www.w3.org/2000/svg" width="55" height="56" viewBox="0 0 55 56"><path fill="#FFF" d="M27.996 11.074c-9.665 0-17.5 7.835-17.5 17.5s7.835 17.5 17.5 17.5 17.5-7.835 17.5-17.5c-.036-9.65-7.85-17.465-17.5-17.5zM39.269 36.11c-.407-.385-.846-.736-1.31-1.049.4-1.48.663-2.994.786-4.522h2.687c-.304 1.993-1.042 3.895-2.163 5.571zM14.56 30.54h2.688c.123 1.528.386 3.042.786 4.522-.458.262-.917.656-1.376.983-1.072-1.67-1.787-3.545-2.097-5.505zm2.098-9.438l1.376 1.048c-.405 1.457-.669 2.95-.786 4.457H14.56c.31-1.96 1.025-3.835 2.097-5.505zm19.794-2.819l-.328-.524.525.393-.197.131zM26.03 21.102c-1.057-.13-2.092-.395-3.081-.787.746-1.508 1.795-2.847 3.08-3.932v4.719zm0 3.998v1.507h-4.85c.061-.883.193-1.76.393-2.621 1.43.562 2.929.937 4.457 1.114zm0 5.44v1.507c-1.528.177-3.026.552-4.457 1.115-.2-.863-.332-1.74-.394-2.622h4.85zm0 5.505v4.72c-1.286-1.086-2.335-2.425-3.081-3.933.99-.392 2.024-.656 3.08-.787zm3.932 0c1.056.13 2.091.395 3.08.787-.745 1.508-1.794 2.847-3.08 3.933v-4.72zm0-3.998V30.54h4.85c-.062.883-.193 1.76-.393 2.622-1.44-.533-2.935-.907-4.457-1.115zm0-5.44V25.1c1.528-.177 3.026-.552 4.457-1.114.2.862.331 1.738.393 2.621h-4.85zm0-5.505v-4.72c1.286 1.086 2.335 2.425 3.08 3.933-.989.392-2.024.656-3.08.787zm-10.421-2.753l-.262-.197.59-.393c-.134.182-.244.38-.328.59zm0 20.45c.084.209.194.407.328.59l-.59-.394.262-.197zm16.91.065l.197.13c-.146.167-.324.301-.525.394.124-.165.234-.34.328-.524zm2.294-12.257c-.123-1.528-.387-3.042-.787-4.522.465-.313.904-.664 1.311-1.049 1.12 1.676 1.859 3.578 2.163 5.571h-2.687z"></path></svg> 