<?xml version="1.0" encoding="UTF-8"?> <svg xmlns="http://www.w3.org/2000/svg" width="54" height="50" viewBox="0 0 54 50"><path fill="#93D500" fill-rule="evenodd" d="M27.001 5c2.416 0 4.375 1.958 4.375 4.375 0 2.208-1.635 4.034-3.76 4.332v2.314c2.023.136 3.862.941 5.3 2.196l1.635-1.635c-1.292-1.714-1.157-4.162.404-5.723 1.709-1.709 4.478-1.709 6.187 0 1.709 1.709 1.709 4.478 0 6.187-1.561 1.561-4.009 1.695-5.722.405l-1.636 1.635c1.254 1.437 2.06 3.277 2.195 5.3h2.314c.298-2.125 2.124-3.76 4.332-3.76 2.417 0 4.375 1.958 4.375 4.375 0 2.416-1.958 4.375-4.375 4.375-2.208 0-4.034-1.635-4.332-3.76h-2.314c-.136 2.023-.941 3.862-2.196 5.3l1.635 1.635c1.714-1.292 4.162-1.157 5.723.404 1.709 1.709 1.709 4.478 0 6.187-1.709 1.709-4.478 1.709-6.187 0-1.561-1.561-1.695-4.009-.405-5.722l-1.635-1.636c-1.437 1.254-3.277 2.06-5.3 2.195v2.314c2.125.298 3.76 2.124 3.76 4.332 0 2.417-1.958 4.375-4.375 4.375-2.416 0-4.375-1.958-4.375-4.375 0-2.208 1.635-4.034 3.76-4.332v-2.314c-2.023-.136-3.862-.941-5.3-2.196l-1.635 1.635c1.292 1.714 1.157 4.162-.404 5.723-1.709 1.709-4.478 1.709-6.187 0-1.709-1.709-1.709-4.478 0-6.187 1.561-1.561 4.009-1.695 5.722-.405l1.636-1.635c-1.254-1.437-2.06-3.277-2.195-5.3h-2.314c-.298 2.125-2.124 3.76-4.332 3.76C8.958 29.374 7 27.416 7 24.999c0-2.416 1.958-4.375 4.375-4.375 2.208 0 4.034 1.635 4.332 3.76h2.314c.136-2.023.941-3.862 2.196-5.3l-1.635-1.635c-1.714 1.292-4.162 1.157-5.723-.404-1.709-1.709-1.709-4.478 0-6.187 1.709-1.709 4.478-1.709 6.187 0 1.561 1.561 1.695 4.009.405 5.722l1.635 1.636c1.437-1.254 3.277-2.06 5.3-2.195v-2.314c-2.125-.298-3.76-2.124-3.76-4.332C22.626 6.958 24.584 5 27.001 5z"></path></svg> 