<?xml version="1.0" encoding="UTF-8"?> <svg xmlns="http://www.w3.org/2000/svg" width="668" height="666" viewBox="0 0 668 666"><defs><linearGradient id="prefix__b" x1="50%" x2="50%" y1="20.866%" y2="69.07%"><stop offset="0%" stop-color="#005A7F"></stop><stop offset="100%" stop-color="#009ECE"></stop></linearGradient><linearGradient id="prefix__c" x1="50.514%" x2="49.812%" y1="32.269%" y2="56.308%"><stop offset="0%" stop-color="#00814B"></stop><stop offset="100%" stop-color="#8FDF00"></stop></linearGradient><linearGradient id="prefix__d" x1="50.481%" x2="49.824%" y1="34.5%" y2="55.512%"><stop offset="0%" stop-color="#00814B"></stop><stop offset="100%" stop-color="#8FDF00"></stop></linearGradient><radialGradient id="prefix__a" cx="50%" cy="50%" r="50%" fx="50%" fy="50%" gradientTransform="matrix(0 1 -1.15775 0 1.079 0)"><stop offset="0%" stop-color="#62D3FF"></stop><stop offset="100%" stop-color="#FFF" stop-opacity="0"></stop></radialGradient></defs><g fill="none" fill-rule="evenodd"><ellipse fill="url(#prefix__a)" opacity=".779" style="mix-blend-mode:multiply" cx="334" cy="333" rx="334" ry="333"></ellipse><g><g fill-rule="nonzero" opacity=".4"><path fill="#4D4D4E" d="M220.487 120.169L110.665 56.379 1.047 119.409 110.767 184.195z" transform="translate(106 174) translate(116.728 207.88)"></path><path fill="#024F71" d="M220.487 64.735L110.665 0.928 1.047 63.975 110.767 128.744z" opacity=".1" transform="translate(106 174) translate(116.728 207.88)"></path><path fill="#353535" d="M110.767 184.144L1.047 119.358 1.047 128.254 110.767 193.023 220.487 129.014 220.487 120.118z" transform="translate(106 174) translate(116.728 207.88)"></path><path fill="#2B2B2B" d="M48.969 0.473L148.696 57.561 101.128 84.873 1.435 27.768z" opacity=".46" transform="translate(106 174) translate(116.728 207.88) translate(62.456 62.456)"></path><path fill="#EAEAEA" d="M49.222 0L148.932 57.105 101.381 84.417 1.671 27.312z" opacity=".34" transform="translate(106 174) translate(116.728 207.88) translate(10.128 92.84)"></path><path fill="#FFF" d="M178.354 109.99c-.152.371-31.11 6.887-31.717 6.887-2.144-.59-4.208-1.44-6.145-2.532.135-.27 19.463-4.355 20.256-4.355.794 0 17.758-.27 17.606 0zM138.078 94.309c0-.152-.725-1.03-1.097-1.3-.632-.522-1.33-.96-2.076-1.3-2.448-.902-5.187-.488-7.258 1.097-.54.507-.76.743-.81 1.097.034.582.273 1.132.675 1.553.455.54 1.316 1.08 1.4 1.57.114.497-.079 1.014-.489 1.317-.862.295-1.777.404-2.684.32-1.141-.315-2.193-.893-3.072-1.687-.675-.726-.793-1.098-1.08-1.098-.666.176-1.277.518-1.773.996-.135.321.912 1.148 1.266 1.452.742.517 1.534.958 2.363 1.317.658.28 1.362.434 2.077.455 1.466.181 2.954-.04 4.304-.641.65-.202 1.233-.575 1.688-1.08.506-.54.422-.54.422-.996 0-.456-.152-.591-.557-1.182-.405-.59-.895-1.046-1.08-1.317-.186-.27-.507-.725-.372-1.08.162-.43.52-.756.963-.878.725-.185 1.485-.185 2.21 0 .821.18 1.586.557 2.229 1.098.557.49.911 1.012 1.08 1.13.17.119 1.536-.624 1.671-.843zM130.55 89.937c0-.237-1.182-.659-1.688-.794s-11.968 4.035-11.968 4.035l7.512-6.128-1.992-1.097-11.209 4.152s7.158-5.705 7.158-6.093c0-.388-1.587-1.3-1.908-1.3-3.183 2.556-6.21 5.302-9.064 8.22 0 .355 1.688 1.115 2.143 1.148.456.034 11.242-4.135 11.242-4.135l-7.19 5.942s1.266 1.063 1.688 1.063c.422 0 15.276-4.76 15.276-5.013zM113.383 81.176c-.617-.525-1.284-.989-1.992-1.384-.936-.49-1.955-.799-3.005-.912-.598-.096-1.207-.096-1.806 0-.304 0-1.03.22-1.012.591.016.371 2.278.405 3.19.827.762.249 1.436.712 1.941 1.334.287.388 0 .894-.32 1.316-.701.548-1.514.934-2.38 1.131-.22-.084-.254-.22-.575-.422-.76-.49-1.55-.936-2.363-1.333-.699-.321-1.459-.488-2.228-.49-.898-.059-1.799-.008-2.684.152-.814.156-1.585.484-2.262.962-.551.36-1.027.825-1.4 1.368-.183.472-.085 1.006.252 1.384.897.751 1.983 1.242 3.14 1.418 1.028.091 2.061.091 3.089 0 .135.084-1.03 1.451-.86 1.57.924.118 1.86.118 2.784 0 .203-.119.17-.338.456-.726.384-.437.855-.788 1.384-1.03.692-.422 4.085-2.211 4.828-2.684.804-.488 1.513-1.117 2.093-1.857.161-.422.055-.9-.27-1.215zm-8.609 4.895c-.822.205-1.667.307-2.515.304-.704.057-1.407-.127-1.992-.523-.287-.135-.692-.44-.726-.726-.099-.407.046-.835.372-1.097.541-.545 1.275-.854 2.042-.861.808-.047 1.615.11 2.347.456 1.012.388 2.16.928 2.16 1.282 0 .355-1.232 1.013-1.688 1.182v-.017zM176.413 112.522c-.27-.388-13.133 2.735-13.504 3.376-.371.642-2.262 8.44-2.684 8.676-.422.237-14.145-5.908-14.601-5.57-.456.338 19.04 10.651 19.817 10.482.776-.168 11.242-16.559 10.972-16.964zM120.27 101.28c1.097.278 2.161.674 3.173 1.182.946.557 1.25.76 1.131 1.114-.118.354-.658.607-1.282.928-1.549.71-3.16 1.275-4.811 1.688-1.007.185-2.033.253-3.056.203-.32 0-.354-.355.254-.54.607-.186 1.688-.423 2.228-.54.895-.216 1.766-.522 2.6-.912.64-.32 1.046-.591 1.13-.844.085-.253 0-.32-.287-.574-.734-.454-1.515-.827-2.33-1.114-.742-.237-1.94-.523-1.687-.743.253-.22 2.093-.067 2.937.152z" transform="translate(106 174) translate(116.728 207.88)"></path><path fill="#FFF" d="M90.274 86.881s-.422-.742-.776-.624c-.355.118-.659 1.603-.355 2.97.68 2.433 2.01 4.633 3.849 6.364 2.446 2.025 5.12 3.759 7.967 5.166 2.592 1.157 5.33 1.958 8.136 2.38 1.948.359 3.915.601 5.892.726 1.237.15 2.484.2 3.73.152.287-.152.456-.693-.439-.878l-5.503-1.182c-3.934-.666-7.74-1.948-11.276-3.798-2.287-1.372-4.465-2.919-6.515-4.625-1.05-.919-1.986-1.962-2.785-3.106-.895-1.4-1.925-3.545-1.925-3.545zM120.32 144.847c-.826 0-7.325 3.376-7.325 4.102 0 .726 4.962 3.258 5.79 3.258.827 0 7.41-3.376 7.41-4.136 0-.76-5.047-3.224-5.874-3.224zm0 .726c.338 0 2.01.743 2.01 1.013-.818.682-1.758 1.203-2.769 1.536-.815-.186-1.577-.556-2.228-1.08-.05-.186 2.7-1.469 3.038-1.469h-.05zm-6.245 3.376c.725-.615 1.546-1.105 2.43-1.452.756.251 1.456.647 2.06 1.165-.771.607-1.638 1.08-2.566 1.401-.135 0-1.94-.86-1.873-1.114h-.051zm4.946 2.481c-.82-.158-1.592-.498-2.262-.995.798-.63 1.693-1.126 2.65-1.469.794.238 1.542.609 2.211 1.097-.797.547-1.652 1.006-2.548 1.367h-.051zm3.376-1.789c-.732-.242-1.417-.607-2.026-1.08-.118-.236 2.414-1.57 2.752-1.57.337 0 2.025.827 2.025 1.097-.822.643-1.731 1.166-2.7 1.553h-.051zM128.997 148.966c-.827 0-7.326 3.376-7.326 4.119 0 .742 4.963 3.258 5.79 3.258s7.427-3.376 7.427-4.136c0-.76-5.064-3.241-5.891-3.241zm0 .743c.338 0 2.009.726 2.009 1.013-.818.682-1.757 1.203-2.769 1.536-.815-.187-1.577-.556-2.228-1.08-.05-.254 2.701-1.47 3.039-1.47h-.051zm-6.246 3.376c.727-.612 1.548-1.102 2.431-1.452.756.25 1.455.646 2.06 1.165-.772.606-1.639 1.08-2.566 1.4-.135 0-1.942-.86-1.874-1.113h-.05zm4.946 2.481c-.822-.156-1.597-.503-2.262-1.013.804-.617 1.698-1.107 2.65-1.451.794.237 1.542.608 2.212 1.097-.798.547-1.652 1.005-2.55 1.367h-.05zm3.376-1.79c-.732-.241-1.417-.606-2.025-1.08-.119-.236 2.413-1.57 2.751-1.57.338 0 2.026.828 2.026 1.098-.823.643-1.732 1.165-2.701 1.553h-.05zM110.058 150.4c-.828 0-7.326 3.377-7.326 4.103 0 .725 4.962 3.274 5.79 3.274.827 0 7.427-3.46 7.427-4.135 0-.675-5.064-3.241-5.891-3.241zm0 .744c.337 0 2.008.725 2.008.995-.817.683-1.757 1.204-2.768 1.537-.81-.191-1.57-.554-2.228-1.064-.034-.27 2.65-1.468 3.038-1.468h-.05zm-6.246 3.376c.73-.616 1.558-1.106 2.448-1.452.748.255 1.442.65 2.042 1.165-.767.603-1.628 1.076-2.549 1.4-.152-.016-1.958-.877-1.89-1.13l-.051.017zm4.946 2.48c-.818-.16-1.59-.5-2.262-.995.8-.624 1.694-1.114 2.65-1.452.794.229 1.543.595 2.211 1.08-.798.542-1.652.995-2.549 1.351l-.05.017zm3.376-1.788c-.728-.233-1.408-.593-2.009-1.064-.135-.253 2.397-1.587 2.735-1.587.337 0 2.042.828 2.042 1.098-.823.646-1.74 1.164-2.718 1.536l-.05.017zM118.734 154.536c-.827 0-7.326 3.376-7.326 4.102 0 .726 4.963 3.258 5.79 3.258s7.427-3.376 7.427-4.119c0-.742-5.064-3.24-5.891-3.24zm0 .743c.338 0 2.009.726 2.009.996-.818.682-1.757 1.203-2.769 1.536-.814-.19-1.575-.558-2.228-1.08.915-.662 1.946-1.149 3.039-1.435l-.051-.017zm-6.246 3.376c.73-.615 1.558-1.105 2.448-1.452.749.255 1.442.65 2.042 1.165-.767.603-1.628 1.077-2.548 1.401-.152-.017-1.959-.878-1.891-1.097l-.05-.017zm4.946 2.481c-.818-.161-1.59-.501-2.262-.995.8-.624 1.695-1.114 2.65-1.452.795.229 1.543.594 2.212 1.08-.798.541-1.653.994-2.55 1.35l-.05.017zm3.376-1.789c-.728-.239-1.408-.604-2.009-1.08-.135-.236 2.397-1.57 2.735-1.57.338 0 2.042.827 2.042 1.097-.827.64-1.742 1.158-2.717 1.536l-.05.017zM95.963 137.37l-5.976 3.375c-.133.077-.216.218-.22.372-.001.15.085.289.22.354l4.946 2.583c.06.017.125.017.186 0 .065.025.137.025.202 0l5.756-3.376c.133-.067.212-.207.203-.355.002-.15-.084-.289-.22-.354l-4.709-2.498c-.107-.092-.25-.13-.388-.102zm-.861 5.823l-4.068-2.127 5.064-2.886 3.865 2.059-4.861 2.954z" transform="translate(106 174) translate(116.728 207.88)"></path><path fill="#FFF" d="M109.517 137.268c-.05-.098-.138-.17-.244-.2-.106-.029-.22-.011-.313.048l-2.6 1.452-1.687-.878 2.144-1.165c.097-.05.17-.137.202-.242.032-.105.02-.219-.034-.315-.11-.195-.356-.27-.557-.168l-2.633 1.434-1.603-.81 1.94-1.03c.197-.11.27-.356.17-.557-.111-.195-.357-.27-.558-.168l-2.447 1.3-1.941-.98 2.177-1.181c.098-.05.17-.138.203-.243.031-.105.02-.218-.034-.314-.05-.098-.138-.17-.243-.203-.105-.031-.218-.02-.314.034l-2.667 1.452-1.334-.676c-.12-.066-.267-.066-.388 0l-1.688.946-2.296-1.182c-.2-.097-.441-.014-.54.186-.052.093-.064.204-.032.306.032.103.105.187.201.234l1.806.928-2.363 1.283-2.296-1.181c-.205-.099-.452-.017-.557.185-.097.2-.014.442.186.54l1.806.929-2.228 1.215-2.279-1.165c-.205-.098-.452-.016-.557.186-.098.206-.016.452.186.557l1.772.895-2.312 1.283-2.28-1.165c-.2-.097-.44-.014-.54.186-.052.093-.064.204-.032.306.032.103.105.187.202.234l1.772.911-.996.54c-.132.076-.21.22-.203.372-.001.15.084.289.22.354l.726.372-2.55 1.384c-.097.05-.17.138-.202.243-.031.105-.02.218.034.314.077.133.218.216.371.22h.186l3.055-1.689 1.84.946-2.7 1.434c-.182.078-.28.275-.234.467.045.192.223.322.42.31h.202l3.207-1.688 1.688.878-2.448 1.333c-.097.05-.17.138-.202.243-.032.105-.02.218.034.314.076.133.217.217.37.22.062.017.126.017.187 0l2.954-1.688 1.873.962-2.684 1.485c-.153.099-.226.285-.18.462.046.177.2.304.383.315h.202l3.157-1.688 1.215.624h.389l1.468-.827 2.296 1.182h.186c.154 0 .297-.084.37-.22.1-.205.017-.452-.185-.557l-1.806-.911 2.279-1.3 2.346 1.199c.06.017.125.017.186 0 .18-.018.328-.147.37-.322.042-.176-.032-.358-.184-.455l-1.857-.945 2.194-1.232 2.363 1.198c.061.017.125.017.186 0 .153-.005.29-.097.355-.236.052-.094.064-.205.032-.307-.032-.102-.105-.187-.201-.233l-1.874-.963 2.33-1.3 2.396 1.233c.061.015.125.015.186 0 .158-.003.302-.094.371-.236.098-.201.015-.442-.185-.54l-1.908-.98 1.233-.709c.135-.074.22-.216.219-.371-.012-.151-.102-.285-.236-.354l-.642-.321 2.16-1.199c.16-.136.188-.37.068-.54zm-14.82 9.267l-3.815-1.975c-.07-.066-.158-.107-.253-.118l-5.959-3.055 12.221-6.752 9.909 5.064-12.103 6.836zM85.632 124.068l-4.895-2.6c-.12-.066-.267-.066-.388 0l-5.74 2.954c-.128.076-.206.214-.206.363 0 .15.078.287.207.363l1.35.794-2.532 1.384-4.456-2.363c-.117-.06-.255-.06-.372 0l-2.92 1.451-2.43-1.283c-.116-.066-.257-.066-.372 0l-5.74 2.954c-.135.066-.22.204-.219.355-.012.144.06.283.186.354l4.659 2.786c.067.014.136.014.202 0 .067.015.136.015.203 0l5.976-3.14c.133-.077.216-.218.219-.371.002-.151-.084-.29-.22-.355l-1.57-.844 2.212-1.097 8.794 4.676-2.042 1.3-2.279-1.216c-.115-.066-.256-.066-.371 0l-5.74 2.954c-.134.07-.223.203-.236.355.003.149.079.288.203.37l4.659 2.77c.066.021.137.021.202 0h.203l5.975-3.14c.136-.075.22-.217.22-.372.002-.15-.084-.289-.22-.354l-1.789-.946 2.245-1.434c.13-.072.21-.208.21-.355s-.08-.283-.21-.354l-4.338-2.245 2.464-1.35 2.499 1.485c.065.024.137.024.202 0 .061.017.125.017.186 0l5.992-3.14c.136-.066.222-.204.22-.355-.002-.145-.079-.279-.203-.354zM62 130.736l-3.815-2.28 4.896-2.514 4.017 2.127L62 130.736zm10.01 5.435l-3.815-2.296 4.895-2.515 2.28 1.216 1.687.911-5.047 2.684zm7.495-9.065l-3.866-2.194 4.895-2.532 4.018 2.127-5.047 2.6zM60.515 110.648c-2.13-1.147-4.4-2.015-6.752-2.582-.169 0-.642 0-8.963 4.321-8.322 4.321-8.44 4.456-8.44 4.76 0 .71 3.004 2.887 5.266 4.018 2.12 1.17 4.393 2.039 6.752 2.582 3.134-1.224 6.175-2.673 9.098-4.338 8.44-4.355 8.44-4.608 8.44-4.777.44-1.013-5.334-3.95-5.401-3.984zM48.412 122.92c-2.248-.545-4.415-1.379-6.448-2.481-1.678-.845-3.233-1.913-4.625-3.174.709-.422 2.548-1.418 4.726-2.565 1.69 1.174 3.442 2.256 5.25 3.24 1.84.98 4.625 2.144 5.992 2.701-1.582.862-3.217 1.623-4.895 2.28zm5.874-2.768c-.81-.32-4.389-1.773-6.583-2.937-1.661-.888-3.268-1.874-4.81-2.954 1.687-.912 3.611-1.89 5.333-2.752.135.085 3.224 2.093 4.676 2.836 1.148.59 4.98 2.33 6.617 3.09-1.688.894-3.545 1.856-5.233 2.717zm6.161-3.207c-1.03-.456-5.89-2.667-7.174-3.376-1.283-.71-3.376-1.975-4.203-2.55 1.504-.809 3.047-1.541 4.625-2.194 2.241.575 4.406 1.413 6.448 2.499 1.742.844 3.393 1.862 4.93 3.038-.693.422-2.482 1.452-4.626 2.583z" transform="translate(106 174) translate(116.728 207.88)"></path></g><g fill-rule="nonzero" opacity=".4"><path fill="#185580" d="M110.767 128.693L1.047 63.908 1.047 72.787 110.767 137.572 220.487 73.546 220.487 64.667z" transform="translate(106 174) translate(116.728 182.56)"></path><path fill="url(#prefix__b)" d="M220.487 64.667L110.665 0.878 1.047 63.908 110.767 128.693z" transform="translate(106 174) translate(116.728 182.56)"></path><path fill="#FFF" d="M145.742 35.448l7.343-4.54-6.229-3.9c-.192-.08-.413-.01-.523.167-.11.176-.074.407.084.542l5.064 3.089-42.706 26.586c-.186.128-.245.376-.135.574.081.115.213.184.354.186.072.015.147.015.22 0l6.076-3.782 14.382 8.626 2.718-1.823 3.764 2.11-2.33 1.688 13.927 8.997 3.274-1.688 6.634 3.9-2.7 1.687 7.308 4.457 30.705-17.977-47.23-28.899zm10.803 42.403l2.735-1.688-8.22-4.811-3.259 1.688-12.542-8.103 2.397-1.806-5.3-2.97-2.718 1.822-13.504-8.136 29.034-18.061v.118l46.352 28.341-29.1 17.05-5.875-3.444z" transform="translate(106 174) translate(116.728 182.56)"></path><path fill="#FFF" d="M174.303 61.544L176.565 62.946 175.771 66.642 158.368 67.79 160.546 56.97 166.589 56.97 173.239 61.072 172.277 64.431 162.909 64.785 163.213 63.064 169.965 62.895 170.505 61.713 165.795 58.54 162.808 58.54 161.339 65.9 173.661 65.241zM68.854 50.64l7.342-4.54-6.195-3.799c-.091-.056-.202-.073-.306-.048-.105.026-.195.092-.25.183-.119.197-.059.451.134.574l5.064 3.09-42.757 26.484c-.096.056-.165.15-.191.258-.026.108-.005.223.056.316.072.117.2.188.338.186.072.017.147.017.22 0l6.093-3.782 14.365 8.626 2.734-1.823 3.765 2.11-2.33 1.688 13.91 8.997 3.274-1.688 6.65 3.883-2.7 1.688 7.309 4.456 30.705-17.977-47.23-28.882zM79.64 93.043l2.734-1.688-8.22-4.811-3.241 1.688-12.542-8.103 2.397-1.806-5.3-2.97-2.701 1.822-13.504-8.153 29.017-17.96v.118l46.352 28.342L85.531 96.57l-5.891-3.527z" transform="translate(106 174) translate(116.728 182.56)"></path><path fill="#FFF" d="M76.838 64.38c-1.114-1.195-2.435-2.18-3.9-2.903-3.072-1.57-6.752-2.414-7.663-.945l-9.2 6.195c-.036.019-.065.048-.084.084-.456.709-.236 1.688.59 2.903.967 1.264 2.157 2.34 3.512 3.174 1.601 1.043 3.458 1.627 5.368 1.688.63.053 1.259-.12 1.772-.49l9.3-6.093c.53-.061.999-.368 1.267-.827.354-.659.017-1.688-.962-2.786zm-6.87 7.276c-2.055.012-4.083-.475-5.908-1.418-3.005-1.587-4.845-4.068-4.457-5.149l2.28-1.536c0 1.57 2.11 3.832 4.945 5.25 1.666.806 3.47 1.287 5.317 1.418l-2.177 1.435zm3.089-2.094c-2.064.07-4.112-.377-5.959-1.3-3.123-1.57-5.064-4.084-4.54-5.063l2.548-1.688c.135 1.688 2.532 3.865 5.182 5.233 1.442.77 3.007 1.285 4.625 1.519h.389l-2.212 1.451-.033-.152zm-6.195 4.136c-.625.574-3.376.625-6.432-1.317-1.302-.789-2.447-1.813-3.376-3.021-.641-.912-.86-1.688-.624-2.16l2.481-1.689c.101 1.57 2.093 3.798 4.828 5.25 1.635.81 3.401 1.324 5.216 1.52l-2.093 1.417zm10.364-6.752c-.253.49-1.063.692-2.262.574-1.541-.226-3.032-.717-4.406-1.452-3.274-1.688-5.3-4.22-4.794-5.199.17-.32.693-.506 1.435-.506 3.482.352 6.73 1.91 9.183 4.406.793.911 1.097 1.704.844 2.194v-.017zM97.398 76.821L99.66 78.222 98.883 81.919 81.48 83.05 83.657 72.246 89.683 72.246 96.334 76.348 95.372 79.707 86.02 80.062 86.307 78.34 93.076 78.171 93.616 76.99 88.907 73.816 85.919 73.816 84.434 81.176 96.756 80.518zM154.857 48.665l-4.625-2.886c-.102-.069-.235-.069-.338 0l-4.439 2.92c-.083.065-.133.164-.135.27.003.1.053.195.135.253l1.772 1.165-2.093 1.283-4.456-2.87c-.097-.065-.224-.065-.32 0l-2.229 1.452-2.313-1.452c-.102-.068-.235-.068-.337 0l-4.44 2.937c-.084.056-.135.152-.135.253 0 .102.05.197.135.254l4.44 2.937c.055.015.113.015.169 0 .055.017.113.017.168 0l4.626-2.954c.083-.066.132-.165.135-.27 0-.102-.05-.197-.135-.254l-1.688-1.097 1.823-1.181 8.44 5.503-1.688 1.164-2.28-1.435c-.101-.068-.235-.068-.337 0l-4.44 2.938c-.084.056-.135.15-.135.253 0 .102.05.197.136.253l4.44 2.937c.054.015.113.015.168 0 .055.017.114.017.169 0l4.625-2.954c.091-.06.148-.16.152-.27-.007-.104-.063-.199-.152-.253l-1.772-1.114 1.789-1.283c.084-.057.135-.152.135-.253-.017-.1-.071-.191-.152-.254l-4.034-2.616 2.093-1.283 2.093 1.384c.102.069.235.069.337 0l4.626-2.954c.084-.056.135-.151.135-.253.015-.095-.01-.193-.068-.27zm-19.21 5.891l-3.882-2.566 3.883-2.565 4.05 2.532-4.05 2.6zm9.318 5.858l-3.882-2.566 3.882-2.566L149 57.814l-4.035 2.6zm5.064-8.88l-3.848-2.582 3.882-2.566 4.051 2.532-4.085 2.617z" transform="translate(106 174) translate(116.728 182.56)"></path></g><path fill="url(#prefix__c)" fill-rule="nonzero" d="M228.575 0.813L0.746 130.873 0.746 149.188 227.123 282.844 455.172 150.758 455.172 132.443z" transform="translate(106 174)"></path><path fill="#3BAB24" fill-rule="nonzero" d="M229.064 264.529L1.016 130.89 1.016 149.222 227.376 282.861 455.442 150.792 455.442 132.46z" transform="translate(106 174)"></path><path fill="url(#prefix__d)" fill-rule="nonzero" d="M455.442 132.41L228.845 0.796 1.016 130.84 229.064 264.496z" transform="translate(106 174)"></path><path stroke="#FFF" stroke-linecap="round" d="M173.276 56.028L173.276 56.028" transform="translate(106 174)"></path><path stroke="#FFF" stroke-dasharray="0" stroke-linecap="round" d="M179.218 59.387L348.912 154.809" transform="translate(106 174)"></path><path stroke="#FFF" stroke-linecap="round" d="M351.883 156.48L351.883 156.48M113.842 98.818L113.842 98.818" transform="translate(106 174)"></path><path stroke="#FFF" stroke-dasharray="0" stroke-linecap="round" d="M119.8 102.161L289.478 197.6" transform="translate(106 174)"></path><path stroke="#FFF" stroke-linecap="round" d="M292.449 199.271L292.449 199.271" transform="translate(106 174)"></path><path fill="#FFF" fill-rule="nonzero" d="M362.18 118.517l3.714-2.346c8.068-5.064 6.92-13.69-2.532-19.091-9.453-5.402-23.734-5.638-31.802-.524l-3.697 2.364c-2.598-.306-5.226.214-7.512 1.485l-4.642 2.937c-9.351 5.942-8.034 15.85 2.938 22.113 10.972 6.262 27.48 6.55 36.832.608l4.625-2.937c1.723-.825 2.6-2.772 2.076-4.609zm-2.515-5.908l-2.38 1.503-21.86-12.492 2.363-1.502c5.064-3.258 14.23-3.106 20.256.338 6.027 3.443 6.82 8.895 1.621 12.153zm-5.891 12.491c-8.541 5.419-23.632 5.166-33.76-.557-10.128-5.722-11.242-14.803-2.684-20.256l4.625-2.954c3.2-1.607 6.984-1.544 10.128.17l25.32 14.5c3.022 1.687 3.376 4.472.81 6.11l-4.44 2.987z" transform="translate(106 174)"></path><path fill="#FFF" fill-rule="nonzero" d="M337.94 112.44c-1.725-.674-3.642-.674-5.367 0-1.385.625-1.959 1.688-1.52 2.718l-4.827 2.465c-.411.164-.688.553-.71.996.076.463.38.857.811 1.046l1.688.929c.552.304 1.176.455 1.806.438.566.016 1.122-.15 1.587-.472l3.865-3.039c1.36.208 2.748-.042 3.95-.709.825-.4 1.266-1.316 1.064-2.21-.413-1.04-1.277-1.835-2.347-2.162z" transform="translate(106 174)"></path><path stroke="#FFF" stroke-linejoin="round" d="M302.222 64.957L255.212 37.274 217.215 58.711 265.069 86.884z" transform="translate(106 174)"></path><path stroke="#FFF" stroke-linecap="round" stroke-linejoin="round" d="M268.31 81.145L226.938 56.922M246.856 85.669L219.46 69.498" transform="translate(106 174)"></path><path fill="#FFF" fill-rule="nonzero" d="M274.218 69.802c-1.489-1.178-3.116-2.17-4.844-2.954-3.163 1.463-6.216 3.155-9.132 5.064 1.537 1.219 3.242 2.208 5.064 2.937 3.09-1.464 6.068-3.15 8.912-5.047zM255.718 54.44c-1.483-1.176-3.105-2.168-4.828-2.953-4.42 2.11-8.725 4.454-12.896 7.022 1.541 1.208 3.246 2.191 5.064 2.92 4.34-2.105 8.566-4.438 12.66-6.988zM277.966 58.998c-1.483-1.182-3.104-2.18-4.828-2.97-.439 0-20.408 11.123-20.408 11.478 1.541 1.208 3.246 2.191 5.064 2.92.574 0 20.172-11.09 20.172-11.428zM267.23 56.416c-1.489-1.183-3.115-2.18-4.844-2.971-.44 0-16.88 9.402-16.88 9.757 1.536 1.219 3.242 2.208 5.064 2.937.506-.051 16.66-9.453 16.66-9.723z" transform="translate(106 174)"></path><path stroke="#FFF" d="M245.759 75.524L237.994 80.25M236.171 69.886L228.406 74.612" transform="translate(106 174)"></path><path fill="#FFF" fill-rule="nonzero" d="M189.683 87.813L194.781 90.243 193.464 97.772 154.759 100.186 159.941 78.157 173.529 77.853 186.983 86.074 186.139 93.164 166.355 93.299 166.355 90.935 180.872 90.682 181.378 87.256 171.402 81.162 165.241 81.162 161.679 95.864 188.671 94.919zM203.846 111.563L202.394 112.694 197.583 109.419 192.435 112.694 190.612 111.478 195.76 108.474 191.169 105.773 192.907 104.878 197.229 107.596 202.445 104.507 203.964 105.621 199.187 108.592zM229.334 127.278c.777 0 1.402-.388 1.402-.844 0-.456-.625-.844-1.402-.844-.776 0-1.4.371-1.4.844s.624.844 1.4.844zM226.82 121.117c-1.786.213-3.509.787-5.065 1.688l5.166 1.688-.102-3.376zM220.118 124.155c-.55.595-.867 1.368-.895 2.178.003.427.101.848.287 1.232l5.351-1.232-4.743-2.178zM224.76 131.127l1.52-3.376-5.808 1.046c1.216 1.118 2.689 1.919 4.288 2.33zM234.736 121.91c-1.726-.627-3.548-.947-5.385-.945l.861 3.224 4.524-2.279zM236.711 122.89l-3.916 2.616s3.275.337 6.296.607c-.243-1.388-1.124-2.582-2.38-3.224zM229.166 128.544l-2.718 2.954c.904.151 1.818.225 2.735.22 1.4 0 2.794-.17 4.152-.507l-3.19-2.667h-.98z" transform="translate(106 174)"></path><path fill="#FFF" fill-rule="nonzero" d="M245.337 117.234c-1.418-.253-18.568-4.118-18.568-4.118l-17.454 6.363-2.11 11.209 13.588 8.102 19.682-.996 10.854-9.976-5.992-10.584zm-.844 10.77c-.389 0-.996-.439-.996-.439h-2.887c-.74 1.998-2.3 3.584-4.287 4.355.692.76 1.215 1.317 1.3 1.367.41.28.667.736.692 1.233 0 .573-.929.438-1.435.202-.332-.244-.556-.607-.625-1.013l-1.4-1.198c-1.838.594-3.758.89-5.69.878-1.367.005-2.732-.143-4.067-.44l-.692.76c.072.386.18.765.32 1.131.253.692-.81.625-1.181.743-.372.118-.81-.439-.878-.996-.068-.557.692-.557.692-.557l.625-1.367c-2.155-.53-4.077-1.75-5.47-3.478-2.076.372-3.865.693-4.253.726-1.064.135-1.317 0-1.435-.557-.118-.557 1.114-.624 1.367-.624.253 0 1.688-.355 3.646-.794-.21-.537-.313-1.11-.304-1.688.011-1.057.367-2.083 1.013-2.92l-3.916-1.688s-.506-.743.253-.928c.76-.186 2.667.81 2.667.81l2.076.675c2.052-1.592 4.52-2.56 7.107-2.785v-1.502s-.928-.135-.557-.878 2.11-.996 2.43-.439c.193.435.193.932 0 1.367.057.445.147.886.27 1.317h.237c2.607-.033 5.185.545 7.529 1.688l2.616-1.334c-.02-.38.263-.707.641-.742.676 0 1.857.506 1.79.928-.013.376-.265.702-.625.81-.304 0-1.165.135-1.165.135l-1.688 1.148c1.492.984 2.44 2.606 2.566 4.389 1.08.141 2.171.175 3.258.101.49-.287 1.435.473 1.688.844.253.372-.86.692-1.232.76z" transform="translate(106 174)"></path><path fill="#FFF" fill-rule="nonzero" d="M235.141 130.603c1.544-.526 2.845-1.593 3.663-3.004h-6.229l2.566 3.004zM292.736 145.863c1.362.529 2.65 1.232 3.832 2.093-1.139.97-2.392 1.798-3.731 2.464-1.323-.6-2.552-1.39-3.646-2.346 1.065-.91 2.26-1.655 3.545-2.211zM287.3 149.053c1.373.519 2.668 1.223 3.849 2.093-1.139.965-2.392 1.787-3.73 2.448-1.327-.594-2.557-1.385-3.647-2.346 1.06-.905 2.249-1.645 3.528-2.195zM281.882 145.863c1.368.529 2.661 1.232 3.849 2.093-1.139.97-2.392 1.798-3.73 2.464-1.324-.6-2.553-1.39-3.647-2.346 1.059-.91 2.248-1.655 3.528-2.211zM276.65 142.976c1.37.523 2.664 1.227 3.848 2.094-1.142.974-2.4 1.802-3.748 2.464-1.32-.604-2.549-1.394-3.646-2.346 1.065-.91 2.26-1.656 3.545-2.212zM271.298 146.116c1.366.522 2.655 1.226 3.832 2.093-1.138.97-2.391 1.798-3.73 2.465-1.328-.6-2.557-1.397-3.647-2.364 1.07-.898 2.264-1.637 3.545-2.194zM266.116 142.976c1.37.523 2.665 1.227 3.849 2.094-1.142.974-2.4 1.802-3.748 2.464-1.321-.604-2.549-1.394-3.646-2.346 1.065-.91 2.26-1.656 3.545-2.212zM276.65 149.357c1.37.522 2.664 1.226 3.848 2.093-1.145.957-2.403 1.768-3.748 2.414-1.32-.604-2.549-1.394-3.646-2.346 1.068-.892 2.263-1.62 3.545-2.161zM281.882 152.345c1.368.529 2.661 1.232 3.849 2.093-1.139.97-2.392 1.798-3.73 2.464-1.324-.6-2.553-1.39-3.647-2.346 1.059-.91 2.248-1.655 3.528-2.211zM286.997 155.4c1.37.522 2.665 1.226 3.848 2.093-1.141.975-2.4 1.803-3.747 2.465-1.321-.604-2.55-1.394-3.646-2.347 1.064-.91 2.26-1.655 3.545-2.21z" transform="translate(106 174)"></path><path fill="#FFF" fill-rule="nonzero" d="M291.807 163.486c-2.437-.851-4.812-1.872-7.106-3.056-2.617-1.502-26.924-15.647-26.924-15.647-1.19.67-2.32 1.444-3.376 2.312-1.2.808-2.227 1.846-3.021 3.055-.556 1.033-.763 2.217-.591 3.376.205 1.956 1.191 3.745 2.735 4.963 2.635 2.036 5.461 3.811 8.44 5.3 3.156 1.3 6.429 2.301 9.773 2.988 2.104.35 4.231.536 6.364.557h5.671c1.82-.09 3.632-.316 5.419-.675l3.697-1.063c1.191.913 2.534 1.61 3.966 2.059 1.846.358 3.732.46 5.605.304.692-.304 1.198-.44.877-.878-.864-1.063-1.924-1.951-3.122-2.616-.62-.27-1.265-.479-1.925-.625.637-.102 1.178-.522 1.435-1.114.337-1.173.423-2.404.253-3.612 0 0 0-.186-.624-.135-.958-.1-1.924.076-2.785.506-1.184.519-2.27 1.238-3.208 2.127-.742.878-1.553 1.874-1.553 1.874zM93.805 149.408c.115.294.386.499.7.53.314.033.62-.113.793-.378.172-.265.182-.604.026-.878-1.546-2.67-4.33-4.382-7.41-4.558-4.423-.59-8.862.726-11.057 3.275-.872.798-1.386 1.915-1.424 3.097-.038 1.182.402 2.33 1.222 3.182 1.926 1.57 4.277 2.528 6.752 2.752h.658c.404-.008.748-.296.827-.692.082-.457-.22-.894-.675-.98l-.506-.084c-2.101-.156-4.115-.906-5.807-2.16-.529-.55-.802-1.296-.754-2.056.048-.761.414-1.467 1.007-1.945 1.823-2.11 5.74-3.224 9.554-2.718 2.507.114 4.792 1.468 6.094 3.613zM114.567 158.928c-.11-.195-.293-.338-.51-.395-.216-.057-.446-.024-.637.091l-10.787 6.229 1.688-10.989c.04-.319-.103-.633-.371-.81-.273-.175-.622-.175-.895 0l-12.474 7.258c-.401.241-.536.759-.304 1.165.241.4.758.536 1.165.304l10.955-6.398-1.688 10.99c-.051.32.087.642.354.826.144.085.306.132.473.135.15.005.297-.036.422-.118l12.306-7.09c.202-.116.348-.309.405-.534.057-.226.02-.466-.102-.664zM123.919 164.566l-12.964 7.731c-.301.13-.5.423-.509.752-.009.328.174.631.467.778.294.146.646.11.903-.095l12.964-7.714c.265-.151.428-.434.426-.739-.002-.305-.168-.585-.435-.733-.267-.148-.593-.14-.852.02zM152.936 144.63l-4.963-14.854c-.072-.241-.289-.41-.54-.422l-25.641-2.498c-.084-.017-.17-.017-.253 0h-.169l-11.023 6.904c-.101.081-.182.185-.236.304-.01.056-.01.113 0 .169-.008.067-.008.135 0 .202l5.064 15.192c.078.24.29.412.54.439l25.624 2.144c.187 0 .365-.08.49-.22.122-.164.165-.374.118-.574l-1.89-7.005 12.27.878c.212.01.414-.085.541-.253.068-.124.091-.267.068-.405zm-6.027-14.06l2.516 7.562-3.866-.152-.32-.98c.024-.099.024-.203 0-.303l-1.689-4.81-.54-1.604 3.9.287zm-1.806 10.128l-9.621-.456-.355-1.384 9.487.337.49 1.503zm-.894-2.786l-9.892-.354c-.195.004-.378.09-.506.236-.133.153-.177.364-.119.557l.456 1.823-3.224-.152-2.498-8.237 14.095.827 1.688 5.3zm-9.352 5.064l-8.22-.59-.372-1.266 8.22.371.372 1.485zm6.752-12.879l.422 1.25-14.044-.828-.523-1.688 14.145 1.266zm-12.086 9.909l-3.68-.186-2.363-8.322 3.612.22 2.431 8.288zm-3.376-11.378l.557 1.807-3.595-.203-.574-1.941 3.612.337zm-4.845 0l1.688 5.773-10.263-.388 8.575-5.385zm19.16 22.535l-24.308-2.042-4.625-13.876 11.816.44 2.211 7.561c.066.258.292.442.557.456l12.576.895 1.772 6.566zm-4.271-8l-.389-1.52 10.128.473c.202 0 .391-.098.509-.262.117-.164.148-.375.082-.566l-.607-1.924 3.899.152 1.57 4.726-15.192-1.08zM181.648 204.673c.076.148.208.26.366.31.159.051.33.037.478-.04.152-.073.267-.203.321-.362.054-.159.042-.332-.034-.482-1.548-2.467-4.198-4.028-7.106-4.186-4.389-.591-8.811.607-10.989 3.004-.84.702-1.345 1.727-1.387 2.821-.041 1.094.383 2.155 1.168 2.918 2.483 1.825 5.512 2.753 8.592 2.634.168.004.331-.06.452-.177.12-.118.19-.28.189-.448 0-.354-.287-.641-.641-.641-2.747.13-5.458-.666-7.698-2.262-.545-.537-.831-1.282-.786-2.046.045-.763.418-1.47 1.023-1.938 1.907-2.076 5.975-3.156 9.908-2.6 2.493.103 4.782 1.405 6.144 3.495zM209.028 218.261l-12.964 7.731c-.292.182-.389.562-.22.861.112.194.317.315.54.32.12.001.238-.034.338-.1l12.964-7.715c.288-.193.382-.572.22-.877-.188-.295-.574-.391-.878-.22zM193.684 217.535c-.406-.776-.911-1.497-1.502-2.143-2.769-2.195-3.511-3.697-3.292-4.355.22-.659.793-.71 1.688-.76 3.463-.022 6.654 1.876 8.288 4.929.135.322.506.473.827.338.322-.136.473-.506.338-.828-1.688-4.085-6.65-5.79-9.504-5.705-1.553 0-2.582.641-2.903 1.688-.49 1.452.76 3.376 3.697 5.74.432.522.811 1.088 1.13 1.687.194.788-.074 1.618-.691 2.144-1.148.81-3.73.456-6.263-.861-2.532-1.317-4.237-3.14-4.237-4.558 0-.168-.068-.33-.189-.447-.12-.118-.284-.182-.452-.177-.345 0-.625.28-.625.624 0 2.33 2.55 4.457 4.912 5.689 1.562.847 3.291 1.337 5.064 1.435.859.032 1.706-.198 2.431-.659 1.051-.82 1.52-2.183 1.199-3.477.056-.09.086-.196.084-.304zM234.888 190.41c4.17 3.139 10.347-1.216 6.533-6.753-2.154-2.327-4.818-4.124-7.782-5.25-7.58-3.072-22.873-1.114-22.636 8.863 0 0-.743.675-.996.185-6.752-6.752-24.172-5.89-28.544 3.376-1.688 7.512 9.166 12.44 15.09 9.79 2.988-3.747-5.063-3.173-6.414-5.485-4.389-7.191 6.988-9.369 11.715-6.752 5.52 4.169-.439 9.047-.996 10.415-6.077 14.82 20.256 18.568 29.22 14.651-.693.49-5.267-2.835-5.301-3.612-6.026 1.688-21.944-2.566-15.192-10.972 1.975-2.498 4.186-4.49 3.916-7.241 4.406 5.502 17.555 1.991 18.77 10.668.456-.557 7.597.472 7.85 1.3 2.498-12.947-16.88-9.352-21.37-16.323.253-6.904 12.288-6.33 15.394-1.992.946 1.586-1.502 4.388.743 5.131z" transform="translate(106 174)"></path><path fill="#FFF" fill-rule="nonzero" d="M233.369 205.213c-2.785 0-5.064 1.266-5.064 2.836 0 1.57 2.262 2.853 5.064 2.853s5.064-1.266 5.064-2.853c0-1.587-2.296-2.836-5.064-2.836z" transform="translate(106 174)"></path></g></g></svg> 