<?xml version="1.0" encoding="UTF-8"?> <svg xmlns="http://www.w3.org/2000/svg" xmlns:xlink="http://www.w3.org/1999/xlink" width="414" height="172" viewBox="0 0 414 172"><defs><radialGradient id="prefix__b" cx="50%" cy="0%" r="100%" fx="50%" fy="0%" gradientTransform="matrix(0 1 -.38636 0 .5 -.5)"><stop offset="0%" stop-color="#32C5FF"></stop><stop offset="100%" stop-color="#32C5FF" stop-opacity="0"></stop></radialGradient><linearGradient id="prefix__e" x1="50%" x2="50%" y1="122.451%" y2="5.48%"><stop offset="0%" stop-color="#00814B"></stop><stop offset="100%" stop-color="#8FDF00"></stop></linearGradient><filter id="prefix__d" width="109.4%" height="109.4%" x="-4.7%" y="-4.7%"><feOffset dy="2" in="SourceAlpha" result="shadowOffsetOuter1"></feOffset><feGaussianBlur in="shadowOffsetOuter1" result="shadowBlurOuter1" stdDeviation="1"></feGaussianBlur><feColorMatrix in="shadowBlurOuter1" result="shadowMatrixOuter1" values="0 0 0 0 0 0 0 0 0 0 0 0 0 0 0 0 0 0 0.5 0"></feColorMatrix><feMerge><feMergeNode in="shadowMatrixOuter1"></feMergeNode><feMergeNode in="SourceGraphic"></feMergeNode></feMerge></filter><path id="prefix__a" d="M0 0H494.802V233.442H0z"></path></defs><g fill="none" fill-rule="evenodd"><g opacity=".71" style="mix-blend-mode:multiply" transform="translate(-41 -85)"><mask id="prefix__c" fill="#fff"><use xlink:href="#prefix__a"></use></mask><path fill="url(#prefix__b)" opacity=".716" style="mix-blend-mode:multiply" d="M0 118.206H496.584V310.068H0z" mask="url(#prefix__c)" transform="matrix(1 0 0 -1 0 428.274)"></path></g><g filter="url(#prefix__d)" transform="translate(-41 -85) translate(160 85)"><path fill="#3BAB24" fill-rule="nonzero" d="M0.039 163.192L6.231 169.384 163.106 163.192 169.306 6.317 163.106 0.117 0.039 0.117z"></path><path fill="url(#prefix__e)" fill-rule="nonzero" d="M6.215 6.059H169.29V169.134H6.215z"></path><path fill="#FFF" fill-rule="nonzero" d="M76.422 21.733H47c-.668 0-1.21.542-1.21 1.21v22.286c0 .668.542 1.21 1.21 1.21h11.096v3.898h-4.788c-.28 0-.507.227-.507.507s.227.507.507.507h16.813c.181 0 .349-.097.44-.254.09-.156.09-.35 0-.506-.091-.157-.259-.254-.44-.254h-4.796v-3.899h11.097c.321.002.63-.125.857-.352.227-.227.354-.535.352-.857V22.942c.002-.321-.125-.63-.352-.857-.227-.227-.536-.354-.857-.352zm-12.11 28.604h-5.194v-3.899h5.193v3.9zm12.305-5.108c0 .108-.087.195-.195.195H47c-.055.005-.109-.014-.149-.051-.04-.037-.062-.09-.062-.144V22.942c0-.104.083-.19.187-.195h29.446c.108 0 .195.088.195.195V45.23z"></path><path fill="#FFF" fill-rule="nonzero" d="M75.026 41.33H48.403c-.28 0-.507.227-.507.507s.227.507.507.507h26.623c.28 0 .507-.227.507-.507s-.227-.507-.507-.507zM53.246 39.607h2.706c.282-.004.51-.232.515-.515v-7.37c-.005-.28-.234-.506-.515-.506h-2.706c-.135 0-.263.053-.359.149-.095.095-.148.224-.148.358v7.37c0 .28.226.51.507.514zM57.987 39.607h2.714c.281-.004.507-.234.507-.515v-9.77c0-.28-.227-.508-.507-.508h-2.714c-.28 0-.507.227-.507.507v9.771c0 .281.226.51.507.515zM62.728 39.607h2.714c.281-.004.507-.234.507-.515v-12.04c0-.281-.226-.51-.507-.515h-2.714c-.28.004-.506.234-.506.515v12.04c0 .281.225.51.506.515zM67.47 39.607h2.713c.282-.004.507-.234.507-.515v-5.03c.007-.138-.044-.273-.14-.373-.095-.1-.228-.157-.367-.157H67.47c-.28 0-.507.227-.507.507v5.03c-.007.139.044.275.14.376.095.102.227.16.367.162zM123.624 33.205v-2.558c-.438-5.254-4.83-9.295-10.102-9.295s-9.664 4.04-10.103 9.295v2.558c-1.012.802-1.603 2.022-1.606 3.314v3.205c0 6.46 5.237 11.697 11.697 11.697 6.46 0 11.697-5.237 11.697-11.697v-3.205c.003-1.288-.58-2.507-1.583-3.314zm-3.665-2.558v1.637h-12.875v-1.637c.121-3.468 2.968-6.217 6.438-6.217 3.47 0 6.316 2.749 6.437 6.217zm4.266 9.077c-.157 5.798-4.902 10.418-10.703 10.418-5.8 0-10.547-4.62-10.703-10.418v-3.205c0-1.788 1.449-3.236 3.236-3.236h14.934c1.787 0 3.236 1.448 3.236 3.236v3.205z"></path><path fill="#FFF" fill-rule="nonzero" d="M113.144 37.65c-.867.167-1.54.853-1.693 1.723-.135.79.196 1.588.85 2.05l-.288 3.003c-.027.286.07.57.265.78.198.222.483.347.78.343h.959c.297.004.582-.121.78-.343.195-.21.292-.494.265-.78l-.289-3.002c.555-.388.884-1.023.882-1.7-.007-.628-.293-1.22-.78-1.614-.482-.4-1.115-.57-1.731-.46zM69.006 86.396L65.083 86.419 65.06 82.349 63.734 82.356 63.758 86.427 59.859 86.45 59.867 87.768 63.766 87.745 63.797 91.8 65.115 91.792 65.091 87.737 69.014 87.714zM130.962 74.519H134.32299999999998V77.88000000000001H130.962zM130.962 78.746H134.32299999999998V82.107H130.962zM130.962 82.972H134.32299999999998V86.333H130.962zM126.876 78.746H130.237V82.107H126.876zM126.876 82.972H130.237V86.333H126.876zM122.79 78.746H126.15100000000001V82.107H122.79zM122.79 82.972H126.15100000000001V86.333H122.79zM118.758 82.972H122.119V86.333H118.758zM135.049 82.972H138.41V86.333H135.049z"></path><path fill="#FFF" fill-rule="nonzero" d="M145.046 84.392s.093-2.207-2.503-3.704c-1.358 1.59-1.495 3.89-.336 5.63 0 0-1.154 1.1-4.64 1.1h-20.665s-1.442 10.917 10.918 10.917c12.797 0 16.547-10.52 16.547-10.52s4.032.187 4.944-2.792c-1.598-1.497-4.265-.631-4.265-.631zM89.999 84.275c.077.056.17.086.265.086.24 0 .436-.19.444-.43l.148-2.659c-.181.016-.361.048-.538.094-.95.21-1.823.683-2.518 1.365l2.183 1.56.016-.016zM88.837 86.287c.09-.025.172-.077.234-.148.147-.188.123-.458-.055-.617l-1.988-1.778c-.62.985-.895 2.149-.78 3.307l2.558-.78.03.016zM92.3 83.924c-.001.096.032.19.093.265.152.185.422.22.616.078l2.168-1.56c-.828-.804-1.896-1.316-3.042-1.458l.148 2.651.016.024zM89.679 88.174c-.047-.2-.224-.341-.429-.343-.028-.008-.058-.008-.086 0l-2.62.444c.395 1.087 1.138 2.014 2.113 2.636l1.014-2.449c.034-.092.036-.194.008-.288zM90.771 87.074L91.504 87.425 92.237 87.074 92.424 86.279 91.917 85.647 91.098 85.647 90.591 86.279z"></path><path fill="#FFF" fill-rule="nonzero" d="M101.563 79.541c-.112-.479-.436-.88-.88-1.091l-8.477-4.048c-.243-.118-.511-.172-.78-.156-.216.012-.428.065-.624.156l-8.477 4.055c-.445.204-.768.606-.873 1.084l-2.09 9.1c-.098.424-.019.869.218 1.233l.094.125 5.864 7.29c.31.385.777.608 1.271.61h9.405c.491-.002.956-.225 1.263-.61l5.864-7.29c.314-.38.43-.886.312-1.365l-2.09-9.093zm-1.13 8.984c-.08.282-.372.449-.655.374h-.133c-.156-.052-.31-.111-.46-.18-.285-.113-.58-.199-.881-.257-.104-.006-.206.03-.281.102l-.218-.04c-.489 1.546-1.53 2.856-2.925 3.682.022.07.05.138.086.202-.041.097-.041.207 0 .304.125.273.274.534.445.78.101.128.192.263.272.406l.07.132c.113.168.116.386.01.557-.107.172-.304.265-.504.24-.2-.027-.366-.167-.426-.36l-.062-.133c-.07-.163-.093-.304-.148-.46-.088-.295-.203-.582-.343-.857-.066-.083-.16-.139-.265-.156l-.102-.195c-.284.108-.576.196-.873.265-1.271.286-2.598.188-3.813-.281l-.11.21c-.082.013-.159.05-.218.11-.178.282-.312.59-.398.912-.036.157-.085.311-.148.46-.017.046-.038.09-.062.133-.07.175-.232.297-.42.316-.189.019-.372-.069-.475-.227-.104-.158-.11-.361-.018-.526l.063-.132c.083-.141.174-.276.273-.406.179-.26.333-.537.46-.827.011-.098-.005-.198-.047-.288l.094-.218c-1.388-.82-2.428-2.118-2.925-3.65h-.226c-.084-.06-.184-.096-.288-.101-.303.057-.598.146-.882.265-.156.054-.28.125-.46.171h-.132c-.183.063-.387.016-.523-.121-.137-.137-.184-.34-.12-.523.062-.184.224-.315.417-.338h.132c.18 0 .32 0 .492-.04.305-.022.608-.072.904-.147.086 0 .164-.149.218-.219l.211-.062c-.226-1.601.143-3.23 1.037-4.578l-.164-.148c-.003-.104-.039-.205-.101-.288-.242-.202-.503-.38-.78-.53-.146-.073-.287-.157-.42-.25l-.11-.078c-.123-.085-.206-.216-.23-.363-.023-.148.015-.298.105-.417.098-.122.25-.189.406-.18.128.006.251.052.35.133l.118.094c.117.11.23.228.335.35.203.23.43.436.678.617.097.04.207.04.304 0l.18.132c.89-.95 2.044-1.61 3.314-1.895.303-.069.61-.116.92-.14v-.218c.081-.067.141-.157.172-.258.008-.308-.013-.616-.063-.92-.031-.16-.055-.321-.07-.483v-.133c-.024-.197.067-.391.236-.498.168-.106.382-.106.55 0 .169.107.26.3.236.498v.148c-.015.162-.039.324-.07.484-.05.304-.07.612-.063.92.023.102.084.192.172.25v.226c1.603.147 3.099.87 4.21 2.035l.196-.14c.098.033.205.033.304 0 .248-.183.478-.39.686-.616.106-.126.218-.245.335-.36l.11-.085c.107-.101.252-.153.4-.144.147.009.284.078.38.19.094.118.135.27.111.419-.024.148-.11.28-.236.362l-.11.085c-.134.094-.274.177-.42.25-.277.151-.538.329-.78.53-.067.078-.101.179-.094.28-.057.059-.116.114-.18.165.9 1.342 1.277 2.968 1.061 4.57l.203.054c.039.055.11.18.218.218.298.084.604.136.913.156.162-.002.323.011.483.04h.148c.287.062.471.343.414.631v.008z"></path><path fill="#FFF" fill-rule="nonzero" d="M95.98 83.729L94 85.499c-.073.06-.123.142-.141.234-.056.234.081.47.312.538l2.565.74c.054-.568.015-1.143-.117-1.7-.124-.558-.34-1.093-.64-1.582zM91.901 89.133c-.045-.083-.116-.149-.202-.187-.066-.031-.138-.047-.21-.047-.16.01-.302.101-.375.242l-1.287 2.34c.922.315 1.913.366 2.862.147.172-.036.343-.083.515-.14l-1.295-2.34-.008-.015zM93.82 87.823h-.102c-.06.003-.118.02-.171.047-.216.102-.313.357-.219.577l1.03 2.472c.98-.624 1.724-1.557 2.113-2.652l-2.643-.452-.008.008zM42.664 76.196L47.265 81.772 38.445 92.393 29.633 81.779 31.473 79.557 39.599 79.557 41.276 81.647 36.207 87.737 38.375 90.35 45.713 81.545 41.221 76.196 29.922 76.196 25.289 81.779 38.445 97.61 51.6 81.779 46.968 76.196z"></path><path stroke="#FFF" stroke-dasharray="0" stroke-linecap="round" stroke-width="1.25" d="M22.872 63.719L151.76 63.719M22.872 109.322L151.76 109.322"></path><path fill="#FFF" fill-rule="nonzero" d="M51.343 146.683c.625-.346 1.329-.523 2.043-.514 1.049-.03 2.063.376 2.8 1.123l.631-.632c-.418-.455-.936-.807-1.512-1.03-.622-.238-1.284-.357-1.95-.35-.887-.015-1.763.2-2.542.624-.742.397-1.358.994-1.778 1.723-.863 1.532-.863 3.404 0 4.936.421.726 1.033 1.322 1.77 1.724 1.39.73 3.026.826 4.492.265.593-.22 1.127-.576 1.56-1.037l-.632-.632c-.731.757-1.748 1.17-2.8 1.139-.714.009-1.418-.169-2.043-.515-.618-.331-1.13-.832-1.474-1.443-.697-1.242-.697-2.758 0-4 .343-.583.84-1.06 1.435-1.38zM67.236 153.047L61.138 145.358 60.311 145.358 60.311 154.833 61.309 154.833 61.309 147.144 67.4 154.833 68.226 154.833 68.226 145.358 67.236 145.358zM73.747 145.358H74.747V154.82500000000002H73.747zM72.866 125.106c-.001-.122-.059-.238-.156-.312l-10.02-7.478c-.138-.098-.323-.098-.46 0l-10.138 7.416c-.102.07-.163.187-.164.312v7.252c.002.126.062.244.164.32l10.09 7.4c.067.045.146.07.227.07.08.002.16-.023.226-.07l10.09-7.244c.103-.072.164-.188.164-.312.002-.122-.052-.237-.148-.312l-4.445-3.377 4.437-3.345c.094-.079.144-.198.133-.32zm-10.41-7.018l5.38 4.016-1.396 1.107-5.458-4.04 1.474-1.083zm-.437 11.479l-1.271.982-5.638-4.008 1.364-1.03 5.545 4.056zm-5.092-4.406l5.497-4.157 3.502 2.597-3.9 3.033 1.896 1.45-1.474 1.14-5.521-4.063zm7.494 3.29l1.45 1.116-3.19 2.401-1.465-1.045 3.205-2.472zm0-.733L63 126.627l3.416-2.667 1.466 1.084-3.462 2.674zm-3.97-8.172l1.482 1.1-5.466 4.125-1.56-1.162 5.544-4.063zm-6.074 4.445l1.606 1.17-1.396 1.045-1.645-1.17 1.435-1.045zm-1.693 1.793l4.04 2.87-4.04 2.87v-5.74zm19.137 6.652l-9.436 6.769-9.428-6.91 4.43-3.118 5.1 3.626c.066.046.145.07.226.07.084-.003.165-.03.234-.078l4.679-3.517 4.195 3.158zm-5.459-3.244l-1.458-1.115 3.954-3.049-1.965-1.45 1.403-1.092 3.502 2.612-5.436 4.094zM100.924 147.845c.592-.326 1.258-.492 1.934-.483.968-.038 1.91.323 2.604.998l.382-.398c-.364-.39-.816-.69-1.317-.873-1.28-.462-2.693-.369-3.9.257-.652.367-1.192.907-1.56 1.56-.758 1.368-.758 3.03 0 4.398.368.653.908 1.193 1.56 1.56.687.373 1.457.564 2.239.553.578.006 1.152-.097 1.692-.304.502-.186.954-.488 1.318-.88l-.382-.399c-.693.68-1.635 1.047-2.605 1.014-.676.01-1.342-.157-1.934-.483-.568-.312-1.04-.773-1.365-1.334-.66-1.182-.66-2.623 0-3.805.31-.574.771-1.051 1.334-1.38zM115 151.284c-.489-.174-.986-.322-1.49-.444-.446-.105-.886-.235-1.318-.39-.295-.112-.561-.287-.78-.515-.227-.248-.345-.576-.327-.912-.01-.48.218-.935.608-1.217.524-.35 1.15-.518 1.778-.475.407.002.812.065 1.201.187.398.114.775.293 1.115.53l.234-.499c-.361-.244-.759-.431-1.177-.554-.445-.137-.908-.205-1.373-.202-.573-.017-1.144.084-1.677.296-.4.159-.747.43-.998.78-.217.337-.33.73-.327 1.13-.022.441.12.875.398 1.217.258.297.584.527.95.67.488.179.985.327 1.49.445.444.1.88.226 1.31.375.294.117.56.295.78.522.227.245.345.571.328.905.003.477-.227.925-.616 1.2-.549.34-1.19.498-1.833.453-.534.002-1.063-.099-1.56-.297-.455-.168-.867-.434-1.208-.78l-.273.46c.367.374.815.657 1.31.827.566.213 1.166.322 1.77.32.58.017 1.155-.087 1.692-.304.41-.153.766-.424 1.022-.78.22-.336.336-.73.335-1.13.023-.432-.12-.856-.397-1.186-.268-.285-.6-.501-.967-.632zM120.482 146.847H121.482V155.30800000000002H120.482zM120.677 137.006c-.771 1.86-2.48 3.163-4.477 3.416-2.043.171-3.899-1.006-5.146-3.229-.246-.527-.437-1.079-.57-1.645-.405-1.42-.889-3.12-2.23-4.242 1.796.213 3.617-.079 5.256-.843.53-.195 1.03-.382 1.56-.538l.132-.047c1.264-.46 3.213.624 4.25 1.74.715-1.173 1.988-1.89 3.361-1.896h.133c-1.607-2.214-5.459-4.788-9.015-3.54-.655.195-1.263.421-1.793.616-1.459.554-2.418.913-3.845.523-.758-.228-1.371-.788-1.669-1.521-.41-.894-.41-1.922 0-2.815.383-.953 1.313-1.573 2.34-1.56 1.56-.027 3.029.74 3.899 2.036.538.934 1.732 1.255 2.667.717.934-.538 1.256-1.732.717-2.667-1.603-2.563-4.448-4.081-7.47-3.985-2.453.065-4.65 1.533-5.646 3.774-.922 1.931-.937 4.172-.04 6.114.39.873.958 1.654 1.67 2.293-.993-.148-2.005-.084-2.972.187-2.203.633-4 2.23-4.889 4.344-1.348 2.436-.852 5.48 1.2 7.361 2.075 2.121 5.694 3.408 8.579 1.77.939-.53 1.27-1.72.74-2.659-.529-.939-1.72-1.27-2.658-.74-.983.553-2.761.054-3.9-1.092-.732-.824-.991-1.967-.686-3.026.463-1.127 1.452-1.953 2.644-2.207.887-.254 1.841-.093 2.597.437l.241.156c.46.241.78 1.419 1.069 2.34.205.854.506 1.683.896 2.471 1.84 3.33 4.859 5.256 8.18 5.256h.71c3.65-.296 6.77-2.87 8.134-6.706.053-.156.085-.32.093-.484-.587.342-1.254.525-1.933.53-.757-.002-1.497-.224-2.13-.639z"></path><path fill="#FFF" fill-rule="nonzero" d="M120.435 133.676c0 1.292 1.047 2.34 2.34 2.34 1.291 0 2.339-1.048 2.339-2.34 0-1.292-1.048-2.34-2.34-2.34-1.292 0-2.34 1.048-2.34 2.34z"></path></g></g></svg> 