<?xml version="1.0" encoding="UTF-8"?> <svg xmlns="http://www.w3.org/2000/svg" width="381" height="323" viewBox="0 0 381 323"><defs><radialGradient id="prefix__a" cx="50%" cy="0%" r="38.289%" fx="50%" fy="0%" gradientTransform="matrix(0 1 -1.34032 0 .5 -.5)"><stop offset="0%" stop-color="#32C5FF"></stop><stop offset="100%" stop-color="#32C5FF" stop-opacity="0"></stop></radialGradient><linearGradient id="prefix__c" x1="50%" x2="50%" y1="122.456%" y2="5.48%"><stop offset="0%" stop-color="#005A7F"></stop><stop offset="100%" stop-color="#009ECE"></stop></linearGradient><filter id="prefix__b" width="109.3%" height="109.3%" x="-4.7%" y="-4.7%"><feOffset dy="2" in="SourceAlpha" result="shadowOffsetOuter1"></feOffset><feGaussianBlur in="shadowOffsetOuter1" result="shadowBlurOuter1" stdDeviation="1.5"></feGaussianBlur><feColorMatrix in="shadowBlurOuter1" result="shadowMatrixOuter1" values="0 0 0 0 0 0 0 0 0 0 0 0 0 0 0 0 0 0 0.5 0"></feColorMatrix><feMerge><feMergeNode in="shadowMatrixOuter1"></feMergeNode><feMergeNode in="SourceGraphic"></feMergeNode></feMerge></filter></defs><g fill="none" fill-rule="evenodd"><g opacity=".71"><path opacity=".716" style="mix-blend-mode:multiply" fill="url(#prefix__a)" d="M0.901 0.281H320.25600000000003V276.281H0.901z" transform="translate(26 -45) matrix(1 0 0 -1 0 276.563)"></path></g><g><g fill="#024F71" fill-rule="nonzero"><path d="M1.228 144.432c3.526.028 6.423 2.658 6.881 6.053l.065.002c.553.004.997.455.992 1.008-.004.512-.393.932-.89.986l-.117.006-.065-.002c-.512 3.39-3.45 5.974-6.977 5.946-3.866-.03-6.975-3.19-6.944-7.055.03-3.866 3.19-6.975 7.055-6.944zm90.944 6.72l1 .007c.552.004.996.456.992 1.008-.004.513-.394.932-.891.986l-.117.006-1-.008c-.552-.004-.997-.455-.992-1.008.004-.552.455-.996 1.008-.992zm-5-.04l1 .008c.552.004.996.455.992 1.007-.004.513-.394.933-.891.987l-.117.005-1-.007c-.552-.005-.996-.456-.992-1.008.004-.553.456-.997 1.008-.992zm-5-.04l1 .008c.552.004.996.456.992 1.008-.004.513-.393.932-.891.986l-.117.006-1-.008c-.552-.004-.996-.456-.992-1.008.005-.552.456-.996 1.008-.992zm-5-.04l1 .008c.552.005.997.456.992 1.008-.004.513-.393.933-.891.987l-.117.005-1-.008c-.552-.004-.996-.455-.992-1.007.005-.553.456-.997 1.008-.992zm-5-.039l1 .008c.553.004.997.456.992 1.008-.004.513-.393.932-.89.986l-.117.006-1-.008c-.553-.004-.997-.456-.993-1.008.005-.552.456-.996 1.008-.992zm-5-.04l1 .008c.553.005.997.456.993 1.008-.005.513-.394.933-.892.986l-.116.006-1-.008c-.553-.004-.997-.455-.992-1.007.004-.553.455-.997 1.008-.993zm-5-.04l1 .009c.553.004.997.455.993 1.008-.004.513-.394.932-.892.986l-.116.006-1-.008c-.552-.005-.997-.456-.992-1.008.004-.552.455-.996 1.008-.992zm-5-.039l1 .008c.553.005.997.456.993 1.008-.004.513-.394.933-.891.986l-.117.006-1-.008c-.552-.004-.996-.455-.992-1.008.004-.552.456-.996 1.008-.992zm-4.999-.04l1 .009c.552.004.996.455.992 1.008-.004.512-.393.932-.891.986l-.117.006-1-.008c-.552-.005-.996-.456-.992-1.008.004-.552.456-.997 1.008-.992zm-5-.039l1 .008c.552.005.997.456.992 1.008-.004.513-.393.932-.891.986l-.117.006-1-.008c-.552-.004-.996-.455-.992-1.008.005-.552.456-.996 1.008-.992zm-5-.04l1 .009c.553.004.997.455.992 1.007-.004.513-.393.933-.89.987l-.118.006-1-.008c-.552-.005-.996-.456-.992-1.008.005-.552.456-.997 1.008-.992zm-5-.039l1 .008c.553.004.997.456.992 1.008-.004.513-.393.932-.89.986l-.117.006-1-.008c-.553-.004-.997-.456-.992-1.008.004-.552.455-.996 1.007-.992zm-5-.04l1 .009c.553.004.997.455.993 1.007-.004.513-.394.933-.892.987l-.116.005-1-.007c-.552-.005-.997-.456-.992-1.008.004-.553.455-.997 1.008-.992zm-5-.039l1 .008c.553.004.997.456.993 1.008-.004.513-.394.932-.891.986l-.117.006-1-.008c-.552-.004-.996-.456-.992-1.008.004-.552.455-.996 1.008-.992zm-5-.04l1 .008c.553.005.997.456.993 1.008-.004.513-.393.933-.891.987l-.117.005-1-.008c-.552-.004-.996-.455-.992-1.007.004-.553.456-.997 1.008-.992zm-4.999-.039l1 .008c.552.004.996.455.992 1.008-.004.513-.393.932-.891.986l-.117.006-1-.008c-.552-.004-.996-.456-.992-1.008.005-.552.456-.996 1.008-.992zm-5-.04l1 .008c.552.005.997.456.992 1.008-.004.513-.393.933-.89.986l-.118.006-1-.008c-.552-.004-.996-.455-.992-1.008.005-.552.456-.996 1.008-.992zM90.106 319.95l1 .004c.552.002.998.452.996 1.004-.002.513-.39.934-.887.99l-.117.006-1-.004c-.552-.002-.998-.451-.996-1.004.002-.552.452-.998 1.004-.996zm-5-.019l1 .004c.552.002.998.451.996 1.004-.002.513-.39.934-.887.99l-.117.006-1-.004c-.552-.002-.998-.451-.996-1.004.002-.552.452-.998 1.004-.996zm-5-.02l1 .005c.552.002.998.451.996 1.004-.002.512-.39.934-.887.99l-.117.006-1-.004c-.552-.002-.998-.452-.996-1.004.002-.552.452-.998 1.004-.996zm-5-.018l1 .004c.552.002.998.451.996 1.003-.002.513-.39.934-.887.99l-.117.007-1-.004c-.552-.002-.998-.452-.996-1.004.002-.552.452-.998 1.004-.996zm-2.686-2.583l.07.093.559.83c.308.458.186 1.08-.272 1.388-.426.286-.992.202-1.317-.179l-.071-.093-.558-.83c-.308-.458-.187-1.08.272-1.388.425-.286.992-.201 1.317.18zm-2.79-4.149l.07.093.559.83c.308.458.186 1.08-.272 1.388-.426.286-.992.201-1.317-.18l-.071-.092-.558-.83c-.308-.458-.186-1.08.272-1.388.425-.286.992-.201 1.317.179zm-2.79-4.15l.07.094.559.83c.308.458.186 1.08-.272 1.387-.426.287-.992.202-1.317-.178l-.07-.093-.559-.83c-.308-.459-.186-1.08.272-1.388.426-.286.992-.202 1.317.179zm-2.79-4.149l.07.093.559.83c.308.459.186 1.08-.272 1.388-.426.286-.992.202-1.317-.179l-.07-.093-.559-.83c-.308-.458-.186-1.08.272-1.387.426-.287.992-.202 1.317.178zm-2.79-4.149l.071.093.558.83c.308.458.186 1.08-.272 1.388-.425.286-.992.202-1.317-.179l-.07-.093-.559-.83c-.308-.458-.186-1.08.272-1.388.426-.286.992-.201 1.317.18zm-2.79-4.15l.071.094.558.83c.308.458.187 1.08-.272 1.388-.425.286-.992.201-1.317-.18l-.07-.092-.559-.83c-.308-.458-.186-1.08.272-1.388.426-.286.992-.202 1.317.179zm-2.79-4.148l.071.093.558.83c.308.458.187 1.08-.272 1.387-.425.287-.991.202-1.317-.178l-.07-.094-.558-.83c-.309-.458-.187-1.079.271-1.387.426-.286.992-.202 1.318.179zm-2.79-4.15l.071.093.558.83c.308.459.187 1.08-.272 1.388-.425.286-.991.202-1.317-.179l-.07-.093-.558-.83c-.309-.458-.187-1.08.271-1.387.426-.287.992-.202 1.318.178zm-2.79-4.149l.071.093.558.83c.309.458.187 1.08-.271 1.388-.426.286-.992.201-1.318-.179l-.07-.093-.558-.83c-.308-.458-.187-1.08.272-1.388.425-.286.991-.201 1.317.18zm-2.79-4.15l.071.094.558.83c.309.458.187 1.08-.271 1.388-.426.286-.992.201-1.318-.18l-.07-.092-.558-.83c-.308-.458-.187-1.08.272-1.388.425-.286.991-.202 1.317.179zm-2.79-4.148l.072.093.558.83c.308.458.186 1.08-.272 1.387-.426.286-.992.202-1.317-.179l-.071-.093-.558-.83c-.308-.458-.187-1.08.272-1.387.425-.286.991-.202 1.317.179zm-2.789-4.15l.07.093.559.83c.308.458.186 1.08-.272 1.388-.426.286-.992.202-1.317-.179l-.071-.093-.558-.83c-.308-.458-.186-1.08.272-1.388.425-.286.992-.201 1.317.18zm-2.79-4.149l.07.093.559.83c.308.458.186 1.08-.272 1.388-.426.286-.992.201-1.317-.18l-.07-.092-.559-.83c-.308-.458-.186-1.08.272-1.388.426-.286.992-.201 1.317.179zm-2.79-4.15l.07.094.559.83c.308.458.186 1.08-.272 1.387-.426.287-.992.202-1.317-.178l-.07-.093-.559-.83c-.308-.459-.186-1.08.272-1.388.426-.286.992-.202 1.317.179zm-2.79-4.149l.071.094.558.83c.308.458.186 1.079-.272 1.387-.426.286-.992.202-1.317-.179l-.07-.093-.559-.83c-.308-.458-.186-1.08.272-1.387.426-.287.992-.202 1.317.178zm-2.79-4.149l.071.093.558.83c.308.458.186 1.08-.272 1.388-.425.286-.992.202-1.317-.179l-.07-.093-.559-.83c-.308-.458-.186-1.08.272-1.388.426-.286.992-.201 1.317.18zm-2.79-4.149l.071.093.558.83c.308.458.187 1.08-.272 1.388-.425.286-.991.201-1.317-.18l-.07-.092-.559-.83c-.308-.458-.186-1.08.272-1.388.426-.286.992-.202 1.318.179zm-2.79-4.15l.071.094.558.83c.308.458.187 1.08-.272 1.387-.425.287-.991.202-1.317-.178l-.07-.093-.558-.83c-.309-.459-.187-1.08.271-1.388.426-.286.992-.202 1.318.179zm-2.79-4.149l.071.093.558.83c.308.459.187 1.08-.272 1.388-.425.286-.991.202-1.317-.179l-.07-.093-.558-.83c-.309-.458-.187-1.08.272-1.387.425-.287.991-.202 1.317.178zm-2.79-4.149l.071.093.558.83c.309.458.187 1.08-.271 1.388-.426.286-.992.202-1.318-.179l-.07-.093-.558-.83c-.308-.458-.187-1.08.272-1.388.425-.286.991-.201 1.317.18zm-2.79-4.15l.072.094.558.83c.308.458.186 1.08-.272 1.388-.426.286-.992.201-1.318-.18l-.07-.092-.558-.83c-.308-.458-.187-1.08.272-1.388.425-.286.991-.202 1.317.179zm-2.789-4.148l.07.093.559.83c.308.458.186 1.08-.272 1.387-.426.286-.992.202-1.317-.179l-.071-.093-.558-.83c-.308-.458-.187-1.08.272-1.387.425-.286.992-.202 1.317.179zm-2.79-4.15l.07.093.559.83c.308.459.186 1.08-.272 1.388-.426.286-.992.202-1.317-.179l-.071-.093-.558-.83c-.308-.458-.186-1.08.272-1.387.425-.287.992-.202 1.317.178zm-2.79-4.149l.07.093.559.83c.308.458.186 1.08-.272 1.388-.426.286-.992.201-1.317-.18l-.07-.092-.559-.83c-.308-.458-.186-1.08.272-1.388.426-.286.992-.201 1.317.18zm-10.78-14.253c3.208-2.158 7.557-1.305 9.714 1.903 1.968 2.926 1.432 6.802-1.113 9.098l.018.026c.308.458.186 1.08-.272 1.388-.426.286-.992.201-1.317-.18l-.07-.092-.018-.026c-3.086 1.49-6.878.524-8.846-2.403-2.157-3.208-1.305-7.557 1.903-9.714zM-4.44 86.026c2.219-2.74 6.08-3.367 9.023-1.61l.014-.016c.347-.43.977-.496 1.406-.148.396.32.483.882.22 1.304l-.072.102-.014.017c2.332 2.511 2.523 6.42.303 9.16-2.432 3.006-6.84 3.47-9.845 1.036-3.004-2.432-3.468-6.84-1.035-9.845zm13.59-5.66c.396.32.482.882.22 1.304l-.073.102-.629.777c-.348.43-.977.496-1.406.148-.397-.32-.484-.882-.221-1.304l.073-.102.629-.777c.347-.43.977-.496 1.406-.148zm3.146-3.886c.396.32.483.882.22 1.304l-.072.102-.63.777c-.347.43-.977.496-1.406.148-.396-.32-.483-.882-.221-1.304l.073-.102.63-.777c.347-.43.976-.496 1.406-.148zm3.146-3.886c.396.32.483.882.22 1.304L15.59 74l-.63.778c-.347.429-.977.495-1.406.147-.396-.32-.483-.882-.22-1.304l.072-.102.63-.777c.347-.43.977-.496 1.406-.148zm3.146-3.886c.396.32.483.882.22 1.304l-.072.102-.63.778c-.347.429-.976.495-1.406.147-.396-.32-.483-.882-.22-1.304l.072-.102.63-.777c.347-.43.977-.496 1.406-.148zm3.146-3.886c.397.32.484.882.221 1.304l-.073.102-.629.778c-.347.429-.977.495-1.406.147-.397-.32-.484-.882-.221-1.304l.073-.102.629-.777c.347-.43.977-.496 1.406-.148zm3.147-3.886c.396.32.483.882.22 1.304l-.072.102-.63.778c-.347.429-.977.495-1.406.147-.396-.32-.483-.882-.22-1.304l.072-.102.63-.777c.347-.43.976-.496 1.406-.148zm3.146-3.886c.396.32.483.882.22 1.304l-.072.102-.63.778c-.347.429-.977.495-1.406.147-.396-.32-.483-.882-.22-1.304l.072-.102.63-.777c.347-.43.977-.496 1.406-.148zm3.146-3.886c.396.32.483.882.221 1.304l-.073.102-.63.778c-.347.429-.976.495-1.406.147-.396-.32-.483-.882-.22-1.304l.073-.102.629-.777c.347-.43.977-.496 1.406-.148zm3.147-3.886c.396.32.483.882.22 1.304l-.073.102-.629.778c-.347.429-.977.495-1.406.147-.396-.32-.483-.882-.221-1.304l.073-.102.63-.777c.347-.43.976-.496 1.406-.148zm3.146-3.886c.396.32.483.882.22 1.304l-.072.102-.63.778c-.347.429-.977.495-1.406.147-.396-.32-.483-.882-.22-1.304l.072-.102.63-.777c.347-.43.977-.496 1.406-.148zm3.146-3.886c.396.32.483.882.22 1.304l-.072.102-.63.778c-.347.429-.976.495-1.406.147-.396-.32-.483-.882-.22-1.304l.072-.102.63-.777c.347-.43.977-.496 1.406-.148zm3.146-3.886c.397.32.483.882.221 1.304l-.073.102-.629.778c-.348.429-.977.495-1.406.148-.397-.321-.484-.883-.221-1.305l.073-.102.629-.777c.347-.43.977-.496 1.406-.148zm3.147-3.886c.396.32.483.882.22 1.304l-.072.102-.63.778c-.347.429-.977.495-1.406.148-.396-.321-.483-.883-.221-1.305l.073-.102.63-.777c.347-.43.976-.496 1.406-.148zm3.146-3.886c.396.32.483.882.22 1.304l-.072.102-.63.778c-.347.429-.977.495-1.406.148-.396-.321-.483-.882-.22-1.305l.072-.102.63-.777c.347-.43.977-.496 1.406-.148zm3.146-3.886c.396.32.483.882.221 1.304l-.073.102-.63.778c-.347.429-.976.495-1.406.148-.396-.321-.483-.882-.22-1.305l.072-.102.63-.777c.347-.43.977-.496 1.406-.148zm3.146-3.886c.397.32.484.882.221 1.304l-.073.102-.629.778c-.347.429-.977.495-1.406.148-.397-.321-.483-.882-.221-1.305l.073-.102.629-.777c.348-.43.977-.496 1.406-.148zm3.147-3.886c.396.32.483.882.22 1.304l-.072.102-.63.778c-.347.429-.977.495-1.406.148-.396-.321-.483-.882-.22-1.305l.072-.102.63-.777c.347-.43.976-.496 1.406-.148zm3.146-3.886c.396.32.483.882.22 1.304l-.072.102-.63.778c-.347.429-.977.495-1.406.148-.396-.321-.483-.882-.22-1.305l.072-.102.63-.777c.347-.43.977-.496 1.406-.148zm3.146-3.886c.396.32.483.882.221 1.304l-.073.102-.629.778c-.348.429-.977.495-1.406.148-.397-.321-.484-.882-.221-1.305l.073-.102.629-.777c.347-.43.977-.496 1.406-.148zm3.147-3.886c.396.32.483.882.22 1.304l-.073.102-.629.778c-.347.429-.977.495-1.406.148-.396-.321-.483-.882-.221-1.305l.073-.102.63-.777c.347-.43.976-.496 1.406-.148zm3.146-3.886c.396.32.483.882.22 1.304l-.072.102-.63.778c-.347.429-.977.495-1.406.148-.396-.321-.483-.882-.22-1.304l.072-.103.63-.777c.347-.43.977-.496 1.406-.148zM89.293.061l1 .004c.553.002.999.451.997 1.004-.002.512-.39.934-.888.99l-.116.006-1-.004c-.553-.002-.999-.452-.996-1.004.002-.552.451-.998 1.003-.996zm-5-.02l1 .005c.553.002.999.451.997 1.003-.002.513-.39.934-.888.99l-.116.007-1-.004c-.553-.002-.999-.452-.996-1.004.002-.552.451-.998 1.003-.996zm-5-.018l1 .003c.553.002.999.452.997 1.004-.002.513-.39.934-.888.99l-.116.006-1-.003c-.553-.003-.999-.452-.996-1.004.002-.553.451-.999 1.003-.996zm-5-.02l1 .004c.553.002.999.452.997 1.004-.002.513-.39.934-.888.99l-.116.006-1-.004c-.552-.002-.998-.451-.996-1.003.002-.553.451-.999 1.003-.997z" transform="translate(26 -45) translate(51 45) translate(209.764 .356)"></path></g><g filter="url(#prefix__b)" transform="translate(26 -45) translate(51 45) translate(0 38)"><path fill="#00608F" fill-rule="nonzero" d="M0.237 216.537L8.443 224.742 216.072 216.537 224.267 8.907 216.072 0.712 0.237 0.712z"></path><path fill="url(#prefix__c)" fill-rule="nonzero" d="M8.649 8.907H224.484V224.74200000000002H8.649z"></path><path fill="#FFF" fill-rule="nonzero" d="M179.102 154.847L173.591 148.015 168.471 148.015 173.942 154.837 163.445 167.842 152.959 154.847 155.157 152.123 164.818 152.123 166.81 154.682 160.782 162.144 163.362 165.344 172.094 154.558 166.748 148.015 153.31 148.015 147.798 154.847 163.445 174.241zM109.63 175.81h9.455c.433 0 .784-.352.784-.785v-9.454c0-.433-.35-.784-.784-.784h-3.943v-2.364c.006-.436.358-.789.795-.795h15.75c.437.006.79.359.795.795v2.364h-3.943c-.433 0-.784.35-.784.784v9.454c0 .433.35.785.784.785h9.454c.433 0 .785-.352.785-.785v-9.454c0-.433-.352-.784-.785-.784h-3.943v-2.364c.003-.628-.245-1.23-.689-1.674-.444-.444-1.046-.692-1.674-.69h-7.09v-3.178h3.942c.433 0 .784-.351.784-.785v-9.433c0-.433-.35-.785-.784-.785h-9.454c-.433 0-.785.352-.785.785v9.454c0 .433.352.784.785.784h3.943v3.159h-7.091c-.628-.003-1.23.245-1.674.689-.444.444-.692 1.046-.69 1.674v2.364h-3.942c-.433 0-.785.35-.785.784v9.454c0 .433.352.785.785.785zm27.568-9.454v7.885h-7.875v-7.885h7.875zm-17.329-11.023v-7.886h7.886v7.886h-7.886zm-9.433 11.023h7.885v7.885h-7.885v-7.885z"></path><path stroke="#FFF" stroke-linecap="round" stroke-linejoin="round" d="M86.13 120.076L96.234 120.076 96.234 133.627 96.234 204.977M96.234 192.757L124.782 192.757 124.782 186.595 134.628 186.595 134.628 192.757 162.743 192.757 162.743 186.595 177.771 186.595 177.771 192.757 191.425 192.757 191.425 134.37 96.234 134.37"></path><path fill="#FFF" fill-rule="nonzero" d="M69.4 82.31c6.935 0 12.157-2.394 12.157-5.593V57.963c0-3.158-5.222-5.594-12.158-5.594-6.936 0-12.158 2.395-12.158 5.594v18.754c0 3.2 5.233 5.594 12.158 5.594zm0-28.124c5.913 0 10.32 1.992 10.32 3.777 0 1.786-4.428 3.768-10.32 3.768-5.894 0-10.322-1.992-10.322-3.768 0-1.775 4.407-3.777 10.321-3.777zm-10.322 6.822c2.064 1.559 5.883 2.58 10.321 2.58s8.257-1.032 10.321-2.58v3.23c0 1.776-4.428 3.778-10.32 3.778-5.894 0-10.322-2.002-10.322-3.777v-3.231zm0 6.193c2.064 1.558 5.883 2.57 10.321 2.57s8.257-1.032 10.321-2.57v3.23c0 1.775-4.428 3.767-10.32 3.767-5.894 0-10.322-1.992-10.322-3.767v-3.23zm0 6.275c2.064 1.558 5.883 2.539 10.321 2.539s8.257-1.032 10.321-2.58v3.23c0 1.817-4.428 3.809-10.32 3.809-5.894 0-10.322-1.992-10.322-3.768v-3.23zM124.689 60.833L119.178 54 114.058 54 119.529 60.833 109.032 73.827 98.546 60.833 100.744 58.108 110.405 58.108 112.397 60.667 106.38 68.13 108.95 71.329 117.681 60.544 112.335 54 98.897 54 93.385 60.833 109.032 80.226z"></path><path stroke="#FFF" stroke-linecap="round" stroke-linejoin="round" d="M33.482 26.164L43.576 26.164 43.576 39.716 43.576 111.055M43.576 98.845L72.134 98.845 72.134 92.683 81.981 92.683 81.981 98.845 110.095 98.845 110.095 92.683 125.123 92.683 125.123 98.845 138.778 98.845 138.778 40.459 43.576 40.459"></path></g></g></g></svg> 