<?xml version="1.0" encoding="UTF-8"?> <svg xmlns="http://www.w3.org/2000/svg" width="381" height="323" viewBox="0 0 381 323"><defs><radialGradient id="prefix__a" cx="50%" cy="0%" r="38.289%" fx="50%" fy="0%" gradientTransform="matrix(0 1 -1.34032 0 .5 -.5)"><stop offset="0%" stop-color="#32C5FF"></stop><stop offset="100%" stop-color="#32C5FF" stop-opacity="0"></stop></radialGradient><linearGradient id="prefix__c" x1="50%" x2="50%" y1="122.451%" y2="5.48%"><stop offset="0%" stop-color="#00814B"></stop><stop offset="100%" stop-color="#8FDF00"></stop></linearGradient><filter id="prefix__b" width="109.3%" height="109.3%" x="-4.7%" y="-4.7%"><feOffset dy="2" in="SourceAlpha" result="shadowOffsetOuter1"></feOffset><feGaussianBlur in="shadowOffsetOuter1" result="shadowBlurOuter1" stdDeviation="1.5"></feGaussianBlur><feColorMatrix in="shadowBlurOuter1" result="shadowMatrixOuter1" values="0 0 0 0 0 0 0 0 0 0 0 0 0 0 0 0 0 0 0.5 0"></feColorMatrix><feMerge><feMergeNode in="shadowMatrixOuter1"></feMergeNode><feMergeNode in="SourceGraphic"></feMergeNode></feMerge></filter></defs><g fill="none" fill-rule="evenodd"><g opacity=".71"><path opacity=".716" style="mix-blend-mode:multiply" fill="url(#prefix__a)" d="M0.901 0.281H320.25600000000003V276.281H0.901z" transform="translate(26 -45) matrix(1 0 0 -1 0 276.563)"></path></g><g><g fill="#024F71" fill-rule="nonzero"><path d="M1.228 144.432c3.526.028 6.423 2.658 6.881 6.053l.065.002c.553.004.997.455.992 1.008-.004.512-.393.932-.89.986l-.117.006-.065-.002c-.512 3.39-3.45 5.974-6.977 5.946-3.866-.03-6.975-3.19-6.944-7.055.03-3.866 3.19-6.975 7.055-6.944zm90.944 6.72l1 .007c.552.004.996.456.992 1.008-.004.513-.394.932-.891.986l-.117.006-1-.008c-.552-.004-.997-.455-.992-1.008.004-.552.455-.996 1.008-.992zm-5-.04l1 .008c.552.004.996.455.992 1.007-.004.513-.394.933-.891.987l-.117.005-1-.007c-.552-.005-.996-.456-.992-1.008.004-.553.456-.997 1.008-.992zm-5-.04l1 .008c.552.004.996.456.992 1.008-.004.513-.393.932-.891.986l-.117.006-1-.008c-.552-.004-.996-.456-.992-1.008.005-.552.456-.996 1.008-.992zm-5-.04l1 .008c.552.005.997.456.992 1.008-.004.513-.393.933-.891.987l-.117.005-1-.008c-.552-.004-.996-.455-.992-1.007.005-.553.456-.997 1.008-.992zm-5-.039l1 .008c.553.004.997.456.992 1.008-.004.513-.393.932-.89.986l-.117.006-1-.008c-.553-.004-.997-.456-.993-1.008.005-.552.456-.996 1.008-.992zm-5-.04l1 .008c.553.005.997.456.993 1.008-.005.513-.394.933-.892.986l-.116.006-1-.008c-.553-.004-.997-.455-.992-1.007.004-.553.455-.997 1.008-.993zm-5-.04l1 .009c.553.004.997.455.993 1.008-.004.513-.394.932-.892.986l-.116.006-1-.008c-.552-.005-.997-.456-.992-1.008.004-.552.455-.996 1.008-.992zm-5-.039l1 .008c.553.005.997.456.993 1.008-.004.513-.394.933-.891.986l-.117.006-1-.008c-.552-.004-.996-.455-.992-1.008.004-.552.456-.996 1.008-.992zm-4.999-.04l1 .009c.552.004.996.455.992 1.008-.004.512-.393.932-.891.986l-.117.006-1-.008c-.552-.005-.996-.456-.992-1.008.004-.552.456-.997 1.008-.992zm-5-.039l1 .008c.552.005.997.456.992 1.008-.004.513-.393.932-.891.986l-.117.006-1-.008c-.552-.004-.996-.455-.992-1.008.005-.552.456-.996 1.008-.992zm-5-.04l1 .009c.553.004.997.455.992 1.007-.004.513-.393.933-.89.987l-.118.006-1-.008c-.552-.005-.996-.456-.992-1.008.005-.552.456-.997 1.008-.992zm-5-.039l1 .008c.553.004.997.456.992 1.008-.004.513-.393.932-.89.986l-.117.006-1-.008c-.553-.004-.997-.456-.992-1.008.004-.552.455-.996 1.007-.992zm-5-.04l1 .009c.553.004.997.455.993 1.007-.004.513-.394.933-.892.987l-.116.005-1-.007c-.552-.005-.997-.456-.992-1.008.004-.553.455-.997 1.008-.992zm-5-.039l1 .008c.553.004.997.456.993 1.008-.004.513-.394.932-.891.986l-.117.006-1-.008c-.552-.004-.996-.456-.992-1.008.004-.552.455-.996 1.008-.992zm-5-.04l1 .008c.553.005.997.456.993 1.008-.004.513-.393.933-.891.987l-.117.005-1-.008c-.552-.004-.996-.455-.992-1.007.004-.553.456-.997 1.008-.992zm-4.999-.039l1 .008c.552.004.996.455.992 1.008-.004.513-.393.932-.891.986l-.117.006-1-.008c-.552-.004-.996-.456-.992-1.008.005-.552.456-.996 1.008-.992zm-5-.04l1 .008c.552.005.997.456.992 1.008-.004.513-.393.933-.89.986l-.118.006-1-.008c-.552-.004-.996-.455-.992-1.008.005-.552.456-.996 1.008-.992zM90.106 319.95l1 .004c.552.002.998.452.996 1.004-.002.513-.39.934-.887.99l-.117.006-1-.004c-.552-.002-.998-.451-.996-1.004.002-.552.452-.998 1.004-.996zm-5-.019l1 .004c.552.002.998.451.996 1.004-.002.513-.39.934-.887.99l-.117.006-1-.004c-.552-.002-.998-.451-.996-1.004.002-.552.452-.998 1.004-.996zm-5-.02l1 .005c.552.002.998.451.996 1.004-.002.512-.39.934-.887.99l-.117.006-1-.004c-.552-.002-.998-.452-.996-1.004.002-.552.452-.998 1.004-.996zm-5-.018l1 .004c.552.002.998.451.996 1.003-.002.513-.39.934-.887.99l-.117.007-1-.004c-.552-.002-.998-.452-.996-1.004.002-.552.452-.998 1.004-.996zm-2.686-2.583l.07.093.559.83c.308.458.186 1.08-.272 1.388-.426.286-.992.202-1.317-.179l-.071-.093-.558-.83c-.308-.458-.187-1.08.272-1.388.425-.286.992-.201 1.317.18zm-2.79-4.149l.07.093.559.83c.308.458.186 1.08-.272 1.388-.426.286-.992.201-1.317-.18l-.071-.092-.558-.83c-.308-.458-.186-1.08.272-1.388.425-.286.992-.201 1.317.179zm-2.79-4.15l.07.094.559.83c.308.458.186 1.08-.272 1.387-.426.287-.992.202-1.317-.178l-.07-.093-.559-.83c-.308-.459-.186-1.08.272-1.388.426-.286.992-.202 1.317.179zm-2.79-4.149l.07.093.559.83c.308.459.186 1.08-.272 1.388-.426.286-.992.202-1.317-.179l-.07-.093-.559-.83c-.308-.458-.186-1.08.272-1.387.426-.287.992-.202 1.317.178zm-2.79-4.149l.071.093.558.83c.308.458.186 1.08-.272 1.388-.425.286-.992.202-1.317-.179l-.07-.093-.559-.83c-.308-.458-.186-1.08.272-1.388.426-.286.992-.201 1.317.18zm-2.79-4.15l.071.094.558.83c.308.458.187 1.08-.272 1.388-.425.286-.992.201-1.317-.18l-.07-.092-.559-.83c-.308-.458-.186-1.08.272-1.388.426-.286.992-.202 1.317.179zm-2.79-4.148l.071.093.558.83c.308.458.187 1.08-.272 1.387-.425.287-.991.202-1.317-.178l-.07-.094-.558-.83c-.309-.458-.187-1.079.271-1.387.426-.286.992-.202 1.318.179zm-2.79-4.15l.071.093.558.83c.308.459.187 1.08-.272 1.388-.425.286-.991.202-1.317-.179l-.07-.093-.558-.83c-.309-.458-.187-1.08.271-1.387.426-.287.992-.202 1.318.178zm-2.79-4.149l.071.093.558.83c.309.458.187 1.08-.271 1.388-.426.286-.992.201-1.318-.179l-.07-.093-.558-.83c-.308-.458-.187-1.08.272-1.388.425-.286.991-.201 1.317.18zm-2.79-4.15l.071.094.558.83c.309.458.187 1.08-.271 1.388-.426.286-.992.201-1.318-.18l-.07-.092-.558-.83c-.308-.458-.187-1.08.272-1.388.425-.286.991-.202 1.317.179zm-2.79-4.148l.072.093.558.83c.308.458.186 1.08-.272 1.387-.426.286-.992.202-1.317-.179l-.071-.093-.558-.83c-.308-.458-.187-1.08.272-1.387.425-.286.991-.202 1.317.179zm-2.789-4.15l.07.093.559.83c.308.458.186 1.08-.272 1.388-.426.286-.992.202-1.317-.179l-.071-.093-.558-.83c-.308-.458-.186-1.08.272-1.388.425-.286.992-.201 1.317.18zm-2.79-4.149l.07.093.559.83c.308.458.186 1.08-.272 1.388-.426.286-.992.201-1.317-.18l-.07-.092-.559-.83c-.308-.458-.186-1.08.272-1.388.426-.286.992-.201 1.317.179zm-2.79-4.15l.07.094.559.83c.308.458.186 1.08-.272 1.387-.426.287-.992.202-1.317-.178l-.07-.093-.559-.83c-.308-.459-.186-1.08.272-1.388.426-.286.992-.202 1.317.179zm-2.79-4.149l.071.094.558.83c.308.458.186 1.079-.272 1.387-.426.286-.992.202-1.317-.179l-.07-.093-.559-.83c-.308-.458-.186-1.08.272-1.387.426-.287.992-.202 1.317.178zm-2.79-4.149l.071.093.558.83c.308.458.186 1.08-.272 1.388-.425.286-.992.202-1.317-.179l-.07-.093-.559-.83c-.308-.458-.186-1.08.272-1.388.426-.286.992-.201 1.317.18zm-2.79-4.149l.071.093.558.83c.308.458.187 1.08-.272 1.388-.425.286-.991.201-1.317-.18l-.07-.092-.559-.83c-.308-.458-.186-1.08.272-1.388.426-.286.992-.202 1.318.179zm-2.79-4.15l.071.094.558.83c.308.458.187 1.08-.272 1.387-.425.287-.991.202-1.317-.178l-.07-.093-.558-.83c-.309-.459-.187-1.08.271-1.388.426-.286.992-.202 1.318.179zm-2.79-4.149l.071.093.558.83c.308.459.187 1.08-.272 1.388-.425.286-.991.202-1.317-.179l-.07-.093-.558-.83c-.309-.458-.187-1.08.272-1.387.425-.287.991-.202 1.317.178zm-2.79-4.149l.071.093.558.83c.309.458.187 1.08-.271 1.388-.426.286-.992.202-1.318-.179l-.07-.093-.558-.83c-.308-.458-.187-1.08.272-1.388.425-.286.991-.201 1.317.18zm-2.79-4.15l.072.094.558.83c.308.458.186 1.08-.272 1.388-.426.286-.992.201-1.318-.18l-.07-.092-.558-.83c-.308-.458-.187-1.08.272-1.388.425-.286.991-.202 1.317.179zm-2.789-4.148l.07.093.559.83c.308.458.186 1.08-.272 1.387-.426.286-.992.202-1.317-.179l-.071-.093-.558-.83c-.308-.458-.187-1.08.272-1.387.425-.286.992-.202 1.317.179zm-2.79-4.15l.07.093.559.83c.308.459.186 1.08-.272 1.388-.426.286-.992.202-1.317-.179l-.071-.093-.558-.83c-.308-.458-.186-1.08.272-1.387.425-.287.992-.202 1.317.178zm-2.79-4.149l.07.093.559.83c.308.458.186 1.08-.272 1.388-.426.286-.992.201-1.317-.18l-.07-.092-.559-.83c-.308-.458-.186-1.08.272-1.388.426-.286.992-.201 1.317.18zm-10.78-14.253c3.208-2.158 7.557-1.305 9.714 1.903 1.968 2.926 1.432 6.802-1.113 9.098l.018.026c.308.458.186 1.08-.272 1.388-.426.286-.992.201-1.317-.18l-.07-.092-.018-.026c-3.086 1.49-6.878.524-8.846-2.403-2.157-3.208-1.305-7.557 1.903-9.714zM-4.44 86.026c2.219-2.74 6.08-3.367 9.023-1.61l.014-.016c.347-.43.977-.496 1.406-.148.396.32.483.882.22 1.304l-.072.102-.014.017c2.332 2.511 2.523 6.42.303 9.16-2.432 3.006-6.84 3.47-9.845 1.036-3.004-2.432-3.468-6.84-1.035-9.845zm13.59-5.66c.396.32.482.882.22 1.304l-.073.102-.629.777c-.348.43-.977.496-1.406.148-.397-.32-.484-.882-.221-1.304l.073-.102.629-.777c.347-.43.977-.496 1.406-.148zm3.146-3.886c.396.32.483.882.22 1.304l-.072.102-.63.777c-.347.43-.977.496-1.406.148-.396-.32-.483-.882-.221-1.304l.073-.102.63-.777c.347-.43.976-.496 1.406-.148zm3.146-3.886c.396.32.483.882.22 1.304L15.59 74l-.63.778c-.347.429-.977.495-1.406.147-.396-.32-.483-.882-.22-1.304l.072-.102.63-.777c.347-.43.977-.496 1.406-.148zm3.146-3.886c.396.32.483.882.22 1.304l-.072.102-.63.778c-.347.429-.976.495-1.406.147-.396-.32-.483-.882-.22-1.304l.072-.102.63-.777c.347-.43.977-.496 1.406-.148zm3.146-3.886c.397.32.484.882.221 1.304l-.073.102-.629.778c-.347.429-.977.495-1.406.147-.397-.32-.484-.882-.221-1.304l.073-.102.629-.777c.347-.43.977-.496 1.406-.148zm3.147-3.886c.396.32.483.882.22 1.304l-.072.102-.63.778c-.347.429-.977.495-1.406.147-.396-.32-.483-.882-.22-1.304l.072-.102.63-.777c.347-.43.976-.496 1.406-.148zm3.146-3.886c.396.32.483.882.22 1.304l-.072.102-.63.778c-.347.429-.977.495-1.406.147-.396-.32-.483-.882-.22-1.304l.072-.102.63-.777c.347-.43.977-.496 1.406-.148zm3.146-3.886c.396.32.483.882.221 1.304l-.073.102-.63.778c-.347.429-.976.495-1.406.147-.396-.32-.483-.882-.22-1.304l.073-.102.629-.777c.347-.43.977-.496 1.406-.148zm3.147-3.886c.396.32.483.882.22 1.304l-.073.102-.629.778c-.347.429-.977.495-1.406.147-.396-.32-.483-.882-.221-1.304l.073-.102.63-.777c.347-.43.976-.496 1.406-.148zm3.146-3.886c.396.32.483.882.22 1.304l-.072.102-.63.778c-.347.429-.977.495-1.406.147-.396-.32-.483-.882-.22-1.304l.072-.102.63-.777c.347-.43.977-.496 1.406-.148zm3.146-3.886c.396.32.483.882.22 1.304l-.072.102-.63.778c-.347.429-.976.495-1.406.147-.396-.32-.483-.882-.22-1.304l.072-.102.63-.777c.347-.43.977-.496 1.406-.148zm3.146-3.886c.397.32.483.882.221 1.304l-.073.102-.629.778c-.348.429-.977.495-1.406.148-.397-.321-.484-.883-.221-1.305l.073-.102.629-.777c.347-.43.977-.496 1.406-.148zm3.147-3.886c.396.32.483.882.22 1.304l-.072.102-.63.778c-.347.429-.977.495-1.406.148-.396-.321-.483-.883-.221-1.305l.073-.102.63-.777c.347-.43.976-.496 1.406-.148zm3.146-3.886c.396.32.483.882.22 1.304l-.072.102-.63.778c-.347.429-.977.495-1.406.148-.396-.321-.483-.882-.22-1.305l.072-.102.63-.777c.347-.43.977-.496 1.406-.148zm3.146-3.886c.396.32.483.882.221 1.304l-.073.102-.63.778c-.347.429-.976.495-1.406.148-.396-.321-.483-.882-.22-1.305l.072-.102.63-.777c.347-.43.977-.496 1.406-.148zm3.146-3.886c.397.32.484.882.221 1.304l-.073.102-.629.778c-.347.429-.977.495-1.406.148-.397-.321-.483-.882-.221-1.305l.073-.102.629-.777c.348-.43.977-.496 1.406-.148zm3.147-3.886c.396.32.483.882.22 1.304l-.072.102-.63.778c-.347.429-.977.495-1.406.148-.396-.321-.483-.882-.22-1.305l.072-.102.63-.777c.347-.43.976-.496 1.406-.148zm3.146-3.886c.396.32.483.882.22 1.304l-.072.102-.63.778c-.347.429-.977.495-1.406.148-.396-.321-.483-.882-.22-1.305l.072-.102.63-.777c.347-.43.977-.496 1.406-.148zm3.146-3.886c.396.32.483.882.221 1.304l-.073.102-.629.778c-.348.429-.977.495-1.406.148-.397-.321-.484-.882-.221-1.305l.073-.102.629-.777c.347-.43.977-.496 1.406-.148zm3.147-3.886c.396.32.483.882.22 1.304l-.073.102-.629.778c-.347.429-.977.495-1.406.148-.396-.321-.483-.882-.221-1.305l.073-.102.63-.777c.347-.43.976-.496 1.406-.148zm3.146-3.886c.396.32.483.882.22 1.304l-.072.102-.63.778c-.347.429-.977.495-1.406.148-.396-.321-.483-.882-.22-1.304l.072-.103.63-.777c.347-.43.977-.496 1.406-.148zM89.293.061l1 .004c.553.002.999.451.997 1.004-.002.512-.39.934-.888.99l-.116.006-1-.004c-.553-.002-.999-.452-.996-1.004.002-.552.451-.998 1.003-.996zm-5-.02l1 .005c.553.002.999.451.997 1.003-.002.513-.39.934-.888.99l-.116.007-1-.004c-.553-.002-.999-.452-.996-1.004.002-.552.451-.998 1.003-.996zm-5-.018l1 .003c.553.002.999.452.997 1.004-.002.513-.39.934-.888.99l-.116.006-1-.003c-.553-.003-.999-.452-.996-1.004.002-.553.451-.999 1.003-.996zm-5-.02l1 .004c.553.002.999.452.997 1.004-.002.513-.39.934-.888.99l-.116.006-1-.004c-.552-.002-.998-.451-.996-1.003.002-.553.451-.999 1.003-.997z" transform="translate(26 -45) translate(52 45) translate(208.764 .356)"></path></g><g filter="url(#prefix__b)" transform="translate(26 -45) translate(52 45) translate(0 38)"><path fill="#3BAB24" fill-rule="nonzero" d="M0.052 215.99L8.247 224.185 215.876 215.99 224.081 8.36 215.876 0.155 0.052 0.155z"></path><path fill="url(#prefix__c)" fill-rule="nonzero" d="M8.226 8.019H224.061V223.854H8.226z"></path><path fill="#FFF" fill-rule="nonzero" d="M101.147 28.765H62.205c-.883 0-1.6.716-1.6 1.6v29.497c0 .884.717 1.6 1.6 1.6h14.687v5.16h-6.337c-.37 0-.67.301-.67.672 0 .37.3.67.67.67h22.252c.24 0 .461-.127.581-.335.12-.208.12-.463 0-.67-.12-.208-.341-.336-.58-.336H86.46v-5.16h14.687c.425.002.833-.166 1.134-.466.3-.301.468-.71.466-1.135V30.365c.002-.425-.165-.834-.466-1.135-.3-.3-.71-.468-1.134-.465zM85.118 66.623h-6.874v-5.16h6.874v5.16zm16.287-6.76c0 .142-.116.257-.258.257H62.205c-.072.006-.143-.018-.196-.067-.053-.05-.082-.118-.082-.19V30.364c0-.139.109-.253.247-.258h38.973c.142 0 .258.115.258.258v29.497z"></path><path fill="#FFF" fill-rule="nonzero" d="M99.3 54.702H64.062c-.37 0-.67.3-.67.67 0 .371.3.672.67.672H99.3c.37 0 .671-.3.671-.671 0-.37-.3-.671-.67-.671zM70.472 52.42h3.582c.374-.005.676-.306.681-.68v-9.754c-.006-.372-.309-.67-.681-.67h-3.582c-.177 0-.348.07-.474.196s-.196.296-.196.474v9.754c0 .372.298.675.67.68zM76.748 52.42h3.591c.373-.005.671-.308.671-.68V38.807c0-.37-.3-.67-.67-.67h-3.592c-.37 0-.671.3-.671.67V51.74c0 .372.299.675.67.68zM83.023 52.42h3.592c.372-.005.67-.308.67-.68V35.804c0-.372-.298-.676-.67-.681h-3.592c-.372.005-.67.309-.67.68V51.74c0 .372.298.675.67.68zM89.298 52.42h3.592c.372-.005.67-.308.67-.68v-6.657c.01-.184-.058-.362-.184-.495-.127-.133-.303-.207-.486-.207h-3.592c-.37 0-.67.3-.67.67v6.658c-.01.184.058.364.184.498s.302.211.486.214zM163.62 43.947v-3.385c-.58-6.954-6.393-12.302-13.37-12.302-6.978 0-12.791 5.348-13.372 12.302v3.385c-1.34 1.062-2.122 2.677-2.126 4.387v4.242c0 8.55 6.932 15.481 15.482 15.481 8.55 0 15.482-6.931 15.482-15.481v-4.242c.003-1.705-.768-3.318-2.096-4.387zm-4.85-3.385v2.167h-17.04v-2.167c.16-4.59 3.927-8.229 8.52-8.229 4.592 0 8.36 3.639 8.52 8.229zm5.645 12.014c-.207 7.674-6.488 13.788-14.166 13.788-7.677 0-13.958-6.114-14.165-13.788v-4.242c0-2.366 1.917-4.284 4.283-4.284h19.765c2.365 0 4.283 1.918 4.283 4.284v4.242z"></path><path fill="#FFF" fill-rule="nonzero" d="M149.749 49.83c-1.148.223-2.039 1.13-2.24 2.281-.179 1.046.259 2.102 1.125 2.715l-.382 3.973c-.035.379.092.754.351 1.032.263.294.639.46 1.032.455h1.27c.393.004.77-.161 1.032-.455.259-.278.387-.653.35-1.032l-.381-3.973c.734-.514 1.17-1.355 1.166-2.25-.008-.83-.387-1.614-1.032-2.137-.637-.53-1.475-.753-2.291-.609zM91.331 114.347L86.14 114.378 86.109 108.991 84.354 109.001 84.385 114.389 79.225 114.42 79.235 116.164 84.396 116.133 84.437 121.5 86.181 121.49 86.15 116.123 91.342 116.092zM173.333 98.628H177.781V103.076H173.333zM173.333 104.222H177.781V108.66999999999999H173.333zM173.333 109.817H177.781V114.26499999999999H173.333zM167.924 104.222H172.372V108.66999999999999H167.924zM167.924 109.817H172.372V114.26499999999999H167.924zM162.516 104.222H166.964V108.66999999999999H162.516zM162.516 109.817H166.964V114.26499999999999H162.516zM157.18 109.817H161.62800000000001V114.26499999999999H157.18zM178.741 109.817H183.18900000000002V114.26499999999999H178.741z"></path><path fill="#FFF" fill-rule="nonzero" d="M191.972 111.695s.124-2.92-3.313-4.903c-1.796 2.106-1.978 5.148-.443 7.452 0 0-1.528 1.456-6.141 1.456h-27.351s-1.91 14.45 14.45 14.45c16.936 0 21.9-13.924 21.9-13.924s5.337.248 6.544-3.695c-2.116-1.982-5.646-.836-5.646-.836zM119.116 111.54c.102.074.225.114.35.114.318 0 .578-.251.589-.568l.196-3.52c-.24.022-.479.063-.712.124-1.258.279-2.413.904-3.334 1.807l2.89 2.064.02-.02zM117.578 114.203c.12-.033.229-.101.31-.196.194-.248.163-.605-.073-.815l-2.632-2.354c-.82 1.304-1.183 2.844-1.032 4.376l3.386-1.032.041.021zM122.16 111.076c0 .127.044.251.124.35.202.246.56.29.816.104l2.869-2.064c-1.095-1.065-2.509-1.743-4.025-1.93l.196 3.509.02.03zM118.693 116.7c-.062-.263-.297-.451-.568-.453-.037-.011-.076-.011-.114 0l-3.467.588c.523 1.439 1.506 2.665 2.797 3.488l1.341-3.24c.045-.123.048-.257.01-.382zM120.138 115.245L121.108 115.71 122.078 115.245 122.326 114.193 121.655 113.357 120.571 113.357 119.9 114.193z"></path><path fill="#FFF" fill-rule="nonzero" d="M134.422 105.275c-.148-.634-.578-1.166-1.166-1.445l-11.22-5.356c-.32-.157-.675-.228-1.031-.207-.286.016-.566.086-.826.207l-11.22 5.367c-.588.27-1.016.801-1.155 1.434l-2.766 12.045c-.13.56-.025 1.149.289 1.63l.124.166 7.761 9.65c.41.508 1.029.804 1.682.805h12.448c.65-.001 1.265-.297 1.672-.805l7.761-9.65c.415-.503.569-1.173.413-1.806l-2.766-12.035zm-1.497 11.89c-.105.374-.49.595-.867.496h-.175c-.207-.069-.41-.148-.609-.238-.377-.15-.768-.264-1.166-.34-.137-.01-.272.04-.372.134l-.289-.052c-.646 2.045-2.024 3.78-3.87 4.872.028.093.066.183.113.268-.054.129-.054.274 0 .403.165.36.362.706.589 1.032.134.169.255.348.36.536l.094.176c.148.222.153.51.012.737-.141.227-.402.35-.666.316-.265-.034-.486-.22-.564-.475l-.083-.176c-.093-.216-.124-.402-.196-.609-.117-.39-.269-.77-.454-1.135-.087-.11-.212-.183-.35-.206l-.135-.258c-.377.143-.763.26-1.156.35-1.682.379-3.438.25-5.047-.371l-.144.279c-.11.016-.211.066-.29.144-.235.374-.412.781-.526 1.208-.048.208-.113.412-.196.609-.023.06-.05.119-.082.175-.093.233-.308.394-.557.419-.25.025-.491-.091-.628-.3-.137-.21-.146-.479-.023-.697l.083-.175c.11-.186.23-.365.36-.537.238-.345.441-.711.61-1.094.015-.13-.007-.263-.062-.382l.124-.289c-1.836-1.084-3.213-2.802-3.87-4.83h-.3c-.112-.08-.245-.127-.382-.134-.4.075-.79.193-1.166.35-.207.073-.372.166-.61.228h-.175c-.242.083-.511.02-.692-.161-.181-.181-.243-.45-.16-.693.084-.242.298-.416.553-.447h.175c.238 0 .424 0 .65-.051.405-.03.805-.096 1.198-.197.113 0 .217-.196.289-.289l.279-.082c-.299-2.12.19-4.275 1.372-6.059l-.216-.196c-.005-.138-.052-.27-.135-.382-.32-.267-.665-.502-1.032-.701-.193-.097-.38-.207-.557-.33l-.145-.104c-.162-.112-.272-.286-.303-.48-.031-.196.019-.395.138-.552.13-.161.33-.25.537-.237.17.006.333.068.464.175l.155.124c.156.147.304.302.444.464.27.303.57.577.898.816.129.054.274.054.403 0l.237.175c1.177-1.257 2.706-2.131 4.386-2.508.401-.091.808-.153 1.218-.186v-.289c.108-.088.187-.207.227-.34.01-.408-.017-.816-.082-1.218-.042-.212-.073-.425-.093-.64v-.175c-.032-.262.089-.519.311-.66.223-.14.507-.14.73 0 .222.141.343.398.311.66v.196c-.02.214-.051.428-.093.64-.065.402-.093.81-.083 1.217.03.136.112.254.228.33v.3c2.122.196 4.101 1.152 5.573 2.694l.258-.186c.13.044.272.044.403 0 .328-.241.632-.515.908-.815.14-.166.288-.324.444-.475l.144-.114c.143-.133.334-.202.53-.19.195.011.376.103.502.252.126.155.18.356.148.553-.031.197-.145.371-.313.48l-.144.113c-.178.124-.364.234-.558.33-.366.2-.711.435-1.032.702-.088.103-.133.236-.124.372-.075.077-.154.149-.237.216 1.19 1.778 1.69 3.929 1.404 6.049l.268.072c.051.072.144.237.289.289.394.11.799.179 1.207.206.215-.002.43.015.64.052h.196c.38.082.624.455.547.836v.01z"></path><path fill="#FFF" fill-rule="nonzero" d="M127.032 110.818l-2.621 2.343c-.096.078-.162.188-.186.31-.074.309.108.621.413.711l3.395.98c.072-.753.02-1.513-.155-2.25-.164-.74-.45-1.448-.846-2.094zM121.634 117.97c-.06-.11-.154-.197-.268-.248-.087-.04-.183-.062-.279-.061-.21.012-.398.133-.495.32l-1.703 3.096c1.22.418 2.531.485 3.788.196.227-.048.454-.11.68-.186l-1.713-3.096-.01-.02zM124.173 116.236h-.134c-.08.005-.157.026-.227.062-.286.136-.414.473-.29.764l1.363 3.272c1.298-.825 2.282-2.06 2.797-3.51l-3.499-.598-.01.01zM56.467 100.847L62.556 108.227 50.883 122.284 39.22 108.237 41.656 105.296 52.411 105.296 54.63 108.062 47.921 116.123 50.79 119.58 60.502 107.928 54.557 100.847 39.602 100.847 33.471 108.237 50.883 129.189 68.295 108.237 62.164 100.847z"></path><path stroke="#FFF" stroke-dasharray="0" stroke-linecap="round" stroke-width="1.25" d="M30.272 84.334L200.859 84.334M30.272 144.692L200.859 144.692"></path><path fill="#FFF" fill-rule="nonzero" d="M67.954 194.14c.827-.459 1.759-.694 2.704-.681 1.388-.04 2.73.498 3.706 1.486l.836-.836c-.554-.602-1.24-1.068-2.003-1.362-.823-.316-1.698-.474-2.58-.465-1.174-.02-2.333.265-3.365.826-.982.525-1.797 1.315-2.353 2.28-1.142 2.029-1.142 4.506 0 6.534.558.96 1.368 1.75 2.343 2.281 1.839.966 4.005 1.094 5.945.35.785-.291 1.491-.76 2.064-1.372l-.836-.836c-.968 1.002-2.313 1.55-3.705 1.507-.945.012-1.878-.222-2.704-.681-.818-.439-1.495-1.1-1.951-1.91-.923-1.644-.923-3.65 0-5.294.454-.771 1.11-1.403 1.9-1.827zM88.989 202.562L80.917 192.385 79.823 192.385 79.823 204.925 81.144 204.925 81.144 194.749 89.205 204.925 90.299 204.925 90.299 192.385 88.989 192.385zM97.607 192.385H98.928V204.915H97.607zM96.44 165.581c-.001-.162-.077-.314-.206-.412L82.97 155.27c-.182-.13-.426-.13-.609 0l-13.417 9.815c-.135.094-.216.248-.217.413v9.598c.003.168.083.324.217.424l13.355 9.794c.089.06.193.093.3.093.107.002.212-.03.3-.093l13.355-9.588c.135-.094.216-.248.216-.413.003-.16-.07-.313-.196-.413l-5.883-4.469 5.873-4.427c.124-.104.19-.262.175-.424zm-13.778-9.289l7.121 5.316-1.847 1.465-7.225-5.346 1.95-1.435zm-.578 15.193l-1.683 1.3-7.462-5.304 1.806-1.363 7.339 5.367zm-6.74-5.831l7.276-5.501 4.635 3.436-5.161 4.015 2.508 1.92-1.95 1.507-7.308-5.377zm9.919 4.355l1.92 1.476-4.222 3.179-1.94-1.383 4.242-3.272zm0-.97l-1.879-1.445 4.52-3.53 1.941 1.435-4.582 3.54zm-5.254-10.817l1.961 1.456-7.235 5.46-2.064-1.538 7.338-5.378zm-8.04 5.884l2.126 1.548-1.847 1.383-2.178-1.548 1.899-1.383zm-2.24 2.373l5.347 3.799-5.347 3.798v-7.597zm25.328 8.804l-12.488 8.959-12.478-9.145 5.862-4.128 6.75 4.8c.088.06.192.093.3.092.11-.004.218-.04.309-.103l6.193-4.655 5.552 4.18zm-7.224-4.293l-1.93-1.476 5.232-4.036-2.6-1.92 1.857-1.444 4.634 3.457-7.193 5.419zM133.576 195.678c.783-.432 1.665-.652 2.56-.64 1.28-.05 2.527.427 3.447 1.32l.505-.525c-.482-.517-1.08-.913-1.744-1.156-1.692-.612-3.563-.488-5.16.34-.865.486-1.579 1.2-2.065 2.064-1.005 1.81-1.005 4.011 0 5.822.486.864 1.2 1.578 2.064 2.064.909.494 1.929.746 2.963.733.765.007 1.524-.13 2.24-.403.664-.247 1.262-.646 1.744-1.166l-.506-.527c-.917.9-2.163 1.385-3.447 1.342-.895.012-1.777-.208-2.56-.64-.752-.413-1.376-1.023-1.806-1.765-.875-1.565-.875-3.472 0-5.036.41-.76 1.02-1.392 1.765-1.827zM152.205 200.23c-.646-.231-1.304-.428-1.971-.589-.59-.139-1.173-.311-1.744-.516-.39-.148-.743-.38-1.032-.681-.3-.328-.457-.763-.434-1.208-.012-.636.289-1.238.805-1.61.693-.465 1.52-.686 2.353-.63.54.004 1.075.087 1.59.248.527.151 1.026.389 1.476.702l.31-.66c-.48-.324-1.005-.571-1.56-.733-.587-.182-1.2-.272-1.816-.269-.758-.022-1.514.112-2.219.393-.53.21-.989.568-1.32 1.032-.288.446-.439.966-.434 1.496-.03.584.158 1.157.526 1.61.342.394.774.698 1.26.888.644.236 1.302.432 1.97.588.587.133 1.166.299 1.735.496.389.155.74.39 1.032.691.3.325.456.756.433 1.197.005.632-.3 1.225-.815 1.59-.726.449-1.574.658-2.426.599-.707.002-1.407-.131-2.064-.393-.602-.222-1.148-.575-1.6-1.032l-.36.61c.484.493 1.078.868 1.733 1.093.749.282 1.543.426 2.343.423.766.023 1.529-.114 2.24-.402.543-.202 1.013-.562 1.352-1.032.29-.445.444-.965.443-1.497.03-.57-.158-1.132-.526-1.569-.353-.377-.792-.663-1.28-.836zM159.461 194.357H160.461V205.555H159.461zM159.719 181.331c-1.02 2.461-3.281 4.187-5.924 4.521-2.704.227-5.16-1.331-6.812-4.273-.325-.698-.578-1.428-.754-2.178-.536-1.878-1.176-4.128-2.951-5.614 2.377.282 4.786-.104 6.956-1.115.702-.258 1.362-.506 2.064-.712l.176-.062c1.672-.609 4.252.826 5.625 2.302.946-1.552 2.63-2.502 4.448-2.508h.175c-2.126-2.932-7.224-6.338-11.93-4.686-.868.258-1.673.557-2.375.815-1.93.733-3.2 1.208-5.088.692-1.003-.302-1.815-1.042-2.209-2.013-.542-1.183-.542-2.543 0-3.726.507-1.261 1.737-2.081 3.097-2.064 2.066-.036 4.008.978 5.16 2.694.713 1.237 2.293 1.662 3.53.95 1.237-.713 1.662-2.294.95-3.53-2.122-3.393-5.888-5.402-9.888-5.275-3.245.086-6.153 2.03-7.472 4.996-1.22 2.555-1.24 5.52-.052 8.091.515 1.156 1.267 2.19 2.209 3.035-1.314-.195-2.654-.11-3.933.248-2.916.837-5.295 2.951-6.471 5.748-1.784 3.225-1.127 7.253 1.59 9.744 2.745 2.807 7.534 4.51 11.353 2.342 1.242-.7 1.681-2.276.98-3.52-.701-1.242-2.277-1.68-3.52-.98-1.3.733-3.653.073-5.16-1.445-.97-1.09-1.313-2.602-.908-4.004.612-1.492 1.922-2.585 3.499-2.921 1.174-.336 2.437-.124 3.437.578l.32.206c.609.32 1.032 1.879 1.414 3.097.271 1.132.67 2.229 1.187 3.272 2.435 4.407 6.43 6.956 10.826 6.956h.94c4.83-.392 8.958-3.798 10.764-8.876.071-.207.113-.422.124-.64-.777.453-1.66.695-2.56.702-1-.003-1.98-.297-2.817-.847z"></path><path fill="#FFF" fill-rule="nonzero" d="M159.4 176.924c0 1.71 1.385 3.097 3.095 3.097 1.71 0 3.097-1.387 3.097-3.097s-1.387-3.096-3.097-3.096-3.096 1.386-3.096 3.096z"></path></g></g></g></svg> 