<?xml version="1.0" encoding="UTF-8"?> <svg xmlns="http://www.w3.org/2000/svg" xmlns:xlink="http://www.w3.org/1999/xlink" width="71px" height="46px" viewBox="0 0 71 46" version="1.1"><!-- Generator: Sketch 64 (93537) - https://sketch.com --><title>travelport logo mobile</title><desc>Created with Sketch.</desc><g id="Mobile" stroke="none" stroke-width="1" fill="none" fill-rule="evenodd"><g id="Home-footer-collapsed" transform="translate(-70.000000, -2561.000000)" fill="#FFFFFF"><g id="Group-37" transform="translate(70.000000, 2561.000000)"><g id="Group-11"><path d="M63.9144189,35.5789851 C63.3162744,36.0152916 62.9083989,36.9239901 62.7071949,38.2815703 L62.1866889,41.7572601 L59.8968999,41.7572601 L61.1713742,33.2547508 L63.3425184,33.2547508 C63.3425184,33.2547508 63.1817739,34.1317378 63.0428994,34.6227193 C63.5415354,33.8419603 64.3403372,33.0360508 65.6793279,33.0606546 L65.3414364,35.3105308 C64.7919527,35.2093821 64.2873024,35.3067036 63.9144189,35.5789851 L63.9144189,35.5789851 Z M69.2709287,30.9627748 L66.8903792,31.4980431 L65.7799299,39.2236206 C65.6153582,40.3050921 65.7022914,40.9693933 66.0489309,41.3756286 C66.3769809,41.7550731 66.9395867,41.9234721 67.8739824,41.9234721 C68.4458829,41.9234721 69.1293204,41.8348986 69.7187169,41.6932903 L70.0008399,39.8168443 C69.6093669,39.9294748 69.1998512,39.9754018 68.8548519,39.9754018 C68.5344564,39.9754018 68.3387199,39.9163528 68.2255427,39.7845861 C68.1304082,39.6741426 68.0833877,39.4953553 68.0833877,39.2367426 C68.0833877,39.0809188 68.1014304,38.8928368 68.1342354,38.6697628 C68.1342354,38.6697628 68.6104547,35.4997063 68.6760647,35.0530116 L70.7148954,35.0530116 L70.9838964,33.2547508 L68.9461592,33.2547508 C68.9554539,33.2044498 69.0937817,32.2186596 69.2709287,30.9627748 L69.2709287,30.9627748 Z M39.5534259,29.7746871 L41.8415747,29.7746871 L40.0433139,41.7572601 L37.7557119,41.7572601 L39.5534259,29.7746871 Z M47.8377819,37.2859386 C47.5633134,39.1093498 46.7098367,40.0749103 45.3681122,40.0749103 C44.9728119,40.0749103 44.6458554,40.0300768 44.3363949,39.9404098 C44.3544377,39.8244988 44.6764734,37.6752246 44.6764734,37.6752246 C44.8716632,36.3706791 45.6928817,34.9852146 46.8262944,34.9852146 C47.1691067,34.9852146 47.4222519,35.0885503 47.6010392,35.2930348 C47.9033919,35.6440483 47.9815772,36.3143638 47.8377819,37.2859386 L47.8377819,37.2859386 Z M49.6956384,33.8747653 C49.2456632,33.3504321 48.5802684,33.0863518 47.7142164,33.0863518 C46.5649479,33.0863518 45.5982939,33.5986566 44.9443809,34.5024343 C45.0559179,34.0705018 45.1494122,33.5232051 45.1893249,33.2547508 L43.0520792,33.2547508 L41.2357757,45.3466738 L43.5261114,45.3466738 C43.6813884,44.3111293 44.0422434,41.9070696 44.0553654,41.8119351 C44.3626389,41.8556751 44.6622579,41.8753581 45.0690399,41.8753581 C47.9066724,41.8753581 49.8006144,40.1230243 50.2576974,37.0699723 C50.4703832,35.6522496 50.2740999,34.5483613 49.6956384,33.8747653 L49.6956384,33.8747653 Z M34.9361222,36.3198313 L32.0093694,36.3198313 C32.2931327,35.3745006 32.9639949,34.7823703 33.7966952,34.7823703 C34.1974629,34.7823703 34.5178584,34.9114033 34.7201559,35.1525201 C34.8858212,35.3531773 34.9722077,35.6249121 34.9722077,35.9546023 C34.9722077,36.0699666 34.9568987,36.1918918 34.9361222,36.3198313 L34.9361222,36.3198313 Z M34.1001414,33.0694026 C31.6824129,33.0694026 29.8557212,34.8370453 29.4456587,37.5707953 C29.2253184,39.0399126 29.4314432,40.1514553 30.0536447,40.8758991 C30.6534294,41.5730053 31.6479677,41.9234721 33.0115622,41.9234721 C33.9978992,41.9234721 35.0345372,41.7496056 35.9350344,41.4428788 L36.2204379,39.5462031 C35.3631339,39.9168996 34.4473277,40.1082621 33.6179079,40.1082621 C32.8650332,40.1082621 32.3248442,39.9240073 32.0137434,39.5582316 C31.7868422,39.2936046 31.6725714,38.9212678 31.6725714,38.4483291 C31.6725714,38.2859443 31.6900674,38.1049701 31.7201387,37.9157946 L36.8945807,37.9157946 C36.9886217,37.6003198 37.0755549,37.2208753 37.1253092,36.8835306 C37.1695959,36.5975803 37.1898257,36.3263923 37.1898257,36.0666861 C37.1898257,35.2186768 36.9640179,34.5166498 36.5216972,34.0005178 C35.9886159,33.3810501 35.1750519,33.0694026 34.1001414,33.0694026 L34.1001414,33.0694026 Z M29.9645244,33.2547508 L25.5063249,41.7572601 L23.2247372,41.7572601 L21.3521184,33.2547508 L23.8480322,33.2547508 L24.8781092,38.7506818 L27.5249259,33.2547508 L29.9645244,33.2547508 Z M9.57129615,32.2569321 L5.9982849,32.2569321 C5.98133565,32.3668288 4.57290765,41.7572601 4.57290765,41.7572601 L2.25140715,41.7572601 C2.25140715,41.7572601 3.65218065,32.4051013 3.6756909,32.2569321 L0.0004374,32.2569321 L0.3000564,30.2569206 L9.87200865,30.2569206 L9.57129615,32.2569321 Z M57.0581739,37.4537908 C56.8258052,38.9972661 55.9887309,39.9579058 54.8689869,39.9579058 C54.3747249,39.9579058 54.0007479,39.8130171 53.7563507,39.5314408 C53.4075242,39.1252056 53.3058287,38.4209916 53.4529044,37.4384818 C53.7186249,35.6648248 54.8099379,35.0360623 55.6617744,35.0360623 C56.1571299,35.0360623 56.5289199,35.1771238 56.7683964,35.4548728 C57.1013672,35.8419718 57.1986887,36.5139276 57.0581739,37.4537908 L57.0581739,37.4537908 Z M56.0849589,33.0863518 C53.5338234,33.0863518 51.4709357,34.9584238 51.0663407,37.6396858 C50.8487342,39.1011486 51.0526719,40.2061303 51.6726864,40.9256533 C52.2429467,41.5883143 53.1631269,41.9234721 54.4091702,41.9234721 C56.9608524,41.9234721 59.0253804,40.0459326 59.4283352,37.3564693 C59.6432079,35.9256246 59.4338027,34.8299376 58.8061337,34.1011198 C58.2254852,33.4264303 57.3113192,33.0863518 56.0849589,33.0863518 L56.0849589,33.0863518 Z M11.4903887,35.5789851 C10.8916974,36.0152916 10.4854622,36.9239901 10.2831647,38.2815703 L9.7610184,41.7572601 L7.4734164,41.7572601 L8.74789065,33.2547508 L10.9184882,33.2547508 C10.9184882,33.2547508 10.7566502,34.1317378 10.6183224,34.6227193 C11.1169584,33.8419603 11.9174004,33.0360508 13.2547509,33.0606546 L12.9179529,35.3105308 C12.3679224,35.2093821 11.8621787,35.3067036 11.4903887,35.5789851 L11.4903887,35.5789851 Z M17.8633067,38.1776878 C17.7216984,39.1219251 16.9054007,40.1432541 15.8392382,40.1432541 C15.5423529,40.1432541 15.3110777,40.0585078 15.1760304,39.9004971 C15.0819894,39.7900536 15.0322352,39.6462583 15.0322352,39.4762191 C15.0322352,39.4275583 15.0371559,39.3778041 15.0437169,39.3264096 C15.1711097,38.4794938 16.1011314,38.0650573 17.8818962,38.0519353 C17.8726014,38.1104376 17.8633067,38.1776878 17.8633067,38.1776878 L17.8633067,38.1776878 Z M17.3898212,33.0694026 C16.4603462,33.0694026 15.3909032,33.2438158 14.4483062,33.5434348 L14.1437664,35.5784383 C14.8725842,35.1940731 15.8846184,34.8671166 16.8015182,34.8671166 C17.4100509,34.8671166 17.8069914,34.9835743 18.0131162,35.2219573 C18.1350414,35.3652058 18.1940904,35.5625826 18.1962774,35.8173681 C18.1968242,36.0371616 18.1459764,36.3690388 18.1115312,36.5243158 C15.0819894,36.5379846 13.1005674,37.7020153 12.8091497,39.6440713 C12.7861862,39.7900536 12.7774382,39.9322086 12.7774382,40.0678026 C12.7774382,40.5500361 12.9130322,40.9595518 13.1798462,41.2695591 C13.5499959,41.6976643 14.1547014,41.9234721 14.9349137,41.9234721 C16.0721537,41.9234721 17.1295682,41.3668806 17.7413814,40.5046558 C17.6555417,40.8316123 17.5664214,41.2717461 17.4942504,41.7572601 L19.6659414,41.7572601 L19.9458774,39.5462031 L20.4696639,36.0573913 C20.6189267,35.0617596 20.4959079,34.3728546 20.0825649,33.8933548 C19.6047054,33.3378568 18.7249847,33.0694026 17.3898212,33.0694026 L17.3898212,33.0694026 Z" id="Fill-1"></path><path d="M48.6395908,13.6398212 C42.655412,14.6770059 36.4962733,16.1526842 31.8248413,18.2297874 L21.415268,16.2844509 C18.8154718,17.0220167 16.4409365,17.8405014 14.6634523,18.6923379 L36.901415,26.8055612 C42.64229,20.9750192 53.859413,15.4632324 60.8676545,13.6190447 C55.7604628,13.6190447 51.8933,13.6523964 48.6395908,13.6398212" id="Fill-7"></path><g id="Group-24" transform="translate(7.291622, 0.500000)"><path d="M41.3479688,12.6398212 C35.36379,13.6770059 29.2046513,15.1526842 24.5332193,17.2297874 L24.5332193,17.2297874 L14.1225525,15.2844509 L14.1225525,15.2844509 L5.71986902e-13,12.6463822 C6.96504825,11.3292614 15.798888,9.76227592 27.4769213,9.76227592 C37.3747365,10.3462049 49.7378475,10.5627179 58.5886365,10.5627179 C54.655317,10.8546824 48.111813,11.4686827 41.3479688,12.6398212 Z" id="Combined-Shape"></path><path d="M4.02107287,5.97871125 C18.6264056,8.39425275 34.1191136,10.482291 57.0427009,9.11377575 C47.5713506,8.319348 35.5669076,4.79335725 27.1376629,-1.24344979e-14 L4.02107287,5.97871125 Z" id="Fill-9"></path></g></g></g></g></g></svg> 