<?xml version="1.0" encoding="UTF-8"?> <svg xmlns="http://www.w3.org/2000/svg" xmlns:xlink="http://www.w3.org/1999/xlink" width="66px" height="28px" viewBox="0 0 66 28" version="1.1"><!-- Generator: Sketch 64 (93537) - https://sketch.com --><title>tripwire</title><desc>Created with Sketch.</desc><g id="Mobile" stroke="none" stroke-width="1" fill="none" fill-rule="evenodd"><g id="Home-footer-collapsed" transform="translate(-273.000000, -2479.000000)" fill="#FFFFFF"><g id="Group-21" transform="translate(273.000000, 2479.000000)"><path d="M53.2758786,11.4248922 C53.0430682,11.3306779 52.8102577,11.2838253 52.5548199,11.2838253 C51.5551932,11.2838253 50.1367089,11.9193903 50.1367089,13.874975 L50.1367089,20.9634601 L47.7638526,20.9634601 L47.7638526,9.02268056 L50.1367089,9.02268056 L50.1367089,10.2948291 C51.1132054,9.4229643 51.9036547,8.88161365 53.2758786,8.88161365 L53.2758786,11.4248922 Z M43.6245534,6.78547134 L45.9969068,6.78547134 L45.9969068,4.19483094 L43.6245534,4.19483094 L43.6245534,6.78547134 Z M43.6245534,20.9634601 L45.9969068,20.9634601 L45.9969068,9.02268056 L43.6245534,9.02268056 L43.6245534,20.9634601 Z M39.2765795,20.9634601 L37.1837997,20.9634601 L35.8809663,13.874975 L35.834706,13.874975 L34.5323754,20.9634601 L32.4395956,20.9634601 L29.6493901,9.02268056 L32.1605248,9.02268056 L33.6026421,16.4411706 L33.6494054,16.4411706 L34.9743633,9.02268056 L36.8348355,9.02268056 L38.0904028,16.4411706 L38.1376688,16.4411706 L39.5556504,9.02268056 L42.066785,9.02268056 L39.2765795,20.9634601 Z M17.4180425,6.78547134 L19.7898931,6.78547134 L19.7898931,4.19483094 L17.4180425,4.19483094 L17.4180425,6.78547134 Z M17.4180425,20.9634601 L19.7898931,20.9634601 L19.7898931,9.02268056 L17.4180425,9.02268056 L17.4180425,20.9634601 Z M15.9065345,11.4248922 C15.6737241,11.3306779 15.4414165,11.2838253 15.1854758,11.2838253 C14.1853463,11.2838253 12.7663591,11.9193903 12.7663591,13.874975 L12.7663591,20.9634601 L10.3950113,20.9634601 L10.3950113,9.02268056 L12.7663591,9.02268056 L12.7663591,10.2948291 C13.7438613,9.4229643 14.5343106,8.88161365 15.9065345,8.88161365 L15.9065345,11.4248922 Z M56.5754512,15.9013477 L56.5754512,17.5248904 C56.5754512,18.6325458 56.9948117,18.7028246 58.0406988,18.7028246 L66,18.7028246 L66,3.15949146 C66,1.41423401 64.6031374,0 62.8809435,0 L3.11955934,0 C1.39686264,0 0,1.41423401 0,3.15949146 L0,9.02268056 L4.90611548,9.02268056 L4.90611548,4.19483094 L7.27796613,4.19483094 L7.27796613,9.02268056 L8.74371653,9.02268056 L8.74371653,11.2838253 L7.27796613,11.2838253 L7.27796613,17.5248904 C7.27796613,18.6325458 7.69632096,18.7028246 8.74371653,18.7028246 L8.74371653,20.9634601 L7.76621437,20.9634601 C5.62667134,20.9634601 4.90611548,19.432604 4.90611548,18.161474 L4.90611548,11.2838253 L0,11.2838253 L0,24.8405085 C0,26.4462269 1.18215409,27.7677743 2.71226677,27.9704625 C9.94346968,24.3842055 15.7290354,23.6411851 21.5573417,22.7866354 L21.5573417,9.02268056 L23.9291923,9.02268056 L23.9291923,10.1064004 C24.5335944,9.4229643 24.9987124,8.88161365 26.1843864,8.88161365 C27.1377527,8.88161365 27.8351783,9.23453557 28.254036,10.0116768 C28.5331068,10.5296011 28.6492606,11.260399 28.6492606,12.5788909 L28.6492606,17.1246067 C28.6492606,18.8438915 28.5793672,19.5268184 28.2771662,20.0218257 C27.8819415,20.6573907 27.3006697,21.1050363 26.1612562,21.1050363 C25.2310201,21.1050363 24.4868312,20.6573907 23.9754527,19.8802495 L23.9291923,19.8802495 L23.9291923,22.4551027 C37.8545754,20.6904931 51.9614801,22.5202888 66,22.3262582 L66,20.9634601 L57.0636995,20.9634601 C54.9236536,20.9634601 54.2030977,19.432604 54.2030977,18.161474 L54.2030977,15.432313 L54.2061147,15.432313 L54.2061147,13.0265364 C54.2061147,12.0609665 54.3217657,11.212528 54.6481026,10.6008985 C55.2057414,9.56403121 56.2988945,8.88161365 57.7405091,8.88161365 C59.9263125,8.88161365 61.2749034,10.5061749 61.2749034,12.6028264 L61.2749034,15.8998199 L56.5774625,15.8998199 L56.5754512,15.9013477 Z M57.7405091,11.2838253 C57.0194504,11.2838253 56.5774625,11.7548971 56.5774625,12.6491697 L56.5774625,14.0155326 L58.9030528,14.0155326 L58.9030528,12.6491697 C58.9030528,11.7548971 58.4615678,11.2838253 57.7405091,11.2838253 L57.7405091,11.2838253 Z M25.1148663,18.7028246 C26.0214693,18.7028246 26.2779128,18.0433241 26.2779128,17.2896091 L26.2779128,12.9083865 C26.2779128,11.9428166 25.9284457,11.2838253 25.1148663,11.2838253 C24.3943104,11.2838253 23.9291923,11.8959641 23.9291923,12.7673196 L23.9291923,17.4072498 C23.9291923,18.161474 24.4405708,18.7028246 25.1148663,18.7028246 L25.1148663,18.7028246 Z M25.9495646,23.8326695 C25.2652125,23.8311417 24.5924255,23.841327 23.9291923,23.8622069 L23.9291923,25.7913097 L21.5573417,25.7913097 L21.5573417,23.9783198 C14.2180303,24.4850403 8.31580792,26.2358997 4.05230959,28 L62.8809435,28 C64.6031374,28 66,26.5852567 66,24.8405085 L66,22.8253397 C59.1916774,23.3351158 46.9940194,23.8805406 25.9495646,23.8326695 L25.9495646,23.8326695 Z" id="tripwire"></path></g></g></g></svg> 