<?xml version="1.0" encoding="UTF-8"?> <svg xmlns="http://www.w3.org/2000/svg" xmlns:xlink="http://www.w3.org/1999/xlink" width="414" height="170" viewBox="0 0 414 170"><defs><radialGradient id="prefix__b" cx="50%" cy="0%" r="100%" fx="50%" fy="0%" gradientTransform="matrix(0 1 -.38636 0 .5 -.5)"><stop offset="0%" stop-color="#32C5FF"></stop><stop offset="100%" stop-color="#32C5FF" stop-opacity="0"></stop></radialGradient><linearGradient id="prefix__d" x1="50%" x2="50%" y1="122.456%" y2="5.48%"><stop offset="0%" stop-color="#005A7F"></stop><stop offset="100%" stop-color="#009ECE"></stop></linearGradient><path id="prefix__a" d="M0 0H494.802V233.442H0z"></path></defs><g fill="none" fill-rule="evenodd"><g opacity=".71" style="mix-blend-mode:multiply" transform="translate(-41 -94)"><mask id="prefix__c" fill="#fff"><use xlink:href="#prefix__a"></use></mask><path fill="url(#prefix__b)" opacity=".716" style="mix-blend-mode:multiply" d="M0 118.206H496.584V310.068H0z" mask="url(#prefix__c)" transform="matrix(1 0 0 -1 0 428.274)"></path></g><g><path fill="#00608F" fill-rule="nonzero" d="M0.179 163.606L6.379 169.805 163.255 163.606 169.446 6.73 163.255 0.538 0.179 0.538z" transform="translate(-41 -94) translate(161 95)"></path><path fill="url(#prefix__d)" fill-rule="nonzero" d="M6.535 6.73H169.60999999999999V169.80499999999998H6.535z" transform="translate(-41 -94) translate(161 95)"></path><path fill="#FFF" fill-rule="nonzero" d="M135.322 116.996L131.157 111.833 127.289 111.833 131.422 116.988 123.492 126.814 115.569 116.996 117.23 114.937 124.529 114.937 126.034 116.871 121.48 122.509 123.429 124.927 130.027 116.778 125.987 111.833 115.834 111.833 111.67 116.996 123.492 131.649zM82.832 132.834h7.143c.328 0 .593-.265.593-.593v-7.143c0-.327-.265-.592-.593-.592h-2.979v-1.786c.005-.33.27-.597.6-.6h11.9c.33.003.597.27.601.6v1.786h-2.979c-.327 0-.592.265-.592.592v7.143c0 .328.265.593.592.593h7.143c.328 0 .593-.265.593-.593v-7.143c0-.327-.265-.592-.593-.592h-2.978v-1.786c.002-.475-.186-.93-.521-1.265-.336-.336-.791-.523-1.265-.521h-5.358v-2.402h2.98c.327 0 .592-.265.592-.593v-7.127c0-.327-.265-.593-.593-.593h-7.143c-.327 0-.592.266-.592.593v7.143c0 .327.265.593.592.593h2.98v2.386h-5.358c-.474-.002-.93.185-1.265.52-.336.336-.523.791-.521 1.266v1.786h-2.979c-.327 0-.593.265-.593.592v7.143c0 .328.266.593.593.593zm20.829-7.143v5.958h-5.95v-5.958h5.95zm-13.093-8.329v-5.957h5.958v5.957h-5.958zm-7.128 8.329h5.958v5.958H83.44v-5.958z" transform="translate(-41 -94) translate(161 95)"></path><path stroke="#FFF" stroke-linecap="round" stroke-linejoin="round" d="M65.076 90.724L72.71 90.724 72.71 100.963 72.71 154.872M72.71 145.639L94.28 145.639 94.28 140.983 101.719 140.983 101.719 145.639 122.961 145.639 122.961 140.983 134.316 140.983 134.316 145.639 144.633 145.639 144.633 101.524 72.71 101.524" transform="translate(-41 -94) translate(161 95)"></path><path fill="#FFF" fill-rule="nonzero" d="M52.435 62.19c5.24 0 9.186-1.809 9.186-4.226v-14.17c0-2.386-3.946-4.226-9.186-4.226s-9.186 1.81-9.186 4.226v14.17c0 2.417 3.953 4.226 9.186 4.226zm0-21.25c4.468 0 7.798 1.505 7.798 2.854 0 1.35-3.345 2.847-7.798 2.847-4.453 0-7.798-1.505-7.798-2.847 0-1.34 3.33-2.854 7.798-2.854zm-7.798 5.155c1.56 1.177 4.445 1.95 7.798 1.95 3.353 0 6.238-.78 7.798-1.95v2.44c0 1.342-3.345 2.855-7.798 2.855-4.453 0-7.798-1.513-7.798-2.854v-2.441zm0 4.679c1.56 1.177 4.445 1.942 7.798 1.942 3.353 0 6.238-.78 7.798-1.942v2.44c0 1.342-3.345 2.847-7.798 2.847-4.453 0-7.798-1.505-7.798-2.846v-2.441zm0 4.741c1.56 1.178 4.445 1.918 7.798 1.918 3.353 0 6.238-.78 7.798-1.95v2.442c0 1.372-3.345 2.877-7.798 2.877-4.453 0-7.798-1.505-7.798-2.846v-2.44zM94.21 45.962L90.045 40.8 86.178 40.8 90.311 45.962 82.38 55.78 74.457 45.962 76.118 43.904 83.417 43.904 84.922 45.838 80.376 51.476 82.317 53.893 88.915 45.744 84.875 40.8 74.722 40.8 70.558 45.962 82.38 60.615z" transform="translate(-41 -94) translate(161 95)"></path><path stroke="#FFF" stroke-linecap="round" stroke-linejoin="round" d="M25.297 19.768L32.924 19.768 32.924 30.007 32.924 83.908M32.924 74.683L54.501 74.683 54.501 70.028 61.941 70.028 61.941 74.683 83.183 74.683 83.183 70.028 94.537 70.028 94.537 74.683 104.854 74.683 104.854 30.569 32.924 30.569" transform="translate(-41 -94) translate(161 95)"></path></g></g></svg> 