<?xml version="1.0" encoding="UTF-8"?> <svg xmlns="http://www.w3.org/2000/svg" width="668" height="666" viewBox="0 0 668 666"><defs><linearGradient id="prefix__b" x1="50.516%" x2="49.808%" y1="32.139%" y2="56.355%"><stop offset="0%" stop-color="#005A7F"></stop><stop offset="100%" stop-color="#009ECE"></stop></linearGradient><linearGradient id="prefix__c" x1="49.998%" x2="49.998%" y1="20.868%" y2="69.076%"><stop offset="0%" stop-color="#005A7F"></stop><stop offset="100%" stop-color="#009ECE"></stop></linearGradient><linearGradient id="prefix__d" x1="50.485%" x2="49.823%" y1="34.497%" y2="55.508%"><stop offset="0%" stop-color="#00814B"></stop><stop offset="100%" stop-color="#8FDF00"></stop></linearGradient><radialGradient id="prefix__a" cx="50%" cy="50%" r="50%" fx="50%" fy="50%" gradientTransform="matrix(0 1 -1.15775 0 1.079 0)"><stop offset="0%" stop-color="#62D3FF"></stop><stop offset="100%" stop-color="#FFF" stop-opacity="0"></stop></radialGradient></defs><g fill="none" fill-rule="evenodd"><ellipse fill="url(#prefix__a)" opacity=".587" style="mix-blend-mode:multiply" cx="334" cy="333" rx="334" ry="333"></ellipse><g><g fill-rule="nonzero" opacity=".4"><path fill="#4D4D4E" d="M221.08 120.523L111.274 56.743 1.671 119.764 111.376 184.54z" transform="translate(116 172) translate(115.709 205.907)"></path><path fill="#024F71" d="M221.08 65.08L111.274 1.3 1.671 64.321 111.376 129.097z" opacity=".1" transform="translate(116 172) translate(115.709 205.907)"></path><path fill="#353535" d="M111.376 184.489L1.671 119.713 1.671 128.591 111.376 193.367 221.08 129.35 221.08 120.473z" transform="translate(116 172) translate(115.709 205.907)"></path><path fill="#2B2B2B" d="M47.899 0.844L147.612 57.924 100.051 85.232 0.371 28.135z" opacity=".46" transform="translate(116 172) translate(115.709 205.907) translate(64.135 62.447)"></path><path fill="#EAEAEA" d="M48.152 0.371L147.848 57.451 100.304 84.759 0.624 27.662z" opacity=".34" transform="translate(116 172) translate(115.709 205.907) translate(11.814 92.827)"></path><path fill="#FFF" d="M178.903 110.346c-.152.354-31.106 6.886-31.713 6.886-2.143-.59-4.207-1.44-6.144-2.532.135-.27 19.46-4.354 20.254-4.354.793 0 17.805-.371 17.603 0zM138.684 94.667c0-.152-.726-1.047-1.098-1.317-.637-.51-1.334-.94-2.075-1.282-.813-.313-1.679-.463-2.549-.44-.926-.041-1.851.108-2.717.44-.719.248-1.392.613-1.992 1.08-.54.523-.76.76-.81 1.114.033.576.272 1.122.675 1.535.456.557 1.317 1.098 1.401 1.587.113.497-.08 1.014-.49 1.316-.856.294-1.765.404-2.666.321-1.148-.312-2.206-.89-3.089-1.688-.675-.725-.793-1.097-1.08-1.097-.669.168-1.28.512-1.772.996-.135.32.911 1.13 1.266 1.452.743.513 1.535.954 2.363 1.316.657.28 1.361.434 2.076.456.66.086 1.33.086 1.991 0 .802-.077 1.585-.294 2.312-.642.647-.208 1.228-.58 1.688-1.08.506-.54.422-.54.422-.996 0-.455-.135-.59-.557-1.181-.422-.59-.894-1.046-1.08-1.316-.186-.27-.506-.726-.354-1.08.156-.428.507-.754.945-.878.725-.186 1.485-.186 2.21 0 .823.175 1.588.552 2.228 1.097.557.49.912 1.012 1.08 1.13.626-.118 1.205-.41 1.672-.843zM131.156 90.295c0-.253-1.181-.675-1.688-.793-.506-.118-11.983 4.034-11.983 4.034l7.51-6.144-1.99-1.08-11.208 4.152s7.157-5.705 7.157-6.093c0-.388-1.57-1.3-1.908-1.3-3.182 2.557-6.209 5.302-9.063 8.22 0 .338 1.603 1.114 2.144 1.148.54.034 11.24-4.135 11.24-4.135l-7.19 5.94s1.266 1.064 1.688 1.064c.422 0 15.291-4.76 15.291-5.013zM113.992 81.536c-.62-.526-1.287-.995-1.992-1.401-.933-.478-1.945-.781-2.987-.894-.6-.085-1.207-.085-1.806 0-.32 0-1.047.236-1.013.607.034.371 2.262.405 3.173.827.758.248 1.43.705 1.941 1.317.287.405 0 .911-.304 1.333-.704.547-1.524.928-2.396 1.114-.22-.085-.237-.203-.574-.422-.765-.478-1.554-.918-2.363-1.317-.7-.32-1.459-.487-2.228-.489-.897-.059-1.798-.008-2.684.152-.811.163-1.58.49-2.261.962-.552.36-1.027.825-1.401 1.367-.182.472-.084 1.007.253 1.384.897.751 1.983 1.242 3.14 1.418 1.027.082 2.06.082 3.088 0 .152.084-1.03 1.451-.86 1.552.924.119 1.86.119 2.784 0 .203-.118.169-.337.456-.742.393-.422.863-.766 1.384-1.013.692-.422 4.084-2.21 4.827-2.7.81-.492 1.52-1.134 2.093-1.89.139-.409.034-.86-.27-1.165zm-8.608 4.894c-.823.205-1.667.307-2.515.304-.703.053-1.405-.13-1.991-.523-.287-.135-.692-.456-.726-.743-.088-.4.055-.818.371-1.08.541-.544 1.275-.853 2.042-.86.809-.055 1.617.102 2.346.455 1.013.388 2.16.928 2.16 1.266 0 .337-1.231 1.03-1.687 1.181zM177.013 112.878c-.27-.389-13.131 2.734-13.502 3.375-.372.642-2.262 8.439-2.684 8.675-.422.237-14.143-5.907-14.582-5.57-.44.338 19.02 10.65 19.797 10.465.777-.186 11.258-16.54 10.97-16.945zM120.878 101.62c1.097.278 2.16.674 3.173 1.182.945.557 1.249.742 1.13 1.114-.118.37-.658.607-1.282.928-1.548.71-3.159 1.274-4.81 1.688-1.007.185-2.033.253-3.055.202-.32 0-.355-.354.253-.54.608-.186 1.688-.422 2.228-.54.895-.213 1.766-.519 2.599-.911.641-.338 1.046-.608 1.13-.844.085-.237 0-.338-.286-.574-.733-.457-1.514-.83-2.33-1.114-.742-.253-1.94-.523-1.687-.743.253-.22 2.093-.05 2.937.152z" transform="translate(116 172) translate(115.709 205.907)"></path><path fill="#FFF" d="M90.886 87.24s-.422-.742-.776-.624c-.355.118-.659 1.603-.355 2.97.677 2.429 2.008 4.624 3.848 6.346 2.438 2.036 5.113 3.77 7.967 5.165 2.588 1.17 5.326 1.976 8.135 2.397 1.948.35 3.915.593 5.89.725 1.243.15 2.496.201 3.747.152.27-.152.439-.709-.456-.877l-5.502-1.182c-3.932-.662-7.733-1.95-11.257-3.814-2.297-1.36-4.481-2.9-6.532-4.608-1.054-.921-1.99-1.97-2.785-3.122-.7-1.143-1.342-2.32-1.924-3.527zM120.928 145.148c-.827 0-7.325 3.375-7.325 4.118 0 .742 4.962 3.257 5.79 3.257.826 0 7.426-3.46 7.426-4.135 0-.675-5.064-3.24-5.89-3.24zm0 .742c.338 0 2.009.726 2.009.996-.816.688-1.756 1.215-2.768 1.553-.815-.186-1.577-.556-2.228-1.08.915-.662 1.945-1.148 3.038-1.435l-.05-.034zm-6.244 3.376c.73-.615 1.557-1.106 2.447-1.452.745.256 1.437.645 2.042 1.148-.766.619-1.634 1.098-2.565 1.418-.152.034-1.941-.827-1.84-1.08l-.084-.034zm4.945 2.48c-.823-.156-1.597-.502-2.262-1.012.803-.617 1.697-1.107 2.65-1.451.794.237 1.541.608 2.21 1.097-.795.558-1.65 1.028-2.548 1.4l-.05-.033zm3.375-1.788c-.732-.242-1.417-.607-2.025-1.08-.118-.237 2.413-1.57 2.751-1.57.338 0 2.042.827 2.042 1.097-.826.655-1.741 1.189-2.717 1.587l-.05-.034zM129.603 149.316c-.827 0-7.325 3.376-7.325 4.119 0 .742 4.963 3.257 5.79 3.257s7.426-3.376 7.426-4.135c0-.76-5.064-3.24-5.89-3.24zm0 .743c.338 0 2.009.726 2.009.996-.816.688-1.756 1.215-2.768 1.553-.815-.187-1.577-.556-2.228-1.08.913-.674 1.943-1.172 3.038-1.469h-.05zm-6.244 3.376c.73-.615 1.557-1.106 2.447-1.452.745.255 1.437.644 2.042 1.148-.766.618-1.634 1.098-2.565 1.418-.135 0-1.941-.861-1.874-1.114h-.05zm4.945 2.48c-.823-.156-1.597-.503-2.262-1.012.803-.617 1.697-1.107 2.65-1.452.794.238 1.541.61 2.211 1.098-.797.547-1.652 1.005-2.549 1.367h-.05zm3.375-1.788c-.728-.25-1.412-.614-2.025-1.08-.118-.237 2.414-1.57 2.751-1.57.338 0 2.042.827 2.042 1.097-.826.646-1.741 1.169-2.717 1.553h-.05zM110.667 150.734c-.827 0-7.325 3.376-7.325 4.118 0 .743 4.962 3.258 5.789 3.258s7.426-3.376 7.426-4.135c0-.76-5.063-3.24-5.89-3.24zm0 .743c.32 0 1.991.726 1.991 1.012-.817.682-1.756 1.204-2.768 1.536-.814-.19-1.575-.558-2.228-1.08.923-.679 1.965-1.177 3.072-1.468h-.067zm-6.245 3.375c.723-.617 1.544-1.108 2.43-1.451.749.254 1.442.65 2.043 1.164-.768.603-1.629 1.077-2.549 1.401-.135 0-1.94-.86-1.857-1.114h-.067zm4.928 2.481c-.816-.16-1.585-.506-2.245-1.012.798-.618 1.686-1.107 2.633-1.452.796.234 1.544.606 2.211 1.097-.792.546-1.64 1.005-2.531 1.367h-.068zm3.376-1.789c-.728-.239-1.408-.604-2.009-1.08-.135-.236 2.397-1.57 2.734-1.57.338 0 2.043.828 2.043 1.098-.821.644-1.73 1.167-2.7 1.552h-.068zM119.342 154.87c-.827 0-7.325 3.375-7.325 4.117 0 .743 4.962 3.258 5.789 3.258s7.426-3.46 7.426-4.135c0-.675-5.063-3.24-5.89-3.24zm0 .742c.32 0 1.991.726 1.991.996-.812.694-1.752 1.221-2.768 1.552-.813-.19-1.575-.558-2.227-1.08.922-.679 1.964-1.177 3.071-1.468h-.067zm-6.245 3.375c.723-.617 1.544-1.108 2.43-1.451.75.255 1.442.65 2.043 1.164-.768.604-1.629 1.077-2.549 1.401-.135 0-1.94-.86-1.856-1.114h-.068zm4.928 2.481c-.816-.16-1.584-.506-2.244-1.012.797-.618 1.685-1.107 2.633-1.452.8.235 1.554.606 2.227 1.097-.782.543-1.62 1.001-2.498 1.367h-.118zm3.376-1.789c-.728-.239-1.408-.604-2.009-1.08-.135-.236 2.397-1.57 2.735-1.57.337 0 2.042.828 2.042 1.098-.805.64-1.698 1.163-2.65 1.552h-.118zM96.574 137.722l-5.975 3.375c-.135.074-.22.217-.22.371-.001.151.084.29.22.355l4.945 2.582c.061.017.125.017.186 0 .066.017.136.017.202 0l5.756-3.375c.129-.072.209-.208.209-.355s-.08-.283-.21-.354l-4.708-2.498c-.106-.106-.262-.145-.405-.101zm-.86 5.822l-4.068-2.126 5.063-2.886 3.882 2.059-4.878 2.953z" transform="translate(116 172) translate(115.709 205.907)"></path><path fill="#FFF" d="M110.127 137.62c-.05-.098-.139-.17-.245-.2-.106-.029-.22-.011-.312.048l-2.6 1.435-1.687-.878 2.143-1.147c.13-.07.213-.203.217-.35.005-.147-.069-.285-.194-.363-.125-.077-.281-.082-.411-.013l-2.633 1.434-1.603-.81 1.94-1.03c.196-.11.27-.355.17-.556-.05-.098-.138-.17-.243-.202-.105-.032-.219-.02-.315.033l-2.447 1.3-1.94-.996 2.193-1.165c.095-.053.164-.142.193-.246.028-.105.014-.217-.04-.31-.105-.194-.345-.27-.54-.17l-2.684 1.452-1.334-.692c-.123-.058-.265-.058-.388 0l-1.688.928-2.295-1.164c-.2-.097-.442-.014-.54.185-.1.196-.025.436.169.54l1.806.929-2.363 1.283-2.296-1.182c-.205-.099-.452-.016-.557.186-.097.2-.014.441.186.54l1.806.928-2.228 1.215-2.278-1.164c-.206-.099-.452-.017-.557.185-.097.2-.015.442.185.54l1.772.912-2.312 1.266-2.261-1.148c-.096-.053-.21-.065-.315-.034-.105.032-.192.105-.242.203-.102.2-.027.446.168.557l1.688.911-.996.54c-.126.073-.203.209-.202.355 0 .154.084.297.22.37l.742.372-2.565 1.384c-.098.05-.171.138-.203.243-.032.105-.02.218.034.314.078.13.22.207.371.203.06.017.125.017.186 0l3.055-1.688 1.84.945-2.701 1.435c-.196.11-.27.356-.169.557.077.133.218.216.371.22.061.014.125.014.186 0l3.207-1.689 1.687.878-2.447 1.333c-.097.05-.17.138-.202.243-.032.105-.02.218.033.314.079.13.22.207.372.203.06.017.125.017.185 0l2.954-1.587 1.873.962-2.683 1.486c-.095.053-.164.142-.193.246-.028.105-.014.217.041.31.073.127.208.204.354.203h.203l3.156-1.688 1.215.608c.06.017.125.017.186 0h.202l1.469-.827 2.295 1.164h.186c.196.013.374-.118.42-.31.045-.191-.054-.388-.235-.466l-1.805-.928 2.295-1.283 2.329 1.198c.06.018.125.018.186 0 .152.007.292-.08.354-.219.053-.093.064-.204.033-.307-.032-.102-.105-.186-.202-.233l-1.856-.945 2.21-1.232 2.347 1.198h.185c.183-.005.34-.131.384-.309.043-.177-.038-.362-.198-.45l-1.873-.963 2.329-1.3 2.396 1.233h.186c.155 0 .297-.084.371-.22.099-.205.017-.451-.185-.556l-1.907-.98 1.232-.691c.135-.075.22-.217.219-.372.002-.15-.084-.289-.22-.354l-.658-.32 2.16-1.199c.105-.053.182-.148.21-.26.03-.114.009-.234-.057-.33zm-14.819 9.215l-3.814-1.957c-.065-.073-.156-.115-.253-.119l-5.958-2.987 12.22-6.75 9.906 5.062-12.101 6.751zM86.245 124.422l-4.895-2.6c-.115-.066-.256-.066-.371 0l-5.738 2.954c-.135.07-.224.204-.237.355.003.15.078.288.203.371l1.35.793-2.532 1.367-4.439-2.362c-.124-.05-.263-.05-.388 0l-2.903 1.451-2.447-1.283c-.116-.06-.255-.06-.371 0l-5.739 2.97c-.135.066-.22.205-.219.355-.008.144.063.28.186.355l4.658 2.784c.072.018.147.018.22 0h.185l5.975-3.139c.14-.062.23-.201.23-.354 0-.153-.09-.292-.23-.355l-1.57-.843 2.211-1.098 8.793 4.676-2.042 1.282-2.278-1.198c-.115-.066-.257-.066-.372 0l-5.738 2.954c-.136.065-.221.203-.22.354-.012.144.06.283.186.354l4.658 2.785h.203c.066.017.136.017.202 0l5.975-3.139c.133-.077.216-.218.22-.371.001-.151-.084-.29-.22-.355l-1.789-.962 2.245-1.418c.115-.08.184-.213.185-.354.002-.15-.083-.289-.219-.354l-4.27-2.262 2.464-1.35 2.498 1.485c.067.015.136.015.203 0 .06.017.124.017.185 0l5.992-3.14c.135-.073.22-.216.22-.37-.005-.145-.09-.275-.22-.338zm-23.629 6.667l-3.814-2.279 4.894-2.532 4.017 2.144-5.097 2.667zm10.008 5.417l-3.814-2.278 4.895-2.515 2.278 1.215 1.688.912-5.047 2.666zm7.494-9.046l-3.831-2.295 4.911-2.515 4.017 2.126-5.097 2.684zM61.13 111.004c-2.126-1.155-4.396-2.023-6.75-2.582-.169 0-.642 0-8.962 4.304-8.321 4.304-8.44 4.472-8.44 4.776 0 .692 3.022 2.886 5.267 4.017 2.12 1.17 4.392 2.039 6.75 2.582 3.138-1.222 6.179-2.677 9.098-4.354 8.439-4.338 8.439-4.59 8.439-4.76.455-1.012-5.334-3.966-5.401-3.983zm-12.1 12.203c-2.25-.546-4.418-1.386-6.448-2.498-1.68-.838-3.237-1.906-4.624-3.173.709-.405 2.548-1.401 4.742-2.549 1.683 1.172 3.43 2.249 5.232 3.224 1.84.979 4.625 2.16 5.992 2.717-1.582.862-3.217 1.623-4.894 2.279zm5.873-2.768c-.81-.32-4.388-1.688-6.582-2.937-1.658-.894-3.264-1.88-4.81-2.953l5.333-2.768c.135.1 3.224 2.092 4.675 2.852 1.148.59 4.979 2.329 6.633 3.089l-5.249 2.717zm6.16-3.207c-1.03-.456-5.89-2.667-7.156-3.375-1.266-.71-3.375-1.975-4.22-2.549 1.502-.813 3.046-1.546 4.625-2.194 2.247.607 4.412 1.486 6.447 2.616 1.734.847 3.38 1.865 4.912 3.038-.675.422-2.464 1.384-4.608 2.532v-.068z" transform="translate(116 172) translate(115.709 205.907)"></path></g><path fill="url(#prefix__b)" fill-rule="nonzero" d="M226.646 46.734L0.536 176.776 0.536 195.089 226.865 328.726 453.211 196.658 453.211 178.329z" transform="translate(116 172)"></path><path fill="#185580" fill-rule="nonzero" d="M227.084 310.397L0.755 176.776 0.755 195.089 227.084 328.726 453.43 196.658 453.43 178.329z" transform="translate(116 172)"></path><path fill="url(#prefix__c)" fill-rule="nonzero" d="M453.43 178.329L226.865 46.734 0.755 176.776 227.084 310.397z" transform="translate(116 172)"></path><path fill="#FFF" fill-rule="nonzero" d="M299.253 117.924l15.19-9.384-12.76-7.814c-.192-.118-.423-.154-.642-.1-.218.054-.406.193-.522.387-.117.19-.152.418-.098.634.054.216.193.401.385.513l10.413 6.397-88.185 54.616c-.194.115-.333.305-.384.525-.051.22-.01.45.114.64.246.386.755.506 1.147.27l12.574-7.781 29.637 17.772 5.62-3.747 7.764 4.355-4.793 3.595 28.692 18.565 6.751-3.375 13.705 8.016-5.587 3.376 15.072 9.215 63.342-37.13-97.435-59.545zm22.262 87.46l5.637-3.376-16.962-9.924-6.751 3.376-25.874-16.743 4.929-3.696-10.937-6.126-5.587 3.73-27.983-16.878 59.865-37.131-.152.236 95.646 58.481-59.916 35.325-11.915-7.274z" transform="translate(116 172)"></path><path fill="#FFF" fill-rule="nonzero" d="M358.156 171.899L362.797 174.785 361.194 182.414 325.295 184.759 329.785 162.447 342.241 162.447 355.945 170.92 353.954 177.84 334.662 178.565 335.27 175.038 349.228 174.667 350.325 172.253 340.62 165.688 334.46 165.688 331.405 180.895 356.823 179.527zM140.62 149.435l15.19-9.367-12.76-7.832c-.4-.242-.922-.114-1.164.287-.242.401-.114.922.287 1.165l10.413 6.38-88.236 54.616c-.311.2-.455.581-.354.938.1.357.422.606.793.614.16.001.317-.04.456-.118l12.557-7.78 29.637 17.772 5.62-3.747 7.764 4.354-4.793 3.612 28.692 18.566 6.75-3.376 13.705 8.017-5.586 3.375 15.071 9.216 63.342-37.131-97.384-59.561zm22.346 87.476l5.637-3.375-16.877-9.924-6.751 3.375-25.874-16.742 4.929-3.696-10.92-6.127-5.604 3.73-28.084-16.81 59.916-37.131-.135.236 95.628 58.481-60.05 35.207-11.815-7.224z" transform="translate(116 172)"></path><path fill="#FFF" fill-rule="nonzero" d="M157.11 177.722c-2.316-2.448-5.047-4.465-8.068-5.958-6.329-3.258-13.907-5.064-15.797-1.975l-18.988 12.793-.185.186c-.912 1.435-.473 3.561 1.249 5.991 1.992 2.597 4.44 4.81 7.223 6.532 3.282 2.207 7.105 3.473 11.055 3.663 1.313.108 2.622-.25 3.696-1.013l19.156-12.574c1.076-.146 2.03-.765 2.6-1.688.76-1.57.084-3.662-1.941-5.957zm-14.211 15.02c-2.836.456-8.827-1.18-12.152-2.92-6.211-3.273-10.025-8.438-9.215-10.615l4.709-3.173c.1 3.24 4.354 7.915 10.126 10.852 3.45 1.628 7.167 2.612 10.97 2.903l-4.438 2.954zm6.396-4.32c-2.801.557-8.911-.979-12.303-2.667-6.414-3.24-10.363-8.439-9.35-10.599l5.248-3.544c.287 3.375 5.25 7.983 10.718 10.802 2.97 1.605 6.207 2.663 9.552 3.122h.76l-4.557 2.987-.068-.101zm-12.776 8.523c-1.3 1.182-7.004 1.317-13.283-2.717-2.658-1.629-4.992-3.734-6.886-6.211-1.333-1.874-1.789-3.494-1.266-4.456l5.064-3.375c.22 3.24 4.32 7.848 9.974 10.818 3.369 1.675 7.01 2.733 10.751 3.123l-4.354 2.818zm21.384-13.89c-.523 1.013-2.211 1.434-4.675 1.181-3.18-.442-6.254-1.448-9.08-2.97-6.751-3.477-10.937-8.709-9.89-10.717.354-.692 1.4-1.064 2.953-1.064 7.193.741 13.908 3.95 19.004 9.08 1.57 1.84 2.211 3.477 1.688 4.49zM199.523 203.409L204.181 206.295 202.561 213.924 166.662 216.27 171.152 193.958 183.608 193.958 197.312 202.43 195.321 209.35 176.03 210.076 176.637 206.549 190.595 206.177 191.692 203.764 181.987 197.198 175.827 197.198 172.772 212.405 198.19 211.038zM318.021 145.333l-9.536-5.974c-.21-.135-.48-.135-.692 0l-9.147 6.042c-.177.12-.283.318-.283.531 0 .214.106.413.283.532l3.662 2.414-4.32 2.65-9.165-5.925c-.211-.135-.481-.135-.692 0l-4.608 2.92-4.776-2.987c-.204-.137-.47-.137-.675 0l-9.148 6.059c-.18.112-.29.31-.287.523 0 .212.109.409.287.523l9.148 6.043c.105.068.229.103.354.1.12.001.238-.034.338-.1l9.536-6.093c.176-.123.282-.325.282-.54 0-.216-.106-.417-.282-.54l-3.595-2.245 3.746-2.447 17.57 11.358-3.375 2.397-4.659-2.886c-.208-.144-.484-.144-.692 0l-9.181 6.025c-.177.115-.284.312-.284.523 0 .211.107.408.284.523l9.148 6.043c.1.079.226.12.354.118.12 0 .238-.035.338-.101l9.535-6.11c.188-.116.302-.32.304-.54-.004-.215-.119-.413-.304-.523l-3.662-2.313 3.696-2.633c.172-.118.273-.314.27-.523-.013-.212-.125-.406-.304-.523l-8.337-5.384 4.337-2.65 4.304 2.853c.107.064.23.099.355.1.12.001.237-.034.337-.1l9.553-6.093c.176-.124.283-.325.287-.54-.013-.208-.126-.397-.304-.507zm-39.595 12.135l-8.017-5.282 8.017-5.3 8.439 5.232-8.439 5.35zm19.19 12.085l-8.067-5.283 8.016-5.283 8.355 5.232-8.304 5.334zm10.498-18.33l-8-5.282 8.017-5.3 8.337 5.232-8.354 5.35z" transform="translate(116 172)"></path><g opacity=".4"><path fill="#3BAB24" fill-rule="nonzero" d="M111.781 127.899L1.671 63.376 1.671 72.219 110.97 136.743 221.08 72.979 221.08 64.118z" transform="translate(116 172) translate(115.709)"></path><path fill="url(#prefix__d)" fill-rule="nonzero" d="M221.08 64.101L111.679 0.557 1.671 63.342 111.781 127.882z" transform="translate(116 172) translate(115.709)"></path><path stroke="#FFF" stroke-linecap="round" d="M84.844 27.224L84.844 27.224" transform="translate(116 172) translate(115.709)"></path><path stroke="#FFF" stroke-dasharray="0" stroke-linecap="round" d="M90.599 30.464L168.203 74.11" transform="translate(116 172) translate(115.709)"></path><path stroke="#FFF" stroke-linecap="round" d="M171.089 75.73L171.089 75.73M56.152 47.882L56.152 47.882" transform="translate(116 172) translate(115.709)"></path><path stroke="#FFF" stroke-dasharray="0" stroke-linecap="round" d="M61.907 51.122L139.511 94.768" transform="translate(116 172) translate(115.709)"></path><path stroke="#FFF" stroke-linecap="round" d="M142.397 96.388L142.397 96.388" transform="translate(116 172) translate(115.709)"></path><path fill="#FFF" fill-rule="nonzero" d="M176.05 57.384l1.79-1.13c3.898-2.482 3.375-6.617-1.216-9.233-4.59-2.616-11.46-2.717-15.358-.236l-1.772 1.13c-1.254-.152-2.524.097-3.629.71l-2.245 1.434c-4.506 2.852-3.882 7.646 1.418 10.667 5.3 3.02 13.266 3.156 17.772.304l2.245-1.435c.834-.389 1.257-1.33.996-2.211zm-1.215-2.852l-1.147.725-10.549-6.042 1.148-.726c3.084-1.564 6.743-1.501 9.772.17 2.903 1.67 3.257 4.303.776 5.89v-.017zM172 60.557c-4.135 2.616-11.426 2.498-16.27-.27-4.844-2.768-5.418-7.14-1.283-9.772l2.228-1.418c1.55-.79 3.39-.758 4.911.084l12.254 7.022c1.468.827 1.687 2.16.388 2.953L172 60.557z" transform="translate(116 172) translate(115.709)"></path><path fill="#FFF" fill-rule="nonzero" d="M164.354 54.464c-.835-.329-1.764-.329-2.599 0-.658.304-.945.793-.725 1.3l-2.33 1.198c-.206.076-.347.27-.354.49.04.226.193.417.405.506l.776.439c.265.143.56.219.861.219.276-.001.546-.084.777-.236l1.856-1.469c.661.1 1.337-.018 1.924-.337.4-.188.613-.634.506-1.063-.18-.503-.586-.891-1.097-1.047z" transform="translate(116 172) translate(115.709)"></path><path stroke="#FFF" stroke-linejoin="round" d="M147.105 31.527L124.405 18.177 106.059 28.523 129.165 42.127z" transform="translate(116 172) translate(115.709)"></path><path stroke="#FFF" stroke-linecap="round" stroke-linejoin="round" d="M130.734 39.359L110.751 27.662M120.371 41.536L107.139 33.722" transform="translate(116 172) translate(115.709)"></path><path fill="#FFF" fill-rule="nonzero" d="M133.586 33.873c-.718-.574-1.507-1.056-2.345-1.434-1.527.707-2.999 1.525-4.406 2.447.75.588 1.58 1.066 2.465 1.418 1.488-.7 2.921-1.513 4.286-2.43zM124.658 26.464c-.715-.57-1.497-1.052-2.329-1.434-2.135 1.013-4.213 2.14-6.228 3.375.75.588 1.58 1.066 2.464 1.418 2.088-1.014 4.122-2.135 6.093-3.359zM135.392 28.692c-.712-.574-1.495-1.056-2.329-1.435-.22 0-9.856 5.367-9.856 5.536.749.589 1.579 1.066 2.464 1.418.27-.034 9.721-5.418 9.721-5.519zM130.211 27.41c-.715-.571-1.498-1.053-2.33-1.435-.219 0-8.185 4.54-8.185 4.709.75.588 1.58 1.065 2.464 1.417.254-.033 8.051-4.557 8.051-4.692z" transform="translate(116 172) translate(115.709)"></path><path stroke="#FFF" d="M119.848 36.641L116.101 38.92M115.224 33.907L111.477 36.203" transform="translate(116 172) translate(115.709)"></path><path fill="#FFF" fill-rule="nonzero" d="M92.776 42.565L95.224 43.747 94.599 47.376 75.916 48.54 78.414 37.907 84.962 37.755 91.46 41.738 91.055 45.148 81.502 45.215 81.502 44.084 88.523 43.966 88.759 42.295 83.949 39.359 80.962 39.359 79.257 46.464 92.287 46.008zM99.612 54.042L98.903 54.582 96.574 52.996 94.093 54.582 93.215 53.992 95.696 52.557 93.485 51.241 94.329 50.819 96.422 52.118 98.937 50.633 99.662 51.156 97.367 52.608zM111.916 61.62c.37 0 .675-.185.675-.405 0-.22-.304-.405-.675-.405-.372 0-.675.186-.675.405 0 .22.303.405.675.405zM110.7 58.65c-.875.102-1.72.384-2.48.827l2.497.81-.017-1.637zM107.46 60.118c-.257.29-.406.66-.422 1.047.004.209.05.416.135.607l2.582-.607-2.295-1.047zM109.705 63.477l.725-1.587-2.801.507c.593.525 1.306.895 2.076 1.08zM114.515 59.072c-.833-.307-1.712-.467-2.6-.473.203.777.423 1.57.423 1.57l2.177-1.097zM115.477 59.494l-1.89 1.282 3.037.287c-.12-.672-.543-1.251-1.147-1.57zM111.831 62.211l-1.316 1.451c.435.069.875.103 1.316.102.677.002 1.351-.078 2.009-.237l-1.536-1.316h-.473z" transform="translate(116 172) translate(115.709)"></path><path fill="#FFF" fill-rule="nonzero" d="M119.646 56.776c-.692-.118-8.929-1.991-8.929-1.991l-8.439 3.072-1.012 5.417 6.548 3.916 9.52-.49 5.231-4.81-2.92-5.114zm-.422 5.199c-.17 0-.473-.22-.473-.22h-1.384c-.359.968-1.114 1.736-2.076 2.11.338.354.59.624.625.641.196.143.32.366.337.608 0 .27-.456.22-.692 0-.16-.112-.268-.281-.304-.473l-.675-.59c-.885.3-1.816.45-2.75.438-.66-.001-1.316-.075-1.959-.219l-.337.371c.036.184.087.365.152.54.118.338-.388.304-.574.355-.186.05-.388-.203-.422-.473-.034-.27.338-.27.338-.27l.303-.658c-1.043-.258-1.974-.851-2.65-1.688l-2.042.355c-.523 0-.641 0-.692-.27-.05-.27.54-.304.659-.304l1.687-.388c-.094-.249-.145-.511-.152-.777.011-.507.183-.997.49-1.4l-1.857-.861s-.236-.355.119-.456c.354-.101 1.3.405 1.3.405l.995.32c.973-.763 2.144-1.232 3.375-1.35v-.725s-.455 0-.27-.422c.186-.422 1.03-.473 1.182-.203.085.211.085.447 0 .659.014.212.054.421.118.624h.118c1.26-.017 2.507.254 3.646.793l1.249-.641c-.001-.183.138-.337.32-.355.32 0 .895.237.861.456-.012.18-.133.333-.304.388-.185.01-.371.01-.557 0l-.827.557c.718.48 1.174 1.265 1.232 2.127.523.034 1.047.034 1.57 0 .236-.135.692.22.844.405.152.186-.338.557-.523.59z" transform="translate(116 172) translate(115.709)"></path><path fill="#FFF" fill-rule="nonzero" d="M114.768 63.224c.75-.25 1.38-.766 1.772-1.452h-3.004l1.232 1.452zM142.532 70.6c.66.254 1.284.595 1.856 1.012-.55.468-1.156.865-1.806 1.181-.615-.292-1.184-.673-1.687-1.13.488-.436 1.04-.794 1.637-1.064zM139.899 72.135c.662.251 1.287.592 1.856 1.013-.55.468-1.156.865-1.806 1.181-.613-.294-1.182-.675-1.687-1.13.49-.434 1.042-.792 1.637-1.064zM137.283 70.6c.662.25 1.286.591 1.856 1.012-.55.468-1.156.865-1.806 1.181-.613-.294-1.182-.675-1.687-1.13.49-.434 1.042-.792 1.637-1.064zM134.768 69.198c.66.255 1.285.596 1.856 1.013-.549.474-1.155.877-1.805 1.198-.616-.297-1.185-.684-1.688-1.147.493-.43 1.044-.788 1.637-1.064zM132.169 70.717c.66.255 1.284.596 1.856 1.013-.55.468-1.156.865-1.806 1.181-.616-.29-1.185-.67-1.687-1.13.49-.434 1.042-.792 1.637-1.064zM129.67 69.198c.661.255 1.285.596 1.857 1.013-.549.474-1.155.877-1.805 1.198-.617-.296-1.186-.683-1.688-1.147.494-.428 1.045-.786 1.637-1.064zM134.768 72.287c.66.255 1.285.595 1.856 1.013-.553.462-1.16.859-1.805 1.181-.612-.298-1.18-.678-1.688-1.13.489-.436 1.04-.795 1.637-1.064zM137.283 73.722c.662.25 1.286.592 1.856 1.012-.549.474-1.156.877-1.806 1.198-.614-.3-1.182-.686-1.687-1.147.494-.428 1.045-.786 1.637-1.063zM139.764 75.207c.66.255 1.284.595 1.856 1.012-.556.46-1.162.856-1.806 1.182-.641-.29-1.238-.672-1.772-1.131.515-.443 1.096-.801 1.722-1.063z" transform="translate(116 172) translate(115.709)"></path><path fill="#FFF" fill-rule="nonzero" d="M142.076 79.105c-1.159-.415-2.287-.911-3.376-1.485-1.265-.709-12.995-7.544-12.995-7.544-.592.326-1.156.698-1.688 1.114-.57.395-1.063.893-1.452 1.468-.273.518-.374 1.11-.287 1.688.102.947.583 1.812 1.334 2.397 1.267.979 2.623 1.838 4.05 2.565 1.53.617 3.112 1.097 4.726 1.435 1.016.168 2.043.258 3.072.27h2.734c.878-.048 1.752-.155 2.616-.321l1.79-.523c.575.445 1.227.782 1.923.996.889.175 1.798.226 2.7.151.338-.151.574-.202.423-.421-.416-.514-.926-.944-1.503-1.266-.32-.134-.654-.235-.995-.304.309-.047.571-.252.692-.54.155-.549.195-1.123.118-1.688 0 0 0-.101-.304 0-.46-.05-.924.037-1.333.253-.576.24-1.102.583-1.553 1.013-.304.253-.692.742-.692.742zM46.481 72.304c.099.199.335.288.54.202.2-.098.283-.34.186-.54-.741-1.295-2.088-2.128-3.578-2.21-1.93-.35-3.91.238-5.334 1.586-.422.386-.67.926-.69 1.497-.018.572.194 1.127.59 1.54.962.776 2.14 1.236 3.375 1.317h.236c.197-.004.366-.144.405-.337.031-.223-.117-.43-.338-.473h-.236c-1.031-.083-2.017-.464-2.835-1.097-.252-.265-.383-.623-.36-.988.022-.365.195-.704.478-.936 1.253-1.134 2.962-1.62 4.624-1.316 1.208.066 2.306.722 2.937 1.755zM56.506 76.878c-.056-.092-.146-.158-.25-.183-.105-.026-.215-.008-.307.048l-5.215 3.004.793-5.317c.018-.154-.054-.305-.185-.388-.129-.083-.294-.083-.422 0l-6.025 3.51c-.196.113-.264.362-.152.558.111.195.36.263.557.152l5.3-3.089-.794 5.3c-.016.158.055.313.186.405.072.017.147.017.219 0 .066.017.136.017.203 0l5.94-3.376c.121-.045.212-.147.242-.272.03-.125-.003-.257-.09-.352zM61.013 79.629l-6.245 3.73c-.095.053-.164.142-.193.246-.028.105-.014.217.041.31.075.125.21.201.354.203.066.022.137.022.203 0l6.262-3.73c.095-.052.164-.143.19-.249.026-.105.005-.217-.055-.308-.044-.103-.13-.184-.235-.222-.105-.039-.222-.031-.322.02zM75.021 70.008l-2.447-7.173c-.04-.115-.148-.195-.27-.202L59.899 61.45h-.203l-5.316 3.376c-.052.032-.094.08-.118.135v.101l2.43 7.308c.03.117.133.2.253.203l12.371 1.046c.091-.007.176-.05.237-.118.042-.085.042-.185 0-.27l-.912-3.375 5.924.421c.102-.004.198-.046.27-.118.079-.026.145-.08.186-.152zm-2.903-6.75l1.215 3.645H71.46l-.152-.473c.017-.049.017-.102 0-.152l-.776-2.329-.254-.776 1.84.084zm-.877 4.894l-4.642-.22-.169-.675 4.591.17.22.725zm-.422-1.35l-4.777-.17c-.098-.003-.193.04-.253.12-.042.078-.042.173 0 .252l.22.895h-1.553l-1.199-4 6.751.405.81 2.498zm-4.524 2.396l-3.966-.287-.169-.607 3.95.185.185.71zm3.291-6.228l.203.608-6.751-.388-.253-.86 6.801.64zm-5.84 4.794l-1.771-.085-1.165-4.017 1.688.102 1.249 4zm-1.687-5.502l.27.877-1.688-.101-.27-.928 1.688.152zm-2.346 0l.81 2.784-4.945-.185 4.135-2.6zm9.249 10.869l-11.73-.98-2.228-6.75 5.705.22 1.063 3.645c.03.125.141.215.27.22l6.076.438.844 3.207zm-2.025-3.933l-.186-.742 4.895.236c.097-.003.188-.046.253-.118.033-.093.033-.194 0-.287l-.304-.928h1.873l.76 2.295-7.291-.456zM88.895 98.987c.04.11.14.187.255.198.116.011.229-.045.29-.145.06-.1.058-.225-.005-.323-.733-1.18-1.99-1.934-3.376-2.025-1.9-.351-3.858.183-5.316 1.451-.403.341-.643.835-.662 1.362-.02.527.184 1.037.56 1.406 1.197.89 2.662 1.342 4.152 1.283.168 0 .304-.136.304-.304 0-.167-.136-.304-.304-.304-1.325.056-2.63-.33-3.713-1.097-.262-.26-.399-.62-.376-.988.022-.369.203-.71.494-.936 1.321-1.118 3.075-1.583 4.777-1.265 1.186.065 2.27.692 2.92 1.687zM102.11 105.553l-6.262 3.73c-.138.093-.182.276-.101.422.052.099.158.158.27.152.05.014.102.014.152 0l6.261-3.73c.145-.089.19-.278.102-.422-.089-.145-.278-.19-.422-.102v-.05zM94.7 105.198c-.193-.374-.438-.72-.725-1.03-1.334-1.063-1.688-1.788-1.587-2.109.101-.32.388-.337.844-.354 1.674-.018 3.217.9 4 2.38.033.074.095.132.17.16.077.029.161.025.235-.009.154-.07.228-.246.169-.405-.886-1.71-2.665-2.77-4.59-2.734-.76 0-1.25.304-1.402.776-.152.473.355 1.688 1.688 2.768.211.252.398.523.557.81.088.38-.042.776-.337 1.03-1.015.353-2.136.203-3.022-.405-1.232-.641-2.042-1.519-2.059-2.211 0-.168-.136-.304-.303-.304-.168 0-.304.136-.304.304 0 1.13 1.232 2.16 2.38 2.751.765.41 1.613.647 2.48.692.418.015.83-.096 1.182-.32.497-.408.72-1.062.574-1.688.025-.03.042-.064.05-.102zM114.582 92.101c.905.766 2.248.704 3.078-.144.83-.847.864-2.19.078-3.08-1.04-1.12-2.33-1.981-3.763-2.514-3.646-1.485-11.038-.557-10.92 4.27 0 0-.371.32-.49.084-3.223-3.29-11.662-2.835-13.772 1.688-.793 3.629 4.422 6.009 7.275 4.726 1.451-1.806-2.43-1.536-3.09-2.65-2.126-3.46 3.376-4.523 5.655-3.274 2.667 2.008-.22 4.354-.49 5.063-2.936 7.156 9.756 8.996 14.11 7.072-.32.236-2.548-1.367-2.548-1.688-2.92.776-10.6-1.249-7.376-5.316.962-1.199 2.025-2.16 1.89-3.477 2.127 2.65 8.44.962 9.064 5.063 1.298-.13 2.609.085 3.797.625 1.198-6.245-8.185-4.524-10.329-7.882.118-3.376 5.941-3.055 7.426-.962.59.692-.658 2.042.405 2.396z" transform="translate(116 172) translate(115.709)"></path><path fill="#FFF" fill-rule="nonzero" d="M113.857 99.257c-1.334 0-2.43.608-2.43 1.367 0 .76 1.096 1.384 2.43 1.384 1.333 0 2.43-.624 2.43-1.384 0-.759-1.08-1.367-2.43-1.367z" transform="translate(116 172) translate(115.709)"></path></g></g></g></svg> 