<?xml version="1.0" encoding="UTF-8"?> <svg xmlns="http://www.w3.org/2000/svg" xmlns:xlink="http://www.w3.org/1999/xlink" width="516px" height="595px" viewBox="0 0 516 595" version="1.1"><title>State-1</title><g id="State-1" stroke="none" stroke-width="1" fill="none" fill-rule="evenodd"><g id="diagram/0.-start"><polygon id="outer-D-box" fill="#575757" fill-rule="nonzero" points="257.869537 594.168609 -1.98951966e-12 525.810449 -1.98951966e-12 64.3385722 257.869537 129.446944 515.658546 64.3385722 515.658546 525.810449"></polygon><g id="Group-16" fill-rule="nonzero"><polygon id="outer-D-box" fill="#403F3F" points="257.869537 594.168609 0 525.810449 0 64.3385722 257.869537 129.446944"></polygon><polygon id="top-of-D-box" fill="#717171" points="257.869537 130.136304 -1.35116238e-13 64.4290554 257.869537 8.43547635e-15 515.658546 64.4290554"></polygon></g><polygon id="Fill-1" fill="#FFFFFF" opacity="0.9" points="82.4260453 203.775617 63 250.0159 130.75062 412.545735 186 281.301985 162.122294 224.046445 141.984796 218.930206 165.713436 276.135648 128.677243 364.082361 83.2865642 255.175975 91.0109073 236.77129 128.975376 246.421382 137.641547 267.7881 116.379276 318.286697 127.552471 345.063978 158.368534 272.127823 135.215832 217.208094"></polygon></g></g></svg> 