<?xml version="1.0" encoding="UTF-8"?> <svg xmlns="http://www.w3.org/2000/svg" xmlns:xlink="http://www.w3.org/1999/xlink" width="516px" height="595px" viewBox="0 0 516 595" version="1.1"><title>State-6</title><defs><radialGradient cx="30.5678271%" cy="54.2224719%" fx="30.5678271%" fy="54.2224719%" r="108.731993%" gradientTransform="translate(0.305678,0.542225),scale(0.536082,1.000000),translate(-0.305678,-0.542225)" id="radialGradient-1"><stop stop-color="#5F758A" offset="0%"></stop><stop stop-color="#363D45" offset="100%"></stop></radialGradient><linearGradient x1="50%" y1="-43.4136474%" x2="50%" y2="85.5598051%" id="linearGradient-2"><stop stop-color="#01597E" offset="0%"></stop><stop stop-color="#049CCB" offset="100%"></stop></linearGradient></defs><g id="State-6" stroke="none" stroke-width="1" fill="none" fill-rule="evenodd"><g><g id="Group" transform="translate(0.000000, 85.000000)"><rect id="Rectangle-3" fill="#FFFFFF" fill-rule="nonzero" x="60.5" y="27" width="401" height="209" rx="8.24"></rect><path d="M73.5,-6.82121026e-13 L73.5,272 L60.8094099,272 L60.809,12.846 L0.5,12.8467153 L0.5,0.233576642 L60.809,0.233 L60.8094099,-6.82121026e-13 L73.5,-6.82121026e-13 Z" id="Combined-Shape" fill="#6D7278"></path><path d="M73.5,236 L449.855342,236 C456.286509,236 461.5,230.768271 461.5,224.314607 L461.5,39.6853933 C461.5,33.2317288 456.286509,28 449.855342,28 L73.5,28 L73.5,236 Z" id="Rectangle-4" fill="url(#radialGradient-1)"></path><rect id="Rectangle-Copy-30" fill="#EEEEEE" fill-rule="nonzero" x="284.5" y="148" width="54" height="49" rx="6.16"></rect><rect id="Rectangle-Copy-31" fill="#EEEEEE" fill-rule="nonzero" x="367.5" y="148" width="54" height="49" rx="6.16"></rect><rect id="Rectangle-Copy-37" fill="#EEEEEE" fill-rule="nonzero" x="284.5" y="63" width="54" height="63" rx="6.16"></rect><rect id="Rectangle-Copy-38" fill="#EEEEEE" fill-rule="nonzero" x="367.5" y="63" width="54" height="63" rx="6.16"></rect><rect id="Rectangle-Copy-27" fill="url(#linearGradient-2)" fill-rule="nonzero" x="106.5" y="63" width="146" height="134" rx="6.16"></rect><polygon id="Fill-1-Copy-4" fill="#FCFCFC" points="194.949631 96 211.69656 115.95 179.617936 153.475 147.30344 115.95 154.143735 108.1125 183.627764 108.1125 189.760442 115.475 171.362408 137.0875 179.382064 146.35 206.035627 115 189.52457 96 148.482801 96 131.5 115.95 179.617936 172 227.5 115.95 210.753071 96"></polygon></g><g id="Dell_Logo-Copy" transform="translate(148.000000, 340.000000)" fill="#007DB8" fill-rule="nonzero"><g id="g3460" transform="translate(33.000000, 33.600000) scale(-1, 1) rotate(-180.000000) translate(-33.000000, -33.600000) translate(0.000000, 0.600000)"><path d="M32.8,61.6242424 C24.8385455,61.6242424 17.6285091,58.3949333 12.4083394,53.1707879 C7.18618182,47.9585697 3.95886061,40.7445576 3.95886061,32.7791273 C3.95886061,24.8196606 7.18618182,17.6106182 12.4083394,12.3964121 C17.6285091,7.17922424 24.8385455,3.94395152 32.8,3.94395152 C40.7634424,3.94395152 47.9774545,7.17922424 53.1896727,12.3964121 C58.4098424,17.6106182 61.6302061,24.8196606 61.6302061,32.7791273 C61.6302061,40.7445576 58.4098424,47.9585697 53.1896727,53.1707879 C47.9774545,58.3949333 40.7634424,61.6242424 32.8,61.6242424 M32.8,65.1189333 C50.6561212,65.1189333 65.1338424,50.6392242 65.1338424,32.7791273 C65.1338424,14.9249939 50.6561212,0.447272727 32.8,0.447272727 C14.9458667,0.447272727 0.462181818,14.9249939 0.462181818,32.7791273 C0.462181818,50.6392242 14.9458667,65.1189333 32.8,65.1189333" id="path3462"></path></g><g id="g3464" transform="translate(33.300000, 33.600000) scale(-1, 1) rotate(-180.000000) translate(-33.300000, -33.600000) translate(8.800000, 24.600000)"><path d="M8.928,8.8 C8.928,10.6538667 7.680064,11.7069333 5.913312,11.7069333 L4.832032,11.7069333 L4.832032,5.89111111 L5.88256,5.89111111 C7.525312,5.89111111 8.928,6.77111111 8.928,8.8 M28.161888,6.70755556 L20.196128,0.525066667 L12.91584,6.17466667 C11.865312,3.6872 9.326784,1.95946667 6.40336,1.95946667 L0.172608,1.95946667 L0.172608,15.6405333 L6.40336,15.6405333 C9.670016,15.6405333 12.024032,13.5930667 12.913856,11.4116444 L20.196128,17.0553778 L22.893376,14.9629333 L16.2192,9.79244444 L17.501856,8.80293333 L24.174048,13.9704889 L26.875264,11.8839111 L20.20208,6.70755556 L21.482752,5.71608889 L28.161888,10.8934222 L28.161888,15.6405333 L33.00384,15.6405333 L33.00384,5.95271111 L37.833888,5.95271111 L37.833888,1.94284444 L28.161888,1.94284444 L28.161888,6.70755556 Z M43.967424,5.95075556 L48.795488,5.95075556 L48.795488,1.94284444 L39.120512,1.94284444 L39.120512,15.6405333 L43.967424,15.6405333 L43.967424,5.95075556 Z" id="path3466"></path></g></g><g id="Lenovo-logo-vector-01" transform="translate(252.000000, 361.000000)" fill="#E60012" fill-rule="nonzero"><path d="M52.7134775,5.6 C50.4173045,5.6 47.8216306,6.65610561 46.2575707,8.73531353 L46.2575707,8.73531353 L46.2575707,8.73531353 L46.2575707,5.930033 L40.8,5.930033 L40.8,25.6 L46.2575707,25.6 L46.2575707,14.4118812 C46.2575707,12.3986799 47.8216306,10.2534653 50.7500832,10.2534653 C53.0129784,10.2534653 55.3424293,11.8046205 55.3424293,14.4118812 L55.3424293,25.6 L60.8,25.6 L60.8,13.4217822 C60.7667221,8.90033003 57.5054908,5.6 52.7134775,5.6" id="XMLID_23_"></path><polygon id="XMLID_27_" points="99.3480597 5.6 94.4 18.6791946 89.4519403 5.6 83.2 5.6 91.3910448 24.8 97.4089552 24.8 105.6 5.6"></polygon><path d="M24.8205788,11.2155844 C25.7569132,9.96623377 27.2282958,9.22337662 29.0340836,9.22337662 C31.007074,9.22337662 32.5118971,10.3714286 33.2810289,12.025974 L23.7170418,16.0441558 C23.4495177,13.9506494 23.9845659,12.3636364 24.8205788,11.2155844 M35.3543408,19.0831169 C33.0469453,20.8051948 31.7427653,21.2103896 29.6360129,21.2103896 C27.7299035,21.2103896 26.2585209,20.6025974 25.221865,19.5896104 L39.2,13.7142857 C38.8990354,11.5194805 38.0630225,9.59480519 36.8257235,8.10909091 C34.9864952,5.94805195 32.2778135,4.8 28.9672026,4.8 C22.94791,4.8 18.4,9.29090909 18.4,15.2 C18.4,21.2779221 22.94791,25.6 29.5691318,25.6 C33.2810289,25.6 37.0598071,23.8441558 38.8321543,21.7506494 L35.3543408,19.0831169 Z" id="XMLID_30_"></path><polygon id="XMLID_31_" points="17.6 20.6387597 5.43048327 20.6387597 5.43048327 0 0 0 0 25.6 17.6 25.6"></polygon><path d="M115.1675,9.52727273 C112.21,9.52727273 110.0325,11.8571429 110.0325,15.2 C110.0325,18.374026 112.3075,20.8727273 115.2325,20.8727273 C118.19,20.8727273 120.3675,18.4753247 120.3675,15.2 C120.3675,12.025974 118.06,9.52727273 115.1675,9.52727273 M115.1675,25.6 C109.35,25.6 104.8,21.1090909 104.8,15.2 C104.8,9.35844156 109.3825,4.8 115.2325,4.8 C121.05,4.8 125.6,9.29090909 125.6,15.2 C125.6,21.0415584 121.0175,25.6 115.1675,25.6" id="XMLID_34_"></path><path d="M73.5675,9.52727273 C70.61,9.52727273 68.4325,11.8571429 68.4325,15.2 C68.4325,18.374026 70.7075,20.8727273 73.6325,20.8727273 C76.59,20.8727273 78.7675,18.4753247 78.7675,15.2 C78.7675,12.025974 76.46,9.52727273 73.5675,9.52727273 M73.5675,25.6 C67.75,25.6 63.2,21.1090909 63.2,15.2 C63.2,9.35844156 67.7825,4.8 73.6325,4.8 C79.45,4.8 84,9.29090909 84,15.2 C84,21.0415584 79.4175,25.6 73.5675,25.6" id="XMLID_38_"></path></g></g></g></svg> 